<svg width="30" height="30" viewBox="0 0 30 30" fill="none" xmlns="http://www.w3.org/2000/svg">
<circle cx="15" cy="15" r="14.5" fill="currentColor" stroke="currentColor"/>
<path d="M21.9433 19.7691L15.4433 7.26912C15.4011 7.18798 15.3374 7.11999 15.2592 7.07254C15.181 7.02509 15.0913 7 14.9998 7C14.9083 7 14.8186 7.02509 14.7404 7.07254C14.6622 7.11999 14.5985 7.18798 14.5563 7.26912L8.0563 19.7691C8.01672 19.8453 7.99742 19.9304 8.00028 20.0162C8.00313 20.1021 8.02804 20.1857 8.0726 20.2591C8.11716 20.3325 8.17988 20.3932 8.2547 20.4353C8.32952 20.4774 8.41393 20.4996 8.4998 20.4996H21.4998C21.5857 20.4996 21.6701 20.4774 21.7449 20.4353C21.8197 20.3932 21.8824 20.3325 21.927 20.2591C21.9716 20.1857 21.9965 20.1021 21.9993 20.0162C22.0022 19.9304 21.9829 19.8453 21.9433 19.7691ZM14.4373 10.9996H15.5623V15.9996H14.4373V10.9996ZM14.9998 18.9996C14.8515 18.9996 14.7065 18.9556 14.5831 18.8732C14.4598 18.7908 14.3637 18.6737 14.3069 18.5366C14.2501 18.3996 14.2353 18.2488 14.2642 18.1033C14.2931 17.9578 14.3646 17.8242 14.4695 17.7193C14.5744 17.6144 14.708 17.543 14.8535 17.514C14.999 17.4851 15.1498 17.4999 15.2868 17.5567C15.4239 17.6135 15.541 17.7096 15.6234 17.8329C15.7058 17.9563 15.7498 18.1013 15.7498 18.2496C15.7498 18.4485 15.6708 18.6393 15.5301 18.7799C15.3895 18.9206 15.1987 18.9996 14.9998 18.9996Z" fill="white"/>
</svg>
