<svg width="16" height="16" viewBox="0 0 16 16" fill="none" xmlns="http://www.w3.org/2000/svg">
<circle cx="8" cy="8" r="8" fill="currentColor"/>
<path d="M7.85938 9.70898V10.3418H7.30273C7.31055 9.79492 7.31445 9.51953 7.31445 9.51562C7.32227 9.09766 7.35742 8.79492 7.41992 8.60742C7.52539 8.2832 7.8125 7.94336 8.28125 7.58789C8.63281 7.31836 8.86328 7.09961 8.97266 6.93164C9.16016 6.6582 9.25391 6.3457 9.25391 5.99414C9.25391 5.5957 9.14062 5.25781 8.91406 4.98047C8.65625 4.65625 8.30859 4.49414 7.87109 4.49414C7.52734 4.49414 7.22461 4.60742 6.96289 4.83398C6.69336 5.06836 6.55859 5.36523 6.55859 5.72461C6.55859 5.79883 6.56055 5.86719 6.56445 5.92969H5.9668C5.9668 5.52344 6.04297 5.17578 6.19531 4.88672C6.53125 4.25391 7.08008 3.9375 7.8418 3.9375C8.5293 3.9375 9.06836 4.19531 9.45898 4.71094C9.73633 5.07812 9.875 5.49805 9.875 5.9707C9.875 6.48633 9.70898 6.94531 9.37695 7.34766C9.20898 7.55469 8.95508 7.78711 8.61523 8.04492C8.3457 8.25195 8.16992 8.41602 8.08789 8.53711C7.99023 8.68164 7.92578 8.85352 7.89453 9.05273C7.87109 9.18555 7.85938 9.4043 7.85938 9.70898ZM7.61914 11.0801C7.75977 11.0801 7.87695 11.1289 7.9707 11.2266C8.06055 11.3242 8.10547 11.4414 8.10547 11.5781C8.10547 11.7266 8.04688 11.8496 7.92969 11.9473C7.84375 12.0215 7.73828 12.0586 7.61328 12.0586C7.47266 12.0586 7.35547 12.0098 7.26172 11.9121C7.17188 11.8145 7.12695 11.7012 7.12695 11.5723C7.12695 11.4199 7.18555 11.293 7.30273 11.1914C7.38867 11.1172 7.49414 11.0801 7.61914 11.0801Z" fill="white"/>
</svg>
