<svg width="187" height="124" viewBox="0 0 187 124" fill="none" xmlns="http://www.w3.org/2000/svg">
<g clip-path="url(#clip0)">
<path fill-rule="evenodd" clip-rule="evenodd" d="M0 0H186.729L186.93 58.3318C164.388 49.7377 92.6651 29.1695 0 54.8007V0Z" fill="#2C328C"/>
<path fill-rule="evenodd" clip-rule="evenodd" d="M0 123.733H186.729V77.0661C153.052 65.768 93.1888 48.8387 0 72.823V123.733Z" fill="#FFF200"/>
<path fill-rule="evenodd" clip-rule="evenodd" d="M186.729 77.0662C153.052 65.768 93.1888 48.8388 0 72.8231V54.8007C92.6651 29.1695 164.388 49.7665 186.93 58.3318L186.729 77.0662Z" fill="#ED1C24"/>
<path fill-rule="evenodd" clip-rule="evenodd" d="M59.4834 43.8118C64.1038 31.0106 74.6789 19.957 93.0526 20.0793C111.426 20.2015 123.68 30.723 126.988 44.4878C103.312 42.0211 87.5283 41.5896 59.4834 43.8118Z" fill="#FFF200"/>
<path d="M41.7193 100.094L54.2244 81.3956H58.8304L72.1533 100.094H67.2747L63.4794 94.4341H49.848L46.2608 100.094H41.7193ZM51.1107 92.4204H62.1521L58.7514 87.2496C57.9095 86.0033 57.1405 84.709 56.4485 83.3733C56.007 84.6376 55.417 85.8447 54.6907 86.9691L51.1035 92.442L51.1107 92.4204ZM94.0569 100.094V98.1091C92.2154 99.6385 89.7187 100.403 86.5667 100.403C85.2545 100.413 83.946 100.261 82.671 99.9501C81.7083 99.7522 80.7955 99.3608 79.9878 98.7995C79.4211 98.3655 78.9924 97.7759 78.7538 97.1022C78.5604 96.4003 78.4781 95.6722 78.5099 94.9447V86.5664H82.506V94.0673C82.462 94.883 82.5443 95.7005 82.7499 96.4909C83.0723 97.1638 83.6476 97.681 84.3498 97.9293C85.3157 98.2976 86.3446 98.4711 87.3775 98.4399C88.5224 98.4489 89.6612 98.2716 90.7494 97.9149C91.6257 97.6828 92.4065 97.1795 92.9807 96.4765C93.4702 95.6848 93.701 94.7596 93.6407 93.83V86.5664H97.6369V100.094H94.0569ZM107.33 100.094V86.5664H110.917V88.616C111.623 87.8103 112.491 87.1633 113.464 86.7174C114.281 86.4041 115.15 86.248 116.025 86.2572C117.426 86.2609 118.816 86.5041 120.136 86.9763L118.758 89.1338C117.818 88.8036 116.828 88.6334 115.831 88.6304C115.022 88.6176 114.218 88.7719 113.471 89.0835C112.849 89.3236 112.325 89.767 111.986 90.342C111.538 91.1615 111.308 92.0829 111.319 93.0173V100.101L107.33 100.094ZM141.387 98.4255C140.017 99.1045 138.572 99.6187 137.082 99.9573C135.631 100.262 134.152 100.411 132.67 100.403C130.08 100.403 128.092 100.044 126.693 99.3173C125.294 98.5909 124.606 97.6632 124.606 96.5341C124.609 96.1933 124.681 95.8566 124.816 95.5441C124.952 95.2316 125.148 94.9495 125.395 94.7146C125.976 94.1295 126.679 93.6801 127.454 93.3985C128.383 93.0588 129.345 92.8178 130.324 92.6793C131.106 92.5643 132.289 92.442 133.868 92.3341C136.258 92.2114 138.64 91.9472 140.999 91.543C140.999 91.2266 140.999 91.0324 140.999 90.9461C141.029 90.5416 140.937 90.1373 140.735 89.7858C140.533 89.4344 140.23 89.1521 139.866 88.9756C138.427 88.3768 136.872 88.1113 135.317 88.1989C133.905 88.1293 132.491 88.3219 131.149 88.7671C130.25 89.1494 129.536 89.8698 129.161 90.7735L125.258 90.4643C125.595 89.5309 126.205 88.7212 127.009 88.1414C128.079 87.4463 129.281 86.9811 130.539 86.775C132.303 86.4371 134.096 86.278 135.891 86.3003C137.536 86.2689 139.181 86.4063 140.798 86.7102C141.782 86.8778 142.725 87.2265 143.582 87.7386C144.145 88.1194 144.578 88.6641 144.823 89.2992C144.985 89.9916 145.05 90.7032 145.017 91.4136V94.4701C144.953 95.8227 145.04 97.1783 145.275 98.5118C145.476 99.1278 145.823 99.6857 146.287 100.137H142.111C141.698 99.6645 141.423 99.0874 141.315 98.4686L141.387 98.4255ZM141.049 93.305C138.896 93.7442 136.714 94.0349 134.521 94.1752C133.349 94.243 132.184 94.3944 131.034 94.6283C130.458 94.7367 129.916 94.9835 129.456 95.3474C129.288 95.4762 129.152 95.6402 129.055 95.8279C128.958 96.0156 128.904 96.2223 128.896 96.4334C128.896 97.0447 129.305 97.5553 130.108 97.9652C131.227 98.4304 132.436 98.6392 133.645 98.5765C135.037 98.6 136.424 98.4059 137.756 98.0012C138.769 97.7291 139.686 97.1786 140.404 96.4118C140.88 95.7466 141.109 94.9346 141.049 94.1177V93.305Z" fill="#2C328C" stroke="#2C328C" stroke-width="0.22" stroke-miterlimit="22.93"/>
</g>
<defs>
<clipPath id="clip0">
<rect width="186.93" height="123.733" fill="white"/>
</clipPath>
</defs>
</svg>
