<svg width="17" height="16" viewBox="0 0 17 16" fill="none" xmlns="http://www.w3.org/2000/svg">
<path d="M6.73344 8.79333L8.28011 7.62L9.82011 8.79333L9.23344 6.89333L10.7801 5.66667H8.88678L8.28011 3.79333L7.67344 5.66667H5.78011L7.32011 6.89333L6.73344 8.79333ZM13.6134 6.33333C13.6134 3.38667 11.2268 1 8.28011 1C5.33344 1 2.94678 3.38667 2.94678 6.33333C2.94678 7.68667 3.45344 8.91333 4.28011 9.85333V15L8.28011 13.6667L12.2801 15V9.85333C13.1068 8.91333 13.6134 7.68667 13.6134 6.33333ZM8.28011 2.33333C10.4868 2.33333 12.2801 4.12667 12.2801 6.33333C12.2801 8.54 10.4868 10.3333 8.28011 10.3333C6.07344 10.3333 4.28011 8.54 4.28011 6.33333C4.28011 4.12667 6.07344 2.33333 8.28011 2.33333ZM8.28011 12.3333L5.61344 13.0133V10.9467C6.40011 11.4 7.30678 11.6667 8.28011 11.6667C9.25344 11.6667 10.1601 11.4 10.9468 10.9467V13.0133L8.28011 12.3333Z" fill="#4595EC"/>
</svg>
