<svg width="123" height="80" viewBox="0 0 123 80" fill="none" xmlns="http://www.w3.org/2000/svg">
<g clip-path="url(#clip0)">
<path d="M112.189 79.7636L108.676 69.1287C108.676 69.1287 112.54 73.005 112.54 76.1855L111.846 68.8306C111.846 68.8306 113.828 71.5141 113.63 75.5892C113.432 79.6642 112.189 79.7636 112.189 79.7636Z" fill="#E6E6E6"/>
<path d="M36.7469 70.0799L33.3184 59.7007C33.3184 59.7007 37.0896 63.4837 37.0896 66.5878L36.4127 59.4097C36.4127 59.4097 38.3466 62.0287 38.1532 66.0058C37.9598 69.9829 36.7469 70.0799 36.7469 70.0799Z" fill="#E6E6E6"/>
<path d="M90.261 74.8694C90.2668 81.6971 76.7676 79.5969 60.2413 79.6112C43.715 79.6255 30.4199 81.7489 30.4141 74.9212C30.4082 68.0936 43.9025 66.5969 60.4288 66.5826C76.9551 66.5683 90.2551 68.0417 90.261 74.8694Z" fill="#E6E6E6"/>
<path d="M49.5189 59C48.0917 59.0024 46.7025 58.543 45.5607 57.6912L45.4899 57.6384L30.5811 46.2922C29.1916 45.2269 28.2835 43.6568 28.056 41.9263C27.8285 40.1958 28.3001 38.4461 29.3674 37.0611C30.4347 35.676 32.0106 34.7686 33.7495 34.5379C35.4883 34.3072 37.2482 34.7719 38.6431 35.8303L48.2998 43.1975L71.119 13.58C71.6482 12.8933 72.3081 12.3171 73.0611 11.8841C73.8141 11.4512 74.6454 11.17 75.5076 11.0567C76.3698 10.9434 77.246 11.0002 78.0861 11.2238C78.9263 11.4474 79.714 11.8334 80.4042 12.3598L80.4061 12.3613L80.2645 12.5569L80.4099 12.3613C81.8024 13.4259 82.7134 14.9967 82.943 16.7289C83.1727 18.4611 82.7022 20.2131 81.6349 21.6006L54.7945 56.4217C54.1735 57.224 53.3751 57.8732 52.4612 58.319C51.5473 58.7648 50.5425 58.9951 49.5247 58.9922L49.5189 59Z" fill="#009D33"/>
<path d="M78.6791 65.6489H76.5185L75.4902 57.2891H78.6791V65.6489Z" fill="#A0616A"/>
<path d="M74.7351 65.0293H79.142V67.6611H72.3516V67.4204C72.3516 66.7862 72.6027 66.178 73.0497 65.7296C73.4967 65.2812 74.103 65.0293 74.7351 65.0293Z" fill="#2F2E41"/>
<path d="M94.5599 77.9873H92.3993L91.3711 69.6274H94.5599V77.9873Z" fill="#A0616A"/>
<path d="M90.616 77.3682H95.0229V80H88.2324V79.7592C88.2324 79.1251 88.4836 78.5169 88.9306 78.0685C89.3776 77.6201 89.9838 77.3682 90.616 77.3682Z" fill="#2F2E41"/>
<path d="M104.525 53.1518C104.674 52.9701 104.782 52.7577 104.841 52.5296C104.9 52.3016 104.908 52.0634 104.865 51.8318C104.822 51.6002 104.729 51.3809 104.592 51.1893C104.456 50.9978 104.279 50.8386 104.074 50.7229L99.0562 30.2168L95.8477 31.6016L101.816 51.4293C101.645 51.787 101.611 52.195 101.72 52.5762C101.829 52.9574 102.074 53.2852 102.408 53.4975C102.742 53.7098 103.142 53.7919 103.532 53.7282C103.922 53.6645 104.276 53.4594 104.525 53.1518Z" fill="#A0616A"/>
<path d="M100.611 11.7081C100.432 11.5203 100.214 11.3741 99.9728 11.28C99.7313 11.1858 99.4722 11.1459 99.2136 11.1631C98.9551 11.1802 98.7035 11.254 98.4765 11.3793C98.2495 11.5046 98.0526 11.6782 97.8998 11.8881L90.1328 12.7826L91.3143 15.7878L98.3779 14.4617C98.7464 14.6959 99.1877 14.7864 99.6182 14.7161C100.049 14.6457 100.439 14.4194 100.714 14.08C100.989 13.7406 101.131 13.3116 101.112 12.8745C101.093 12.4373 100.915 12.0223 100.611 11.7081Z" fill="#A0616A"/>
<path d="M87.8125 51.0249L91.2017 76.5418L95.42 75.6706C95.42 75.6706 94.7997 57.0872 96.9088 54.847C99.018 52.6067 94.196 48.6821 94.196 48.6821L87.8125 51.0249Z" fill="#2F2E41"/>
<path d="M89.2144 43.9965L87.6575 46.3393C87.6575 46.3393 75.6689 41.3414 75.6689 49.3068C75.6689 57.2722 74.9828 62.6779 74.7347 63.0512C74.4865 63.4246 77.6053 64.3935 79.0942 64.1445C79.0942 64.1445 80.9309 51.3031 80.8068 50.5563C80.8068 50.5563 92.5671 56.3404 94.8004 55.8426C97.0336 55.3447 97.5612 53.5824 97.9334 52.5867C98.3056 51.5911 97.7777 43.6841 97.7777 43.6841L90.3339 41.4053L89.2144 43.9965Z" fill="#2F2E41"/>
<path d="M89.4239 29.9305L88.9801 29.3962C88.9801 29.3962 84.0097 18.1776 85.9624 15.1504C87.915 12.1232 96.4357 11.678 96.702 11.8561C96.9683 12.0341 96.066 14.3461 96.6873 15.4146C96.6873 15.4146 90.0867 16.8501 89.6429 17.0282C89.1991 17.2062 93.0629 23.7869 93.0629 23.7869L92.6191 27.7936L89.4239 29.9305Z" fill="#009D33"/>
<path d="M98.1227 24.4104C98.1227 24.4104 93.5074 24.9446 93.3299 24.9446C93.1523 24.9446 93.0636 23.7871 93.0636 23.7871L88.9808 29.3964C88.9808 29.3964 86.9693 45.6696 87.5019 45.4025C88.0344 45.1354 97.8565 46.6695 97.9452 45.9572C98.034 45.2449 97.8565 41.6834 98.1227 41.5054C98.389 41.3273 102.738 30.2868 102.738 30.2868C102.738 30.2868 102.294 27.9718 100.785 27.1705C99.2766 26.3692 98.1227 24.4104 98.1227 24.4104Z" fill="#009D33"/>
<path d="M101.317 28.7729L102.737 30.2866C102.737 30.2866 104.847 47.6795 103.694 48.2137C102.54 48.7479 100.268 48.6823 100.268 48.6823L98.0332 40.4367L101.317 28.7729Z" fill="#009D33"/>
<path d="M93.6868 23.3086C95.9431 23.3086 97.7721 21.4738 97.7721 19.2104C97.7721 16.9471 95.9431 15.1123 93.6868 15.1123C91.4306 15.1123 89.6016 16.9471 89.6016 19.2104C89.6016 21.4738 91.4306 23.3086 93.6868 23.3086Z" fill="#A0616A"/>
<path d="M92.7285 19.8503C92.6733 18.9999 91.6039 18.9708 90.7545 18.9627C89.905 18.9547 88.8895 18.9851 88.4089 18.2825C88.0912 17.8181 88.1519 17.1735 88.4143 16.6756C88.6767 16.1778 89.1084 15.7949 89.533 15.4266C90.6293 14.4756 91.7592 13.5321 93.0754 12.9234C94.3916 12.3147 95.9341 12.0688 97.2991 12.5574C98.976 13.1576 101.243 16.2474 101.439 18.0226C101.634 19.7978 100.927 21.6075 99.7349 22.9341C98.5428 24.2606 95.8142 23.7254 94.0971 24.1973C95.141 22.7151 94.4529 20.022 92.7805 19.3299L92.7285 19.8503Z" fill="#2F2E41"/>
</g>
<defs>
<clipPath id="clip0">
<rect width="123" height="80" fill="white"/>
</clipPath>
</defs>
</svg>
