<svg width="25" height="25" viewBox="0 0 25 25" fill="none" xmlns="http://www.w3.org/2000/svg">
<g clip-path="url(#clip0)">
<path d="M0 2.86511H1.4254V21.4049H0V2.86511ZM2.29781 21.4049H3.10029V2.86511H2.29781V21.4049ZM3.67872 21.4049H4.47961V2.86511H3.67872V21.4049ZM5.53317 21.4049H7.28752V2.86511H5.53317V21.4049ZM8.69226 21.4049H9.56943V2.86511H8.69226V21.4049ZM10.9297 21.4049H14.5655V2.86511H10.9297V21.4049ZM20.4038 21.4049H21.5988V2.86511H20.4038V21.4049ZM22.6412 2.86511V21.4049H24.27V2.86511H22.6412ZM16.0243 21.4049H16.8061V2.86511H16.0243V21.4049ZM17.9264 21.4049H18.7082V2.86511H17.9264V21.4049Z" fill="currentColor"/>
</g>
<defs>
<clipPath id="clip0">
<rect width="24.27" height="24.27" fill="white"/>
</clipPath>
</defs>
</svg>
