<svg width="16" height="16" viewBox="0 0 16 16" fill="none" xmlns="http://www.w3.org/2000/svg">
<path d="M12.12 6.6665L10.9867 3.5465C10.7933 3.01984 10.2933 2.6665 9.73333 2.6665H8V3.99984H9.73333L10.7067 6.6665H7.5L7.26 5.99984H8V4.6665H4.66667V5.99984H5.83333L7.04667 9.33317H6.6C6.30667 7.8465 5.06 6.7465 3.5 6.67317C1.63333 6.57984 0 8.13317 0 9.99984C0 11.8665 1.46667 13.3332 3.33333 13.3332C4.97333 13.3332 6.3 12.2065 6.6 10.6665H9.4C9.69333 12.1532 10.94 13.2532 12.5 13.3265C14.3667 13.4132 16 11.8665 16 9.99317C16 8.1265 14.5333 6.65984 12.6667 6.65984H12.12V6.6665ZM5.21333 10.6665C4.94667 11.4465 4.22 11.9998 3.33333 11.9998C2.21333 11.9998 1.33333 11.1198 1.33333 9.99984C1.33333 8.87984 2.21333 7.99984 3.33333 7.99984C4.22 7.99984 4.94667 8.55317 5.21333 9.33317H3.33333V10.6665H5.21333ZM9.4 9.33317H8.46667L7.98 7.99984H10C9.70667 8.3865 9.49333 8.83317 9.4 9.33317ZM12.6667 11.9998C11.5467 11.9998 10.6667 11.1198 10.6667 9.99984C10.6667 9.37984 10.94 8.8465 11.3667 8.47984L12.0067 10.2398L13.26 9.7865L12.6133 8.0065C12.6333 8.0065 12.6533 7.99984 12.6733 7.99984C13.7933 7.99984 14.6733 8.87984 14.6733 9.99984C14.6733 11.1198 13.7867 11.9998 12.6667 11.9998Z" fill="currentColor"/>
</svg>
