<svg width="14" height="15" viewBox="0 0 14 15" fill="none" xmlns="http://www.w3.org/2000/svg">
<path fill-rule="evenodd" clip-rule="evenodd" d="M6.58462 13.9045H2.49099C1.90023 13.9045 1.47825 13.7782 1.22599 13.5248C0.972809 13.2713 0.84668 12.8677 0.84668 12.3141V2.68411C0.84668 2.11953 0.976518 1.71233 1.23527 1.46526C1.49402 1.2182 1.91228 1.09375 2.49099 1.09375H6.83132C7.47124 1.09375 8.02583 1.13127 8.49418 1.20722C8.96345 1.28317 9.3845 1.42866 9.75547 1.64461C10.0717 1.82488 10.3527 2.05364 10.5957 2.3309C11.0815 2.87821 11.348 3.58173 11.3451 4.30925C11.3451 5.59124 10.6755 6.52917 9.33535 7.12304C11.0947 7.65926 11.9757 8.70242 11.9757 10.2534C11.992 11.6498 11.1504 12.9171 9.84636 13.4598C9.39433 13.6338 8.92148 13.7498 8.43946 13.8048C7.90991 13.8716 7.29132 13.9054 6.58462 13.9054V13.9045ZM6.38337 8.21561H3.62894V11.9554H6.47519C8.3087 11.9554 9.22499 11.3241 9.22499 10.0594C9.22499 9.4125 8.98757 8.94308 8.51273 8.65301C8.03789 8.36111 7.32841 8.21561 6.38337 8.21561ZM3.62894 3.04281V6.35439H6.04579C6.72188 6.35439 7.24402 6.29309 7.61313 6.17138C7.97513 6.05365 8.27733 5.80299 8.45708 5.47137C8.61011 5.22705 8.68616 4.95345 8.68616 4.65056C8.68616 4.00362 8.44503 3.57446 7.96462 3.36125C7.48329 3.14896 6.7497 3.04281 5.762 3.04281H3.62894Z" fill="black"/>
<mask id="mask0" mask-type="alpha" maskUnits="userSpaceOnUse" x="0" y="1" width="12" height="13">
<path fill-rule="evenodd" clip-rule="evenodd" d="M6.58462 13.9045H2.49099C1.90023 13.9045 1.47825 13.7782 1.22599 13.5248C0.972809 13.2713 0.84668 12.8677 0.84668 12.3141V2.68411C0.84668 2.11953 0.976518 1.71233 1.23527 1.46526C1.49402 1.2182 1.91228 1.09375 2.49099 1.09375H6.83132C7.47124 1.09375 8.02583 1.13127 8.49418 1.20722C8.96345 1.28317 9.3845 1.42866 9.75547 1.64461C10.0717 1.82488 10.3527 2.05364 10.5957 2.3309C11.0815 2.87821 11.348 3.58173 11.3451 4.30925C11.3451 5.59124 10.6755 6.52917 9.33535 7.12304C11.0947 7.65926 11.9757 8.70242 11.9757 10.2534C11.992 11.6498 11.1504 12.9171 9.84636 13.4598C9.39433 13.6338 8.92148 13.7498 8.43946 13.8048C7.90991 13.8716 7.29132 13.9054 6.58462 13.9054V13.9045ZM6.38337 8.21561H3.62894V11.9554H6.47519C8.3087 11.9554 9.22499 11.3241 9.22499 10.0594C9.22499 9.4125 8.98757 8.94308 8.51273 8.65301C8.03789 8.36111 7.32841 8.21561 6.38337 8.21561ZM3.62894 3.04281V6.35439H6.04579C6.72188 6.35439 7.24402 6.29309 7.61313 6.17138C7.97513 6.05365 8.27733 5.80299 8.45708 5.47137C8.61011 5.22705 8.68616 4.95345 8.68616 4.65056C8.68616 4.00362 8.44503 3.57446 7.96462 3.36125C7.48329 3.14896 6.7497 3.04281 5.762 3.04281H3.62894Z" fill="white"/>
</mask>
<g mask="url(#mask0)">
<rect x="-2.86279" y="-1.65088" width="18.5484" height="18.3011" fill="#333333"/>
</g>
</svg>
