<svg width="723" height="510" viewBox="0 0 723 510" fill="none" xmlns="http://www.w3.org/2000/svg">
<circle cx="125.5" cy="234.5" r="113" fill="white" fill-opacity="0.5" stroke="#4B4B4B" stroke-width="25"/>
<circle cx="489.5" cy="384.5" r="113" fill="white" fill-opacity="0.5" stroke="#4B4B4B" stroke-width="25"/>
<path fill-rule="evenodd" clip-rule="evenodd" d="M256.214 37L234 42.9596L248.557 97.2204L126.818 218.797L143.07 235.071L255.434 122.857L297.902 281.158L308.639 278.278L319.255 293.549L412.816 228.508L399.688 209.622L317.797 266.551L297.098 189.394L390.762 145.51L381.004 124.683L291.045 166.831L256.214 37Z" fill="#E5E5E5"/>
<path fill-rule="evenodd" clip-rule="evenodd" d="M680.124 188.409C684.869 191.096 690.935 192.432 697 188C710 178.5 688 152 688 152L704.5 140.5C704.5 140.5 728.222 178 721 193C713.778 208 704.785 211.777 688 211C680.122 210.635 672.558 206.208 666.934 201.835L532.111 334.171L516 317.757L570.114 264.641L491.922 225.423L502.234 204.864L587.463 247.612L611.839 223.686L545 177.986L557.981 159L628.57 207.263L664.252 172.239L680.124 188.409Z" fill="#E5E5E5"/>
<path d="M245.5 10.5C226.5 -2.49983 200.5 -5 195 13.0002C180.944 59 286.5 55 296.5 43.5001C307.5 9.00009 264.5 23.4999 245.5 10.5Z" fill="#32A63C"/>
<path d="M487 381L516 318L542 320.5L497 387.5L487 381Z" fill="#E5E5E5"/>
<path d="M114.5 259.5L287.5 318L302 299L120.5 247L114.5 259.5Z" fill="#C3C3C3"/>
<path d="M123.941 236.458L303.925 267.39L315.3 246.37L127.927 223.178L123.941 236.458Z" fill="#C3C3C3"/>
<circle cx="312" cy="284" r="46" fill="#959595"/>
<circle cx="490" cy="385" r="27" fill="#959595"/>
<circle cx="490" cy="385" r="27" fill="#959595"/>
<circle cx="125" cy="234" r="35" fill="#959595"/>
<circle cx="125" cy="234" r="35" fill="#959595"/>
<rect x="653" y="95.876" width="32.1599" height="76" rx="13" transform="rotate(-27.5526 653 95.876)" fill="#959595"/>
<path fill-rule="evenodd" clip-rule="evenodd" d="M78.6231 199.562C79.3803 197.892 81.4152 194.58 84.6484 191.52C87.8258 188.514 91.696 186.18 96.1483 185.429L92.8204 165.708C83.4454 167.29 76.112 172.063 70.9022 176.993C65.7483 181.87 62.2125 187.323 60.4082 191.302L78.6231 199.562ZM46.1022 223.574C44.4353 235.144 45.5578 252.852 54.0513 269.763C62.7375 287.058 78.9333 303.064 106.336 310.639L111.664 291.361C89.8667 285.336 78.1459 273.175 71.9237 260.787C65.5089 248.014 64.7314 234.522 65.8978 226.426L46.1022 223.574Z" fill="#E5E5E5"/>
<path fill-rule="evenodd" clip-rule="evenodd" d="M431.599 395.134C430.882 393.446 429.822 389.707 429.758 385.256C429.695 380.882 430.596 376.454 433.056 372.667L416.286 361.77C411.106 369.742 409.657 378.372 409.76 385.543C409.862 392.638 411.483 398.932 413.191 402.953L431.599 395.134ZM427.266 435.326C434.656 444.384 448.451 455.543 466.649 460.736C485.26 466.046 508.004 464.956 532.126 449.91L521.542 432.941C502.353 444.909 485.468 445.307 472.137 441.503C458.393 437.581 447.934 429.022 442.763 422.684L427.266 435.326Z" fill="#E5E5E5"/>
<rect x="464" y="64" width="13" height="51" rx="5" fill="#FCB169"/>
<rect x="516.514" y="82" width="13" height="51" rx="5" transform="rotate(38.1647 516.514 82)" fill="#FCB169"/>
<rect x="412.214" y="88.7382" width="13" height="51" rx="5" transform="rotate(-36.1343 412.214 88.7382)" fill="#FCB169"/>
</svg>
