<svg width="19" height="14" viewBox="0 0 19 14" fill="none" xmlns="http://www.w3.org/2000/svg">
<path fill-rule="evenodd" clip-rule="evenodd" d="M7.81842 3.1531C7.81842 3.53193 8.13004 3.83939 8.51399 3.83939H17.3245C17.7086 3.83939 18.02 3.53213 18.02 3.1531C18.02 2.77407 17.7086 2.46681 17.3245 2.46681H8.51399C8.12984 2.46681 7.81842 2.77407 7.81842 3.1531ZM2.25391 3.1531C2.25391 2.26916 2.97451 1.55176 3.87689 1.55176C4.77278 1.55176 5.49987 2.26275 5.49987 3.1531C5.49987 4.03704 4.77927 4.75445 3.87689 4.75445C2.981 4.75445 2.25391 4.04345 2.25391 3.1531ZM7.81842 11.3886C7.81842 11.7674 8.13004 12.0749 8.51399 12.0749H17.3245C17.7086 12.0749 18.02 11.7676 18.02 11.3886C18.02 11.0096 17.7086 10.7023 17.3245 10.7023H8.51399C8.12984 10.7023 7.81842 11.0096 7.81842 11.3886ZM2.25391 11.3886C2.25391 10.5046 2.97451 9.78724 3.87689 9.78724C4.77278 9.78724 5.49987 10.4982 5.49987 11.3886C5.49987 12.2725 4.77927 12.9899 3.87689 12.9899C2.981 12.9899 2.25391 12.2789 2.25391 11.3886Z" fill="black"/>
<mask id="mask0" mask-type="alpha" maskUnits="userSpaceOnUse" x="2" y="1" width="17" height="12">
<path fill-rule="evenodd" clip-rule="evenodd" d="M7.81842 3.1531C7.81842 3.53193 8.13004 3.83939 8.51399 3.83939H17.3245C17.7086 3.83939 18.02 3.53213 18.02 3.1531C18.02 2.77407 17.7086 2.46681 17.3245 2.46681H8.51399C8.12984 2.46681 7.81842 2.77407 7.81842 3.1531ZM2.25391 3.1531C2.25391 2.26916 2.97451 1.55176 3.87689 1.55176C4.77278 1.55176 5.49987 2.26275 5.49987 3.1531C5.49987 4.03704 4.77927 4.75445 3.87689 4.75445C2.981 4.75445 2.25391 4.04345 2.25391 3.1531ZM7.81842 11.3886C7.81842 11.7674 8.13004 12.0749 8.51399 12.0749H17.3245C17.7086 12.0749 18.02 11.7676 18.02 11.3886C18.02 11.0096 17.7086 10.7023 17.3245 10.7023H8.51399C8.12984 10.7023 7.81842 11.0096 7.81842 11.3886ZM2.25391 11.3886C2.25391 10.5046 2.97451 9.78724 3.87689 9.78724C4.77278 9.78724 5.49987 10.4982 5.49987 11.3886C5.49987 12.2725 4.77927 12.9899 3.87689 12.9899C2.981 12.9899 2.25391 12.2789 2.25391 11.3886Z" fill="white"/>
</mask>
<g mask="url(#mask0)">
<rect x="0.862793" y="-1.65088" width="18.5484" height="18.3011" fill="#333333"/>
</g>
</svg>
