<svg width="16" height="16" viewBox="0 0 16 16" fill="none" xmlns="http://www.w3.org/2000/svg">
<path d="M3.92919 0.440687C3.79685 0.168229 3.53971 0 3.25445 0C3.05262 0 2.85788 0.0836574 2.70565 0.235658L0.45764 2.47864C0.242096 2.69304 0.0564954 3.0679 0.0160381 3.36961C-0.00361911 3.51384 -0.402477 6.95659 4.31754 11.6773C8.32463 15.6839 11.4492 15.9952 12.3121 15.9952L3.92919 0.440687ZM12.3121 15.5953C11.5564 15.5953 8.53322 15.3268 4.6004 11.3945C-0.0294522 6.76395 0.409251 3.44654 0.412375 3.42363L0.41249 3.42277C0.441288 3.208 0.586898 2.91425 0.73973 2.76223L0.740166 2.7618L2.98817 0.518817L2.98828 0.518713C3.07103 0.436082 3.16616 0.4 3.25445 0.4C3.37449 0.4 3.49853 0.46958 3.56939 0.615456L3.57257 0.621989L3.57597 0.628404L5.39115 4.04394C5.48764 4.26424 5.43269 4.56169 5.26232 4.73275C5.26222 4.73285 5.26212 4.73295 5.26202 4.73305L4.43771 5.55714L4.43765 5.55708L4.43218 5.56278C4.3572 5.64075 4.30991 5.74453 4.28818 5.79652C4.26674 5.84783 4.22541 5.9556 4.22322 6.06516L4.21506 6.47316H4.31045C4.36114 6.62753 4.44131 6.82776 4.56803 7.07199C4.86796 7.65002 5.42812 8.47355 6.47514 9.52034C7.52399 10.5693 8.34797 11.1291 8.9277 11.4281C9.21771 11.5776 9.44643 11.6618 9.61111 11.7092C9.69341 11.7328 9.75949 11.7472 9.80898 11.756C9.83373 11.7604 9.85425 11.7633 9.87052 11.7653C9.87866 11.7663 9.88566 11.7671 9.89153 11.7676C9.89766 11.7682 9.90255 11.7686 9.90168 11.7685L9.92798 11.7707L9.95432 11.7694C10.022 11.766 10.0819 11.7466 10.1042 11.7393C10.1378 11.7282 10.1722 11.7147 10.204 11.7007C10.2491 11.6808 10.3511 11.6336 10.4269 11.5615L10.427 11.5616L10.4343 11.5544L11.4014 10.5868L11.4017 10.5865C11.5028 10.4852 11.6603 10.4176 11.8371 10.4176L11.8401 10.4176C11.9279 10.417 12.0147 10.4365 12.0937 10.4747L12.1076 10.4825L15.3803 12.4107L15.3867 12.4145L15.3931 12.4179C15.5126 12.4826 15.5787 12.5816 15.596 12.6865C15.6124 12.7926 15.5788 12.9101 15.4789 13.0106C15.4788 13.0107 15.4787 13.0108 15.4786 13.0109L13.2331 15.2562L13.2328 15.2565C13.0816 15.408 12.7902 15.5525 12.5767 15.5821C12.4906 15.592 12.4039 15.5964 12.3172 15.5953L12.3172 15.5953H12.3121ZM4.62314 6.07316L4.96033 6.07991L5.00331 6.1229L5.02165 6.10456C5.02152 6.10585 5.02139 6.10705 5.02126 6.10814C5.02053 6.11439 5.01973 6.11909 5.01919 6.12197C5.01866 6.12481 5.01822 6.12675 5.01798 6.12774C5.01776 6.12864 5.01771 6.12873 5.01794 6.12796C5.01894 6.12444 5.0217 6.11604 5.02632 6.105C5.0277 6.1017 5.02903 6.09866 5.03028 6.09595L4.62314 6.07316ZM5.02306 6.08116C5.02288 6.08983 5.02237 6.09714 5.02183 6.10283C5.01845 6.10686 5.01413 6.11177 5.00884 6.11726L4.9702 6.0801L5.02306 6.08116Z" stroke="#161C25" stroke-width="0.8"/>
</svg>
