<svg width="17" height="15" viewBox="0 0 17 15" fill="none" xmlns="http://www.w3.org/2000/svg">
<path opacity="1" d="M8.03571 5.76786C6.7048 5.76786 5.625 6.84766 5.625 8.17857C5.625 9.50949 6.7048 10.5893 8.03571 10.5893C9.36663 10.5893 10.4464 9.50949 10.4464 8.17857C10.4464 6.84766 9.36663 5.76786 8.03571 5.76786ZM13.9286 2.28571H12.0536L11.6267 1.14732C11.4174 0.594866 10.7645 0.142856 10.1786 0.142856H5.89286C5.30692 0.142856 4.65402 0.594866 4.44475 1.14732L4.01786 2.28571H2.14286C0.962612 2.28571 0 3.24833 0 4.42857V11.9286C0 13.1088 0.962612 14.0714 2.14286 14.0714H13.9286C15.1088 14.0714 16.0714 13.1088 16.0714 11.9286V4.42857C16.0714 3.24833 15.1088 2.28571 13.9286 2.28571ZM8.03571 11.9286C5.96819 11.9286 4.28571 10.2461 4.28571 8.17857C4.28571 6.11105 5.96819 4.42857 8.03571 4.42857C10.1032 4.42857 11.7857 6.11105 11.7857 8.17857C11.7857 10.2461 10.1032 11.9286 8.03571 11.9286Z" fill="currentColor"/>
</svg>
