<svg width="20" height="20" viewBox="0 0 20 20" fill="none" xmlns="http://www.w3.org/2000/svg">
<g clip-path="url(#clip0)">
<path d="M19.3346 4.58162C18.9354 4.16337 18.384 3.91622 17.7567 3.91622H14.6008V3.8782C14.6008 3.40291 14.4106 2.94664 14.0875 2.64246C13.7643 2.31926 13.327 2.12915 12.8517 2.12915H7.14829C6.65399 2.12915 6.21673 2.31926 5.89354 2.64246C5.57034 2.96565 5.38023 3.40291 5.38023 3.8782V3.91622H2.24335C1.61597 3.91622 1.06464 4.16337 0.665399 4.58162C0.26616 4.98086 0 5.5512 0 6.15957V15.6272C0 16.2546 0.247148 16.806 0.665399 17.2052C1.06464 17.6044 1.63498 17.8706 2.24335 17.8706H17.7567C18.384 17.8706 18.9354 17.6234 19.3346 17.2052C19.7338 16.806 20 16.2356 20 15.6272V6.15957C20 5.53219 19.7529 4.98086 19.3346 4.58162ZM19.0114 15.6272H18.9924C18.9924 15.9695 18.8593 16.2736 18.6312 16.5018C18.403 16.7299 18.0989 16.863 17.7567 16.863H2.24335C1.90114 16.863 1.59696 16.7299 1.36882 16.5018C1.14068 16.2736 1.0076 15.9695 1.0076 15.6272V6.15957C1.0076 5.81736 1.14068 5.51318 1.36882 5.28504C1.59696 5.05691 1.90114 4.92383 2.24335 4.92383H5.91255C6.19772 4.92383 6.42586 4.69569 6.42586 4.41052V3.85919C6.42586 3.65006 6.5019 3.45995 6.63498 3.32687C6.76806 3.19379 6.95818 3.11774 7.1673 3.11774H12.8517C13.0608 3.11774 13.251 3.19379 13.384 3.32687C13.5171 3.45995 13.5932 3.65006 13.5932 3.85919V4.41052C13.5932 4.69569 13.8213 4.92383 14.1065 4.92383H17.7757C18.1179 4.92383 18.4221 5.05691 18.6502 5.28504C18.8783 5.51318 19.0114 5.81736 19.0114 6.15957V15.6272Z" fill="#0564FF"/>
<path d="M10 6.21655C8.70727 6.21655 7.52856 6.74887 6.69206 7.58537C5.83655 8.44089 5.32324 9.60058 5.32324 10.8934C5.32324 12.1861 5.85556 13.3648 6.69206 14.2013C7.54758 15.0569 8.70727 15.5702 10 15.5702C11.2928 15.5702 12.4715 15.0378 13.308 14.2013C14.1635 13.3458 14.6769 12.1861 14.6769 10.8934C14.6769 9.60058 14.1445 8.42188 13.308 7.58537C12.4715 6.74887 11.2928 6.21655 10 6.21655ZM12.5856 13.4979C11.9202 14.1443 11.0077 14.5626 10 14.5626C8.99244 14.5626 8.0799 14.1443 7.4145 13.4979C6.7491 12.8325 6.34986 11.92 6.34986 10.9124C6.34986 9.90476 6.76811 8.99222 7.4145 8.32682C8.0799 7.66142 8.99244 7.26218 10 7.26218C11.0077 7.26218 11.9202 7.68043 12.5856 8.32682C13.251 8.99222 13.6502 9.90476 13.6502 10.9124C13.6692 11.92 13.251 12.8325 12.5856 13.4979Z" fill="#0564FF"/>
<path d="M16.7675 8.06063C17.282 8.06063 17.6991 7.64355 17.6991 7.12907C17.6991 6.61458 17.282 6.19751 16.7675 6.19751C16.253 6.19751 15.8359 6.61458 15.8359 7.12907C15.8359 7.64355 16.253 8.06063 16.7675 8.06063Z" fill="#0564FF"/>
</g>
<defs>
<clipPath id="clip0">
<rect width="20" height="20" fill="white"/>
</clipPath>
</defs>
</svg>
