<svg width="20" height="20" viewBox="0 0 20 20" fill="none" xmlns="http://www.w3.org/2000/svg">
<path d="M10 8C9.60603 8 9.21593 8.0776 8.85195 8.22836C8.48797 8.37913 8.15726 8.6001 7.87868 8.87868C7.6001 9.15726 7.37913 9.48797 7.22836 9.85195C7.0776 10.2159 7 10.606 7 11C7 11.394 7.0776 11.7841 7.22836 12.1481C7.37913 12.512 7.6001 12.8427 7.87868 13.1213C8.15726 13.3999 8.48797 13.6209 8.85195 13.7716C9.21593 13.9224 9.60603 14 10 14C10.7956 14 11.5587 13.6839 12.1213 13.1213C12.6839 12.5587 13 11.7956 13 11C13 10.2044 12.6839 9.44129 12.1213 8.87868C11.5587 8.31607 10.7956 8 10 8ZM18 5H15.6C15.4273 4.99212 15.2606 4.93399 15.1204 4.83273C14.9803 4.73148 14.8727 4.59151 14.811 4.43L14.19 2.569C14.1278 2.40767 14.02 2.26795 13.8797 2.1669C13.7394 2.06585 13.5727 2.00786 13.4 2H6.6C6.27 2 5.914 2.256 5.811 2.568L5.189 4.43C5.12715 4.59144 5.01958 4.73134 4.87944 4.83257C4.73931 4.93381 4.57269 4.992 4.4 5H2C0.9 5 0 5.9 0 7V16C0 17.1 0.9 18 2 18H18C19.1 18 20 17.1 20 16V7C20 5.9 19.1 5 18 5ZM10 16C8.67392 16 7.40215 15.4732 6.46447 14.5355C5.52678 13.5979 5 12.3261 5 11C5 9.67392 5.52678 8.40215 6.46447 7.46447C7.40215 6.52678 8.67392 6 10 6C11.3261 6 12.5979 6.52678 13.5355 7.46447C14.4732 8.40215 15 9.67392 15 11C15 12.3261 14.4732 13.5979 13.5355 14.5355C12.5979 15.4732 11.3261 16 10 16ZM17.5 8.2C17.3143 8.2 17.1363 8.12625 17.005 7.99497C16.8738 7.8637 16.8 7.68565 16.8 7.5C16.8 7.31435 16.8738 7.1363 17.005 7.00503C17.1363 6.87375 17.3143 6.8 17.5 6.8C17.6857 6.8 17.8637 6.87375 17.995 7.00503C18.1262 7.1363 18.2 7.31435 18.2 7.5C18.2 7.68565 18.1262 7.8637 17.995 7.99497C17.8637 8.12625 17.6857 8.2 17.5 8.2Z" fill="white"/>
</svg>
