<svg width="27" height="35" viewBox="0 0 27 35" fill="none" xmlns="http://www.w3.org/2000/svg">
<path fill-rule="evenodd" clip-rule="evenodd" d="M0.852539 1H24.5292L20.9731 9.13022L24.8525 18.3333H1.28508L0.852539 1Z" stroke="currentColor" stroke-width="1.6"/>
<path d="M1.85286 34.9999V18.3333" stroke="currentColor" stroke-width="1.6"/>
<path fill-rule="evenodd" clip-rule="evenodd" d="M15.8849 7.77794L13.7303 7.45029C13.6158 7.43291 13.5167 7.35759 13.4655 7.24895L12.5021 5.20511C12.3731 4.93163 12 4.93163 11.871 5.20511L10.9076 7.24895C10.8564 7.35759 10.7574 7.43291 10.6428 7.45029L8.4882 7.77794C8.19953 7.82169 8.0844 8.19308 8.29308 8.40601L9.85235 9.99647C9.9351 10.0814 9.97302 10.203 9.95337 10.3227L9.58528 12.5687C9.53601 12.8694 9.83768 13.0989 10.0959 12.9569L12.0227 11.8966C12.1254 11.8398 12.2477 11.8398 12.3504 11.8966L14.2772 12.9569C14.5354 13.0989 14.8368 12.8694 14.7878 12.5687L14.4197 10.3227C14.4001 10.203 14.4377 10.0814 14.5208 9.99647L16.08 8.40601C16.2887 8.19308 16.1733 7.82169 15.8849 7.77794" fill="currentColor"/>
</svg>
