<svg width="20" height="16" viewBox="0 0 20 16" fill="none" xmlns="http://www.w3.org/2000/svg">
<path d="M0.230769 8.46154C0.0769231 8.30769 0 8.07692 0 7.92308C0 7.76923 0.0769231 7.53846 0.230769 7.38462L1.30769 6.30769C1.61538 6 2.07692 6 2.38462 6.30769L2.46154 6.38462L6.69231 10.9231C6.84615 11.0769 7.07692 11.0769 7.23077 10.9231L17.5385 0.230769H17.6154C17.9231 -0.0769231 18.3846 -0.0769231 18.6923 0.230769L19.7692 1.30769C20.0769 1.61538 20.0769 2.07692 19.7692 2.38462L7.46154 15.1538C7.30769 15.3077 7.15385 15.3846 6.92308 15.3846C6.69231 15.3846 6.53846 15.3077 6.38462 15.1538L0.384615 8.69231L0.230769 8.46154Z" fill="currentColor"/>
</svg>
