<svg width="23" height="24" viewBox="0 0 23 24" fill="none" xmlns="http://www.w3.org/2000/svg">
<path fill-rule="evenodd" clip-rule="evenodd" d="M16.818 1.49835L16.7422 4.558C16.7507 4.83212 16.972 5.0993 17.2503 5.12003C17.3288 5.11449 17.4073 5.10894 17.4758 5.07986C17.6585 5.00231 17.7784 4.84032 17.7898 4.61327L17.8327 1.53978C17.847 1.25597 17.613 1.02202 17.3346 1.00128C17.0563 0.980542 16.8322 1.21454 16.818 1.49835ZM19.0768 13.0799C19.5978 12.3896 19.5729 11.3669 18.9527 10.7278C18.7543 10.5232 18.4814 10.3698 18.2085 10.2931C18.3077 10.063 18.3573 9.80735 18.3573 9.55168C18.3573 9.0659 18.1837 8.63126 17.8611 8.29889C17.2409 7.65971 16.2982 7.60858 15.6284 8.11992C15.5539 7.91538 15.4547 7.71085 15.3059 7.53188C14.9833 7.17394 14.5368 6.94383 14.0654 6.94383C13.6189 6.91827 13.1723 7.09724 12.8498 7.42961C12.839 7.41297 12.8283 7.39513 12.8173 7.37687L12.8172 7.37685C12.7775 7.31093 12.7344 7.23954 12.6761 7.1995C12.3536 6.84157 11.9071 6.61146 11.4357 6.61146C10.9395 6.58589 10.493 6.79043 10.1705 7.1228L7.68959 9.65395C7.41669 8.58013 6.42434 7.83868 5.33276 7.96652C5.03506 7.99208 4.76216 8.14549 4.56369 8.35002C4.11714 7.83868 3.42249 7.53188 2.70304 7.60858C2.03321 7.68528 1.51222 8.27332 1.51222 8.9892L1.53703 12.6964C1.53703 13.668 1.41299 14.6651 1.18971 15.5344V15.5599C0.693536 17.3496 1.18971 19.2672 2.45495 20.5711C3.76981 21.9262 5.53123 22.6676 7.36707 22.6676H7.36711C7.51595 22.6676 7.6896 22.6676 7.83844 22.642C8.53308 22.8721 9.27734 23 9.99679 23C11.783 23 13.5692 22.3097 14.9089 20.9035L19.697 15.9435C20.0195 15.6111 20.1932 15.1509 20.1932 14.6907C20.1932 14.2049 20.0195 13.7703 19.697 13.4379C19.5233 13.2845 19.3001 13.1566 19.0768 13.0799ZM10.8899 7.86422C11.0387 7.71082 11.2372 7.65969 11.4109 7.65969C11.6093 7.65969 11.783 7.76196 11.9071 7.88979C11.9815 7.99206 12.0311 8.1199 12.0311 8.24773L7.93766 12.5686L7.81362 11.009L10.8899 7.86422ZM2.15721 15.8924C1.78508 17.2986 2.15721 18.807 3.17437 19.8553C3.81939 20.52 4.61327 21.0058 5.48158 21.3126C5.41955 21.2487 5.35133 21.1848 5.28311 21.1208L5.28305 21.1208C5.21485 21.0569 5.14664 20.993 5.08464 20.9291C3.81939 19.6252 3.32322 17.7076 3.81939 15.9179C3.81939 15.9051 3.8256 15.8988 3.8318 15.8924C3.838 15.886 3.8442 15.8796 3.8442 15.8668C4.04267 14.9975 4.16672 14.026 4.16672 13.0544L4.14191 10.3699L4.09229 9.75626C4.01786 9.11708 3.44726 8.6313 2.80224 8.70801C2.65339 8.70801 2.52934 8.86141 2.52934 9.01481L2.55415 12.722C2.55415 13.7959 2.43011 14.8697 2.15721 15.8924ZM18.9775 15.2276L14.1895 20.1876C11.8822 22.5653 8.11132 22.5653 5.80412 20.1876C4.81177 19.1649 4.41483 17.6565 4.78696 16.2503V16.2247C5.05985 15.1765 5.1839 14.1282 5.1839 13.0544V10.3698V10.2931V9.34715C5.1839 9.19375 5.30794 9.04035 5.45679 9.04035C6.10182 8.96365 6.67242 9.44942 6.74685 10.0886L6.92051 12.6709C6.97012 13.0544 7.21821 13.3868 7.56553 13.5146C7.93766 13.6424 8.30979 13.5402 8.58269 13.2845L13.4948 8.2222C13.6437 8.0688 13.7677 7.9921 14.0158 8.01766C14.2143 8.01766 14.3879 8.11993 14.512 8.24777C14.7352 8.50344 14.7104 9.01478 14.4375 9.29602L10.7907 13.08C10.5922 13.2845 10.5922 13.6169 10.7907 13.8214C10.8899 13.9237 11.0139 13.9748 11.1628 13.9748C11.2868 13.9748 11.4357 13.9237 11.5349 13.8214L15.2066 10.0375L16.1741 9.04035C16.447 8.75911 16.8936 8.75911 17.1665 9.04035C17.2905 9.16818 17.365 9.34715 17.365 9.55169C17.365 9.75623 17.2905 9.9352 17.1665 10.063L12.5025 14.8441C12.304 15.0486 12.304 15.381 12.5025 15.5855C12.6017 15.6878 12.7257 15.7389 12.8746 15.7389C13.0234 15.7389 13.1475 15.6878 13.2467 15.5855L15.8516 12.901L17.2409 11.4692C17.5138 11.188 17.9604 11.188 18.2333 11.4692C18.5062 11.7505 18.5062 12.2107 18.2333 12.4919L17.2905 13.4635L16.5959 14.1538L14.2143 16.6082C14.0158 16.8127 14.0158 17.1451 14.2143 17.3497C14.3135 17.4519 14.4375 17.5031 14.5864 17.5031C14.7352 17.5031 14.8593 17.4519 14.9585 17.3497L18.01 14.2049C18.2829 13.9237 18.7294 13.9237 19.0023 14.2049C19.1264 14.3327 19.2008 14.5117 19.2008 14.7162C19.2008 14.9208 19.1264 15.0998 18.9775 15.2276ZM12.6671 3.00131C12.4887 2.77151 12.5387 2.44478 12.7599 2.26754C12.9812 2.09031 13.2923 2.12489 13.4707 2.35469L15.3375 4.78421C15.5159 5.01401 15.4659 5.34075 15.2447 5.51798C15.2179 5.52934 15.1946 5.54877 15.1753 5.56487C15.1616 5.57625 15.1499 5.58597 15.1405 5.58998C14.9349 5.67722 14.6923 5.61356 14.5339 5.43083L12.6671 3.00131ZM19.7674 5.70772L21.7471 3.45086C21.9255 3.23625 21.9198 2.90537 21.6829 2.72818C21.4917 2.53161 21.1448 2.53995 20.9664 2.75456L18.9867 5.01142C18.7983 5.2025 18.814 5.55692 19.0281 5.74379C19.1993 5.8933 19.3992 5.91958 19.5818 5.84203C19.6504 5.81295 19.7089 5.76034 19.7674 5.70772Z" fill="currentColor"/>
<path d="M16.7422 4.558L16.4919 4.5518L16.4923 4.56579L16.7422 4.558ZM16.818 1.49835L16.5682 1.48578L16.568 1.49216L16.818 1.49835ZM17.2503 5.12003L17.2317 5.36934L17.2498 5.37069L17.2679 5.36941L17.2503 5.12003ZM17.4758 5.07986L17.5735 5.30999L17.5735 5.30999L17.4758 5.07986ZM17.7898 4.61327L18.0396 4.62584L18.0398 4.61676L17.7898 4.61327ZM17.8327 1.53978L17.5829 1.52721L17.5828 1.53629L17.8327 1.53978ZM17.3346 1.00128L17.3532 0.751972L17.3346 1.00128ZM18.9527 10.7278L19.1321 10.5537L18.9527 10.7278ZM19.0768 13.0799L18.8772 12.9293L18.6696 13.2044L18.9956 13.3164L19.0768 13.0799ZM18.2085 10.2931L17.9789 10.1941L17.8658 10.4565L18.1408 10.5338L18.2085 10.2931ZM17.8611 8.29889L17.6817 8.47299L17.6817 8.47299L17.8611 8.29889ZM15.6284 8.11992L15.3934 8.20541L15.5097 8.52501L15.7801 8.31864L15.6284 8.11992ZM15.3059 7.53188L15.4982 7.37189L15.4916 7.36453L15.3059 7.53188ZM14.0654 6.94383L14.0511 7.19343L14.0583 7.19383H14.0654V6.94383ZM12.8498 7.42961L12.6399 7.56539L12.8105 7.82912L13.0292 7.6037L12.8498 7.42961ZM12.8173 7.37687L13.0313 7.24773L13.0302 7.24585L12.8173 7.37687ZM12.8172 7.37685L12.6032 7.50599L12.6043 7.50788L12.8172 7.37685ZM12.6761 7.1995L12.4904 7.36685L12.5102 7.38882L12.5346 7.40556L12.6761 7.1995ZM11.4357 6.61146L11.4228 6.86146H11.4357V6.61146ZM10.1705 7.1228L10.349 7.2978L10.3499 7.2969L10.1705 7.1228ZM7.68959 9.65395L7.44729 9.71552L7.55683 10.1465L7.86813 9.82894L7.68959 9.65395ZM5.33276 7.96652L5.35416 8.21572L5.36184 8.21482L5.33276 7.96652ZM4.56369 8.35002L4.37539 8.51447L4.55401 8.719L4.74311 8.52412L4.56369 8.35002ZM2.70304 7.60858L2.67654 7.35998L2.6746 7.3602L2.70304 7.60858ZM1.51222 8.9892H1.26222L1.26223 8.99088L1.51222 8.9892ZM1.53703 12.6964H1.78704L1.78703 12.6948L1.53703 12.6964ZM1.18971 15.5344L0.94757 15.4722L0.93971 15.5028V15.5344H1.18971ZM1.18971 15.5599L1.43062 15.6267L1.43971 15.594V15.5599H1.18971ZM2.45495 20.5711L2.63437 20.397L2.45495 20.5711ZM7.83844 22.642L7.91705 22.4047L7.85772 22.3851L7.79612 22.3956L7.83844 22.642ZM14.9089 20.9035L14.729 20.7298L14.7279 20.731L14.9089 20.9035ZM19.697 15.9435L19.5176 15.7694L19.5171 15.7698L19.697 15.9435ZM19.697 13.4379L19.8764 13.2638L19.8697 13.2569L19.8625 13.2505L19.697 13.4379ZM10.8899 7.86422L11.0686 8.03905L11.0693 8.03832L10.8899 7.86422ZM11.9071 7.88979L12.1092 7.74269L12.0988 7.72839L12.0865 7.7157L11.9071 7.88979ZM12.0311 8.24773L12.2126 8.41967L12.2811 8.34735V8.24773H12.0311ZM7.93766 12.5686L7.68845 12.5884L7.73297 13.1481L8.11915 12.7405L7.93766 12.5686ZM7.81362 11.009L7.63491 10.8342L7.55539 10.9154L7.56441 11.0288L7.81362 11.009ZM3.17437 19.8553L2.99495 20.0294H2.99495L3.17437 19.8553ZM2.15721 15.8924L1.91566 15.8279L1.91553 15.8284L2.15721 15.8924ZM5.48158 21.3126L5.39829 21.5483L5.66099 21.1385L5.48158 21.3126ZM5.28311 21.1208L5.45409 20.9383L5.4492 20.934L5.28311 21.1208ZM5.28305 21.1208L5.11207 21.3033L5.11696 21.3076L5.28305 21.1208ZM5.08464 20.9291L5.26405 20.755H5.26405L5.08464 20.9291ZM3.81939 15.9179L4.06031 15.9847L4.06939 15.9519V15.9179H3.81939ZM3.8442 15.8668L3.60047 15.8111L3.5942 15.8386V15.8668H3.8442ZM4.16672 13.0544H4.41673L4.4167 13.0521L4.16672 13.0544ZM4.14191 10.3699L4.3919 10.3676L4.39181 10.3586L4.39109 10.3497L4.14191 10.3699ZM4.09229 9.75626L4.34163 9.73609L4.34061 9.72734L4.09229 9.75626ZM2.80224 8.70801V8.95801H2.81705L2.83176 8.95626L2.80224 8.70801ZM2.52934 9.01481H2.27934L2.27935 9.01648L2.52934 9.01481ZM2.55415 12.722H2.80416L2.80414 12.7204L2.55415 12.722ZM14.1895 20.1876L14.3689 20.3617L14.3693 20.3612L14.1895 20.1876ZM18.9775 15.2276L18.8146 15.0379L18.8058 15.0455L18.7977 15.054L18.9775 15.2276ZM5.80412 20.1876L5.98353 20.0135L5.80412 20.1876ZM4.78696 16.2503L5.02864 16.3142L5.03696 16.2828V16.2503H4.78696ZM4.78696 16.2247L4.54502 16.1617L4.53696 16.1927V16.2247H4.78696ZM5.45679 9.04035V9.29035H5.47161L5.48631 9.2886L5.45679 9.04035ZM6.74685 10.0886L6.99658 10.0718L6.99517 10.0597L6.74685 10.0886ZM6.92051 12.6709L6.67107 12.6877L6.67159 12.6953L6.67257 12.703L6.92051 12.6709ZM7.56553 13.5146L7.47916 13.7493L7.48431 13.751L7.56553 13.5146ZM8.58269 13.2845L8.75381 13.4671L8.76211 13.4586L8.58269 13.2845ZM13.4948 8.2222L13.3154 8.04811V8.04811L13.4948 8.2222ZM14.0158 8.01766L13.9902 8.26635L14.0029 8.26766H14.0158V8.01766ZM14.512 8.24777L14.7005 8.0831L14.6914 8.07367L14.512 8.24777ZM14.4375 9.29602L14.2581 9.12192L14.2575 9.12253L14.4375 9.29602ZM10.7907 13.08L10.9701 13.254L10.9707 13.2534L10.7907 13.08ZM10.7907 13.8214L10.6112 13.9955H10.6112L10.7907 13.8214ZM11.5349 13.8214L11.7143 13.9955L11.5349 13.8214ZM15.2066 10.0375L15.386 10.2116L15.2066 10.0375ZM16.1741 9.04035L16.3536 9.21444L16.1741 9.04035ZM17.1665 9.04035L16.9871 9.21444L16.9871 9.21445L17.1665 9.04035ZM17.1665 10.063L17.3454 10.2376L17.3459 10.2371L17.1665 10.063ZM12.5025 14.8441L12.3235 14.6695L12.323 14.67L12.5025 14.8441ZM12.5025 15.5855L12.6819 15.4114L12.6819 15.4114L12.5025 15.5855ZM13.2467 15.5855L13.0673 15.4114H13.0673L13.2467 15.5855ZM15.8516 12.901L16.0311 13.0751L15.8516 12.901ZM17.2409 11.4692L17.4203 11.6433L17.2409 11.4692ZM18.2333 12.4919L18.0539 12.3178L18.0538 12.3178L18.2333 12.4919ZM17.2905 13.4635L17.4668 13.6408L17.47 13.6376L17.2905 13.4635ZM16.5959 14.1538L16.4196 13.9764L16.4165 13.9797L16.5959 14.1538ZM14.2143 16.6082L14.3937 16.7823L14.2143 16.6082ZM14.9585 17.3497L14.7791 17.1756L14.9585 17.3497ZM18.01 14.2049L18.1894 14.379L18.01 14.2049ZM19.0023 14.2049L19.1818 14.0308L19.0023 14.2049ZM12.7599 2.26754L12.9162 2.46265L12.9162 2.46265L12.7599 2.26754ZM12.6671 3.00131L12.8654 2.84899L12.8646 2.84801L12.6671 3.00131ZM13.4707 2.35469L13.669 2.20237L13.6682 2.20139L13.4707 2.35469ZM15.3375 4.78421L15.1392 4.93653L15.14 4.93752L15.3375 4.78421ZM15.2447 5.51798L15.3423 5.7481L15.3741 5.73464L15.401 5.71309L15.2447 5.51798ZM15.1753 5.56487L15.3353 5.75695L15.3353 5.75695L15.1753 5.56487ZM15.1405 5.58998L15.2382 5.82011L15.2382 5.82011L15.1405 5.58998ZM14.5339 5.43083L14.3357 5.58315L14.3402 5.58901L14.345 5.5946L14.5339 5.43083ZM21.7471 3.45086L21.9351 3.61578L21.9393 3.61068L21.7471 3.45086ZM19.7674 5.70772L19.9345 5.89363L19.9456 5.88372L19.9553 5.87258L19.7674 5.70772ZM21.6829 2.72818L21.5037 2.90252L21.5174 2.91661L21.5332 2.92839L21.6829 2.72818ZM20.9664 2.75456L21.1544 2.91948L21.1587 2.91439L20.9664 2.75456ZM18.9867 5.01142L19.1647 5.18695L19.1698 5.18176L19.1747 5.17628L18.9867 5.01142ZM19.0281 5.74379L18.8637 5.93213V5.93213L19.0281 5.74379ZM19.5818 5.84203L19.4842 5.61191L19.4842 5.61191L19.5818 5.84203ZM16.9921 4.56419L17.0679 1.50454L16.568 1.49216L16.4923 4.55181L16.9921 4.56419ZM17.2688 4.87072C17.1366 4.86087 16.9972 4.71597 16.9921 4.5502L16.4923 4.56579C16.5042 4.94827 16.8073 5.33772 17.2317 5.36934L17.2688 4.87072ZM17.3781 4.84973C17.355 4.85955 17.3204 4.86446 17.2327 4.87065L17.2679 5.36941C17.3372 5.36452 17.4596 5.35833 17.5735 5.30999L17.3781 4.84973ZM17.5401 4.6007C17.5334 4.73433 17.4706 4.81047 17.3781 4.84973L17.5735 5.30999C17.8463 5.19416 18.0233 4.94631 18.0395 4.62583L17.5401 4.6007ZM17.5828 1.53629L17.5398 4.60978L18.0398 4.61676L18.0827 1.54327L17.5828 1.53629ZM17.3161 1.25059C17.4758 1.26249 17.5897 1.39519 17.5831 1.52721L18.0824 1.55235C18.1043 1.11674 17.7501 0.781542 17.3532 0.751972L17.3161 1.25059ZM17.0676 1.51092C17.0762 1.34008 17.2036 1.24221 17.3161 1.25059L17.3532 0.751972C16.9091 0.718877 16.5882 1.08899 16.5683 1.48579L17.0676 1.51092ZM18.7733 10.9019C19.3023 11.447 19.3287 12.3311 18.8772 12.9293L19.2763 13.2305C19.8668 12.4482 19.8436 11.2869 19.1321 10.5537L18.7733 10.9019ZM18.1408 10.5338C18.3757 10.5998 18.6086 10.7321 18.7733 10.9019L19.1321 10.5537C18.8999 10.3143 18.5871 10.1398 18.2761 10.0525L18.1408 10.5338ZM18.1073 9.55168C18.1073 9.77576 18.0637 9.99747 17.9789 10.1941L18.438 10.3921C18.5517 10.1286 18.6073 9.83894 18.6073 9.55168H18.1073ZM17.6817 8.47299C17.9572 8.75684 18.1073 9.12826 18.1073 9.55168H18.6073C18.6073 9.00355 18.4102 8.50568 18.0406 8.12479L17.6817 8.47299ZM15.7801 8.31864C16.3499 7.88364 17.1503 7.92531 17.6817 8.47299L18.0406 8.12479C17.3316 7.39412 16.2465 7.33352 15.4767 7.9212L15.7801 8.31864ZM15.1136 7.69174C15.2377 7.84093 15.3248 8.01669 15.3934 8.20541L15.8633 8.03444C15.7831 7.81408 15.6717 7.58077 15.4981 7.37201L15.1136 7.69174ZM14.0654 7.19383C14.4544 7.19383 14.8367 7.38467 15.1201 7.69922L15.4916 7.36453C15.13 6.96321 14.6191 6.69383 14.0654 6.69383V7.19383ZM13.0292 7.6037C13.3034 7.32109 13.6802 7.17219 14.0511 7.19343L14.0797 6.69424C13.5575 6.66434 13.0412 6.87339 12.6704 7.25551L13.0292 7.6037ZM12.6032 7.50601C12.6138 7.52356 12.6266 7.54487 12.6399 7.56539L13.0597 7.29382C13.0515 7.28107 13.0428 7.2667 13.0313 7.24773L12.6032 7.50601ZM12.6043 7.50788L12.6043 7.5079L13.0302 7.24585L13.0302 7.24583L12.6043 7.50788ZM12.5346 7.40556C12.5318 7.40364 12.538 7.40733 12.5527 7.42724C12.5675 7.44719 12.5822 7.47116 12.6032 7.50599L13.0313 7.24772C12.9997 7.19526 12.9295 7.07024 12.8177 6.99345L12.5346 7.40556ZM11.4357 6.86146C11.8247 6.86146 12.207 7.0523 12.4904 7.36685L12.8619 7.03216C12.5003 6.63083 11.9894 6.36146 11.4357 6.36146V6.86146ZM10.3499 7.2969C10.6278 7.01045 11.0064 6.83967 11.4228 6.86113L11.4486 6.36179C10.8727 6.33212 10.3581 6.57041 9.99104 6.94871L10.3499 7.2969ZM7.86813 9.82894L10.349 7.2978L9.99191 6.94781L7.51105 9.47895L7.86813 9.82894ZM5.36184 8.21482C6.3182 8.10282 7.20252 8.75238 7.44729 9.71552L7.93188 9.59237C7.63086 8.40788 6.53049 7.57454 5.30368 7.71821L5.36184 8.21482ZM4.74311 8.52412C4.90812 8.35407 5.12753 8.23506 5.35415 8.2156L5.31137 7.71743C4.94258 7.74911 4.6162 7.93691 4.38427 8.17593L4.74311 8.52412ZM2.72954 7.85717C3.3621 7.78973 3.97844 8.05993 4.37539 8.51447L4.75199 8.18558C4.25583 7.61743 3.48289 7.27402 2.67654 7.35999L2.72954 7.85717ZM1.76222 8.9892C1.76222 8.39469 2.19347 7.91856 2.73148 7.85696L2.6746 7.3602C1.87294 7.452 1.26222 8.15196 1.26222 8.9892H1.76222ZM1.78703 12.6948L1.76222 8.98753L1.26223 8.99088L1.28704 12.6981L1.78703 12.6948ZM1.43185 15.5966C1.66063 14.7059 1.78703 13.6878 1.78703 12.6964H1.28703C1.28703 13.6482 1.16535 14.6243 0.94757 15.4722L1.43185 15.5966ZM1.43971 15.5599V15.5344H0.93971V15.5599H1.43971ZM2.63437 20.397C1.4312 19.157 0.958055 17.3313 1.43062 15.6267L0.948797 15.4932C0.429017 17.368 0.948224 19.3773 2.27554 20.7452L2.63437 20.397ZM7.36707 22.4176C5.59951 22.4176 3.90262 21.704 2.63437 20.397L2.27554 20.7452C3.63701 22.1483 5.46295 22.9176 7.36707 22.9176V22.4176ZM7.36711 22.4176H7.36707V22.9176H7.36711V22.4176ZM7.79612 22.3956C7.67224 22.4169 7.52101 22.4176 7.36711 22.4176V22.9176C7.51089 22.9176 7.70695 22.9183 7.88076 22.8884L7.79612 22.3956ZM9.99679 22.75C9.306 22.75 8.58826 22.6271 7.91705 22.4047L7.75983 22.8794C8.47791 23.1172 9.24868 23.25 9.99679 23.25V22.75ZM14.7279 20.731C13.438 22.085 11.7185 22.75 9.99679 22.75V23.25C11.8476 23.25 13.7005 22.5344 15.0899 21.0759L14.7279 20.731ZM19.5171 15.7698L14.729 20.7298L15.0888 21.0771L19.8769 16.1171L19.5171 15.7698ZM19.9432 14.6907C19.9432 15.0904 19.7918 15.4868 19.5176 15.7694L19.8764 16.1175C20.2472 15.7354 20.4432 15.2113 20.4432 14.6907H19.9432ZM19.5176 13.612C19.793 13.8958 19.9432 14.2672 19.9432 14.6907H20.4432C20.4432 14.1425 20.246 13.6447 19.8764 13.2638L19.5176 13.612ZM18.9956 13.3164C19.1893 13.3829 19.3836 13.4946 19.5315 13.6252L19.8625 13.2505C19.6631 13.0743 19.4108 12.9303 19.158 12.8435L18.9956 13.3164ZM11.4109 7.40969C11.1923 7.40969 10.9202 7.47401 10.7105 7.69013L11.0693 8.03832C11.1573 7.94764 11.2821 7.90969 11.4109 7.90969V7.40969ZM12.0865 7.7157C11.9316 7.55613 11.6972 7.40969 11.4109 7.40969V7.90969C11.5215 7.90969 11.6344 7.96778 11.7276 8.06389L12.0865 7.7157ZM12.2811 8.24773C12.2811 8.05739 12.2085 7.87918 12.1092 7.74269L11.7049 8.0369C11.7544 8.10494 11.7811 8.1824 11.7811 8.24773H12.2811ZM8.11915 12.7405L12.2126 8.41967L11.8496 8.0758L7.75618 12.3966L8.11915 12.7405ZM7.56441 11.0288L7.68845 12.5884L8.18688 12.5488L8.06283 10.9892L7.56441 11.0288ZM10.7112 7.6894L7.63491 10.8342L7.99233 11.1838L11.0686 8.03905L10.7112 7.6894ZM3.35379 19.6812C2.3996 18.6978 2.04849 17.2804 2.39889 15.9563L1.91553 15.8284C1.52167 17.3167 1.91483 18.9162 2.99495 20.0294L3.35379 19.6812ZM5.56486 21.0769C4.72953 20.7817 3.96955 20.3158 3.35379 19.6812L2.99495 20.0294C3.66924 20.7243 4.49702 21.2299 5.39829 21.5483L5.56486 21.0769ZM5.11218 21.3033C5.18129 21.368 5.24502 21.4278 5.30216 21.4867L5.66099 21.1385C5.59408 21.0695 5.52137 21.0015 5.45403 20.9384L5.11218 21.3033ZM5.11696 21.3076L5.11701 21.3077L5.4492 20.934L5.44915 20.9339L5.11696 21.3076ZM4.90522 21.1032C4.97211 21.1721 5.0448 21.2401 5.11213 21.3032L5.45398 20.9384C5.38489 20.8736 5.32118 20.8139 5.26405 20.755L4.90522 21.1032ZM3.57848 15.8511C3.0587 17.726 3.57791 19.7353 4.90522 21.1032L5.26405 20.755C4.06088 19.515 3.58774 17.6893 4.06031 15.9847L3.57848 15.8511ZM3.65237 15.7183C3.6426 15.7283 3.56939 15.7982 3.56939 15.9179H4.06939C4.06939 15.9563 4.05894 15.9948 4.03932 16.0285C4.02386 16.0551 4.00503 16.0728 4.01123 16.0664L3.65237 15.7183ZM3.5942 15.8668C3.5942 15.8284 3.60466 15.7899 3.62427 15.7562C3.63973 15.7296 3.65857 15.7119 3.65237 15.7183L4.01123 16.0664C4.02099 16.0564 4.0942 15.9866 4.0942 15.8668H3.5942ZM3.91672 13.0544C3.91672 14.0055 3.79518 14.9584 3.60047 15.8111L4.08793 15.9224C4.29017 15.0367 4.41672 14.0464 4.41672 13.0544H3.91672ZM3.89192 10.3722L3.91673 13.0567L4.4167 13.0521L4.3919 10.3676L3.89192 10.3722ZM3.8431 9.77641L3.89272 10.39L4.39109 10.3497L4.34148 9.73611L3.8431 9.77641ZM2.83176 8.95626C3.3296 8.89706 3.78437 9.27332 3.84397 9.78517L4.34061 9.72734C4.25136 8.96083 3.56492 8.36555 2.77272 8.45975L2.83176 8.95626ZM2.77934 9.01481C2.77934 9.00991 2.7804 9.00216 2.78411 8.99261C2.78783 8.98304 2.79325 8.97416 2.79928 8.96717C2.81304 8.95121 2.81662 8.95801 2.80224 8.95801V8.45801C2.639 8.45801 2.50613 8.5415 2.42066 8.6406C2.33529 8.73957 2.27934 8.87315 2.27934 9.01481H2.77934ZM2.80414 12.7204L2.77934 9.01314L2.27935 9.01648L2.30416 12.7237L2.80414 12.7204ZM2.39876 15.9568C2.67796 14.9105 2.80415 13.8148 2.80415 12.722H2.30415C2.30415 13.777 2.18226 14.8288 1.91566 15.8279L2.39876 15.9568ZM14.3693 20.3612L19.1574 15.4012L18.7977 15.054L14.0096 20.014L14.3693 20.3612ZM5.6247 20.3617C8.03011 22.8406 11.9635 22.8406 14.3689 20.3617L14.01 20.0135C11.801 22.29 8.19254 22.29 5.98353 20.0135L5.6247 20.3617ZM4.54528 16.1863C4.15089 17.6766 4.57081 19.2756 5.6247 20.3617L5.98353 20.0135C5.05273 19.0542 4.67877 17.6363 5.02864 16.3142L4.54528 16.1863ZM4.53696 16.2247V16.2503H5.03696V16.2247H4.53696ZM4.9339 13.0544C4.9339 14.1085 4.81219 15.1355 4.54502 16.1617L5.0289 16.2877C5.30752 15.2174 5.4339 14.1479 5.4339 13.0544H4.9339ZM4.9339 10.3698V13.0544H5.4339V10.3698H4.9339ZM4.9339 10.2931V10.3698H5.4339V10.2931H4.9339ZM4.9339 9.34715V10.2931H5.4339V9.34715H4.9339ZM5.45679 8.79035C5.29356 8.79035 5.16069 8.87384 5.07522 8.97294C4.98985 9.07191 4.9339 9.2055 4.9339 9.34715H5.4339C5.4339 9.34226 5.43496 9.3345 5.43867 9.32496C5.44238 9.31538 5.44781 9.3065 5.45384 9.29951C5.4676 9.28356 5.47118 9.29035 5.45679 9.29035V8.79035ZM6.99517 10.0597C6.90592 9.29318 6.21948 8.6979 5.42727 8.7921L5.48631 9.2886C5.98416 9.2294 6.43892 9.60567 6.49852 10.1175L6.99517 10.0597ZM7.16994 12.6541L6.99628 10.0718L6.49741 10.1054L6.67107 12.6877L7.16994 12.6541ZM7.65188 13.28C7.40051 13.1875 7.20733 12.9394 7.16844 12.6388L6.67257 12.703C6.73292 13.1694 7.03592 13.5861 7.47918 13.7492L7.65188 13.28ZM8.41176 13.102C8.19952 13.3009 7.92271 13.373 7.64675 13.2782L7.48431 13.751C7.95261 13.9119 8.42006 13.7794 8.75361 13.4669L8.41176 13.102ZM13.3154 8.04811L8.40327 13.1104L8.76211 13.4586L13.6742 8.3963L13.3154 8.04811ZM14.0414 7.76898C13.8862 7.75299 13.7478 7.76713 13.6182 7.82366C13.4928 7.8783 13.3975 7.96352 13.3154 8.04811L13.6742 8.3963C13.741 8.32748 13.7821 8.29765 13.818 8.28198C13.8496 8.2682 13.8973 8.25677 13.9902 8.26635L14.0414 7.76898ZM14.6914 8.07367C14.5366 7.91411 14.3021 7.76766 14.0158 7.76766V8.26766C14.1264 8.26766 14.2393 8.32576 14.3325 8.42186L14.6914 8.07367ZM14.617 9.47012C14.8021 9.2793 14.8948 9.02123 14.9103 8.77818C14.9256 8.53778 14.8671 8.27435 14.7003 8.08332L14.3237 8.41221C14.3801 8.47686 14.4208 8.59693 14.4113 8.74643C14.402 8.89328 14.3459 9.0315 14.2581 9.12192L14.617 9.47012ZM10.9707 13.2534L14.6175 9.46951L14.2575 9.12253L10.6107 12.9065L10.9707 13.2534ZM10.9701 13.6473C10.8657 13.5398 10.8657 13.3616 10.9701 13.254L10.6112 12.9059C10.3187 13.2074 10.3187 13.694 10.6112 13.9955L10.9701 13.6473ZM11.1628 13.7248C11.0782 13.7248 11.0199 13.6987 10.9701 13.6473L10.6112 13.9955C10.7599 14.1487 10.9497 14.2248 11.1628 14.2248V13.7248ZM11.3555 13.6473C11.3097 13.6945 11.229 13.7248 11.1628 13.7248V14.2248C11.3447 14.2248 11.5616 14.1529 11.7143 13.9955L11.3555 13.6473ZM15.0272 9.86337L11.3555 13.6473L11.7143 13.9955L15.386 10.2116L15.0272 9.86337ZM15.9947 8.86625L15.0272 9.86337L15.386 10.2116L16.3536 9.21444L15.9947 8.86625ZM17.3459 8.86625C16.9748 8.48381 16.3658 8.48381 15.9947 8.86625L16.3536 9.21444C16.5283 9.03441 16.8124 9.03441 16.9871 9.21444L17.3459 8.86625ZM17.615 9.55169C17.615 9.28532 17.5174 9.04296 17.3459 8.86625L16.9871 9.21445C17.0637 9.29341 17.115 9.40899 17.115 9.55169H17.615ZM17.3459 10.2371C17.5174 10.0604 17.615 9.81806 17.615 9.55169H17.115C17.115 9.69439 17.0637 9.80997 16.9871 9.88894L17.3459 10.2371ZM12.6814 15.0187L17.3454 10.2376L16.9875 9.88846L12.3235 14.6695L12.6814 15.0187ZM12.6819 15.4114C12.5775 15.3039 12.5775 15.1257 12.6819 15.0182L12.323 14.67C12.0305 14.9715 12.0305 15.4581 12.323 15.7596L12.6819 15.4114ZM12.8746 15.4889C12.79 15.4889 12.7317 15.4628 12.6819 15.4114L12.323 15.7596C12.4717 15.9128 12.6615 15.9889 12.8746 15.9889V15.4889ZM13.0673 15.4114C13.0174 15.4628 12.9592 15.4889 12.8746 15.4889V15.9889C13.0877 15.9889 13.2775 15.9128 13.4261 15.7596L13.0673 15.4114ZM15.6722 12.7269L13.0673 15.4114L13.4261 15.7596L16.0311 13.0751L15.6722 12.7269ZM17.0615 11.2951L15.6722 12.7269L16.0311 13.0751L17.4203 11.6433L17.0615 11.2951ZM18.4127 11.2951C18.0416 10.9127 17.4326 10.9127 17.0615 11.2951L17.4203 11.6433C17.595 11.4633 17.8792 11.4633 18.0538 11.6433L18.4127 11.2951ZM18.4127 12.666C18.7797 12.2878 18.7797 11.6734 18.4127 11.2951L18.0538 11.6433C18.2326 11.8276 18.2326 12.1336 18.0539 12.3178L18.4127 12.666ZM17.47 13.6376L18.4127 12.666L18.0538 12.3178L17.1111 13.2894L17.47 13.6376ZM16.7721 14.3311L17.4668 13.6408L17.1143 13.2861L16.4197 13.9764L16.7721 14.3311ZM14.3937 16.7823L16.7753 14.3279L16.4165 13.9797L14.0348 16.4341L14.3937 16.7823ZM14.3937 17.1756C14.2893 17.068 14.2893 16.8899 14.3937 16.7823L14.0348 16.4341C13.7423 16.7356 13.7423 17.2222 14.0348 17.5238L14.3937 17.1756ZM14.5864 17.2531C14.5018 17.2531 14.4435 17.2269 14.3937 17.1756L14.0348 17.5238C14.1835 17.6769 14.3733 17.7531 14.5864 17.7531V17.2531ZM14.7791 17.1756C14.7292 17.2269 14.671 17.2531 14.5864 17.2531V17.7531C14.7995 17.7531 14.9893 17.6769 15.1379 17.5238L14.7791 17.1756ZM17.8306 14.0308L14.7791 17.1756L15.1379 17.5238L18.1894 14.379L17.8306 14.0308ZM19.1818 14.0308C18.8107 13.6484 18.2017 13.6484 17.8306 14.0308L18.1894 14.379C18.3641 14.199 18.6482 14.199 18.8229 14.379L19.1818 14.0308ZM19.4508 14.7162C19.4508 14.4499 19.3532 14.2075 19.1818 14.0308L18.8229 14.379C18.8995 14.458 18.9508 14.5735 18.9508 14.7162H19.4508ZM19.1404 15.4172C19.3509 15.2365 19.4508 14.9849 19.4508 14.7162H18.9508C18.9508 14.8567 18.9018 14.963 18.8146 15.0379L19.1404 15.4172ZM12.6036 2.07243C12.2818 2.33028 12.2029 2.81099 12.4697 3.15462L12.8646 2.84801C12.7746 2.73203 12.7956 2.55927 12.9162 2.46265L12.6036 2.07243ZM13.6682 2.20139C13.4045 1.86169 12.9341 1.80766 12.6036 2.07243L12.9162 2.46265C13.0282 2.37296 13.1801 2.38809 13.2732 2.508L13.6682 2.20139ZM15.5357 4.63189L13.6689 2.20237L13.2725 2.50701L15.1392 4.93653L15.5357 4.63189ZM15.401 5.71309C15.7228 5.45524 15.8017 4.97453 15.5349 4.6309L15.14 4.93752C15.23 5.05349 15.209 5.22625 15.0884 5.32287L15.401 5.71309ZM15.3353 5.75695C15.3403 5.75272 15.3436 5.75 15.3468 5.74747C15.3498 5.74508 15.3516 5.74373 15.3526 5.74299C15.3536 5.74226 15.3533 5.74255 15.3518 5.74342C15.3504 5.74429 15.3471 5.74607 15.3423 5.7481L15.147 5.28785C15.0807 5.31599 15.0299 5.36059 15.0152 5.37279L15.3353 5.75695ZM15.2382 5.82011C15.2713 5.80604 15.296 5.78793 15.3063 5.7802C15.3182 5.77124 15.3298 5.7615 15.3353 5.75695L15.0152 5.37278C15.0116 5.37582 15.0094 5.37762 15.0076 5.37914C15.0058 5.38061 15.0055 5.38074 15.0063 5.38017C15.007 5.37967 15.0101 5.37731 15.0152 5.37415C15.02 5.37115 15.0295 5.36551 15.0428 5.35986L15.2382 5.82011ZM14.345 5.5946C14.5664 5.85003 14.922 5.9543 15.2382 5.82011L15.0428 5.35985C14.9479 5.40015 14.8182 5.37709 14.7228 5.26707L14.345 5.5946ZM12.4689 3.15363L14.3357 5.58315L14.7321 5.27851L12.8654 2.84899L12.4689 3.15363ZM21.5592 3.286L19.5795 5.54286L19.9553 5.87258L21.935 3.61572L21.5592 3.286ZM21.5332 2.92839C21.6361 3.00536 21.658 3.16694 21.5549 3.29104L21.9393 3.61068C22.193 3.30557 22.2035 2.80538 21.8326 2.52798L21.5332 2.92839ZM21.1587 2.91439C21.2401 2.81641 21.4138 2.81008 21.5037 2.90252L21.8621 2.55385C21.5695 2.25314 21.0496 2.2635 20.7742 2.59474L21.1587 2.91439ZM19.1747 5.17628L21.1544 2.91942L20.7785 2.5897L18.7988 4.84657L19.1747 5.17628ZM19.1925 5.55546C19.0814 5.45845 19.0826 5.27029 19.1647 5.18695L18.8087 4.83589C18.5141 5.13471 18.5466 5.65538 18.8637 5.93213L19.1925 5.55546ZM19.4842 5.61191C19.3917 5.65117 19.2933 5.64345 19.1925 5.55546L18.8637 5.93213C19.1054 6.14315 19.4067 6.18799 19.6795 6.07216L19.4842 5.61191ZM19.6002 5.52182C19.5349 5.58061 19.5073 5.60209 19.4842 5.61191L19.6795 6.07216C19.7934 6.02382 19.8829 5.94007 19.9345 5.89363L19.6002 5.52182Z" fill="currentColor"/>
</svg>
