<svg width="20" height="20" viewBox="0 0 20 20" fill="none" xmlns="http://www.w3.org/2000/svg">
<path d="M19.7194 1.69471C19.9015 1.50611 20.0023 1.25351 20 0.99131C19.9978 0.729114 19.8926 0.478301 19.7072 0.292893C19.5218 0.107485 19.271 0.00231622 19.0088 3.78026e-05C18.7466 -0.00224062 18.494 0.0985537 18.3054 0.280712L16.5084 2.07771C15.6934 1.57107 14.731 1.35501 13.7776 1.46467C12.8243 1.57433 11.936 2.00326 11.2574 2.68171L10.1894 3.75071C9.86145 4.07886 9.67725 4.5238 9.67725 4.98771C9.67725 5.45163 9.86145 5.89656 10.1894 6.22471L13.7744 9.81071C13.9369 9.97323 14.1298 10.1022 14.3421 10.1901C14.5545 10.2781 14.782 10.3233 15.0119 10.3233C15.2417 10.3233 15.4693 10.2781 15.6816 10.1901C15.8939 10.1022 16.0869 9.97323 16.2494 9.81071L17.3174 8.74271C17.9957 8.06423 18.4247 7.17625 18.5345 6.22312C18.6444 5.26998 18.4286 4.30771 17.9224 3.49271L19.7194 1.69471V1.69471Z" fill="#161C25"/>
<path d="M8.71929 9.69471C8.90145 9.50611 9.00224 9.25351 8.99996 8.99131C8.99768 8.72911 8.89251 8.4783 8.70711 8.29289C8.5217 8.10748 8.27089 8.00232 8.00869 8.00004C7.74649 7.99776 7.49389 8.09855 7.30529 8.28071L5.83529 9.75071L5.54229 9.45771C5.40166 9.31726 5.21104 9.23837 5.01229 9.23837C4.81354 9.23837 4.62291 9.31726 4.48229 9.45771L2.70729 11.2327C2.02892 11.9112 1.59995 12.7992 1.49011 13.7523C1.38028 14.7054 1.59602 15.6677 2.10229 16.4827L0.305288 18.2807C0.209778 18.373 0.133596 18.4833 0.0811869 18.6053C0.0287779 18.7273 0.00119157 18.8585 3.77567e-05 18.9913C-0.00111606 19.1241 0.0241857 19.2558 0.0744666 19.3787C0.124747 19.5016 0.199001 19.6132 0.292893 19.7071C0.386786 19.801 0.498438 19.8753 0.621334 19.9255C0.74423 19.9758 0.87591 20.0011 1.00869 20C1.14147 19.9988 1.27269 19.9712 1.39469 19.9188C1.5167 19.8664 1.62704 19.7902 1.71929 19.6947L3.51729 17.8977C4.33229 18.404 5.29456 18.6197 6.24769 18.5099C7.20083 18.4 8.0888 17.9711 8.76729 17.2927L10.5423 15.5177C10.6827 15.3771 10.7616 15.1865 10.7616 14.9877C10.7616 14.789 10.6827 14.5983 10.5423 14.4577L10.2493 14.1647L11.7193 12.6947C11.9014 12.5061 12.0022 12.2535 12 11.9913C11.9977 11.7291 11.8925 11.4783 11.7071 11.2929C11.5217 11.1075 11.2709 11.0023 11.0087 11C10.7465 10.9978 10.4939 11.0986 10.3053 11.2807L8.83529 12.7507L7.24929 11.1647L8.71929 9.69471V9.69471Z" fill="#161C25"/>
</svg>
