<svg width="341" height="216" viewBox="0 0 341 216" fill="none" xmlns="http://www.w3.org/2000/svg">
<mask id="mask0" mask-type="alpha" maskUnits="userSpaceOnUse" x="0" y="0" width="341" height="216">
<path fill-rule="evenodd" clip-rule="evenodd" d="M16.0361 0H324.731C333.588 0 340.767 7.18012 340.767 16.036V199.449C340.767 208.305 333.588 215.485 324.731 215.485H16.0361C7.17957 215.485 0 208.305 0 199.449V16.036C0 7.18012 7.17957 0 16.0361 0Z" fill="white"/>
</mask>
<g mask="url(#mask0)">
<path fill-rule="evenodd" clip-rule="evenodd" d="M16.0361 0H324.731C333.588 0 340.767 7.18012 340.767 16.036V199.449C340.767 208.305 333.588 215.485 324.731 215.485H16.0361C7.17961 215.485 4.57764e-05 208.305 4.57764e-05 199.449V16.036C4.57764e-05 7.18012 7.17961 0 16.0361 0Z" fill="url(#paint0_linear)"/>
<path fill-rule="evenodd" clip-rule="evenodd" d="M-1.00213 74.1672C24.5644 78.8443 39.9323 90.8715 45.1016 110.248C52.8556 139.313 24.0543 171.72 81.1834 199.449C119.269 217.935 123.278 230.63 93.2095 237.535L171.973 223.503L79.1785 -30.0679L-58.9815 9.02037L-1.00213 74.1672Z" fill="url(#paint1_linear)"/>
<path fill-rule="evenodd" clip-rule="evenodd" d="M0.000226686 19.0439C8.43344 49.9648 32.8106 55.1246 59.1334 69.1567C85.4562 83.1878 65.1469 124.28 71.1604 150.34C77.1737 176.398 121.318 169.382 138.184 190.429C149.429 204.461 150.703 218.492 142.006 232.524H363.616L350.927 -17.0376H-8.01787C-8.29458 -13.598 -5.62192 -1.57074 0.000226686 19.0439Z" fill="url(#paint2_linear)"/>
<path fill-rule="evenodd" clip-rule="evenodd" d="M161.363 1.00306C146.029 61.1382 173.314 101.229 243.222 121.273C313.129 141.319 310.794 175.396 236.215 223.504H370.632L361.479 -17.0376L161.363 1.00306Z" fill="url(#paint3_linear)"/>
<path fill-rule="evenodd" clip-rule="evenodd" d="M220.627 -21.5197C186.022 12.9198 200.843 46.3725 265.088 78.8377C329.334 111.304 332.998 160.138 276.081 225.338L347.217 249.562L371.121 76.5312L338.073 -56.126L220.627 -21.5197Z" fill="url(#paint4_linear)"/>
</g>
<defs>
<linearGradient id="paint0_linear" x1="-100.405" y1="104.75" x2="-89.5069" y2="233.097" gradientUnits="userSpaceOnUse">
<stop stop-color="#EE55E1"/>
<stop offset="1" stop-color="#F9AE79"/>
</linearGradient>
<linearGradient id="paint1_linear" x1="-76.723" y1="132.223" x2="108.696" y2="281.315" gradientUnits="userSpaceOnUse">
<stop stop-color="#EE4FED"/>
<stop offset="1" stop-color="#A4ABBD"/>
</linearGradient>
<linearGradient id="paint2_linear" x1="405.202" y1="208.529" x2="372.33" y2="-45.545" gradientUnits="userSpaceOnUse">
<stop stop-color="#39B8FD"/>
<stop offset="1" stop-color="#B420FB"/>
</linearGradient>
<linearGradient id="paint3_linear" x1="363.484" y1="162.456" x2="251.598" y2="-31.7131" gradientUnits="userSpaceOnUse">
<stop stop-color="#6DC9FF"/>
<stop offset="1" stop-color="#705EFA"/>
</linearGradient>
<linearGradient id="paint4_linear" x1="404.84" y1="133.736" x2="238.464" y2="22.5651" gradientUnits="userSpaceOnUse">
<stop stop-color="#6ECAFF"/>
<stop offset="1" stop-color="#4087F8"/>
</linearGradient>
</defs>
</svg>
