<svg width="24" height="24" viewBox="0 0 24 24" fill="none" xmlns="http://www.w3.org/2000/svg">
<g clip-path="url(#clip0)">
<path d="M12.1819 9.06612L12.182 9.06616L14.057 11.8786C14.057 11.8786 14.057 11.8787 14.057 11.8787C14.1059 11.9521 14.1059 12.0479 14.057 12.1213C14.057 12.1214 14.057 12.1214 14.057 12.1214L12.2446 14.8401L12.2378 14.8503L12.232 14.8612C12.1663 14.9843 12.0855 15.0312 11.9999 15.0312C11.913 15.0312 11.8472 14.9945 11.7719 14.8657L11.7682 14.8593L11.764 14.8531L9.943 12.1213L9.94299 12.1213C9.89399 12.0478 9.89402 11.9521 9.94299 11.8787L9.94299 11.8787L11.818 9.06616L11.818 9.06612C11.8585 9.00532 11.9268 8.96875 12 8.96875C12.0731 8.96875 12.1414 9.00532 12.1819 9.06612ZM11.7919 14.1063L11.9999 14.4184L12.208 14.1063L13.5196 12.1387L13.612 12L13.5196 11.8613L12.2079 9.89384L11.9999 9.58181L11.7919 9.89384L10.4803 11.8613L10.3879 11.9999L10.4803 12.1386L11.7919 14.1063Z" stroke="#FFC502" stroke-width="0.5"/>
<mask id="path-2-inside-1" fill="white">
<path d="M23.9212 10.8025L22.125 8.10812V4.50006C22.125 4.30562 22.005 4.13134 21.8233 4.06206C21.6415 3.99273 21.4359 4.04288 21.3065 4.18796L19.0285 6.74049L17.2079 4.22523C17.1214 4.10574 16.9838 4.03398 16.8363 4.0314C16.6891 4.02863 16.5488 4.09571 16.4583 4.21206L14.4838 6.74814L12.3601 4.19996C12.2711 4.09309 12.1392 4.03126 12 4.03126C11.8609 4.03126 11.729 4.09304 11.64 4.19996L9.51628 6.74814L7.54181 4.21206C7.44769 4.09121 7.30116 4.02437 7.14741 4.03192C6.99441 4.03993 6.855 4.1222 6.774 4.25223L5.12067 6.90746L2.69348 4.18796C2.56397 4.04284 2.35842 3.99273 2.17673 4.06206C1.99505 4.13134 1.875 4.30557 1.875 4.50006V8.10817L0.07875 10.8025C-0.02625 10.9599 -0.02625 11.1651 0.07875 11.3226L1.875 14.0169V17.6251C1.875 18.3088 2.67113 18.6654 2.93278 18.7826C3.46252 19.02 4.20577 19.2314 5.14177 19.4112C7.01414 19.7708 9.44977 19.9688 12 19.9688C14.5502 19.9688 16.9859 19.7708 18.8582 19.4112C19.7943 19.2314 20.5375 19.0199 21.0672 18.7826C21.3289 18.6654 22.125 18.3088 22.125 17.6251V14.0169L23.9212 11.3226C24.0263 11.1652 24.0263 10.96 23.9212 10.8025ZM16.8145 5.28062L18.3894 7.45646L17.0578 8.94849C17.0542 8.95253 17.0507 8.95665 17.0472 8.96082C16.9251 9.10754 16.7694 9.12943 16.6875 9.12943C16.6056 9.12943 16.4499 9.10754 16.3276 8.96054L15.0981 7.48524L16.8145 5.28062ZM7.21472 5.31807L8.90194 7.48524L7.67217 8.96082C7.55011 9.10754 7.39439 9.12943 7.3125 9.12943C7.23061 9.12943 7.07489 9.10754 6.95283 8.96082C6.94936 8.95665 6.94584 8.95257 6.94223 8.94849L5.77116 7.63637L7.21472 5.31807ZM1.03214 11.0625L2.34375 9.09507L3.65536 11.0626L2.34375 13.03L1.03214 11.0625ZM21.1875 15.7242C21.1427 15.7878 20.8105 16.1616 19.0053 16.5443C17.6284 16.8362 15.7992 17.0403 13.8546 17.1191C13.5959 17.1296 13.3947 17.3478 13.4052 17.6065C13.4154 17.8587 13.6231 18.0563 13.8732 18.0563C13.8796 18.0563 13.8861 18.0561 13.8925 18.0559C16.0316 17.9692 18.0141 17.7365 19.4748 17.4007C20.1975 17.2345 20.7655 17.0509 21.1875 16.845V17.6028C21.0992 17.751 20.4544 18.1782 18.3997 18.5425C16.6219 18.8577 14.3491 19.0313 12 19.0313C9.65086 19.0313 7.37808 18.8577 5.60025 18.5425C3.54562 18.1782 2.90081 17.751 2.8125 17.6029V16.8451C3.23447 17.0509 3.80241 17.2345 4.52517 17.4007C5.98589 17.7365 7.96838 17.9692 10.1074 18.0559C10.1139 18.0562 10.1203 18.0563 10.1267 18.0563C10.3769 18.0563 10.5846 17.8587 10.5947 17.6065C10.6052 17.3478 10.404 17.1296 10.1453 17.1192C8.20078 17.0404 6.37153 16.8362 4.99467 16.5443C3.18947 16.1616 2.85727 15.7879 2.8125 15.7243V14.0169L4.60875 11.3226C4.71375 11.1652 4.71375 10.96 4.60875 10.8025L2.8125 8.10812V5.72926L6.23798 9.56739C6.50569 9.88496 6.89681 10.0669 7.3125 10.0669C7.73123 10.0669 8.12498 9.88229 8.39259 9.56073L9.85805 7.80235C9.86025 7.79982 9.86231 7.79724 9.86442 7.79467L12 5.23224L14.1356 7.79476C14.1377 7.79729 14.1398 7.79992 14.142 7.80245L15.6072 9.56054C15.8751 9.88238 16.2688 10.067 16.6875 10.067C17.1032 10.067 17.4943 9.88506 17.762 9.56748L19.3329 7.80742C19.3359 7.80423 19.3388 7.80095 19.3416 7.79767L21.1875 5.72935V8.10812L19.3913 10.8025C19.2862 10.9599 19.2862 11.1651 19.3913 11.3225L21.1875 14.0169V15.7242ZM21.6562 13.03L20.3446 11.0625L21.6562 9.09507L22.9679 11.0626L21.6562 13.03Z"/>
</mask>
<path d="M23.9212 10.8025L22.125 8.10812V4.50006C22.125 4.30562 22.005 4.13134 21.8233 4.06206C21.6415 3.99273 21.4359 4.04288 21.3065 4.18796L19.0285 6.74049L17.2079 4.22523C17.1214 4.10574 16.9838 4.03398 16.8363 4.0314C16.6891 4.02863 16.5488 4.09571 16.4583 4.21206L14.4838 6.74814L12.3601 4.19996C12.2711 4.09309 12.1392 4.03126 12 4.03126C11.8609 4.03126 11.729 4.09304 11.64 4.19996L9.51628 6.74814L7.54181 4.21206C7.44769 4.09121 7.30116 4.02437 7.14741 4.03192C6.99441 4.03993 6.855 4.1222 6.774 4.25223L5.12067 6.90746L2.69348 4.18796C2.56397 4.04284 2.35842 3.99273 2.17673 4.06206C1.99505 4.13134 1.875 4.30557 1.875 4.50006V8.10817L0.07875 10.8025C-0.02625 10.9599 -0.02625 11.1651 0.07875 11.3226L1.875 14.0169V17.6251C1.875 18.3088 2.67113 18.6654 2.93278 18.7826C3.46252 19.02 4.20577 19.2314 5.14177 19.4112C7.01414 19.7708 9.44977 19.9688 12 19.9688C14.5502 19.9688 16.9859 19.7708 18.8582 19.4112C19.7943 19.2314 20.5375 19.0199 21.0672 18.7826C21.3289 18.6654 22.125 18.3088 22.125 17.6251V14.0169L23.9212 11.3226C24.0263 11.1652 24.0263 10.96 23.9212 10.8025ZM16.8145 5.28062L18.3894 7.45646L17.0578 8.94849C17.0542 8.95253 17.0507 8.95665 17.0472 8.96082C16.9251 9.10754 16.7694 9.12943 16.6875 9.12943C16.6056 9.12943 16.4499 9.10754 16.3276 8.96054L15.0981 7.48524L16.8145 5.28062ZM7.21472 5.31807L8.90194 7.48524L7.67217 8.96082C7.55011 9.10754 7.39439 9.12943 7.3125 9.12943C7.23061 9.12943 7.07489 9.10754 6.95283 8.96082C6.94936 8.95665 6.94584 8.95257 6.94223 8.94849L5.77116 7.63637L7.21472 5.31807ZM1.03214 11.0625L2.34375 9.09507L3.65536 11.0626L2.34375 13.03L1.03214 11.0625ZM21.1875 15.7242C21.1427 15.7878 20.8105 16.1616 19.0053 16.5443C17.6284 16.8362 15.7992 17.0403 13.8546 17.1191C13.5959 17.1296 13.3947 17.3478 13.4052 17.6065C13.4154 17.8587 13.6231 18.0563 13.8732 18.0563C13.8796 18.0563 13.8861 18.0561 13.8925 18.0559C16.0316 17.9692 18.0141 17.7365 19.4748 17.4007C20.1975 17.2345 20.7655 17.0509 21.1875 16.845V17.6028C21.0992 17.751 20.4544 18.1782 18.3997 18.5425C16.6219 18.8577 14.3491 19.0313 12 19.0313C9.65086 19.0313 7.37808 18.8577 5.60025 18.5425C3.54562 18.1782 2.90081 17.751 2.8125 17.6029V16.8451C3.23447 17.0509 3.80241 17.2345 4.52517 17.4007C5.98589 17.7365 7.96838 17.9692 10.1074 18.0559C10.1139 18.0562 10.1203 18.0563 10.1267 18.0563C10.3769 18.0563 10.5846 17.8587 10.5947 17.6065C10.6052 17.3478 10.404 17.1296 10.1453 17.1192C8.20078 17.0404 6.37153 16.8362 4.99467 16.5443C3.18947 16.1616 2.85727 15.7879 2.8125 15.7243V14.0169L4.60875 11.3226C4.71375 11.1652 4.71375 10.96 4.60875 10.8025L2.8125 8.10812V5.72926L6.23798 9.56739C6.50569 9.88496 6.89681 10.0669 7.3125 10.0669C7.73123 10.0669 8.12498 9.88229 8.39259 9.56073L9.85805 7.80235C9.86025 7.79982 9.86231 7.79724 9.86442 7.79467L12 5.23224L14.1356 7.79476C14.1377 7.79729 14.1398 7.79992 14.142 7.80245L15.6072 9.56054C15.8751 9.88238 16.2688 10.067 16.6875 10.067C17.1032 10.067 17.4943 9.88506 17.762 9.56748L19.3329 7.80742C19.3359 7.80423 19.3388 7.80095 19.3416 7.79767L21.1875 5.72935V8.10812L19.3913 10.8025C19.2862 10.9599 19.2862 11.1651 19.3913 11.3225L21.1875 14.0169V15.7242ZM21.6562 13.03L20.3446 11.0625L21.6562 9.09507L22.9679 11.0626L21.6562 13.03Z" stroke="#FFC502" mask="url(#path-2-inside-1)"/>
</g>
<defs>
<clipPath id="clip0">
<rect width="24" height="24" fill="white"/>
</clipPath>
</defs>
</svg>
