<svg width="18" height="18" viewBox="0 0 18 18" fill="none" xmlns="http://www.w3.org/2000/svg">
<path d="M3.32125 6.16024C3.22352 6.29059 3.07342 6.36727 2.91983 6.36727C2.76625 6.36727 2.61615 6.29059 2.51841 6.16024C2.16237 5.69252 1 4.08618 1 3.10857C1 1.94694 1.86218 1 2.91983 1C3.97749 1 4.83967 1.94694 4.83967 3.10857C4.83967 4.08618 3.67729 5.69252 3.32125 6.16024Z" stroke="#161C25" stroke-width="0.5"/>
<path d="M13.1602 13.7402C13.1602 12.5785 14.0223 11.6316 15.08 11.6316C16.1376 11.6316 16.9998 12.5785 16.9998 13.7402C16.9998 14.7178 15.8375 16.3241 15.4814 16.7918C15.3837 16.9222 15.2336 16.9989 15.08 16.9989C14.9264 16.9989 14.7798 16.9222 14.6786 16.7918C14.3225 16.3241 13.1602 14.7178 13.1602 13.7402Z" stroke="#161C25" stroke-width="0.5"/>
<path d="M5.52702 6.17389H8.42595C10.0563 6.17389 11.3779 7.50887 11.3779 9.13921V9.13921C11.3779 10.7549 10.0682 12.0779 8.45248 12.0779H5.01683C3.68292 12.0779 2.60156 13.1592 2.60156 14.4932V14.4932C2.60156 15.8271 3.68292 16.9084 5.01683 16.9084H12.8407" stroke="#161C25" stroke-width="0.5" stroke-linecap="round" stroke-linejoin="bevel"/>
</svg>
