<svg width="268" height="209" viewBox="0 0 268 209" fill="none" xmlns="http://www.w3.org/2000/svg">
<g filter="url(#filter0_d)">
<rect x="40.9795" y="40.9722" width="185.432" height="126.682" rx="15.25" fill="white" stroke="#D9D9D9" stroke-width="1.5"/>
</g>
<path d="M118.26 167.445L226.038 135.778V152.445C226.038 160.729 219.322 167.445 211.038 167.445H118.26Z" fill="#FD6020"/>
<path fill-rule="evenodd" clip-rule="evenodd" d="M204.469 91.553C210.272 91.553 213.464 94.1355 213.464 99.0137C213.754 102.744 211.143 105.901 207.661 106.474L215.495 117.092H209.402L202.728 106.761H202.148V117.092H197.215V91.553H204.469ZM202.148 103.318H203.599C206.79 103.318 208.241 101.883 208.241 99.3007C208.241 97.0051 206.79 95.5703 203.599 95.5703H202.148V103.318ZM180.096 117.092H194.023V112.787H185.028V105.9H193.733V101.596H185.028V95.8572H194.023V91.5529H180.096V117.092ZM165.588 108.77L158.914 91.5529H153.691L164.427 117.665H167.039L177.774 91.5529H172.552L165.588 108.77ZM106.685 104.466C106.685 111.64 112.489 117.666 119.743 117.666C122.064 117.666 124.095 117.092 126.126 116.231V110.492C124.675 112.213 122.644 113.361 120.323 113.361C115.68 113.361 111.908 109.918 111.908 105.327V104.753C111.618 100.162 115.39 96.1442 120.033 95.8573C122.354 95.8573 124.675 97.0051 126.126 98.7268V92.9878C124.385 91.84 122.064 91.553 120.033 91.553C112.489 90.9791 106.685 97.0051 106.685 104.466ZM97.6904 101.309C94.7888 100.161 93.9183 99.5876 93.9183 98.1528C94.2084 96.4311 95.6592 94.9964 97.4002 95.2833C98.851 95.2833 100.302 96.1442 101.462 97.292L104.074 93.8486C102.043 92.1269 99.4313 90.9791 96.8199 90.9791C92.7576 90.6921 89.2757 93.8486 88.9855 97.8659V98.1528C88.9855 101.596 90.4363 103.605 95.0789 105.04C96.2396 105.327 97.4002 105.901 98.5609 106.474C99.4313 107.048 100.012 107.909 100.012 109.057C100.012 111.066 98.2707 112.787 96.5297 112.787H96.2396C93.9183 112.787 91.8871 111.353 91.0167 109.344L87.8249 112.5C89.5659 115.657 93.0478 117.379 96.5297 117.379C101.172 117.666 104.944 114.222 105.235 109.631V108.77C104.944 105.327 103.494 103.605 97.6904 101.309ZM80.8611 117.092H85.7938V91.5529H80.8611V117.092ZM57.9385 91.553H65.1925H66.6432C73.6071 91.8399 79.1201 97.5789 78.8299 104.466C78.8299 108.196 77.089 111.64 74.1874 114.222C71.576 116.231 68.3842 117.379 65.1925 117.092H57.9385V91.553ZM64.322 112.787C66.6433 113.074 69.2547 112.213 70.9957 110.779C72.7366 109.057 73.6071 106.761 73.6071 104.179C73.6071 101.883 72.7366 99.5875 70.9957 97.8658C69.2547 96.4311 66.6433 95.5702 64.322 95.8572H62.8712V112.787H64.322Z" fill="black"/>
<path fill-rule="evenodd" clip-rule="evenodd" d="M140.924 90.9609C133.671 90.9609 127.577 96.7 127.577 104.161C127.577 111.334 133.38 117.36 140.924 117.647C148.469 117.934 154.272 111.908 154.562 104.448C154.272 96.9869 148.469 90.9609 140.924 90.9609V90.9609Z" fill="#FD6020"/>
<defs>
<filter id="filter0_d" x="0.229492" y="0.222168" width="266.932" height="208.182" filterUnits="userSpaceOnUse" color-interpolation-filters="sRGB">
<feFlood flood-opacity="0" result="BackgroundImageFix"/>
<feColorMatrix in="SourceAlpha" type="matrix" values="0 0 0 0 0 0 0 0 0 0 0 0 0 0 0 0 0 0 127 0"/>
<feOffset/>
<feGaussianBlur stdDeviation="20"/>
<feColorMatrix type="matrix" values="0 0 0 0 0 0 0 0 0 0 0 0 0 0 0 0 0 0 0.1 0"/>
<feBlend mode="normal" in2="BackgroundImageFix" result="effect1_dropShadow"/>
<feBlend mode="normal" in="SourceGraphic" in2="effect1_dropShadow" result="shape"/>
</filter>
</defs>
</svg>
