<svg width="16" height="18" viewBox="0 0 16 18" fill="none" xmlns="http://www.w3.org/2000/svg">
<path d="M2.34461 5.20134L2.3446 5.20133L2.34224 5.2042C2.32371 5.22669 2.28968 5.24359 2.25641 5.24359C2.22314 5.24359 2.18911 5.22669 2.17058 5.2042L2.17059 5.20419L2.16821 5.20134C1.96544 4.95881 1.53501 4.42309 1.15803 3.82669C0.969493 3.52842 0.800492 3.2246 0.68002 2.94172C0.556512 2.65171 0.5 2.42029 0.5 2.25641C0.5 1.28948 1.28948 0.5 2.25641 0.5C3.22334 0.5 4.01282 1.28948 4.01282 2.25641C4.01282 2.42029 3.95631 2.65171 3.8328 2.94172C3.71233 3.2246 3.54333 3.52842 3.35479 3.82669C2.97781 4.42309 2.54738 4.95881 2.34461 5.20134ZM1.85405 4.42811L2.25641 4.97353L2.65877 4.42811C2.9446 4.04065 3.21339 3.63403 3.41337 3.27626C3.5131 3.09785 3.60026 2.92352 3.66387 2.76459C3.72205 2.61925 3.78205 2.43565 3.78205 2.25641C3.78205 1.41411 3.09871 0.730769 2.25641 0.730769C1.41411 0.730769 0.730769 1.41411 0.730769 2.25641C0.730769 2.43565 0.790771 2.61925 0.848949 2.76459C0.912565 2.92352 0.999724 3.09785 1.09945 3.27626C1.29943 3.63403 1.56822 4.04065 1.85405 4.42811Z" fill="currentColor" stroke="currentColor"/>
<path d="M13.8319 17.0988L13.8319 17.0988L13.8295 17.1017C13.811 17.1242 13.777 17.1411 13.7437 17.1411C13.7159 17.1411 13.6811 17.1281 13.6534 17.0963C13.4498 16.8526 13.021 16.3185 12.6453 15.7242C12.4568 15.4259 12.2878 15.1221 12.1673 14.8392C12.0438 14.5492 11.9873 14.3178 11.9873 14.1539C11.9873 13.1869 12.7768 12.3975 13.7437 12.3975C14.7106 12.3975 15.5001 13.1869 15.5001 14.1539C15.5001 14.3178 15.4436 14.5492 15.3201 14.8392C15.1996 15.1221 15.0306 15.4259 14.8421 15.7242C14.4651 16.3205 14.0347 16.8563 13.8319 17.0988ZM13.3414 16.3256L13.7437 16.871L14.1461 16.3256C14.4319 15.9381 14.7007 15.5315 14.9007 15.1737C15.0004 14.9953 15.0876 14.821 15.1512 14.6621C15.2094 14.5167 15.2694 14.3331 15.2694 14.1539C15.2694 13.3116 14.586 12.6282 13.7437 12.6282C12.9014 12.6282 12.2181 13.3116 12.2181 14.1539C12.2181 14.3331 12.2781 14.5167 12.3363 14.6621C12.3999 14.821 12.487 14.9953 12.5868 15.1737C12.7867 15.5315 13.0555 15.9381 13.3414 16.3256Z" fill="currentColor" stroke="currentColor"/>
<path d="M4 7.14111H7.25C8.76878 7.14111 10 8.37233 10 9.89111V9.89111C10 11.4099 8.76878 12.6411 7.25 12.6411H3.25C2.00736 12.6411 1 13.6485 1 14.8911V14.8911C1 16.1338 2.00736 17.1411 3.25 17.1411H11.5" stroke="currentColor"/>
</svg>
