<svg width="187" height="89" viewBox="0 0 187 89" fill="none" xmlns="http://www.w3.org/2000/svg">
<path d="M38.5149 27.0436C40.3139 26.4442 42.2329 26.1245 44.2238 26.1245C52.939 26.1245 60.2151 32.31 61.8781 40.5334L74.2314 38.016C71.401 24.0467 59.0397 13.5298 44.2238 13.5298C40.8256 13.5298 37.5714 14.0812 34.5171 15.1041L38.5149 27.0436Z" fill="#FFCB05"/>
<path d="M23.9389 67.0495L32.2943 57.6114C28.5684 54.3109 26.2176 49.492 26.2176 44.1216C26.2176 38.7593 28.5684 33.9403 32.2943 30.6478L23.9389 21.2017C17.6063 26.8118 13.6085 35.0032 13.6085 44.1216C13.6085 53.248 17.6063 61.4394 23.9389 67.0495Z" fill="#00A4E0"/>
<path d="M61.8781 47.7338C60.2071 55.9492 52.939 62.1267 44.2318 62.1267C42.2329 62.1267 40.3059 61.807 38.5149 61.1996L34.5171 73.1551C37.5714 74.17 40.8336 74.7214 44.2318 74.7214C59.0317 74.7214 71.385 64.2205 74.2314 50.2671L61.8781 47.7338Z" fill="#EF4123"/>
<path d="M85.0336 58.003C84.6258 57.3477 84.0821 56.3008 83.7463 55.5256C81.7874 50.9864 81.6994 46.2873 83.3465 41.7801C85.1615 36.8333 88.6316 33.0533 93.1172 31.1193C98.7541 28.6978 104.983 29.1694 110.388 32.374C113.818 34.3399 116.249 37.3767 118.096 41.6762C118.327 42.2276 118.535 42.811 118.743 43.3145L85.0336 58.003ZM96.2914 38.4156C92.2856 40.1338 90.2228 43.8899 90.6545 48.2852L107.605 40.9889C104.687 37.5685 100.897 36.4337 96.2914 38.4156ZM109.716 54.2869C109.708 54.2869 109.708 54.2949 109.708 54.2949L109.356 54.0552C108.341 55.6935 106.766 57.0281 104.775 57.8911C100.985 59.5374 97.4748 59.1139 94.9482 56.9002L94.7163 57.2518C94.7163 57.2518 94.7163 57.2438 94.7083 57.2438L90.4066 63.6771C91.4781 64.4203 92.6214 65.0436 93.8208 65.5471C98.5702 67.521 103.432 67.4251 108.221 65.3473C111.683 63.8449 114.402 61.5593 116.257 58.6583L109.716 54.2869Z" fill="black"/>
<path d="M130.521 21.6573V57.4117L136.086 59.6653L132.927 67.0335L126.787 64.4762C125.411 63.8769 124.468 62.9658 123.764 61.9349C123.085 60.888 122.581 59.4415 122.581 57.5076V21.6573H130.521Z" fill="black"/>
<path d="M144.929 48.3092C144.929 45.2644 146.28 42.5313 148.407 40.6773L142.698 34.3159C138.828 37.7364 136.389 42.7311 136.389 48.2932C136.381 53.8634 138.82 58.8661 142.682 62.2865L148.383 55.9252C146.264 54.0632 144.929 51.346 144.929 48.3092Z" fill="black"/>
<path d="M155.067 58.4505C153.948 58.4505 152.86 58.2587 151.853 57.9231L149.126 66.0186C150.989 66.6419 152.98 66.9856 155.059 66.9856C164.094 66.9936 171.634 60.5843 173.385 52.0732L165.006 50.363C164.054 54.9902 159.969 58.4585 155.067 58.4505Z" fill="black"/>
<path d="M155.091 29.6329C153.02 29.6329 151.029 29.9685 149.166 30.5839L151.869 38.6873C152.884 38.3517 153.964 38.1679 155.083 38.1679C159.992 38.1759 164.086 41.6602 165.014 46.2953L173.393 44.6011C171.674 36.0741 164.134 29.6409 155.091 29.6329Z" fill="black"/>
</svg>
