<svg width="19" height="37" viewBox="0 0 19 37" fill="none" xmlns="http://www.w3.org/2000/svg">
<g clip-path="url(#clip0)">
<path d="M2.26099 23.5583V24.1125C2.26099 25.498 2.8152 26.9182 3.78508 27.992C4.8935 29.2736 6.55614 29.8624 8.80763 29.8624C12.8603 29.8624 15.7007 27.1953 15.7007 23.3851C15.7007 21.8956 15.1811 20.4755 14.2805 19.4363C13.3799 18.4318 12.2715 17.8429 9.84678 16.977C7.17963 16.0418 6.34831 15.6954 5.62091 15.1065C4.78959 14.4484 4.33929 13.3746 4.33929 12.1623C4.33929 9.56439 6.24439 7.69393 8.84227 7.69393C10.5395 7.69393 11.9944 8.42133 12.7218 9.59903C13.1721 10.3264 13.3106 10.9499 13.3452 12.3008H15.2504C15.2504 8.42133 12.7564 5.92737 8.87691 5.92737C5.03205 5.92737 2.36491 8.52524 2.36491 12.2662C2.36491 13.9981 2.98839 15.4875 4.13146 16.5267C5.10133 17.4273 5.82874 17.7737 8.63444 18.7089C12.5486 19.9559 13.7955 21.0989 13.7955 23.3851C13.7955 26.1908 11.7172 28.0959 8.63444 28.0959C6.86788 28.0959 5.44771 27.3685 4.75495 26.1908C4.33929 25.4634 4.1661 24.8052 4.09682 23.5583H2.26099Z" fill="currentColor"/>
<path d="M8.71295 0V37" stroke="currentColor" stroke-width="1.8"/>
</g>
<defs>
<clipPath id="clip0">
<rect width="17.3191" height="37" fill="white" transform="translate(0.84082)"/>
</clipPath>
</defs>
</svg>
