<svg width="21" height="20" viewBox="0 0 21 20" fill="none" xmlns="http://www.w3.org/2000/svg">
<path d="M9.90975 11.994L17.7528 11.996C18.3495 11.996 18.9218 12.2331 19.3437 12.655C19.7657 13.077 20.0028 13.6493 20.0028 14.246V15.151C20.0028 15.6914 19.886 16.2254 19.6604 16.7164C19.4348 17.2075 19.1057 17.644 18.6958 17.996C17.1298 19.34 14.8898 19.996 11.9998 19.996H11.8208C12.0548 19.526 12.0628 18.971 11.8468 18.494L11.9998 18.497C14.5598 18.497 16.4578 17.94 17.7188 16.857C17.9646 16.6459 18.1619 16.3841 18.2972 16.0897C18.4325 15.7952 18.5026 15.475 18.5028 15.151V14.246C18.5028 14.0471 18.4237 13.8563 18.2831 13.7157C18.1424 13.575 17.9517 13.496 17.7528 13.496H9.97676C10.0221 12.9946 9.99926 12.4893 9.90876 11.994H9.90975ZM4.49976 8.496C5.35443 8.49619 6.19138 8.73978 6.91268 9.19825C7.63399 9.65673 8.20981 10.3111 8.57277 11.0849C8.93574 11.8587 9.07085 12.7198 8.96229 13.5676C8.85373 14.4153 8.50599 15.2147 7.95976 15.872L10.7828 18.686C10.9176 18.8195 10.9969 18.9991 11.0046 19.1888C11.0123 19.3784 10.9478 19.5639 10.8241 19.7078C10.7005 19.8518 10.5268 19.9435 10.3382 19.9645C10.1496 19.9855 9.96005 19.9342 9.80775 19.821L9.72275 19.748L6.81976 16.852C6.22537 17.2096 5.55637 17.4249 4.865 17.4812C4.17364 17.5374 3.47862 17.4331 2.83424 17.1763C2.18986 16.9196 1.61357 16.5173 1.15036 16.001C0.68716 15.4847 0.34959 14.8682 0.164021 14.1999C-0.0215484 13.5315 -0.0500939 12.8293 0.0806143 12.148C0.211322 11.4668 0.497745 10.825 0.917512 10.2728C1.33728 9.72058 1.87902 9.27288 2.50044 8.96465C3.12185 8.65643 3.8061 8.49604 4.49976 8.496V8.496ZM4.49976 9.996C3.70411 9.996 2.94104 10.3121 2.37844 10.8747C1.81583 11.4373 1.49976 12.2004 1.49976 12.996C1.49976 13.7916 1.81583 14.5547 2.37844 15.1173C2.94104 15.6799 3.70411 15.996 4.49976 15.996C5.2954 15.996 6.05847 15.6799 6.62108 15.1173C7.18369 14.5547 7.49976 13.7916 7.49976 12.996C7.49976 12.2004 7.18369 11.4373 6.62108 10.8747C6.05847 10.3121 5.2954 9.996 4.49976 9.996ZM11.9998 0C13.3258 0 14.5976 0.526784 15.5353 1.46447C16.473 2.40215 16.9998 3.67392 16.9998 5C16.9998 6.32608 16.473 7.59785 15.5353 8.53553C14.5976 9.47322 13.3258 10 11.9998 10C10.6737 10 9.4019 9.47322 8.46422 8.53553C7.52654 7.59785 6.99976 6.32608 6.99976 5C6.99976 3.67392 7.52654 2.40215 8.46422 1.46447C9.4019 0.526784 10.6737 0 11.9998 0V0ZM11.9998 1.5C11.5401 1.5 11.085 1.59053 10.6604 1.76642C10.2357 1.94231 9.84989 2.20012 9.52488 2.52513C9.19988 2.85013 8.94207 3.23597 8.76618 3.66061C8.59028 4.08525 8.49975 4.54037 8.49975 5C8.49975 5.45963 8.59028 5.91475 8.76618 6.33939C8.94207 6.76403 9.19988 7.14987 9.52488 7.47487C9.84989 7.79988 10.2357 8.05769 10.6604 8.23358C11.085 8.40947 11.5401 8.5 11.9998 8.5C12.928 8.5 13.8183 8.13125 14.4746 7.47487C15.131 6.8185 15.4998 5.92826 15.4998 5C15.4998 4.07174 15.131 3.1815 14.4746 2.52513C13.8183 1.86875 12.928 1.5 11.9998 1.5V1.5Z" fill="currentColor"/>
</svg>
