<svg width="10" height="12" viewBox="0 0 10 12" fill="none" xmlns="http://www.w3.org/2000/svg">
<path d="M1.5 0C0.673 0 0 0.673 0 1.5C0 2.1508 0.419374 2.70107 1 2.9082V3.65234V9.60352V11.5117C1 11.7817 1.21828 12 1.48828 12H1.51172C1.78172 12 2 11.7817 2 11.5117V9.11426C2.16735 8.91988 2.56921 8.52344 3.72266 8.52344C4.33466 8.52344 4.83521 8.73689 5.36621 8.96289C5.88471 9.18389 6.42095 9.41211 7.04395 9.41211C8.22344 9.41211 9.02469 8.79234 9.36719 8.52734L9.44336 8.46973C9.71886 8.27023 10 7.998 10 7.5V3.33789C10 2.88389 9.61091 2.5 9.14941 2.5C8.90191 2.5 8.7202 2.6433 8.4707 2.8418C8.1397 3.1038 7.64045 3.5 7.04395 3.5C6.63645 3.5 6.23884 3.30987 5.77734 3.08887C5.20184 2.81287 4.54918 2.5 3.72168 2.5C3.15413 2.5 2.71084 2.59417 2.35645 2.72852C2.74454 2.45709 3 2.00839 3 1.5C3 0.673 2.327 0 1.5 0ZM1.5 1C1.776 1 2 1.2245 2 1.5C2 1.7755 1.776 2 1.5 2C1.224 2 1 1.7755 1 1.5C1 1.2245 1.224 1 1.5 1ZM3.72168 3.5C4.32268 3.5 4.8192 3.73823 5.3457 3.99023C5.8682 4.24123 6.40895 4.5 7.04395 4.5C7.92145 4.5 8.57902 4.02724 8.99902 3.69824V7.5332C8.99852 7.5352 8.97649 7.57263 8.85449 7.66113L8.75488 7.7373C8.47138 7.9563 7.88145 8.41211 7.04395 8.41211C6.62495 8.41211 6.22331 8.24147 5.75781 8.04297C5.18631 7.79897 4.53818 7.52246 3.72168 7.52246C2.94568 7.52246 2.393 7.679 2 7.875V4.18066C2.1725 3.95266 2.56618 3.5 3.72168 3.5Z" fill="white"/>
</svg>
