<svg width="41" height="48" viewBox="0 0 41 48" fill="none" xmlns="http://www.w3.org/2000/svg">
<path fill-rule="evenodd" clip-rule="evenodd" d="M1.32054 8.96871C1.1255 8.78079 0.817633 8.78947 0.633056 8.98805C0.448479 9.18712 0.456991 9.50073 0.652025 9.68915L4.86446 13.7532C4.95833 13.8437 5.07871 13.8888 5.1986 13.8888C5.32773 13.8888 5.45638 13.8367 5.55195 13.7339C5.73677 13.5348 5.72826 13.2209 5.53298 13.0328L1.32054 8.96871Z" fill="currentColor"/>
<path fill-rule="evenodd" clip-rule="evenodd" d="M40.3597 8.99567C40.1658 8.78741 39.8426 8.77803 39.6372 8.97562L35.474 12.9902C35.2691 13.1877 35.2604 13.5171 35.4544 13.7261C35.5548 13.8341 35.6899 13.8888 35.8256 13.8888C35.9516 13.8888 36.078 13.8414 36.1767 13.7461L40.3398 9.73162C40.545 9.53403 40.5537 9.20471 40.3597 8.99567Z" fill="currentColor"/>
<path fill-rule="evenodd" clip-rule="evenodd" d="M28.9959 9.53088C29.0516 9.54751 29.1086 9.55561 29.1643 9.55561C29.378 9.55561 29.5778 9.43868 29.6515 9.2525L31.5831 4.37397C31.6759 4.13922 31.5331 3.88333 31.2639 3.80215C30.9942 3.7221 30.7011 3.846 30.608 4.08075L28.6768 8.95906C28.5839 9.19381 28.7268 9.44993 28.9959 9.53088Z" fill="currentColor"/>
<path fill-rule="evenodd" clip-rule="evenodd" d="M11.3294 9.2444C11.4046 9.43542 11.6084 9.55561 11.8266 9.55561C11.8834 9.55561 11.9413 9.54707 11.9981 9.53C12.2726 9.44695 12.4186 9.18419 12.3236 8.94334L10.413 4.08859C10.3181 3.84774 10.0194 3.7204 9.74406 3.80299C9.46954 3.88604 9.32387 4.1488 9.41853 4.38965L11.3294 9.2444Z" fill="currentColor"/>
<path d="M10.1299 16.0557H31.3167L28.0753 23.5084L31.6114 31.9446H10.1299" stroke="currentColor" stroke-width="1.6"/>
<path d="M9.75977 47.1112V16.0557" stroke="currentColor" stroke-width="1.6"/>
</svg>
