<svg width="24" height="24" viewBox="0 0 24 24" fill="none" xmlns="http://www.w3.org/2000/svg">
<path d="M20.625 7.14844L14.625 7.14844L14.625 4.5C14.625 4.08516 14.2898 3.75 13.875 3.75L4.3125 3.75L4.3125 2.8125C4.3125 2.70938 4.22813 2.625 4.125 2.625L2.8125 2.625C2.70938 2.625 2.625 2.70937 2.625 2.8125L2.625 21.1875C2.625 21.2906 2.70937 21.375 2.8125 21.375L4.125 21.375C4.22812 21.375 4.3125 21.2906 4.3125 21.1875L4.3125 15L10.125 15L10.125 17.6484C10.125 18.0633 10.4602 18.3984 10.875 18.3984L20.625 18.3984C21.0398 18.3984 21.375 18.0633 21.375 17.6484L21.375 7.89844C21.375 7.4836 21.0398 7.14844 20.625 7.14844ZM4.3125 13.3125L4.3125 5.4375L12.9375 5.4375L12.9375 13.3125L4.3125 13.3125ZM19.6875 16.7109L11.8125 16.7109L11.8125 15L14.4375 15C14.5406 15 14.625 14.9156 14.625 14.8125L14.625 8.83594L19.6875 8.83594L19.6875 16.7109Z" fill="white"/>
</svg>
