<svg width="22" height="17" viewBox="0 0 22 17" fill="none" xmlns="http://www.w3.org/2000/svg">
<path d="M0.307617 7.52246V6.90723H3.17188V4.20703H3.80762V6.90723H6.68555V7.52246H3.80762V10.2295H3.17188V7.52246H0.307617Z" fill="white"/>
<path fill-rule="evenodd" clip-rule="evenodd" d="M17.3808 13.7143H7.19061C6.52527 13.7143 6 13.1803 6 12.5217C6 11.9166 6.43772 11.258 7.06805 11.0444L10.0271 9.86966C10.1146 9.83406 10.1846 9.78066 10.2021 9.70946C10.2197 9.63827 10.1846 9.56707 10.1146 9.47807C10.0446 9.40688 8.55631 7.62696 8.55631 5.61565C8.55631 3.51534 10.2372 1.78882 12.3207 1.78882C14.3868 1.78882 16.0852 3.49754 16.0852 5.61565C16.0852 7.62696 14.5969 9.40688 14.5269 9.47807C14.4568 9.56707 14.4218 9.63827 14.4393 9.70946C14.4568 9.76286 14.5094 9.83406 14.6144 9.86966L17.5734 11.0444C18.1337 11.258 18.5714 11.9166 18.5714 12.5217C18.5714 13.1803 18.0287 13.7143 17.3808 13.7143ZM10.2195 10.5282L7.26048 11.703C6.96283 11.8276 6.7002 12.2013 6.7002 12.5217C6.7002 12.7887 6.9103 13.0201 7.19045 13.0023H17.3456C17.6083 13.0023 17.8359 12.7887 17.8359 12.5217C17.8359 12.2013 17.5733 11.8276 17.2756 11.703L14.3166 10.5282C14.0189 10.4036 13.7913 10.1544 13.7213 9.86965C13.6512 9.56707 13.7388 9.24668 13.9489 8.99749C13.9664 8.97969 15.3321 7.34217 15.3321 5.59784C15.3321 3.88912 13.9664 2.48298 12.268 2.48298C10.5872 2.48298 9.20398 3.87132 9.20398 5.59784C9.20398 7.35996 10.5697 8.97969 10.5872 8.99749C10.7973 9.26448 10.8848 9.58486 10.8148 9.86965C10.7448 10.1722 10.5347 10.4036 10.2195 10.5282Z" fill="white"/>
<path d="M21.9302 10.231C21.5786 9.18205 20.2891 8.91537 19.435 8.55978C19.1336 8.43533 18.4637 8.31088 18.2292 8.06197C17.8943 7.72417 18.6479 6.95967 18.7986 6.67521C19.636 5.18177 20.0044 3.31497 19.0666 1.76819C17.9948 -0.00971554 15.8512 -0.48975 14.1598 0.523656C13.7914 0.754783 14.1263 1.35927 14.4948 1.12814C16.5378 -0.0808318 19.0833 1.5015 18.9494 4.02613C18.8824 4.9862 18.4804 5.91071 17.978 6.69298C17.7269 7.08412 17.3082 7.47526 17.3919 7.99085C17.4757 8.50645 17.9111 8.68424 18.313 8.84425C18.8321 9.0576 19.3345 9.27095 19.8537 9.48429C20.2388 9.64431 20.825 9.76876 21.1264 10.1243C21.5786 10.6755 21.1766 11.1911 20.6073 11.1911C20.3393 11.1911 20.0881 11.1911 19.8202 11.1911C19.3848 11.1911 19.3848 11.9022 19.8202 11.9022C20.2388 11.9022 20.7412 11.9734 21.1599 11.8667C21.8465 11.6889 22.1479 10.9244 21.9302 10.231Z" fill="white"/>
</svg>
