<svg width="23" height="23" viewBox="0 0 23 23" fill="none" xmlns="http://www.w3.org/2000/svg">
<g clip-path="url(#clip0)">
<path d="M22.9198 2.81543C22.9777 3.07826 23.0045 3.34109 23.0045 3.61283C23.0045 8.86947 23.0045 14.1217 23.0045 19.3783C23.0045 21.4186 21.4138 23 19.3731 23C14.1333 23 8.889 23 3.64917 23C1.59066 23 0.00891128 21.4186 0.00891128 19.3649C0 16.2599 0 13.155 0 10.0544C0 9.97871 0.00445564 9.90743 0.00891128 9.8317C0.0579233 9.81834 0.111391 9.80943 0.160403 9.79161C3.37292 8.80265 6.58543 7.81369 9.79795 6.82473C13.7055 5.62194 17.6087 4.4236 21.5163 3.22081C21.9797 3.08272 22.4386 2.91343 22.9198 2.81543ZM6.41612 15.4982C6.25126 15.4982 6.09086 15.4982 5.926 15.4982C5.38687 15.4982 5.38687 15.4982 5.4938 16.0328C6.05076 18.8615 8.52809 20.933 11.4332 20.9776C13.0283 21.0043 14.4496 20.5053 15.6838 19.4941C16.4547 18.8615 17.0339 18.0819 17.4438 17.1776C17.573 16.8925 17.5062 16.799 17.1943 16.799C16.8067 16.799 16.4235 16.8168 16.0358 16.7945C15.6794 16.7722 15.4522 16.9237 15.2516 17.1999C14.4051 18.3715 13.2555 19.0041 11.8119 19.0843C9.66428 19.209 7.77509 17.73 7.38299 15.6363C7.36071 15.5205 7.32061 15.4937 7.21368 15.4982C6.95079 15.5071 6.68346 15.5026 6.41612 15.4982ZM16.5928 12.7229C16.8289 12.7229 17.0695 12.7273 17.3057 12.7229C17.573 12.7184 17.622 12.6382 17.5196 12.3932C17.074 11.3285 16.3834 10.4465 15.4522 9.77379C13.5585 8.41508 11.4866 8.14334 9.34347 9.02984C7.17358 9.92525 5.86362 11.578 5.46707 13.9167C5.44479 14.0593 5.47598 14.0994 5.61856 14.0949C6.16215 14.0905 6.70128 14.0905 7.24487 14.0949C7.34735 14.0949 7.38745 14.0637 7.40527 13.9657C7.49438 13.449 7.69934 12.9723 7.97114 12.5268C9.20535 10.5088 11.901 9.82725 13.9372 11.0122C14.5298 11.3597 15.02 11.8141 15.3898 12.3932C15.5324 12.6159 15.7195 12.7451 15.9957 12.7273C16.1918 12.7095 16.3923 12.7229 16.5928 12.7229Z" fill="#464646"/>
<path d="M22.9198 2.81542C22.4386 2.91342 21.9841 3.0827 21.5163 3.22526C17.6087 4.42359 13.7055 5.62638 9.79795 6.82917C6.58543 7.81813 3.37292 8.80709 0.160403 9.79605C0.111391 9.80941 0.0579233 9.82278 0.00891128 9.83614C0.00445564 9.68913 0 9.53767 0 9.39066C0 7.43056 0 5.47492 0 3.51482C0 1.60817 1.62185 0 3.52441 0C8.86226 0.00445477 14.1957 0.00445477 19.5335 0C21.1286 0 22.6346 1.27407 22.9198 2.81542ZM12.6718 3.46136C12.6897 3.46136 12.7075 3.46136 12.7208 3.46136C12.8501 3.87565 12.9837 4.28995 13.0996 4.7087C13.1441 4.86461 13.2021 4.92698 13.3625 4.86907C13.5095 4.82007 13.6387 4.78888 13.5674 4.5706C13.3714 3.96475 13.1931 3.35444 13.006 2.74414C12.9882 2.68177 12.9704 2.6105 12.8946 2.59268C12.7387 2.54813 12.3911 2.75305 12.3555 2.91342C12.2664 3.3099 12.1773 3.71083 12.0971 4.1073C12.0659 4.26322 12.0169 4.28104 11.9055 4.16521C11.6559 3.91129 11.3975 3.66628 11.1435 3.41681C10.8851 3.16734 10.8317 3.16734 10.4975 3.30099C10.3905 3.34554 10.3638 3.4079 10.3905 3.50591C10.5821 4.14294 10.7782 4.77997 10.9742 5.42146C11.0232 5.57738 11.1257 5.55065 11.2416 5.51501C11.353 5.47937 11.4554 5.43928 11.402 5.28336C11.3307 5.07399 11.2728 4.86016 11.2059 4.64633C11.1391 4.41914 11.0723 4.1964 11.0054 3.9692C11.0277 3.95138 11.05 3.93802 11.0767 3.9202C11.4198 4.28104 11.7629 4.63742 12.106 4.9938C12.155 5.04726 12.204 5.1319 12.2797 5.11408C12.3867 5.09626 12.3599 4.98044 12.3733 4.90916C12.4802 4.42805 12.5738 3.94247 12.6718 3.46136ZM15.6348 2.54813C15.6482 2.53477 15.6616 2.52586 15.6794 2.51249C15.9244 2.64614 16.1695 2.78423 16.4146 2.91788C16.7577 3.10943 17.1007 3.29653 17.4438 3.49254C17.6087 3.58609 17.7691 3.546 17.9072 3.4569C18.0453 3.36781 17.9339 3.23417 17.9028 3.13616C17.7334 2.5615 17.5508 1.99128 17.3814 1.41662C17.3324 1.24734 17.2389 1.24288 17.0963 1.28297C16.9537 1.32752 16.8735 1.37207 16.927 1.54581C17.0473 1.90219 17.1497 2.26748 17.2611 2.62832C17.2745 2.67286 17.328 2.72632 17.2834 2.77087C17.2255 2.82878 17.1765 2.76196 17.1275 2.73523C16.6418 2.46794 16.1561 2.1962 15.6705 1.92892C15.6126 1.89773 15.5546 1.8621 15.4923 1.83982C15.3185 1.77745 15.1625 1.85319 15.0333 1.93783C14.9175 2.01801 15.0333 2.14275 15.0601 2.2363C15.2294 2.80205 15.4121 3.36781 15.568 3.93802C15.6215 4.13403 15.7106 4.14294 15.871 4.09839C16.0314 4.05384 16.0804 3.98702 16.0225 3.81329C15.8754 3.39454 15.7596 2.97133 15.6348 2.54813ZM9.35238 3.71974C9.32119 3.71974 9.29446 3.71528 9.26327 3.71974C8.71968 3.80883 8.20728 4.01375 7.68152 4.16521C7.58349 4.19194 7.57458 4.27213 7.60577 4.36568C7.80182 5.00271 7.99341 5.63974 8.18946 6.27678C8.2563 6.49061 8.39888 6.37033 8.51918 6.3436C8.64394 6.31687 8.72859 6.27232 8.67513 6.11641C8.60829 5.9293 8.55037 5.73775 8.4969 5.54619C8.47908 5.49274 8.44789 5.43037 8.49244 5.37691C8.58156 5.26554 9.08059 5.21654 9.20089 5.30564C9.37912 5.43928 9.56625 5.56401 9.72666 5.71548C9.91825 5.90703 10.1143 5.88476 10.3371 5.79566C10.4618 5.74666 10.4663 5.6932 10.3638 5.61302C10.1767 5.47046 9.98954 5.319 9.8024 5.17645C9.58853 5.01162 9.58853 5.01162 9.78458 4.84679C10.0386 4.63297 10.0876 4.44586 9.97172 4.13848C9.86033 3.85338 9.66428 3.71974 9.35238 3.71974ZM3.39965 7.84931C3.83185 7.85377 4.46009 7.63103 4.82991 7.35929C5.00368 7.2301 5.0616 7.092 4.9814 6.88263C4.91011 6.70443 4.86556 6.51733 4.80763 6.33023C4.77644 6.23223 4.73189 6.14759 4.60267 6.18768C4.31306 6.27678 4.02344 6.37033 3.73382 6.45942C3.62689 6.49506 3.60461 6.56634 3.6358 6.6688C3.67145 6.77126 3.73382 6.81135 3.84076 6.78017C3.96106 6.74453 4.08136 6.70443 4.20167 6.6688C4.30415 6.64207 4.4289 6.57525 4.469 6.74898C4.50019 6.88263 4.65169 7.02518 4.42445 7.14546C4.17939 7.27465 3.93433 7.39047 3.66253 7.43502C3.27044 7.49293 2.89616 7.26128 2.78477 6.88263C2.66447 6.48615 2.82933 6.1075 3.19915 5.93821C3.5155 5.79121 3.84967 5.72884 4.19721 5.78675C4.35316 5.81348 4.41108 5.75557 4.43336 5.60411C4.45118 5.46155 4.42445 5.368 4.26405 5.35909C3.74274 5.32346 3.23925 5.4081 2.78923 5.68429C2.31693 5.9694 2.12979 6.50843 2.28574 7.043C2.43723 7.5553 2.83379 7.84486 3.39965 7.84931ZM7.49884 6.65543C7.56567 6.63761 7.67261 6.61089 7.77509 6.57525C7.88202 6.53961 7.89539 6.4817 7.81073 6.39706C7.27606 5.84912 6.75029 5.29673 6.21561 4.75324C6.05521 4.59287 5.78787 4.67306 5.75223 4.8958C5.63193 5.63974 5.52053 6.38815 5.40469 7.13655C5.39578 7.19446 5.38241 7.25683 5.47598 7.26574C5.62747 7.28356 5.82797 7.14991 5.8458 6.994C5.86807 6.83808 5.95273 6.7668 6.09977 6.73116C6.38047 6.65543 6.65672 6.57079 6.92852 6.47724C7.05773 6.43269 7.15575 6.43269 7.24487 6.54406C7.29833 6.61088 7.36071 6.66434 7.49884 6.65543ZM14.4808 4.51269C14.7214 4.50378 14.864 4.39241 14.8195 4.24094C14.6279 3.60391 14.4274 2.97133 14.2358 2.32985C14.1734 2.12493 14.0486 2.21848 13.9372 2.24966C13.8258 2.28084 13.6922 2.30312 13.7501 2.48131C13.9461 3.11834 14.1422 3.75537 14.3382 4.38795C14.3605 4.46368 14.3873 4.53496 14.4808 4.51269Z" fill="#11ACEC"/>
<path d="M6.41501 15.503C6.68235 15.503 6.94969 15.5074 7.21703 15.503C7.32396 15.4985 7.36407 15.5252 7.38634 15.6411C7.77398 17.7348 9.66763 19.2138 11.8152 19.0891C13.2589 19.0044 14.4084 18.3718 15.255 17.2047C15.451 16.9329 15.6827 16.777 16.0392 16.7993C16.4224 16.826 16.81 16.8038 17.1977 16.8038C17.5096 16.8038 17.5764 16.8973 17.4472 17.1824C17.0373 18.0867 16.458 18.8663 15.6872 19.4989C14.4485 20.5101 13.0316 21.0046 11.4365 20.9823C8.53144 20.9378 6.05411 18.8663 5.49715 16.0375C5.39022 15.503 5.39022 15.503 5.92935 15.503C6.08975 15.503 6.25461 15.4985 6.41501 15.503Z" fill="#11ACEC"/>
<path d="M16.5957 12.7226C16.3952 12.7226 16.1947 12.7137 15.9942 12.727C15.7179 12.7448 15.5308 12.6156 15.3882 12.3929C15.0139 11.8138 14.5283 11.3594 13.9357 11.0119C11.8994 9.82696 9.20377 10.513 7.96956 12.5266C7.69777 12.972 7.49281 13.4487 7.4037 13.9654C7.38587 14.0679 7.34577 14.0991 7.24329 14.0946C6.69971 14.0902 6.16057 14.0902 5.61699 14.0946C5.47441 14.0946 5.44322 14.059 5.4655 13.9164C5.86205 11.5777 7.16755 9.92496 9.3419 9.02955C11.4895 8.14305 13.5569 8.41479 15.4506 9.7735C16.3863 10.4417 17.0724 11.3282 17.518 12.3929C17.6205 12.6379 17.5715 12.7181 17.3041 12.7226C17.068 12.727 16.8318 12.7226 16.5957 12.7226Z" fill="#11ACEC"/>
<path d="M12.6711 3.46135C12.5731 3.94692 12.4795 4.43249 12.3771 4.91361C12.3637 4.98488 12.386 5.10071 12.2835 5.11853C12.2033 5.13189 12.1587 5.04725 12.1097 4.99825C11.7666 4.64187 11.4236 4.28103 11.0805 3.92465C11.0582 3.94247 11.0359 3.95583 11.0092 3.97365C11.076 4.20084 11.1429 4.42358 11.2097 4.65077C11.2721 4.8646 11.3344 5.07843 11.4057 5.28781C11.4592 5.44372 11.3567 5.47936 11.2453 5.51946C11.1295 5.55509 11.027 5.58182 10.978 5.42591C10.7819 4.78887 10.5904 4.15184 10.3943 3.51035C10.3631 3.41235 10.3943 3.34998 10.5012 3.30543C10.831 3.16734 10.8889 3.17179 11.1473 3.42126C11.4057 3.66627 11.6597 3.91574 11.9092 4.16966C12.0251 4.28548 12.0696 4.26321 12.1008 4.11175C12.181 3.71082 12.2701 3.31434 12.3592 2.91787C12.3949 2.75304 12.7424 2.55258 12.8984 2.59712C12.9741 2.6194 12.9919 2.68622 13.0098 2.74859C13.1969 3.35889 13.3751 3.96919 13.5712 4.57504C13.6425 4.79333 13.5133 4.82451 13.3662 4.87351C13.2058 4.92697 13.1434 4.8646 13.1033 4.71314C12.9875 4.29439 12.8494 3.8801 12.7246 3.46581C12.7068 3.4569 12.689 3.4569 12.6711 3.46135Z" fill="#161C25"/>
<path d="M15.6331 2.54819C15.7578 2.9714 15.8737 3.39905 16.0163 3.8178C16.0786 3.99599 16.0252 4.05836 15.8648 4.10291C15.7044 4.14746 15.6153 4.13855 15.5618 3.94254C15.4058 3.37233 15.2187 2.81102 15.0538 2.24081C15.0271 2.14281 14.9113 2.01807 15.0271 1.94234C15.1563 1.85325 15.3123 1.77752 15.486 1.84434C15.5484 1.86661 15.6063 1.90225 15.6643 1.93343C16.1499 2.20072 16.6356 2.47246 17.1213 2.73975C17.1703 2.76648 17.2193 2.82884 17.2772 2.77539C17.3218 2.73084 17.2683 2.67738 17.2549 2.63283C17.148 2.272 17.0411 1.91116 16.9208 1.55032C16.8628 1.37659 16.9475 1.33204 17.0901 1.28749C17.2327 1.24294 17.3262 1.25185 17.3752 1.42114C17.5446 1.9958 17.7317 2.56601 17.8966 3.14068C17.9233 3.23868 18.0391 3.37233 17.901 3.46142C17.7629 3.55052 17.6069 3.59061 17.4376 3.49706C17.099 3.30105 16.7515 3.11395 16.4084 2.92239C16.1633 2.78875 15.9182 2.65065 15.6732 2.51701C15.6598 2.52146 15.6464 2.53483 15.6331 2.54819Z" fill="#161C25"/>
<path d="M9.3516 3.7193C9.6635 3.7193 9.85955 3.85294 9.96203 4.13359C10.0734 4.44097 10.0244 4.62807 9.77489 4.8419C9.57884 5.01118 9.57884 5.00673 9.79271 5.17155C9.97985 5.31411 10.167 5.46557 10.3541 5.60812C10.4611 5.68831 10.4566 5.73731 10.3274 5.79077C10.1091 5.87986 9.91301 5.90213 9.71696 5.71058C9.56102 5.55466 9.36942 5.43438 9.1912 5.30074C9.07089 5.21165 8.57186 5.26065 8.48275 5.37202C8.43819 5.42547 8.46938 5.48784 8.4872 5.5413C8.54513 5.73285 8.60305 5.92441 8.66543 6.11151C8.7189 6.26743 8.63424 6.31197 8.50948 6.3387C8.38918 6.36543 8.2466 6.48571 8.17976 6.27188C7.98371 5.63485 7.79212 4.99782 7.59607 4.36079C7.56934 4.27169 7.57379 4.1915 7.67182 4.16032C8.19759 4.00886 8.70999 3.80394 9.25358 3.71484C9.28922 3.71484 9.32041 3.7193 9.3516 3.7193ZM9.13327 4.14696C9.14664 4.14696 9.10654 4.14696 9.07089 4.15587C8.90604 4.20041 8.74118 4.24496 8.57632 4.28951C8.05055 4.43206 8.15749 4.40979 8.29115 4.89536C8.31789 4.98891 8.38027 5.03346 8.47384 5.00673C8.76345 4.91318 9.06198 4.85526 9.33378 4.71271C9.4719 4.63698 9.53874 4.52561 9.49864 4.36079C9.45854 4.1915 9.33823 4.13805 9.13327 4.14696Z" fill="#161C25"/>
<path d="M3.4022 7.84948C2.83634 7.84503 2.43979 7.55547 2.28829 7.03871C2.13235 6.50414 2.31948 5.96957 2.78733 5.68446C3.23735 5.40827 3.73638 5.32363 4.26214 5.35926C4.42255 5.37263 4.44928 5.46618 4.43146 5.60428C4.41364 5.75128 4.35571 5.8092 4.19531 5.78692C3.84777 5.72901 3.5136 5.79583 3.19725 5.93839C2.82743 6.10767 2.66257 6.48632 2.78287 6.8828C2.89872 7.26145 3.26854 7.4931 3.66063 7.43519C3.93688 7.3951 4.18194 7.27927 4.42255 7.14563C4.64978 7.02535 4.49829 6.8828 4.4671 6.74915C4.427 6.57542 4.30224 6.64224 4.19976 6.66897C4.07946 6.70015 3.95916 6.7447 3.83886 6.78034C3.73192 6.81152 3.66954 6.77143 3.6339 6.66897C3.60271 6.56651 3.62499 6.49523 3.73192 6.45959C4.02154 6.3705 4.31116 6.27695 4.60077 6.18785C4.72999 6.14776 4.77454 6.2324 4.80573 6.33041C4.86366 6.51305 4.90821 6.70015 4.9795 6.8828C5.0597 7.09217 5.00178 7.23472 4.82801 7.35946C4.46265 7.63565 3.8344 7.85394 3.4022 7.84948Z" fill="#161C25"/>
<path d="M7.49831 6.65581C7.36018 6.66472 7.2978 6.61572 7.24879 6.5489C7.15968 6.43753 7.06166 6.43753 6.93244 6.48207C6.66065 6.57562 6.3844 6.66026 6.1037 6.736C5.95666 6.77609 5.872 6.84291 5.84973 6.99883C5.82745 7.15475 5.6314 7.28839 5.47991 7.27057C5.38634 7.26166 5.39971 7.19484 5.40862 7.14138C5.52447 6.39298 5.63586 5.64457 5.75616 4.90063C5.7918 4.67789 6.05914 4.5977 6.21954 4.75807C6.75422 5.30156 7.28444 5.85395 7.81465 6.40189C7.89931 6.48653 7.88594 6.54444 7.77901 6.58008C7.66762 6.60681 7.56068 6.63354 7.49831 6.65581ZM5.94775 6.2727C5.92993 6.38852 5.96557 6.44198 6.09479 6.39743C6.29974 6.33061 6.5047 6.2727 6.70966 6.21033C6.8166 6.17915 6.83887 6.12124 6.76313 6.0366C6.57599 5.82722 6.38886 5.61785 6.19727 5.40847C6.11261 5.31938 6.07696 5.35501 6.0636 5.46193C6.0235 5.72922 5.9834 6.00096 5.94775 6.2727Z" fill="#161C25"/>
<path d="M14.4834 4.51216C14.3898 4.53444 14.3631 4.46316 14.3408 4.39188C14.1448 3.75485 13.9487 3.11782 13.7527 2.48524C13.6992 2.30705 13.8284 2.28478 13.9398 2.25359C14.0512 2.22241 14.176 2.12886 14.2384 2.33378C14.43 2.97081 14.6305 3.60784 14.822 4.24488C14.8666 4.39188 14.7196 4.50325 14.4834 4.51216Z" fill="#161C25"/>
<path d="M9.13318 4.1472C9.33814 4.14274 9.45844 4.1962 9.49854 4.36102C9.53865 4.5214 9.47627 4.63722 9.33369 4.71295C9.06189 4.8555 8.76337 4.91787 8.47375 5.00697C8.37573 5.03815 8.31335 4.98915 8.29107 4.8956C8.1574 4.41003 8.05047 4.4323 8.57623 4.28975C8.74109 4.2452 8.90595 4.20065 9.07081 4.15611C9.10645 4.14274 9.14209 4.14274 9.13318 4.1472Z" fill="#11ACEC"/>
<path d="M5.95185 6.27287C5.99195 6.00113 6.03205 5.73384 6.06769 5.4621C6.08106 5.35965 6.12116 5.31955 6.20136 5.40865C6.39295 5.61802 6.58009 5.82739 6.76722 6.03677C6.84297 6.12141 6.82069 6.17932 6.71376 6.2105C6.5088 6.27287 6.30384 6.33078 6.09888 6.3976C5.96521 6.44215 5.93402 6.38869 5.95185 6.27287Z" fill="#11ACEC"/>
</g>
<defs>
<clipPath id="clip0">
<rect width="23" height="23" fill="white"/>
</clipPath>
</defs>
</svg>
