<svg width="22" height="19" viewBox="0 0 22 19" fill="none" xmlns="http://www.w3.org/2000/svg">
<circle cx="7.06135" cy="12.5152" r="1.81819" stroke="currentColor" stroke-width="0.75"/>
<path d="M5.50326 16.8441C5.60333 17.4213 5.80347 18.3448 5.80347 18.5757H8.20521L8.50543 16.8441L10.0065 15.6897L11.8078 16.2669L13.1213 14.5352L11.5076 13.3808V11.541L13.0087 10.4948L11.8078 8.76322L10.3067 9.34042L8.50543 8.18602L7.90499 6.45441H5.80347L5.50326 8.18602L3.70195 9.34042L1.90065 8.76322L1 10.4948L2.50109 11.541V13.3808L1 14.5352L1.90065 16.2669L3.70195 15.6897L5.50326 16.8441Z" stroke="currentColor" stroke-width="0.75"/>
<circle cx="14.9407" cy="5.24255" r="1.27273" stroke="currentColor" stroke-width="0.75"/>
<path d="M13.8471 8.27276C13.9172 8.6768 14.0573 9.32327 14.0573 9.48488H15.7385L15.9486 8.27276L16.9994 7.46467L18.2603 7.86872L19.1797 6.65659L18.0501 5.84851V4.56062L19.1009 3.82829L18.2603 2.61617L17.2095 3.02021L15.9486 2.21213L15.5283 1H14.0573L13.8471 2.21213L12.5862 3.02021L11.3253 2.61617L10.6948 3.82829L11.7456 4.56062V5.84851L10.6948 6.65659L11.3253 7.86872L12.5862 7.46467L13.8471 8.27276Z" stroke="currentColor" stroke-width="0.75"/>
<circle cx="17.6646" cy="13.4245" r="1" stroke="currentColor" stroke-width="0.75"/>
<path d="M16.8093 15.805C16.8644 16.1225 16.9744 16.6304 16.9744 16.7574H18.2954L18.4605 15.805L19.2861 15.1701L20.2768 15.4876L20.9992 14.5352L20.1117 13.9003V12.8884L20.9373 12.313L20.2768 11.3606L19.4512 11.678L18.4605 11.0431L18.1303 10.0907H16.9744L16.8093 11.0431L15.8186 11.678L14.8279 11.3606L14.3325 12.313L15.1581 12.8884V13.9003L14.3325 14.5352L14.8279 15.4876L15.8186 15.1701L16.8093 15.805Z" stroke="currentColor" stroke-width="0.75"/>
</svg>
