<svg width="20" height="20" viewBox="0 0 20 20" fill="none" xmlns="http://www.w3.org/2000/svg">
<path d="M10.0646 4.38281C8.65506 4.38281 7.50781 5.53006 7.50781 6.93956C7.50781 8.34906 8.65506 9.49631 10.0646 9.49631C11.4741 9.49631 12.6213 8.34906 12.6213 6.93956C12.6213 5.53006 11.4741 4.38281 10.0646 4.38281ZM10.0646 8.76581C9.05757 8.76581 8.23831 7.94656 8.23831 6.93956C8.23831 5.93257 9.05757 5.11331 10.0646 5.11331C11.0716 5.11331 11.8908 5.93257 11.8908 6.93956C11.8908 7.94656 11.0716 8.76581 10.0646 8.76581Z" fill="currentColor"/>
<path d="M14.9534 2.05161C13.6305 0.728674 11.8715 0 10.0007 0C8.12948 0 6.3708 0.728674 5.04787 2.05161C2.5996 4.49952 2.29534 9.10532 4.38896 11.8958L10.0007 20L15.604 11.9072C17.706 9.10532 17.4017 4.49952 14.9534 2.05161ZM15.0115 11.4802L10.0007 18.7165L4.98176 11.4689C3.08282 8.93694 3.35493 4.77747 5.5647 2.56807C6.74957 1.3832 8.32489 0.7305 10.0007 0.7305C11.6764 0.7305 13.2517 1.3832 14.437 2.56807C16.6467 4.77747 16.9189 8.93694 15.0115 11.4802Z" fill="currentColor"/>
</svg>
