<svg width="22" height="24" viewBox="0 0 22 24" fill="none" xmlns="http://www.w3.org/2000/svg">
<path d="M20.2805 8.58447H19.7042V5.80378C19.7042 5.78631 19.7014 5.76897 19.6991 5.75127C19.6982 5.64099 19.6628 5.53241 19.5875 5.44657L14.9599 0.160958C14.9588 0.159477 14.9574 0.158998 14.9565 0.157647C14.9289 0.126841 14.8968 0.101089 14.8628 0.0790412C14.8527 0.0722874 14.8426 0.066623 14.832 0.0606535C14.8026 0.0447058 14.7713 0.0312418 14.7392 0.0216122C14.7304 0.0193028 14.7226 0.0157298 14.7139 0.0134205C14.6789 0.00518518 14.6426 0 14.6059 0H3.23366C2.71435 0 2.29248 0.422352 2.29248 0.941218V8.58447H1.71623C0.973488 8.58447 0.371094 9.18656 0.371094 9.9297V16.9251C0.371094 17.6675 0.973445 18.2702 1.71623 18.2702H2.29253V23.0588C2.29253 23.5776 2.7144 24 3.2337 24H18.7631C19.2819 24 19.7042 23.5776 19.7042 23.0588V18.2702H20.2805C21.0232 18.2702 21.6257 17.6675 21.6257 16.9251V9.9297C21.6256 9.18656 21.0231 8.58447 20.2805 8.58447ZM3.23366 0.941218H14.1353V5.75646C14.1353 6.01646 14.3462 6.22705 14.6059 6.22705H18.763V8.58469H3.23366V0.941218ZM13.69 11.9046C13.69 12.5002 13.4914 13.0055 13.1307 13.3479C12.6615 13.7904 11.9671 13.9887 11.1551 13.9887C10.9745 13.9887 10.8122 13.9798 10.6861 13.9616V16.136H9.32375V10.1367C9.7478 10.0645 10.343 10.0104 11.182 10.0104C12.0301 10.0104 12.6344 10.1725 13.0402 10.4978C13.4283 10.8042 13.69 11.3092 13.69 11.9046ZM2.89244 13.1679C2.90185 11.147 4.372 9.9924 6.36567 9.9924C7.15038 9.9924 7.75478 10.1454 8.05246 10.2896L7.76397 11.3908C7.43011 11.2461 7.01526 11.1289 6.3475 11.1289C5.20184 11.1289 4.33579 11.7786 4.33579 13.0957C4.33579 14.3496 5.12075 15.0893 6.24824 15.0893C6.56419 15.0893 6.81652 15.0537 6.92493 14.9993V13.727H5.9865V12.6535H8.25098V15.8557C7.82724 16.0002 7.02419 16.1987 6.22136 16.1987C5.11173 16.1987 4.30912 15.9193 3.7496 15.3777C3.19034 14.8545 2.88372 14.0606 2.89244 13.1679ZM18.7631 22.8037H3.23366V18.2702H18.763V22.8037H18.7631ZM17.514 16.1358L16.9639 15.0349C16.7382 14.611 16.594 14.295 16.4225 13.9432H16.4046C16.2782 14.295 16.1249 14.6109 15.9354 15.0349L15.4303 16.1358H13.8605L15.6197 13.059L13.9239 10.0555H15.5025L16.0347 11.1652C16.2151 11.535 16.3504 11.8327 16.4947 12.1756H16.5131C16.6574 11.7876 16.7746 11.5164 16.928 11.1652L17.4421 10.0555H19.0117L17.2975 13.0235L19.1017 16.136H17.514V16.1358Z" fill="#161C25"/>
<path d="M11.2519 11.0479C10.9721 11.0479 10.7826 11.0749 10.6836 11.1022V12.8968C10.8008 12.9244 10.945 12.9334 11.1436 12.9334C11.8741 12.9334 12.3253 12.5632 12.3253 11.941C12.3254 11.3819 11.9373 11.0479 11.2519 11.0479Z" fill="#161C25"/>
</svg>
