<svg width="24" height="21" viewBox="0 0 24 21" fill="none" xmlns="http://www.w3.org/2000/svg">
<g clip-path="url(#clip0)">
<path d="M23.745 4.65829C23.745 4.65829 22.5184 0.590271 18.2543 0.0609547C13.9902 -0.468362 11.9994 2.62373 11.9994 2.62373C11.9994 2.62373 10.0153 -0.468362 5.74448 0.0609547C1.47364 0.590271 0.257096 4.65829 0.257096 4.65829C0.0124477 5.70633 -0.0582325 6.78616 0.0477742 7.85624C0.459666 11.9364 3.37329 14.5047 4.28035 15.2446L11.5492 20.5378C11.6793 20.6328 11.8372 20.6842 11.9994 20.6842C12.1616 20.6842 12.3195 20.6328 12.4495 20.5378L19.7184 15.2446C20.6255 14.5036 23.5391 11.9309 23.951 7.85624C24.0581 6.78634 23.9886 5.70651 23.745 4.65829Z" fill="url(#paint0_linear)"/>
</g>
<defs>
<linearGradient id="paint0_linear" x1="11.9994" y1="0.213133" x2="11.9994" y2="25.3413" gradientUnits="userSpaceOnUse">
<stop stop-color="#FF60AB"/>
<stop offset="0.54" stop-color="#FF425E"/>
<stop offset="1" stop-color="#FF281B"/>
</linearGradient>
<clipPath id="clip0">
<rect width="24" height="20.6897" fill="white"/>
</clipPath>
</defs>
</svg>
