<svg width="39" height="38" viewBox="0 0 39 38" fill="none" xmlns="http://www.w3.org/2000/svg">
<path fill-rule="evenodd" clip-rule="evenodd" d="M2.275 24.1429C2.275 24.1429 -1.62974 13.2631 4.22747 7.01502C4.22747 7.01502 8.34143 1.00014 17.3608 1.04052C17.3608 1.04052 27.7538 0.219803 33.3533 5.96546C33.3533 5.96546 36.0951 8.86066 35.8842 12.6517C35.8842 12.6517 35.466 17.3195 37 18.9611L18.2127 18.8549C16.4893 18.8451 14.787 19.3142 13.3611 20.2635C12.1072 21.0983 10.9748 22.3502 11.0014 24.1429H2.275Z" stroke="currentColor" stroke-width="1.62"/>
<path d="M18.1431 28.8571L10.8574 24.1428" stroke="currentColor" stroke-width="1.62"/>
<path d="M23.2852 19L18.1742 29.0638C17.511 30.3597 17.1876 31.8924 17.311 33.4204C17.4021 34.5514 17.7281 35.731 18.578 36.4526C18.578 36.4526 18.6015 37.1594 22.9438 36.9667" stroke="currentColor" stroke-width="1.62"/>
</svg>
