<svg width="187" height="81" viewBox="0 0 187 81" fill="none" xmlns="http://www.w3.org/2000/svg">
<g clip-path="url(#clip0)">
<path d="M51.3252 0H31.9558C23.397 0.402834 16.4011 3.83441 14.3811 10.9108C13.3278 14.6013 12.7481 18.6545 11.9245 22.4802C7.73738 41.9323 4.02462 61.9206 0.0194702 80.9845H150.818C162.476 80.9845 170.482 78.5321 172.644 69.3206C173.649 65.0417 174.612 60.1957 175.573 55.4946C179.321 37.1651 183.073 18.8368 186.912 0H51.3252Z" fill="#822124"/>
<path d="M49.8125 28.782C50.6225 28.2265 51.6659 25.6967 50.474 24.6434C50.0964 24.3099 49.4651 24.2132 48.5842 24.3614C47.7672 24.4988 47.2972 24.7752 46.978 25.208C46.4651 25.9038 45.9944 28.0026 46.7891 28.7824C47.5632 29.5413 49.297 29.1352 49.8125 28.782V28.782ZM38.2853 24.6434C37.7049 28.3923 37.0512 32.0682 36.3956 35.7423C32.1864 35.7865 27.8889 35.949 23.8291 35.6481C24.5958 32.0536 25.1458 28.243 25.9078 24.6434H21.3725C19.7491 33.8125 18.272 43.1281 16.4593 52.1087H21.0892C21.8153 47.5023 22.4947 42.8483 23.4512 38.4701C27.3987 38.3733 32.1299 38.2046 35.9234 38.5643C35.1412 43.116 34.1962 47.5045 33.4668 52.1087H38.0968C39.5848 42.8041 41.1517 33.5791 43.0103 24.6434H38.2853V24.6434ZM103.764 32.5445C100.161 31.096 97.3292 33.5437 96.0161 35.8365C96.314 34.8165 96.4366 33.6219 96.678 32.5445H93.0874C92.2094 39.3211 90.9159 45.6831 89.6861 52.1087H93.7492C94.3186 48.2948 94.5644 43.1533 95.8275 39.5048C96.8372 36.5892 99.4794 34.1054 103.292 35.4604C103.345 34.3848 103.654 33.5638 103.764 32.5445V32.5445ZM106.031 47.5001C105.656 46.5366 105.56 44.9465 105.654 43.7373C105.863 41.0197 106.858 37.7108 108.394 36.2127C110.512 34.1452 114.695 34.4874 118.031 35.6485C118.135 34.5291 118.361 33.5306 118.504 32.4506C113.032 31.5609 107.84 32.1146 105.087 34.9903C102.392 37.8054 100.626 44.2756 101.874 48.3467C103.336 53.1105 109.891 53.3695 115.197 51.5448C115.432 50.5873 115.556 49.5197 115.764 48.5351C112.864 50.0343 107.32 50.8137 106.031 47.5001V47.5001ZM151.668 32.6383C148.077 30.851 145.087 33.8501 143.92 35.6481C144.253 34.7255 144.272 33.49 144.581 32.5441H140.991C140.023 39.2619 138.856 45.7817 137.496 52.1084H141.653C141.679 49.5153 142.191 47.5972 142.597 45.0546C143.466 39.6246 144.742 33.6701 151.102 35.46C151.312 34.5418 151.4 33.5002 151.668 32.6383ZM45.6551 32.5445C45.545 32.5602 45.5524 32.6931 45.5604 32.8264C44.6653 39.4913 43.4535 45.8416 42.1591 52.1084H46.2219C47.1981 45.3986 48.3164 38.8309 49.7178 32.5441L45.6551 32.5445V32.5445ZM81.3705 32.1683C78.4348 32.3936 75.9533 33.2344 74.1897 35.0842C72.0267 37.3526 70.2752 42.3681 70.7885 46.9358C71.5207 53.452 79.6708 53.2179 86.1894 51.6387C86.3006 50.4949 86.5787 49.5172 86.7562 48.4405C84.0711 49.4408 79.4085 50.8371 76.646 49.0994C74.5606 47.7864 74.5485 44.4633 75.2287 41.5744C79.6099 41.4357 84.1636 41.462 88.551 41.5744C88.8291 39.527 89.6256 37.2948 88.9289 35.2726C88.0102 32.6029 84.7194 31.9112 81.3705 32.1683ZM85.2444 39.3167H75.7009C76.0032 37.1327 77.977 34.7321 81.087 34.6138C84.0139 34.5024 86.1094 35.6835 85.2444 39.3167V39.3167ZM65.9696 32.5445C62.5309 31.2586 58.3401 32.7936 56.523 34.2537C56.5296 34.318 56.4797 34.3267 56.4261 34.3315C56.4569 34.3055 56.4907 34.2796 56.523 34.2537C56.5227 34.2483 56.522 34.2429 56.5211 34.2376C56.5516 33.6098 56.7735 33.1723 56.8044 32.5445H53.3084C51.8516 42.1931 50.124 51.5719 48.301 60.856H52.3637C52.9518 57.2404 53.34 53.4257 54.1592 50.0394C55.087 53.601 61.1456 52.9206 63.7023 51.5445C68.9768 48.7046 73.0455 35.1901 65.9696 32.5445V32.5445ZM62.7572 48.4405C60.5835 50.7322 55.2396 50.6979 54.8203 46.8412C54.638 45.1634 55.2657 43.4042 55.5768 41.6683C55.8905 39.9113 56.1168 38.2254 56.4265 36.6831C58.5675 34.0806 64.859 33.7661 65.4974 38.0939C66.051 41.8513 64.5571 46.5425 62.7572 48.4405V48.4405ZM166.785 24.0791C166.437 27.1185 165.972 30.0413 165.368 32.8264C155.402 29.6859 149.291 36.9855 149.401 45.995C149.422 47.7375 149.723 49.4653 150.817 50.6979C152.705 52.8213 158.106 53.33 160.833 51.5441C161.361 51.1986 161.901 50.5697 162.25 50.1337C162.513 49.8053 162.93 48.9452 163.006 49.1929C162.863 50.1472 162.648 51.0317 162.629 52.1084H166.314C167.024 41.9671 169.22 33.3052 170.849 24.0788H166.786V24.0791H166.785ZM157.715 49.9452C154.98 50.0036 153.62 48.3185 153.557 45.5246C153.448 40.6315 155.604 35.1952 159.983 34.7077C162.021 34.4809 163.497 34.9527 164.99 35.4604C163.619 40.9569 164.114 49.8086 157.715 49.9452V49.9452ZM122.661 32.5445C122.461 33.662 122.154 34.6733 121.905 35.7423C124.302 35.1437 131.768 33.3089 132.487 36.4947C132.726 37.5531 132.314 38.6776 132.015 39.5048C125.264 38.8682 119.762 39.9847 118.314 44.7719C117.345 47.9785 118.423 51.134 120.488 52.0149C124.464 53.7109 129.301 51.768 130.975 49.0994C130.802 50.023 130.637 50.9569 130.693 52.1087H134.188C134.226 48.7758 134.713 46.0779 135.228 43.0788C135.666 40.5248 136.492 37.9964 136.362 35.7423C136.061 30.58 127.47 32.4061 122.661 32.5445V32.5445ZM129.275 48.3463C127.181 50.3868 121.304 50.9663 121.905 46.0889C122.404 42.0379 126.835 41.1771 131.636 41.7618C131.28 43.9779 130.87 46.7916 129.275 48.3463V48.3463Z" fill="white"/>
</g>
<defs>
<clipPath id="clip0">
<rect width="186.93" height="80.9845" fill="white"/>
</clipPath>
</defs>
</svg>
