<svg width="16" height="16" viewBox="0 0 16 16" fill="none" xmlns="http://www.w3.org/2000/svg">
<path d="M12.2007 2.35254C12.1422 2.35268 12.0848 2.33714 12.0344 2.30754C10.6475 1.56504 9.44848 1.25004 8.01098 1.25004C6.58067 1.25004 5.22255 1.60254 3.98723 2.30754C3.81255 2.40629 3.59723 2.33754 3.49598 2.15629C3.45079 2.06881 3.44059 1.9674 3.46747 1.87267C3.49434 1.77795 3.55627 1.697 3.64067 1.64629C4.97297 0.890655 6.47932 0.495569 8.01098 0.500037C9.54942 0.500037 10.8932 0.852537 12.3669 1.64004C12.4529 1.68731 12.5169 1.76641 12.5453 1.86035C12.5736 1.9543 12.564 2.0556 12.5185 2.14254C12.4911 2.20426 12.4467 2.25685 12.3903 2.29407C12.334 2.33129 12.2682 2.35158 12.2007 2.35254ZM1.86348 6.29004C1.78843 6.28951 1.71534 6.26594 1.65411 6.22254C1.57444 6.16333 1.52086 6.07551 1.50465 5.97758C1.48845 5.87965 1.51088 5.77925 1.56723 5.69754C2.28255 4.64754 3.19223 3.82254 4.2763 3.24504C6.54442 2.03129 9.44848 2.02254 11.7238 3.23754C12.8075 3.81504 13.7175 4.63254 14.4329 5.67504C14.489 5.75683 14.5113 5.85716 14.4951 5.95502C14.4789 6.05288 14.4255 6.14068 14.346 6.20004C14.3074 6.22886 14.2634 6.24946 14.2165 6.26056C14.1697 6.27167 14.1211 6.27305 14.0737 6.26461C14.0263 6.25618 13.9811 6.23811 13.941 6.21152C13.9009 6.18493 13.8666 6.15039 13.8404 6.11004C13.1904 5.16504 12.3669 4.42254 11.3916 3.90504C9.31848 2.80254 6.66723 2.80254 4.6013 3.91254C3.6188 4.43754 2.79536 5.18754 2.14536 6.13129C2.11733 6.18095 2.07625 6.22199 2.02656 6.24998C1.97688 6.27796 1.92048 6.29181 1.86348 6.29004ZM6.37817 15.3438C6.33043 15.3442 6.28315 15.3344 6.23953 15.315C6.19591 15.2956 6.15698 15.2671 6.12536 15.2313C5.49692 14.5775 5.1563 14.1563 4.67348 13.25C4.17348 12.3275 3.91505 11.2025 3.91505 9.99504C3.91505 7.76754 5.74973 5.95254 8.0038 5.95254C10.2579 5.95254 12.0938 7.76754 12.0938 9.99504C12.0952 10.0434 12.0869 10.0915 12.0694 10.1365C12.0519 10.1816 12.0255 10.2226 11.9919 10.2573C11.9582 10.292 11.9179 10.3196 11.8734 10.3384C11.8289 10.3572 11.781 10.3669 11.7327 10.3669C11.6844 10.3669 11.6365 10.3572 11.592 10.3384C11.5475 10.3196 11.5072 10.292 11.4735 10.2573C11.4399 10.2226 11.4135 10.1816 11.396 10.1365C11.3785 10.0915 11.3702 10.0434 11.3716 9.99504C11.3716 8.18004 9.86161 6.70254 8.00536 6.70254C6.14911 6.70254 4.63755 8.18004 4.63755 9.99504C4.63755 11.075 4.86848 12.0725 5.30911 12.8825C5.77161 13.745 6.09036 14.1125 6.64567 14.6975C6.71153 14.7703 6.74799 14.865 6.74799 14.9632C6.74799 15.0613 6.71153 15.156 6.64567 15.2288C6.57477 15.3003 6.47887 15.3416 6.37817 15.3438ZM11.5579 13.9563C10.6982 13.9563 9.93973 13.7313 9.31848 13.2888C8.7892 12.9178 8.3568 12.4251 8.05769 11.8521C7.75858 11.2791 7.60152 10.6426 7.59973 9.99629C7.59771 9.94758 7.60555 9.89897 7.62279 9.85338C7.64003 9.80778 7.66632 9.76614 7.70006 9.73097C7.73381 9.69579 7.77432 9.6678 7.81916 9.64867C7.864 9.62955 7.91224 9.6197 7.96098 9.6197C8.00973 9.6197 8.05797 9.62955 8.10281 9.64867C8.14765 9.6678 8.18816 9.69579 8.22191 9.73097C8.25565 9.76614 8.28193 9.80778 8.29918 9.85338C8.31642 9.89897 8.32426 9.94758 8.32223 9.99629C8.32345 10.5213 8.45149 11.0382 8.69546 11.5031C8.93944 11.968 9.29212 12.367 9.72348 12.6663C10.2363 13.0263 10.836 13.1975 11.5585 13.1975C11.8101 13.1931 12.061 13.168 12.3085 13.1225C12.5035 13.085 12.6913 13.22 12.7272 13.43C12.7455 13.527 12.7247 13.6272 12.6692 13.7087C12.6137 13.7903 12.5282 13.8465 12.4313 13.865C12.1435 13.9219 11.8512 13.952 11.5579 13.955V13.9563ZM10.1057 15.5C10.0739 15.4987 10.0425 15.4937 10.0119 15.485C8.86317 15.155 8.11192 14.7125 7.32442 13.91C6.31286 12.8675 5.75692 11.48 5.75692 9.99504C5.75692 8.78004 6.7538 7.79004 7.98161 7.79004C9.20942 7.79004 10.2066 8.78004 10.2066 9.99504C10.2066 10.7975 10.8785 11.45 11.7091 11.45C12.5397 11.45 13.2116 10.7975 13.2116 9.99504C13.2116 7.16754 10.8638 4.87254 7.97442 4.87254C5.92286 4.87254 4.04473 6.05754 3.19973 7.89504C2.91848 8.50254 2.77348 9.21504 2.77348 9.99504C2.77348 10.58 2.8238 11.5025 3.25723 12.7025C3.32973 12.8975 3.23567 13.115 3.04786 13.1825C3.00322 13.1995 2.95561 13.2073 2.90789 13.2055C2.86016 13.2036 2.81331 13.1921 2.77014 13.1717C2.72697 13.1512 2.68837 13.1223 2.65667 13.0866C2.62497 13.0508 2.60082 13.0091 2.58567 12.9638C2.23713 12.0128 2.05858 11.0079 2.05817 9.99504C2.05817 9.09504 2.22442 8.27629 2.54942 7.56504C3.51036 5.47129 5.6413 4.11504 7.97442 4.11504C11.2613 4.11504 13.9341 6.74754 13.9341 9.98754C13.9341 11.2025 12.9372 12.1925 11.7091 12.1925C10.481 12.1925 9.48411 11.2025 9.48411 9.98754C9.48442 9.18504 8.81255 8.53129 7.98192 8.53129C7.1513 8.53129 6.47942 9.18379 6.47942 9.98629C6.47942 11.2675 6.9563 12.4688 7.83036 13.3688C8.51786 14.0738 9.17411 14.4625 10.1925 14.7563C10.3875 14.8088 10.496 15.0188 10.4454 15.2138C10.4296 15.2929 10.3874 15.3644 10.3257 15.4164C10.2639 15.4684 10.1864 15.4979 10.1057 15.5Z" fill="#161C25"/>
</svg>
