<svg width="24" height="24" viewBox="0 0 24 24" fill="none" xmlns="http://www.w3.org/2000/svg">
<circle cx="12" cy="12" r="11.5" stroke="#4595EC"/>
<path d="M11.2191 6.5999H12.8011L12.5351 13.3059H11.4711L11.2191 6.5999ZM12.0171 16.4839C11.7557 16.4839 11.5364 16.3999 11.3591 16.2319C11.1817 16.0546 11.0931 15.8399 11.0931 15.5879C11.0931 15.3359 11.1817 15.1259 11.3591 14.9579C11.5364 14.7806 11.7557 14.6919 12.0171 14.6919C12.2784 14.6919 12.4931 14.7806 12.6611 14.9579C12.8291 15.1259 12.9131 15.3359 12.9131 15.5879C12.9131 15.8399 12.8244 16.0546 12.6471 16.2319C12.4791 16.3999 12.2691 16.4839 12.0171 16.4839Z" fill="#4595EC"/>
</svg>
