<svg width="13" height="15" viewBox="0 0 13 15" fill="none" xmlns="http://www.w3.org/2000/svg">
<path fill-rule="evenodd" clip-rule="evenodd" d="M6.0594 11.7391L6.07888 11.7427C6.04549 12.0493 6.16698 12.3421 6.44335 12.623C6.5194 12.699 6.60379 12.7603 6.69746 12.8069H8.06448C8.3718 12.8069 8.62093 13.0527 8.62093 13.356C8.62093 13.6592 8.3718 13.905 8.06448 13.905H2.08819C1.78087 13.905 1.53174 13.6592 1.53174 13.356C1.53174 13.0527 1.78087 12.8069 2.08819 12.8069H3.15472C3.59432 12.7429 3.905 12.6404 4.08678 12.5013C4.23238 12.3897 4.35666 12.2085 4.46146 11.955L6.7021 3.21625C6.72926 2.9399 6.63427 2.66542 6.4415 2.46316C6.32889 2.3417 6.18828 2.2488 6.03158 2.1923H4.72763C4.42031 2.1923 4.17117 1.94649 4.17117 1.64327C4.17117 1.34005 4.42031 1.09424 4.72763 1.09424H10.703C11.0103 1.09424 11.2594 1.34005 11.2594 1.64327C11.2594 1.94649 11.0103 2.1923 10.703 2.1923H9.59472C9.24601 2.24355 8.9919 2.33414 8.83146 2.46316C8.63206 2.62329 8.43916 2.86487 8.25367 3.18605L6.0594 11.7391Z" fill="#333333"/>
<mask id="mask0" mask-type="alpha" maskUnits="userSpaceOnUse" x="1" y="1" width="11" height="13">
<path fill-rule="evenodd" clip-rule="evenodd" d="M6.0594 11.7391L6.07888 11.7427C6.04549 12.0493 6.16698 12.3421 6.44335 12.623C6.5194 12.699 6.60379 12.7603 6.69746 12.8069H8.06448C8.3718 12.8069 8.62093 13.0527 8.62093 13.356C8.62093 13.6592 8.3718 13.905 8.06448 13.905H2.08819C1.78087 13.905 1.53174 13.6592 1.53174 13.356C1.53174 13.0527 1.78087 12.8069 2.08819 12.8069H3.15472C3.59432 12.7429 3.905 12.6404 4.08678 12.5013C4.23238 12.3897 4.35666 12.2085 4.46146 11.955L6.7021 3.21625C6.72926 2.9399 6.63427 2.66542 6.4415 2.46316C6.32889 2.3417 6.18828 2.2488 6.03158 2.1923H4.72763C4.42031 2.1923 4.17117 1.94649 4.17117 1.64327C4.17117 1.34005 4.42031 1.09424 4.72763 1.09424H10.703C11.0103 1.09424 11.2594 1.34005 11.2594 1.64327C11.2594 1.94649 11.0103 2.1923 10.703 2.1923H9.59472C9.24601 2.24355 8.9919 2.33414 8.83146 2.46316C8.63206 2.62329 8.43916 2.86487 8.25367 3.18605L6.0594 11.7391Z" fill="white"/>
</mask>
<g mask="url(#mask0)">
<rect x="-2.83057" y="-1.65088" width="18.5484" height="18.3011" fill="#333333"/>
</g>
</svg>
