<svg width="207" height="129" viewBox="0 0 207 129" fill="none" xmlns="http://www.w3.org/2000/svg">
<path fill-rule="evenodd" clip-rule="evenodd" d="M172.91 1.2965e-06C163.564 2.26423e-06 64.6086 -2.05496e-06 9.3465 1.2965e-06C4.67325 1.57991e-06 0 5.1272 0 10.2544C0 41.0802 1.12903e-06 102.544 0 112.798C-5.40742e-07 123.053 4.67325 128.18 14.0197 128.18C66.1536 128.18 163.564 128.18 172.91 128.18C182.257 128.18 186.93 123.053 186.93 112.798C186.93 102.544 186.93 49.4415 186.93 15.3816C186.93 5.1272 182.257 1.2965e-06 172.91 1.2965e-06Z" fill="#F4F4F4"/>
<path fill-rule="evenodd" clip-rule="evenodd" d="M122.492 66.4049H122.564H122.704H122.845H122.985H123.125H123.265H123.405H123.545H123.686H123.826H123.966H124.106H124.246H124.386H124.527H124.667H124.807H124.947H125.087H125.227H125.368H125.508H125.648H125.788H125.928H126.068H126.209H126.349H126.489H126.629H126.769H126.909H127.05H127.19H127.33H127.47H127.61H127.75H127.891H128.031H128.171H128.311H128.451H128.591H128.732H128.872H129.012H129.152H129.292H129.432H129.573H129.713H129.853H129.993H130.133H130.273H130.414H130.554H130.694H130.834H130.951L130.974 66.4055C131.017 66.4067 131.065 66.4088 131.114 66.4118C131.159 66.4144 131.206 66.4179 131.254 66.4218C131.301 66.4255 131.348 66.4298 131.395 66.4346C131.442 66.4393 131.489 66.4445 131.535 66.4501C131.583 66.4559 131.63 66.4622 131.675 66.4688C131.725 66.4762 131.772 66.4838 131.815 66.4918C131.846 66.4976 131.874 66.5034 131.9 66.5094L131.955 66.5232C132.002 66.5351 132.049 66.5481 132.095 66.5622C132.143 66.5765 132.189 66.5915 132.236 66.6078C132.283 66.6242 132.329 66.6417 132.376 66.6601C132.423 66.6789 132.47 66.6986 132.516 66.7193C132.563 66.7405 132.61 66.7627 132.656 66.7859C132.703 66.8096 132.75 66.8342 132.796 66.86C132.844 66.8862 132.89 66.9137 132.936 66.9422C132.984 66.9714 133.031 67.002 133.077 67.0334C133.124 67.0657 133.171 67.099 133.217 67.1336C133.264 67.1692 133.311 67.2059 133.357 67.2438C133.404 67.2832 133.451 67.3238 133.497 67.3657C133.545 67.4092 133.592 67.4541 133.637 67.5002C133.685 67.5485 133.732 67.5977 133.778 67.6487C133.826 67.7023 133.872 67.7576 133.918 67.8143C133.966 67.8745 134.013 67.9364 134.058 67.9999C134.106 68.0683 134.153 68.1384 134.198 68.2105C134.247 68.2894 134.294 68.3704 134.338 68.4535C134.388 68.5472 134.435 68.6437 134.478 68.7427C134.53 68.8601 134.577 68.981 134.619 69.1054C134.675 69.2726 134.722 69.4458 134.759 69.6247C134.823 69.9347 134.857 70.2612 134.857 70.6021C134.857 70.9447 134.823 71.2726 134.759 71.5836C134.722 71.763 134.675 71.9368 134.619 72.1042C134.577 72.229 134.53 72.35 134.478 72.4678C134.435 72.5668 134.388 72.6634 134.338 72.7573C134.294 72.8405 134.247 72.9215 134.198 73.0004C134.153 73.0725 134.106 73.1428 134.058 73.2111C134.013 73.2746 133.966 73.3364 133.918 73.3966C133.872 73.4532 133.826 73.5085 133.778 73.5621C133.732 73.613 133.685 73.6623 133.637 73.7104C133.592 73.7564 133.545 73.8009 133.497 73.8443C133.451 73.8861 133.405 73.9267 133.357 73.9659C133.311 74.0037 133.264 74.0402 133.217 74.0758C133.171 74.1103 133.124 74.1435 133.077 74.1756C133.031 74.2069 132.984 74.2372 132.936 74.2662C132.89 74.2946 132.844 74.3218 132.796 74.3479C132.75 74.3735 132.703 74.3981 132.656 74.4216C132.61 74.4447 132.563 74.4666 132.516 74.4876C132.47 74.5081 132.423 74.5278 132.376 74.5463C132.329 74.5645 132.283 74.5817 132.236 74.5978C132.189 74.6139 132.143 74.6288 132.095 74.6428C132.049 74.6565 132.002 74.6694 131.955 74.6812L131.9 74.6948C131.874 74.7012 131.846 74.7074 131.815 74.7134C131.772 74.7217 131.725 74.7296 131.675 74.7371C131.63 74.7437 131.583 74.7501 131.535 74.756C131.489 74.7616 131.442 74.7666 131.395 74.7712C131.348 74.7759 131.301 74.7801 131.254 74.7837C131.206 74.7875 131.159 74.7908 131.114 74.7934C131.065 74.7962 131.017 74.7982 130.974 74.7994L130.899 74.8004H130.834H130.694H130.554H130.414H130.273H130.133H129.993H129.853H129.713H129.573H129.432H129.292H129.152H129.012H128.872H128.732H128.591H128.451H128.311H128.171H128.031H127.891H127.75H127.61H127.47H127.33H127.19H127.05H126.909H126.769H126.629H126.489H126.349H126.209H126.068H125.928H125.788H125.648H125.508H125.368H125.227H125.087H124.947H124.807H124.667H124.527H124.386H124.246H124.106H123.966H123.826H123.686H123.545H123.405H123.265H123.125H122.985H122.845H122.704H122.564H122.492V66.4049ZM133.778 56.903C133.834 57.1849 133.865 57.4833 133.865 57.7976C133.865 58.1114 133.834 58.4097 133.778 58.6913C133.742 58.8722 133.695 59.0461 133.638 59.2128C133.596 59.3345 133.549 59.4523 133.498 59.566C133.454 59.6613 133.407 59.7539 133.358 59.8434C133.313 59.9225 133.266 59.9994 133.217 60.074C133.172 60.142 133.126 60.208 133.077 60.272C133.032 60.3316 132.985 60.3894 132.937 60.4455C132.892 60.4982 132.845 60.5493 132.797 60.5988C132.751 60.6459 132.705 60.6916 132.657 60.7358C132.611 60.778 132.564 60.8189 132.517 60.8585C132.471 60.8967 132.424 60.9335 132.376 60.9691C132.33 61.0035 132.284 61.0366 132.236 61.0685C132.19 61.0996 132.143 61.1295 132.096 61.1582C132.05 61.1862 132.003 61.2132 131.956 61.2389C131.91 61.2641 131.863 61.2881 131.816 61.3112C131.769 61.3337 131.723 61.3551 131.676 61.3755C131.629 61.3955 131.582 61.4144 131.535 61.4324C131.489 61.4501 131.442 61.4668 131.395 61.4823C131.349 61.4977 131.302 61.5122 131.255 61.5256C131.209 61.5388 131.162 61.551 131.115 61.5622C131.069 61.5734 131.022 61.5834 130.975 61.5925L130.941 61.5993C130.913 61.6045 130.877 61.6104 130.835 61.6162C130.793 61.6219 130.746 61.6279 130.694 61.6335C130.65 61.6385 130.603 61.6433 130.554 61.6478C130.508 61.652 130.461 61.6557 130.414 61.659C130.367 61.6623 130.32 61.6651 130.274 61.6671C130.225 61.6693 130.178 61.6707 130.134 61.6709L130.112 61.6711H129.994H129.853H129.713H129.573H129.433H129.293H129.153H129.013H128.872H128.732H128.592H128.452H128.312H128.172H128.031H127.891H127.751H127.611H127.471H127.331H127.191H127.05H126.91H126.77H126.63H126.49H126.35H126.209H126.069H125.929H125.789H125.649H125.509H125.368H125.228H125.088H124.948H124.808H124.668H124.527H124.387H124.247H124.107H123.967H123.827H123.686H123.546H123.406H123.266H123.126H122.986H122.846H122.705H122.565H122.492V53.9237H122.565H122.705H122.846H122.986H123.126H123.266H123.406H123.546H123.686H123.827H123.967H124.107H124.247H124.387H124.527H124.668H124.808H124.948H125.088H125.228H125.368H125.509H125.649H125.789H125.929H126.069H126.209H126.35H126.49H126.63H126.77H126.91H127.05H127.191H127.331H127.471H127.611H127.751H127.891H128.031H128.172H128.312H128.452H128.592H128.732H128.872H129.013H129.153H129.293H129.433H129.573H129.713H129.853H129.994H130.134H130.193L130.274 53.9266C130.32 53.9287 130.367 53.9317 130.414 53.935C130.461 53.9383 130.508 53.9422 130.554 53.9462C130.603 53.9506 130.65 53.9554 130.694 53.9601C130.746 53.9656 130.793 53.9711 130.835 53.9763C130.877 53.9816 130.913 53.9867 130.941 53.9909L130.975 53.9977C131.022 54.007 131.069 54.0173 131.115 54.0286C131.162 54.0399 131.209 54.0523 131.255 54.0656C131.302 54.0793 131.349 54.0937 131.395 54.1092C131.442 54.125 131.489 54.1418 131.535 54.1595C131.582 54.1775 131.629 54.1966 131.676 54.2168C131.723 54.2373 131.769 54.2589 131.816 54.2814C131.863 54.3046 131.91 54.3287 131.956 54.3539C132.003 54.3797 132.05 54.4066 132.096 54.4346C132.143 54.4633 132.19 54.4934 132.236 54.5245C132.284 54.5564 132.33 54.5895 132.376 54.624C132.424 54.6595 132.471 54.6967 132.517 54.7349C132.564 54.7745 132.611 54.8153 132.657 54.8576C132.705 54.9019 132.751 54.9476 132.797 54.9947C132.845 55.0442 132.892 55.0953 132.937 55.148C132.985 55.204 133.032 55.2619 133.077 55.3215C133.126 55.3855 133.172 55.4516 133.217 55.5196C133.266 55.5942 133.313 55.671 133.358 55.7503C133.407 55.8398 133.454 55.9323 133.498 56.0277C133.549 56.1413 133.596 56.2594 133.638 56.3811C133.695 56.5478 133.742 56.7219 133.778 56.903C133.742 56.7219 133.778 56.903 133.778 56.903ZM151.16 16.7299H151.218L151.218 96.2977C151.218 96.773 151.198 97.2433 151.16 97.7081C151.128 98.1171 151.081 98.5217 151.02 98.9213C150.979 99.1898 150.933 99.4558 150.88 99.7196C150.837 99.9341 150.79 100.147 150.74 100.358C150.696 100.541 150.649 100.722 150.6 100.901C150.555 101.064 150.509 101.225 150.459 101.386C150.415 101.531 150.368 101.675 150.319 101.818C150.274 101.952 150.227 102.085 150.179 102.217C150.134 102.34 150.087 102.463 150.039 102.586C149.993 102.702 149.946 102.817 149.899 102.931C149.853 103.04 149.806 103.149 149.758 103.256C149.713 103.359 149.666 103.462 149.618 103.564C149.572 103.662 149.526 103.759 149.478 103.855C149.432 103.948 149.385 104.04 149.338 104.131C149.292 104.22 149.245 104.308 149.198 104.396C149.152 104.481 149.105 104.566 149.058 104.65C149.011 104.732 148.965 104.814 148.917 104.895C148.871 104.974 148.824 105.051 148.777 105.129C148.731 105.204 148.684 105.279 148.637 105.353C148.591 105.427 148.544 105.5 148.497 105.572C148.45 105.642 148.404 105.713 148.357 105.782C148.31 105.85 148.263 105.918 148.216 105.985C148.17 106.051 148.123 106.117 148.076 106.182C148.03 106.246 147.983 106.309 147.936 106.373C147.89 106.434 147.843 106.496 147.796 106.557C147.749 106.617 147.703 106.677 147.656 106.737C147.609 106.795 147.562 106.853 147.515 106.91C147.469 106.967 147.422 107.023 147.375 107.079C147.329 107.134 147.282 107.19 147.235 107.244C147.189 107.298 147.142 107.35 147.095 107.403C147.048 107.455 147.002 107.508 146.955 107.56C146.908 107.61 146.861 107.66 146.814 107.71C146.768 107.759 146.721 107.809 146.674 107.858C146.628 107.906 146.581 107.953 146.534 108.001C146.488 108.048 146.441 108.094 146.394 108.141C146.347 108.186 146.301 108.232 146.254 108.277C146.207 108.321 146.16 108.365 146.114 108.409C146.067 108.453 146.02 108.496 145.973 108.539C145.927 108.581 145.88 108.623 145.833 108.665C145.787 108.706 145.74 108.747 145.693 108.788C145.647 108.829 145.6 108.868 145.553 108.907C145.506 108.947 145.46 108.986 145.413 109.025C145.366 109.063 145.319 109.101 145.272 109.138C145.226 109.176 145.179 109.214 145.132 109.251C145.086 109.287 145.039 109.322 144.992 109.358C144.945 109.394 144.899 109.43 144.852 109.465C144.805 109.499 144.759 109.533 144.712 109.567C144.665 109.601 144.618 109.635 144.571 109.668C144.525 109.701 144.478 109.734 144.431 109.766C144.385 109.798 144.338 109.83 144.291 109.862C144.245 109.893 144.198 109.924 144.151 109.955L144.011 110.046C143.964 110.076 143.918 110.105 143.871 110.135C143.824 110.164 143.777 110.192 143.73 110.221C143.684 110.249 143.637 110.278 143.59 110.306C143.544 110.333 143.497 110.36 143.45 110.387C143.403 110.414 143.357 110.441 143.31 110.468C143.263 110.494 143.216 110.519 143.17 110.544C143.123 110.57 143.076 110.595 143.029 110.62C142.983 110.645 142.936 110.669 142.889 110.694L142.749 110.765L142.609 110.835C142.562 110.858 142.515 110.88 142.469 110.902C142.422 110.924 142.375 110.947 142.329 110.969C142.282 110.99 142.235 111.011 142.188 111.032C142.142 111.052 142.095 111.074 142.048 111.094C142.002 111.115 141.955 111.134 141.908 111.153C141.861 111.173 141.815 111.193 141.768 111.212L141.628 111.268C141.581 111.287 141.534 111.305 141.487 111.323C141.441 111.34 141.394 111.359 141.347 111.377C141.301 111.394 141.254 111.41 141.207 111.426L141.067 111.476C141.02 111.492 140.973 111.508 140.927 111.524L140.786 111.569C140.74 111.584 140.693 111.6 140.646 111.614C140.6 111.629 140.553 111.642 140.506 111.656C140.459 111.67 140.413 111.684 140.366 111.697L140.226 111.736L140.085 111.774L139.945 111.81C139.899 111.822 139.852 111.832 139.805 111.844C139.758 111.855 139.712 111.866 139.665 111.877L139.525 111.908L139.385 111.937C139.338 111.947 139.291 111.957 139.244 111.966C139.198 111.975 139.151 111.983 139.104 111.992L138.964 112.017L138.824 112.04L138.684 112.062C138.637 112.069 138.59 112.076 138.543 112.083C138.497 112.09 138.45 112.095 138.403 112.101C138.357 112.107 138.31 112.113 138.263 112.118C138.216 112.124 138.17 112.129 138.123 112.134C138.076 112.139 138.029 112.143 137.983 112.148C137.936 112.152 137.889 112.157 137.842 112.161C137.796 112.165 137.749 112.169 137.702 112.172L137.562 112.182C137.515 112.185 137.469 112.189 137.422 112.191C137.375 112.194 137.328 112.195 137.282 112.197L137.142 112.203L137.001 112.207C136.955 112.208 136.908 112.208 136.861 112.209L136.721 112.211L136.692 112.211H136.581H136.441H136.3H136.16H136.02H135.88H135.74H135.6H135.459H135.319H135.179H135.039H134.899H134.758H134.618H134.478H134.338H134.198H134.057H133.917H133.777H133.637H133.497H133.356H133.216H133.076H132.936H132.796H132.656H132.515H132.375H132.235H132.095H131.955H131.814H131.674H131.534H131.394H131.254H131.114H130.973H130.833H130.693H130.553H130.413H130.272H130.132H129.992H129.852H129.712H129.571H129.431H129.291H129.151H129.011H128.871H128.73H128.59H128.45H128.31H128.17H128.029H127.889H127.749H127.609H127.469H127.328H127.188H127.048H126.908H126.768H126.627H126.487H126.347H126.207H126.067H125.927H125.786H125.646H125.506H125.366H125.226H125.085H124.945H124.805H124.665H124.525H124.385H124.244H124.104H123.964H123.824H123.684H123.543H123.403H123.263H123.123H122.983H122.842H122.702H122.562H122.422H122.282H122.142H122.001H121.861H121.721H121.581H121.441H121.3H121.16H121.02H120.88H120.74H120.599H120.459H120.319H120.179H120.039H119.898H119.758H119.618H119.478H119.338H119.198H119.057H118.917H118.777H118.637H118.497H118.357H118.216H118.076H117.936H117.796H117.656H117.515H117.375H117.235H117.095H116.955H116.814H116.674H116.534H116.394H116.254H116.113H115.973H115.833H115.693H115.39V79.7686H115.693H115.833H115.973H116.113H116.254H116.394H116.534H116.674H116.814H116.955H117.095H117.235H117.375H117.515H117.656H117.796H117.936H118.076H118.216H118.357H118.497H118.637H118.777H118.917H119.057H119.198H119.338H119.478H119.618H119.758H119.898H120.039H120.179H120.319H120.459H120.599H120.74H120.88H121.02H121.16H121.3H121.441H121.581H121.721H121.861H122.001H122.142H122.282H122.422H122.562H122.702H122.842H122.983H123.123H123.263H123.403H123.543H123.684H123.824H123.964H124.104H124.244H124.385H124.525H124.665H124.805H124.945H125.085H125.226H125.366H125.506H125.646H125.786H125.927H126.067H126.207H126.347H126.487H126.627H126.768H126.908H127.048H127.188H127.328H127.469H127.609H127.749H127.889H128.029H128.17H128.31H128.45H128.59H128.73H128.871H129.011H129.151H129.291H129.431H129.571H129.712H129.852H129.992H130.132H130.272H130.413H130.553H130.693H130.833H130.973H131.114H131.254H131.394H131.534H131.674H131.814H131.955H132.095H132.235H132.375H132.515H132.656H132.796H132.936H133.076H133.216H133.356H133.497H133.637H133.777H133.917H134.057H134.198H134.338H134.478H134.618H134.758H134.899H135.039H135.179H135.319H135.459H135.6H135.74H135.88H136.02H136.16H136.3H136.441H136.581H136.721H136.861H137.001H137.142H137.282H137.422H137.562H137.702H137.842H137.917L137.983 79.7679L138.123 79.7667L138.263 79.7635C138.31 79.7622 138.357 79.7614 138.403 79.7597C138.45 79.7579 138.497 79.7555 138.543 79.7532L138.684 79.746L138.824 79.7367L138.964 79.7262L139.104 79.7142L139.244 79.7001C139.291 79.6952 139.338 79.6905 139.385 79.6852C139.431 79.6798 139.478 79.6737 139.525 79.6677L139.665 79.649C139.712 79.6424 139.759 79.636 139.805 79.6289C139.852 79.6218 139.899 79.6139 139.945 79.6063C139.992 79.5985 140.039 79.5909 140.085 79.5826L140.226 79.5567L140.366 79.5291C140.413 79.5196 140.46 79.5103 140.506 79.5002C140.553 79.49 140.6 79.4791 140.646 79.4684L140.786 79.4352C140.833 79.4237 140.88 79.4122 140.927 79.4003C140.974 79.3882 141.02 79.3753 141.067 79.3626C141.114 79.3499 141.16 79.3369 141.207 79.3235C141.254 79.31 141.301 79.2964 141.347 79.2823C141.394 79.2681 141.441 79.2534 141.487 79.2385C141.534 79.2236 141.581 79.2084 141.628 79.1929L141.768 79.1448C141.815 79.1284 141.861 79.1113 141.908 79.0941C141.955 79.0768 142.002 79.0595 142.048 79.0415C142.095 79.0235 142.142 79.0054 142.188 78.9867C142.235 78.9677 142.282 78.9478 142.329 78.9282C142.375 78.9084 142.422 78.8883 142.469 78.8678C142.516 78.847 142.563 78.8264 142.609 78.805C142.656 78.7834 142.703 78.7612 142.749 78.7388C142.796 78.7161 142.843 78.693 142.889 78.6695C142.936 78.6459 142.983 78.6221 143.029 78.5977C143.076 78.5732 143.123 78.5484 143.17 78.523C143.217 78.4972 143.263 78.471 143.31 78.4443C143.357 78.4175 143.404 78.3899 143.45 78.3621C143.497 78.334 143.544 78.3056 143.59 78.2767C143.637 78.2474 143.684 78.2177 143.73 78.1876C143.777 78.157 143.824 78.1262 143.871 78.0948C143.918 78.0626 143.964 78.03 144.011 77.997C144.058 77.9634 144.105 77.9293 144.151 77.8948C144.198 77.8598 144.245 77.8241 144.291 77.7881C144.338 77.7513 144.385 77.7141 144.431 77.6764C144.479 77.638 144.525 77.599 144.571 77.5596C144.619 77.5191 144.666 77.4784 144.712 77.437C144.759 77.3946 144.806 77.3517 144.852 77.3083C144.899 77.2637 144.946 77.2184 144.992 77.1727C145.039 77.1257 145.086 77.078 145.132 77.0299C145.18 76.9802 145.226 76.9299 145.272 76.879C145.32 76.8263 145.367 76.7731 145.413 76.7191C145.46 76.6634 145.507 76.6067 145.553 76.5495C145.6 76.4901 145.647 76.4299 145.693 76.3689C145.741 76.3054 145.787 76.2411 145.833 76.176C145.881 76.1078 145.928 76.0392 145.973 75.9693C146.022 75.8951 146.068 75.8196 146.114 75.7435C146.162 75.6627 146.209 75.581 146.254 75.4983C146.302 75.4093 146.349 75.319 146.394 75.2276C146.443 75.1282 146.49 75.0276 146.534 74.9254C146.584 74.8112 146.63 74.6951 146.674 74.5775C146.725 74.4425 146.772 74.3058 146.814 74.1665C146.867 73.9949 146.914 73.8199 146.955 73.6418C147.014 73.3814 147.061 73.1142 147.095 72.8405C147.136 72.5084 147.157 72.1671 147.157 71.8164C147.157 71.4748 147.136 71.143 147.095 70.8208C147.061 70.5562 147.014 70.2981 146.955 70.047C146.914 69.8757 146.867 69.7078 146.814 69.5431C146.771 69.408 146.725 69.2749 146.674 69.1442C146.63 69.0311 146.584 68.9195 146.534 68.8098C146.49 68.711 146.443 68.6136 146.394 68.5176C146.349 68.4293 146.302 68.342 146.254 68.256C146.209 68.1762 146.162 68.0975 146.114 68.0199C146.068 67.9466 146.021 67.8737 145.973 67.8023C145.928 67.7348 145.881 67.6685 145.833 67.6028C145.787 67.5399 145.741 67.4779 145.693 67.4166C145.647 67.3578 145.601 67.2995 145.553 67.2421C145.507 67.1868 145.46 67.1322 145.413 67.0783C145.367 67.0264 145.32 66.9752 145.272 66.9246C145.226 66.8754 145.18 66.8269 145.132 66.779C145.086 66.7326 145.039 66.6867 144.992 66.6414C144.946 66.5973 144.899 66.5536 144.852 66.5106C144.806 66.4685 144.759 66.427 144.712 66.3861C144.665 66.3461 144.619 66.3065 144.571 66.2675C144.525 66.2293 144.478 66.1918 144.431 66.1545C144.385 66.1181 144.338 66.0821 144.291 66.0465C144.245 66.0118 144.198 65.9773 144.151 65.9433C144.105 65.9099 144.058 65.877 144.011 65.8445C143.964 65.8127 143.918 65.7811 143.871 65.75C143.824 65.7196 143.778 65.6896 143.73 65.6599C143.684 65.6308 143.637 65.602 143.59 65.5736C143.544 65.5456 143.497 65.5181 143.45 65.491C143.404 65.4641 143.357 65.4376 143.31 65.4114C143.263 65.3857 143.217 65.3601 143.17 65.335C143.123 65.3103 143.077 65.2858 143.029 65.2617C142.983 65.238 142.936 65.215 142.889 65.1921C142.843 65.1694 142.796 65.1471 142.749 65.1251C142.703 65.1033 142.656 65.0819 142.609 65.0608C142.562 65.0399 142.516 65.0191 142.469 64.9988C142.422 64.9788 142.375 64.9591 142.329 64.9397C142.282 64.9207 142.235 64.9022 142.188 64.8836C142.142 64.8653 142.095 64.8475 142.048 64.8296C142.002 64.8121 141.955 64.7946 141.908 64.7776C141.861 64.7608 141.815 64.7443 141.768 64.7282C141.721 64.7121 141.674 64.6966 141.628 64.6812L141.487 64.6361C141.441 64.6215 141.394 64.6068 141.347 64.5928C141.301 64.579 141.254 64.5656 141.207 64.5524C141.16 64.5391 141.114 64.5264 141.067 64.5137C141.02 64.5011 140.974 64.4886 140.927 64.4766C140.88 64.4646 140.833 64.4531 140.786 64.4417C140.74 64.4304 140.693 64.4196 140.646 64.4089C140.6 64.3982 140.553 64.3875 140.506 64.3774L140.366 64.348L140.226 64.3207C140.179 64.3118 140.132 64.3028 140.085 64.2946L139.945 64.2704C139.899 64.2626 139.852 64.2554 139.805 64.2482L139.665 64.2272L139.525 64.2079L139.385 64.1906L139.244 64.1744L139.104 64.1601L138.964 64.1473L138.835 64.1363L138.834 63.9522L138.964 63.9302L139.104 63.9049C139.151 63.8961 139.198 63.8873 139.244 63.878L139.385 63.8485C139.432 63.8383 139.478 63.8277 139.525 63.8169L139.665 63.7834C139.712 63.7719 139.759 63.7601 139.805 63.7479C139.852 63.7354 139.899 63.7225 139.945 63.7095C139.992 63.6964 140.039 63.6826 140.085 63.6689C140.132 63.6549 140.179 63.6406 140.226 63.626C140.273 63.6112 140.319 63.5963 140.366 63.5809C140.413 63.5654 140.46 63.5493 140.506 63.533C140.553 63.5165 140.6 63.4994 140.646 63.4822C140.693 63.4648 140.74 63.4468 140.786 63.4288C140.834 63.4104 140.88 63.3918 140.927 63.3728C140.974 63.3534 141.02 63.3338 141.067 63.3138C141.114 63.2936 141.161 63.2728 141.207 63.2518C141.254 63.2304 141.301 63.2088 141.347 63.1866C141.394 63.1641 141.441 63.1412 141.487 63.1179C141.534 63.0943 141.581 63.0702 141.628 63.0457C141.675 63.0209 141.721 62.9956 141.768 62.97C141.815 62.9439 141.862 62.9174 141.908 62.8905C141.955 62.8632 142.002 62.8353 142.048 62.8071C142.095 62.7784 142.142 62.7492 142.188 62.7197C142.235 62.6895 142.282 62.6588 142.329 62.6278C142.376 62.5961 142.422 62.564 142.469 62.5314C142.516 62.4982 142.563 62.4642 142.609 62.4299C142.656 62.3949 142.703 62.3594 142.749 62.3234C142.796 62.2865 142.843 62.2492 142.889 62.2114C142.937 62.1725 142.983 62.1333 143.029 62.0935C143.077 62.0525 143.124 62.0112 143.17 61.9692C143.217 61.9259 143.264 61.882 143.31 61.8377C143.357 61.7918 143.404 61.7453 143.45 61.6983C143.497 61.6498 143.544 61.6007 143.59 61.551C143.638 61.4996 143.685 61.4477 143.73 61.3951C143.778 61.3401 143.825 61.2846 143.871 61.2283C143.918 61.1698 143.965 61.1103 144.011 61.0503C144.059 60.9876 144.105 60.9239 144.151 60.8596C144.199 60.7918 144.246 60.723 144.291 60.6535C144.339 60.5798 144.386 60.5052 144.431 60.4299C144.48 60.3494 144.526 60.2682 144.571 60.1858C144.62 60.0966 144.667 60.0063 144.712 59.915C144.761 59.8146 144.808 59.713 144.852 59.6103C144.902 59.4947 144.948 59.3774 144.992 59.259C145.043 59.121 145.09 58.9811 145.132 58.8394C145.186 58.6613 145.232 58.4803 145.272 58.297C145.337 57.9996 145.384 57.696 145.413 57.3871C145.435 57.1435 145.447 56.8965 145.447 56.6471C145.447 56.3837 145.435 56.127 145.413 55.8766C145.384 55.5565 145.337 55.2474 145.272 54.949C145.232 54.7626 145.186 54.5805 145.132 54.4027C145.09 54.2605 145.043 54.1211 144.992 53.9844C144.948 53.8667 144.902 53.7509 144.852 53.6374C144.807 53.5361 144.761 53.4364 144.712 53.3384C144.667 53.2486 144.62 53.1603 144.571 53.0732C144.526 52.9923 144.48 52.9126 144.431 52.8342C144.386 52.7608 144.339 52.6885 144.291 52.6172C144.246 52.5497 144.199 52.4831 144.151 52.4176C144.105 52.3549 144.059 52.2929 144.011 52.2319C143.965 52.174 143.918 52.1171 143.871 52.0607C143.825 52.0065 143.778 51.953 143.73 51.9002C143.684 51.8493 143.638 51.7991 143.59 51.7496C143.544 51.7016 143.497 51.6541 143.45 51.6075C143.404 51.5623 143.357 51.5176 143.31 51.4736C143.264 51.4308 143.217 51.3886 143.17 51.3469C143.123 51.3064 143.077 51.2663 143.029 51.227C142.983 51.1886 142.937 51.1508 142.889 51.1135C142.843 51.0769 142.796 51.041 142.749 51.0055C142.703 50.9709 142.656 50.9368 142.609 50.903C142.563 50.8699 142.516 50.8373 142.469 50.8052C142.422 50.7738 142.376 50.7429 142.329 50.7123C142.282 50.6823 142.235 50.6527 142.188 50.6236C142.142 50.5949 142.095 50.5667 142.048 50.5389C142.002 50.5116 141.955 50.4848 141.908 50.4582C141.862 50.4321 141.815 50.4064 141.768 50.3811C141.721 50.3561 141.675 50.3313 141.628 50.3072C141.581 50.2834 141.534 50.2599 141.487 50.237C141.441 50.2143 141.394 50.1924 141.347 50.1704C141.301 50.1487 141.254 50.1275 141.207 50.1065C141.161 50.0858 141.114 50.0655 141.067 50.0455C141.02 50.0258 140.974 50.0062 140.927 49.9871C140.88 49.9682 140.834 49.9498 140.786 49.9316C140.74 49.9136 140.693 49.8962 140.646 49.8789C140.6 49.8618 140.553 49.8451 140.506 49.8287C140.46 49.8124 140.413 49.7964 140.366 49.7807C140.319 49.7652 140.273 49.7496 140.226 49.7347C140.179 49.7201 140.132 49.706 140.085 49.692C140.039 49.678 139.992 49.6645 139.945 49.6511L139.805 49.612C139.759 49.5994 139.712 49.5871 139.665 49.5751C139.618 49.5633 139.572 49.5518 139.525 49.5406L139.385 49.5079C139.338 49.4973 139.291 49.4866 139.244 49.4767C139.198 49.4668 139.151 49.4576 139.104 49.4482L138.964 49.4212C138.917 49.4125 138.871 49.4038 138.824 49.3956L138.684 49.3723L138.543 49.3507L138.403 49.3303L138.263 49.3121L138.123 49.2955L137.983 49.2801L137.842 49.2666L137.702 49.2548L137.562 49.2439L137.422 49.2351L137.366 49.2316L137.282 49.2259L137.142 49.2169L137.001 49.2083L136.861 49.2003L136.721 49.1929L136.581 49.1863L136.441 49.1807L136.3 49.176L136.16 49.1726L136.02 49.1705L135.943 49.1703H135.88H135.74H135.6H135.459H135.319H135.179H135.039H134.899H134.758H134.618H134.478H134.338H134.198H134.057H133.917H133.777H133.637H133.497H133.356H133.216H133.076H132.936H132.796H132.656H132.515H132.375H132.235H132.095H131.955H131.814H131.674H131.534H131.394H131.254H131.114H130.973H130.833H130.693H130.553H130.413H130.272H130.132H129.992H129.852H129.712H129.571H129.431H129.291H129.151H129.011H128.871H128.73H128.59H128.45H128.31H128.17H128.029H127.889H127.749H127.609H127.469H127.328H127.188H127.048H126.908H126.768H126.627H126.487H126.347H126.207H126.067H125.927H125.786H125.646H125.506H125.366H125.226H125.085H124.945H124.805H124.665H124.525H124.385H124.244H124.104H123.964H123.824H123.684H123.543H123.403H123.263H123.123H122.983H122.842H122.702H122.562H122.422H122.282H122.142H122.001H121.861H121.721H121.581H121.441H121.3H121.16H121.02H120.88H120.74H120.599H120.459H120.319H120.179H120.039H119.898H119.758H119.618H119.478H119.338H119.198H119.057H118.917H118.777H118.637H118.497H118.357H118.216H118.076H117.936H117.796H117.656H117.515H117.375H117.235H117.095H116.955H116.814H116.674H116.534H116.394H116.254H116.113H115.973H115.833H115.693H115.39V32.6447C115.39 31.533 115.495 30.4481 115.693 29.4006C115.735 29.1763 115.782 28.9539 115.833 28.7333C115.877 28.5445 115.924 28.3571 115.973 28.1711C116.018 28.005 116.064 27.84 116.113 27.6762C116.158 27.5265 116.205 27.3775 116.254 27.2298C116.299 27.0929 116.345 26.9566 116.394 26.8214C116.439 26.6952 116.486 26.5695 116.534 26.4449C116.58 26.3273 116.626 26.2101 116.674 26.0939C116.72 25.9835 116.767 25.8739 116.814 25.7649C116.86 25.6609 116.907 25.5577 116.955 25.455C117 25.3562 117.047 25.2581 117.095 25.1605C117.141 25.0664 117.187 24.973 117.235 24.8801C117.281 24.7899 117.328 24.7006 117.375 24.6116C117.421 24.5253 117.468 24.4393 117.515 24.3542C117.561 24.2715 117.608 24.1896 117.656 24.108C117.701 24.0289 117.749 23.9506 117.796 23.8726C117.842 23.7962 117.889 23.7201 117.936 23.6446C117.982 23.5706 118.029 23.4966 118.076 23.4236C118.122 23.3528 118.169 23.2829 118.216 23.213C118.262 23.1443 118.309 23.076 118.357 23.0082C118.403 22.9413 118.449 22.8742 118.497 22.8083C118.543 22.7441 118.59 22.681 118.637 22.6176C118.683 22.5551 118.73 22.4931 118.777 22.4315C118.823 22.3706 118.87 22.3098 118.917 22.2497C118.963 22.1911 119.01 22.1336 119.057 22.0758C119.104 22.0185 119.15 21.9611 119.198 21.9046C119.244 21.8492 119.291 21.7943 119.338 21.7396C119.384 21.6856 119.431 21.632 119.478 21.5787C119.524 21.5261 119.571 21.4735 119.618 21.4216C119.664 21.3705 119.711 21.3202 119.758 21.27C119.805 21.2199 119.851 21.1694 119.898 21.1201C119.945 21.0719 119.992 21.0248 120.039 20.9772C120.085 20.9298 120.132 20.8823 120.179 20.8356C120.225 20.7896 120.272 20.7446 120.319 20.6994C120.366 20.6544 120.412 20.6095 120.459 20.5652C120.506 20.5215 120.553 20.4785 120.599 20.4355C120.646 20.3928 120.693 20.3503 120.74 20.3083C120.786 20.2667 120.833 20.2255 120.88 20.1847L121.02 20.0639L121.16 19.9462C121.207 19.9077 121.253 19.8693 121.3 19.8314C121.347 19.7939 121.394 19.7564 121.441 19.7194L121.581 19.6103C121.627 19.5745 121.674 19.539 121.721 19.5039L121.861 19.3998L122.001 19.2986C122.048 19.2654 122.095 19.2323 122.142 19.1997L122.282 19.1037C122.328 19.072 122.375 19.0403 122.422 19.0093C122.468 18.9785 122.515 18.9486 122.562 18.9184C122.609 18.8882 122.655 18.8578 122.702 18.8283C122.749 18.7991 122.796 18.771 122.842 18.7423C122.889 18.7137 122.936 18.6845 122.983 18.6565C123.029 18.6289 123.076 18.6022 123.123 18.575C123.17 18.5479 123.216 18.5207 123.263 18.4941C123.309 18.4677 123.356 18.4421 123.403 18.4164C123.45 18.3908 123.497 18.3651 123.543 18.34L123.684 18.2658C123.73 18.2415 123.777 18.2178 123.824 18.194C123.871 18.1703 123.917 18.1463 123.964 18.1231C124.01 18.1002 124.057 18.0783 124.104 18.0559C124.151 18.0335 124.197 18.0107 124.244 17.9888C124.291 17.9672 124.338 17.9465 124.385 17.9254C124.431 17.9044 124.478 17.8831 124.525 17.8626L124.665 17.8022L124.805 17.7437C124.852 17.7244 124.898 17.7048 124.945 17.6861C124.992 17.6675 125.039 17.65 125.085 17.632C125.132 17.6139 125.179 17.5954 125.226 17.5779C125.272 17.5604 125.319 17.544 125.366 17.5271L125.506 17.4773C125.553 17.461 125.599 17.4446 125.646 17.4288C125.693 17.4131 125.74 17.3984 125.786 17.3832C125.833 17.3679 125.88 17.3522 125.927 17.3375C125.973 17.323 126.02 17.3095 126.067 17.2955C126.113 17.2815 126.16 17.2674 126.207 17.2539L126.347 17.2142C126.394 17.2013 126.441 17.1891 126.487 17.1767C126.534 17.1644 126.581 17.1511 126.627 17.1393C126.674 17.1276 126.721 17.1169 126.768 17.1056L126.908 17.0721L127.048 17.0404C127.095 17.0302 127.142 17.0207 127.188 17.011C127.235 17.0012 127.282 16.9907 127.328 16.9814C127.375 16.9721 127.422 16.9643 127.469 16.9556L127.609 16.9301C127.656 16.922 127.702 16.9136 127.749 16.906C127.796 16.8983 127.842 16.8916 127.889 16.8844C127.936 16.8773 127.982 16.8695 128.029 16.8629C128.076 16.8563 128.123 16.8504 128.17 16.8443L128.31 16.8268C128.356 16.8212 128.403 16.8149 128.45 16.8098C128.497 16.8047 128.543 16.8008 128.59 16.7962L128.73 16.7826L128.871 16.771C128.917 16.7673 128.964 16.7644 129.011 16.7612C129.057 16.7582 129.104 16.7542 129.151 16.7515C129.197 16.7489 129.244 16.7473 129.291 16.7452L129.431 16.7394C129.478 16.7378 129.525 16.7356 129.571 16.7345C129.618 16.7333 129.665 16.7332 129.712 16.7324C129.758 16.7317 129.805 16.7308 129.852 16.7305L129.887 16.73H129.992H130.132H130.272H130.413H130.553H130.693H130.833H130.973H131.114H131.254H131.394H131.534H131.674H131.814H131.955H132.095H132.235H132.375H132.515H132.656H132.796H132.936H133.076H133.216H133.356H133.497H133.637H133.777H133.917H134.057H134.198H134.338H134.478H134.618H134.758H134.899H135.039H135.179H135.319H135.459H135.6H135.74H135.88H136.02H136.16H136.3H136.441H136.581H136.721H136.861H137.001H137.142H137.282H137.422H137.562H137.702H137.842H137.983H138.123H138.263H138.403H138.543H138.684H138.824H138.964H139.104H139.244H139.385H139.525H139.665H139.805H139.945H140.085H140.226H140.366H140.506H140.646H140.786H140.927H141.067H141.207H141.347H141.487H141.628H141.768H141.908H142.048H142.188H142.329H142.469H142.609H142.749H142.889H143.029H143.17H143.31H143.45H143.59H143.73H143.871H144.011H144.151H144.291H144.431H144.571H144.712H144.852H144.992H145.132H145.272H145.413H145.553H145.693H145.833H145.973H146.114H146.254H146.394H146.534H146.674H146.814H146.955H147.095H147.235H147.375H147.515H147.656H147.796H147.936H148.076H148.216H148.357H148.497H148.637H148.777H148.917H149.058H149.198H149.338H149.478H149.618H149.758H149.899H150.039H150.179H150.319H150.459H150.6H150.74H150.88H151.02H151.16V16.7299Z" fill="#479951"/>
<path fill-rule="evenodd" clip-rule="evenodd" d="M35.5204 72.1038C35.4201 72.0516 35.3199 71.999 35.2198 71.946V32.6446C35.2198 31.536 35.3234 30.454 35.5204 29.4093C35.5627 29.185 35.6096 28.9627 35.6604 28.742C35.7038 28.5529 35.7507 28.3654 35.8003 28.1792C35.8445 28.0131 35.8912 27.8484 35.9402 27.6847C35.985 27.5349 36.0314 27.3857 36.0802 27.2377C36.1254 27.1009 36.1716 26.9648 36.2201 26.8297C36.2653 26.7034 36.312 26.5775 36.3601 26.4528C36.4055 26.3351 36.4521 26.2183 36.5 26.1022C36.5455 25.9918 36.5922 25.8823 36.6399 25.7734C36.6854 25.6692 36.7323 25.5658 36.7799 25.463C36.8255 25.3642 36.8722 25.2662 36.9198 25.1687C36.9655 25.0746 37.0122 24.9811 37.0596 24.8882C37.1055 24.7982 37.1521 24.7087 37.1997 24.6198C37.2457 24.5335 37.292 24.4475 37.3395 24.3622C37.3856 24.2797 37.4323 24.1978 37.4796 24.1164C37.5253 24.0374 37.5724 23.959 37.6195 23.881C37.6656 23.8046 37.7121 23.7285 37.7593 23.653C37.8058 23.5789 37.8518 23.5049 37.8994 23.4317C37.9452 23.3611 37.9923 23.2913 38.0392 23.2214C38.0855 23.1527 38.1321 23.0844 38.1793 23.0166C38.2256 22.9499 38.2719 22.8826 38.3191 22.8167C38.3652 22.7527 38.4122 22.6897 38.459 22.6264C38.5053 22.5639 38.5519 22.5016 38.599 22.4399C38.6454 22.3792 38.6918 22.3186 38.7389 22.2586C38.7851 22.1999 38.832 22.1422 38.8789 22.0843C38.9253 22.0269 38.9717 21.9696 39.0188 21.9131C39.065 21.8577 39.1119 21.8031 39.1587 21.7485C39.2051 21.6944 39.2517 21.6408 39.2987 21.5874C39.3451 21.5349 39.3916 21.4823 39.4386 21.4304C39.4849 21.3793 39.5318 21.329 39.5786 21.2787C39.6252 21.2287 39.6714 21.1783 39.7185 21.129C39.7647 21.0808 39.8117 21.0337 39.8584 20.9861C39.905 20.9386 39.9513 20.891 39.9984 20.8442C40.0447 20.7984 40.0916 20.7535 40.1383 20.7083C40.1849 20.6633 40.2313 20.6183 40.2783 20.574C40.3247 20.5303 40.3714 20.4874 40.4182 20.4444C40.4646 20.4017 40.5112 20.3591 40.5581 20.3171C40.6045 20.2756 40.6513 20.2345 40.6981 20.1935C40.7446 20.1529 40.7911 20.1126 40.838 20.0727C40.8844 20.0331 40.9312 19.994 40.978 19.955C41.0245 19.9164 41.0711 19.878 41.1179 19.8401L41.2578 19.7283C41.3043 19.6915 41.3509 19.655 41.3978 19.6188C41.4442 19.583 41.4909 19.5476 41.5377 19.5125C41.5842 19.4775 41.6308 19.4427 41.6776 19.4084C41.7241 19.3744 41.7708 19.3409 41.8176 19.3074C41.8641 19.2742 41.9106 19.2407 41.9575 19.208C42.0039 19.1757 42.0507 19.1441 42.0975 19.1123C42.1441 19.0806 42.1905 19.0485 42.2374 19.0174C42.2836 18.9867 42.3306 18.957 42.3773 18.9268C42.424 18.8966 42.4702 18.8659 42.5173 18.8363C42.5635 18.8071 42.6106 18.7792 42.6572 18.7506C42.7039 18.722 42.7503 18.6929 42.7972 18.6648C42.8436 18.637 42.8904 18.6103 42.9371 18.5832C42.9837 18.5561 43.0302 18.5288 43.077 18.5022C43.1235 18.4759 43.1702 18.45 43.217 18.4242L43.3569 18.3481C43.4035 18.323 43.4501 18.2979 43.4969 18.2735C43.5434 18.2491 43.5901 18.2256 43.6368 18.2018C43.6835 18.178 43.7297 18.1537 43.7767 18.1305C43.823 18.1075 43.87 18.0858 43.9167 18.0634C43.9633 18.041 44.0098 18.0182 44.0566 17.9963C44.1031 17.9747 44.1499 17.9538 44.1966 17.9327L44.3365 17.87L44.4764 17.8092L44.6164 17.7509C44.6631 17.7315 44.7093 17.7115 44.7563 17.6927C44.8026 17.6741 44.8497 17.6568 44.8963 17.6387C44.9429 17.6206 44.9894 17.6023 45.0362 17.5847L45.1761 17.5334L45.3161 17.4837C45.3627 17.4674 45.4091 17.4507 45.456 17.4349C45.5023 17.4192 45.5493 17.4043 45.5959 17.3892C45.6426 17.3739 45.689 17.3584 45.7359 17.3436C45.7823 17.329 45.8291 17.3154 45.8758 17.3012L46.0158 17.2596C46.0624 17.2461 46.1088 17.2324 46.1557 17.2194C46.2021 17.2064 46.249 17.1946 46.2956 17.1821C46.3421 17.1696 46.3887 17.1566 46.4356 17.1446C46.482 17.1328 46.5289 17.1217 46.5755 17.1104L46.7155 17.077C46.7621 17.0661 46.8085 17.055 46.8554 17.0447C46.9018 17.0345 46.9487 17.0251 46.9952 17.0153C47.042 17.0055 47.0884 16.9953 47.1353 16.986C47.1818 16.9767 47.2284 16.9683 47.2751 16.9595L47.4152 16.9341C47.4617 16.9259 47.5082 16.9172 47.555 16.9094C47.6015 16.9016 47.6484 16.8951 47.6949 16.8879C47.7415 16.8807 47.7881 16.8731 47.835 16.8664L47.9748 16.8471L48.1149 16.8297C48.1616 16.824 48.2079 16.8173 48.2547 16.8121C48.3012 16.8069 48.348 16.8031 48.3946 16.7984L48.5346 16.7849C48.5812 16.7806 48.6278 16.7764 48.6745 16.7727C48.7211 16.769 48.7678 16.766 48.8145 16.7629C48.8613 16.7597 48.9077 16.756 48.9544 16.7532C49.0009 16.7504 49.0476 16.7485 49.0943 16.7462L49.2343 16.7403C49.2809 16.7385 49.3274 16.7359 49.3742 16.7346C49.4207 16.7333 49.4675 16.7335 49.5141 16.7327C49.5607 16.7319 49.6074 16.731 49.6541 16.7308L49.7163 16.7299H49.794H49.934H50.0739H50.2138H50.3538H50.4937H50.6337H50.7736H50.9135H51.0535H51.1934H51.3334H51.4733H51.6132H51.7532H51.8931H52.0331H52.173H52.3129H52.4529H52.5928H52.7328H52.8727H53.0126H53.1526H53.2925H53.4325H53.5724H53.7123H53.8523H53.9922H54.1322H54.2721H54.412H54.552H54.6919H54.8318H54.9718H55.1117H55.2517H55.3916H55.5315H55.6715H55.8114H55.9514H56.0913H56.2312H56.3712H56.5111H56.6511H56.791H56.9308H57.0709H57.2108H57.3508H57.4907H57.6305H57.7706H57.9104H58.0503H58.1903H58.3302H58.4702H58.6101H58.7501H58.89H59.0299H59.1699H59.3098H59.4497H59.5897H59.7296H59.8696H60.0095H60.1494H60.2894H60.4293H60.5693H60.7092H60.8491H60.9891H61.129H61.269H61.4089H61.5488H61.6888H61.8287H61.9686H62.1086H62.2485H62.3885H62.5284H62.6684H62.8083H62.9482H63.0882H63.2281H63.3681H63.508H63.6479H63.7879H63.9278H64.0677H64.2077H64.3476H64.4876H64.6275H64.7675H64.9074H65.0473H65.1873H65.3272H65.4671H65.6071H65.747H65.887H66.0269H66.1668H66.3068H66.4467H66.5865H66.7266H66.8665H67.0065H67.1463H67.2864H67.4263H67.5661H67.7062H67.846H67.9859H68.1259H68.2658H68.4058H68.5457H68.6856H68.8256H68.9655H69.1055H69.2454H69.3853H69.5253H69.6652H69.8052H69.9451H70.085H70.225H70.3649H70.5048H70.6448H70.7847H70.9247H71.0435V96.2977C71.0435 96.9898 71.0029 97.6717 70.9247 98.3405C70.8871 98.6626 70.8397 98.9812 70.7847 99.297C70.7429 99.5371 70.6964 99.7754 70.6448 100.012C70.6014 100.211 70.5549 100.408 70.5048 100.604C70.4608 100.776 70.4139 100.947 70.3649 101.116C70.3204 101.27 70.2736 101.422 70.225 101.574C70.1801 101.714 70.1335 101.853 70.085 101.992C70.0398 102.121 69.9932 102.249 69.9451 102.377C69.8998 102.497 69.8531 102.616 69.8052 102.735C69.7597 102.847 69.713 102.959 69.6652 103.07C69.6197 103.176 69.573 103.282 69.5253 103.386C69.4796 103.487 69.433 103.587 69.3853 103.686C69.3395 103.782 69.293 103.877 69.2454 103.971C69.1994 104.063 69.1532 104.154 69.1055 104.244C69.0596 104.331 69.0129 104.418 68.9655 104.504C68.9198 104.587 68.8728 104.669 68.8256 104.752C68.7796 104.832 68.7329 104.912 68.6856 104.991C68.6394 105.069 68.5931 105.146 68.5457 105.223C68.4997 105.297 68.4529 105.371 68.4058 105.444C68.3598 105.516 68.313 105.587 68.2658 105.657C68.2196 105.727 68.1731 105.796 68.1259 105.865C68.0798 105.932 68.0331 105.999 67.9859 106.065C67.9398 106.13 67.893 106.194 67.846 106.258C67.7997 106.322 67.7533 106.385 67.7062 106.447C67.66 106.508 67.6131 106.569 67.5661 106.629C67.5199 106.688 67.4733 106.747 67.4263 106.806C67.3798 106.863 67.3335 106.921 67.2864 106.978C67.2402 107.034 67.1932 107.089 67.1463 107.144C67.0999 107.199 67.0536 107.253 67.0065 107.307C66.9602 107.36 66.9134 107.412 66.8665 107.464C66.8201 107.516 66.7736 107.567 66.7266 107.618C66.6802 107.668 66.6336 107.718 66.5865 107.768C66.5403 107.817 66.4935 107.865 66.4467 107.913C66.4002 107.961 66.3538 108.008 66.3068 108.056C66.2605 108.102 66.2136 108.147 66.1668 108.193C66.1202 108.238 66.074 108.284 66.0269 108.329C65.9807 108.372 65.9336 108.415 65.887 108.458C65.8404 108.501 65.794 108.545 65.747 108.588C65.7007 108.629 65.6538 108.67 65.6071 108.711C65.5605 108.752 65.5141 108.794 65.4671 108.834C65.4208 108.874 65.3739 108.912 65.3272 108.951C65.2806 108.99 65.2343 109.03 65.1873 109.068C65.141 109.106 65.094 109.142 65.0473 109.18C65.0007 109.217 64.9544 109.254 64.9074 109.291C64.8611 109.327 64.8142 109.362 64.7675 109.397C64.7208 109.432 64.6745 109.468 64.6275 109.503C64.5812 109.537 64.5343 109.57 64.4876 109.604C64.4409 109.638 64.3946 109.672 64.3476 109.705C64.3013 109.737 64.2543 109.769 64.2077 109.8C64.1611 109.832 64.1147 109.865 64.0677 109.896C64.0213 109.927 63.9744 109.957 63.9278 109.987C63.8812 110.018 63.8348 110.048 63.7879 110.078C63.7414 110.108 63.6947 110.136 63.6479 110.165C63.6014 110.194 63.5548 110.223 63.508 110.251C63.4615 110.279 63.4149 110.307 63.3681 110.334L63.2281 110.415C63.1815 110.442 63.135 110.468 63.0882 110.494C63.0417 110.52 62.995 110.545 62.9482 110.571C62.9016 110.596 62.8552 110.622 62.8083 110.646C62.7619 110.671 62.715 110.694 62.6684 110.718C62.6217 110.742 62.5753 110.766 62.5284 110.79C62.482 110.813 62.4351 110.835 62.3885 110.858L62.2485 110.925L62.1086 110.99C62.0621 111.011 62.0153 111.032 61.9686 111.053C61.922 111.073 61.8755 111.094 61.8287 111.115C61.7823 111.135 61.7355 111.153 61.6888 111.173C61.6421 111.192 61.5957 111.212 61.5488 111.231C61.5023 111.25 61.4556 111.268 61.4089 111.286L61.269 111.34L61.129 111.393C61.0825 111.41 61.0357 111.426 60.9891 111.443C60.9424 111.459 60.8961 111.476 60.8491 111.492C60.8028 111.508 60.7558 111.523 60.7092 111.538L60.5693 111.584L60.4293 111.628C60.3828 111.642 60.3361 111.655 60.2894 111.669C60.2427 111.683 60.1962 111.697 60.1494 111.71C60.1031 111.724 60.056 111.735 60.0095 111.748C59.9629 111.76 59.9163 111.773 59.8696 111.785L59.7296 111.821L59.5897 111.854C59.543 111.865 59.4967 111.877 59.4497 111.888C59.4032 111.898 59.3564 111.907 59.3098 111.917C59.2632 111.927 59.2166 111.937 59.1699 111.946L59.0299 111.974C58.9835 111.983 58.9367 111.991 58.89 111.999C58.8433 112.008 58.7969 112.017 58.7501 112.025C58.7037 112.033 58.6568 112.039 58.6101 112.047L58.4702 112.068C58.4237 112.075 58.3771 112.082 58.3302 112.088C58.2838 112.095 58.2369 112.1 58.1903 112.106C58.1436 112.112 58.0972 112.118 58.0503 112.123C58.0039 112.129 57.9572 112.133 57.9104 112.138L57.7706 112.152C57.7238 112.156 57.6774 112.161 57.6305 112.165C57.5841 112.169 57.5372 112.172 57.4907 112.175L57.3508 112.185L57.2108 112.193C57.1643 112.195 57.1175 112.197 57.0709 112.199C57.0242 112.201 56.9776 112.203 56.9308 112.205C56.8844 112.206 56.8375 112.206 56.791 112.207L56.6511 112.209C56.6078 112.21 56.5647 112.211 56.5213 112.211H56.5111H56.3712H56.2312H56.0913H55.9514H55.8114H55.6715H55.5315H55.3916H55.2517H55.1117H54.9718H54.8318H54.6919H54.552H54.412H54.2721H54.1322H53.9922H53.8523H53.7123H53.5724H53.4325H53.2925H53.1526H53.0126H52.8727H52.7328H52.5928H52.4529H52.3129H52.173H52.0331H51.8931H51.7532H51.6132H51.4733H51.3334H51.1934H51.0535H50.9135H50.7736H50.6337H50.4937H50.3538H50.2138H50.0739H49.934H49.794H49.6541H49.5141H49.3742H49.2343H49.0943H48.9544H48.8145H48.6745H48.5346H48.3946H48.2547H48.1149H47.9748H47.835H47.6949H47.555H47.4152H47.2751H47.1353H46.9952H46.8554H46.7155H46.5755H46.4356H46.2956H46.1557H46.0158H45.8758H45.7359H45.5959H45.456H45.3161H45.1761H45.0362H44.8963H44.7563H44.6164H44.4764H44.3365H44.1966H44.0566H43.9167H43.7767H43.6368H43.4969H43.3569H43.217H43.077H42.9371H42.7972H42.6572H42.5173H42.3773H42.2374H42.0975H41.9575H41.8176H41.6776H41.5377H41.3978H41.2578H41.1179H40.978H40.838H40.6981H40.5581H40.4182H40.2783H40.1383H39.9984H39.8584H39.7185H39.5786H39.4386H39.2987H39.1587H39.0188H38.8789H38.7389H38.599H38.459H38.3191H38.1793H38.0392H37.8994H37.7593H37.6195H37.4796H37.3395H37.1997H37.0596H36.9198H36.7799H36.6399H36.5H36.3601H36.2201H36.0802H35.9402H35.8003H35.6604H35.5204H35.2198V78.6741C35.2198 78.6741 35.3232 78.7053 35.5204 78.7598L35.6604 78.7981L35.8003 78.8356L35.9402 78.8723L36.0802 78.9086L36.2201 78.9443L36.3601 78.9794L36.5 79.014L36.6399 79.0482L36.7799 79.0818L36.9198 79.115L37.0596 79.1477L37.1997 79.18L37.3395 79.212L37.4796 79.2433L37.6195 79.2744L37.7593 79.3051L37.8994 79.3353L38.0392 79.3651L38.1793 79.3948L38.3191 79.424L38.459 79.4526L38.599 79.481L38.7389 79.509L38.8789 79.5366L39.0188 79.564L39.1587 79.5909L39.2987 79.6175L39.4386 79.6436L39.5786 79.6694L39.7185 79.6949L39.8584 79.7201L39.9984 79.7449L40.1383 79.7693L40.2783 79.7935L40.4182 79.8173L40.5581 79.8409L40.6981 79.8639L40.838 79.8867L40.978 79.9091L41.1179 79.9313L41.2578 79.953L41.3978 79.9745L41.5377 79.9956L41.6776 80.0164L41.8176 80.0368L41.9575 80.0569L42.0975 80.0768L42.2374 80.0961L42.3773 80.1153L42.5173 80.1341L42.6572 80.1526L42.7972 80.1706L42.9371 80.1885L43.077 80.2059L43.217 80.2232L43.3569 80.24L43.4969 80.2564L43.6368 80.2727L43.7767 80.2884L43.9167 80.304L44.0566 80.319L44.1966 80.3339L44.3365 80.3486L44.4764 80.3626L44.6164 80.3767L44.7563 80.3899L44.8963 80.4032L45.0362 80.416L45.1761 80.4285L45.3161 80.4409L45.456 80.4525L45.5959 80.4642L45.7359 80.4752L45.8758 80.4861L46.0158 80.4968L46.1557 80.5067L46.2956 80.5166L46.4356 80.5262L46.5755 80.5352L46.7155 80.5442L46.8554 80.5525L46.9952 80.5607L47.1353 80.5685L47.2751 80.5758L47.4152 80.5831L47.555 80.5897L47.6949 80.596L47.835 80.6024L47.9748 80.6078L48.1149 80.6132L48.2547 80.6183L48.3946 80.6228L48.5346 80.6274L48.6745 80.6312L48.8145 80.6346L48.9544 80.6382L49.0943 80.6407L49.2343 80.6433L49.3742 80.6456L49.5141 80.6471L49.6541 80.6488L49.794 80.6499L49.934 80.6504L50.0739 80.6508L50.128 80.651L50.2138 80.6505L50.3538 80.6495L50.4937 80.6486L50.6337 80.6477L50.7736 80.6468L50.9135 80.644L51.0535 80.6412L51.1934 80.6384L51.3334 80.6356L51.4733 80.6318L51.6132 80.627L51.7532 80.6223L51.8931 80.6176L52.0331 80.6125L52.173 80.6057L52.3129 80.599L52.4529 80.5921L52.5928 80.5854L52.7328 80.5768L52.8727 80.568L53.0126 80.5591L53.1526 80.5502L53.2925 80.54L53.4325 80.529L53.5724 80.518L53.7123 80.5069L53.8523 80.4947L53.9922 80.4815L54.1322 80.4682L54.2721 80.4549L54.412 80.4405L54.552 80.4248L54.6919 80.4093L54.8318 80.3936L54.9718 80.3766L55.1117 80.3586L55.2517 80.3405L55.3916 80.3226L55.5315 80.3026L55.6715 80.2821L55.8114 80.2616L55.9514 80.2407C55.9985 80.2334 56.0444 80.2252 56.0913 80.2177L56.2312 80.1947L56.3712 80.1715L56.5111 80.1472C56.5581 80.1389 56.6042 80.1299 56.6511 80.1213L56.791 80.0956C56.8373 80.087 56.8848 80.0787 56.9308 80.0698C56.978 80.0606 57.0239 80.0508 57.0709 80.0414L57.2108 80.0127L57.3508 79.9841L57.4907 79.9541C57.5377 79.9439 57.5838 79.9329 57.6305 79.9225L57.7706 79.8909L57.9104 79.8588C57.9577 79.8478 58.0035 79.8358 58.0503 79.8243L58.1903 79.7897C58.2367 79.778 58.2842 79.767 58.3302 79.7552C58.3775 79.743 58.4234 79.7301 58.4702 79.7178L58.6101 79.68C58.6566 79.6674 58.704 79.6551 58.7501 79.6423C58.7972 79.6292 58.8434 79.6154 58.89 79.6021L59.0299 79.5611C59.0765 79.5473 59.1238 79.5339 59.1699 79.5199C59.217 79.5058 59.2632 79.491 59.3098 79.4765L59.4497 79.4321C59.4963 79.4172 59.5436 79.4027 59.5897 79.3875L59.7296 79.3406L59.8696 79.2924C59.9161 79.2764 59.9635 79.2608 60.0095 79.2443L60.1494 79.1933L60.2894 79.1413C60.3359 79.1239 60.3834 79.1071 60.4293 79.0894C60.4766 79.0712 60.5225 79.0522 60.5693 79.0338L60.7092 78.9779C60.7558 78.9589 60.803 78.9403 60.8491 78.9211C60.8964 78.9015 60.9424 78.8811 60.9891 78.8611C61.0358 78.8412 61.0829 78.8213 61.129 78.8011L61.269 78.7387L61.4089 78.6743C61.4554 78.6527 61.5029 78.6319 61.5488 78.61C61.5962 78.5874 61.642 78.5639 61.6888 78.541L61.8287 78.4721L61.9686 78.4008C62.0157 78.3765 62.0621 78.3517 62.1086 78.327C62.1552 78.3023 62.2026 78.2778 62.2485 78.2528C62.2959 78.2268 62.3418 78.2 62.3885 78.1738C62.4352 78.1476 62.4824 78.1216 62.5284 78.095C62.5757 78.0678 62.6218 78.0399 62.6684 78.0121C62.7153 77.9843 62.7621 77.9563 62.8083 77.928C62.8554 77.8992 62.9019 77.8702 62.9482 77.841C62.9954 77.8114 63.0418 77.7812 63.0882 77.751C63.135 77.7206 63.182 77.6902 63.2281 77.6594C63.2754 77.6277 63.3216 77.5956 63.3681 77.5635C63.4149 77.5313 63.462 77.4991 63.508 77.4664C63.5553 77.4328 63.6014 77.3983 63.6479 77.3642C63.6947 77.3297 63.7419 77.2955 63.7879 77.2607C63.8353 77.2248 63.8813 77.1882 63.9278 77.1518C63.9746 77.1152 64.0218 77.0784 64.0677 77.0412C64.1151 77.0029 64.1613 76.964 64.2077 76.9252C64.2547 76.8859 64.3016 76.8463 64.3476 76.8064C64.3947 76.7656 64.4413 76.7242 64.4876 76.6827C64.5348 76.6403 64.5813 76.5974 64.6275 76.5545C64.6745 76.5107 64.7216 76.4671 64.7675 76.4228C64.815 76.3769 64.861 76.3302 64.9074 76.2837C64.9543 76.2366 65.0015 76.1897 65.0473 76.1419C65.0948 76.0924 65.1412 76.0424 65.1873 75.9922C65.2346 75.9408 65.2812 75.8888 65.3272 75.8368C65.3742 75.7836 65.4214 75.7305 65.4671 75.6766C65.5147 75.6202 65.5608 75.5632 65.6071 75.506C65.6546 75.4473 65.7011 75.3881 65.747 75.3287C65.7943 75.2675 65.8413 75.2061 65.887 75.144C65.9344 75.0794 65.9812 75.0149 66.0269 74.9496C66.0746 74.8812 66.1209 74.8122 66.1668 74.743C66.2145 74.6709 66.261 74.5983 66.3068 74.5253C66.3545 74.4491 66.4011 74.3724 66.4467 74.2951C66.4944 74.2141 66.5411 74.1325 66.5865 74.0503C66.6344 73.9635 66.6812 73.8763 66.7266 73.7882C66.7747 73.6949 66.8213 73.6009 66.8665 73.5062C66.9148 73.4049 66.9614 73.3029 67.0065 73.2002C67.055 73.0897 67.1015 72.9781 67.1463 72.866C67.195 72.744 67.2419 72.6213 67.2864 72.4974C67.3354 72.3608 67.3822 72.2231 67.4263 72.0842C67.4762 71.9266 67.5226 71.7674 67.5661 71.6068C67.617 71.4192 67.6636 71.2296 67.7062 71.0383C67.7589 70.8009 67.8057 70.5608 67.846 70.318C67.906 69.9566 67.9522 69.5894 67.9859 69.2174C68.033 68.6987 68.0559 68.1706 68.0559 67.6343V49.1704H67.9859H67.846H67.7062H67.5661H67.4263H67.2864H67.1463H67.0065H66.8665H66.7266H66.5865H66.4467H66.3068H66.1668H66.0269H65.887H65.747H65.6071H65.4671H65.3272H65.1873H65.0473H64.9074H64.7675H64.6275H64.4876H64.3476H64.2077H64.0677H63.9278H63.7879H63.6479H63.508H63.3681H63.2281H63.0882H62.9482H62.8083H62.6684H62.5284H62.3885H62.2485H62.1086H61.9686H61.8287H61.6888H61.5488H61.4089H61.269H61.129H60.9891H60.8491H60.7092H60.5693H60.4293H60.2894H60.1494H60.0095H59.8696H59.7296H59.5897H59.4497H59.3098H59.1699H59.0299H58.89H58.7501H58.6101H58.4702H58.3302H58.1903H58.0503H57.9104H57.7706H57.6305H57.4907H57.3508H57.2108H57.0709H56.9308H56.791H56.6511H56.5111H56.3712H56.2312H56.0913H55.9514H55.8114H55.6715H55.5654V67.6343C55.5654 67.9233 55.5539 68.2077 55.5315 68.4866C55.5029 68.8419 55.4561 69.1883 55.3916 69.5251C55.3517 69.7331 55.305 69.9373 55.2517 70.1377C55.2092 70.2974 55.1627 70.4545 55.1117 70.6089C55.0682 70.7404 55.0214 70.8697 54.9718 70.9973C54.9275 71.1111 54.8809 71.2231 54.8318 71.3336C54.787 71.4342 54.7407 71.5336 54.6919 71.6313C54.647 71.7211 54.6001 71.8092 54.552 71.8966C54.5068 71.9787 54.4602 72.0598 54.412 72.1396C54.3667 72.2144 54.32 72.2883 54.2721 72.3611C54.2265 72.4305 54.1802 72.4993 54.1322 72.5669C54.0866 72.6311 54.0398 72.694 53.9922 72.7564C53.9465 72.8161 53.8999 72.8749 53.8523 72.9331C53.8065 72.9891 53.7599 73.0445 53.7123 73.0988C53.6664 73.1513 53.6199 73.2032 53.5724 73.2543C53.5265 73.3035 53.4799 73.3524 53.4325 73.4003C53.3866 73.4466 53.3398 73.4921 53.2925 73.5371C53.2466 73.5808 53.1999 73.624 53.1526 73.6664C53.1066 73.7076 53.0598 73.7482 53.0126 73.7883C52.9666 73.8273 52.9199 73.8657 52.8727 73.9037C52.8266 73.9406 52.78 73.977 52.7328 74.0128C52.6867 74.0478 52.6401 74.0821 52.5928 74.1161C52.5467 74.1492 52.5001 74.1818 52.4529 74.2139C52.4068 74.2452 52.3601 74.276 52.3129 74.3063C52.2668 74.336 52.2201 74.365 52.173 74.3938C52.1269 74.4219 52.0802 74.4493 52.0331 74.4765C51.9869 74.5033 51.9403 74.5293 51.8931 74.5551C51.8469 74.5803 51.8003 74.6051 51.7532 74.6295C51.7069 74.6535 51.6604 74.6773 51.6132 74.7003C51.5668 74.723 51.5204 74.7454 51.4733 74.7672C51.4272 74.7885 51.3804 74.8092 51.3334 74.8297C51.2872 74.8499 51.2404 74.8696 51.1934 74.889C51.1471 74.9081 51.1006 74.9268 51.0535 74.9451C51.0072 74.9632 50.9606 74.9812 50.9135 74.9983C50.8673 75.0153 50.8206 75.0318 50.7736 75.048C50.7274 75.0639 50.6805 75.0792 50.6337 75.0943C50.5874 75.1093 50.5407 75.1241 50.4937 75.1382C50.4472 75.1522 50.4008 75.1664 50.3538 75.1796C50.3075 75.1927 50.2608 75.2053 50.2138 75.2177C50.1676 75.2299 50.1209 75.2416 50.0739 75.2531C50.0276 75.2644 49.981 75.2756 49.934 75.2863C49.8876 75.2969 49.8411 75.3072 49.794 75.317C49.7477 75.3267 49.701 75.3357 49.6541 75.3447C49.6077 75.3536 49.5611 75.3626 49.5141 75.3708L49.3742 75.3943C49.3279 75.4016 49.2812 75.4084 49.2343 75.4151C49.1879 75.4219 49.1414 75.4285 49.0943 75.4345L48.9544 75.4515C48.9081 75.4568 48.8614 75.4613 48.8145 75.4661C48.768 75.4706 48.7215 75.4753 48.6745 75.4793C48.6282 75.4832 48.5815 75.4867 48.5346 75.49C48.4882 75.4933 48.4415 75.4961 48.3946 75.4988C48.348 75.5014 48.3017 75.5041 48.2547 75.5062C48.2084 75.5082 48.1616 75.5093 48.1149 75.5109L47.9748 75.5144C47.9285 75.5153 47.8818 75.5156 47.835 75.516L47.7823 75.5165L47.6949 75.5161L47.555 75.5151L47.4152 75.5129L47.2751 75.5097L47.1353 75.5056L46.9952 75.5007L46.8554 75.4944L46.7155 75.4873L46.5755 75.4795L46.4356 75.4704L46.2956 75.4605L46.1557 75.4496L46.0158 75.4377L45.8758 75.4248L45.7359 75.4111L45.5959 75.3964L45.456 75.3806L45.3161 75.3641L45.1761 75.3466L45.0362 75.3281L44.8963 75.3086L44.7563 75.2885L44.6164 75.2671L44.4764 75.2448L44.3365 75.2219L44.1966 75.198L44.0566 75.173L43.9167 75.1473L43.7767 75.1207L43.6368 75.0929L43.4969 75.0645L43.3569 75.0353L43.217 75.0051L43.077 74.9739L42.9371 74.9419L42.7972 74.9092L42.6572 74.8755L42.5173 74.8409L42.3773 74.8056L42.2374 74.7693L42.0975 74.7321L41.9575 74.6942L41.8176 74.6556L41.6776 74.6157L41.5377 74.5752L41.3978 74.5341L41.2578 74.4919L41.1179 74.449L40.978 74.4052L40.838 74.3608L40.6981 74.3152L40.5581 74.269L40.4182 74.2222L40.2783 74.1743L40.1383 74.1257L39.9984 74.0764L39.8584 74.0264L39.7185 73.9753L39.5786 73.9236L39.4386 73.8711L39.2987 73.818L39.1587 73.7637L39.0188 73.709L38.8789 73.6537L38.7389 73.5972L38.599 73.5402L38.459 73.4824L38.3191 73.424L38.1793 73.3646L38.0392 73.3047L37.8994 73.244L37.7593 73.1825L37.6195 73.1203L37.4796 73.0575L37.3395 72.9939L37.1997 72.9295L37.0596 72.8645L36.9198 72.7988L36.7799 72.7324L36.6399 72.6651L36.5 72.5974L36.3601 72.529L36.2201 72.4599L36.0802 72.39L35.9402 72.3195L35.8003 72.2483L35.6604 72.1764L35.5204 72.1039V72.1038Z" fill="#265797"/>
<path fill-rule="evenodd" clip-rule="evenodd" d="M76.1868 53.2048C76.0848 53.2952 75.9844 53.3863 75.8864 53.4786V32.6446C75.8864 31.5367 75.9901 30.4552 76.1868 29.411C76.2291 29.1868 76.2759 28.9646 76.3267 28.744C76.3703 28.5547 76.4171 28.3669 76.4667 28.1804C76.511 28.0143 76.5577 27.8493 76.6067 27.6855C76.6515 27.5358 76.6979 27.3868 76.7466 27.2391C76.7917 27.1023 76.8382 26.9661 76.8866 26.831C76.9319 26.7047 76.9784 26.5791 77.0265 26.4543C77.0719 26.3367 77.1185 26.2198 77.1664 26.1036C77.2118 25.9932 77.2588 25.8836 77.3064 25.7746C77.352 25.6705 77.3988 25.5674 77.4463 25.4645C77.492 25.3657 77.5388 25.2677 77.5863 25.1701C77.6321 25.076 77.6788 24.9825 77.7262 24.8896C77.7721 24.7996 77.8187 24.71 77.8662 24.6211C77.9122 24.5348 77.9586 24.4489 78.0061 24.3636C78.052 24.2812 78.0987 24.1994 78.146 24.118C78.192 24.0388 78.2388 23.9605 78.286 23.8824C78.3321 23.8059 78.3786 23.7299 78.4259 23.6544C78.4723 23.5803 78.5185 23.5062 78.5659 23.4331C78.6118 23.3623 78.6589 23.2927 78.7058 23.2229C78.7521 23.1542 78.7986 23.0858 78.8458 23.018C78.8922 22.9511 78.9384 22.8842 78.9857 22.8182C79.0316 22.7542 79.0789 22.6911 79.1257 22.6278C79.172 22.5653 79.2186 22.503 79.2656 22.4414C79.312 22.3806 79.3584 22.32 79.4056 22.26C79.4517 22.2014 79.4987 22.1436 79.5455 22.0858C79.5919 22.0286 79.6383 21.971 79.6855 21.9144C79.7316 21.859 79.7785 21.8042 79.8253 21.7496C79.8715 21.6957 79.9182 21.6421 79.9652 21.5887C80.0117 21.5361 80.0581 21.4836 80.1052 21.4316C80.1514 21.3807 80.1983 21.3304 80.2451 21.2801C80.2917 21.2301 80.3379 21.1797 80.3851 21.1303C80.4312 21.0821 80.4783 21.0349 80.525 20.9873C80.5715 20.9399 80.6178 20.8922 80.665 20.8455C80.7112 20.7997 80.7582 20.7546 80.8049 20.7094C80.8514 20.6644 80.8978 20.6194 80.9449 20.5751C80.9913 20.5315 81.038 20.4886 81.0848 20.4455C81.1313 20.4029 81.1779 20.3602 81.2248 20.3181C81.2712 20.2766 81.3179 20.2355 81.3647 20.1946C81.4112 20.154 81.4578 20.1136 81.5047 20.0737C81.5511 20.0342 81.5978 19.9951 81.6446 19.9562C81.6911 19.9176 81.7377 19.8791 81.7845 19.8412C81.8308 19.8035 81.8777 19.7664 81.9245 19.7293C81.971 19.6926 82.0176 19.656 82.0644 19.6198C82.1109 19.5841 82.1576 19.5488 82.2044 19.5135C82.2509 19.4785 82.2975 19.4436 82.3443 19.4093C82.3906 19.3753 82.4375 19.3418 82.4843 19.3083C82.5308 19.275 82.5772 19.2416 82.6242 19.2089C82.6707 19.1766 82.7174 19.145 82.7642 19.1132C82.8108 19.0815 82.8571 19.0494 82.9041 19.0183C82.9504 18.9875 82.9974 18.9577 83.0441 18.9275C83.0908 18.8974 83.137 18.8666 83.184 18.837C83.2302 18.8079 83.2774 18.7799 83.324 18.7512C83.3707 18.7226 83.4169 18.6937 83.4639 18.6657C83.5102 18.6379 83.5571 18.6112 83.6038 18.584C83.6504 18.5568 83.6968 18.5296 83.7438 18.503L83.8837 18.4249L84.0237 18.3487C84.0702 18.3237 84.1168 18.2985 84.1636 18.2741C84.2101 18.2498 84.2569 18.2262 84.3036 18.2024C84.3503 18.1787 84.3965 18.1543 84.4435 18.1311C84.4898 18.1081 84.5368 18.0864 84.5835 18.064C84.6301 18.0416 84.6766 18.0188 84.7234 17.997C84.7699 17.9753 84.8166 17.9543 84.8633 17.9332L85.0033 17.8705C85.0499 17.85 85.0963 17.8295 85.1432 17.8096C85.1896 17.7897 85.2365 17.7706 85.2832 17.7513C85.3299 17.7319 85.3761 17.7119 85.4231 17.6931C85.4694 17.6745 85.5165 17.6572 85.5631 17.6391C85.6097 17.621 85.6561 17.6027 85.703 17.5851C85.7495 17.5676 85.7963 17.5507 85.843 17.5338L85.9829 17.484C86.0295 17.4677 86.0761 17.4511 86.1229 17.4352C86.1692 17.4195 86.2162 17.4047 86.2628 17.3896C86.3094 17.3743 86.356 17.3586 86.4028 17.3439C86.4493 17.3292 86.496 17.3156 86.5427 17.3015L86.6826 17.2599C86.7293 17.2464 86.7758 17.2326 86.8226 17.2196C86.8691 17.2068 86.9159 17.1947 86.9625 17.1822C87.0091 17.1697 87.0556 17.1567 87.1025 17.1448C87.1489 17.1329 87.1958 17.1219 87.2424 17.1105L87.3824 17.0772C87.4291 17.0664 87.4754 17.0552 87.5223 17.0448C87.5687 17.0345 87.6156 17.0252 87.6623 17.0154C87.7089 17.0056 87.7553 16.9953 87.8022 16.986L87.9422 16.9595L88.0821 16.9342C88.1288 16.9259 88.1753 16.9172 88.2221 16.9094C88.2686 16.9016 88.3154 16.8951 88.362 16.8879C88.4086 16.8807 88.4552 16.8732 88.5019 16.8665L88.6419 16.8473L88.7818 16.8297C88.8285 16.824 88.8749 16.8173 88.9218 16.8121C88.9682 16.8069 89.0151 16.8031 89.0617 16.7984L89.2017 16.7849C89.2483 16.7806 89.2949 16.7764 89.3416 16.7727C89.3882 16.769 89.4349 16.766 89.4815 16.7629C89.5282 16.7597 89.5746 16.756 89.6215 16.7532C89.6681 16.7504 89.7148 16.7485 89.7615 16.7462L89.9014 16.7403C89.9481 16.7385 89.9945 16.7359 90.0414 16.7346C90.0878 16.7333 90.1347 16.7335 90.1813 16.7327C90.228 16.7319 90.2746 16.731 90.3213 16.7308L90.383 16.7299H90.4612H90.6012H90.7411H90.881H91.021H91.1609H91.3009H91.4408H91.5808H91.7207H91.8607H92.0006H92.1405H92.2805H92.4204H92.5604H92.7003H92.8403H92.9802H93.12H93.2601H93.4H93.54H93.6798H93.8199H93.9599H94.0998H94.2398H94.3797H94.5195H94.6596H94.7994H94.9395H95.0794H95.2194H95.3593H95.4991H95.6392H95.779H95.9191H96.0589H96.199H96.3388H96.4789H96.6187H96.7586H96.8986H97.0385H97.1786H97.3184H97.4584H97.5983H97.7383H97.8782H98.0181H98.1581H98.2981H98.438H98.578H98.7179H98.858H98.9978H99.1377H99.2777H99.4176H99.5576H99.6975H99.8375H99.9774H100.117H100.257H100.397H100.537H100.677H100.817H100.957H101.097H101.237H101.377H101.517H101.657H101.797H101.937H102.077H102.217H102.357H102.496H102.636H102.776H102.916H103.056H103.196H103.336H103.476H103.616H103.756H103.896H104.036H104.176H104.316H104.456H104.596H104.736H104.876H105.016H105.155H105.295H105.435H105.575H105.715H105.855H105.995H106.135H106.275H106.415H106.555H106.695H106.835H106.975H107.115H107.255H107.395H107.535H107.674H107.814H107.954H108.094H108.234H108.374H108.514H108.654H108.794H108.934H109.074H109.214H109.354H109.494H109.634H109.774H109.913H110.054H110.193H110.333H110.473H110.613H110.753H110.893H111.033H111.173H111.313H111.453H111.593H111.712V96.2977C111.712 96.9896 111.671 97.6709 111.593 98.3395C111.555 98.6615 111.508 98.98 111.453 99.2956C111.411 99.5358 111.365 99.7742 111.313 100.011C111.27 100.209 111.223 100.407 111.173 100.603C111.129 100.775 111.082 100.946 111.033 101.116C110.989 101.269 110.942 101.421 110.893 101.573C110.848 101.713 110.802 101.852 110.753 101.991C110.708 102.12 110.662 102.248 110.613 102.376C110.568 102.496 110.521 102.615 110.473 102.734C110.428 102.846 110.381 102.958 110.333 103.069C110.288 103.175 110.241 103.281 110.193 103.386C110.148 103.486 110.101 103.586 110.054 103.685C110.008 103.781 109.961 103.876 109.913 103.971C109.867 104.062 109.821 104.153 109.774 104.244C109.728 104.33 109.681 104.417 109.634 104.503C109.588 104.586 109.541 104.669 109.494 104.751C109.448 104.831 109.401 104.911 109.354 104.99C109.308 105.068 109.261 105.145 109.214 105.222C109.168 105.296 109.121 105.37 109.074 105.443C109.028 105.515 108.981 105.586 108.934 105.657C108.888 105.726 108.841 105.796 108.794 105.864C108.748 105.932 108.701 105.998 108.654 106.064C108.608 106.129 108.561 106.194 108.514 106.258C108.468 106.321 108.422 106.384 108.374 106.447C108.328 106.507 108.281 106.568 108.234 106.628C108.188 106.687 108.141 106.746 108.094 106.805C108.048 106.862 108.001 106.92 107.954 106.978C107.908 107.033 107.861 107.088 107.814 107.143C107.768 107.198 107.722 107.253 107.674 107.307C107.628 107.359 107.581 107.411 107.535 107.463C107.488 107.515 107.442 107.566 107.395 107.617C107.348 107.667 107.302 107.717 107.255 107.767C107.208 107.816 107.162 107.864 107.115 107.912C107.068 107.96 107.022 108.008 106.975 108.055C106.928 108.101 106.882 108.146 106.835 108.192C106.788 108.237 106.742 108.283 106.695 108.328C106.649 108.372 106.602 108.415 106.555 108.458C106.508 108.501 106.462 108.544 106.415 108.587C106.369 108.629 106.322 108.669 106.275 108.71C106.228 108.751 106.182 108.793 106.135 108.833C106.089 108.873 106.042 108.912 105.995 108.951C105.949 108.99 105.902 109.029 105.855 109.067C105.809 109.105 105.762 109.142 105.715 109.179C105.669 109.216 105.622 109.254 105.575 109.29C105.529 109.326 105.482 109.361 105.435 109.396C105.389 109.432 105.342 109.468 105.295 109.502C105.249 109.536 105.202 109.57 105.155 109.603C105.109 109.637 105.063 109.671 105.016 109.704C104.969 109.737 104.922 109.768 104.876 109.8C104.829 109.832 104.783 109.864 104.736 109.896C104.689 109.927 104.642 109.956 104.596 109.987C104.549 110.017 104.503 110.048 104.456 110.077C104.409 110.107 104.363 110.136 104.316 110.165L104.176 110.25L104.036 110.334L103.896 110.414C103.849 110.441 103.803 110.468 103.756 110.494C103.71 110.52 103.663 110.545 103.616 110.57C103.569 110.595 103.523 110.621 103.476 110.646C103.43 110.67 103.383 110.694 103.336 110.718C103.29 110.742 103.243 110.766 103.196 110.789C103.15 110.812 103.103 110.835 103.056 110.857L102.916 110.924L102.776 110.989L102.636 111.052C102.59 111.073 102.543 111.094 102.496 111.114C102.45 111.134 102.403 111.153 102.357 111.172C102.31 111.192 102.263 111.212 102.217 111.231C102.17 111.25 102.123 111.268 102.077 111.286L101.937 111.34L101.797 111.392C101.75 111.409 101.703 111.426 101.657 111.442C101.61 111.459 101.564 111.476 101.517 111.492C101.47 111.508 101.424 111.523 101.377 111.538L101.237 111.584L101.097 111.627C101.05 111.641 101.004 111.655 100.957 111.669C100.91 111.682 100.864 111.697 100.817 111.71C100.771 111.723 100.724 111.735 100.677 111.748C100.631 111.76 100.584 111.773 100.537 111.785L100.397 111.82L100.257 111.854C100.211 111.865 100.164 111.877 100.117 111.887C100.071 111.898 100.024 111.907 99.9774 111.917L99.8375 111.946L99.6975 111.974C99.6511 111.982 99.6044 111.991 99.5576 111.999C99.5109 112.007 99.4645 112.016 99.4176 112.024C99.3712 112.032 99.3243 112.039 99.2777 112.046L99.1377 112.068C99.0911 112.075 99.0445 112.082 98.9978 112.088C98.9514 112.095 98.9045 112.1 98.858 112.106C98.8112 112.112 98.7648 112.118 98.7179 112.123C98.6715 112.129 98.6248 112.133 98.578 112.138L98.438 112.152C98.3913 112.156 98.345 112.161 98.2981 112.165C98.2517 112.169 98.2048 112.172 98.1581 112.175L98.0181 112.185L97.8782 112.193C97.8318 112.195 97.7849 112.197 97.7383 112.199C97.6916 112.2 97.645 112.203 97.5983 112.204C97.5519 112.206 97.5052 112.206 97.4584 112.207L97.3184 112.209C97.2749 112.21 97.2315 112.211 97.1878 112.211H97.1786H97.0385H96.8986H96.7586H96.6187H96.4789H96.3388H96.199H96.0589H95.9191H95.779H95.6392H95.4991H95.3593H95.2194H95.0794H94.9395H94.7994H94.6596H94.5195H94.3797H94.2398H94.0998H93.9599H93.8199H93.6798H93.54H93.4H93.2601H93.12H92.9802H92.8403H92.7003H92.5604H92.4204H92.2805H92.1405H92.0006H91.8607H91.7207H91.5808H91.4408H91.3009H91.1609H91.021H90.881H90.7411H90.6012H90.4612H90.3213H90.1813H90.0414H89.9014H89.7615H89.6215H89.4815H89.3416H89.2017H89.0617H88.9218H88.7818H88.6419H88.5019H88.362H88.2221H88.0821H87.9422H87.8022H87.6623H87.5223H87.3824H87.2424H87.1025H86.9625H86.8226H86.6826H86.5427H86.4028H86.2628H86.1229H85.9829H85.843H85.703H85.5631H85.4231H85.2832H85.1432H85.0033H84.8633H84.7234H84.5835H84.4435H84.3036H84.1636H84.0237H83.8837H83.7438H83.6038H83.4639H83.324H83.184H83.0441H82.9041H82.7642H82.6242H82.4843H82.3443H82.2044H82.0644H81.9245H81.7845H81.6446H81.5047H81.3647H81.2248H81.0848H80.9449H80.8049H80.665H80.525H80.3851H80.2451H80.1052H79.9652H79.8253H79.6855H79.5455H79.4056H79.2656H79.1257H78.9857H78.8458H78.7058H78.5659H78.4259H78.286H78.146H78.0061H77.8662H77.7262H77.5863H77.4463H77.3064H77.1664H77.0265H76.8866H76.7466H76.6067H76.4667H76.3267H76.1868H75.8864V75.4687C75.9844 75.5609 76.0848 75.6519 76.1868 75.7423C76.2331 75.7833 76.2798 75.824 76.3267 75.8645C76.3731 75.9045 76.4197 75.9443 76.4667 75.9839C76.5132 76.0229 76.5596 76.0618 76.6067 76.1005C76.6529 76.1384 76.6998 76.1756 76.7466 76.2131C76.7929 76.25 76.8397 76.2868 76.8866 76.3233C76.933 76.3593 76.9795 76.3954 77.0265 76.4312L77.1664 76.5362C77.2127 76.5704 77.2595 76.6044 77.3064 76.6383L77.4463 76.7383C77.4927 76.7712 77.5393 76.8039 77.5863 76.8364C77.6324 76.8682 77.6794 76.8998 77.7262 76.9313L77.8662 77.0246C77.9127 77.0552 77.9592 77.0858 78.0061 77.1159C78.0524 77.1457 78.0992 77.175 78.146 77.2044L78.286 77.2916L78.4259 77.3765L78.5659 77.4595C78.6124 77.4868 78.6588 77.5143 78.7058 77.5412C78.7521 77.5679 78.799 77.594 78.8458 77.6202L78.9857 77.6981L79.1257 77.7743L79.2656 77.8484C79.3122 77.8729 79.3586 77.8976 79.4056 77.9218L79.5455 77.9925L79.6855 78.0627L79.8253 78.1305L79.9652 78.1975L80.1052 78.2629L80.2451 78.3268L80.3851 78.3897L80.525 78.4508L80.665 78.5114L80.8049 78.5697C80.8515 78.5891 80.8978 78.6087 80.9449 78.6278L81.0848 78.6837C81.1314 78.7023 81.1777 78.7212 81.2248 78.7396C81.271 78.7576 81.3181 78.7751 81.3647 78.7929L81.5047 78.8464L81.6446 78.8977C81.6912 78.9147 81.7374 78.9322 81.7845 78.949C81.8307 78.9657 81.8778 78.9817 81.9245 78.9981L82.0644 79.0473L82.2044 79.0944L82.3443 79.1413L82.4843 79.1865L82.6242 79.2313L82.7642 79.2749L82.9041 79.3178L83.0441 79.3595L83.184 79.4004L83.324 79.4406L83.4639 79.4796L83.6038 79.5182L83.7438 79.5553L83.8837 79.5925L84.0237 79.6279L84.1636 79.663L84.3036 79.6972L84.4435 79.7306L84.5835 79.7636L84.7234 79.7952L84.8633 79.8269L85.0033 79.8569L85.1432 79.8868L85.2832 79.9159L85.4231 79.9441L85.5631 79.9721L85.703 79.9987L85.843 80.0252L85.9829 80.0508L86.1229 80.0758L86.2628 80.1005L86.4028 80.1238L86.5427 80.1472L86.6826 80.1696L86.8226 80.1913L86.9625 80.213L87.1025 80.2332L87.2424 80.2535L87.3824 80.2731L87.5223 80.2918L87.6623 80.3106L87.8022 80.3282L87.9422 80.3454L88.0821 80.3626L88.2221 80.3784L88.362 80.3941L88.5019 80.4094L88.6419 80.4238L88.7818 80.4382L88.9218 80.4517L89.0617 80.4647L89.2017 80.4777L89.3416 80.4895L89.4815 80.5011L89.6215 80.5128L89.7615 80.5231L89.9014 80.5334L90.0414 80.5436L90.1813 80.5525L90.3213 80.5614L90.4612 80.5702L90.6012 80.5777L90.7411 80.5854L90.881 80.5929L91.021 80.5991L91.1609 80.6055L91.3009 80.6116L91.4408 80.6167L91.5808 80.6218L91.7207 80.6267L91.8607 80.6305L92.0006 80.6344L92.1405 80.6382L92.2805 80.6409L92.4204 80.6434L92.5604 80.6461L92.7003 80.6476L92.8403 80.649L92.9802 80.6504L93.12 80.651L93.2601 80.6513L93.4 80.6516L93.54 80.6512L93.6798 80.6503L93.8199 80.6494L93.9599 80.6481L94.0998 80.6461L94.2398 80.644L94.3797 80.642L94.5195 80.6388L94.6596 80.6358L94.7994 80.6326L94.9395 80.6286L95.0794 80.6244L95.2194 80.6201L95.3593 80.6155L95.4991 80.6102L95.6392 80.605L95.779 80.5996L95.9191 80.5932L96.0589 80.5869L96.199 80.5805L96.2673 80.5773L96.3388 80.5735L96.4789 80.5661L96.6187 80.558L96.7586 80.5496L96.8986 80.5403L97.0385 80.5309L97.1786 80.5206L97.3184 80.5101L97.4584 80.4988L97.5983 80.4873L97.7383 80.4751L97.8782 80.4626L98.0181 80.4495L98.1581 80.436L98.2981 80.4221L98.438 80.4076L98.578 80.393L98.7179 80.3776L98.858 80.3622L98.9978 80.3459L99.1377 80.3295L99.2777 80.3125L99.4176 80.2952L99.5576 80.2775L99.6975 80.2595L99.8375 80.241L99.9774 80.2222L100.117 80.2029L100.257 80.1833L100.397 80.1636L100.537 80.1431L100.677 80.1225L100.817 80.1015L100.957 80.0801L101.097 80.0584L101.237 80.0363L101.377 80.014L101.517 79.9911L101.657 79.9681L101.797 79.9448L101.937 79.9209L102.077 79.8969L102.217 79.8724L102.357 79.8479L102.496 79.8229L102.636 79.7975L102.776 79.7719L102.916 79.7459L103.056 79.7197L103.196 79.6931L103.336 79.6662L103.476 79.639L103.616 79.6115L103.756 79.5837L103.896 79.5557L104.036 79.5273L104.176 79.4986L104.316 79.4695L104.456 79.4403L104.596 79.4107L104.736 79.3808L104.876 79.3506L105.016 79.3202L105.155 79.2894L105.295 79.2583L105.435 79.2269L105.575 79.1951L105.715 79.1631L105.855 79.1309L105.995 79.0981L106.135 79.0652L106.275 79.0319L106.415 78.9982L106.555 78.9643L106.695 78.93L106.835 78.8953L106.975 78.8601L107.115 78.8246L107.255 78.7886L107.395 78.7522L107.535 78.7152L107.674 78.6776V71.946L107.535 72.0218L107.395 72.0976L107.255 72.1726L107.115 72.2469L106.975 72.3207L106.835 72.3937L106.695 72.4657L106.555 72.5373L106.415 72.6079L106.275 72.678L106.135 72.7471L105.995 72.8156L105.855 72.883L105.715 72.9498L105.575 73.0158L105.435 73.081L105.295 73.1454L105.155 73.2091L105.016 73.2717L104.876 73.3336L104.736 73.3947L104.596 73.455L104.456 73.5142L104.316 73.5728L104.176 73.6303L104.036 73.6871L103.896 73.743L103.756 73.7981L103.616 73.8523L103.476 73.9057L103.336 73.958L103.196 74.0096L103.056 74.0604L102.916 74.1101L102.776 74.1592L102.636 74.2073L102.496 74.2544L102.357 74.3007L102.217 74.3463L102.077 74.3908L101.937 74.4346L101.797 74.4773L101.657 74.5193L101.517 74.5604L101.377 74.6006L101.237 74.64L101.097 74.6784L100.957 74.716L100.817 74.7529L100.677 74.7888L100.537 74.8237L100.397 74.8579L100.257 74.8913L100.117 74.9237L99.9774 74.9552L99.8375 74.986L99.6975 75.016L99.5576 75.0449L99.4176 75.0731L99.2777 75.1004L99.1377 75.127L98.9978 75.1525L98.858 75.1773L98.7179 75.2015L98.578 75.2246L98.438 75.2468L98.2981 75.2685L98.1581 75.2891L98.0181 75.3088L97.8782 75.3279L97.7383 75.3463L97.5983 75.3636L97.4584 75.3801L97.3184 75.396L97.1786 75.4108L97.0385 75.4251L96.8986 75.4386L96.7586 75.451L96.6738 75.4584L96.6187 75.4625L96.4789 75.4728L96.3388 75.483L96.199 75.4913L96.0589 75.499L95.9191 75.5062L95.779 75.5111L95.6392 75.5161L95.4991 75.5194L95.3593 75.5217L95.2194 75.5236C95.1724 75.5238 95.1261 75.5232 95.0794 75.5231L94.9395 75.5226L94.7994 75.5203L94.6596 75.517L94.5195 75.513C94.4726 75.5114 94.4263 75.5088 94.3797 75.5068C94.3331 75.5048 94.2861 75.5031 94.2398 75.5006L94.0998 75.492L93.9599 75.4829L93.8199 75.4723L93.6798 75.4601C93.6333 75.4559 93.5863 75.4523 93.54 75.4476C93.493 75.4429 93.4467 75.4373 93.4 75.4322L93.2601 75.4168L93.12 75.399L92.9802 75.3804L92.8403 75.3601L92.7003 75.3384C92.6535 75.3309 92.6067 75.3236 92.5604 75.3156C92.5134 75.3076 92.4669 75.2988 92.4204 75.2903C92.3738 75.2817 92.3267 75.2738 92.2805 75.2648C92.2334 75.2556 92.1872 75.2456 92.1405 75.236C92.0939 75.2265 92.0468 75.2174 92.0006 75.2074C91.9535 75.1972 91.9074 75.186 91.8607 75.1753C91.814 75.1646 91.767 75.1543 91.7207 75.1431C91.6737 75.1318 91.6272 75.1197 91.5808 75.1078L91.4408 75.0718C91.3938 75.0593 91.3473 75.0461 91.3009 75.0331C91.254 75.02 91.2072 75.007 91.1609 74.9934C91.1139 74.9796 91.0674 74.9652 91.021 74.951C90.9741 74.9366 90.9273 74.9222 90.881 74.9072C90.834 74.892 90.7875 74.8764 90.7411 74.8607C90.6942 74.8449 90.6475 74.8292 90.6012 74.8129C90.5542 74.7963 90.5076 74.7792 90.4612 74.7622C90.4145 74.745 90.3675 74.7278 90.3213 74.7101C90.2742 74.6922 90.2279 74.6735 90.1813 74.6549C90.1346 74.6362 90.0876 74.6177 90.0414 74.5985C89.9943 74.5789 89.948 74.5585 89.9014 74.5383C89.8547 74.518 89.8077 74.498 89.7615 74.4773C89.7143 74.456 89.6681 74.4337 89.6215 74.4118C89.5746 74.3898 89.5277 74.3681 89.4815 74.3454C89.4344 74.3224 89.388 74.2984 89.3416 74.2747C89.2947 74.2508 89.2479 74.2269 89.2017 74.2024C89.1547 74.1775 89.108 74.1521 89.0617 74.1266C89.0147 74.1006 88.9681 74.0742 88.9218 74.0476C88.8749 74.0208 88.8279 73.9942 88.7818 73.9665C88.7346 73.9384 88.6883 73.9094 88.6419 73.8805C88.595 73.8513 88.5481 73.8223 88.5019 73.7924C88.4548 73.762 88.4083 73.7309 88.362 73.6998C88.3149 73.6683 88.2684 73.6359 88.2221 73.6036C88.1753 73.5709 88.1281 73.5383 88.0821 73.5048C88.0348 73.4704 87.9887 73.4349 87.9422 73.3996C87.8951 73.364 87.8484 73.3278 87.8022 73.2913C87.7552 73.2543 87.7083 73.2172 87.6623 73.1793C87.615 73.1403 87.5686 73.1005 87.5223 73.0606C87.4752 73.0202 87.4286 72.9794 87.3824 72.938C87.3354 72.8959 87.2884 72.854 87.2424 72.8109C87.1951 72.7666 87.1487 72.7214 87.1025 72.676C87.0552 72.6298 87.0087 72.583 86.9625 72.5356C86.9154 72.4874 86.8686 72.4388 86.8226 72.3895C86.7755 72.3391 86.7285 72.2887 86.6826 72.2371C86.6352 72.1839 86.5888 72.1295 86.5427 72.075C86.4953 72.0192 86.4488 71.9625 86.4028 71.9053C86.3554 71.8465 86.3087 71.7871 86.2628 71.727C86.2155 71.6651 86.1688 71.6026 86.1229 71.5393C86.0755 71.4739 86.0286 71.4077 85.9829 71.3407C85.9355 71.2715 85.8886 71.2016 85.843 71.1307C85.7955 71.057 85.7486 70.9825 85.703 70.907C85.6553 70.8282 85.6087 70.7485 85.5631 70.6679C85.5152 70.5834 85.4686 70.4977 85.4231 70.4113C85.3751 70.3203 85.3286 70.2279 85.2832 70.1345C85.235 70.0356 85.1885 69.9353 85.1432 69.834C85.095 69.726 85.0482 69.6165 85.0033 69.5059C84.9549 69.3869 84.9079 69.2667 84.8633 69.1445C84.814 69.0094 84.768 68.8717 84.7234 68.7327C84.674 68.5785 84.6272 68.4224 84.5835 68.2635C84.5329 68.0793 84.4861 67.8921 84.4435 67.7016C84.3905 67.4647 84.3443 67.2227 84.3036 66.9762C84.2433 66.6109 84.1963 66.2353 84.1636 65.8496C84.1259 65.4042 84.1066 64.9452 84.1066 64.473C84.1066 64.0006 84.1259 63.5414 84.1636 63.0956C84.1963 62.7098 84.2433 62.3341 84.3036 61.9685C84.3443 61.722 84.3905 61.4796 84.4435 61.2426C84.4861 61.0521 84.5329 60.8649 84.5835 60.6805C84.6272 60.5216 84.674 60.3653 84.7234 60.211C84.768 60.072 84.814 59.9343 84.8633 59.7991C84.9079 59.6767 84.9549 59.5565 85.0033 59.4374C85.0482 59.3266 85.095 59.2173 85.1432 59.1093C85.1885 59.0079 85.235 58.9074 85.2832 58.8085C85.3286 58.7152 85.3751 58.6228 85.4231 58.5316C85.4686 58.445 85.5152 58.3594 85.5631 58.2748C85.6087 58.1941 85.6553 58.1144 85.703 58.0356C85.7486 57.9601 85.7955 57.8857 85.843 57.8118C85.8886 57.7409 85.9355 57.671 85.9829 57.6017C86.0286 57.5347 86.0755 57.4686 86.1229 57.4031C86.1688 57.3398 86.2155 57.2773 86.2628 57.2154C86.3087 57.1552 86.3554 57.0957 86.4028 57.0369C86.4488 56.9798 86.4953 56.9229 86.5427 56.867C86.5888 56.8126 86.6352 56.7581 86.6826 56.7049C86.7285 56.6534 86.7755 56.6028 86.8226 56.5524C86.8686 56.5031 86.9154 56.4545 86.9625 56.4063C87.0087 56.359 87.0552 56.3119 87.1025 56.2657C87.1487 56.2205 87.1951 56.1752 87.2424 56.1309C87.2884 56.0879 87.3354 56.0459 87.3824 56.0037C87.4286 55.9624 87.4752 55.9215 87.5223 55.881C87.5686 55.841 87.615 55.8012 87.6623 55.7622C87.7083 55.7243 87.7552 55.6873 87.8022 55.6502C87.8484 55.6135 87.8951 55.5776 87.9422 55.5419C87.9887 55.5066 88.0348 55.4711 88.0821 55.4367C88.1281 55.4031 88.1753 55.3705 88.2221 55.3378C88.2684 55.3053 88.3149 55.2731 88.362 55.2416C88.4083 55.2104 88.4548 55.1794 88.5019 55.149C88.5481 55.1191 88.595 55.0901 88.6419 55.0609C88.6883 55.032 88.7346 55.003 88.7818 54.9749C88.8279 54.9472 88.8749 54.9205 88.9218 54.8936C88.9681 54.867 89.0147 54.8407 89.0617 54.8147C89.108 54.7891 89.1547 54.7638 89.2017 54.7388C89.2479 54.7143 89.2947 54.6903 89.3416 54.6664C89.388 54.6427 89.4344 54.6188 89.4815 54.5957C89.5277 54.5731 89.5746 54.5513 89.6215 54.5293C89.6681 54.5073 89.7143 54.4851 89.7615 54.4639C89.8077 54.443 89.8547 54.423 89.9014 54.4027C89.948 54.3825 89.9943 54.3621 90.0414 54.3425C90.0876 54.3233 90.1346 54.3048 90.1813 54.2861C90.2279 54.2675 90.2742 54.2488 90.3213 54.2308C90.3675 54.2131 90.4145 54.1959 90.4612 54.1787C90.5076 54.1616 90.5542 54.1446 90.6012 54.128C90.6475 54.1117 90.6942 54.0959 90.7411 54.0802C90.7875 54.0645 90.834 54.049 90.881 54.0338L91.021 53.99C91.0674 53.9758 91.1139 53.9613 91.1609 53.9475C91.2072 53.9339 91.254 53.9209 91.3009 53.9078C91.3473 53.8948 91.3938 53.8816 91.4408 53.8691L91.5808 53.8331C91.6272 53.8212 91.6737 53.8091 91.7207 53.7978C91.767 53.7866 91.814 53.7762 91.8607 53.7655C91.9074 53.7548 91.9535 53.7436 92.0006 53.7334C92.0468 53.7233 92.0939 53.7143 92.1405 53.7047C92.1872 53.6952 92.2334 53.6851 92.2805 53.676C92.3267 53.6669 92.3738 53.659 92.4204 53.6505C92.4669 53.642 92.5134 53.6332 92.5604 53.6252L92.7003 53.6024L92.8403 53.5805L92.9802 53.5602L93.12 53.5417L93.2601 53.5238L93.4 53.5084C93.4467 53.5033 93.493 53.4977 93.54 53.493C93.5863 53.4883 93.6333 53.4848 93.6798 53.4806L93.8199 53.4683L93.9599 53.4578L94.0998 53.4486L94.2398 53.4401C94.2861 53.4375 94.3331 53.4359 94.3797 53.4338C94.4263 53.4318 94.4726 53.4293 94.5195 53.4276L94.6596 53.4236L94.7994 53.4203L94.9395 53.418L95.0794 53.4175C95.1261 53.4174 95.1724 53.4168 95.2194 53.417L95.3593 53.4189L95.4991 53.4212L95.6392 53.4245L95.779 53.4295L95.9191 53.4345L96.0589 53.4416L96.199 53.4494L96.3388 53.4576L96.4789 53.4678L96.6187 53.4781L96.6738 53.4822L96.7586 53.4896L96.8986 53.5018L97.0385 53.5151L97.1786 53.5291L97.3184 53.5437L97.4584 53.5594L97.5983 53.5758L97.7383 53.5928L97.8782 53.6108L98.0181 53.6296L98.1581 53.6491L98.2981 53.6695L98.438 53.6909L98.578 53.7128L98.7179 53.7355L98.858 53.7593L98.9978 53.7839L99.1377 53.8091L99.2777 53.8355L99.4176 53.8626L99.5576 53.8905L99.6975 53.9191L99.8375 53.9488L99.9774 53.9792L100.117 54.0105L100.257 54.0427L100.397 54.0758L100.537 54.1098L100.677 54.1444L100.817 54.1801L100.957 54.2168L101.097 54.2542L101.237 54.2924L101.377 54.3316L101.517 54.3717L101.657 54.4125L101.797 54.4544L101.937 54.4972L102.077 54.5407L102.217 54.5853L102.357 54.6307L102.496 54.6771L102.636 54.7242L102.776 54.7722L102.916 54.8212L103.056 54.8711L103.196 54.9219L103.336 54.9736L103.476 55.026L103.616 55.0794L103.756 55.1339L103.896 55.1891L104.036 55.2451L104.176 55.3022L104.316 55.3601L104.456 55.4189L104.596 55.4785L104.736 55.5389L104.876 55.6003L105.016 55.6626L105.155 55.7257L105.295 55.7897L105.435 55.8545L105.575 55.9202L105.715 55.9867L105.855 56.054L105.995 56.122L106.135 56.191L106.275 56.2608L106.415 56.3313L106.555 56.4026L106.695 56.4748L106.835 56.5476L106.975 56.6212L107.115 56.6955L107.255 56.7706L107.395 56.8464L107.535 56.9229L107.674 56.9995V50.2631L107.535 50.2254L107.395 50.1885L107.255 50.152L107.115 50.116L106.975 50.0805L106.835 50.0455L106.695 50.0107L106.555 49.9764L106.415 49.9425L106.275 49.9088L106.135 49.8755L105.995 49.8427L105.855 49.8099L105.715 49.7776L105.575 49.7457L105.435 49.714L105.295 49.6825L105.155 49.6515L105.016 49.6207L104.876 49.5903L104.736 49.5602L104.596 49.5302L104.456 49.5006L104.316 49.4714L104.176 49.4425L104.036 49.4138L103.896 49.3854L103.756 49.3574L103.616 49.3297L103.476 49.3022L103.336 49.275L103.196 49.2482L103.056 49.2216L102.916 49.1955L102.776 49.1695L102.636 49.1439L102.496 49.1186L102.357 49.0936L102.217 49.0691L102.077 49.0446L101.937 49.0207L101.797 48.9969L101.657 48.9736L101.517 48.9505L101.377 48.9278L101.237 48.9055L101.097 48.8835L100.957 48.8618L100.817 48.8406L100.677 48.8196L100.537 48.7989L100.397 48.7786L100.257 48.7588L100.117 48.7392L99.9774 48.72L99.8375 48.7012L99.6975 48.6828L99.5576 48.6649L99.4176 48.6472L99.2777 48.63L99.1377 48.6131L98.9978 48.5968L98.858 48.5806L98.7179 48.5652L98.578 48.5499L98.438 48.5352L98.2981 48.5208L98.1581 48.507L98.0181 48.4935L97.8782 48.4805L97.7383 48.4681L97.5983 48.456L97.4584 48.4446L97.3184 48.4333L97.1786 48.423L97.0385 48.4127L96.8986 48.4034L96.7586 48.3942L96.6187 48.3858L96.4789 48.3778L96.3388 48.3704L96.2673 48.3667L96.199 48.3635L96.0589 48.3572L95.9191 48.3508L95.779 48.3445L95.6392 48.3391L95.4991 48.3339L95.3593 48.3285L95.2194 48.324L95.0794 48.3196L94.9395 48.3154L94.7994 48.3115L94.6596 48.3083L94.5195 48.3052L94.3797 48.3021L94.2398 48.3L94.0998 48.298L93.9599 48.2959L93.8199 48.2947L93.6798 48.2939L93.54 48.293L93.4 48.2926L93.2601 48.2929L93.12 48.2931L92.9802 48.2937L92.8403 48.2951L92.7003 48.2966L92.5604 48.2981L92.4204 48.3008L92.2805 48.3033L92.1405 48.306L92.0006 48.3098L91.8607 48.3136L91.7207 48.3175L91.5808 48.3224L91.4408 48.3275L91.3009 48.3326L91.1609 48.3388L91.021 48.3452L90.881 48.3515L90.7411 48.359L90.6012 48.3666L90.4612 48.3741L90.3213 48.3829L90.1813 48.3918L90.0414 48.4007L89.9014 48.4109L89.7615 48.4212L89.6215 48.4315L89.4815 48.4432L89.3416 48.4548L89.2017 48.4668L89.0617 48.4798L88.9218 48.4926L88.7818 48.5063L88.6419 48.5206L88.5019 48.535L88.362 48.5503L88.2221 48.5662L88.0821 48.582L87.9422 48.5992L87.8022 48.6164L87.6623 48.6339L87.5223 48.6528L87.3824 48.6715L87.2424 48.6912L87.1025 48.7115L86.9625 48.7317L86.8226 48.7534L86.6826 48.7751L86.5427 48.7975L86.4028 48.821L86.2628 48.8442L86.1229 48.8689L85.9829 48.894L85.843 48.9196L85.703 48.9461L85.5631 48.9727L85.4231 49.0007L85.2832 49.0291L85.1432 49.0581L85.0033 49.088L84.8633 49.1181L84.7234 49.1498L84.5835 49.1815L84.4435 49.2143L84.3036 49.2478L84.1636 49.2819L84.0237 49.3172L83.8837 49.3526L83.7438 49.3897L83.6038 49.4269L83.4639 49.4655L83.324 49.5046L83.184 49.5448L83.0441 49.5858L82.9041 49.6276L82.7642 49.6705L82.6242 49.714L82.4843 49.7589L82.3443 49.8041L82.2044 49.8511L82.0644 49.8983L81.9245 49.9475C81.8778 49.9639 81.8307 49.9799 81.7845 49.9966L81.6446 50.0479C81.598 50.065 81.5509 50.0818 81.5047 50.0992L81.3647 50.1527L81.2248 50.2062C81.1777 50.2245 81.1314 50.2435 81.0848 50.262C81.0381 50.2806 80.9911 50.299 80.9449 50.3179L80.8049 50.3761C80.7582 50.3956 80.7112 50.4147 80.665 50.4344L80.525 50.495L80.3851 50.5561L80.2451 50.6191L80.1052 50.683L79.9652 50.7485L79.8253 50.8154L79.6855 50.8834L79.5455 50.9536L79.4056 51.0243C79.3586 51.0485 79.3122 51.0732 79.2656 51.0977L79.1257 51.1719L78.9857 51.2481L78.8458 51.3261C78.799 51.3524 78.7521 51.3785 78.7058 51.4051C78.6588 51.4321 78.6124 51.4596 78.5659 51.487L78.4259 51.57L78.286 51.6549C78.239 51.6838 78.1925 51.7129 78.146 51.7422C78.0992 51.7716 78.0524 51.8009 78.0061 51.8307C77.9592 51.8609 77.9127 51.8914 77.8662 51.922C77.8192 51.9529 77.7726 51.9841 77.7262 52.0154C77.6794 52.047 77.6324 52.0785 77.5863 52.1104C77.5393 52.1428 77.4927 52.1757 77.4463 52.2084L77.3064 52.3086C77.2595 52.3426 77.2127 52.3763 77.1664 52.4107L77.0265 52.5158C76.9795 52.5516 76.933 52.5876 76.8866 52.6237C76.8397 52.6602 76.7929 52.697 76.7466 52.734C76.6998 52.7715 76.6529 52.8088 76.6067 52.8466C76.5596 52.8853 76.5132 52.9242 76.4667 52.9633C76.4197 53.0029 76.3731 53.0428 76.3267 53.0827C76.2798 53.1232 76.2331 53.1639 76.1868 53.2049V53.2048Z" fill="#CA4638"/>
</svg>
