<svg width="17" height="17" viewBox="0 0 17 17" fill="none" xmlns="http://www.w3.org/2000/svg">
<path fill-rule="evenodd" clip-rule="evenodd" d="M9.68423 13.0752L10.6033 11.7795C10.7458 11.5786 10.986 11.468 11.2336 11.4893C11.4812 11.5106 11.6984 11.6606 11.8035 11.8827C11.9086 12.1049 11.8856 12.3656 11.7431 12.5664L10.6784 14.0671C10.6249 14.1427 10.5564 14.2068 10.4772 14.2556C8.81528 15.9706 6.13345 16.232 4.16366 14.8708C2.19388 13.5097 1.52599 10.9337 2.59132 8.80649C2.60987 8.71956 2.64697 8.63355 2.70261 8.55577L3.76636 7.05599C3.90514 6.84617 4.14878 6.72763 4.40198 6.74676C4.65517 6.76589 4.87768 6.91964 4.98246 7.14787C5.08724 7.3761 5.05764 7.64253 4.90523 7.84294L3.98616 9.14049L3.99173 9.14323C3.03133 10.6897 3.4565 12.7065 4.96222 13.7469C6.46795 14.7872 8.5342 14.4918 9.67866 13.0725L9.68423 13.0761V13.0752ZM14.7795 8.19341C14.7599 8.28352 14.722 8.3688 14.6682 8.44413L13.6044 9.9439C13.4657 10.1537 13.222 10.2723 12.9688 10.2531C12.7156 10.234 12.4931 10.0803 12.3883 9.85203C12.2835 9.6238 12.3131 9.35737 12.4656 9.15696L13.2631 8.03144C14.3485 6.47905 13.9607 4.35339 12.3948 3.27185C10.829 2.19031 8.67198 2.55829 7.56507 4.0958L6.76749 5.2204C6.54725 5.53095 6.11355 5.60653 5.7988 5.38922C5.48406 5.17191 5.40745 4.744 5.62769 4.43345L6.69237 2.93276C6.7459 2.8572 6.81435 2.79308 6.89362 2.74426C8.55551 1.02926 11.2373 0.767944 13.2071 2.12907C15.1769 3.4902 15.8448 6.06619 14.7795 8.19341ZM10.5477 5.87649C10.6989 5.98092 10.8018 6.14037 10.8338 6.31972C10.8658 6.49907 10.8243 6.68361 10.7183 6.83272L7.79229 10.955C7.64982 11.1559 7.40954 11.2666 7.16198 11.2453C6.91441 11.224 6.69717 11.074 6.59208 10.8518C6.48699 10.6296 6.51002 10.369 6.65249 10.1681L9.5785 6.04486C9.68434 5.89567 9.84594 5.7941 10.0277 5.76252C10.2095 5.73094 10.3965 5.77194 10.5477 5.87649Z" fill="black"/>
<mask id="mask0" mask-type="alpha" maskUnits="userSpaceOnUse" x="2" y="1" width="14" height="15">
<path fill-rule="evenodd" clip-rule="evenodd" d="M9.68423 13.0752L10.6033 11.7795C10.7458 11.5786 10.986 11.468 11.2336 11.4893C11.4812 11.5106 11.6984 11.6606 11.8035 11.8827C11.9086 12.1049 11.8856 12.3656 11.7431 12.5664L10.6784 14.0671C10.6249 14.1427 10.5564 14.2068 10.4772 14.2556C8.81528 15.9706 6.13345 16.232 4.16366 14.8708C2.19388 13.5097 1.52599 10.9337 2.59132 8.80649C2.60987 8.71956 2.64697 8.63355 2.70261 8.55577L3.76636 7.05599C3.90514 6.84617 4.14878 6.72763 4.40198 6.74676C4.65517 6.76589 4.87768 6.91964 4.98246 7.14787C5.08724 7.3761 5.05764 7.64253 4.90523 7.84294L3.98616 9.14049L3.99173 9.14323C3.03133 10.6897 3.4565 12.7065 4.96222 13.7469C6.46795 14.7872 8.5342 14.4918 9.67866 13.0725L9.68423 13.0761V13.0752ZM14.7795 8.19341C14.7599 8.28352 14.722 8.3688 14.6682 8.44413L13.6044 9.9439C13.4657 10.1537 13.222 10.2723 12.9688 10.2531C12.7156 10.234 12.4931 10.0803 12.3883 9.85203C12.2835 9.6238 12.3131 9.35737 12.4656 9.15696L13.2631 8.03144C14.3485 6.47905 13.9607 4.35339 12.3948 3.27185C10.829 2.19031 8.67198 2.55829 7.56507 4.0958L6.76749 5.2204C6.54725 5.53095 6.11355 5.60653 5.7988 5.38922C5.48406 5.17191 5.40745 4.744 5.62769 4.43345L6.69237 2.93276C6.7459 2.8572 6.81435 2.79308 6.89362 2.74426C8.55551 1.02926 11.2373 0.767944 13.2071 2.12907C15.1769 3.4902 15.8448 6.06619 14.7795 8.19341ZM10.5477 5.87649C10.6989 5.98092 10.8018 6.14037 10.8338 6.31972C10.8658 6.49907 10.8243 6.68361 10.7183 6.83272L7.79229 10.955C7.64982 11.1559 7.40954 11.2666 7.16198 11.2453C6.91441 11.224 6.69717 11.074 6.59208 10.8518C6.48699 10.6296 6.51002 10.369 6.65249 10.1681L9.5785 6.04486C9.68434 5.89567 9.84594 5.7941 10.0277 5.76252C10.2095 5.73094 10.3965 5.77194 10.5477 5.87649Z" fill="white"/>
</mask>
<g mask="url(#mask0)">
<rect x="-0.588867" y="-0.650391" width="18.5484" height="18.3011" fill="#333333"/>
</g>
</svg>
