<svg width="29" height="34" viewBox="0 0 29 34" fill="none" xmlns="http://www.w3.org/2000/svg">
<path fill-rule="evenodd" clip-rule="evenodd" d="M14.4999 22.6214C10.0441 22.6214 6.41895 18.9963 6.41895 14.5405C6.41895 10.0846 10.0441 6.45947 14.4999 6.45947C18.9557 6.45947 22.5809 10.0846 22.5809 14.5405C22.5809 18.9963 18.9557 22.6214 14.4999 22.6214Z" stroke="currentColor" stroke-width="1.62"/>
<path d="M8.52637 27.8311C11.269 30.5939 13.8159 32.1919 14.0461 32.334C14.1815 32.4173 14.3348 32.4591 14.4884 32.4591C14.642 32.4591 14.7956 32.4173 14.931 32.334C15.143 32.203 17.3216 30.8361 19.8079 28.4614L20.9249 27.3431C24.0516 24.0604 27.2718 19.3015 27.4991 13.4863" stroke="currentColor" stroke-width="1.62"/>
<path d="M27.4997 13.4042C26.979 6.77666 21.3593 1.54053 14.5215 1.54053C7.34136 1.54053 1.5 7.31302 1.5 14.4082C1.5 19.7473 4.06861 24.2291 6.88571 27.5402" stroke="currentColor" stroke-width="1.62"/>
</svg>
