<svg width="24" height="24" viewBox="0 0 24 24" fill="none" xmlns="http://www.w3.org/2000/svg">
<path d="M12.0784 5.25977C10.387 5.25977 9.01025 6.63647 9.01025 8.32787C9.01025 10.0193 10.387 11.396 12.0784 11.396C13.7698 11.396 15.1465 10.0193 15.1465 8.32787C15.1465 6.63647 13.7698 5.25977 12.0784 5.25977ZM12.0784 10.5194C10.87 10.5194 9.88685 9.53626 9.88685 8.32787C9.88685 7.11947 10.87 6.13637 12.0784 6.13637C13.2867 6.13637 14.2699 7.11947 14.2699 8.32787C14.2699 9.53626 13.2867 10.5194 12.0784 10.5194Z" fill="black"/>
<path d="M17.944 2.46193C16.3565 0.874409 14.2457 0 12.0007 0C9.75528 0 7.64487 0.874409 6.05734 2.46193C3.11942 5.39942 2.75431 10.9264 5.26665 14.275L12.0007 24L18.7247 14.2886C21.2471 10.9264 20.882 5.39942 17.944 2.46193ZM18.0137 13.7762L12.0007 22.4598L5.97801 13.7626C3.69929 10.7243 4.02582 5.73297 6.67754 3.08169C8.09938 1.65984 9.98977 0.8766 12.0007 0.8766C14.0116 0.8766 15.902 1.65984 17.3243 3.08169C19.976 5.73297 20.3025 10.7243 18.0137 13.7762Z" fill="black"/>
</svg>
