<svg width="59" height="48" viewBox="0 0 59 48" fill="none" xmlns="http://www.w3.org/2000/svg">
<path d="M14.6085 41.9609V39.5691C14.6226 39.3679 14.5933 39.1661 14.5225 38.9771C14.4518 38.788 14.3412 38.6161 14.1982 38.4728C14.0552 38.3295 13.8831 38.218 13.6933 38.1458C13.5035 38.0736 13.3003 38.0424 13.0974 38.0542C12.8317 38.037 12.5663 38.0907 12.3287 38.2099C12.0912 38.3291 11.8903 38.5094 11.747 38.7319C11.6163 38.5161 11.4294 38.3392 11.2059 38.2199C10.9823 38.1007 10.7305 38.0434 10.4769 38.0542C10.2559 38.0432 10.0358 38.0896 9.83837 38.1888C9.64098 38.2881 9.47318 38.4369 9.35159 38.6203V38.1499H8.51562V41.9609H9.35963V39.8641C9.34168 39.7337 9.35297 39.6011 9.39271 39.4756C9.43245 39.3501 9.49964 39.2349 9.58949 39.1381C9.67934 39.0414 9.78963 38.9655 9.91247 38.916C10.0353 38.8664 10.1677 38.8444 10.3001 38.8515C10.8547 38.8515 11.1361 39.2103 11.1361 39.8561V41.9768H11.9801V39.8641C11.9628 39.7339 11.9747 39.6015 12.0147 39.4763C12.0547 39.3512 12.1219 39.2362 12.2116 39.1397C12.3013 39.0431 12.4113 38.9672 12.5338 38.9174C12.6563 38.8677 12.7883 38.8451 12.9205 38.8515C13.4912 38.8515 13.7645 39.2103 13.7645 39.8561V41.9768L14.6085 41.9609ZM27.0958 38.1499H25.7213V36.9939H24.8773V38.1499H24.1136V38.9073H24.8933V40.6613C24.8933 41.5463 25.239 42.0725 26.2277 42.0725C26.5971 42.0737 26.9593 41.9715 27.2726 41.7775L27.0315 41.0679C26.8073 41.2006 26.5529 41.2746 26.292 41.2832C25.8901 41.2832 25.7374 41.0281 25.7374 40.6454V38.9073H27.1038L27.0958 38.1499ZM34.2256 38.0542C34.0218 38.0483 33.8202 38.097 33.6419 38.1952C33.4637 38.2934 33.3154 38.4375 33.2128 38.6123V38.1499H32.3849V41.9609H33.2209V39.8242C33.2209 39.1943 33.4942 38.8435 34.0247 38.8435C34.2035 38.8411 34.381 38.8736 34.5472 38.9392L34.8044 38.1419C34.6135 38.0742 34.4123 38.0391 34.2096 38.0383L34.2256 38.0542ZM23.4465 38.4529C22.9733 38.1738 22.4292 38.0355 21.879 38.0542C20.9064 38.0542 20.2714 38.5167 20.2714 39.2741C20.2714 39.8959 20.7376 40.2786 21.5977 40.3982L21.9996 40.454C22.4578 40.5178 22.6748 40.6374 22.6748 40.8527C22.6748 41.1477 22.3694 41.3151 21.7987 41.3151C21.3396 41.3283 20.8894 41.1879 20.5206 40.9165L20.1187 41.5623C20.6056 41.8995 21.1889 42.0728 21.7826 42.0566C22.8919 42.0566 23.5349 41.5383 23.5349 40.8128C23.5349 40.0873 23.0285 39.7923 22.1925 39.6727L21.7906 39.6169C21.4289 39.5691 21.1395 39.4973 21.1395 39.2422C21.1395 38.9871 21.4128 38.7957 21.871 38.7957C22.2945 38.8006 22.7096 38.9131 23.0767 39.1226L23.4465 38.4529ZM45.8367 38.0542C45.6329 38.0483 45.4313 38.097 45.253 38.1952C45.0748 38.2934 44.9265 38.4375 44.8239 38.6123V38.1499H43.996V41.9609H44.832V39.8242C44.832 39.1943 45.1053 38.8435 45.6358 38.8435C45.8146 38.8411 45.9921 38.8736 46.1583 38.9392L46.4155 38.1419C46.2246 38.0742 46.0234 38.0391 45.8207 38.0383L45.8367 38.0542ZM35.0656 40.0474C35.0557 40.3152 35.1022 40.5822 35.2022 40.8311C35.3023 41.0801 35.4536 41.3056 35.6465 41.4932C35.8395 41.6808 36.0698 41.8264 36.3227 41.9207C36.5756 42.0149 36.8456 42.0558 37.1153 42.0406C37.6173 42.0659 38.1106 41.9038 38.4979 41.5862L38.096 40.9165C37.807 41.135 37.4546 41.2553 37.0912 41.2593C36.7822 41.2345 36.494 41.0952 36.2838 40.8692C36.0736 40.6432 35.9569 40.3469 35.9569 40.0395C35.9569 39.732 36.0736 39.4357 36.2838 39.2097C36.494 38.9837 36.7822 38.8444 37.0912 38.8196C37.4546 38.8236 37.807 38.9439 38.096 39.1625L38.4979 38.4927C38.1106 38.1751 37.6173 38.013 37.1153 38.0383C36.8456 38.0231 36.5756 38.064 36.3227 38.1583C36.0698 38.2525 35.8395 38.3981 35.6465 38.5857C35.4536 38.7734 35.3023 38.9988 35.2022 39.2478C35.1022 39.4968 35.0557 39.7637 35.0656 40.0315V40.0474ZM42.8948 40.0474V38.1499H42.0588V38.6123C41.9168 38.4311 41.7335 38.286 41.5238 38.189C41.3142 38.092 41.0843 38.0458 40.8531 38.0542C40.3201 38.0542 39.809 38.2642 39.4321 38.638C39.0553 39.0118 38.8436 39.5188 38.8436 40.0474C38.8436 40.5761 39.0553 41.083 39.4321 41.4568C39.809 41.8306 40.3201 42.0406 40.8531 42.0406C41.0843 42.0491 41.3142 42.0029 41.5238 41.9058C41.7335 41.8088 41.9168 41.6637 42.0588 41.4825V41.9449H42.8948V40.0474ZM39.784 40.0474C39.7973 39.8231 39.8765 39.6075 40.0118 39.4273C40.1471 39.247 40.3326 39.11 40.5454 39.0329C40.7582 38.9559 40.9891 38.9423 41.2097 38.9938C41.4302 39.0453 41.6307 39.1596 41.7866 39.3227C41.9424 39.4858 42.0468 39.6906 42.0868 39.9118C42.1268 40.133 42.1007 40.3609 42.0117 40.5676C41.9228 40.7742 41.7748 40.9506 41.5861 41.0749C41.3974 41.1992 41.1761 41.2661 40.9495 41.2673C40.7904 41.2693 40.6326 41.2386 40.486 41.1771C40.3394 41.1157 40.2072 41.0248 40.0977 40.9103C39.9883 40.7957 39.9039 40.6599 39.8499 40.5114C39.7959 40.3629 39.7735 40.2049 39.784 40.0474ZM29.6961 38.0542C29.1632 38.0616 28.655 38.2787 28.2834 38.6578C27.9118 39.0368 27.7073 39.5467 27.7147 40.0753C27.7222 40.604 27.9411 41.108 28.3232 41.4766C28.7053 41.8451 29.2194 42.048 29.7524 42.0406C30.3306 42.0701 30.8993 41.8854 31.348 41.5224L30.9461 40.9085C30.6287 41.1609 30.2355 41.3012 29.8288 41.3071C29.5524 41.3307 29.2777 41.2464 29.0631 41.0722C28.8484 40.898 28.7107 40.6476 28.6793 40.3743H31.5329C31.5329 40.2707 31.5329 40.167 31.5329 40.0554C31.5329 38.8595 30.7853 38.0622 29.7082 38.0622L29.6961 38.0542ZM29.6961 38.7957C29.8212 38.7931 29.9456 38.8149 30.0622 38.8599C30.1788 38.905 30.2853 38.9724 30.3756 39.0583C30.4659 39.1441 30.5383 39.2468 30.5886 39.3605C30.6389 39.4741 30.6661 39.5965 30.6688 39.7205H28.6592C28.6738 39.4646 28.7888 39.2246 28.9796 39.0517C29.1704 38.8789 29.4218 38.787 29.6801 38.7957H29.6961ZM50.6395 40.0554V36.6191H49.8357V38.6123C49.6937 38.4311 49.5104 38.286 49.3007 38.189C49.0911 38.092 48.8612 38.0458 48.63 38.0542C48.097 38.0542 47.5859 38.2642 47.209 38.638C46.8322 39.0118 46.6205 39.5188 46.6205 40.0474C46.6205 40.5761 46.8322 41.083 47.209 41.4568C47.5859 41.8306 48.097 42.0406 48.63 42.0406C48.8612 42.0491 49.0911 42.0029 49.3007 41.9058C49.5104 41.8088 49.6937 41.6637 49.8357 41.4825V41.9449H50.6395V40.0554ZM52.0341 41.4068C52.0864 41.4061 52.1383 41.4156 52.1869 41.4347C52.233 41.4534 52.2753 41.4804 52.3115 41.5144C52.3468 41.5488 52.3754 41.5893 52.3959 41.634C52.4162 41.6806 52.4267 41.7308 52.4267 41.7815C52.4267 41.8322 52.4162 41.8824 52.3959 41.929C52.3754 41.9737 52.3468 42.0142 52.3115 42.0486C52.2753 42.0826 52.233 42.1096 52.1869 42.1283C52.1388 42.1494 52.0867 42.1602 52.0341 42.1602C51.958 42.1596 51.8835 42.1376 51.8195 42.0967C51.7554 42.0557 51.7044 41.9976 51.6724 41.929C51.6523 41.8824 51.6419 41.8322 51.6419 41.7815C51.6419 41.7308 51.6523 41.6806 51.6724 41.634C51.6929 41.5893 51.7215 41.5488 51.7568 41.5144C51.793 41.4804 51.8353 41.4534 51.8814 41.4347C51.9338 41.414 51.9899 41.4045 52.0462 41.4068H52.0341ZM52.0341 42.0805C52.0743 42.0807 52.114 42.0726 52.1507 42.0566C52.1853 42.0413 52.2166 42.0196 52.2431 41.9928C52.2934 41.9384 52.3213 41.8673 52.3213 41.7935C52.3213 41.7197 52.2934 41.6485 52.2431 41.5941C52.2167 41.5672 52.1853 41.5456 52.1507 41.5304C52.1139 41.5145 52.0743 41.5063 52.0341 41.5064C51.9941 41.5067 51.9545 41.5148 51.9176 41.5304C51.8815 41.545 51.8487 41.5667 51.8211 41.5941C51.7709 41.6485 51.743 41.7197 51.743 41.7935C51.743 41.8673 51.7709 41.9384 51.8211 41.9928C51.8488 42.0201 51.8815 42.0418 51.9176 42.0566C51.9581 42.0739 52.0021 42.0821 52.0462 42.0805H52.0341ZM52.0583 41.6061C52.0958 41.6043 52.1328 41.6156 52.1628 41.638C52.1751 41.6481 52.1848 41.661 52.1911 41.6755C52.1973 41.6901 52.2 41.7059 52.1989 41.7217C52.1995 41.7349 52.1973 41.7482 52.1925 41.7605C52.1876 41.7729 52.1802 41.7841 52.1708 41.7935C52.1475 41.8144 52.1178 41.8271 52.0864 41.8293L52.2029 41.9609H52.1105L52.002 41.8293H51.9658V41.9609H51.8895V41.6101L52.0583 41.6061ZM51.9698 41.6739V41.7695H52.0583C52.074 41.7742 52.0908 41.7742 52.1065 41.7695C52.1093 41.764 52.1108 41.7578 52.1108 41.7516C52.1108 41.7454 52.1093 41.7392 52.1065 41.7337C52.1093 41.7281 52.1108 41.722 52.1108 41.7157C52.1108 41.7095 52.1093 41.7034 52.1065 41.6978C52.0908 41.6931 52.074 41.6931 52.0583 41.6978L51.9698 41.6739ZM47.5489 40.0554C47.5622 39.8311 47.6414 39.6155 47.7767 39.4353C47.9119 39.255 48.0974 39.1179 48.3103 39.0409C48.5231 38.9639 48.754 38.9503 48.9745 39.0018C49.195 39.0533 49.3956 39.1676 49.5514 39.3307C49.7073 39.4938 49.8116 39.6986 49.8516 39.9197C49.8916 40.1409 49.8655 40.3689 49.7766 40.5756C49.6876 40.7822 49.5397 40.9586 49.3509 41.0829C49.1622 41.2072 48.9409 41.2741 48.7144 41.2752C48.5553 41.2772 48.3974 41.2465 48.2508 41.1851C48.1042 41.1237 47.972 41.0328 47.8626 40.9182C47.7531 40.8037 47.6687 40.6678 47.6147 40.5194C47.5607 40.3709 47.5383 40.2129 47.5489 40.0554ZM19.3229 40.0554V38.1499H18.4869V38.6123C18.345 38.4311 18.1616 38.286 17.952 38.189C17.7423 38.092 17.5124 38.0458 17.2812 38.0542C16.7483 38.0542 16.2371 38.2642 15.8603 38.638C15.4834 39.0118 15.2717 39.5188 15.2717 40.0474C15.2717 40.5761 15.4834 41.083 15.8603 41.4568C16.2371 41.8306 16.7483 42.0406 17.2812 42.0406C17.5124 42.0491 17.7423 42.0029 17.952 41.9058C18.1616 41.8088 18.345 41.6637 18.4869 41.4825V41.9449H19.3229V40.0554ZM16.2122 40.0554C16.2255 39.8311 16.3047 39.6155 16.4399 39.4353C16.5752 39.255 16.7607 39.1179 16.9735 39.0409C17.1864 38.9639 17.4173 38.9503 17.6378 39.0018C17.8583 39.0533 18.0589 39.1676 18.2147 39.3307C18.3706 39.4938 18.4749 39.6986 18.5149 39.9197C18.5549 40.1409 18.5288 40.3689 18.4399 40.5756C18.3509 40.7822 18.203 40.9586 18.0142 41.0829C17.8255 41.2072 17.6042 41.2741 17.3777 41.2752C17.2179 41.2783 17.0592 41.2485 16.9116 41.1875C16.7641 41.1266 16.6309 41.0359 16.5205 40.9212C16.4102 40.8065 16.3251 40.6703 16.2706 40.5213C16.2161 40.3722 16.1935 40.2136 16.2041 40.0554H16.2122Z" fill="white"/>
<path d="M35.829 9.10889H23.1689V31.6758H35.829V9.10889Z" fill="#FF5F00"/>
<path d="M23.9736 20.3945C23.9712 18.2208 24.4676 16.0751 25.425 14.1199C26.3825 12.1646 27.7759 10.4511 29.4998 9.10903C27.3653 7.4452 24.802 6.41057 22.1027 6.12337C19.4034 5.83618 16.6771 6.30801 14.2354 7.48495C11.7937 8.66188 9.73508 10.4964 8.29484 12.7789C6.85459 15.0614 6.09082 17.6998 6.09082 20.3925C6.09082 23.0852 6.85459 25.7235 8.29484 28.006C9.73508 30.2885 11.7937 32.1231 14.2354 33.3C16.6771 34.4769 19.4034 34.9488 22.1027 34.6616C24.802 34.3744 27.3653 33.3398 29.4998 31.6759C27.7764 30.3343 26.3833 28.6214 25.4259 26.6669C24.4685 24.7124 23.9718 22.5675 23.9736 20.3945Z" fill="#EB001B"/>
<path d="M52.9082 20.3942C52.9081 23.0871 52.1442 25.7256 50.7037 28.0082C49.2632 30.2907 47.2042 32.1253 44.7622 33.302C42.3202 34.4788 39.5936 34.9503 36.8942 34.6627C34.1948 34.3751 31.6314 33.34 29.4971 31.6756C31.2198 30.3328 32.6125 28.6194 33.5701 26.6648C34.5278 24.7102 35.0254 22.5654 35.0254 20.3922C35.0254 18.219 34.5278 16.0742 33.5701 14.1196C32.6125 12.1649 31.2198 10.4516 29.4971 9.10874C31.6314 7.44439 34.1948 6.40925 36.8942 6.12164C39.5936 5.83404 42.3202 6.30557 44.7622 7.48234C47.2042 8.6591 49.2632 10.4936 50.7037 12.7762C52.1442 15.0588 52.9081 17.6973 52.9082 20.3902V20.3942Z" fill="#F79E1B"/>
<path d="M51.5286 29.2837V28.8213H51.7175V28.7256H51.2393V28.8213H51.4442V29.2837H51.5286ZM52.457 29.2837V28.7256H52.3123L52.1435 29.1242L51.9747 28.7256H51.8461V29.2837H51.9506V28.8651L52.1074 29.2279H52.2159L52.3726 28.8651V29.2877L52.457 29.2837Z" fill="#F79E1B"/>
</svg>
