<svg width="25" height="26" viewBox="0 0 25 26" fill="none" xmlns="http://www.w3.org/2000/svg">
<ellipse cx="7.68024" cy="22.8889" rx="2.00348" ry="2.11111" stroke="currentColor" stroke-width="1.4"/>
<path d="M2.33691 20.7778V11.6296C2.33691 8.52047 4.72888 6 7.67952 6C10.6302 6 13.0221 8.52047 13.0221 11.6296V20.7778V20.7778" stroke="currentColor" stroke-width="1.4"/>
<path d="M0 20.7779H15.36" stroke="currentColor" stroke-width="1.4"/>
<g clip-path="url(#clip0)">
<circle cx="16.4004" cy="8" r="8" fill="#FF2525"/>
<path d="M17 5.364L15.176 7.8L16.04 8.532C16.268 8.388 16.496 8.328 16.772 8.328C17.492 8.328 18.008 8.844 18.008 9.552C18.008 10.248 17.468 10.776 16.784 10.776C16.196 10.776 15.776 10.404 15.68 9.78L14.3 9.828C14.372 10.428 14.468 10.74 14.708 11.1C15.152 11.772 15.932 12.156 16.82 12.156C18.356 12.156 19.484 11.004 19.484 9.444C19.484 8.088 18.644 7.14 17.348 7.032L19.568 4.044H14.696V5.364H17Z" fill="white"/>
</g>
<defs>
<clipPath id="clip0">
<rect width="16" height="16" fill="white" transform="translate(8.40039)"/>
</clipPath>
</defs>
</svg>
