<svg width="19" height="17" viewBox="0 0 19 17" fill="none" xmlns="http://www.w3.org/2000/svg">
<path fill-rule="evenodd" clip-rule="evenodd" d="M8.31428 4.61123C8.31428 4.99006 8.62589 5.29752 9.00984 5.29752H17.8203C18.2045 5.29752 18.5159 4.99025 18.5159 4.61123C18.5159 4.2322 18.2045 3.92494 17.8203 3.92494H9.00984C8.62569 3.92494 8.31428 4.2322 8.31428 4.61123ZM5.06831 2.09483V6.6701H3.67718V2.73537H2.74976V1.82031H5.06831V2.09483ZM2.14045 15.6898L4.54247 12.7095H4.53041C4.66504 12.4787 4.61245 12.1859 4.40565 12.0148C4.19885 11.8437 3.89745 11.8437 3.69065 12.0148C3.48385 12.1859 3.43126 12.4787 3.56589 12.7095H2.10243C2.0682 12.0346 2.41361 11.3961 3.00088 11.0485C3.58816 10.701 4.32174 10.701 4.90901 11.0485C5.49628 11.3961 5.8417 12.0346 5.80747 12.7095H5.80654C5.76202 13.08 5.65815 13.3811 5.49771 13.6135C5.33541 13.8459 4.95053 14.2467 4.344 14.8141H5.81025V15.7291H2.10057L2.14045 15.6898ZM8.31428 12.8467C8.31428 12.4677 8.62569 12.1604 9.00984 12.1604H17.8203C18.2045 12.1604 18.5159 12.4677 18.5159 12.8467C18.5159 13.2257 18.2045 13.533 17.8203 13.533H9.00984C8.62569 13.533 8.31428 13.2257 8.31428 12.8467Z" fill="black"/>
<mask id="mask0" mask-type="alpha" maskUnits="userSpaceOnUse" x="2" y="1" width="17" height="15">
<path fill-rule="evenodd" clip-rule="evenodd" d="M8.31428 4.61123C8.31428 4.99006 8.62589 5.29752 9.00984 5.29752H17.8203C18.2045 5.29752 18.5159 4.99025 18.5159 4.61123C18.5159 4.2322 18.2045 3.92494 17.8203 3.92494H9.00984C8.62569 3.92494 8.31428 4.2322 8.31428 4.61123ZM5.06831 2.09483V6.6701H3.67718V2.73537H2.74976V1.82031H5.06831V2.09483ZM2.14045 15.6898L4.54247 12.7095H4.53041C4.66504 12.4787 4.61245 12.1859 4.40565 12.0148C4.19885 11.8437 3.89745 11.8437 3.69065 12.0148C3.48385 12.1859 3.43126 12.4787 3.56589 12.7095H2.10243C2.0682 12.0346 2.41361 11.3961 3.00088 11.0485C3.58816 10.701 4.32174 10.701 4.90901 11.0485C5.49628 11.3961 5.8417 12.0346 5.80747 12.7095H5.80654C5.76202 13.08 5.65815 13.3811 5.49771 13.6135C5.33541 13.8459 4.95053 14.2467 4.344 14.8141H5.81025V15.7291H2.10057L2.14045 15.6898ZM8.31428 12.8467C8.31428 12.4677 8.62569 12.1604 9.00984 12.1604H17.8203C18.2045 12.1604 18.5159 12.4677 18.5159 12.8467C18.5159 13.2257 18.2045 13.533 17.8203 13.533H9.00984C8.62569 13.533 8.31428 13.2257 8.31428 12.8467Z" fill="white"/>
</mask>
<g mask="url(#mask0)">
<rect x="0.89502" y="-0.650391" width="18.5484" height="18.3011" fill="#333333"/>
</g>
</svg>
