<svg width="18" height="18" viewBox="0 0 18 18" fill="none" xmlns="http://www.w3.org/2000/svg">
<path fill-rule="evenodd" clip-rule="evenodd" d="M17.924 0.617001C17.8741 0.496649 17.801 0.387253 17.709 0.295001L17.705 0.291C17.5179 0.104395 17.2643 -0.000272497 17 5.32818e-07H11C10.7348 5.32818e-07 10.4804 0.105357 10.2929 0.292894C10.1054 0.48043 10 0.734784 10 1C10 1.26522 10.1054 1.51957 10.2929 1.70711C10.4804 1.89464 10.7348 2 11 2H14.586L7.293 9.293C7.19749 9.38525 7.12131 9.49559 7.0689 9.6176C7.01649 9.7396 6.9889 9.87082 6.98775 10.0036C6.9866 10.1364 7.0119 10.2681 7.06218 10.391C7.11246 10.5139 7.18671 10.6255 7.28061 10.7194C7.3745 10.8133 7.48615 10.8875 7.60905 10.9378C7.73194 10.9881 7.86362 11.0134 7.9964 11.0123C8.12918 11.0111 8.2604 10.9835 8.3824 10.9311C8.50441 10.8787 8.61475 10.8025 8.707 10.707L16 3.414V7C16 7.26522 16.1054 7.51957 16.2929 7.70711C16.4804 7.89464 16.7348 8 17 8C17.2652 8 17.5196 7.89464 17.7071 7.70711C17.8946 7.51957 18 7.26522 18 7V1V0.997001C18 0.867001 17.974 0.739001 17.924 0.617001ZM0 5C0 3.67392 0.526784 2.40215 1.46447 1.46447C2.40215 0.526785 3.67392 5.32818e-07 5 5.32818e-07H6C6.26522 5.32818e-07 6.51957 0.105357 6.70711 0.292894C6.89464 0.48043 7 0.734784 7 1C7 1.26522 6.89464 1.51957 6.70711 1.70711C6.51957 1.89464 6.26522 2 6 2H5C4.20435 2 3.44129 2.31607 2.87868 2.87868C2.31607 3.44129 2 4.20435 2 5V13C2 13.7957 2.31607 14.5587 2.87868 15.1213C3.44129 15.6839 4.20435 16 5 16H13C13.7956 16 14.5587 15.6839 15.1213 15.1213C15.6839 14.5587 16 13.7957 16 13V12C16 11.7348 16.1054 11.4804 16.2929 11.2929C16.4804 11.1054 16.7348 11 17 11C17.2652 11 17.5196 11.1054 17.7071 11.2929C17.8946 11.4804 18 11.7348 18 12V13C18 14.3261 17.4732 15.5979 16.5355 16.5355C15.5979 17.4732 14.3261 18 13 18H5C3.67392 18 2.40215 17.4732 1.46447 16.5355C0.526784 15.5979 0 14.3261 0 13V5Z" fill="black"/>
</svg>
