<svg width="13" height="12" viewBox="0 0 13 12" fill="none" xmlns="http://www.w3.org/2000/svg">
<path fill-rule="evenodd" clip-rule="evenodd" d="M11.7361 0.769997C11.2426 0.274246 10.5881 0 9.88815 0C9.19166 0 8.53367 0.274246 8.04018 0.769997L1.13475 7.707C1.05775 7.78435 1.01226 7.8828 0.994755 7.98828L0.504761 11.4374C0.483761 11.5886 0.532761 11.7433 0.641259 11.8523C0.732258 11.9473 0.861757 12 0.991255 12C1.01226 12 1.02975 12 1.05075 11.9965L4.54022 11.5605C4.64871 11.5464 4.75021 11.4972 4.82721 11.4199L11.7361 4.47934C12.7546 3.45268 12.7546 1.79314 11.7361 0.769997ZM4.32107 10.5694L1.59091 10.9091L1.97484 8.2169L7.9755 2.18182L10.3182 4.53793L4.32107 10.5694ZM10.7938 3.81818L10.97 3.64213C11.2553 3.36044 11.4091 2.98271 11.4091 2.58579C11.4091 2.18566 11.2521 1.81434 10.97 1.52945C10.688 1.24456 10.3098 1.09091 9.91246 1.09091C9.51186 1.09091 9.1369 1.24456 8.85808 1.53265L8.68182 1.70871L10.7938 3.81818Z" fill="currentColor"/>
</svg>
