<svg width="28" height="23" viewBox="0 0 28 23" fill="none" xmlns="http://www.w3.org/2000/svg">
<path fill-rule="evenodd" clip-rule="evenodd" d="M19.9164 23H2.08357C0.91922 23 0 22.1045 0 21C0 19.9851 0.766017 18.8806 1.86908 18.5224L7.04735 16.5522C7.20056 16.4925 7.32312 16.403 7.35376 16.2836C7.3844 16.1642 7.32312 16.0448 7.20056 15.8955C7.07799 15.7761 4.47354 12.791 4.47354 9.41791C4.47354 5.89552 7.41504 3 11.0613 3C14.6769 3 17.649 5.86567 17.649 9.41791C17.649 12.791 15.0446 15.7761 14.922 15.8955C14.7994 16.0448 14.7382 16.1642 14.7688 16.2836C14.7994 16.3731 14.8914 16.4925 15.0752 16.5522L20.2535 18.5224C21.234 18.8806 22 19.9851 22 21C22 22.1045 21.0501 23 19.9164 23ZM7.3844 17.6567L2.20613 19.6269C1.68524 19.8358 1.22563 20.4627 1.22563 21C1.22563 21.4478 1.59331 21.8358 2.08357 21.806H19.8552C20.3148 21.806 20.7131 21.4478 20.7131 21C20.7131 20.4627 20.2535 19.8358 19.7326 19.6269L14.5543 17.6567C14.0334 17.4478 13.6351 17.0299 13.5125 16.5522C13.39 16.0448 13.5432 15.5075 13.9109 15.0896C13.9415 15.0597 16.3315 12.3134 16.3315 9.38806C16.3315 6.52239 13.9415 4.16418 10.9694 4.16418C8.02785 4.16418 5.60724 6.49254 5.60724 9.38806C5.60724 12.3433 7.99721 15.0597 8.02785 15.0896C8.39554 15.5373 8.54875 16.0746 8.42618 16.5522C8.30362 17.0597 7.93593 17.4478 7.3844 17.6567Z" fill="currentColor"/>
<path d="M27.8779 17.1583C27.2625 15.3991 25.0059 14.9518 23.5113 14.3555C22.9837 14.1468 21.8115 13.938 21.4012 13.5206C20.8151 12.9541 22.1338 11.6719 22.3976 11.1949C23.8629 8.69025 24.5077 5.55947 22.8665 2.9654C20.9909 -0.0162938 17.2397 -0.821351 14.2797 0.878214C13.635 1.26583 14.2211 2.27961 14.8658 1.89199C18.4412 -0.135562 22.8958 2.51815 22.6614 6.75215C22.5441 8.36227 21.8408 9.91275 20.9616 11.2247C20.522 11.8807 19.7893 12.5366 19.9359 13.4013C20.0824 14.266 20.8444 14.5642 21.5477 14.8325C22.4562 15.1903 23.3354 15.5481 24.2439 15.906C24.918 16.1743 25.9437 16.383 26.4712 16.9794C27.2625 17.9037 26.5591 18.7684 25.5627 18.7684C25.0938 18.7684 24.6542 18.7684 24.1853 18.7684C23.4233 18.7684 23.4233 19.9611 24.1853 19.9611C24.918 19.9611 25.7972 20.0803 26.5298 19.9014C27.7314 19.6033 28.2589 18.3211 27.8779 17.1583Z" fill="currentColor"/>
</svg>
