<svg width="18" height="18" viewBox="0 0 18 18" fill="none" xmlns="http://www.w3.org/2000/svg">
<path d="M16 2H2C1.73478 2 1.48043 2.10536 1.29289 2.29289C1.10536 2.48043 1 2.73478 1 3V15C1 15.2652 1.10536 15.5196 1.29289 15.7071C1.48043 15.8946 1.73478 16 2 16H16C16.2652 16 16.5196 15.8946 16.7071 15.7071C16.8946 15.5196 17 15.2652 17 15V3C17 2.73478 16.8946 2.48043 16.7071 2.29289C16.5196 2.10536 16.2652 2 16 2V2ZM2 15V3H16V15H2Z" fill="currentColor"/>
<path d="M4.45996 7C4.75663 7 5.04664 6.91203 5.29332 6.74721C5.53999 6.58238 5.73225 6.34812 5.84578 6.07403C5.95931 5.79994 5.98902 5.49834 5.93114 5.20737C5.87326 4.91639 5.7304 4.64912 5.52062 4.43934C5.31084 4.22956 5.04357 4.0867 4.7526 4.02882C4.46162 3.97094 4.16002 4.00065 3.88594 4.11418C3.61185 4.22771 3.37758 4.41997 3.21276 4.66665C3.04793 4.91332 2.95996 5.20333 2.95996 5.5C2.95996 5.89783 3.118 6.27936 3.3993 6.56066C3.68061 6.84197 4.06214 7 4.45996 7V7ZM4.45996 4.7C4.6184 4.69901 4.77356 4.74509 4.90577 4.83239C5.03799 4.91969 5.1413 5.04428 5.20262 5.19037C5.26394 5.33646 5.2805 5.49747 5.25019 5.65299C5.21989 5.8085 5.1441 5.95151 5.03242 6.06389C4.92074 6.17628 4.7782 6.25297 4.62288 6.28424C4.46756 6.31552 4.30645 6.29997 4.15998 6.23957C4.01351 6.17917 3.88827 6.07664 3.80014 5.94497C3.71201 5.81331 3.66496 5.65844 3.66496 5.5C3.66627 5.28956 3.75045 5.08811 3.89926 4.9393C4.04807 4.79049 4.24952 4.70631 4.45996 4.705V4.7Z" fill="currentColor"/>
<path d="M11.39 7.68495L8.68996 10.3849L6.68996 8.38495C6.59628 8.29182 6.46955 8.23955 6.33746 8.23955C6.20537 8.23955 6.07864 8.29182 5.98496 8.38495L2.95996 11.4499V12.8649L6.35496 9.46995L7.99996 11.0899L6.12496 12.9649H7.49996L11.725 8.73995L15 11.9999V10.5899L12.095 7.68495C12.0013 7.59182 11.8746 7.53955 11.7425 7.53955C11.6104 7.53955 11.4836 7.59182 11.39 7.68495V7.68495Z" fill="currentColor"/>
</svg>
