<svg width="16" height="16" viewBox="0 0 16 16" fill="none" xmlns="http://www.w3.org/2000/svg">
<path d="M10.6398 6.85984L8.8065 9.21984L7.49984 7.6465L5.6665 9.99984H12.9998L10.6398 6.85984ZM1.99984 3.33317H0.666504V13.9998C0.666504 14.7332 1.2665 15.3332 1.99984 15.3332H12.6665V13.9998H1.99984V3.33317ZM13.9998 0.666504H4.6665C3.93317 0.666504 3.33317 1.2665 3.33317 1.99984V11.3332C3.33317 12.0665 3.93317 12.6665 4.6665 12.6665H13.9998C14.7332 12.6665 15.3332 12.0665 15.3332 11.3332V1.99984C15.3332 1.2665 14.7332 0.666504 13.9998 0.666504ZM13.9998 11.3332H4.6665V1.99984H13.9998V11.3332Z" fill="currentColor"/>
</svg>
