<svg width="40" height="40" viewBox="0 0 40 40" fill="none" xmlns="http://www.w3.org/2000/svg">
<path d="M31.1951 30.5975C30.4237 30.6003 29.6594 30.4502 28.9464 30.1559C28.2333 29.8616 27.5857 29.4289 27.0409 28.8829L21.0402 22.8784C20.8279 22.6754 20.5456 22.5621 20.2519 22.5621C19.9582 22.5621 19.6759 22.6754 19.4636 22.8784L13.4427 28.8993C12.8982 29.4462 12.2507 29.8797 11.5377 30.1749C10.8246 30.4701 10.0602 30.6211 9.28844 30.6191H8.11365L15.7175 38.2229C16.8579 39.3609 18.4032 40 20.0143 40C21.6254 40 23.1707 39.3609 24.3111 38.2229L31.9301 30.6026L31.1951 30.5975Z" fill="currentColor"/>
<path d="M9.28971 9.37775C10.0614 9.37569 10.8259 9.52662 11.539 9.8218C12.252 10.117 12.8995 10.5506 13.4439 11.0975L19.4649 17.1197C19.6742 17.3284 19.9576 17.4455 20.2532 17.4455C20.5487 17.4455 20.8321 17.3284 21.0414 17.1197L27.0409 11.1203C27.5849 10.5727 28.2322 10.1386 28.9454 9.84314C29.6585 9.54771 30.4232 9.39684 31.1951 9.3993H31.9174L24.2984 1.78026C23.7342 1.21586 23.0644 0.768145 22.3271 0.462683C21.5898 0.157221 20.7996 0 20.0016 0C19.2036 0 18.4134 0.157221 17.6761 0.462683C16.9388 0.768145 16.269 1.21586 15.7048 1.78026L8.11365 9.37775H9.28971Z" fill="currentColor"/>
<path d="M38.2197 15.7029L33.6156 11.0988C33.5118 11.1412 33.4008 11.1636 33.2887 11.1647H31.1951C30.1056 11.1674 29.0613 11.6001 28.2891 12.3686L22.2897 18.3642C21.7494 18.9035 21.0172 19.2065 20.2538 19.2065C19.4904 19.2065 18.7582 18.9035 18.2179 18.3642L12.1956 12.3458C11.4237 11.5768 10.3793 11.1437 9.2897 11.1406H6.71961C6.61368 11.1382 6.50901 11.1172 6.41038 11.0785L1.77712 15.7029C0.639117 16.8433 0 18.3886 0 19.9997C0 21.6108 0.639117 23.1561 1.77712 24.2965L6.40024 28.9196C6.49866 28.8802 6.60347 28.8592 6.70947 28.8575H9.2897C10.3793 28.8543 11.4236 28.4212 12.1956 27.6523L18.2166 21.6313C19.3052 20.544 21.2024 20.544 22.2897 21.6313L28.2891 27.6295C29.0613 28.398 30.1056 28.8307 31.1951 28.8334H33.2887C33.4009 28.8342 33.5119 28.8566 33.6156 28.8993L38.2197 24.2952C38.7841 23.731 39.2319 23.0612 39.5373 22.3239C39.8428 21.5867 40 20.7964 40 19.9984C40 19.2004 39.8428 18.4102 39.5373 17.6729C39.2319 16.9357 38.7841 16.2658 38.2197 15.7016" fill="currentColor"/>
</svg>
