<svg width="24" height="24" viewBox="0 0 24 24" fill="none" xmlns="http://www.w3.org/2000/svg">
<g clip-path="url(#clip0)">
<path d="M2.71376 19.5835C1.66879 18.3732 0.96532 16.9715 0.500892 15.4467C0.00914524 13.8262 -0.100132 12.1715 0.0842733 10.4895C0.111593 10.2433 0.20038 10.1613 0.459914 10.1613C4.6944 10.1681 8.92889 10.1681 13.1634 10.1681C13.901 10.1681 14.4611 9.87407 14.823 9.23817C15.4445 8.14416 14.7342 6.91339 13.4776 6.89287C12.4667 6.8792 11.4559 6.89287 10.4451 6.89287C7.48097 6.89287 4.51683 6.89287 1.55269 6.89287C1.42975 6.89287 1.30681 6.89287 1.13607 6.89287C1.38877 6.31851 1.68245 5.81253 2.01711 5.3339C4.6466 1.6074 8.24591 -0.245589 12.7946 0.0279156C16.8651 0.274069 20 2.25698 22.2197 5.68945C22.288 5.79886 22.4041 5.90142 22.37 6.05868C22.6978 7.26894 22.732 8.48604 22.4519 9.70997C21.9465 11.9527 20.7513 13.7305 18.8799 15.057C17.3979 16.11 15.7587 16.6912 13.942 16.7048C11.0393 16.7254 8.1298 16.7117 5.22713 16.7117C4.2573 16.7117 3.5948 17.1903 3.28746 18.1065C3.10988 18.5989 2.97329 19.1117 2.71376 19.5835Z" fill="#D10027"/>
<path d="M2.71289 19.5829C2.97242 19.1179 3.10902 18.6051 3.27977 18.0991C3.59394 17.1897 4.2496 16.7042 5.21943 16.7042C8.1221 16.7042 11.0316 16.7179 13.9343 16.6974C15.751 16.6837 17.3902 16.1025 18.8722 15.0495C20.7436 13.7231 21.9388 11.9453 22.4442 9.70255C22.7242 8.47862 22.6901 7.26152 22.3623 6.05127C22.5057 6.10597 22.5467 6.24956 22.6081 6.3658C24.9713 10.7419 24.2883 16.376 20.9212 20.0342C18.319 22.8649 15.0749 24.1982 11.2502 23.9794C7.84208 23.7812 5.03503 22.3111 2.80168 19.7196C2.76753 19.6786 2.74704 19.6307 2.71289 19.5829Z" fill="#BA0C2F"/>
</g>
<defs>
<clipPath id="clip0">
<rect width="24" height="24" fill="white"/>
</clipPath>
</defs>
</svg>
