<svg width="32" height="32" viewBox="0 0 32 32" fill="none" xmlns="http://www.w3.org/2000/svg">
<path d="M24 28V26H26V28H24Z" fill="currentColor"/>
<path d="M18 24V22H20V24H18Z" fill="currentColor"/>
<path d="M18 30H22V28H20V26H18V30Z" fill="currentColor"/>
<path d="M26 26V22H28V26H26Z" fill="currentColor"/>
<path d="M28 26H30V30H26V28H28V26Z" fill="currentColor"/>
<path d="M26 20V18H30V22H28V20H26Z" fill="currentColor"/>
<path d="M24 20H22V24H20V26H24V20Z" fill="currentColor"/>
<path d="M18 20V18H22V20H18Z" fill="currentColor"/>
<path d="M6 22H10V26H6V22Z" fill="currentColor"/>
<path d="M14 30H2V18H14V30ZM4 28H12V20H4V28Z" fill="currentColor"/>
<path d="M22 6H26V10H22V6Z" fill="currentColor"/>
<path d="M30 14H18V2H30V14ZM20 12H28V4H20V12Z" fill="currentColor"/>
<path d="M6 6H10V10H6V6Z" fill="currentColor"/>
<path d="M14 14H2V2H14V14ZM4 12H12V4H4V12Z" fill="currentColor"/>
</svg>
