<svg width="20" height="20" viewBox="0 0 20 20" fill="none" xmlns="http://www.w3.org/2000/svg">
<path d="M13.3333 20H11.1111V17.7778H13.3333V20ZM11.1111 12.2222H8.88889V17.7778H11.1111V12.2222ZM20 10H17.7778V14.4444H20V10ZM17.7778 7.77778H15.5556V10H17.7778V7.77778ZM4.44444 10H2.22222V12.2222H4.44444V10ZM2.22222 7.77778H0V10H2.22222V7.77778ZM10 2.22222H12.2222V0H10V2.22222ZM1.66667 1.66667V5H5V1.66667H1.66667ZM6.66667 6.66667H0V0H6.66667V6.66667ZM1.66667 15V18.3333H5V15H1.66667ZM6.66667 20H0V13.3333H6.66667V20ZM15 1.66667V5H18.3333V1.66667H15ZM20 6.66667H13.3333V0H20V6.66667ZM17.7778 17.7778V14.4444H13.3333V16.6667H15.5556V20H20V17.7778H17.7778ZM15.5556 10H11.1111V12.2222H15.5556V10ZM11.1111 7.77778H4.44444V10H6.66667V12.2222H8.88889V10H11.1111V7.77778ZM12.2222 6.66667V4.44444H10V2.22222H7.77778V6.66667H12.2222ZM4.16667 2.5H2.5V4.16667H4.16667V2.5ZM4.16667 15.8333H2.5V17.5H4.16667V15.8333ZM17.5 2.5H15.8333V4.16667H17.5V2.5Z" fill="currentColor"/>
</svg>
