<svg width="24" height="24" viewBox="0 0 24 24" fill="none" xmlns="http://www.w3.org/2000/svg">
<circle cx="12" cy="12" r="11.5" stroke="#4595EC"/>
<path d="M11.192 13.906C11.192 13.5327 11.2527 13.206 11.374 12.926C11.5047 12.6367 11.6587 12.394 11.836 12.198C12.0227 12.002 12.2653 11.7687 12.564 11.498C12.9373 11.1713 13.2127 10.8913 13.39 10.658C13.5673 10.4153 13.656 10.126 13.656 9.79C13.656 9.33267 13.4787 8.96867 13.124 8.698C12.7693 8.418 12.2793 8.278 11.654 8.278C10.562 8.278 9.72667 8.64667 9.148 9.384L8.126 8.656C8.518 8.152 9.01733 7.76467 9.624 7.494C10.24 7.22333 10.9493 7.088 11.752 7.088C12.7693 7.088 13.5767 7.312 14.174 7.76C14.7713 8.19867 15.07 8.80533 15.07 9.58C15.07 9.96267 15.0047 10.3033 14.874 10.602C14.7527 10.8913 14.6033 11.134 14.426 11.33C14.2487 11.526 14.0107 11.7593 13.712 12.03C13.3293 12.3753 13.0447 12.6787 12.858 12.94C12.6807 13.2013 12.592 13.5233 12.592 13.906H11.192ZM11.906 17.084C11.6447 17.084 11.4253 17 11.248 16.832C11.08 16.6547 10.996 16.44 10.996 16.188C10.996 15.936 11.08 15.726 11.248 15.558C11.4253 15.3807 11.6447 15.292 11.906 15.292C12.1673 15.292 12.382 15.3807 12.55 15.558C12.718 15.726 12.802 15.936 12.802 16.188C12.802 16.44 12.7133 16.6547 12.536 16.832C12.368 17 12.158 17.084 11.906 17.084Z" fill="#4595EC"/>
</svg>
