<svg width="515" height="483" viewBox="0 0 515 483" fill="none" xmlns="http://www.w3.org/2000/svg">
<path d="M479.888 270.829C457.119 302.797 425.035 326.597 383.64 342.238L464.365 483H295.317L227.003 361.562H186.988L162.839 483H0L96.5967 0H313.251C376.733 0 426.069 13.9158 461.259 41.7439C496.448 69.5789 514.043 108.563 514.043 158.699C514.043 201.484 502.653 238.857 479.888 270.829ZM288.413 125.581H233.907L211.137 238.742H278.061C300.607 238.742 318.083 233.11 330.503 221.839C342.924 210.574 349.139 194.821 349.139 174.571C349.139 141.911 328.893 125.581 288.413 125.581Z" fill="#0564FF"/>
</svg>
