<svg width="50" height="50" viewBox="0 0 50 50" fill="none" xmlns="http://www.w3.org/2000/svg">
<path d="M40.625 8.38281H9.375C8.33935 8.38395 7.34644 8.79587 6.61412 9.52818C5.8818 10.2605 5.46989 11.2534 5.46875 12.2891V34.1641C5.46989 35.1997 5.8818 36.1926 6.61412 36.9249C7.34644 37.6573 8.33935 38.0692 9.375 38.0703H40.625C41.6607 38.0692 42.6536 37.6573 43.3859 36.9249C44.1182 36.1926 44.5301 35.1997 44.5312 34.1641V12.2891C44.5301 11.2534 44.1182 10.2605 43.3859 9.52818C42.6536 8.79587 41.6607 8.38395 40.625 8.38281V8.38281ZM42.9688 34.1641C42.9681 34.7855 42.7209 35.3812 42.2815 35.8206C41.8421 36.26 41.2464 36.5071 40.625 36.5078H9.375C8.75361 36.5071 8.15785 36.26 7.71846 35.8206C7.27907 35.3812 7.03192 34.7855 7.03125 34.1641V12.2891C7.03192 11.6677 7.27907 11.0719 7.71846 10.6325C8.15785 10.1931 8.75361 9.94598 9.375 9.94531H40.625C41.2464 9.94598 41.8421 10.1931 42.2815 10.6325C42.7209 11.0719 42.9681 11.6677 42.9688 12.2891V34.1641ZM32.0312 43.5391C32.0312 43.7463 31.9489 43.945 31.8024 44.0915C31.6559 44.238 31.4572 44.3203 31.25 44.3203H18.75C18.5428 44.3203 18.3441 44.238 18.1976 44.0915C18.0511 43.945 17.9688 43.7463 17.9688 43.5391C17.9688 43.3319 18.0511 43.1331 18.1976 42.9866C18.3441 42.8401 18.5428 42.7578 18.75 42.7578H31.25C31.4572 42.7578 31.6559 42.8401 31.8024 42.9866C31.9489 43.1331 32.0312 43.3319 32.0312 43.5391Z" fill="#4595EC"/>
<path fill-rule="evenodd" clip-rule="evenodd" d="M22.3261 23.8113C22.3261 26.0879 20.4623 27.9335 18.163 27.9335C15.8639 27.9335 14 26.0879 14 23.8113C14 21.5349 15.8639 19.6895 18.163 19.6895C20.4623 19.6895 22.3261 21.5349 22.3261 23.8113Z" stroke="#4595EC" stroke-width="0.7"/>
<path fill-rule="evenodd" clip-rule="evenodd" d="M33.9999 23.9891C33.9999 26.2657 32.1358 28.1112 29.8369 28.1112C27.5378 28.1112 25.6738 26.2657 25.6738 23.9891C25.6738 21.7127 27.5378 19.8672 29.8369 19.8672C32.1358 19.8672 33.9999 21.7127 33.9999 23.9891Z" stroke="#4595EC" stroke-width="0.7"/>
<path fill-rule="evenodd" clip-rule="evenodd" d="M23.8969 23.8089H18.1648L21.5159 18.8804H27.1904L27.2149 18.9291L23.8969 23.8089Z" stroke="#4595EC" stroke-width="0.7"/>
<path d="M20.6089 17.0908L23.8669 23.8115" stroke="#4595EC" stroke-width="0.7"/>
<path d="M28.7592 18.8954C29.2141 18.8954 29.5829 18.5312 29.5829 18.0821C29.5829 17.6328 29.2141 17.2686 28.7592 17.2686H26.3975L29.8365 24.0788" stroke="#4595EC" stroke-width="0.7"/>
<path fill-rule="evenodd" clip-rule="evenodd" d="M18.615 23.8108C18.615 24.0582 18.4124 24.2589 18.1624 24.2589C17.9127 24.2589 17.71 24.0582 17.71 23.8108C17.71 23.5635 17.9127 23.3628 18.1624 23.3628C18.4124 23.3628 18.615 23.5635 18.615 23.8108Z" stroke="#4595EC" stroke-width="0.7"/>
<path fill-rule="evenodd" clip-rule="evenodd" d="M30.2908 24.079C30.2908 24.3263 30.0882 24.5269 29.8382 24.5269C29.5883 24.5269 29.3857 24.3263 29.3857 24.079C29.3857 23.8319 29.5883 23.6309 29.8382 23.6309C30.0882 23.6309 30.2908 23.8319 30.2908 24.079Z" stroke="#4595EC" stroke-width="0.7"/>
<path d="M19.97 17.0448H22.142" stroke="#4595EC" stroke-width="0.7"/>
</svg>
