<svg width="12" height="12" viewBox="0 0 12 12" fill="none" xmlns="http://www.w3.org/2000/svg">
<path d="M5.5625 5.7631e-07C3.0075 5.7631e-07 0.871 1.58 0 3.8125L0.922 4.1875C1.6505 2.32 3.4175 1 5.5625 1C7.1825 1 8.6295 1.795 9.5315 3H7.5625V4H11.0625V0.500001H10.0625V2.047C9.50239 1.4039 8.81087 0.888398 8.03459 0.535277C7.25831 0.182156 6.41532 -0.000374315 5.5625 5.7631e-07V5.7631e-07ZM10.2025 7.8125C9.4745 9.68 7.7075 11 5.5625 11C3.9245 11 2.484 10.194 1.5775 9H3.5625V8H0.0625V11.5H1.0625V9.953C2.1575 11.193 3.76 12 5.5625 12C8.1175 12 10.254 10.42 11.125 8.1875L10.203 7.8125H10.2025Z" fill="currentColor"/>
</svg>
