<svg width="19" height="19" viewBox="0 0 19 19" fill="none" xmlns="http://www.w3.org/2000/svg">
<path d="M18.4258 8.09505L1.42576 0.0950449C1.25458 0.0144952 1.06406 -0.0158421 0.876322 0.00755579C0.688587 0.0309537 0.511339 0.107127 0.365164 0.22723C0.218988 0.347333 0.109881 0.506438 0.0505117 0.686069C-0.00885731 0.8657 -0.0160522 1.05849 0.0297628 1.24205L1.24176 6.09104L8.99976 9.00004L1.24176 11.909L0.0297628 16.758C-0.0169142 16.9417 -0.0103198 17.1349 0.0487745 17.315C0.107869 17.4951 0.21702 17.6546 0.363459 17.7749C0.509899 17.8953 0.687572 17.9714 0.875696 17.9944C1.06382 18.0175 1.25461 17.9865 1.42576 17.905L18.4258 9.90504C18.5976 9.82429 18.7428 9.6963 18.8446 9.53604C18.9463 9.37578 19.0004 9.18988 19.0004 9.00004C19.0004 8.81021 18.9463 8.62431 18.8446 8.46405C18.7428 8.30379 18.5976 8.1758 18.4258 8.09505V8.09505Z" fill="currentColor"/>
</svg>
