<svg width="25" height="24" viewBox="0 0 25 24" fill="none" xmlns="http://www.w3.org/2000/svg">
<path d="M18.8721 16.12C18.1121 16.12 17.4321 16.42 16.9121 16.89L9.78207 12.74C9.83207 12.51 9.87207 12.28 9.87207 12.04C9.87207 11.8 9.83207 11.57 9.78207 11.34L16.8321 7.23004C17.3721 7.73004 18.0821 8.04004 18.8721 8.04004C20.5321 8.04004 21.8721 6.70004 21.8721 5.04004C21.8721 3.38004 20.5321 2.04004 18.8721 2.04004C17.2121 2.04004 15.8721 3.38004 15.8721 5.04004C15.8721 5.28004 15.9121 5.51004 15.9621 5.74004L8.91207 9.85004C8.37207 9.35004 7.66207 9.04004 6.87207 9.04004C5.21207 9.04004 3.87207 10.38 3.87207 12.04C3.87207 13.7 5.21207 15.04 6.87207 15.04C7.66207 15.04 8.37207 14.73 8.91207 14.23L16.0321 18.39C15.9821 18.6 15.9521 18.82 15.9521 19.04C15.9521 20.65 17.2621 21.96 18.8721 21.96C20.4821 21.96 21.7921 20.65 21.7921 19.04C21.7921 17.43 20.4821 16.12 18.8721 16.12ZM18.8721 4.04004C19.4221 4.04004 19.8721 4.49004 19.8721 5.04004C19.8721 5.59004 19.4221 6.04004 18.8721 6.04004C18.3221 6.04004 17.8721 5.59004 17.8721 5.04004C17.8721 4.49004 18.3221 4.04004 18.8721 4.04004ZM6.87207 13.04C6.32207 13.04 5.87207 12.59 5.87207 12.04C5.87207 11.49 6.32207 11.04 6.87207 11.04C7.42207 11.04 7.87207 11.49 7.87207 12.04C7.87207 12.59 7.42207 13.04 6.87207 13.04ZM18.8721 20.06C18.3221 20.06 17.8721 19.61 17.8721 19.06C17.8721 18.51 18.3221 18.06 18.8721 18.06C19.4221 18.06 19.8721 18.51 19.8721 19.06C19.8721 19.61 19.4221 20.06 18.8721 20.06Z" fill="currentColor"/>
</svg>
