<svg width="18" height="18" viewBox="0 0 18 18" fill="none" xmlns="http://www.w3.org/2000/svg">
<path d="M10.8878 14.4738H9.69797C9.60846 14.4738 9.52262 14.5093 9.45932 14.5726C9.39603 14.6359 9.36047 14.7217 9.36047 14.8113C9.36047 14.9008 9.39603 14.9866 9.45932 15.0499C9.52262 15.1132 9.60846 15.1488 9.69797 15.1488H10.8878C10.9773 15.1488 11.0631 15.1132 11.1264 15.0499C11.1897 14.9866 11.2253 14.9008 11.2253 14.8113C11.2253 14.7217 11.1897 14.6359 11.1264 14.5726C11.0631 14.5093 10.9773 14.4738 10.8878 14.4738Z" fill="white"/>
<path d="M12.1969 11.5875H9.69846C9.60895 11.5875 9.52311 11.6231 9.45981 11.6864C9.39652 11.7497 9.36096 11.8355 9.36096 11.925C9.36096 12.0145 9.39652 12.1004 9.45981 12.1637C9.52311 12.227 9.60895 12.2625 9.69846 12.2625H12.1969C12.2864 12.2625 12.3722 12.227 12.4355 12.1637C12.4988 12.1004 12.5344 12.0145 12.5344 11.925C12.5344 11.8355 12.4988 11.7497 12.4355 11.6864C12.3722 11.6231 12.2864 11.5875 12.1969 11.5875Z" fill="white"/>
<path d="M15.7555 5.81494H9.69846C9.60895 5.81494 9.52311 5.8505 9.45981 5.91379C9.39652 5.97709 9.36096 6.06293 9.36096 6.15244C9.36096 6.24195 9.39652 6.3278 9.45981 6.39109C9.52311 6.45438 9.60895 6.48994 9.69846 6.48994H15.7555C15.845 6.48994 15.9308 6.45438 15.9941 6.39109C16.0574 6.3278 16.093 6.24195 16.093 6.15244C16.093 6.06293 16.0574 5.97709 15.9941 5.91379C15.9308 5.8505 15.845 5.81494 15.7555 5.81494Z" fill="white"/>
<path d="M17.2499 2.92859H9.69846C9.60895 2.92859 9.52311 2.96415 9.45981 3.02744C9.39652 3.09073 9.36096 3.17658 9.36096 3.26609C9.36096 3.3556 9.39652 3.44144 9.45981 3.50474C9.52311 3.56803 9.60895 3.60359 9.69846 3.60359H17.2499C17.3394 3.60359 17.4253 3.56803 17.4886 3.50474C17.5519 3.44144 17.5874 3.3556 17.5874 3.26609C17.5874 3.17658 17.5519 3.09073 17.4886 3.02744C17.4253 2.96415 17.3394 2.92859 17.2499 2.92859Z" fill="white"/>
<path d="M7.86057 11.0048L4.84917 14.639V3.12034C4.84917 3.03083 4.81361 2.94498 4.75032 2.88169C4.68702 2.81839 4.60118 2.78284 4.51167 2.78284C4.42216 2.78284 4.33631 2.81839 4.27302 2.88169C4.20973 2.94498 4.17417 3.03083 4.17417 3.12034V14.6237L1.16232 11.0043C1.13398 10.9702 1.09921 10.9421 1.05998 10.9214C1.02075 10.9007 0.97784 10.888 0.933693 10.8839C0.889545 10.8799 0.845028 10.8845 0.802682 10.8977C0.760336 10.9108 0.720991 10.9321 0.686893 10.9605C0.652796 10.9888 0.624613 11.0236 0.603954 11.0628C0.583296 11.102 0.570566 11.1449 0.566492 11.1891C0.562418 11.2332 0.567079 11.2778 0.580209 11.3201C0.59334 11.3624 0.614682 11.4018 0.643018 11.4359L4.25967 15.7815C4.29133 15.8197 4.33102 15.8504 4.37589 15.8715C4.42077 15.8925 4.46974 15.9035 4.51932 15.9035H4.51977C4.62012 15.9035 4.71507 15.8585 4.77942 15.7815L8.38077 11.4359C8.40907 11.4017 8.43038 11.3623 8.44346 11.3199C8.45654 11.2776 8.46114 11.233 8.457 11.1888C8.45287 11.1447 8.44007 11.1017 8.41935 11.0625C8.39862 11.0233 8.37037 10.9885 8.33622 10.9602C8.30206 10.9319 8.26266 10.9106 8.22027 10.8975C8.17789 10.8845 8.13333 10.8799 8.08917 10.884C8.045 10.8881 8.00208 10.9009 7.96285 10.9217C7.92363 10.9424 7.88888 10.9706 7.86057 11.0048Z" fill="white"/>
<path d="M13.9555 8.70117H9.69846C9.60895 8.70117 9.52311 8.73673 9.45981 8.80002C9.39652 8.86332 9.36096 8.94916 9.36096 9.03867C9.36096 9.12818 9.39652 9.21403 9.45981 9.27732C9.52311 9.34061 9.60895 9.37617 9.69846 9.37617H13.9555C14.045 9.37617 14.1308 9.34061 14.1941 9.27732C14.2574 9.21403 14.293 9.12818 14.293 9.03867C14.293 8.94916 14.2574 8.86332 14.1941 8.80002C14.1308 8.73673 14.045 8.70117 13.9555 8.70117Z" fill="white"/>
</svg>
