<svg width="16" height="12" viewBox="0 0 16 12" fill="none" xmlns="http://www.w3.org/2000/svg">
<path d="M15.4286 4.57143C15.5801 4.57143 15.7255 4.51122 15.8326 4.40406C15.9398 4.2969 16 4.15155 16 4V1.14286C16 0.839753 15.8796 0.549062 15.6653 0.334735C15.4509 0.120408 15.1602 0 14.8571 0H1.14286C0.839753 0 0.549062 0.120408 0.334735 0.334735C0.120408 0.549062 0 0.839753 0 1.14286V4C0 4.15155 0.0602039 4.2969 0.167368 4.40406C0.274531 4.51122 0.419876 4.57143 0.571429 4.57143C0.874533 4.57143 1.16522 4.69184 1.37955 4.90616C1.59388 5.12049 1.71429 5.41118 1.71429 5.71429C1.71429 6.01739 1.59388 6.30808 1.37955 6.52241C1.16522 6.73674 0.874533 6.85714 0.571429 6.85714C0.419876 6.85714 0.274531 6.91735 0.167368 7.02451C0.0602039 7.13167 0 7.27702 0 7.42857V10.2857C0 10.5888 0.120408 10.8795 0.334735 11.0938C0.549062 11.3082 0.839753 11.4286 1.14286 11.4286H14.8571C15.1602 11.4286 15.4509 11.3082 15.6653 11.0938C15.8796 10.8795 16 10.5888 16 10.2857V7.42857C16 7.27702 15.9398 7.13167 15.8326 7.02451C15.7255 6.91735 15.5801 6.85714 15.4286 6.85714C15.1255 6.85714 14.8348 6.73674 14.6205 6.52241C14.4061 6.30808 14.2857 6.01739 14.2857 5.71429C14.2857 5.41118 14.4061 5.12049 14.6205 4.90616C14.8348 4.69184 15.1255 4.57143 15.4286 4.57143ZM14.8571 7.92571V10.2857H10.8571V8.57143H9.71429V10.2857H1.14286V7.92571C1.632 7.79787 2.06495 7.51146 2.37396 7.11131C2.68296 6.71116 2.85058 6.21986 2.85058 5.71429C2.85058 5.20871 2.68296 4.71741 2.37396 4.31726C2.06495 3.91711 1.632 3.6307 1.14286 3.50286V1.14286H9.71429V2.85714H10.8571V1.14286H14.8571V3.50286C14.368 3.6307 13.9351 3.91711 13.626 4.31726C13.317 4.71741 13.1494 5.20871 13.1494 5.71429C13.1494 6.21986 13.317 6.71116 13.626 7.11131C13.9351 7.51146 14.368 7.79787 14.8571 7.92571Z" fill="#161C25"/>
<path d="M9.71436 4H10.8572V7.42857H9.71436V4Z" fill="#161C25"/>
</svg>
