<svg width="22" height="20" viewBox="0 0 22 20" fill="none" xmlns="http://www.w3.org/2000/svg">
<path fill-rule="evenodd" clip-rule="evenodd" d="M21.3848 13.3174V12.3893C21.3848 11.4457 20.5988 10.678 19.6326 10.678H13.7521C12.786 10.678 12 11.4457 12 12.3893V13.2732" fill="#161C25"/>
<path d="M21.3848 13.3174V12.3893C21.3848 11.4457 20.5988 10.678 19.6326 10.678H13.7521C12.786 10.678 12 11.4457 12 12.3893V13.2732" stroke="#161C25" stroke-width="0.7"/>
<path fill-rule="evenodd" clip-rule="evenodd" d="M12.8799 4.9592C12.8799 2.77609 14.5902 1 16.6924 1C18.7947 1 20.505 2.77609 20.505 4.9592C20.505 7.1423 18.7947 8.91839 16.6924 8.91839C14.5902 8.91839 12.8799 7.1423 12.8799 4.9592Z" fill="#161C25" stroke="#161C25" stroke-width="0.7"/>
<path fill-rule="evenodd" clip-rule="evenodd" d="M15 19.375V17.9904C15 16.5827 13.8274 15.4375 12.3862 15.4375H3.61378C2.17255 15.4375 1 16.5827 1 17.9904V19.309" fill="white"/>
<path d="M15 19.375V17.9904C15 16.5827 13.8274 15.4375 12.3862 15.4375H3.61378C2.17255 15.4375 1 16.5827 1 17.9904V19.309" stroke="#161C25" stroke-width="0.7"/>
<path d="M8 0.5C4.57014 0.5 1.8125 3.39134 1.8125 6.90625C1.8125 10.4212 4.57014 13.3125 8 13.3125C11.4299 13.3125 14.1875 10.4212 14.1875 6.90625C14.1875 3.39134 11.4299 0.5 8 0.5Z" fill="white" stroke="white"/>
<path fill-rule="evenodd" clip-rule="evenodd" d="M2.3125 6.90625C2.3125 3.64953 4.8639 1 8 1C11.1361 1 13.6875 3.64953 13.6875 6.90625C13.6875 10.163 11.1361 12.8125 8 12.8125C4.8639 12.8125 2.3125 10.163 2.3125 6.90625Z" fill="white" stroke="#161C25" stroke-width="0.7"/>
</svg>
