<svg width="41" height="28" viewBox="0 0 41 28" fill="none" xmlns="http://www.w3.org/2000/svg">
<path d="M0 0V2.54545H24.3438V21.6364H16.4564C15.8849 19.4485 13.9041 17.8182 11.5312 17.8182C9.15837 17.8182 7.17756 19.4485 6.60613 21.6364H5.125V15.2727H2.5625V24.1818H6.60613C7.17756 26.3696 9.15837 28 11.5312 28C13.9041 28 15.8849 26.3696 16.4564 24.1818H27.1061C27.6776 26.3696 29.6584 28 32.0312 28C34.4041 28 36.3849 26.3696 36.9564 24.1818H41V13.8015L40.9193 13.6016L38.3568 5.96527L38.0787 5.09091H26.9062V0H0ZM1.28125 5.09091V7.63636H12.8125V5.09091H1.28125ZM26.9062 7.63636H36.235L38.4375 14.1591V21.6364H36.9564C36.3849 19.4485 34.4041 17.8182 32.0312 17.8182C29.6584 17.8182 27.6776 19.4485 27.1061 21.6364H26.9062V7.63636ZM2.5625 10.1818V12.7273H10.25V10.1818H2.5625ZM11.5312 20.3636C12.9624 20.3636 14.0938 21.4875 14.0938 22.9091C14.0938 24.3307 12.9624 25.4545 11.5312 25.4545C10.1001 25.4545 8.96875 24.3307 8.96875 22.9091C8.96875 21.4875 10.1001 20.3636 11.5312 20.3636ZM32.0312 20.3636C33.4624 20.3636 34.5938 21.4875 34.5938 22.9091C34.5938 24.3307 33.4624 25.4545 32.0312 25.4545C30.6001 25.4545 29.4688 24.3307 29.4688 22.9091C29.4688 21.4875 30.6001 20.3636 32.0312 20.3636Z" fill="#161C25"/>
</svg>
