<svg width="40" height="35" viewBox="0 0 40 35" fill="none" xmlns="http://www.w3.org/2000/svg">
<g clip-path="url(#clip0)">
<path d="M29.8047 7.53906C28.9193 5.16927 27.5326 3.32031 25.6445 1.99219C23.7565 0.664062 21.4323 0 18.6719 0C16.3021 0 14.1732 0.540365 12.2852 1.62109C10.3971 2.70182 8.91276 4.17318 7.83203 6.03516C6.7513 7.89713 6.13281 9.98698 5.97656 12.3047C4.23177 12.8776 2.79948 13.9648 1.67969 15.5664C0.559896 17.168 0 18.9714 0 20.9766C0 23.4245 0.833333 25.5469 2.5 27.3437C4.16667 29.1406 6.14583 30.0391 8.4375 30.0391H12.0312C12.3958 30.0391 12.6953 29.9154 12.9297 29.668C13.1641 29.4206 13.2812 29.1276 13.2812 28.7891C13.2812 28.6068 13.2487 28.444 13.1836 28.3008C13.1185 28.1576 13.0339 28.0273 12.9297 27.9102C12.8255 27.793 12.6953 27.7018 12.5391 27.6367C12.3828 27.5716 12.2135 27.5391 12.0312 27.5391H8.4375C6.82292 27.5391 5.42318 26.888 4.23828 25.5859C3.05339 24.2839 2.46094 22.7474 2.46094 20.9766C2.46094 19.4141 2.94271 18.0078 3.90625 16.7578C4.86979 15.5078 6.04167 14.7656 7.42188 14.5312L8.55469 14.3359L8.47656 13.1641H8.4375C8.4375 11.1328 8.85417 9.30989 9.6875 7.69531C10.5208 6.08073 11.7188 4.8112 13.2812 3.88672C14.8438 2.96224 16.6406 2.5 18.6719 2.5C23.3333 2.5 26.3411 4.70052 27.6953 9.10156L27.9688 9.96094L28.8672 10C31.2109 10.026 33.2487 10.8724 34.9805 12.5391C36.7122 14.2057 37.5781 16.1979 37.5781 18.5156C37.5781 19.974 37.2917 21.3867 36.7188 22.7539C36.1458 24.1211 35.306 25.2604 34.1992 26.1719C33.0924 27.0833 31.849 27.5391 30.4688 27.5391H27.6172C27.2786 27.5391 26.9857 27.6628 26.7383 27.9102C26.4909 28.1576 26.3672 28.4505 26.3672 28.7891C26.3672 29.1276 26.4909 29.4206 26.7383 29.668C26.9857 29.9154 27.2786 30.0391 27.6172 30.0391H30.4688C31.9792 29.987 33.3529 29.6159 34.5898 28.9258C35.8268 28.2357 36.8294 27.3372 37.5977 26.2305C38.3659 25.1237 38.9583 23.9062 39.375 22.5781C39.7917 21.25 40 19.8958 40 18.5156C40 15.6771 39.0169 13.2161 37.0508 11.1328C35.0846 9.04948 32.6693 7.85156 29.8047 7.53906ZM20.9375 17.5V17.4609L20.625 17.1484C20.4427 16.9661 20.2279 16.875 19.9805 16.875C19.7331 16.875 19.5182 16.9661 19.3359 17.1484L19.0234 17.4609V17.5L14.4922 22.5C14.3099 22.6823 14.2188 22.8971 14.2188 23.1445C14.2188 23.3919 14.3099 23.6198 14.4922 23.8281L14.8047 24.0234C14.987 24.2057 15.1953 24.2773 15.4297 24.2383C15.6641 24.1992 15.8854 24.0885 16.0938 23.9062L18.75 20.9375V33.5156C18.75 33.8802 18.8672 34.1797 19.1016 34.4141C19.3359 34.6484 19.6289 34.7656 19.9805 34.7656C20.332 34.7656 20.6315 34.6484 20.8789 34.4141C21.1263 34.1797 21.25 33.8802 21.25 33.5156V20.9375L23.9844 23.9844C24.1667 24.1667 24.375 24.2773 24.6094 24.3164C24.8438 24.3555 25.0521 24.2839 25.2344 24.1016L25.5469 23.9062C25.7292 23.6979 25.8203 23.4701 25.8203 23.2227C25.8203 22.9753 25.7292 22.7604 25.5469 22.5781L20.9375 17.5Z" fill="currentColor"/>
</g>
<defs>
<clipPath id="clip0">
<rect width="40" height="35" fill="white"/>
</clipPath>
</defs>
</svg>
