<svg width="42" height="38" viewBox="0 0 42 38" fill="none" xmlns="http://www.w3.org/2000/svg">
<path d="M1 32.66V30.6813C1 27.0077 2.45933 23.4846 5.05694 20.887C7.65456 18.2894 11.1777 16.83 14.8513 16.83V16.83" stroke="black" stroke-width="1.5" stroke-linecap="round" stroke-linejoin="round"/>
<path d="M28.3147 17.4494C28.6147 17.1201 28.9802 16.857 29.3877 16.677C29.7952 16.497 30.2358 16.4041 30.6813 16.4041C31.1268 16.4041 31.5674 16.497 31.9749 16.677C32.3824 16.857 32.7478 17.1201 33.0479 17.4494V17.4494C33.691 18.1558 34.6111 18.5377 35.5649 18.4922C36.0101 18.4713 36.4547 18.5436 36.8704 18.7045C37.286 18.8654 37.6635 19.1112 37.9787 19.4264C38.2938 19.7416 38.5397 20.119 38.7006 20.5347C38.8615 20.9503 38.9338 21.395 38.9129 21.8402V21.8402C38.8674 22.792 39.2493 23.7141 39.9537 24.3572C41.3488 25.6276 41.3488 27.82 39.9537 29.0904C39.2493 29.7335 38.8674 30.6536 38.9129 31.6073C38.9338 32.0526 38.8615 32.4972 38.7006 32.9129C38.5397 33.3285 38.2938 33.706 37.9787 34.0212C37.6635 34.3363 37.286 34.5822 36.8704 34.7431C36.4547 34.904 36.0101 34.9763 35.5649 34.9554V34.9554C35.0946 34.9332 34.6252 35.0149 34.1902 35.1948C33.7551 35.3747 33.3651 35.6484 33.0479 35.9962C32.7478 36.3255 32.3824 36.5886 31.9749 36.7686C31.5674 36.9486 31.1268 37.0415 30.6813 37.0415C30.2358 37.0415 29.7952 36.9486 29.3877 36.7686C28.9802 36.5886 28.6147 36.3255 28.3147 35.9962V35.9962C27.9975 35.6484 27.6075 35.3747 27.1724 35.1948C26.7374 35.0149 26.268 34.9332 25.7977 34.9554V34.9554C25.3525 34.9763 24.9079 34.904 24.4922 34.7431C24.0765 34.5822 23.6991 34.3363 23.3839 34.0212C23.0687 33.706 22.8229 33.3285 22.662 32.9129C22.5011 32.4972 22.4288 32.0526 22.4497 31.6073V31.6073C22.4717 31.1369 22.3896 30.6675 22.2094 30.2324C22.0291 29.7973 21.7551 29.4074 21.4069 29.0904V29.0904C21.0776 28.7903 20.8145 28.4249 20.6345 28.0174C20.4545 27.6099 20.3616 27.1693 20.3616 26.7238C20.3616 26.2783 20.4545 25.8377 20.6345 25.4302C20.8145 25.0227 21.0776 24.6572 21.4069 24.3572V24.3572C22.1133 23.7141 22.4952 22.794 22.4497 21.8402C22.4288 21.395 22.5011 20.9503 22.662 20.5347C22.8229 20.119 23.0687 19.7416 23.3839 19.4264C23.6991 19.1112 24.0765 18.8654 24.4922 18.7045C24.9079 18.5436 25.3525 18.4713 25.7977 18.4922V18.4922C26.7495 18.5377 27.6716 18.1558 28.3147 17.4494V17.4494Z" stroke="black" stroke-width="1.5"/>
<path d="M27.4441 26.7238L29.6009 28.8806L33.9185 24.567" stroke="black" stroke-width="1.5" stroke-linecap="round" stroke-linejoin="round"/>
<path d="M14.8513 16.83C16.9505 16.83 18.9637 15.9961 20.448 14.5118C21.9324 13.0274 22.7663 11.0142 22.7663 8.91501C22.7663 6.81582 21.9324 4.80261 20.448 3.31825C18.9637 1.8339 16.9505 1 14.8513 1C12.7521 1 10.7389 1.8339 9.25451 3.31825C7.77016 4.80261 6.93626 6.81582 6.93626 8.91501C6.93626 11.0142 7.77016 13.0274 9.25451 14.5118C10.7389 15.9961 12.7521 16.83 14.8513 16.83V16.83Z" stroke="black" stroke-width="1.5" stroke-linecap="round" stroke-linejoin="round"/>
</svg>
