<svg width="40" height="40" viewBox="0 0 40 40" fill="none" xmlns="http://www.w3.org/2000/svg">
<circle cx="20" cy="20" r="19" fill="#F8FAFB" stroke="#979797"/>
<path d="M21 39C17 39.4 12.6667 37.5 11 36.5V34L11.5 32L13 30.5H26L28.5 31L30 33V36C28.6667 36.8333 25 38.6 21 39Z" fill="#979797"/>
<circle cx="20" cy="19" r="8" fill="#979797"/>
<path d="M30 35.9375V34.0584C30 32.148 28.4087 30.5938 26.4527 30.5938H14.5473C12.5913 30.5938 11 32.148 11 34.0584V36.4998" stroke="#979797" stroke-width="1.6"/>
<path fill-rule="evenodd" clip-rule="evenodd" d="M12.7812 19.0156C12.7812 14.5958 16.2439 11 20.5 11C24.7561 11 28.2188 14.5958 28.2188 19.0156C28.2188 23.4355 24.7561 27.0313 20.5 27.0313C16.2439 27.0313 12.7812 23.4355 12.7812 19.0156Z" stroke="#979797" stroke-width="1.6"/>
</svg>
