<svg width="268" height="209" viewBox="0 0 268 209" fill="none" xmlns="http://www.w3.org/2000/svg">
<g filter="url(#filter0_d)">
<rect x="41.6387" y="40.75" width="185.432" height="126.682" rx="15.25" fill="white" stroke="#D9D9D9" stroke-width="1.5"/>
</g>
<path fill-rule="evenodd" clip-rule="evenodd" d="M97.6373 126.834H86.3129L77.8209 94.4367C77.4178 92.9464 76.562 91.6289 75.3031 91.008C72.1614 89.4475 68.6995 88.2056 64.9229 87.5793V86.332H83.1656C85.6834 86.332 87.5717 88.2056 87.8865 90.3816L92.2926 113.751L103.611 86.332H114.621L97.6373 126.834ZM120.916 126.834H110.221L119.027 86.332H129.722L120.916 126.834ZM143.559 97.5523C143.874 95.3709 145.762 94.1236 147.965 94.1236C151.427 93.8104 155.198 94.4368 158.345 95.9919L160.234 87.2716C157.086 86.0243 153.624 85.3979 150.483 85.3979C140.102 85.3979 132.549 91.0081 132.549 98.7942C132.549 104.718 137.899 107.828 141.676 109.701C145.762 111.57 147.336 112.817 147.021 114.685C147.021 117.487 143.874 118.735 140.732 118.735C136.955 118.735 133.179 117.801 129.722 116.24L127.834 124.966C131.611 126.521 135.696 127.147 139.473 127.147C151.112 127.455 158.345 121.85 158.345 113.438C158.345 102.844 143.559 102.223 143.559 97.5523ZM195.775 126.834L187.283 86.332H178.162C176.273 86.332 174.385 87.5793 173.756 89.4475L158.031 126.834H169.04L171.238 120.916H184.765L186.024 126.834H195.775ZM179.735 97.2392L182.877 112.504H174.07L179.735 97.2392Z" fill="#172B85"/>
<defs>
<filter id="filter0_d" x="0.888672" y="0" width="266.932" height="208.182" filterUnits="userSpaceOnUse" color-interpolation-filters="sRGB">
<feFlood flood-opacity="0" result="BackgroundImageFix"/>
<feColorMatrix in="SourceAlpha" type="matrix" values="0 0 0 0 0 0 0 0 0 0 0 0 0 0 0 0 0 0 127 0"/>
<feOffset/>
<feGaussianBlur stdDeviation="20"/>
<feColorMatrix type="matrix" values="0 0 0 0 0 0 0 0 0 0 0 0 0 0 0 0 0 0 0.1 0"/>
<feBlend mode="normal" in2="BackgroundImageFix" result="effect1_dropShadow"/>
<feBlend mode="normal" in="SourceGraphic" in2="effect1_dropShadow" result="shape"/>
</filter>
</defs>
</svg>
