<svg width="228" height="32" viewBox="0 0 228 32" fill="none" xmlns="http://www.w3.org/2000/svg">
<g clip-path="url(#clip0)">
<path d="M31.1852 17.9426C29.7092 20.0588 27.6239 21.6358 24.9296 22.6739L30.1732 32H19.1878L14.749 23.9542H12.1508L10.5777 32H0L6.27795 0H20.3571C24.4812 0 27.6869 0.921745 29.974 2.76523C32.2611 4.60872 33.4046 7.19264 33.4046 10.517C33.4046 13.3495 32.6648 15.8247 31.1852 17.9426ZM18.746 8.31976H15.2066L13.7265 15.8176H18.0761C19.54 15.8176 20.6761 15.4442 21.4845 14.6976C22.2929 13.9509 22.6962 12.9071 22.6945 11.5661C22.6901 9.40189 21.3739 8.31976 18.746 8.31976Z" fill="#0564FF"/>
<path d="M39.6814 0H50.2631L43.9865 32H33.4048L39.6814 0Z" fill="#0564FF"/>
<path d="M55.3743 0H69.5439C72.8317 0 75.679 0.548414 78.0858 1.64524C80.4927 2.74207 82.3384 4.31157 83.6231 6.35376C84.9078 8.39594 85.5506 10.8039 85.5515 13.5776C85.5515 17.2655 84.7142 20.5034 83.0398 23.2913C81.3653 26.0793 79.0415 28.2279 76.0683 29.7373C73.0969 31.2449 69.7113 31.9991 65.9114 32H49.0977L55.3743 0ZM66.2706 23.588C68.9912 23.588 71.1061 22.7122 72.6154 20.9604C74.1247 19.2087 74.8793 16.9607 74.8793 14.2164C74.8793 12.3587 74.3191 10.9264 73.1987 9.91956C72.0784 8.91272 70.4563 8.4102 68.3326 8.41198H64.2977L61.3389 23.588H66.2706Z" fill="#0564FF"/>
<path d="M101.202 8.13666L100.481 11.8856H113.754L112.23 19.6574H98.9121L98.1045 23.862H113.843L112.23 32H86.1333L92.4112 0H117.924L116.309 8.13666H101.202Z" fill="#0564FF"/>
<path d="M147.494 17.9426C146.014 20.0605 143.929 21.6376 141.239 22.6739L146.482 32H135.497L131.058 23.9542H128.46L126.887 32H116.309L122.586 0H136.665C140.79 0 143.996 0.921745 146.283 2.76523C148.57 4.60872 149.714 7.19264 149.714 10.517C149.714 13.3495 148.974 15.8247 147.494 17.9426ZM135.051 8.31976H131.512L130.032 15.8176H134.381C135.846 15.8176 136.982 15.4442 137.79 14.6976C138.597 13.9509 139 12.9071 139 11.5661C138.998 9.40189 137.682 8.31976 135.051 8.31976Z" fill="#0564FF"/>
<path d="M155.99 0H166.572L160.296 32H149.714L155.99 0Z" fill="#0564FF"/>
<path d="M197.376 6.62908L179.979 23.6335H194.775L193.117 32H164.286L165.587 25.3709L182.984 8.3652H169.35L171.011 0H198.671L197.376 6.62908Z" fill="#0564FF"/>
<path d="M211.275 8.13666L210.558 11.8856H223.83L222.305 19.6574H208.989L208.182 23.862H223.92L222.305 32H196.21L202.487 0H228L226.386 8.13666H211.275Z" fill="#0564FF"/>
</g>
<defs>
<clipPath id="clip0">
<rect width="228" height="32" fill="white"/>
</clipPath>
</defs>
</svg>
