<svg width="287" height="164" viewBox="0 0 287 164" fill="none" xmlns="http://www.w3.org/2000/svg">
<g clip-path="url(#clip0)">
<path opacity="0.1" d="M172.531 118.205C178.075 117.888 184.954 114.12 190.303 112.454C196.633 110.487 202.989 108.594 209.37 106.776C231.582 100.445 254.033 95.0492 276.722 90.5906C278.839 90.1733 280.96 89.7662 283.084 89.3691C279.775 82.2065 274.649 76.0388 268.217 71.4817C268.382 69.9137 268.466 68.3383 268.468 66.7616C268.468 41.8445 248.591 21.6448 224.063 21.6448C216.512 21.6368 209.087 23.5894 202.513 27.3124C185.153 15.8717 162.494 8.94745 137.702 8.94745C102.475 8.94745 71.5493 22.9291 54.0257 43.9833L136.383 57.9223L186.894 66.4676C129.311 68.1892 71.5493 69.9008 14.1317 65.8594C6.55233 73.2065 1.7551 82.9627 0.559889 93.4606C-0.635321 103.958 1.84569 114.546 7.5789 123.415C7.5789 124.317 7.61654 125.212 7.68427 126.099C9.14687 126.519 10.5593 126.926 11.8262 127.192C32.1654 131.497 52.6351 135.099 73.2352 138C58.0548 147.377 39.5679 148.704 22.0568 152.675C30.5364 159.687 42.0515 163.985 54.7407 163.985H243.679C264.138 163.985 280.721 149.717 280.721 132.113C283.791 127.042 285.836 121.415 286.742 115.553C248.885 119.215 210.556 116.036 172.531 118.205Z" fill="#6C63FF"/>
<path opacity="0.1" d="M287 108.056C287.02 100.801 285.298 93.6473 281.98 87.1988C278.662 80.7503 273.844 75.1959 267.933 71.0042C268.097 69.4369 268.181 67.8624 268.184 66.2866C268.184 41.3694 248.297 21.1773 223.779 21.1773C216.227 21.1692 208.802 23.121 202.227 26.8424C184.866 15.3967 162.205 8.46991 137.414 8.46991C97.088 8.46991 62.3771 26.8047 46.9834 53.0967C46.128 53.0464 45.2675 53.0187 44.3994 53.0187C19.879 53.0187 -0.00528439 73.2184 -0.00528439 98.1356C-0.0224712 106.937 2.51576 115.553 7.30017 122.935C7.30017 145.354 28.4213 163.527 54.4645 163.527H243.408C263.864 163.527 280.447 149.257 280.447 131.653C284.749 124.538 287.016 116.375 287 108.056Z" fill="#0564FF"/>
<path d="M234.386 80.4141C234.028 80.1382 233.608 79.9536 233.162 79.8762C232.693 79.7681 232.214 79.7003 231.737 79.6249L225.56 78.7327C224.937 78.6167 224.301 78.5829 223.669 78.6321C223.352 78.6582 223.043 78.7471 222.76 78.8938C222.478 79.0405 222.227 79.2421 222.023 79.4867C221.839 79.7142 221.738 79.998 221.737 80.2909C221.772 80.5857 221.867 80.87 222.018 81.1253C222.078 81.2447 222.129 81.3681 222.171 81.4948C222.23 81.7791 222.304 82.0601 222.392 82.3368C222.419 82.3967 222.455 82.4525 222.497 82.5027C222.498 82.5169 222.498 82.5312 222.497 82.5454C222.43 82.8922 222.648 83.2541 222.55 83.5884C222.465 83.8749 222.186 84.0484 222.011 84.2871C221.893 84.4565 221.829 84.6566 221.824 84.8627C221.82 85.0687 221.876 85.2715 221.986 85.4458C222.174 85.7373 222.515 85.9359 222.613 86.2701C222.741 86.71 222.394 87.1347 222.086 87.474C221.518 88.0986 220.993 88.7612 220.515 89.457C220.381 89.6282 220.294 89.832 220.265 90.0477C220.237 90.485 220.656 90.8695 220.583 91.3043C220.525 91.6461 220.192 91.8548 219.903 92.0583C218.837 92.7621 217.982 93.8931 217.896 95.1724C217.623 93.137 216.781 91.2203 215.468 89.643C215.109 89.2107 214.715 88.7759 214.567 88.228C214.512 88.0094 214.502 87.7756 214.427 87.5645C214.176 86.8985 213.378 86.6119 213.029 85.9987C212.778 85.5664 212.778 85.011 212.467 84.6314C212.156 84.2519 211.667 84.1665 211.399 83.7995C211.265 83.551 211.151 83.2921 211.057 83.0254C210.945 82.808 210.787 82.6176 210.593 82.4675C210.556 82.4378 210.518 82.4101 210.478 82.3845C210.52 82.3472 210.553 82.3015 210.576 82.2504C210.599 82.1993 210.611 82.144 210.611 82.088C210.611 81.7939 210.32 81.6004 210.067 81.4546C209.74 81.2686 209.422 81.0675 209.111 80.8589C209.45 80.7006 209.744 80.4595 209.966 80.1577C210.245 79.7075 210.36 79.175 210.292 78.6497C210.275 78.2258 210.117 77.8197 209.843 77.4961C209.685 77.3277 209.487 77.2071 209.321 77.0487C208.892 76.629 208.747 76.0082 208.569 75.4352C208.333 74.6812 207.964 73.8895 207.277 73.4898C206.946 73.2963 206.559 73.2058 206.236 73.0023C205.912 72.7987 205.641 72.4141 205.754 72.0447C205.829 71.7933 206.063 71.6199 206.221 71.4063C206.409 71.13 206.482 70.7904 206.422 70.4611C206.362 70.1317 206.176 69.8392 205.902 69.647C205.716 69.5288 205.488 69.4258 205.45 69.2096C205.305 69.1718 205.174 69.0938 205.071 68.9844C204.968 68.8751 204.898 68.7388 204.868 68.5914C204.812 68.2958 204.812 67.9922 204.868 67.6966C204.934 67.2291 204.998 66.7633 205.062 66.2992C205.172 66.3452 205.291 66.3689 205.41 66.3689C205.53 66.3689 205.649 66.3452 205.759 66.2992C205.976 66.6522 206.228 66.9823 206.512 67.2844C207.276 68.1882 207.87 69.2227 208.268 70.3381C208.411 70.7403 208.556 71.1901 208.928 71.4038C209.056 71.4767 209.201 71.5144 209.326 71.5923C209.481 71.7003 209.614 71.8368 209.718 71.9944C210.019 72.394 210.32 72.7911 210.618 73.1908L210.633 73.2511C210.642 73.2865 210.655 73.3204 210.674 73.3516C210.729 73.4143 210.806 73.4537 210.889 73.4622C211.813 73.6758 212.849 73.8719 213.649 73.3667C214.372 72.9143 214.688 72.0195 215.3 71.4214C215.734 70.9966 216.348 70.6674 216.471 70.0692C216.325 70.0239 216.181 69.9711 216.04 69.9109C216.165 69.7852 216.291 69.6394 216.461 69.4735C216.709 69.2304 216.933 68.9636 217.129 68.6768C217.34 68.323 217.509 67.945 217.63 67.5508C218.114 66.1702 218.599 64.7887 219.085 63.4063C219.316 62.7529 219.547 62.0944 219.838 61.4585C220.139 60.7699 220.495 60.1089 220.824 59.4328C221.672 57.6745 222.327 55.8289 222.776 53.9286C222.855 53.6693 222.882 53.3966 222.854 53.1268C222.783 52.692 222.455 52.3502 222.141 52.0411C221.826 51.6991 221.466 51.4007 221.072 51.1539C220.875 51.0306 220.654 50.948 220.424 50.9109C220.194 50.8738 219.959 50.8829 219.733 50.9377C219.09 51.1262 218.687 51.7847 218.539 52.4457C218.391 53.1067 218.446 53.7878 218.383 54.4564C218.293 55.424 217.962 56.359 217.881 57.3291C217.839 57.8896 217.881 58.4576 217.814 59.0181C217.69 59.7516 217.435 60.4566 217.061 61.0991C216.247 62.6314 215.146 63.9917 213.817 65.1054C213.664 65.2335 213.506 65.3567 213.355 65.4949C213.355 65.3869 213.373 65.2763 213.388 65.1682C213.279 65.1967 213.172 65.2345 213.069 65.2813C213.082 65.1544 213.069 65.0262 213.032 64.9043C212.831 64.3036 211.938 64.1503 211.777 63.5396C211.751 63.3885 211.736 63.2355 211.735 63.0821C211.682 62.5468 211.318 62.0944 211.193 61.5741C211.078 61.0941 211.165 60.5688 210.942 60.1239C210.752 59.8458 210.528 59.5925 210.275 59.3699C209.973 59.025 209.756 58.6146 209.64 58.1711C209.607 58.0479 209.577 57.9198 209.542 57.7966C209.58 57.5177 209.549 57.2337 209.452 56.9697C209.224 56.4017 208.634 56.0373 208.421 55.4617C208.255 55.0143 208.328 54.4564 208.014 54.1095C207.848 53.9438 207.644 53.8206 207.42 53.7501C206.272 53.3021 205.067 53.0171 203.84 52.9031C203.152 52.8403 202.395 52.8051 201.903 52.32C201.329 51.7571 201.301 50.7442 200.629 50.3094C200.037 49.9248 199.199 50.2088 198.74 50.7492C198.671 50.8287 198.607 50.9127 198.549 51.0005C198.465 50.6637 198.447 50.3137 198.496 49.9701C198.496 49.8846 198.514 49.7967 198.521 49.7187C199.654 49.3479 200.618 48.5853 201.241 47.5673C201.241 47.5673 201.241 47.5673 201.241 47.5824L201.271 47.6603C201.344 47.8438 201.459 48.0197 201.63 48.0398C201.743 48.0385 201.853 47.9986 201.941 47.9267C202.092 47.8214 202.232 47.7 202.357 47.5648C202.421 47.4944 202.481 47.4216 202.538 47.3462C202.653 47.1892 202.753 47.0208 202.834 46.8435C202.958 46.5768 203.043 46.293 203.085 46.0015C203.13 45.71 203.135 45.4109 203.185 45.1193C203.232 44.8937 203.293 44.6712 203.368 44.4533C203.393 44.3804 203.418 44.3075 203.441 44.2346C203.464 44.1618 203.496 44.0637 203.521 43.9833C203.678 43.4664 203.763 42.9301 203.772 42.3899C203.772 42.2994 203.772 42.2089 203.772 42.1184C203.763 41.7658 203.684 41.4186 203.539 41.0971C203.394 40.7756 203.187 40.4862 202.929 40.246C202.498 39.8916 201.926 39.7433 201.61 39.2633C201.404 38.9416 201.359 38.5269 201.238 38.1499C201.108 37.6987 200.854 37.2931 200.506 36.979C200.157 36.6649 199.728 36.455 199.266 36.3729C198.711 36.3119 198.152 36.4656 197.706 36.8027L197.671 36.8304C197.422 37.0207 197.211 37.256 197.049 37.5241C196.717 37.4326 196.414 37.2598 196.166 37.0214C195.915 36.7876 195.722 36.4936 195.468 36.2674C195.231 36.0501 194.941 35.9005 194.627 35.8342C194.312 35.7679 193.986 35.7873 193.682 35.8904C193.369 36.0161 193.09 36.2145 192.868 36.4692C192.646 36.7239 192.487 37.0277 192.405 37.3557C192.267 37.8734 192.292 38.4691 192.004 38.9014C191.78 39.2381 191.414 39.404 191.158 39.7106C190.999 39.9048 190.891 40.1353 190.842 40.3817C190.812 40.5195 190.797 40.6603 190.799 40.8014C190.799 40.8643 190.799 40.9271 190.814 40.9874C190.814 40.9874 190.814 41.0075 190.814 41.0176C190.823 41.0865 190.838 41.1545 190.857 41.2212C190.928 41.476 191.056 41.7113 191.231 41.9098C191.397 42.0999 191.603 42.2495 191.836 42.3471C191.93 42.3842 192.028 42.4152 192.127 42.4401L192.425 42.508L192.53 42.5331C192.17 43.2108 191.97 43.9623 191.946 44.7297C191.921 45.4971 192.073 46.2599 192.39 46.9591C192.39 47.0295 192.372 47.0999 192.365 47.1702C192.324 48.1599 192.368 49.1512 192.495 50.1334C192.53 50.523 192.551 50.9528 192.312 51.2619C192.204 51.3835 192.082 51.4923 191.948 51.5861C192.084 51.4102 192.222 51.2368 192.362 51.0634C192.009 50.7065 191.449 50.6612 190.947 50.6964C189.976 50.7691 189.034 51.0576 188.188 51.5409C187.626 51.8651 187.049 52.2949 186.407 52.2195C186.028 52.1768 185.654 51.9682 185.285 52.0687C185.078 52.1537 184.884 52.2688 184.711 52.4105C184.573 52.5091 184.408 52.5603 184.239 52.5563C183.845 52.0712 183.236 51.742 182.764 51.3474C182.227 50.8687 181.736 50.3411 181.296 49.7715C180.483 48.7888 179.673 47.8036 178.875 46.8108C178.203 45.9764 177.513 45.0741 177.395 44.0059C177.383 43.9 177.377 43.7934 177.378 43.6867C177.394 43.1792 177.458 42.6743 177.568 42.1787C177.598 42.0591 177.598 41.934 177.568 41.8143C177.493 41.563 177.205 41.47 176.956 41.4147C176.989 41.2212 177.011 41.0226 177.024 40.8341C177.164 38.6726 177.011 36.476 177.468 34.3598C177.641 33.5454 177.925 32.7211 178.509 32.1304C179.425 31.203 180.958 30.9793 181.66 29.881C182.247 28.9662 182.014 27.6718 181.276 26.865C180.539 26.0582 179.402 25.729 178.321 25.7692C178.018 25.7588 177.718 25.8393 177.46 26.0004C177.22 26.2145 177.04 26.4885 176.939 26.7946L175.862 29.416C175.55 30.0985 175.287 30.8024 175.075 31.5222C174.774 32.6231 174.706 33.7842 174.468 34.8951C174.468 35.7496 173.918 36.8153 173.617 37.602C173.281 38.4867 172.917 39.3613 172.614 40.2636C172.538 40.4898 172.275 41.1608 172.112 41.7716C172.05 41.8075 171.993 41.8505 171.941 41.8998C171.81 42.0679 171.691 42.2452 171.585 42.4301C171.357 42.7317 170.985 42.8925 170.735 43.1841C170.484 43.4756 170.431 44.011 170.78 44.1567C170.85 44.1806 170.924 44.1966 170.998 44.2045C171.044 44.2083 171.089 44.2159 171.133 44.2271C171.51 44.3327 171.658 44.8077 171.603 45.1998C171.547 45.5918 171.352 45.9538 171.319 46.3459C171.251 47.0395 171.658 47.6855 172.049 48.2686C172.454 48.9006 172.902 49.5044 173.389 50.0756C173.742 50.4727 174.141 50.8296 174.498 51.2117C175.855 52.6091 176.934 54.2427 178.153 55.7608C178.591 56.3337 179.09 56.8578 179.641 57.3241C180 57.6057 180.376 57.8651 180.767 58.1007L182.864 59.4328C183.102 59.6074 183.371 59.7345 183.657 59.8073C183.75 59.8198 183.845 59.8198 183.938 59.8073C183.951 59.8701 183.961 59.9304 183.976 59.9932C184.139 60.6517 184.497 61.2499 184.538 61.921C184.578 62.592 184.518 63.2782 184.565 63.9568C184.61 64.5826 184.748 65.2134 184.783 65.8292C184.854 67.0155 184.563 68.1867 184.282 69.3479C183.858 71.0469 183.602 72.7811 182.776 74.3218C182.546 74.7465 182.275 75.1788 182.275 75.6639C182.275 75.7217 182.275 75.782 182.29 75.8398L181.913 76.0534C181.803 76.1163 181.693 76.1791 181.592 76.2445C181.116 76.5561 180.606 76.9004 180.411 77.4383C180.253 77.8731 180.325 78.3707 180.135 78.793C180.126 78.8119 180.116 78.8304 180.105 78.8483C179.904 79.2403 179.505 79.5319 179.415 79.9617C179.347 80.2909 179.477 80.6403 179.415 80.967C179.415 80.967 179.415 80.967 179.415 80.9796C179.358 81.1437 179.312 81.3117 179.279 81.4822C179.277 81.538 179.282 81.5938 179.294 81.6481C179.342 81.8385 179.447 82.0096 179.595 82.1382C179.686 82.2251 179.784 82.3034 179.889 82.372C179.996 82.4423 180.106 82.5077 180.22 82.568L180.285 82.6032C180.381 82.6535 180.476 82.7012 180.574 82.7464L180.639 82.7741C180.752 82.8244 180.867 82.8696 180.983 82.9098L181.063 82.9349C181.153 82.9651 181.246 82.9928 181.339 83.0154L181.402 83.0355L181.459 83.048L181.71 83.1008L181.803 83.1184C181.913 83.1369 182.026 83.1519 182.142 83.1637H182.242C182.327 83.1637 182.41 83.1762 182.493 83.1787H182.611C182.699 83.1787 182.784 83.1787 182.862 83.1787H182.952C183.07 83.1787 183.188 83.1611 183.306 83.1461H183.343C183.449 83.131 183.554 83.1134 183.66 83.0908L183.74 83.0732C183.838 83.0506 183.935 83.0279 184.033 82.9978L184.086 82.9827C184.204 82.9475 184.322 82.9098 184.437 82.8646C184.837 82.7002 185.224 82.5078 185.596 82.289C185.847 82.1508 186.098 82.01 186.349 81.8819C186.535 81.7879 186.726 81.704 186.921 81.6305C187.395 81.4275 187.912 81.3413 188.426 81.3792C188.68 81.4139 188.931 81.4651 189.179 81.5325C189.179 81.5602 189.179 81.5878 189.179 81.6154C189.383 82.8218 189.584 84.0282 189.783 85.2346C190.112 84.9978 190.459 84.7885 190.822 84.6088C190.754 84.791 190.709 84.981 190.689 85.1743C190.674 85.3239 190.674 85.4746 190.689 85.6242C190.712 85.863 190.762 86.1269 190.619 86.3154C190.531 86.431 190.368 86.4963 190.32 86.627C190.285 86.7607 190.277 86.8998 190.295 87.0367C190.285 87.1929 190.219 87.3403 190.109 87.4519C190 87.5635 189.854 87.632 189.698 87.6449C189.77 87.8472 189.772 88.0679 189.703 88.2713C189.634 88.4746 189.499 88.6489 189.319 88.7659C189.214 88.8165 189.116 88.8807 189.028 88.9569C188.942 89.0679 188.885 89.1982 188.86 89.3364C188.529 90.5811 187.847 91.7039 186.896 92.5711C186.539 92.8519 186.214 93.1704 185.925 93.5211C185.747 93.7927 185.599 94.0836 185.486 94.3882C184.817 96.0269 184.138 97.6664 183.449 99.3068C183.067 100.224 182.696 101.157 182.576 102.144C182.275 104.854 179.866 107.151 180.318 109.84C180.409 110.512 180.68 111.147 181.101 111.677C181.602 112.283 182.355 112.63 183.108 112.911C185.042 113.665 187.081 114.078 189.114 114.492L192.305 115.148C192.931 115.293 193.566 115.393 194.206 115.45C194.976 115.503 195.767 115.43 196.517 115.626C196.981 115.746 197.425 115.97 197.904 115.995C198.316 116.018 198.822 115.93 199.066 116.267C199.309 116.604 199.121 117.048 199.352 117.347C199.723 117.823 200.629 117.347 201.033 117.795C201.143 117.967 201.227 118.154 201.283 118.35C201.345 118.472 201.43 118.58 201.534 118.667C201.559 118.809 201.569 118.953 201.564 119.097C201.512 119.68 201.391 120.256 201.203 120.811C200.902 121.831 200.602 122.853 200.303 123.875C200.188 124.236 200.104 124.605 200.052 124.98C200.033 125.163 200.033 125.346 200.052 125.528C200.104 126.084 200.423 126.657 200.952 126.838C201.363 126.947 201.8 126.893 202.172 126.687C202.53 126.499 202.867 126.272 203.175 126.008C203.73 125.587 204.219 125.084 204.623 124.516C205.877 122.636 205.471 120.092 206.351 118.014C206.936 116.626 208.075 115.5 208.453 114.037C208.542 113.759 208.552 113.462 208.484 113.178C208.325 112.675 207.791 112.389 207.292 112.208H207.269C206.859 112.061 206.44 111.941 206.015 111.848C205.91 111.826 205.802 111.808 205.694 111.791C205.455 111.596 205.265 111.348 205.139 111.067C205.12 110.917 205.08 110.771 205.021 110.632C204.982 110.572 204.928 110.522 204.865 110.488C204.802 110.453 204.732 110.433 204.66 110.431C204.409 110.406 204.073 110.496 203.8 110.476C203.24 110.436 202.869 109.885 202.367 109.632C201.865 109.378 201.321 109.441 200.787 109.478C200.596 109.504 200.401 109.492 200.215 109.443C199.992 109.34 199.788 109.2 199.613 109.028C199.304 108.788 198.943 108.622 198.56 108.545C198.176 108.468 197.78 108.481 197.402 108.584C197.162 108.681 196.908 108.738 196.65 108.754C196.161 108.727 195.814 108.289 195.453 107.958C194.465 107.05 193.057 106.812 191.858 106.216C191.675 106.148 191.521 106.016 191.427 105.844C191.289 105.502 191.6 105.16 191.881 104.927L193.943 103.21C196.201 101.33 199.023 99.915 200.072 97.1579C200.181 96.7882 200.351 96.4392 200.573 96.1249C200.655 96.029 200.748 95.9445 200.852 95.8736C201.308 95.5775 201.861 95.4694 202.395 95.572C203.045 95.7179 203.662 95.9875 204.211 96.3662C205.109 96.9108 205.983 97.4972 206.833 98.1255C207.674 98.7281 208.475 99.3864 209.229 100.096C210.546 101.353 211.642 102.843 212.869 104.198C214.096 105.552 215.498 106.817 217.201 107.465C218.905 108.114 220.964 108.086 222.427 106.998C224.115 105.741 224.657 103.494 225.084 101.433C226.025 100.523 226.308 99.1384 226.767 97.9144C227.056 97.1378 227.425 96.4064 227.736 95.6323C228.107 94.7225 228.398 93.7825 228.689 92.845C229.019 91.9036 229.243 90.9283 229.356 89.9371C229.477 88.3713 229.058 86.7049 229.497 85.2346C230.076 85.1065 230.603 84.7797 231.173 84.5887C232.021 84.3097 232.929 84.355 233.827 84.36H233.885C234.194 84.393 234.505 84.3194 234.768 84.1514C235.069 83.9001 235.116 83.4703 235.131 83.0807C235.166 82.1181 235.106 81.0374 234.386 80.4141ZM198.037 37.5416C197.83 37.5931 197.615 37.6084 197.402 37.5869L198.037 37.5416Z" fill="url(#paint0_linear)"/>
<path d="M199.026 53.441C198.722 53.6995 198.366 53.889 197.982 53.9964L196.204 54.6348C195.238 54.9817 194.229 55.331 193.211 55.2054C192.641 55.135 190.2 54.7756 189.832 54.3307C189.27 53.6421 191.239 52.6292 191.911 52.0486C192.064 51.9388 192.205 51.8143 192.333 51.6766C192.584 51.37 192.551 50.9402 192.516 50.5532C192.388 49.5726 192.345 48.583 192.385 47.595C192.405 47.3595 192.438 47.1253 192.486 46.8938C192.737 45.7376 193.81 46.1599 194.658 46.4665C195.679 46.7987 196.666 47.227 197.606 47.7458C197.892 47.8937 198.141 48.1051 198.334 48.3641C198.705 48.9271 198.557 49.666 198.497 50.3747C198.444 50.9252 198.447 51.4529 198.79 51.8526C198.963 52.0054 199.122 52.1736 199.264 52.3552C199.345 52.5382 199.365 52.7419 199.322 52.9371C199.279 53.1322 199.176 53.3087 199.026 53.441Z" fill="#BE6F72"/>
<path d="M174.455 35.3274C174.706 34.214 174.761 33.0654 175.062 31.962C175.275 31.2446 175.538 30.5433 175.85 29.8634L176.956 27.2772C177.057 26.9718 177.237 26.6987 177.478 26.4855C177.736 26.3254 178.035 26.245 178.339 26.2542C179.42 26.214 180.556 26.5508 181.294 27.3475C182.031 28.1443 182.265 29.4336 181.678 30.3459C180.975 31.4443 179.442 31.6654 178.527 32.5904C177.942 33.181 177.659 34.0028 177.486 34.8147C177.029 36.9259 177.182 39.115 177.042 41.2714C176.996 41.9425 176.866 42.709 176.289 43.0559C175.94 43.2271 175.552 43.3025 175.165 43.2745L173.519 43.3022C173.243 43.3022 172.242 43.4756 172.059 43.267C171.738 42.9026 172.471 41.0879 172.604 40.6833C172.9 39.786 173.263 38.9114 173.607 38.0292C173.906 37.2425 174.455 36.1794 174.455 35.3274Z" fill="#BE6F72"/>
<path d="M208.436 114.286C208.058 115.739 206.919 116.87 206.334 118.255C205.454 120.328 205.85 122.864 204.606 124.739C204.202 125.309 203.714 125.813 203.158 126.235C202.85 126.497 202.513 126.724 202.155 126.911C201.783 127.116 201.346 127.17 200.935 127.061C200.406 126.881 200.087 126.308 200.035 125.755C200.016 125.573 200.016 125.39 200.035 125.209C200.087 124.835 200.171 124.466 200.285 124.106C200.587 123.089 200.887 122.07 201.186 121.05C201.374 120.496 201.495 119.923 201.547 119.341C201.58 118.707 201.179 117.883 201.349 117.292C201.427 117.026 201.718 116.79 201.851 116.566C202.04 116.244 202.185 115.898 202.282 115.538C202.488 114.837 202.629 114.088 203.06 113.497C203.342 113.147 203.671 112.838 204.039 112.58C204.31 112.341 204.628 112.163 204.972 112.054C205.306 111.996 205.649 112.012 205.975 112.102C206.401 112.193 206.82 112.312 207.23 112.459H207.252C207.754 112.64 208.286 112.919 208.444 113.427C208.521 113.708 208.518 114.006 208.436 114.286Z" fill="#3F3D56"/>
<path d="M235.13 83.3874C235.115 83.7769 235.067 84.2117 234.766 84.4555C234.504 84.6236 234.192 84.6971 233.883 84.6641H233.815C232.919 84.6641 232.009 84.6139 231.161 84.8929C230.516 85.1065 229.924 85.4986 229.252 85.5765C228.326 85.682 227.455 85.1744 226.635 84.732C225.863 84.3151 225.07 83.9377 224.259 83.601C223.727 83.3823 222.641 83.2416 222.385 82.6585C222.298 82.3826 222.224 82.1024 222.164 81.8191C222.122 81.6924 222.071 81.5689 222.011 81.4496C221.861 81.1949 221.765 80.9116 221.73 80.6177C221.731 80.3248 221.832 80.041 222.016 79.8134C222.221 79.5707 222.472 79.3709 222.754 79.2256C223.036 79.0802 223.344 78.9921 223.66 78.9664C224.292 78.9172 224.928 78.951 225.551 79.067L231.728 79.9567C232.204 80.0245 232.684 80.0924 233.153 80.208C233.598 80.2854 234.018 80.47 234.377 80.7459C235.107 81.3591 235.167 82.4373 235.13 83.3874Z" fill="#3F3D56"/>
<path d="M229.7 84.9959C228.947 86.5868 229.489 88.4693 229.354 90.2286C229.24 91.2173 229.016 92.1902 228.686 93.129C228.395 94.064 228.104 95.0014 227.733 95.9087C227.422 96.6627 227.053 97.4167 226.765 98.1858C226.306 99.4123 226.012 100.792 225.081 101.704C224.655 103.76 224.113 106.007 222.425 107.254C220.957 108.34 218.912 108.377 217.199 107.721C215.485 107.065 214.093 105.809 212.866 104.454C211.64 103.099 210.543 101.624 209.226 100.362C208.471 99.6526 207.669 98.9951 206.825 98.3944C205.976 97.7761 205.102 97.1947 204.204 96.6502C203.654 96.2732 203.037 96.0045 202.387 95.8585C201.853 95.7559 201.301 95.8639 200.844 96.1601C200.741 96.231 200.647 96.3155 200.566 96.4114C200.343 96.7245 200.173 97.0728 200.064 97.4419C199.011 100.191 196.183 101.604 193.925 103.479L191.863 105.19C191.582 105.424 191.271 105.766 191.409 106.105C191.504 106.277 191.657 106.409 191.841 106.477C193.04 107.07 194.447 107.309 195.436 108.214C195.797 108.546 196.143 108.983 196.632 109.008C196.891 108.993 197.145 108.936 197.385 108.84C197.762 108.738 198.158 108.724 198.542 108.801C198.925 108.878 199.286 109.042 199.595 109.282C199.771 109.454 199.974 109.594 200.197 109.697C200.384 109.746 200.578 109.758 200.769 109.732C201.304 109.694 201.871 109.647 202.35 109.885C202.829 110.124 203.223 110.687 203.782 110.727C204.056 110.747 204.382 110.657 204.643 110.682C204.715 110.684 204.785 110.704 204.848 110.739C204.91 110.774 204.964 110.823 205.004 110.883C205.063 111.021 205.102 111.167 205.122 111.315C205.225 111.67 205.571 111.886 205.797 112.178C206.143 112.625 206.193 113.233 206.158 113.799C206.044 115.567 205.258 117.224 203.96 118.428C203.592 118.805 203.122 119.067 202.608 119.182C202.351 119.236 202.083 119.208 201.842 119.101C201.602 118.994 201.401 118.814 201.268 118.587C201.212 118.391 201.128 118.205 201.018 118.034C200.614 117.589 199.708 118.061 199.337 117.586C199.106 117.29 199.271 116.815 199.051 116.508C198.83 116.201 198.298 116.257 197.889 116.239C197.41 116.214 196.966 115.988 196.502 115.87C195.749 115.674 194.961 115.746 194.191 115.694C193.551 115.637 192.916 115.536 192.29 115.392L189.099 114.739C187.066 114.324 185.027 113.904 183.093 113.163C182.353 112.881 181.607 112.534 181.086 111.931C180.665 111.401 180.395 110.767 180.303 110.096C179.849 107.415 182.257 105.123 182.561 102.421C182.669 101.436 183.063 100.506 183.434 99.5908C184.115 97.9554 184.794 96.3192 185.471 94.6822C185.58 94.3774 185.724 94.0858 185.897 93.8126C186.186 93.4627 186.512 93.145 186.868 92.8651C187.819 92.0008 188.501 90.8804 188.833 89.638C188.857 89.4997 188.915 89.3695 189.001 89.2585C189.09 89.1839 189.187 89.1206 189.292 89.07C189.471 88.9531 189.606 88.7793 189.674 88.5764C189.743 88.3736 189.742 88.1535 189.671 87.9515C189.826 87.9386 189.972 87.8701 190.082 87.7585C190.191 87.6469 190.257 87.4995 190.268 87.3433C190.249 87.2072 190.258 87.0689 190.293 86.9361C190.353 86.8055 190.503 86.7401 190.591 86.6245C190.734 86.436 190.684 86.1721 190.661 85.9358C190.646 85.7863 190.646 85.6355 190.661 85.4859C190.716 84.9537 190.954 84.4572 191.334 84.081C191.933 83.4904 192.786 83.6437 193.614 83.5029C194.44 83.3244 195.247 83.0659 196.023 82.7313C198.199 81.872 200.491 81.341 202.824 81.1555C205.168 80.9708 207.522 81.3464 209.693 82.2513C210.009 82.3794 210.306 82.5484 210.578 82.754C210.772 82.9031 210.93 83.0927 211.043 83.3094C211.135 83.5755 211.249 83.8335 211.384 84.081C211.652 84.4479 212.159 84.5661 212.452 84.9129C212.746 85.2597 212.771 85.8454 213.014 86.2751C213.363 86.8884 214.171 87.1724 214.412 87.8384C214.487 88.0495 214.497 88.2808 214.552 88.4994C214.688 89.0473 215.094 89.4796 215.453 89.9119C216.768 91.4879 217.61 93.4052 217.881 95.4413C217.962 94.167 218.817 93.0385 219.888 92.3348C220.177 92.1463 220.511 91.9377 220.568 91.5959C220.641 91.1636 220.222 90.779 220.25 90.3392C220.28 90.1244 220.367 89.9216 220.5 89.7511C220.979 89.0568 221.503 88.396 222.071 87.7731C222.38 87.4338 222.726 87.0191 222.598 86.5717C222.5 86.2374 222.159 86.0414 221.971 85.7499C221.861 85.576 221.805 85.3736 221.809 85.168C221.814 84.9623 221.878 84.7626 221.996 84.5937C222.171 84.3549 222.45 84.1815 222.535 83.8975C222.633 83.5632 222.415 83.2013 222.482 82.857C222.574 82.5813 222.756 82.3447 222.999 82.1859C223.332 81.8823 223.71 81.633 224.121 81.447C224.783 81.1957 225.52 81.2887 226.223 81.3867C227.397 81.5501 228.714 81.8014 229.376 82.7866C229.8 83.4024 230.016 84.3374 229.7 84.9959Z" fill="#65617D"/>
<path opacity="0.1" d="M235.129 83.3874C235.114 83.7769 235.067 84.2118 234.766 84.4555C234.503 84.6236 234.192 84.6971 233.883 84.6642H233.815C233.918 84.1414 234.552 83.8423 234.663 83.312C234.682 83.1491 234.667 82.984 234.619 82.8271C234.572 82.6701 234.493 82.5246 234.387 82.3996C233.85 81.6733 232.987 81.2712 232.129 80.9771C229.705 80.1445 227.108 79.9498 224.588 80.4116C223.902 80.5234 223.235 80.7289 222.606 81.0223C222.397 81.1531 222.196 81.2958 222.004 81.4496C221.853 81.1949 221.757 80.9116 221.723 80.6177C221.724 80.3248 221.825 80.041 222.009 79.8134C222.213 79.5707 222.464 79.3709 222.746 79.2256C223.028 79.0802 223.336 78.9921 223.652 78.9664C224.284 78.9172 224.92 78.951 225.543 79.067L231.72 79.9567C232.197 80.0245 232.676 80.0924 233.145 80.208C233.59 80.2854 234.011 80.47 234.369 80.7459C235.107 81.3591 235.167 82.4373 235.129 83.3874Z" fill="black"/>
<path opacity="0.1" d="M208.436 114.286C208.058 115.739 206.919 116.87 206.334 118.255C205.454 120.328 205.85 122.864 204.606 124.739C204.202 125.309 203.714 125.813 203.158 126.235C202.85 126.497 202.513 126.724 202.155 126.911C201.783 127.116 201.346 127.17 200.935 127.062C200.406 126.881 200.087 126.308 200.035 125.755C200.016 125.573 200.016 125.39 200.035 125.209L200.05 125.249C200.268 125.777 200.624 126.33 201.186 126.423C201.397 126.438 201.609 126.41 201.808 126.339C202.008 126.269 202.19 126.158 202.345 126.013C203.173 125.347 203.655 124.355 204.114 123.397C204.473 122.707 204.757 121.979 204.962 121.228C205.062 120.801 205.11 120.363 205.213 119.936C205.689 117.86 207.313 116.166 207.671 114.063C207.7 113.918 207.707 113.769 207.691 113.623C207.644 113.431 207.571 113.247 207.476 113.075C207.388 112.88 207.324 112.676 207.285 112.467C207.787 112.648 208.319 112.927 208.477 113.434C208.541 113.717 208.527 114.011 208.436 114.286Z" fill="black"/>
<path opacity="0.1" d="M204.648 110.682C204.416 111.29 204.025 111.825 203.516 112.23C202.802 112.775 201.966 113.138 201.08 113.286C200.668 113.391 200.236 113.386 199.826 113.271C199.269 113.077 198.868 112.555 198.298 112.404C197.892 112.293 197.455 112.391 197.044 112.331C196.304 112.228 195.729 111.662 195.132 111.21C193.303 109.833 190.903 109.388 189.074 108.01C188.992 107.96 188.925 107.89 188.878 107.807C188.843 107.717 188.83 107.619 188.84 107.523C188.847 106.687 189.035 105.863 189.39 105.108C189.681 104.58 190.027 104.086 190.423 103.632C192.062 101.622 193.707 99.5958 195.669 97.8993C196.492 97.1881 197.39 96.5245 198.429 96.2028C199.006 96.0244 200.145 95.856 200.847 96.1576C200.744 96.2285 200.65 96.313 200.569 96.4089C200.345 96.722 200.176 97.0703 200.067 97.4394C199.011 100.191 196.183 101.604 193.926 103.479L191.863 105.191C191.582 105.424 191.271 105.766 191.409 106.105C191.504 106.277 191.657 106.409 191.841 106.477C193.04 107.07 194.447 107.309 195.436 108.214C195.797 108.546 196.143 108.983 196.632 109.008C196.891 108.993 197.145 108.936 197.385 108.84C197.763 108.738 198.159 108.724 198.542 108.801C198.926 108.878 199.286 109.042 199.595 109.282C199.771 109.454 199.975 109.594 200.197 109.697C200.384 109.746 200.578 109.758 200.769 109.732C201.304 109.694 201.871 109.647 202.35 109.885C202.829 110.124 203.223 110.687 203.782 110.727C204.061 110.747 204.387 110.652 204.648 110.682Z" fill="black"/>
<path d="M181.575 76.5712C181.099 76.8779 180.592 77.2247 180.396 77.7575C180.236 78.1923 180.311 78.69 180.118 79.1122C179.925 79.5345 179.491 79.8285 179.395 80.2809C179.327 80.6102 179.46 80.957 179.395 81.2862C179.338 81.4575 179.292 81.632 179.257 81.809C179.232 82.1835 179.553 82.4876 179.867 82.6962C180.535 83.1313 181.295 83.4034 182.086 83.4907C182.878 83.578 183.679 83.478 184.425 83.1989C185.095 82.9476 185.7 82.5379 186.342 82.2162C186.968 81.8549 187.685 81.6804 188.407 81.7135C188.821 81.7587 189.217 81.9095 189.631 81.9648C189.835 82.0053 190.047 81.9954 190.246 81.9358C190.446 81.8763 190.628 81.7689 190.777 81.623C190.905 81.4462 190.991 81.2425 191.028 81.0274C191.377 79.6476 191.219 78.1848 190.888 76.7974C190.557 75.4101 190.055 74.0755 189.701 72.6957C189.45 71.6727 189.257 70.6247 188.838 69.6571C188.419 68.6894 187.714 67.7896 186.728 67.4202C186.651 67.3819 186.562 67.3705 186.477 67.3875C186.414 67.414 186.358 67.4554 186.314 67.5081C185.534 68.3362 184.947 69.3266 184.593 70.4085C184.199 71.6124 184.092 72.8892 183.73 74.0981C183.575 74.6008 183.374 75.2743 182.978 75.6589C182.581 76.0434 182.024 76.2822 181.575 76.5712Z" fill="#3F3D56"/>
<path opacity="0.1" d="M191.036 81.0198C190.994 81.2356 190.904 81.4392 190.772 81.6154C190.624 81.7618 190.441 81.8693 190.241 81.9284C190.041 81.9876 189.83 81.9966 189.626 81.9547C189.214 81.9045 188.818 81.7512 188.404 81.7034C187.682 81.6699 186.965 81.8444 186.339 82.2061C185.697 82.5278 185.085 82.9274 184.42 83.1863C183.448 83.5557 182.385 83.6163 181.377 83.3597C180.842 83.2249 180.333 83.0006 179.872 82.6962C179.556 82.4901 179.237 82.1935 179.262 81.809C179.297 81.6328 179.343 81.4591 179.4 81.2887C179.465 80.9595 179.335 80.6126 179.4 80.2834C179.495 79.831 179.932 79.5294 180.123 79.1122C180.313 78.695 180.241 78.1948 180.399 77.76C180.594 77.2247 181.104 76.8803 181.58 76.5712C182.057 76.262 182.624 76.0258 183.005 75.6513C183.054 75.593 183.099 75.5308 183.138 75.4653C183.413 75.0404 183.615 74.5723 183.735 74.0805C184.104 72.8691 184.204 71.5948 184.596 70.3884C184.951 69.3073 185.539 68.3179 186.319 67.4905C186.361 67.4366 186.416 67.3949 186.48 67.3699C186.564 67.3526 186.652 67.3632 186.731 67.4001C187.714 67.772 188.419 68.6718 188.84 69.6394C189.262 70.6071 189.44 71.6501 189.703 72.6755C190.055 74.0553 190.559 75.395 190.89 76.7798C191.221 78.1646 191.384 79.6375 191.036 81.0198Z" fill="black"/>
<path opacity="0.1" d="M198.497 50.3672C197.317 50.7427 196.041 50.6681 194.913 50.1578C193.785 49.6475 192.885 48.7374 192.386 47.6026C192.405 47.367 192.439 47.1329 192.486 46.9013C192.737 45.7452 193.811 46.1674 194.659 46.4741C195.679 46.8062 196.666 47.2346 197.606 47.7533C197.893 47.9012 198.142 48.1127 198.334 48.3716C198.705 48.9271 198.557 49.666 198.497 50.3672Z" fill="black"/>
<path d="M196.981 50.3521C199.752 50.3521 201.999 48.1016 201.999 45.3254C201.999 42.5493 199.752 40.2988 196.981 40.2988C194.21 40.2988 191.964 42.5493 191.964 45.3254C191.964 48.1016 194.21 50.3521 196.981 50.3521Z" fill="#BE6F72"/>
<path opacity="0.1" d="M210.597 82.8897C210.597 83.3069 210.032 83.4401 209.613 83.4175C208.108 83.3295 206.635 82.9148 205.145 83.0405C203.261 83.2114 201.53 84.2545 199.641 84.35C198.913 84.3877 198.173 84.2796 197.456 84.4128C196.527 84.5862 195.7 85.1517 194.754 85.2321C193.933 85.3025 193.123 84.9934 192.303 85.0261C191.729 85.0603 191.17 85.2199 190.665 85.4935C190.719 84.9613 190.957 84.4647 191.337 84.0886C191.936 83.4979 192.789 83.6513 193.617 83.5105C194.443 83.3319 195.25 83.0735 196.026 82.7389C198.203 81.8796 200.495 81.3485 202.827 81.163C205.169 80.9764 207.523 81.3494 209.693 82.2513C210.009 82.3795 210.307 82.5485 210.579 82.754C210.593 82.7979 210.599 82.8438 210.597 82.8897Z" fill="black"/>
<path d="M194.661 54.5041L192.629 53.7501L191.771 53.4335C191.421 53.2867 191.053 53.1886 190.677 53.1419C189.694 53.0665 188.768 53.7225 188.244 54.5594C187.719 55.3964 187.521 56.3942 187.353 57.3668C187.122 58.6972 186.926 60.0326 186.766 61.3731C186.593 62.5835 186.505 63.8047 186.502 65.0275C186.56 68.139 187.217 71.2078 187.94 74.2363C188.294 75.5791 188.561 76.9433 188.74 78.3205C188.8 78.8885 188.828 79.459 188.888 80.0296C188.953 80.6705 189.059 81.3038 189.164 81.9397L189.769 85.5513C190.521 85.016 191.377 84.546 192.303 84.5184C193.123 84.4882 193.936 84.7948 194.754 84.7245C195.694 84.6465 196.527 84.081 197.456 83.9076C198.173 83.7744 198.913 83.88 199.643 83.8448C201.53 83.7493 203.263 82.7037 205.145 82.5353C206.638 82.3996 208.12 82.8219 209.616 82.9098C210.032 82.935 210.596 82.8018 210.596 82.382C210.596 82.0905 210.305 81.897 210.052 81.7512C208.858 81.0307 207.721 80.2181 206.653 79.3208C205.664 78.5366 204.661 77.7324 203.981 76.6717C202.343 74.1207 202.905 70.6699 201.507 67.9781C200.371 65.7915 201.507 62.9263 201.507 60.4607C201.507 59.2317 201.507 57.9876 201.219 56.7938C201.038 56.1261 200.814 55.4712 200.546 54.8334L199.57 52.3578C199.55 52.2854 199.51 52.2201 199.455 52.1693C199.389 52.124 199.311 52.1003 199.232 52.1014C198.646 52.0662 198.068 52.2518 197.611 52.6217C197.152 52.9961 196.859 53.534 196.407 53.9236C195.913 54.3533 195.276 54.7303 194.661 54.5041Z" fill="#E3E8F4"/>
<path d="M197.939 53.0765C198.1 52.3879 198.273 51.6716 198.732 51.1337C199.191 50.5959 200.029 50.3119 200.621 50.6964C201.294 51.1337 201.321 52.1441 201.896 52.7071C202.397 53.1896 203.15 53.2273 203.832 53.2902C205.059 53.402 206.264 53.6863 207.412 54.1347C207.636 54.2042 207.84 54.3266 208.007 54.4915C208.32 54.8484 208.258 55.3963 208.413 55.8412C208.627 56.4142 209.216 56.7787 209.444 57.3492C209.695 57.9826 209.444 58.6913 209.234 59.3423C208.855 60.511 208.617 61.7249 208.248 62.8986C207.879 64.0724 207.355 65.2285 206.492 66.1132C206.11 66.5053 205.543 66.8672 205.042 66.6334L204.848 68.0284C204.792 68.3231 204.792 68.6259 204.848 68.9206C204.878 69.068 204.948 69.2043 205.051 69.3137C205.154 69.423 205.285 69.5011 205.43 69.5389C205.468 69.755 205.696 69.8581 205.882 69.9762C206.019 70.0701 206.136 70.1903 206.226 70.3298C206.317 70.4694 206.379 70.6255 206.408 70.7892C206.438 70.9528 206.435 71.1207 206.399 71.2832C206.363 71.4456 206.296 71.5994 206.201 71.7355C206.043 71.9492 205.809 72.1175 205.734 72.3714C205.621 72.7383 205.89 73.1254 206.216 73.3265C206.542 73.5275 206.926 73.6205 207.257 73.814C207.944 74.2111 208.313 74.9928 208.549 75.7518C208.724 76.3249 208.87 76.9457 209.301 77.3629C209.467 77.5212 209.665 77.6419 209.823 77.8077C210.097 78.1315 210.255 78.5375 210.272 78.9614C210.341 79.4867 210.226 80.0196 209.946 80.4694C209.444 81.1882 208.509 81.4018 207.688 81.726C206.356 82.2739 205.26 83.2541 204.086 84.0885C203.608 84.4744 203.044 84.7398 202.443 84.8627C201.63 84.9707 200.829 84.6113 200.012 84.5787C199.522 84.5832 199.035 84.6473 198.561 84.7697L197.056 85.0964C197.137 83.9277 196.494 82.7565 196.136 81.6431C195.458 79.547 195.333 77.3051 195.493 75.1084C195.654 72.9118 196.1 70.7453 196.542 68.5888C196.851 67.0808 196.82 65.505 197.295 64.0397C197.739 62.6297 198.373 61.275 198.607 59.8072C198.988 57.4321 197.402 55.419 197.939 53.0765Z" fill="#3F3D56"/>
<path d="M209.352 57.7237C209.49 57.9791 209.588 58.2548 209.64 58.5406C209.756 58.9833 209.974 59.3929 210.275 59.7369C210.528 59.96 210.752 60.2132 210.942 60.4909C211.173 60.9282 211.085 61.4611 211.193 61.9386C211.319 62.4589 211.683 62.9113 211.735 63.4466C211.737 63.6 211.751 63.753 211.778 63.904C211.941 64.5123 212.834 64.658 213.032 65.2663C213.165 65.6609 212.937 66.0906 212.98 66.5053C213.011 66.6336 213.018 66.7664 213.002 66.8974C212.945 67.0455 212.846 67.1733 212.716 67.2644C211.886 68.059 211.311 69.0837 211.065 70.2075C210.824 71.3251 210.697 72.4645 210.687 73.608L209.706 72.3086C209.602 72.151 209.469 72.0145 209.314 71.9065C209.189 71.8311 209.043 71.7934 208.915 71.718C208.544 71.5069 208.399 71.0595 208.256 70.6574C207.858 69.5442 207.263 68.5122 206.499 67.6112C206.101 67.1412 205.636 66.6687 205.549 66.058C205.522 65.7774 205.538 65.4946 205.594 65.2185C205.845 63.5723 206.113 61.8858 206.913 60.4256C207.287 59.7419 207.771 59.1237 208.13 58.43C208.371 57.97 208.71 56.7737 209.352 57.7237Z" fill="#3F3D56"/>
<path d="M184.603 59.3046C184.608 59.5161 184.554 59.7249 184.447 59.9078C184.351 60.0191 184.226 60.1015 184.087 60.1459C183.947 60.1903 183.797 60.1949 183.655 60.1591C183.369 60.0873 183.1 59.961 182.862 59.7871C182.163 59.3448 181.464 58.9016 180.765 58.4576C180.374 58.2219 179.998 57.9634 179.638 57.6835C179.088 57.2181 178.589 56.6948 178.15 56.1227C176.931 54.6147 175.852 52.9785 174.495 51.5987C174.126 51.2217 173.743 50.8598 173.386 50.4652C172.899 49.8948 172.452 49.2919 172.047 48.6606C171.655 48.08 171.249 47.4366 171.317 46.7429C171.357 46.3508 171.545 45.9889 171.6 45.5994C171.655 45.2098 171.507 44.7348 171.131 44.6292C171.086 44.618 171.041 44.6104 170.995 44.6066C170.921 44.5987 170.848 44.5827 170.777 44.5588C170.429 44.4131 170.481 43.8727 170.732 43.5887C170.983 43.3047 171.354 43.1463 171.583 42.8347C171.689 42.6498 171.808 42.4726 171.939 42.3044C172.107 42.1601 172.307 42.0591 172.523 42.0103C173.97 41.5831 175.501 41.5252 176.976 41.8419C177.227 41.8972 177.513 41.9977 177.588 42.2415C177.619 42.3603 177.619 42.4847 177.588 42.6035C177.478 43.099 177.414 43.6039 177.398 44.1115C177.397 44.2173 177.403 44.323 177.415 44.4281C177.533 45.4938 178.223 46.3961 178.896 47.228C179.693 48.2182 180.504 49.201 181.316 50.1812C181.756 50.7492 182.247 51.275 182.784 51.752C183.286 52.1692 183.936 52.506 184.327 53.0413C184.646 53.4736 184.543 54.0643 184.578 54.5845C184.695 56.1554 184.703 57.7325 184.603 59.3046Z" fill="#3F3D56"/>
<path d="M216.465 69.7902C216.712 69.5489 216.936 69.2837 217.132 68.9985C217.343 68.6452 217.511 68.2681 217.634 67.8751L219.089 63.7406C219.32 63.0872 219.55 62.4312 219.841 61.7953C220.142 61.1092 220.499 60.4482 220.827 59.7846C221.673 58.0385 222.326 56.2056 222.777 54.3181C222.856 54.0588 222.882 53.7862 222.854 53.5164C222.784 53.0816 222.456 52.7423 222.142 52.4331C221.827 52.0919 221.467 51.7944 221.073 51.5485C220.875 51.4252 220.655 51.3426 220.425 51.3055C220.195 51.2684 219.96 51.2775 219.734 51.3323C219.091 51.5208 218.687 52.1793 218.539 52.8403C218.391 53.5013 218.447 54.1774 218.384 54.851C218.294 55.8161 217.962 56.7485 217.882 57.7162C217.839 58.2767 217.882 58.8421 217.814 59.4001C217.691 60.1328 217.436 60.837 217.062 61.4786C216.247 63.007 215.145 64.3638 213.818 65.4748C213.454 65.7438 213.127 66.0589 212.845 66.4123C212.609 66.7658 212.449 67.1647 212.375 67.5835C212.209 68.2213 212.281 68.8981 212.579 69.4861C212.988 70.1848 213.773 70.4914 214.523 70.6473C215.536 70.8584 215.77 70.5116 216.465 69.7902Z" fill="#BE6F72"/>
<path d="M197.011 38.0418C197.227 37.6352 197.558 37.3014 197.962 37.0819C198.367 36.8624 198.826 36.7671 199.284 36.8078C199.746 36.8896 200.175 37.0992 200.523 37.4128C200.872 37.7264 201.126 38.1315 201.256 38.5822C201.374 38.9567 201.422 39.3714 201.627 39.6931C201.938 40.1781 202.516 40.3189 202.947 40.6708C203.205 40.9105 203.412 41.1995 203.557 41.5205C203.701 41.8416 203.781 42.1885 203.79 42.5407C203.814 43.2601 203.701 43.9775 203.456 44.6544C203.353 44.9432 203.269 45.2388 203.205 45.5391C203.155 45.8306 203.15 46.1272 203.105 46.4188C203.049 46.7968 202.919 47.1599 202.721 47.4866C202.523 47.8133 202.262 48.0972 201.954 48.3213C201.866 48.3932 201.756 48.4331 201.642 48.4344C201.447 48.4118 201.326 48.1831 201.254 47.977C200.855 46.8234 200.95 45.4134 200.215 44.4935C199.881 44.1225 199.477 43.821 199.026 43.6063C198.842 43.4876 198.635 43.4096 198.419 43.3776C198.101 43.3948 197.795 43.5068 197.541 43.6993C197.011 44.0551 196.424 44.3154 195.805 44.4684C195.496 44.5417 195.174 44.545 194.864 44.4781C194.554 44.4111 194.262 44.2756 194.011 44.0814C193.665 43.7948 193.411 43.3651 193.027 43.1414C192.644 42.9177 192.242 42.9302 191.863 42.7769C191.622 42.6741 191.407 42.5173 191.235 42.3187C191.064 42.1201 190.939 41.8848 190.872 41.6307C190.805 41.3767 190.796 41.1106 190.847 40.8528C190.898 40.595 191.007 40.3522 191.166 40.143C191.417 39.8414 191.788 39.6705 192.011 39.3362C192.3 38.9039 192.275 38.3107 192.413 37.793C192.494 37.4654 192.653 37.1621 192.875 36.9081C193.097 36.6542 193.376 36.4569 193.69 36.3327C193.994 36.2293 194.32 36.2095 194.634 36.2754C194.948 36.3413 195.239 36.4904 195.476 36.7072C195.727 36.9334 195.928 37.225 196.173 37.4612C196.416 37.694 196.713 37.862 197.038 37.9498C197.362 38.0377 197.703 38.0425 198.03 37.9639" fill="#3F3D56"/>
<path opacity="0.1" d="M201.136 75.0355C200.99 75.1659 200.886 75.3372 200.839 75.5273C200.791 75.7174 200.802 75.9174 200.87 76.1012C200.925 76.2193 203.514 75.7192 203.787 75.6815C204.47 75.5834 205.666 75.6312 206.125 75.0054C206.943 73.897 204.409 74.1433 203.945 74.1835C203.062 74.2589 201.808 74.3796 201.136 75.0355Z" fill="black"/>
<path d="M177.584 42.6135C177.473 43.1091 177.409 43.614 177.393 44.1215C176.641 44.2748 175.858 44.0235 175.135 43.7722L173.061 43.0634C172.934 42.9826 172.782 42.953 172.635 42.9805C172.488 43.008 172.357 43.0907 172.268 43.2117C171.934 43.5585 171.475 44.217 171.014 44.6066C170.939 44.5987 170.866 44.5827 170.795 44.5588C170.447 44.4131 170.499 43.8727 170.75 43.5887C171.001 43.3047 171.372 43.1463 171.601 42.8347C171.707 42.6498 171.826 42.4726 171.957 42.3044C172.125 42.1601 172.326 42.0591 172.541 42.0103C173.988 41.5831 175.519 41.5252 176.994 41.8419C177.245 41.8972 177.531 41.9977 177.607 42.2415C177.631 42.3654 177.623 42.4935 177.584 42.6135Z" fill="#3F3D56"/>
<path opacity="0.1" d="M177.584 42.6135C177.473 43.1091 177.409 43.614 177.393 44.1215C176.641 44.2748 175.858 44.0235 175.135 43.7722L173.061 43.0634C172.934 42.9826 172.782 42.953 172.635 42.9805C172.488 43.008 172.357 43.0907 172.268 43.2117C171.934 43.5585 171.475 44.217 171.014 44.6066C170.939 44.5987 170.866 44.5827 170.795 44.5588C170.447 44.4131 170.499 43.8727 170.75 43.5887C171.001 43.3047 171.372 43.1463 171.601 42.8347C171.707 42.6498 171.826 42.4726 171.957 42.3044C172.125 42.1601 172.326 42.0591 172.541 42.0103C173.988 41.5831 175.519 41.5252 176.994 41.8419C177.245 41.8972 177.531 41.9977 177.607 42.2415C177.631 42.3654 177.623 42.4935 177.584 42.6135Z" fill="black"/>
<path opacity="0.1" d="M196.562 90.3292C196.924 90.4498 197.315 90.6257 197.438 90.9877L194.533 90.2487L193.027 89.8642C192.762 89.7963 191.808 89.7184 191.633 89.5098C191.382 89.2032 192.272 89.4143 192.433 89.4369C192.92 89.5098 193.406 89.5852 193.891 89.6732C194.804 89.8366 195.682 90.1055 196.562 90.3292Z" fill="black"/>
<path opacity="0.1" d="M197.689 92.9053C197.438 92.737 196.718 92.7571 196.409 92.6842C195.958 92.5761 195.514 92.4328 195.069 92.2946C194.169 92.0005 193.276 91.6663 192.35 91.4501C192.179 91.4124 191.597 91.4024 191.625 91.1862C191.653 90.9701 192.207 90.8947 192.345 90.8846C193.165 90.8243 194.189 91.2088 194.952 91.4828C195.924 91.8316 196.844 92.3101 197.689 92.9053Z" fill="black"/>
<path opacity="0.1" d="M195.847 88.032C194.926 87.7807 194.091 87.2076 193.143 87.097C192.896 87.1064 192.652 87.0321 192.453 86.8859C192.341 86.7762 192.264 86.6365 192.229 86.4838C192.864 86.4511 193.602 86.72 194.179 86.9739C194.496 87.1104 194.802 87.2735 195.092 87.4615C195.303 87.5897 195.619 87.9591 195.847 88.032Z" fill="black"/>
<path d="M213.399 65.5276C213.243 66.5726 213.468 67.6387 214.033 68.5309C214.598 69.423 215.465 70.0816 216.474 70.3859C216.351 70.9816 215.737 71.3108 215.303 71.7356C214.691 72.3312 214.375 73.2235 213.652 73.6759C212.847 74.1785 211.811 73.9825 210.892 73.7714C210.809 73.762 210.732 73.7216 210.677 73.6583C210.658 73.6281 210.644 73.595 210.637 73.5602C210.333 72.4468 210.135 71.258 210.446 70.1421C210.697 69.1921 211.299 68.3828 211.781 67.5433C212.262 66.7039 212.307 65.8041 213.399 65.5276Z" fill="#3F3D56"/>
<path d="M190.968 51.1162C189.997 51.187 189.054 51.4747 188.208 51.9581C187.647 52.2798 187.069 52.7121 186.427 52.6342C186.048 52.5915 185.675 52.3829 185.306 52.4834C185.098 52.5674 184.904 52.6827 184.731 52.8252C184.644 52.8952 184.539 52.9413 184.428 52.9589C184.318 52.9765 184.204 52.9651 184.099 52.9258L183.848 56.4042C183.753 57.7262 183.66 59.0759 183.976 60.3652C184.139 61.0237 184.498 61.6219 184.538 62.2904C184.578 62.959 184.518 63.6451 184.566 64.3212C184.611 64.947 184.749 65.5628 184.784 66.1886C184.854 67.3699 184.563 68.5411 184.282 69.6897C183.858 71.3837 183.602 73.1154 182.777 74.6485C182.546 75.0733 182.275 75.5055 182.275 75.9881C182.275 76.0484 182.275 76.1062 182.29 76.164C182.039 76.3023 181.806 76.433 181.593 76.5687C181.116 76.8778 180.607 77.2222 180.411 77.7575C180.253 78.1923 180.326 78.6899 180.135 79.1097C179.945 79.5294 179.508 79.8285 179.413 80.2809C179.345 80.6101 179.476 80.957 179.413 81.2862C179.356 81.4566 179.31 81.6303 179.275 81.8065C179.25 82.1835 179.568 82.4876 179.884 82.6937C180.345 82.9981 180.854 83.2224 181.39 83.3572L182.887 77.4006C184.253 74.8712 185.389 72.2241 186.282 69.4911C186.537 68.5978 186.865 67.727 187.263 66.8873C187.547 66.4123 187.798 65.9186 188.015 65.4095C188.244 64.7761 188.266 64.09 188.377 63.4214C188.508 62.6411 188.705 61.8735 188.966 61.1268C189.237 60.32 189.551 59.5157 189.606 58.6687C189.689 57.4573 189.25 56.178 189.716 55.0571C189.914 54.6375 190.172 54.2489 190.481 53.9034C191.129 53.1092 191.718 52.2773 192.365 51.4831C192.029 51.1237 191.47 51.086 190.968 51.1162Z" fill="#3F3D56"/>
<g opacity="0.1">
<path opacity="0.1" d="M198.038 37.2149L197.724 37.2375L197.689 37.2627C197.806 37.2579 197.923 37.2419 198.038 37.2149Z" fill="black"/>
<path opacity="0.1" d="M203.778 42.4326C203.725 42.9323 203.618 43.4246 203.457 43.9004C203.353 44.1892 203.269 44.4848 203.206 44.7851C203.155 45.0767 203.15 45.3732 203.105 45.6648C203.05 46.0428 202.919 46.4059 202.721 46.7326C202.524 47.0594 202.263 47.3432 201.954 47.5674C201.866 47.6392 201.756 47.6791 201.643 47.6805C201.447 47.6579 201.327 47.4291 201.254 47.2231C200.855 46.0694 200.95 44.6595 200.215 43.7396C199.881 43.3685 199.477 43.067 199.026 42.8524C198.842 42.7336 198.635 42.6556 198.419 42.6237C198.101 42.6408 197.795 42.7528 197.541 42.9454C197.011 43.3012 196.424 43.5615 195.805 43.7144C195.496 43.7878 195.175 43.791 194.864 43.7241C194.554 43.6571 194.263 43.5216 194.011 43.3274C193.665 43.0409 193.412 42.6111 193.028 42.3874C192.644 42.1637 192.242 42.1763 191.864 42.023C191.627 41.9217 191.416 41.7684 191.247 41.5743C191.077 41.3803 190.954 41.1505 190.885 40.902C190.876 40.8707 190.87 40.8388 190.865 40.8065C190.802 41.0871 190.809 41.3788 190.885 41.656C190.954 41.9045 191.077 42.1343 191.247 42.3283C191.416 42.5224 191.627 42.6757 191.864 42.777C192.242 42.9303 192.669 42.9328 193.028 43.1414C193.386 43.35 193.665 43.7949 194.011 44.0814C194.263 44.2756 194.554 44.4111 194.864 44.4781C195.175 44.545 195.496 44.5418 195.805 44.4684C196.424 44.3155 197.011 44.0552 197.541 43.6994C197.795 43.5068 198.101 43.3948 198.419 43.3777C198.635 43.4096 198.842 43.4876 199.026 43.6064C199.471 43.8252 199.869 44.1292 200.198 44.5011C200.933 45.421 200.837 46.831 201.236 47.9846C201.309 48.1932 201.429 48.4194 201.625 48.442C201.746 48.4426 201.862 48.3998 201.954 48.3214C202.264 48.0966 202.526 47.8117 202.724 47.4836C202.922 47.1554 203.053 46.7908 203.108 46.4112C203.153 46.1197 203.158 45.8231 203.208 45.5316C203.272 45.2313 203.355 44.9357 203.459 44.6469C203.703 43.97 203.817 43.2526 203.793 42.5332C203.788 42.503 203.783 42.4678 203.778 42.4326Z" fill="black"/>
</g>
<path d="M187.905 62.5996L187.734 64.8943C187.709 65.2059 187.114 72.6253 182.729 81.2963C178.966 88.7333 171.643 98.4196 157.817 103.864C156.739 104.291 155.619 104.69 154.458 105.06L153.164 100.988C156.413 99.9636 159.544 98.5918 162.501 96.8966C169.548 92.8199 175.027 87.0016 178.848 79.5143C180.875 75.528 182.32 71.2704 183.138 66.8723H167.408V62.5996H187.905Z" fill="#0564FF"/>
<path opacity="0.1" d="M156.124 103.866C169.947 98.4221 177.273 88.7383 181.033 81.3013C185.418 72.6303 186.016 65.216 186.038 64.8993L186.209 62.6046H187.965L187.794 64.8993C187.772 65.2109 187.175 72.6303 182.789 81.3013C179.026 88.7383 171.703 98.4221 157.88 103.866C156.801 104.293 155.681 104.693 154.518 105.065L154.348 104.53C154.953 104.313 155.545 104.092 156.124 103.866Z" fill="white"/>
<path d="M128.448 100.988L127.153 105.06C125.991 104.688 124.87 104.288 123.791 103.861C109.968 98.4171 102.643 88.7333 98.8821 81.2963C94.4968 72.6253 93.8997 65.211 93.8771 64.8943L93.7065 62.5996H114.193V66.8723H98.4606C99.283 71.271 100.732 75.5285 102.763 79.5143C106.584 87.0016 112.061 92.8199 119.108 96.8941C122.065 98.5911 125.196 99.9638 128.448 100.988Z" fill="#0564FF"/>
<path opacity="0.1" d="M125.482 103.866C111.659 98.4221 104.333 88.7383 100.573 81.3013C96.1875 72.6303 95.5904 65.216 95.5678 64.8993L95.3972 62.6046H93.6411L93.8117 64.8993C93.8343 65.2109 94.4314 72.6303 98.8166 81.3013C102.58 88.7383 109.903 98.4221 123.726 103.866C124.805 104.293 125.925 104.693 127.088 105.065L127.258 104.53C126.654 104.313 126.062 104.092 125.482 103.866Z" fill="white"/>
<path d="M164.471 140.347V163.387H117.138V140.347L118.643 138.336C133.982 132.882 137.09 118.659 137.71 113.032C137.802 112.254 137.855 111.473 137.868 110.69H143.721C143.734 111.473 143.787 112.254 143.879 113.032C144.509 118.659 147.617 132.887 162.945 138.336L164.471 140.347Z" fill="#0564FF"/>
<path opacity="0.1" d="M164.471 140.347H117.138V143.237H164.471V140.347Z" fill="black"/>
<path opacity="0.1" d="M121.152 138.336C136.491 132.882 139.599 118.659 140.219 113.032C140.311 112.254 140.364 111.473 140.377 110.69H137.868C137.855 111.473 137.802 112.254 137.71 113.032C137.08 118.659 133.972 132.887 118.643 138.336L117.138 140.347V163.387H119.647V140.347L121.152 138.336Z" fill="white"/>
<path opacity="0.1" d="M109.948 62.5996H114.193V66.8723H110.325C110.172 65.4648 110.047 64.0406 109.948 62.5996Z" fill="black"/>
<path opacity="0.1" d="M128.447 100.988L127.153 105.06C125.991 104.688 124.87 104.288 123.791 103.861C122.017 101.69 120.449 99.3575 119.107 96.894C122.065 98.5911 125.196 99.9638 128.447 100.988Z" fill="black"/>
<path opacity="0.1" d="M153.161 100.988C156.411 99.9636 159.542 98.5918 162.499 96.8965C161.157 99.3603 159.589 101.694 157.815 103.866C156.736 104.293 155.616 104.692 154.456 105.062L153.161 100.988Z" fill="black"/>
<path opacity="0.1" d="M171.658 62.5996C171.56 64.0406 171.434 65.4648 171.282 66.8723H167.416V62.5996H171.658Z" fill="black"/>
<path opacity="0.1" d="M143.889 113.032C141.851 113.428 139.757 113.428 137.72 113.032C137.812 112.254 137.865 111.473 137.878 110.69H143.731C143.744 111.473 143.796 112.254 143.889 113.032Z" fill="black"/>
<path d="M110.45 55.522C110.558 87.2051 124.105 112.826 140.805 112.826C157.506 112.826 171.051 87.2051 171.161 55.522H110.45Z" fill="#0564FF"/>
<path opacity="0.1" d="M115.844 55.522H110.45C110.558 87.2051 124.105 112.826 140.805 112.826C141.709 112.824 142.611 112.748 143.502 112.597C128.064 110.014 115.946 85.481 115.844 55.522Z" fill="white"/>
<path d="M156.902 149.166H124.707V157.46H156.902V149.166Z" fill="#3F3D56"/>
<path opacity="0.1" d="M126.212 150.297H156.902V149.166H124.707V157.46H126.212V150.297Z" fill="white"/>
<path d="M93.2801 86.1118C92.7006 85.9183 89.2887 83.2139 89.0303 81.9899C88.7719 80.7659 90.8341 69.363 90.8341 69.363C90.8341 69.363 90.6434 69.363 90.3323 69.3253V69.1418L90.7563 54.1623C90.7563 54.1623 92.4949 44.109 89.2109 44.6946C85.927 45.2802 87.9867 54.1623 87.9867 54.1623C87.9867 54.1623 87.6129 58.6712 87.3494 60.0234C87.0986 61.3278 85.9496 66.641 86.7323 68.2923C86.761 68.3509 86.7928 68.408 86.8276 68.4632C86.8276 68.4632 86.9581 74.1307 85.5406 74.9049C84.1884 75.6413 83.6265 79.3484 83.5788 79.6802L83.506 79.65C83.1023 79.397 82.7478 79.0725 82.4599 78.6924C82.4298 78.6547 82.4072 78.6145 82.3796 78.5743C83.3027 77.534 83.8001 76.1832 83.7727 74.7916C83.7452 73.4 83.1949 72.07 82.2316 71.067C81.7837 70.6009 81.2582 70.2165 80.6787 69.931C80.6618 69.4507 80.5484 68.9788 80.345 68.5436C79.6928 67.1462 76.0802 65.319 73.5137 65.2763C72.3296 65.2411 71.3587 65.5779 71.005 66.5053C70.8244 66.9753 70.8796 67.5106 70.8043 67.9982C70.6538 69.0036 70.009 69.7902 69.1811 70.416C68.8468 70.0422 68.4854 69.6936 68.0999 69.373C67.262 68.7296 65.5911 66.6084 65.5911 66.6084C65.5911 66.6084 60.3755 61.1971 59.9891 59.7143C59.6028 58.2314 54.3921 49.3267 53.2331 50.8774C52.074 52.4281 57.2245 59.1865 57.2245 59.1865C57.2245 59.1865 58.2029 61.642 58.9555 62.4714C59.7081 63.3008 65.4782 71.6953 65.4782 71.6953L65.7542 72.2684C64.5349 72.9118 63.4211 73.7311 63.0272 75.0079C62.4502 76.8879 63.7121 78.7779 64.5851 80.5372C66.286 83.9704 66.5294 88.3487 64.3342 91.4853C62.3674 94.255 58.9555 95.572 55.7619 96.7231C57.3042 97.9364 59.2203 98.5736 61.1808 98.5252C60.4432 100.667 57.8291 101.375 55.6013 101.772C56.7704 102.898 58.4437 103.308 60.0493 103.557C60.8357 103.691 61.6325 103.754 62.4301 103.745H62.6258L62.8215 103.73C63.0934 103.712 63.364 103.678 63.6318 103.627C64.7908 103.391 65.9173 102.758 66.5093 101.732C67.0111 100.855 67.1867 99.6587 68.0974 99.2188C68.3345 99.1116 68.59 99.051 68.85 99.0404H68.8224C68.993 99.0404 69.1686 99.0404 69.3392 99.0404L73.1349 99.0781C73.293 99.0781 73.456 99.0781 73.6191 99.0781C74.6903 99.053 75.8343 98.867 76.3787 97.9798C76.6027 97.5489 76.7205 97.0706 76.7224 96.5849C76.8027 95.381 76.7224 94.1419 76.755 92.928C77.0787 95.1372 77.4173 98.5805 76.612 99.8522C75.9578 100.816 75.1648 101.677 74.2588 102.408C74.0309 102.6 73.8225 102.814 73.6367 103.047C73.5137 103.135 73.441 103.182 73.441 103.182L73.3632 103.416C73.0773 103.851 72.8701 104.332 72.7511 104.839C72.7073 104.969 72.6911 105.107 72.7034 105.243C72.7912 105.422 72.0762 106.158 72.2845 106.467C70.4982 108.566 70.1595 111.745 70.1595 111.745L66.8982 116.707C65.2223 121.118 62.7136 121.57 62.7136 121.57C62.7136 121.57 56.8206 117.609 56.66 117.415C56.4994 117.222 54.2466 116.254 54.2466 116.254C53.981 115.788 53.5755 115.416 53.0876 115.194C52.3149 114.872 52.2496 113.686 52.2496 113.686C52.1543 110.883 50.5111 110.67 50.5111 110.67C49.1865 110.556 48.1754 110.793 47.3977 111.225L47.1619 111.243C46.0229 111.336 44.6532 111.439 43.1479 111.539C38.9608 111.816 37.9649 114.533 37.9649 114.533C37.9649 114.533 37.4506 115.113 38.1254 115.741C38.8003 116.37 43.1203 115.741 43.3035 115.726C42.9742 115.762 42.6413 115.739 42.32 115.659C42.9999 115.633 43.9357 115.608 44.7334 115.608H44.9266C44.8764 116.032 44.8521 116.458 44.8539 116.885C44.8539 117.689 47.0741 118.205 47.0741 118.205L53.8352 124.237C53.8352 124.237 58.085 126.139 60.7894 128.876C63.4938 131.613 65.8846 129.251 65.8846 129.251C68.7471 128.542 76.9833 118.566 76.9909 118.556C76.9909 118.848 77.164 128.549 77.4926 130.497C77.5057 130.596 77.5301 130.693 77.5653 130.786C77.9517 131.623 77.4349 133.91 77.2116 134.875C77.0692 135.683 77.0145 136.504 77.0485 137.323C77.0485 137.323 73.9603 149.136 74.2162 150.174C74.4721 151.212 72.5429 156.035 72.5429 156.035V160.057L72.879 160.039C72.8353 160.104 72.7951 160.171 72.7586 160.24L72.736 160.283C72.736 160.283 74.7957 160.733 76.1805 160.604C77.5654 160.476 79.9436 161.673 79.9436 161.673C79.9436 161.673 80.7489 162.055 83.2276 162.215C85.7062 162.376 85.7062 161.12 85.7062 161.12C85.4227 159.408 81.5066 158.835 81.3862 158.817C81.0701 158.619 80.774 158.403 80.5307 158.217L80.4805 158.177C80.4969 158.139 80.5112 158.1 80.5232 158.061C80.9421 156.352 78.624 155.61 78.624 155.61V155.193C80.1293 154.419 80.4278 149.106 80.4278 149.106C80.4278 149.106 82.6857 142.536 83.0018 141.44C83.3179 140.344 83.0018 138.703 83.0018 138.703L83.2276 137.286C83.2276 137.286 83.7118 136.321 83.7118 136.127C83.7744 135.637 83.9629 135.171 84.2587 134.775C84.6124 134.355 83.8723 133.357 83.8723 133.357L84.5171 131.684V129.846L86.0223 123.181C86.0223 123.181 87.6003 115.417 87.0534 112.876C86.5065 110.335 87.6982 109.043 87.6982 109.043C87.5907 109.1 87.4802 109.15 87.367 109.194C87.5177 108.845 87.6475 108.488 87.7559 108.124L91.1427 108.543V108.594H92.3644C92.3644 108.594 91.9781 103.818 91.9781 101.893C91.9781 99.9678 93.2801 93.0587 93.2801 93.0587C93.2801 93.0587 93.8596 86.3053 93.2801 86.1118ZM78.2452 80.5372C78.2452 80.7257 78.2277 80.9218 78.2151 81.1228L78.1474 81.2259L78.0219 81.1203L77.8689 81.3591L77.8237 81.3817C77.4926 81.2108 77.322 80.2331 77.0837 80.4442L77.0511 80.4719C76.9984 80.4116 76.9457 80.394 76.8905 80.4442L76.8403 80.487C76.8403 80.4141 76.8403 80.3387 76.8403 80.2633C77.2993 80.3816 77.7713 80.4416 78.2452 80.4417C78.2477 80.4744 78.2452 80.5071 78.2452 80.5372ZM89.5095 102.775H89.5822L89.4618 103.092C89.4769 102.986 89.4919 102.883 89.5095 102.775ZM77.1439 159.77L76.6823 159.654L76.9331 159.612L77.1665 159.765L77.1941 159.785L77.1439 159.77ZM81.8603 159.094C81.7073 159.014 81.5517 158.921 81.4012 158.825C81.4514 158.853 81.6496 158.956 81.8603 159.094Z" fill="url(#paint1_linear)"/>
<path d="M91.1751 98.0275L88.137 105.96H88.8746L86.0171 108.242L91.1751 108.885V98.0275Z" fill="#F86D70"/>
<path opacity="0.1" d="M91.1751 98.0275L88.137 105.96L87.3718 105.754L86.0171 108.242L91.1751 108.885V98.0275Z" fill="black"/>
<path d="M86.4111 103.102H91.1752L92.9238 88.688H86.4111V103.102Z" fill="#F86D70"/>
<path opacity="0.1" d="M86.4111 103.102H91.1752L92.9238 88.688H86.4111V103.102Z" fill="black"/>
<path d="M77.1061 92.1011L78.1347 91.9276L80.4979 91.5255C80.4979 91.5255 87.5952 89.922 89.0603 89.7913C89.9478 89.6739 90.8134 89.4266 91.6292 89.0574C92.0131 88.8915 92.2564 88.7659 92.2564 88.7659L89.7 84.0885L85.7337 81.1429C85.7337 81.1429 83.2249 80.6076 82.1637 79.1448C81.9269 78.8301 81.7727 78.4608 81.7153 78.0709C81.6579 77.681 81.6991 77.2828 81.8351 76.913C82.4824 74.9023 77.9691 78.8357 77.9691 78.8357C77.9691 78.8357 78.0118 79.7782 77.9691 80.9796C77.9691 81.2158 77.9465 81.4621 77.929 81.7134C77.929 81.8793 77.9064 82.0452 77.8888 82.2161C77.7785 83.4099 77.5527 84.639 77.1061 85.3729C76.0148 87.1674 77.1061 92.1011 77.1061 92.1011Z" fill="#FBBEBE"/>
<path opacity="0.1" d="M77.9692 81.0801H78.0696C78.2502 81.0801 78.3957 80.6956 78.5713 80.678C79.9838 80.5423 81.2732 80.2457 82.1689 79.2429C81.9327 78.9283 81.7788 78.5595 81.7214 78.1701C81.664 77.7807 81.7049 77.3831 81.8402 77.0135C82.4875 75.0029 77.9743 78.9337 77.9743 78.9337C77.9743 78.9337 78.0219 79.8787 77.9692 81.0801Z" fill="black"/>
<path d="M72.4751 75.3799C72.4748 76.1034 72.6168 76.82 72.893 77.4885C73.1693 78.1571 73.5743 78.7646 74.085 79.2762C74.5957 79.7878 75.2021 80.1936 75.8694 80.4704C76.5368 80.7471 77.252 80.8894 77.9742 80.8891C78.1549 80.8891 78.333 80.8891 78.5111 80.8639C79.5707 80.7598 80.5774 80.3498 81.4089 79.6836C82.2404 79.0174 82.8609 78.1237 83.1953 77.111C83.5296 76.0983 83.5633 75.0102 83.2923 73.9787C83.0212 72.9472 82.4572 72.0167 81.6685 71.3001C80.8798 70.5836 79.9005 70.1118 78.8494 69.942C77.7982 69.7723 76.7205 69.9119 75.7471 70.3439C74.7736 70.7759 73.9462 71.4817 73.3654 72.3756C72.7846 73.2696 72.4753 74.3132 72.4751 75.3799Z" fill="#FBBEBE"/>
<path d="M70.7866 67.0181C70.606 67.4855 70.6612 68.0083 70.5884 68.5034C70.32 70.2904 68.5061 71.3611 66.8654 72.1101C65.2247 72.859 63.3733 73.7462 62.8514 75.4729C62.2794 77.3403 63.5288 79.2127 64.3968 80.9645C66.0877 84.3776 66.3286 88.7307 64.146 91.8523C62.2067 94.617 58.8274 95.9289 55.6463 97.08C57.1773 98.2867 59.0802 98.9212 61.0276 98.8745C60.2975 101.003 57.701 101.71 55.4883 102.102C56.6498 103.223 58.3131 103.63 59.9062 103.876C61.0677 104.057 62.2594 104.175 63.4184 103.941C64.5775 103.708 65.6763 103.077 66.2734 102.056C66.7751 101.184 66.9457 99.9955 67.8514 99.5557C68.2602 99.3945 68.7006 99.3299 69.1383 99.3672L72.9015 99.4074C74.073 99.4074 75.4604 99.3169 76.065 98.3141C76.288 97.8857 76.405 97.4099 76.4062 96.9267C76.5692 94.4536 76.0951 91.8397 77.1111 89.5828C77.4172 88.9016 75.4528 87.8234 75.6586 87.1021C76.366 84.6214 76.5441 82.6686 76.5366 80.0874C76.5366 78.0893 77.8336 76.3676 78.9049 74.6812C79.9761 72.9948 80.8717 70.866 80.0263 69.0564C79.073 67.0382 71.913 64.1051 70.7866 67.0181Z" fill="#3F3D56"/>
<path d="M75.7964 159.046L76.7547 159.682L76.9027 159.78L76.9303 159.798L78.0668 160.552L80.721 160.999L83.0542 160.838C83.0542 160.838 83.7265 159.431 82.6703 159.463C82.332 159.446 82.0023 159.351 81.707 159.184L81.5615 159.112C81.4084 159.031 81.2554 158.941 81.1049 158.845C80.7913 158.647 80.4952 158.43 80.2569 158.247C79.9057 157.976 79.6724 157.769 79.6724 157.769L75.7964 159.046Z" fill="#FBBEBE"/>
<path opacity="0.1" d="M76.7676 159.682L76.9156 159.78L76.9432 159.798L78.0797 160.552L80.7339 160.999L83.067 160.838C83.067 160.838 83.7394 159.431 82.6832 159.463C82.3449 159.446 82.0152 159.351 81.7198 159.184C81.9055 159.33 82.061 159.489 82.0761 159.622C82.1187 159.981 80.3501 160.627 80.3501 160.627L77.8564 159.966C77.8564 159.966 77.4324 159.845 76.8529 159.695L76.7977 159.68L76.7676 159.682Z" fill="black"/>
<path d="M72.5024 160.295C72.5024 160.295 74.5471 160.743 75.9219 160.615C77.2967 160.486 79.6649 161.673 79.6649 161.673C79.6649 161.673 80.4652 162.05 82.9263 162.211C85.3873 162.371 85.3873 161.12 85.3873 161.12C85.1064 159.418 81.2178 158.858 81.0974 158.833C81.1451 158.858 81.3483 158.961 81.554 159.099C81.8299 159.28 82.1285 159.516 82.1511 159.707C82.1937 160.064 80.425 160.713 80.425 160.713L77.9314 160.054C77.9314 160.054 77.5074 159.931 76.9279 159.78H76.8727C76.0134 159.546 75.1403 159.365 74.2586 159.24C73.1848 159.124 72.6354 160.039 72.5225 160.245C72.5143 160.261 72.5076 160.278 72.5024 160.295Z" fill="#3F3D56"/>
<path d="M40.2754 115.098L41.3617 115.933C41.3617 115.933 41.6778 115.917 42.1494 115.902H42.2999C42.9748 115.877 43.9055 115.852 44.6958 115.852C45.2066 115.829 45.7185 115.858 46.2236 115.938C46.7655 116.129 47.7289 112.831 47.7289 112.831L46.6401 112.58L46.2788 112.494L46.0279 112.434L45.1423 112.225L42.458 112.532L40.5714 113.748L40.2754 115.098Z" fill="#FBBEBE"/>
<path opacity="0.1" d="M40.2754 115.098L41.3617 115.933C41.3617 115.933 41.6778 115.917 42.1494 115.902C41.933 115.819 41.7545 115.659 41.6477 115.452C40.9452 113.5 44.4299 112.665 44.4299 112.665L46.053 112.595L46.3691 112.58H46.62L46.2587 112.494L46.0079 112.434L45.1223 112.225L42.4379 112.532L40.5514 113.748L40.2754 115.098Z" fill="black"/>
<path d="M38.1328 115.98C38.7901 116.588 43.0951 115.98 43.2757 115.965C42.949 116.002 42.6183 115.979 42.2998 115.897C42.1421 115.869 41.9928 115.806 41.8625 115.712C41.7323 115.619 41.6246 115.497 41.5472 115.357C40.8448 113.402 44.3294 112.57 44.3294 112.57L45.9526 112.499L46.2662 112.484L50.2124 112.313L50.4031 111.225C50.4031 111.225 49.1211 111.346 47.1091 111.507C45.9776 111.6 44.6004 111.703 43.1127 111.801C38.9557 112.077 37.9672 114.779 37.9672 114.779C37.9672 114.779 37.463 115.357 38.1328 115.98Z" fill="#3F3D56"/>
<path d="M86.4136 68.805C86.4403 68.8647 86.4722 68.9218 86.5089 68.9759L87.4673 70.3834L89.961 70.6347L89.9886 69.6444L90.4075 54.7454C90.4075 54.7454 92.1335 44.7524 88.8722 45.328C85.6108 45.9035 87.6579 54.7454 87.6579 54.7454C87.6579 54.7454 87.2866 59.2292 87.0257 60.5763C86.7724 61.8783 85.6359 67.1713 86.4136 68.805Z" fill="#FBBEBE"/>
<path d="M80.8164 105.811L81.5264 107.028L83.1144 109.75C83.1144 109.75 85.9944 110.808 86.732 110.001C87.1359 109.561 87.5724 108.026 87.8785 106.734C88.1294 105.688 88.2975 104.806 88.2975 104.806L80.8164 105.811Z" fill="#FBBEBE"/>
<path opacity="0.1" d="M80.8164 105.811L81.5264 107.028C81.5709 106.989 81.6113 106.946 81.6468 106.9C82.4496 105.874 85.9844 106.681 87.8785 106.746C88.1294 105.701 88.2975 104.819 88.2975 104.819L80.8164 105.811Z" fill="black"/>
<path opacity="0.1" d="M44.6958 115.847C45.2066 115.824 45.7185 115.853 46.2236 115.933C46.7655 116.124 47.7289 112.826 47.7289 112.826L46.2788 112.484L50.2251 112.313L50.4157 111.225C50.4157 111.225 49.1338 111.346 47.1218 111.507C46.706 111.746 46.3351 112.057 46.0254 112.424L45.9652 112.499C45.1248 113.532 44.8137 114.864 44.6958 115.847Z" fill="black"/>
<path opacity="0.1" d="M75.7964 159.046L76.9027 159.78C78.5535 159.481 80.0612 159.011 80.2394 158.272C80.2402 158.26 80.2402 158.249 80.2394 158.237C79.8881 157.965 79.6548 157.759 79.6548 157.759L75.7964 159.046Z" fill="black"/>
<path opacity="0.1" d="M72.5254 160.253C73.9832 160.18 75.4356 160.024 76.8756 159.785C76.0156 159.549 75.1416 159.367 74.2589 159.24C73.1877 159.124 72.6383 160.039 72.5254 160.253Z" fill="black"/>
<path d="M44.8159 117.116C44.8159 117.918 47.0211 118.431 47.0211 118.431L53.737 124.42C53.737 124.42 57.9567 126.31 60.6411 129.032C63.3254 131.754 65.6937 129.417 65.6937 129.417C68.5386 128.713 76.7321 118.783 76.7321 118.783C76.7321 118.783 76.9228 130.123 77.3066 130.955C77.6905 131.787 77.1787 134.061 76.9554 135.024C76.8145 135.827 76.7607 136.642 76.7949 137.457C76.7949 137.457 73.7267 149.212 73.9826 150.237C74.2384 151.262 72.3193 156.068 72.3193 156.068V160.072C72.3193 160.072 79.8329 159.783 80.2469 158.086C80.6608 156.39 78.3628 155.651 78.3628 155.651V155.233C79.8681 154.464 80.1516 149.181 80.1516 149.181C80.1516 149.181 82.3919 142.647 82.7105 141.558C83.0291 140.47 82.7105 138.834 82.7105 138.834L82.9337 137.427C82.9337 137.427 83.4129 136.464 83.4129 136.273C83.4755 135.785 83.6631 135.322 83.9573 134.928C84.3085 134.511 83.5735 133.518 83.5735 133.518L84.2132 131.852V130.027L85.7184 123.397C85.7184 123.397 87.2864 115.676 86.742 113.145C86.1976 110.614 87.3817 109.335 87.3817 109.335C84.8153 110.682 83.5208 107.684 83.0968 106.394C82.9889 106.063 82.9363 105.841 82.9363 105.841C82.9363 105.841 79.4115 104.54 76.13 104.851C75.4636 104.905 74.8068 105.045 74.1757 105.266C70.5305 106.58 69.956 112.024 69.956 112.024L66.7273 116.958C65.064 121.346 62.5703 121.794 62.5703 121.794C62.5703 121.794 56.7199 117.855 56.5493 117.662C56.3787 117.468 54.151 116.508 54.151 116.508C53.8875 116.044 53.4846 115.674 52.9994 115.452C52.2318 115.131 52.169 113.944 52.169 113.944C52.0737 111.157 50.443 110.928 50.443 110.928C44.7833 110.456 44.8159 116.317 44.8159 117.116Z" fill="#3F3D56"/>
<path d="M77.3644 101.456H80.8164V90.7262H77.3644V101.456Z" fill="#F86D70"/>
<path opacity="0.1" d="M77.3644 101.456H80.8164V90.7262H77.3644V101.456Z" fill="black"/>
<path opacity="0.1" d="M86.4111 68.7823C86.4105 68.7899 86.4105 68.7974 86.4111 68.805C86.4378 68.8646 86.4697 68.9218 86.5064 68.9759L87.4647 70.3833L89.9584 70.6347L89.986 69.6444C89.2083 69.5841 87.4371 69.3705 86.4111 68.7823Z" fill="black"/>
<path d="M86.5092 68.9759C86.5092 68.9759 86.6371 74.6108 85.2297 75.3799C83.8223 76.1489 83.2754 80.1552 83.2754 80.1552C83.2754 80.1552 87.5403 82.9651 88.4911 84.2017C89.4419 85.4382 91.6245 88.3838 91.1754 89.0876C90.7264 89.7913 92.2642 92.9958 92.2642 92.9958C92.2642 92.9958 89.4494 98.7614 90.0891 100.94C90.7289 103.12 90.7916 108.883 90.7916 108.883H92.0083C92.0083 108.883 91.6245 104.142 91.6245 102.22C91.6245 100.297 92.9014 93.4432 92.9014 93.4432C92.9014 93.4432 93.4784 86.7175 92.9014 86.5265C92.3244 86.3355 88.9376 83.6437 88.6817 82.4247C88.4258 81.2058 90.473 69.8581 90.473 69.8581C90.473 69.8581 87.8513 69.745 86.5092 68.9759Z" fill="#F86D70"/>
<path opacity="0.1" d="M77.2993 89.731C77.416 90.5151 77.7011 91.2645 78.1347 91.9277L80.498 91.5255C80.498 91.5255 87.5952 89.922 89.0603 89.7913C89.9478 89.6739 90.8134 89.4267 91.6292 89.0574C91.0669 87.0612 89.9693 85.2575 88.4557 83.8423L87.5551 83.0053C86.2279 81.7709 84.6897 80.7859 83.0142 80.0974C83.1196 80.1854 90.5655 86.5542 88.9349 87.8033C87.3042 89.0524 82.9139 86.0113 82.9139 86.0113L77.9215 81.7135L77.7409 81.5577L77.4524 82.0075C77.5991 82.068 77.7424 82.1369 77.8813 82.2136C79.5828 83.1493 80.8455 84.7215 81.3936 86.5868C82.4197 90.0427 77.2993 89.731 77.2993 89.731Z" fill="black"/>
<path d="M75.7642 105.746C75.7642 105.746 80.4956 108.372 81.6446 106.9C81.8955 106.575 82.4249 106.435 83.0847 106.397C82.9768 106.065 82.9241 105.844 82.9241 105.844C82.9241 105.844 79.3993 104.542 76.1179 104.854C75.9021 105.397 75.7642 105.746 75.7642 105.746Z" fill="#444053"/>
<path d="M77.9417 81.5627L83.1148 86.0214C83.1148 86.0214 87.4875 89.0725 89.1357 87.8134C90.784 86.5542 83.2126 80.105 83.2126 80.105C84.8846 80.7955 86.4211 81.7775 87.7509 83.0054L88.6516 83.8423C91.0198 86.0415 91.5542 86.0415 91.6345 89.2736C91.6545 90.0703 91.3836 91.2139 91.1754 91.42C90.4077 92.174 89.8708 97.6505 89.9887 98.2914C90.1066 98.9323 88.5587 104.464 89.0605 106.002C89.5622 107.54 82.7886 105.233 81.6421 106.709C80.4956 108.184 75.7642 105.555 75.7642 105.555C75.7642 105.555 78.3858 98.8268 79.0255 98.3794C79.6653 97.932 80.4329 94.4712 79.0255 92.8702C77.6181 91.2692 77.4927 89.731 77.4927 89.731C77.4927 89.731 82.6105 90.0477 81.5844 86.5919C81.2958 85.5902 80.795 84.6627 80.1161 83.8724C79.4373 83.0822 78.5964 82.4478 77.6507 82.0126L77.9417 81.5627Z" fill="#E8E8F0"/>
<path opacity="0.1" d="M84.8457 92.9028C84.8457 92.9028 82.8613 96.6502 80.2949 97.6229C80.2121 97.653 80.1318 97.6807 80.044 97.7058C77.3647 98.5227 85.0464 94.064 84.8457 92.9028Z" fill="black"/>
<path d="M57.094 59.7495C57.094 59.7495 58.0523 62.1849 58.82 63.0168C59.5876 63.8487 65.2775 72.1779 65.2775 72.1779L65.7591 73.1832L66.1731 74.0403L69.8183 73.6557L70.0692 72.1829L69.9287 72.012C69.5624 71.5722 68.5639 70.3909 67.8941 69.8757C67.0637 69.2373 65.4004 67.1236 65.4004 67.1236C65.4004 67.1236 60.2224 61.74 59.8385 60.2672C59.4547 58.7944 54.2741 49.9625 53.1251 51.4906C51.9761 53.0188 57.094 59.7495 57.094 59.7495Z" fill="#FBBEBE"/>
<g opacity="0.1">
<path opacity="0.1" d="M67.6706 99.3672C67.2331 99.3292 66.7927 99.3929 66.3837 99.5532C65.4805 99.993 65.3099 101.182 64.8082 102.054C64.2211 103.074 63.1022 103.705 61.9507 103.939C61.7218 103.983 61.4907 104.015 61.2583 104.034C61.9917 104.106 62.7315 104.074 63.456 103.939C64.6075 103.705 65.7264 103.074 66.3134 102.054C66.8152 101.182 66.9858 99.993 67.8889 99.5532C68.126 99.4462 68.3816 99.3865 68.6415 99.3772L67.6706 99.3672Z" fill="black"/>
<path opacity="0.1" d="M76.5815 80.0874C76.5815 78.0893 77.8785 76.3676 78.9473 74.6812C80.016 72.9948 80.9141 70.866 80.0687 69.0564C79.3462 67.5107 74.991 65.4372 72.4772 65.8468C74.9383 66.166 77.9714 67.7896 78.5634 69.0564C79.4089 70.866 78.5107 72.9948 77.442 74.6812C76.3733 76.3676 75.0713 78.0893 75.0763 80.0874C75.0763 82.6661 74.9032 84.6114 74.1957 87.1021C73.9925 87.8184 75.9518 88.9016 75.6508 89.5802C74.6322 91.8422 75.1089 94.4511 74.9458 96.9242C74.9424 97.4074 74.8246 97.8829 74.6021 98.3116C74.1004 99.1384 73.0718 99.3521 72.0708 99.3973H72.9463C74.1154 99.3973 75.5028 99.3068 76.1074 98.304C76.3299 97.8753 76.4477 97.3998 76.4511 96.9167C76.6141 94.4435 76.1375 91.8322 77.156 89.5727C77.4621 88.8941 75.4977 87.8134 75.701 87.0945C76.4084 84.6214 76.5865 82.6661 76.5815 80.0874Z" fill="black"/>
</g>
<path opacity="0.1" d="M65.7588 73.1782L66.1727 74.0353L69.8179 73.6507L70.0688 72.1779L69.9283 72.007C69.5395 72.198 66.6268 73.603 65.7588 73.1782Z" fill="black"/>
<path opacity="0.1" d="M79.2184 82.8118C79.2184 82.8118 78.3228 81.4044 77.811 81.7864C77.2993 82.1684 77.1011 80.6328 76.8075 80.8891C76.514 81.1455 75.6585 81.8593 75.3023 80.8615C75.0238 80.0673 71.9933 75.0431 70.764 73.0224C70.4479 72.4996 70.2497 72.1779 70.2497 72.1779C70.2497 72.1779 66.7977 73.9071 65.9673 73.3315V74.548L66.6697 74.6133L70.4328 81.6507C70.4328 81.6507 71.617 83.5382 71.5367 84.1967C71.4564 84.8552 73.0545 87.738 73.3104 87.929C73.5663 88.12 76.3209 91.3245 76.3209 91.3245C76.3209 91.3245 77.7283 98.2437 76.5115 100.166C75.2948 102.089 73.1874 103.497 73.1874 103.497C73.1874 103.497 72.5527 105.354 72.6456 105.547C72.7384 105.741 71.908 106.573 72.2918 106.829C72.6757 107.086 73.1874 108.878 73.1874 108.878C73.1874 108.878 74.9787 105.995 75.9471 105.547C76.9154 105.1 78.1547 99.2038 78.1547 99.2038C78.1547 99.2038 78.5085 95.7304 78.5361 93.4885C78.5637 91.2466 78.4508 82.8118 79.2184 82.8118Z" fill="black"/>
<path d="M79.0251 82.8118C79.0251 82.8118 78.132 81.4044 77.6202 81.7864C77.1084 82.1684 76.9077 80.6328 76.6167 80.8891C76.3257 81.1455 75.4702 81.8593 75.1115 80.8615C74.8305 80.0673 71.7999 75.0431 70.5732 73.0224L70.0589 72.1779C70.0589 72.1779 66.6068 73.9071 65.7739 73.3315V74.548L66.4789 74.6133L70.242 81.6507C70.242 81.6507 71.4286 83.5382 71.3459 84.1967C71.2631 84.8552 72.8511 87.738 73.1195 87.929C73.388 88.12 76.13 91.3245 76.13 91.3245C76.13 91.3245 77.5374 98.2437 76.3232 100.166C75.6818 101.132 74.9015 101.998 74.0076 102.735C73.2568 103.356 72.7284 104.204 72.5024 105.153C72.4588 105.282 72.4434 105.419 72.4572 105.555C72.55 105.746 71.7197 106.58 72.1035 106.837C72.4873 107.093 73.0041 108.893 73.0041 108.893C73.0041 108.893 74.7954 106.01 75.7637 105.563C76.7321 105.115 77.974 99.2189 77.974 99.2189C77.974 99.2189 78.3252 95.7454 78.3553 93.5035C78.3854 91.2617 78.2725 82.8118 79.0251 82.8118Z" fill="#F86D70"/>
<path opacity="0.1" d="M70.2647 111.961C70.2647 111.961 72.9515 112.464 74.0278 113.241C75.104 114.017 69.936 112.024 69.936 112.024L70.2647 111.961Z" fill="black"/>
<path opacity="0.1" d="M76.7246 118.783C76.7246 118.783 79.5269 121.123 79.0251 123.236C78.5234 125.35 77.2289 130.668 77.2289 130.668L76.7246 118.783Z" fill="black"/>
<path opacity="0.1" d="M52.217 114.284C52.217 114.284 48.2682 114.716 48.5241 115.229C48.78 115.742 52.217 114.756 52.217 114.756V114.284Z" fill="black"/>
<path opacity="0.1" d="M82.5375 133.742C82.5375 133.742 82.7884 134.061 81.3233 133.742C79.8582 133.423 80.9394 132.438 80.9394 132.438L82.5375 133.742Z" fill="black"/>
<path opacity="0.1" d="M82.036 138.163C82.036 138.163 80.029 138.482 78.9528 138.163C77.8765 137.844 82.036 138.163 82.036 138.163Z" fill="black"/>
<path opacity="0.1" d="M77.9068 155.46C77.9068 155.46 77.5556 155.075 75.797 155.779C74.0383 156.483 73.3359 156.515 72.8241 156.282C72.3123 156.048 77.9068 155.46 77.9068 155.46Z" fill="black"/>
<path opacity="0.1" d="M79.8584 113.738L77.3647 117.214C77.3647 117.214 78.7069 114.171 79.8584 113.738Z" fill="black"/>
<path opacity="0.1" d="M75.0115 81.7864C75.0115 81.7864 74.9036 82.94 73.2955 83.3899C71.6874 83.8398 71.3813 84.2042 71.3813 84.2042" fill="black"/>
<path opacity="0.1" d="M70.8318 73.4245C70.8318 73.4245 68.7094 74.9325 66.4941 74.6133L70.8318 73.4245Z" fill="black"/>
<path opacity="0.1" d="M72.4478 105.713C72.4478 105.713 73.0674 106.103 74.5551 104.399L72.4478 105.713Z" fill="black"/>
<path opacity="0.1" d="M87.8986 87.6449C87.9589 87.3333 87.7431 87.0443 87.5399 86.8005L87.1234 86.2978C87.0421 86.1949 86.9504 86.1006 86.85 86.0163C86.5991 85.8228 86.278 85.765 86.0171 85.5916" fill="black"/>
<path opacity="0.1" d="M222.598 0.0276764C222.598 0.0276764 201.477 -1.24909 203.961 13.5796C203.961 13.5796 203.459 16.201 205.837 17.3898C205.837 17.3898 205.875 16.2915 208.005 16.6659C208.763 16.7919 209.534 16.829 210.3 16.7765C211.336 16.7049 212.321 16.2973 213.105 15.6154C213.105 15.6154 219.043 13.1573 221.351 3.43576C221.351 3.43576 223.06 1.3145 222.992 0.769111L219.427 2.2947C219.427 2.2947 220.647 4.87087 219.678 7.01223C219.678 7.01223 219.563 2.3877 218.878 2.48823C218.74 2.51085 217.026 3.38046 217.026 3.38046C217.026 3.38046 219.121 7.86676 217.541 11.1291C217.541 11.1291 218.14 5.59973 216.372 3.70468L213.863 5.17247C213.863 5.17247 216.311 9.80706 214.651 13.5896C214.651 13.5896 215.077 7.78885 213.334 5.52936L211.061 7.30629C211.061 7.30629 213.361 11.8755 211.959 15.0122C211.959 15.0122 211.776 8.25884 210.569 7.74864C210.569 7.74864 208.579 9.50797 208.276 10.2268C208.276 10.2268 209.851 13.5444 208.873 15.2937C208.873 15.2937 208.273 10.7948 207.782 10.7697C207.782 10.7697 205.8 13.7505 205.594 15.7963C205.594 15.7963 205.679 12.7577 207.303 10.4882C207.303 10.4882 205.386 10.8174 204.267 12.0615C204.267 12.0615 204.576 9.95534 207.792 9.77187C207.792 9.77187 209.43 7.50987 209.866 7.37164C209.866 7.37164 206.67 7.10522 204.731 7.96478C204.731 7.96478 206.437 5.97673 210.453 6.88153L212.699 5.04429C212.699 5.04429 208.489 4.46874 206.703 5.10461C206.703 5.10461 208.758 3.34527 213.303 4.62707L215.747 3.16432C215.747 3.16432 212.157 2.39021 210.019 2.66165C210.019 2.66165 212.277 1.44268 216.464 2.7647L218.221 1.97802C218.221 1.97802 215.591 1.46028 214.821 1.37734C214.051 1.2944 214.011 1.08328 214.011 1.08328C215.677 0.805014 217.387 0.995566 218.951 1.6337C218.951 1.6337 222.664 0.261416 222.598 0.0276764Z" fill="#6C63FF"/>
<path opacity="0.1" d="M196.547 3.80012C196.547 3.80012 187.014 3.22205 188.13 9.92259C188.13 9.92259 187.907 11.1089 188.976 11.6467C188.976 11.6467 188.993 11.1441 189.957 11.3175C190.299 11.3752 190.647 11.3921 190.993 11.3678C191.461 11.3359 191.906 11.1514 192.26 10.8425C192.26 10.8425 194.944 9.7341 195.988 5.34079C195.988 5.34079 196.758 4.3807 196.728 4.13439L195.117 4.82304C195.117 4.82304 195.669 5.98923 195.235 6.95686C195.235 6.95686 195.183 4.86577 194.874 4.91604C194.811 4.91604 194.036 5.31817 194.036 5.31817C194.036 5.31817 194.984 7.34643 194.269 8.82175C194.269 8.82175 194.54 6.3235 193.74 5.46646L192.606 6.12998C192.606 6.12998 193.715 8.22358 192.962 9.93265C192.962 9.93265 193.155 7.31124 192.368 6.29083L191.342 7.10263C191.342 7.10263 192.38 9.1686 191.748 10.5836C191.748 10.5836 191.665 7.53242 191.118 7.3037C191.118 7.3037 190.22 8.09791 190.082 8.42465C190.082 8.42465 190.795 9.93265 190.353 10.7118C190.353 10.7118 190.082 8.6785 189.851 8.67096C189.851 8.67096 188.958 10.0181 188.863 10.933C188.908 10.0792 189.174 9.25182 189.636 8.53272C189.119 8.6308 188.642 8.87802 188.263 9.244C188.263 9.244 188.404 8.29395 189.856 8.2085C189.856 8.2085 190.609 7.18809 190.795 7.12525C190.795 7.12525 189.35 7.00462 188.474 7.39418C188.474 7.39418 189.244 6.49441 191.061 6.89152L192.064 6.06211C192.064 6.06211 190.163 5.81078 189.355 6.08976C189.355 6.08976 190.283 5.29555 192.338 5.87361L193.441 5.21261C193.441 5.21261 191.821 4.86074 190.852 4.98892C190.852 4.98892 191.874 4.43599 193.765 5.03416L194.555 4.67978C194.555 4.67978 193.366 4.44353 193.018 4.40834C192.669 4.37315 192.651 4.27513 192.651 4.27513C193.404 4.14962 194.177 4.23665 194.884 4.52647C194.884 4.52647 196.577 3.90568 196.547 3.80012Z" fill="#6C63FF"/>
<path d="M229.848 163.558C235.42 163.558 239.936 162.792 239.936 161.849C239.936 160.905 235.42 160.14 229.848 160.14C224.277 160.14 219.761 160.905 219.761 161.849C219.761 162.792 224.277 163.558 229.848 163.558Z" fill="#0564FF"/>
<path d="M234.02 159.054C234.481 158.678 234.816 158.17 234.981 157.599C235.106 157.023 234.861 156.342 234.309 156.118C233.692 155.882 233.032 156.312 232.533 156.744C232.033 157.176 231.459 157.671 230.806 157.578C231.143 157.273 231.394 156.885 231.537 156.453C231.679 156.021 231.707 155.559 231.619 155.113C231.591 154.928 231.513 154.754 231.394 154.61C231.05 154.243 230.43 154.399 230.019 154.688C228.714 155.608 228.35 157.385 228.343 158.981C228.212 158.405 228.323 157.805 228.32 157.222C228.318 156.638 228.155 155.965 227.656 155.656C227.348 155.49 227.001 155.408 226.652 155.419C226.067 155.397 225.413 155.457 225.014 155.887C224.512 156.42 224.645 157.315 225.077 157.898C225.508 158.481 226.168 158.855 226.775 159.26C227.261 159.55 227.675 159.946 227.987 160.418C228.024 160.485 228.055 160.554 228.077 160.627H231.755C232.577 160.207 233.339 159.678 234.02 159.054Z" fill="#0564FF"/>
<path d="M142 72L144.021 78.2188H150.56L145.269 82.0623L147.29 88.2812L142 84.4377L136.71 88.2812L138.731 82.0623L133.44 78.2188H139.979L142 72Z" fill="#FFC502"/>
<path d="M143 72L145.021 78.2188H151.56L146.269 82.0623L148.29 88.2812L143 84.4377L137.71 88.2812L139.731 82.0623L134.44 78.2188H140.979L143 72Z" fill="white"/>
</g>
<defs>
<linearGradient id="paint0_linear" x1="202.834" y1="126.906" x2="202.834" y2="25.7943" gradientUnits="userSpaceOnUse">
<stop stop-color="#808080" stop-opacity="0.25"/>
<stop offset="0.54" stop-color="#808080" stop-opacity="0.12"/>
<stop offset="1" stop-color="#808080" stop-opacity="0.1"/>
</linearGradient>
<linearGradient id="paint1_linear" x1="9997.69" y1="62980.3" x2="22388.7" y2="62980.3" gradientUnits="userSpaceOnUse">
<stop stop-color="#808080" stop-opacity="0.25"/>
<stop offset="0.54" stop-color="#808080" stop-opacity="0.12"/>
<stop offset="1" stop-color="#808080" stop-opacity="0.1"/>
</linearGradient>
<clipPath id="clip0">
<rect width="287" height="164" fill="white"/>
</clipPath>
</defs>
</svg>
