<svg width="208" height="145" viewBox="0 0 208 145" fill="none" xmlns="http://www.w3.org/2000/svg">
<g clip-path="url(#clip0)">
<path d="M43.4795 5.98999L44.3882 80.9746L83.6523 100.105L82.7436 25.121L43.4795 5.98999Z" fill="#F2F2F2"/>
<path d="M31.548 0L2.20898 60.2466L42.018 79.6432L41.1093 4.65859L31.548 0Z" fill="#F2F2F2"/>
<path d="M208 84.6362L128.759 46.0272L129.667 121.012L178.661 144.883L208 84.6362Z" fill="#F2F2F2"/>
<path d="M86.2935 25.121L87.2021 100.105L126.466 119.236L125.558 44.2519L86.2935 25.121Z" fill="#F2F2F2"/>
<path d="M99.9408 84.9758L98.8315 109.829C98.8315 109.829 101.716 133.35 101.05 134.016C100.384 134.682 98.6097 136.013 99.9408 137.566C101.272 139.12 106.152 140.229 106.374 139.342C106.596 138.454 107.04 113.157 107.04 113.157L108.593 83.2006L99.9408 84.9758Z" fill="#2F2E41"/>
<path opacity="0.2" d="M99.9408 84.9758L98.8315 109.829C98.8315 109.829 101.716 133.35 101.05 134.016C100.384 134.682 98.6097 136.013 99.9408 137.566C101.272 139.12 106.152 140.229 106.374 139.342C106.596 138.454 107.04 113.157 107.04 113.157L108.593 83.2006L99.9408 84.9758Z" fill="black"/>
<path d="M101.05 137.122C101.05 137.122 95.5039 141.339 94.8384 141.339C94.1728 141.339 88.183 143.336 92.3981 144.223C96.6131 145.111 106.818 144.667 107.04 143.336C107.262 142.004 106.374 137.964 106.374 137.964L101.05 137.122Z" fill="#2F2E41"/>
<path opacity="0.2" d="M101.05 137.122C101.05 137.122 95.5039 141.339 94.8384 141.339C94.1728 141.339 88.183 143.336 92.3981 144.223C96.6131 145.111 106.818 144.667 107.04 143.336C107.262 142.004 106.374 137.964 106.374 137.964L101.05 137.122Z" fill="black"/>
<path d="M87.2952 66.3361C87.2952 66.3361 84.8549 67.2237 84.8549 67.8894C84.8549 68.5551 82.6365 76.9873 82.1928 77.4311C81.7491 77.8749 81.5273 79.872 81.5273 79.872C81.5273 79.872 79.3088 84.9757 79.7525 84.9757C80.1962 84.9757 83.9675 84.0881 84.1894 84.9757C84.4112 85.8633 86.186 79.4282 86.186 79.4282L89.9573 71.8836L87.2952 66.3361Z" fill="#0564FF"/>
<path d="M79.7529 85.8634C79.7529 85.8634 80.4185 90.7452 82.1932 91.189C83.968 91.6328 82.1932 84.9758 82.1932 84.9758L79.7529 85.8634Z" fill="#FFB8B8"/>
<path d="M85.5205 63.6732C85.5205 63.6732 86.8516 66.558 87.5171 68.1113C88.1826 69.6646 94.3943 64.117 94.3943 64.117C94.3943 64.117 91.0666 61.6761 91.0666 60.5666C91.0666 59.4571 85.5205 63.6732 85.5205 63.6732Z" fill="#FFB8B8"/>
<path d="M21.5279 135.803C23.0157 141.304 28.1116 144.711 28.1116 144.711C28.1116 144.711 30.7953 139.199 29.3076 133.698C27.8198 128.197 22.7239 124.79 22.7239 124.79C22.7239 124.79 20.0401 130.302 21.5279 135.803Z" fill="#3F3D56"/>
<path d="M23.7135 134.621C27.7959 138.596 28.2945 144.707 28.2945 144.707C28.2945 144.707 22.1743 144.373 18.0918 140.398C14.0094 136.422 13.5107 130.312 13.5107 130.312C13.5107 130.312 19.631 130.646 23.7135 134.621Z" fill="#0564FF"/>
<path d="M74.4285 144.889C70.4358 144.889 66.5326 143.705 63.2128 141.486C59.8929 139.267 57.3054 136.113 55.7774 132.424C54.2495 128.734 53.8497 124.674 54.6286 120.757C55.4076 116.84 57.3303 113.241 60.1536 110.417C62.9769 107.593 66.574 105.67 70.4901 104.891C74.4061 104.112 78.4652 104.512 82.1541 106.04C85.8429 107.569 88.9958 110.157 91.2141 113.477C93.4323 116.798 94.6163 120.702 94.6163 124.696C94.6103 130.05 92.4814 135.182 88.6968 138.968C84.9121 142.754 79.7808 144.883 74.4285 144.889ZM74.4285 104.947C70.5235 104.947 66.7062 106.105 63.4593 108.275C60.2124 110.445 57.6817 113.53 56.1874 117.138C54.693 120.747 54.302 124.718 55.0638 128.549C55.8256 132.38 57.7061 135.899 60.4673 138.661C63.2286 141.423 66.7467 143.304 70.5766 144.066C74.4066 144.828 78.3765 144.437 81.9843 142.942C85.592 141.447 88.6756 138.916 90.8451 135.668C93.0147 132.42 94.1726 128.602 94.1726 124.696C94.1667 119.46 92.0847 114.44 88.3832 110.738C84.6817 107.035 79.6632 104.953 74.4285 104.947Z" fill="#2F2E41"/>
<path d="M136.545 144.889C132.552 144.889 128.649 143.705 125.329 141.486C122.009 139.267 119.422 136.113 117.894 132.424C116.366 128.734 115.966 124.674 116.745 120.757C117.524 116.84 119.447 113.241 122.27 110.417C125.093 107.593 128.69 105.67 132.606 104.891C136.522 104.112 140.581 104.512 144.27 106.04C147.959 107.569 151.112 110.157 153.33 113.477C155.549 116.798 156.733 120.702 156.733 124.696C156.726 130.05 154.598 135.182 150.813 138.968C147.028 142.754 141.897 144.883 136.545 144.889ZM136.545 104.947C132.64 104.947 128.822 106.105 125.576 108.275C122.329 110.445 119.798 113.53 118.304 117.138C116.809 120.747 116.418 124.718 117.18 128.549C117.942 132.38 119.822 135.899 122.584 138.661C125.345 141.423 128.863 143.304 132.693 144.066C136.523 144.828 140.493 144.437 144.1 142.942C147.708 141.447 150.792 138.916 152.961 135.668C155.131 132.42 156.289 128.602 156.289 124.696C156.283 119.46 154.201 114.44 150.499 110.738C146.798 107.035 141.779 104.953 136.545 104.947Z" fill="#2F2E41"/>
<path d="M74.4287 126.027C75.1638 126.027 75.7598 125.431 75.7598 124.696C75.7598 123.961 75.1638 123.365 74.4287 123.365C73.6936 123.365 73.0977 123.961 73.0977 124.696C73.0977 125.431 73.6936 126.027 74.4287 126.027Z" fill="#2F2E41"/>
<path d="M136.989 126.027C137.724 126.027 138.32 125.431 138.32 124.696C138.32 123.961 137.724 123.365 136.989 123.365C136.254 123.365 135.658 123.961 135.658 124.696C135.658 125.431 136.254 126.027 136.989 126.027Z" fill="#2F2E41"/>
<path d="M76.4077 122.786L75.9995 122.612L87.5942 95.4021L120.474 96.0731L120.537 96.173L136.732 121.47L136.358 121.709L120.227 96.5123L87.8848 95.8519L76.4077 122.786Z" fill="#2F2E41"/>
<path d="M110.95 127.843L119.471 97.7856L119.898 97.9065L111.56 127.318L133.855 124.476L133.911 124.916L110.95 127.843Z" fill="#2F2E41"/>
<path d="M86.7884 102.129L86.4717 102.439L109.322 125.739L109.638 125.428L86.7884 102.129Z" fill="#2F2E41"/>
<path d="M121.688 90.6866L120.359 95.569L120.787 95.6856L122.116 90.8032L121.688 90.6866Z" fill="#2F2E41"/>
<path d="M88.3993 94.1228L87.9663 94.0245L89.014 89.4139H85.2988V86.5292H85.7425V88.9701H89.57L88.3993 94.1228Z" fill="#2F2E41"/>
<path d="M113.695 86.3072C113.695 86.3072 113.695 84.9758 116.579 85.6415C119.463 86.3072 128.337 88.0824 129.002 87.8605C129.668 87.6386 129.446 89.1919 126.562 89.8576C123.678 90.5233 120.35 88.97 119.685 88.5262C119.019 88.0824 113.695 86.3072 113.695 86.3072Z" fill="#2F2E41"/>
<path d="M105.708 126.027H99.9404V128.246H105.708V126.027Z" fill="#0564FF"/>
<path d="M111.255 132.019C110.377 132.019 109.519 131.758 108.79 131.271C108.06 130.783 107.491 130.09 107.156 129.279C106.82 128.468 106.732 127.576 106.903 126.715C107.074 125.854 107.497 125.063 108.117 124.443C108.738 123.822 109.528 123.399 110.389 123.228C111.25 123.057 112.142 123.145 112.953 123.481C113.763 123.816 114.456 124.385 114.944 125.115C115.431 125.845 115.692 126.703 115.692 127.581C115.69 128.757 115.222 129.885 114.391 130.717C113.559 131.549 112.431 132.017 111.255 132.019ZM111.255 123.587C110.465 123.587 109.693 123.821 109.036 124.26C108.38 124.699 107.868 125.322 107.566 126.052C107.263 126.782 107.184 127.585 107.338 128.36C107.492 129.135 107.873 129.847 108.431 130.405C108.99 130.964 109.701 131.344 110.476 131.498C111.25 131.652 112.053 131.573 112.783 131.271C113.513 130.969 114.136 130.457 114.575 129.8C115.014 129.143 115.248 128.371 115.248 127.581C115.247 126.522 114.826 125.507 114.077 124.758C113.328 124.009 112.313 123.588 111.255 123.587Z" fill="#2F2E41"/>
<path d="M87.5176 65.8923C90.4581 65.8923 92.8419 63.5079 92.8419 60.5667C92.8419 57.6254 90.4581 55.241 87.5176 55.241C84.5771 55.241 82.1934 57.6254 82.1934 60.5667C82.1934 63.5079 84.5771 65.8923 87.5176 65.8923Z" fill="#FFB8B8"/>
<path d="M104.377 85.4195C104.377 85.4195 89.0701 94.2956 89.2919 97.1803C89.5138 100.065 101.05 115.82 101.05 115.82C101.05 115.82 101.937 120.48 102.824 120.48C103.712 120.48 109.258 122.477 109.48 121.146C109.702 119.814 107.705 118.261 107.927 117.373C108.149 116.486 98.1657 100.287 98.1657 100.287C98.1657 100.287 119.531 92.2985 115.06 85.4195C110.589 78.5406 104.377 85.4195 104.377 85.4195Z" fill="#2F2E41"/>
<path d="M104.821 119.592C104.821 119.592 102.159 120.258 101.715 121.146C101.271 122.033 93.507 124.918 95.7254 125.584C97.9438 126.249 110.811 126.471 111.254 126.027C111.698 125.584 111.254 120.433 109.48 120.456C107.705 120.48 105.708 121.146 104.821 119.592Z" fill="#2F2E41"/>
<path d="M87.5171 68.777L92.5086 62.6747C92.5086 62.6747 98.1656 61.0105 100.606 64.339C103.046 67.6675 109.701 75.8778 111.92 77.653C114.138 79.4283 117.244 86.3072 116.135 86.5291C115.026 86.751 108.814 84.0882 106.374 85.8634C103.934 87.6386 99.2748 87.8605 99.053 86.9729C98.8311 86.0853 85.5205 71.2179 85.5205 69.2208C85.5205 67.2237 86.9389 66.7952 86.9389 66.7952L87.5171 68.777Z" fill="#0564FF"/>
<path d="M90.1984 86.4192L83.5054 84.0523C83.1589 83.9298 82.7786 84.1114 82.6561 84.4581C82.5336 84.8047 82.7152 85.185 83.0617 85.3076L89.7547 87.6745C90.1013 87.797 90.4815 87.6154 90.6041 87.2687C90.7266 86.9221 90.545 86.5418 90.1984 86.4192Z" fill="#2F2E41"/>
<path d="M75.0945 83.6444C75.0945 83.6444 67.33 85.8634 67.9955 88.3043C68.6611 90.7452 75.7601 85.4196 75.7601 85.4196L75.0945 83.6444Z" fill="#FFB8B8"/>
<path d="M95.2821 64.3389C95.2821 64.3389 92.1763 67.0018 91.5107 70.1084C90.8452 73.215 87.5175 78.7625 87.5175 78.7625L73.9851 83.2005C73.9851 83.2005 73.0977 87.4166 74.4288 87.4166C75.7598 87.4166 90.6233 84.31 91.067 83.6443C91.5107 82.9786 101.05 70.3303 101.05 70.3303C101.05 70.3303 101.937 63.4513 95.2821 64.3389Z" fill="#0564FF"/>
<path d="M84.2106 54.4025C84.0795 54.5156 83.9224 54.5944 83.7534 54.6321C83.6685 54.6472 83.5811 54.6281 83.5103 54.5791C83.4395 54.53 83.3909 54.4548 83.3752 54.3701C83.2775 54.6415 83.0957 54.8747 82.8564 55.0357C82.6024 55.1681 82.2096 55.0571 82.1729 54.7729C82.1358 54.9887 82.0404 55.1902 81.897 55.3556C81.8222 55.4347 81.7192 55.4811 81.6104 55.4847C81.5016 55.4884 81.3958 55.4489 81.3159 55.375C81.4272 55.9831 81.3585 56.6085 81.3934 57.2257C81.4284 57.843 81.5929 58.4973 82.0591 58.9032C82.7391 59.4951 83.7615 59.3491 84.6559 59.2369C84.7911 59.2085 84.9314 59.2162 85.0628 59.2592C85.3977 59.4019 85.3825 59.8682 85.387 60.2323C85.4143 60.8711 85.6671 61.4795 86.1004 61.9496C86.5337 62.4196 87.1196 62.7209 87.7539 62.7998C88.1089 62.8546 88.4711 62.7662 88.761 62.554C89.0149 62.3387 89.1446 61.9878 89.4356 61.826C89.9089 61.5629 90.483 61.9466 90.829 62.3632C91.1751 62.7798 91.5162 63.2922 92.0523 63.3685C92.7613 63.4693 93.3013 62.7466 93.5663 62.0811C93.9318 61.1483 94.1069 60.1518 94.0813 59.1502C94.0557 58.1487 93.8299 57.1624 93.4171 56.2496C91.9367 53.0216 86.8794 52.511 84.2106 54.4025Z" fill="#2F2E41"/>
<path d="M177.894 144.88L177.5 144.676C182.62 134.774 179.882 121.915 176.683 112.871C174.512 106.792 171.741 100.944 168.414 95.4127L168.789 95.1757C172.134 100.735 174.918 106.613 177.102 112.723C180.33 121.849 183.087 134.837 177.894 144.88Z" fill="#2F2E41"/>
<path d="M181.692 95.2551L178.813 111.011L179.25 111.091L182.128 95.3348L181.692 95.2551Z" fill="#2F2E41"/>
<path d="M162.552 108.679L162.227 108.981L177.091 124.958L177.415 124.656L162.552 108.679Z" fill="#2F2E41"/>
<path d="M189.273 126.229L181.734 136.661L182.094 136.921L189.633 126.489L189.273 126.229Z" fill="#2F2E41"/>
<path d="M183.021 91.078C184.246 91.078 185.24 90.0845 185.24 88.859C185.24 87.6335 184.246 86.64 183.021 86.64C181.796 86.64 180.803 87.6335 180.803 88.859C180.803 90.0845 181.796 91.078 183.021 91.078Z" fill="#0564FF"/>
<path d="M158.84 108.164C160.065 108.164 161.058 107.171 161.058 105.945C161.058 104.72 160.065 103.726 158.84 103.726C157.615 103.726 156.622 104.72 156.622 105.945C156.622 107.171 157.615 108.164 158.84 108.164Z" fill="#3F3D56"/>
<path d="M168.601 110.383C169.826 110.383 170.82 109.39 170.82 108.164C170.82 106.939 169.826 105.945 168.601 105.945C167.376 105.945 166.383 106.939 166.383 108.164C166.383 109.39 167.376 110.383 168.601 110.383Z" fill="#3F3D56"/>
<path d="M164.164 119.038C165.389 119.038 166.383 118.044 166.383 116.819C166.383 115.593 165.389 114.6 164.164 114.6C162.939 114.6 161.946 115.593 161.946 116.819C161.946 118.044 162.939 119.038 164.164 119.038Z" fill="#0564FF"/>
<path d="M191.895 124.585C193.12 124.585 194.113 123.592 194.113 122.366C194.113 121.141 193.12 120.147 191.895 120.147C190.669 120.147 189.676 121.141 189.676 122.366C189.676 123.592 190.669 124.585 191.895 124.585Z" fill="#3F3D56"/>
<path d="M184.574 127.026C185.799 127.026 186.792 126.033 186.792 124.807C186.792 123.581 185.799 122.588 184.574 122.588C183.349 122.588 182.355 123.581 182.355 124.807C182.355 126.033 183.349 127.026 184.574 127.026Z" fill="#3F3D56"/>
<path d="M189.676 134.127C190.902 134.127 191.895 133.133 191.895 131.908C191.895 130.682 190.902 129.689 189.676 129.689C188.451 129.689 187.458 130.682 187.458 131.908C187.458 133.133 188.451 134.127 189.676 134.127Z" fill="#3F3D56"/>
<path d="M166.383 93.7409C167.608 93.7409 168.601 92.7474 168.601 91.5219C168.601 90.2963 167.608 89.3029 166.383 89.3029C165.158 89.3029 164.165 90.2963 164.165 91.5219C164.165 92.7474 165.158 93.7409 166.383 93.7409Z" fill="#3F3D56"/>
<path d="M200.325 144.556H0V145H200.325V144.556Z" fill="#2F2E41"/>
<path d="M34.3715 98.6065L15.5435 87.7333L4.67311 106.566L23.5011 117.439L34.3715 98.6065Z" fill="#F2F2F2"/>
<path d="M23.9592 121.226C22.9939 121.226 22.0503 120.94 21.2477 120.403C20.4451 119.867 19.8195 119.104 19.4501 118.212C19.0807 117.32 18.9841 116.339 19.1724 115.392C19.3607 114.445 19.8255 113.575 20.5081 112.892C21.1907 112.21 22.0603 111.745 23.007 111.556C23.9538 111.368 24.9351 111.465 25.8269 111.834C26.7187 112.204 27.4809 112.829 28.0172 113.632C28.5535 114.435 28.8397 115.379 28.8397 116.344C28.8383 117.639 28.3236 118.879 27.4086 119.795C26.4937 120.71 25.2531 121.225 23.9592 121.226ZM23.9592 111.906C23.0816 111.906 22.2238 112.166 21.4942 112.654C20.7645 113.142 20.1959 113.835 19.86 114.646C19.5242 115.457 19.4364 116.349 19.6076 117.21C19.7788 118.071 20.2013 118.862 20.8218 119.482C21.4423 120.103 22.2329 120.526 23.0936 120.697C23.9543 120.868 24.8464 120.78 25.6571 120.444C26.4678 120.109 27.1608 119.54 27.6483 118.81C28.1358 118.08 28.3961 117.222 28.3961 116.344C28.3947 115.168 27.9269 114.04 27.0951 113.208C26.2633 112.376 25.1355 111.908 23.9592 111.906Z" fill="#3F3D56"/>
</g>
<defs>
<clipPath id="clip0">
<rect width="208" height="145" fill="white"/>
</clipPath>
</defs>
</svg>
