<svg width="218" height="162" viewBox="0 0 218 162" fill="none" xmlns="http://www.w3.org/2000/svg">
<path opacity="0.1" d="M127.07 28.8397C114.244 28.3853 102.03 24.2586 90.3739 19.7526C78.718 15.2466 67.1572 10.2328 54.6393 7.84057C46.588 6.30169 37.3794 6.08439 30.8936 10.3869C24.6495 14.5354 22.6322 21.6767 21.5483 28.3102C20.7318 33.3002 20.2523 38.551 22.4876 43.2229C24.0411 46.4666 26.7956 49.1928 28.7019 52.3002C35.3344 63.1098 30.6459 76.4402 23.4605 86.9951C20.0918 91.9475 16.1781 96.6748 13.5762 101.941C10.9743 107.208 9.7715 113.251 12.0484 118.628C14.3035 123.962 19.6796 127.96 25.5036 130.775C37.3319 136.492 51.2646 138.13 64.8605 139.056C94.9475 141.109 125.193 140.22 155.359 139.331C166.524 139.001 177.736 138.667 188.718 136.946C194.817 135.99 201.113 134.473 205.542 130.813C211.162 126.164 212.555 118.292 208.788 112.465C202.47 102.688 185.008 100.26 180.587 89.7666C178.158 83.9924 180.653 77.5583 184.186 72.2029C191.763 60.7136 204.464 50.6329 205.131 37.4981C205.591 28.4781 199.486 19.4444 190.045 15.1754C180.151 10.701 166.428 11.264 159.132 18.67C151.606 26.2874 138.394 29.2209 127.07 28.8397Z" fill="#0564FF"/>
<path d="M54.9249 45.4419C55.1794 44.0961 55.6463 42.7993 56.3079 41.6C56.5182 40.0848 57.6344 39.1736 58.7344 38.4295C60.7429 37.0653 63.2098 36.5746 65.2668 35.2536C65.3687 35.2085 65.4801 35.1893 65.5911 35.1978C65.7021 35.2062 65.8093 35.2421 65.9031 35.3021C66.3587 35.8413 66.4693 36.5746 66.9815 37.0761C67.669 38.1545 68.3835 39.2329 69.6102 39.7721C69.9741 39.942 70.2976 40.1819 70.6589 40.3571C72.2172 41.1201 73.3334 40.7804 74.3093 39.3246C74.703 38.7341 74.8081 37.9766 75.3878 37.5047C75.9593 37.3322 76.3071 37.618 76.5902 38.0709C77.0604 38.7785 77.768 39.2948 78.5853 39.5268C80.0896 39.8557 81.4835 39.3084 82.8989 38.9876C84.0986 38.718 85.2768 38.6371 86.3687 39.3596C87.6842 40.6907 88.643 42.3319 89.1564 44.1316C89.3667 44.8973 89.9976 45.3718 90.3076 46.0593C90.7044 47.1264 90.7977 48.2827 90.5772 49.3996C90.5389 49.5976 90.4541 49.7837 90.3299 49.9426C90.2057 50.1014 90.0456 50.2286 89.8628 50.3136C88.202 51.028 86.4954 51.4702 84.6702 51.2383C83.705 50.106 84.0285 48.6043 83.519 47.4208C83.1847 48.3671 82.8881 49.4428 82.5107 50.4888C82.4492 50.6455 82.4252 50.8144 82.4406 50.982C82.4561 51.1496 82.5105 51.3112 82.5996 51.454C81.4511 52.4596 81.2085 53.7483 81.4296 55.1853C81.5595 56.1519 81.7797 57.1042 82.0874 58.0296C82.2492 58.4934 82.357 58.9706 82.1117 59.4505C81.8007 59.8351 81.376 60.1116 80.8985 60.2404C76.3063 61.9299 71.2866 62.0663 66.6095 60.6286C65.8235 60.4456 65.1073 60.0393 64.547 59.4585C64.2612 58.9382 64.4796 58.4367 64.6225 57.9407C64.9213 56.9813 65.0606 55.9795 65.035 54.975C65.1267 53.9748 64.6926 53.1822 64.0887 52.4354C63.0103 51.0874 62.0289 49.6612 61.5841 47.871C61.5841 47.7658 61.2875 47.9492 61.4627 47.9195C61.5949 48.7823 61.5248 49.5371 60.4814 49.7852C58.8638 49.3134 57.2623 48.6124 55.5045 49.0761C55.4051 49.0821 55.3056 49.0652 55.2138 49.0268C55.1219 48.9884 55.04 48.9294 54.9744 48.8545C54.9088 48.7795 54.8613 48.6906 54.8354 48.5944C54.8095 48.4982 54.806 48.3974 54.8251 48.2997C54.879 47.3668 54.7227 46.399 54.9249 45.4419Z" fill="#2F2E41"/>
<path d="M78.2534 39.7533C77.4177 39.4567 76.6358 39.0308 76.3015 38.1761C76.1344 37.7582 75.8135 37.7852 75.5358 37.6369C75.3444 37.3673 75.4496 37.0977 75.6059 36.8631C77.1831 34.6767 77.202 32.0103 76.0993 30.6623C76.5415 29.6809 76.4767 28.5189 77.1777 27.6238C78.6956 29.8508 80.758 30.4412 83.3624 29.9802C88.0859 29.1444 91.5745 31.3713 93.1194 35.9573C93.5588 37.2676 93.7152 38.6533 94.3649 39.907C95.0147 41.1606 95.5701 41.3386 96.8183 40.6079C97.158 40.4111 97.4627 40.0687 97.8967 40.3383C98.3308 40.6079 98.1663 41.0393 98.1502 41.4167C98.0757 42.2246 97.7872 42.998 97.3144 43.6572C95.7399 46.0566 93.7853 48.0382 91.1 49.184C90.8439 49.2352 90.6579 49.5507 90.3424 49.3889C90.426 48.2027 90.1915 47.0488 90.0135 45.8841C89.326 44.9593 89.2371 43.8216 88.9351 42.7675C88.5199 41.3628 87.8567 40.1766 86.6489 39.2815C85.5112 38.4295 84.3573 37.9982 82.9715 38.6156C82.4053 38.869 81.7771 38.9391 81.2056 39.1871C80.2215 39.4082 79.3265 40.0822 78.2534 39.7533Z" fill="#C82421"/>
<path d="M72.9369 127.404C72.2755 133.416 71.6168 139.427 70.9607 145.438C70.5294 149.398 70.0791 153.359 69.6801 157.322C69.5831 158.279 69.4105 159.047 68.2216 158.907C67.0326 158.767 67.0865 157.964 67.1944 157.02C68.049 149.455 68.8605 141.884 69.6909 134.317C69.9201 132.224 70.1142 130.127 70.4134 128.046C70.5455 127.116 70.2544 126.905 69.4321 127.142C69.3854 127.089 69.3514 127.025 69.3328 126.957C69.3141 126.888 69.3112 126.816 69.3242 126.746C69.4644 126.388 69.7718 126.18 70.0387 125.937C70.6884 124.975 70.4215 123.837 70.5509 122.802C71.2762 116.898 71.9205 110.982 72.5325 105.062C72.8021 102.366 73.0717 99.6402 73.3629 96.9307C73.4977 95.7013 74.2688 95.03 75.2852 95.1648C76.3016 95.2996 76.7518 96.0572 76.6332 97.3621C76.1317 102.657 75.4631 107.933 74.8646 113.217C74.3847 117.474 74.0126 121.748 73.4276 125.991C73.9533 126.695 74.0423 127.256 72.9369 127.404Z" fill="#1A1816"/>
<path d="M77.1728 27.6211C77.0649 28.6996 77.1296 29.8184 76.1186 30.5625C76.0861 30.7631 75.9792 30.944 75.8193 31.0694C75.0105 31.6868 74.3069 32.447 73.2312 32.5899C70.9449 33.1291 68.6479 33.0644 66.3293 32.8002C65.9526 32.7597 65.5901 32.6333 65.2698 32.4309C63.458 31.6221 64.1374 29.8696 63.8247 28.5135C63.5012 27.1008 64.1267 25.7447 64.3181 24.3616C65.8198 20.7382 71.1795 19.6355 74.2934 22.3342C75.8717 23.6816 76.8971 25.5643 77.1728 27.6211Z" fill="#F52921"/>
<path d="M54.925 45.4418C54.925 46.3153 54.9439 47.1916 54.925 48.0651C54.9007 48.6986 55.1677 48.9521 55.777 48.8739C58.0902 48.5045 58.473 48.8065 58.5808 51.0846C58.6585 52.7879 58.5682 54.4946 58.3112 56.1801C57.8232 59.5475 58.2762 62.8825 58.5808 66.2229C58.748 67.9968 58.7399 69.7816 58.8504 71.5583C58.8504 71.7362 59.0769 71.5745 58.907 71.6284C58.8774 71.6284 58.8585 71.5961 58.8531 71.5044C58.7507 69.6172 58.6887 67.7569 58.5835 65.8832C58.5485 65.2685 58.3544 64.4947 59.209 64.1658C59.7482 64.705 59.6323 65.4167 59.6215 66.0692C59.5487 70.0054 59.8561 73.947 59.3735 77.8751C59.3222 78.3092 59.2575 78.7702 59.5406 79.1746C59.8372 79.6922 59.7078 80.2854 59.8102 80.8381C59.8291 81.725 59.9315 82.612 59.7159 83.4883C59.4878 83.9663 59.2967 84.4611 59.1443 84.9684C59.0149 85.3809 58.8747 85.8931 58.3085 85.8338C57.8071 85.7826 57.5968 85.3512 57.4808 84.9091C57.2852 84.2745 57.1454 83.6241 57.063 82.9652C57.0608 82.6986 56.9654 82.4411 56.7934 82.2373C55.0032 76.1739 53.763 70.0297 54.4586 63.6697C54.8037 60.4992 54.5017 57.3233 54.7282 54.1689C54.9142 51.7128 54.6824 49.2864 54.65 46.8465C54.6905 46.3774 54.5422 45.857 54.925 45.4418Z" fill="#FEC47E"/>
<path d="M66.7686 94.6256C66.0946 97.7935 66.747 100.937 66.9519 104.089C67.1173 106.232 66.9251 108.388 66.3831 110.468C65.3828 114.088 65.2885 117.776 65.1644 121.47C65.0944 123.481 65.1132 125.498 65.1483 127.512C65.1644 128.426 64.8328 128.838 63.9054 128.792C63.3268 128.761 62.7465 128.783 62.1719 128.857C61.4304 128.957 61.3469 128.539 61.363 127.978C62.2393 127.601 62.0667 126.846 62.0101 126.14C61.6219 121.111 61.1635 116.083 61.2714 111.042C61.3469 107.642 61.6758 104.267 62.5466 100.961C63.2179 98.419 64.7547 96.4266 66.5367 94.5852L66.7686 94.6256Z" fill="#FEC47C"/>
<path d="M90.3185 85.4617C89.9303 85.5291 89.4747 85.761 89.1646 85.637C87.7061 85.0546 87.4715 86.1169 87.4203 87.0335C87.361 88.1362 87.2262 89.3791 88.4691 90.0935C88.5284 90.128 88.5803 90.174 88.6217 90.2287C88.6631 90.2835 88.6932 90.3459 88.7103 90.4124C88.7274 90.4789 88.731 90.5481 88.7211 90.616C88.7111 90.6839 88.6878 90.7492 88.6524 90.808C87.9164 91.7354 88.2264 92.6494 88.5877 93.5849C88.6132 93.6455 88.6263 93.7106 88.6263 93.7763C88.6263 93.8421 88.6132 93.9071 88.5877 93.9677C86.9701 96.3187 87.7304 99.1198 87.1372 101.665C87.0725 101.935 87.2424 102.269 87.3098 102.573C87.4715 103.312 87.3961 103.889 86.501 104.094C85.7461 104.269 85.4495 104.795 85.498 105.596C85.5843 107.006 85.8512 108.483 85.2284 109.796C84.2228 111.877 84.8618 114.034 84.762 116.151C84.7081 117.307 85.1071 118.461 85.0101 119.669C84.8645 121.448 83.8319 122.551 82.0444 122.583C81.5996 122.583 81.1089 122.702 80.7153 122.559C79.5506 122.133 78.9952 122.753 78.5585 123.662C78.1891 123.292 78.2376 122.84 78.2888 122.384C78.3131 122.252 78.3589 122.114 78.3832 121.993C78.7094 120.157 78.7148 120.141 80.2704 121.036C81.0199 121.462 81.6508 121.208 82.252 120.766C83.2496 120.033 83.7187 118.965 83.8966 117.801C84.1811 115.806 84.1811 113.781 83.8966 111.786C83.7915 110.977 83.4248 110.788 82.6483 110.815C80.2057 110.904 80.2677 110.883 79.7771 113.285C79.4778 114.757 79.7771 116.364 78.8334 117.696C78.0435 120.098 77.9599 122.618 77.5987 125.091C77.5259 125.579 77.5016 126.077 77.2131 126.498C76.9786 126.843 76.6739 127.151 76.2183 126.973C75.8301 126.824 75.7438 126.476 75.7627 126.088C75.8409 124.471 76.3019 122.918 76.4367 121.311C76.4798 120.823 76.6766 120.346 76.2641 119.925C76.0497 119.701 75.8984 119.424 75.8255 119.122C75.7526 118.821 75.7607 118.505 75.8489 118.208C76.0008 117.524 76.0498 116.822 75.9945 116.124C76.496 111.36 77.2374 106.634 77.9653 101.902C78.0166 101.591 78.1434 101.298 78.3347 101.048C79.1111 100.333 79.5964 100.689 79.9146 101.511C80.1735 102.222 80.2818 102.978 80.2327 103.733C80.2186 104.573 80.3009 105.413 80.478 106.235C80.5967 106.866 80.8959 107.186 81.5564 107.13C81.915 107.13 82.2709 107.103 82.6349 107.079C83.689 107.008 84.3172 106.593 84.5221 105.429C84.8556 103.621 85.3058 101.837 85.8701 100.088C86.9485 96.6853 86.873 93.194 86.5576 89.6999C86.4295 88.4964 86.4295 87.2827 86.5576 86.0791C86.962 84.7122 86.6681 83.2025 87.4041 81.9057C89.0595 81.725 90.2673 82.6956 90.3401 84.2917C90.3536 84.6691 90.4641 85.0708 90.3185 85.4617Z" fill="#F7FBFB"/>
<path d="M94.3488 73.3512C94.8045 74.7504 94.551 76.1685 94.4971 77.5867C94.3866 80.4418 93.4511 83.2483 93.8204 86.1223C94.1493 88.6889 93.939 91.0102 91.6905 92.7006C90.3776 92.4472 90.2104 91.571 90.4773 90.4548C90.6526 88.546 90.8844 86.6669 91.6447 84.8606C92.0761 83.8334 91.8874 82.6579 91.6905 81.5552C91.5908 80.9944 91.5153 80.3177 90.6553 80.9513C90.4692 81.0888 90.2617 80.8489 90.1996 80.6035C90.2344 79.7574 90.1674 78.9102 90.0001 78.08C89.1913 72.6394 87.8757 67.3121 86.4953 61.9982C85.8704 59.4836 85.4325 56.9261 85.185 54.3469C85.0961 53.5165 84.9424 52.6537 85.4196 51.8665C86.1637 51.7991 86.0855 52.4381 86.1853 52.8425C86.4549 53.9748 86.6085 55.1341 86.7972 56.2826C87.0602 58.0254 87.8604 59.6426 89.0862 60.909C90.4402 62.2933 91.4271 63.9938 91.9575 65.8562C93.2569 70.3289 94.1682 74.8906 93.9283 79.3067C93.9714 78.0693 93.9471 76.5325 93.9687 74.9931C93.9768 74.4269 93.8636 73.8149 94.3488 73.3512Z" fill="#FEC37C"/>
<path d="M69.13 86.2301C69.3484 89.2173 67.9626 91.7678 66.9246 94.4126C66.8807 94.4893 66.8283 94.5607 66.7683 94.6256L66.7117 94.5851C66.318 94.4665 66.1724 94.8278 65.9568 95.0057C63.932 96.6233 63.223 96.6907 61.1228 95.4479C60.5458 95.925 61.3924 97.0142 60.3382 97.2865C60.2385 95.1944 60.4865 93.105 60.3895 91.0075C60.3517 90.1043 60.0821 89.7215 59.2733 89.6298C59.2571 89.6073 59.246 89.5815 59.2408 89.5543C59.2355 89.527 59.2362 89.499 59.2429 89.4721C59.2496 89.4452 59.262 89.42 59.2794 89.3983C59.2967 89.3767 59.3186 89.3591 59.3434 89.3467C59.675 89.1634 60.1172 89.247 60.3895 88.9154C60.6132 88.5568 60.5566 88.1308 60.6591 87.7453C60.775 87.2202 60.7014 86.6711 60.4515 86.1951C59.9123 85.0412 60.287 84.1272 61.449 83.4182C62.1158 83.3583 62.7778 83.2538 63.4306 83.1054C64.6545 82.8095 65.9403 82.9038 67.108 83.375C68.3778 83.9169 69.1435 84.777 69.13 86.2301Z" fill="#FEC47B"/>
<path d="M60.3519 97.2865C60.8345 96.6476 60.5083 95.9089 60.5973 95.2241C60.6593 94.7442 60.8857 94.48 61.247 94.8979C62.8646 96.7608 64.3259 96.0059 65.7952 94.7064C66.1241 94.4153 66.3344 94.4368 66.7253 94.5851C66.205 95.3023 65.7251 96.0545 65.1562 96.7419C62.7783 99.5485 62.3874 103.018 61.9372 106.458C61.6291 108.983 61.5389 111.529 61.6676 114.069C61.832 118.068 61.983 122.068 62.4332 126.048C62.4746 126.538 62.4809 127.031 62.4521 127.523C62.4521 127.822 62.5654 128.186 62.2391 128.383C61.7808 128.652 61.6757 128.081 61.371 127.978C60.5838 125.687 60.325 123.287 60.1416 120.904C59.7453 115.7 58.9931 110.527 58.9527 105.291C58.9311 102.517 59.5808 99.9017 60.3519 97.2865Z" fill="#FE9D6B"/>
<path d="M94.3493 73.3511C94.4302 75.5834 94.1175 77.7915 93.9153 80.0184C93.8506 77.3925 93.403 74.8151 92.9986 72.235C92.481 68.9269 91.8959 65.6351 90.1031 62.7234C89.3805 61.5425 88.2536 60.704 87.5365 59.4881C86.2639 57.3313 86.3232 54.8725 85.7786 52.5539C85.7166 52.2843 85.7598 52.0147 85.509 51.8422C84.7703 51.6535 83.9265 51.8422 83.3091 51.214C83.5787 50.6532 83.9831 50.7125 84.4333 50.9444C86.3853 51.1331 88.2078 50.5858 89.9979 49.9118C90.1003 49.8672 90.1881 49.7948 90.2515 49.7028C90.3149 49.6109 90.3512 49.503 90.3565 49.3915L91.1141 49.1866C90.246 50.1679 90.68 51.2922 90.7582 52.3787C91.1626 57.981 92.915 63.3219 93.9207 68.8056C94.1849 70.3127 94.4329 71.8198 94.3493 73.3511Z" fill="#FE9C69"/>
<path d="M69.8902 126.412C69.75 126.617 69.4345 126.681 69.4426 127.008C69.3836 127.02 69.3225 127.018 69.2645 127.002C69.2065 126.985 69.1532 126.955 69.1093 126.914C69.0654 126.873 69.0321 126.821 69.0122 126.764C68.9923 126.708 68.9864 126.647 68.9951 126.587C69.1595 118.529 69.8524 110.505 70.5777 102.485C70.6882 101.282 70.6909 100.058 70.8661 98.8745C71.2085 96.5532 71.8556 94.3829 73.5622 92.6035C74.0594 92.0843 74.4454 91.4691 74.6967 90.7955C74.948 90.122 75.0591 89.4042 75.0234 88.6862C75.293 88.4921 75.0234 87.9529 75.3793 87.9205C75.8484 87.8747 75.8646 88.3654 75.905 88.6916C76.1099 90.3766 76.6572 92.1263 75.1744 93.5606C73.7428 94.9949 73.1632 96.7824 73.0499 98.7586C72.7534 104.207 71.8367 109.594 71.3784 115.029C71.0953 118.407 70.6289 121.769 70.3188 125.15C70.2447 125.591 70.1 126.017 69.8902 126.412Z" fill="#02B49B"/>
<path d="M69.1301 86.2301C67.8684 83.5179 66.1645 82.7981 62.8673 83.5853C62.3793 83.7012 61.8724 84.0706 61.4411 83.4721C60.9935 83.2025 60.9207 82.7549 60.9019 82.2804C61.1715 79.2501 61.5813 78.1339 65.7736 78.1312C67.1087 78.1615 68.4393 78.2976 69.7529 78.5383C70.5159 78.6596 70.9176 79.0587 71.0255 79.8001C70.6804 82.0297 69.823 84.1056 69.1301 86.2301Z" fill="#FFC502"/>
<path d="M71.0308 79.8001C70.9189 79.5425 70.7338 79.3234 70.4985 79.17C70.2631 79.0167 69.9879 78.9358 69.7071 78.9374C67.774 78.843 65.876 78.1798 63.9079 78.6678C61.9398 79.1558 61.592 79.4766 61.3871 81.4905C61.3863 81.8029 61.2924 82.1079 61.1175 82.3667C60.5783 83.0731 60.6349 83.9682 60.333 84.75C60.1334 85.265 60.1631 86.1681 59.4891 86.0226C58.7531 85.8608 59.2869 85.0628 59.2977 84.537C59.783 83.2618 59.721 81.9542 59.5161 80.6413C59.2006 80.2126 59.6077 79.7489 59.4514 79.3148C59.1305 78.3604 59.7021 77.6163 60.0256 76.8102C60.6969 75.295 60.9153 75.1926 62.2687 75.9717C62.7075 76.1896 63.2003 76.2748 63.6868 76.2171C66.0067 76.1515 68.3284 76.237 70.6372 76.4732C71.3624 76.546 71.9609 77.0124 72.697 76.9801C73.9641 77.0663 75.242 77.0798 76.4337 77.6055C76.7033 78.3766 77.2425 79.2016 75.9726 79.6168C74.6516 79.5143 73.3305 79.3876 72.0041 79.3202C71.6401 79.2906 71.0766 79.0776 71.0308 79.8001Z" fill="#160E09"/>
<path d="M64.3181 24.3696C64.4666 24.4732 64.5686 24.6308 64.6024 24.8087C64.6361 24.9865 64.5989 25.1705 64.4987 25.3213C63.7357 26.6693 64.1159 28.0308 64.2291 29.422C64.3262 30.5004 64.1671 31.6166 65.4019 32.18C65.4666 33.2773 65.8764 34.3207 65.9087 35.4153C64.0701 36.2484 62.2394 37.1084 60.3684 37.8956C58.5675 38.6559 57.3354 40.0228 56.3082 41.6C56.203 41.4328 56.1006 41.2657 55.9981 41.0985C55.9469 40.6995 56.0574 40.2897 55.9766 39.9015C56.2138 38.4052 56.4187 36.8981 57.3866 35.6444C58.3922 34.38 59.7537 33.6467 61.2069 33.0455C62.0157 32.73 62.474 32.0452 63.0078 31.4278C63.5875 30.7862 63.7573 30.1337 63.5875 29.1901C63.2485 27.5476 63.5076 25.838 64.3181 24.3696Z" fill="#C6261C"/>
<path d="M90.3724 80.6413C90.6231 80.8705 90.7741 80.7195 90.8523 80.4849C90.9305 80.2504 90.9628 79.9134 91.3214 79.9619C91.68 80.0104 91.7609 80.2935 91.8606 80.6251C92.3594 82.4018 92.4537 84.0545 91.6341 85.8635C90.9925 87.2789 90.8739 88.9613 90.8469 90.5735C90.2403 90.587 90.3832 90.1017 90.3077 89.7647C89.9195 88.3277 90.5557 86.8988 90.3293 85.4645C90.1837 85.2731 89.8763 85.0331 89.9168 84.8956C90.518 82.8601 88.9516 82.5285 87.6764 81.9597C85.5034 81.7089 83.4436 80.8974 81.276 80.6116C80.6208 80.3609 79.928 80.4903 79.2405 80.342C78.8684 80.1911 78.3724 80.3609 78.1108 79.9107C78.0003 79.1207 78.0758 78.4009 78.8496 77.9426C81.7828 77.6945 84.6271 78.2391 87.4499 78.9536C88.4987 79.3849 89.6337 79.6545 90.3724 80.6413Z" fill="#170C06"/>
<path d="M66.0298 135.824C65.7764 137.854 65.1832 138.568 63.5899 138.752C61.9183 138.946 60.724 137.873 60.8642 136.166C60.9693 134.88 61.2497 133.613 61.4492 132.335C61.5032 131.987 61.5813 131.701 62.0316 131.96C62.8404 132.424 63.6492 132.34 64.458 131.974C64.9972 131.723 65.2668 131.874 65.3396 132.486C65.4124 133.098 65.6227 133.705 65.6901 134.325C65.7845 135.169 66.2104 135.382 66.9626 135.134C67.2673 135.6 66.8844 135.56 66.6121 135.635C66.4126 135.686 66.1134 135.435 66.0298 135.824Z" fill="#272C46"/>
<path d="M75.0536 93.2695C76.5688 91.7058 75.4391 89.886 75.5928 88.0446L75.0239 88.6863C75.1857 86.2194 75.6413 83.793 76.0592 81.3638C76.6308 82.0945 76.9516 83.0516 77.9033 83.4479C78.27 85.0655 77.4638 86.5591 77.4018 88.1363C77.3533 89.4034 77.0271 90.6624 77.3722 91.9296C77.5285 92.4445 77.9464 92.8759 77.8844 93.4636C77.7861 93.7798 77.6261 94.0734 77.4137 94.3275C77.2013 94.5815 76.9407 94.791 76.6469 94.9437C75.795 94.7065 75.7626 93.6739 75.0536 93.2695Z" fill="#43CCBA"/>
<path d="M78.5609 122.346L78.5259 123.662C78.3722 124.393 78.1943 125.12 78.073 125.856C77.9112 126.857 77.6173 127.69 76.3583 127.517C75.7706 127.439 75.7894 127.938 75.6142 128.256C75.2125 128.377 75.1855 128.081 75.1963 127.83C75.2125 127.331 74.8701 127.291 74.5223 127.25L74.4252 127.283L74.3201 127.269C73.8672 126.444 74.9725 126.46 75.0372 125.908C75.4956 124.239 75.6007 122.508 75.9781 120.828C76.086 120.346 76.148 119.86 76.6845 119.647C77.3774 120.726 76.5686 121.769 76.547 122.832C76.5254 123.894 76.2316 124.948 76.0509 125.997C75.997 126.301 75.8487 126.66 76.2478 126.805C76.7142 126.967 76.9137 126.576 76.973 126.234C77.1752 125.05 77.3046 123.853 77.5122 122.67C77.8034 120.925 77.7818 119.122 78.5043 117.458C79.5531 117.237 79.181 118.038 79.1325 118.442C78.9546 119.742 78.5906 121.02 78.5609 122.346Z" fill="#161616"/>
<path d="M77.7172 83.3049C76.0295 83.6339 76.3692 82.2265 76.0726 81.3638C75.9459 80.7842 76.3207 80.1749 75.981 79.606C76.6199 79.083 76.3422 78.3604 76.3881 77.7188C76.3881 77.3467 76.5121 77.0609 76.9488 77.0555C77.5285 77.3629 78.2294 77.2416 78.7956 77.5947C78.9169 77.7835 78.952 77.956 78.7228 78.0908C78.3265 78.63 78.437 79.2771 78.3481 79.881C78.4829 81.0753 78.464 82.2562 77.7172 83.3049Z" fill="#07B69C"/>
<path d="M59.543 84.6719L59.3408 86.0037C59.9823 85.175 60.3244 84.1535 60.3113 83.1055C60.3113 82.5501 60.3787 82.0972 61.1202 82.356C61.2738 82.7146 61.5947 83.0246 61.4356 83.4721C60.7697 84.3484 59.9123 85.1383 61.0258 86.3488C61.2954 86.6427 61.3358 87.4515 60.7966 87.9071C59.9878 88.4463 59.419 87.4973 58.6883 87.5809C57.7528 85.9094 56.7445 84.2621 56.8011 82.2374C57.7501 82.6876 57.2028 83.677 57.5398 84.3672C57.7636 84.8283 57.7447 85.567 58.3486 85.5751C58.8878 85.5751 58.8555 84.8579 58.9525 84.4211C59.0361 84.0491 59.1386 83.7471 59.4917 83.5827C59.5847 83.7476 59.6377 83.9321 59.6466 84.1212C59.6555 84.3103 59.62 84.4989 59.543 84.6719Z" fill="#F5CE9E"/>
<path d="M66.0296 135.824C65.973 135.096 67.0002 135.837 66.957 135.131C67.2455 132.704 67.5556 130.278 68.2242 127.922C68.3644 127.42 68.4372 126.859 68.9925 126.587L69.4428 127.008V127.14C68.5666 129.415 68.5153 131.866 68.0004 134.222C67.7308 135.395 67.2617 136.002 66.0296 135.824Z" fill="#1E1D1D"/>
<path d="M90.2966 89.762L90.8358 90.5708C90.1214 91.6815 91.2295 92.059 91.6878 92.6979C91.4889 92.9424 91.3863 93.2512 91.3993 93.5661C91.4748 94.2751 91.0974 94.5663 90.4449 94.5151C89.6981 94.4585 89.4474 93.9516 89.5687 93.2884C89.7844 92.1102 89.8518 90.8943 90.2966 89.762Z" fill="#1F1B16"/>
<path d="M74.5221 127.25C75.6329 126.77 75.1099 128.059 75.6006 128.256C75.5709 129.998 75.0802 131.672 74.8403 133.378C74.7971 133.691 74.8025 134.228 74.3011 134.096C73.8589 133.974 74.0692 133.505 74.1231 133.168C74.382 131.594 74.6426 130.018 74.905 128.442C75.0047 127.97 75.1962 127.463 74.5221 127.25Z" fill="#4E4F4F"/>
<path d="M62.9994 31.4306C62.622 32.1693 62.3119 32.9673 61.4222 33.2612C59.8909 33.5524 58.6642 34.3882 57.5966 35.4881C57.2515 35.817 57.1679 36.3643 56.688 36.5665C56.4696 36.5665 56.386 36.3913 56.3105 36.2215C57.2056 34.2668 58.9877 33.4122 60.8075 32.6573C61.597 32.3638 62.3364 31.9501 62.9994 31.4306Z" fill="#AB5F5A"/>
<path d="M58.6938 87.5808C58.8179 87.2357 58.9877 87.0065 59.3382 87.3678C59.7426 87.7803 60.2926 87.7857 60.8021 87.907C60.8021 88.3573 61.0017 88.8372 60.6026 89.2254C60.0095 88.5622 59.6698 89.1202 59.2897 89.495C59.2963 89.5182 59.297 89.5426 59.2918 89.5661C59.2867 89.5897 59.2757 89.6115 59.26 89.6298C58.4782 89.1122 58.9149 88.2548 58.6938 87.5808Z" fill="#71675A"/>
<path d="M56.308 36.2322L56.5776 36.518C56.7717 37.6934 55.9143 38.7691 56.2486 39.9581C56.2836 40.1561 56.2778 40.3592 56.2314 40.5548C56.1851 40.7505 56.0992 40.9346 55.979 41.0958C55.0543 39.4081 55.5396 37.8094 56.308 36.2322Z" fill="#97504D"/>
<path d="M75.2933 126.398C75.0777 126.811 74.2311 126.512 74.3201 127.269L72.937 127.407C73.0017 127.078 74.4333 127.083 73.1689 126.436C73.2956 126.029 73.4223 125.627 73.8914 125.482C73.9804 125.862 74.25 125.805 74.5223 125.751C74.8378 125.886 75.1062 126.111 75.2933 126.398Z" fill="#4A8C83"/>
<path d="M72.6918 77.344C69.9553 76.5972 67.1541 76.5756 64.3341 76.5352C63.4228 76.5352 62.242 77.3144 61.603 75.8477C61.5194 75.6536 60.7295 75.5781 60.6082 76.2602C60.5542 76.5622 60.6082 76.8965 60.2873 77.0879C59.6025 75.872 59.8506 74.5401 60.0177 73.3C60.6268 68.8254 61.8526 64.4568 63.6601 60.3186C63.8461 59.8872 63.9593 59.348 64.5902 59.3183C70.4163 61.9793 76.2398 61.8445 82.0578 59.2941C82.2385 59.2946 82.4146 59.3504 82.5626 59.454C82.7106 59.5577 82.8233 59.7041 82.8855 59.8737C84.9048 63.7479 87.218 67.5008 87.8543 71.9519C87.9539 72.3882 87.9677 72.8396 87.8947 73.2811C87.8561 73.4147 87.7869 73.5375 87.6925 73.6397C86.9781 73.8931 86.4281 73.3323 85.7756 73.2353C83.7779 72.936 81.9742 73.4267 80.2649 74.4053C79.9172 74.6048 79.6233 74.9014 79.1865 74.8529C78.1486 74.1708 77.1052 73.5507 76.0079 74.7585C74.5386 73.7313 74.2447 72.0625 73.754 70.5204C73.6697 70.1764 73.6182 69.8253 73.6004 69.4716C73.7675 71.41 73.2094 73.246 72.7915 75.1063C72.5994 75.8366 72.5654 76.5995 72.6918 77.344Z" fill="#FFC502"/>
<path d="M87.7542 73.5049C87.1853 68.2341 84.7023 63.7371 82.0602 59.3076C81.7906 58.0027 81.2514 56.7733 81.1004 55.4307C81.0035 54.5476 81.0408 53.655 81.2109 52.7832C81.3592 52.0094 81.7151 51.4998 82.4969 51.3327C82.5492 51.2671 82.6144 51.213 82.6885 51.1736C82.7625 51.1341 82.8438 51.1103 82.9274 51.1035C83.011 51.0967 83.0951 51.107 83.1745 51.1339C83.254 51.1608 83.3271 51.2037 83.3893 51.2599C84.0876 51.4729 85.0069 50.8717 85.4976 51.8422C85.4464 56.2637 86.3442 60.5558 87.5628 64.7455C88.9512 69.5147 89.6118 74.4188 90.6228 79.2555C90.6942 79.4898 90.7088 79.7377 90.6652 79.9787C90.6215 80.2198 90.5211 80.4469 90.372 80.6413L87.6086 79.3256C87.1503 78.7109 87.3714 78.0369 87.4549 77.3791C87.6167 76.0931 87.3471 74.772 87.7542 73.5049Z" fill="#FBFCF9"/>
<path d="M64.5929 59.3319C62.207 64.3222 60.6055 69.5283 60.3359 75.0956C60.3036 75.7642 60.3089 76.4436 60.2982 77.1041C59.7967 77.7512 59.7239 78.5654 59.4597 79.3041C59.2171 79.4982 58.9987 79.7867 58.9798 79.1396C58.9421 77.9776 59.1766 76.8372 59.1955 75.6914C59.2629 71.8684 59.2359 68.0428 59.244 64.2198C58.8558 63.8019 58.9744 63.3085 59.0283 62.8232C59.3707 59.6338 60.2011 56.5064 60.2281 53.2766C60.2281 52.8749 60.3251 52.4678 60.7403 52.2575C60.8228 52.2249 60.9111 52.2097 60.9998 52.213C61.0884 52.2162 61.1754 52.2378 61.2553 52.2764C62.6033 53.1903 64.0672 53.894 65.3991 54.8241C65.6606 56.4229 64.9947 57.8517 64.5929 59.3319Z" fill="#FBFBFA"/>
<path d="M75.8053 37.0573C75.7163 37.2514 75.6246 37.4482 75.5357 37.645C75.3658 38.0063 75.2013 38.3648 75.0315 38.7234C73.7374 41.4599 71.985 41.8589 69.4696 39.9932C68.4397 39.082 67.4556 38.1357 66.7924 36.9009C66.1966 36.173 66.1022 35.2266 65.7491 34.3936C65.612 34.1128 65.5918 33.7892 65.6929 33.4936C65.794 33.198 66.008 32.9545 66.2883 32.8164C68.1458 32.7813 69.998 33.2505 71.8637 32.7733C72.4232 32.6244 72.9902 32.5047 73.5622 32.4147C74.5543 32.3311 74.983 31.1206 76.0398 31.1637C77.4795 32.0426 76.8109 33.396 76.6976 34.5472C76.6003 35.4421 76.2947 36.3018 75.8053 37.0573Z" fill="#F4AA7D"/>
<path d="M61.08 52.4031C61.0122 52.4021 60.945 52.4161 60.8832 52.444C60.8214 52.4719 60.7664 52.513 60.7222 52.5644C60.678 52.6158 60.6456 52.6763 60.6273 52.7416C60.609 52.8068 60.6052 52.8754 60.6163 52.9423C60.6513 56.7625 59.6107 60.4507 59.244 64.2252C58.721 64.856 59.0094 65.6028 58.9933 66.2903C58.9501 68.1775 58.9798 70.089 58.8666 71.9897C58.5969 67.7677 57.6399 63.6132 57.6641 59.3804C57.6803 56.8919 58.2033 54.4197 58.1683 51.9178C58.1683 51.7371 58.1683 51.5592 58.1683 51.3786C58.1683 48.9036 58.1305 48.8766 55.7661 48.8793C57.5509 48.1757 59.0903 48.9171 60.619 49.6881C61.0584 50.5374 61.115 51.4675 61.08 52.4031Z" fill="#FD9E69"/>
<path d="M61.08 52.403C60.4895 51.5753 60.5974 50.6263 60.6243 49.7069C61.4331 49.1677 61.0557 48.1459 61.7027 47.2805C62.2581 49.7069 63.7382 51.4621 65.0512 53.3142C65.362 53.7558 65.4851 54.3026 65.3936 54.8348C63.6897 54.5005 62.4145 53.4005 61.08 52.403Z" fill="#C82428"/>
<path d="M79.898 52.3949C75.5601 53.6351 71.144 53.3358 66.6362 53.0959C66.7414 52.8263 66.7576 52.7022 66.8007 52.6942C68.5989 52.3167 70.4322 52.1307 72.2089 51.5996C72.9476 51.3785 73.7538 51.6238 74.5329 51.9339C75.9087 52.4657 77.4152 52.5599 78.8466 52.2035C79.189 52.1361 79.526 52.0417 79.898 52.3949Z" fill="#14060A"/>
<path d="M81.1977 38.9148C82.5457 38.4969 83.8182 37.5372 85.3442 38.1707C87.1316 38.9175 88.4797 40.1334 89.0431 42.0476C89.4206 43.3175 89.6956 44.6196 90.0164 45.9056C89.5311 45.574 89.0917 45.2155 88.938 44.5927C88.5012 42.727 87.4687 41.1822 86.2959 39.7156C85.6812 38.9067 84.6243 38.6371 83.1847 39.02C82.7209 39.144 82.2437 39.2087 81.7827 39.3516C81.5131 39.4379 81.1438 39.4001 81.1977 38.9148Z" fill="#2F2E41"/>
<path d="M83.3898 51.2599L82.5001 51.3327C82.3141 51.2006 81.7911 51.4837 82.0094 50.8609C82.5486 49.3565 83.0231 47.836 83.6621 46.3019C83.7915 47.8818 84.5707 49.3323 84.4197 50.9607C84.0773 51.0577 83.6702 50.9418 83.3898 51.2599Z" fill="#C82227"/>
<path d="M81.1975 38.9148C81.8526 39.4756 82.4511 38.8797 83.047 38.7719C84.0828 38.538 85.1653 38.6255 86.1501 39.0226C86.3307 39.1008 87.0802 39.3138 86.3038 39.7155C85.2658 39.0145 84.1469 39.1305 83.0011 39.3542C81.4347 39.6562 79.9061 40.4866 78.2534 39.7425L81.1975 38.9148Z" fill="#2F2E41"/>
<path d="M66.2534 33.0132C65.5794 33.7654 66.0431 34.4825 66.3235 35.1997C66.5608 35.8063 66.8088 36.4075 67.0541 37.0114C67.1296 37.281 67.0083 37.3646 66.7549 37.2972C66.2938 36.758 65.7924 36.2188 65.9191 35.41C65.4095 34.3855 64.8407 33.3664 65.4122 32.1747L66.186 32.474C66.2263 32.5046 66.2601 32.543 66.2853 32.5869C66.3106 32.6307 66.3268 32.6792 66.3331 32.7294C66.3394 32.7797 66.3356 32.8306 66.3219 32.8794C66.3082 32.9281 66.2849 32.9736 66.2534 33.0132Z" fill="#972B2A"/>
<path d="M66.7549 37.2971L67.0541 37.0114L69.4806 39.977C68.1191 39.5402 67.472 38.3836 66.7549 37.2971Z" fill="#B9413B"/>
<path d="M75.8057 37.0572C76.2128 35.7923 76.4556 34.4802 76.5282 33.1534C76.5525 32.482 76.841 31.6085 75.8192 31.2985C75.7636 31.2374 75.734 31.1572 75.7365 31.0747C75.739 30.9922 75.7735 30.9139 75.8326 30.8563L76.1184 30.5867C76.388 30.6245 76.6738 30.5598 76.8356 30.8402C77.6713 32.2664 77.0971 35.7281 75.8057 37.0572Z" fill="#7C281D"/>
<path d="M73.9317 125.568C73.7484 125.921 73.7538 126.439 73.1687 126.436C72.4462 125.856 73.1687 125.293 73.2388 124.751C73.956 117.857 74.7378 110.972 75.5035 104.081C75.7731 101.773 75.9834 99.4569 76.28 97.1517C76.3932 96.2755 76.28 95.6042 75.3013 95.4559C74.3226 95.3077 73.867 95.8684 73.7646 96.8336C72.7778 106.121 71.7911 115.409 70.745 124.689C70.6803 125.279 71.1818 126.358 69.8931 126.412C70.1411 123.762 70.3784 121.111 70.648 118.464C71.1872 113.176 71.7372 107.89 72.2979 102.606C72.4974 100.697 72.643 98.7802 72.9234 96.8848C73.1418 95.4263 73.9722 94.2562 75.0533 93.2695C76.3797 93.0619 76.0023 94.4557 76.6008 94.9329C77.4096 95.5476 77.5417 96.3996 77.45 97.3297C76.7032 105.148 75.7435 112.967 74.7756 120.766C74.6219 122.006 74.665 123.266 74.3793 124.495C74.2876 124.883 74.3011 125.301 73.9317 125.568Z" fill="#DAF7F4"/>
<path d="M66.2534 33.0131C66.2292 32.8352 66.2076 32.6573 66.186 32.4739C68.6125 32.6168 71.0389 32.819 73.4357 32.1909C73.5327 32.2906 73.7053 32.3176 73.7322 32.4847C71.3004 33.5524 68.7796 33.3421 66.2534 33.0131Z" fill="#D35048"/>
<path d="M73.7321 32.4901L73.4355 32.2043C74.4816 32.2043 74.8833 31.0343 75.8323 30.8563C75.8323 31.0073 75.8323 31.1583 75.8108 31.3066C75.0613 31.5977 74.6083 32.4146 73.7321 32.4901Z" fill="#C82421"/>
<path d="M59.5434 84.6719C59.5272 84.3079 59.5084 83.9439 59.4922 83.5935C59.6512 82.6164 59.6594 81.6208 59.5165 80.6413C60.0341 81.9758 59.9074 83.3238 59.5434 84.6719Z" fill="#50240D"/>
<path d="M79.1186 80.0616C79.8331 80.0751 80.5583 80.0131 81.2404 80.307C81.129 80.434 80.9757 80.5166 80.8084 80.5399C80.6411 80.5632 80.471 80.5255 80.3292 80.4337C80.8279 80.4337 80.9735 80.9729 81.138 81.4878C81.6382 83.0566 82.0407 84.6548 82.3431 86.2733C82.521 87.1846 82.6424 88.3007 83.7396 88.4787C84.9151 88.6701 85.333 87.5782 85.8318 86.7397C86.0744 86.3272 86.0771 85.6397 86.8455 85.788C86.8644 85.788 86.8805 85.8527 86.8805 85.8905C86.8778 85.9344 86.8696 85.9779 86.8563 86.0199C86.9623 88.6081 87.0675 91.1954 87.1717 93.7818C87.2369 95.7054 86.9883 97.6267 86.4357 99.4704C85.7536 101.829 85.0607 104.186 84.686 106.618C84.6105 107.114 84.3678 107.294 83.8933 107.319C83.0845 107.359 82.2946 107.44 81.4965 107.505C80.588 107.426 80.3534 106.952 80.2213 106.027C79.9328 104.011 79.8331 101.983 79.3963 99.9611C78.8571 97.4241 79.0378 94.7146 79.515 92.0967C79.7495 90.9671 79.9194 89.824 80.2186 88.7051C80.8091 86.5052 80.3831 84.3915 79.6255 82.3209C79.3963 81.6981 79.0054 81.1374 78.9407 80.4526C78.9382 80.3781 78.9529 80.304 78.9838 80.2362C79.0147 80.1684 79.0608 80.1086 79.1186 80.0616Z" fill="#FE9D6B"/>
<path d="M78.5611 122.346C78.5179 121.017 78.4101 119.691 78.7579 118.375C78.8307 118.105 79.2351 117.566 78.4883 117.453C78.821 116.991 79.018 116.446 79.0571 115.878C79.2189 114.331 79.4966 112.794 79.7312 111.255C79.8336 110.586 79.928 110.103 80.877 110.497C81.6453 110.813 82.5512 110.61 83.3708 110.365C83.8777 110.214 84.1284 110.349 84.1796 110.88C84.4492 113.366 84.7188 115.857 84.1796 118.34C84.0252 119.039 83.7258 119.699 83.3007 120.276C81.9985 122.05 80.8554 122.098 78.9062 120.416L78.5611 122.346Z" fill="#242C44"/>
<path d="M73.9321 125.568C74.7967 117.944 75.6621 110.318 76.5284 102.692C76.7441 100.789 76.9301 98.8853 77.1431 96.9819C77.2294 96.219 76.6767 95.6339 76.6039 94.933C76.7333 94.2697 77.4505 94.081 77.7201 93.531C78.4129 93.4394 78.4938 93.9947 78.6475 94.4423C78.8389 94.9815 78.9171 95.5692 79.0923 96.1246C79.1867 97.7934 79.494 99.4839 78.5882 101.048C77.7443 105.148 77.3345 109.314 76.701 113.449C76.5662 114.328 76.4799 115.215 76.3693 116.097C75.9569 118.55 75.9838 121.058 75.4311 123.492C75.2424 124.301 75.1966 125.188 74.5091 125.805C74.199 125.999 73.986 125.983 73.9321 125.568Z" fill="#01B399"/>
<path d="M86.8598 86.0199C86.4797 85.7503 86.3557 86.0819 86.3422 86.3111C86.2834 86.7528 86.1022 87.1693 85.8191 87.5135C85.2611 88.3493 84.6787 89.2309 83.506 88.9208C82.3871 88.6243 82.2119 87.5216 82.0447 86.6049C81.705 84.7177 81.1874 82.8952 80.6751 81.0619C80.5861 80.7465 80.3219 80.6979 80.0928 80.4337L81.2413 80.307C83.4574 80.5766 85.6277 81.0026 87.6659 81.957C87.1914 82.9276 87.3801 84.0141 87.1267 85.0278C87.0431 85.3621 87.1456 85.7422 86.8598 86.0199Z" fill="#FDC47B"/>
<path d="M78.585 101.048C78.7252 99.3679 78.9894 97.6936 78.7252 96.0005C78.8842 95.127 78.8977 94.2373 79.0136 93.3611C79.0891 92.7949 79.0136 92.0643 79.8656 91.9241C79.508 94.115 79.4175 96.3411 79.596 98.5537C79.7658 101.204 80.1514 103.841 80.4048 106.485C80.4722 107.208 81.1516 107.149 81.4832 107.505C80.5369 107.647 80.2646 107.235 80.057 106.289C79.7254 104.755 80.092 103.185 79.6175 101.676C79.4396 101.064 79.3048 100.638 78.585 101.048Z" fill="white"/>
<path d="M74.501 125.8C75.4284 122.624 75.5794 119.297 76.3612 116.094C76.4327 116.826 76.3808 117.565 76.2076 118.281C76.1024 118.771 75.8274 119.445 76.6848 119.65C75.9649 121.537 75.9568 123.565 75.5282 125.511C75.4635 125.811 75.3745 126.104 75.2963 126.401C74.8703 126.415 74.5037 126.35 74.501 125.8Z" fill="white"/>
<path d="M59.2896 89.4977C59.2547 89.3671 59.2605 89.2289 59.3063 89.1017C59.352 88.9745 59.4356 88.8643 59.5457 88.7859C59.8153 88.5568 60.0122 88.1012 60.3923 88.2602C60.7724 88.4193 60.5001 88.9046 60.6026 89.2281C60.2251 89.6136 59.7587 89.5597 59.2896 89.4977Z" fill="#1C0F08"/>
<path d="M72.6918 77.344C71.945 77.2065 71.9773 76.7455 72.1526 76.1523C72.7753 73.8223 73.2374 71.4524 73.5356 69.0591C74.2824 71.1755 74.8189 73.1328 76.105 74.7208C76.8194 75.4298 77.6633 76.0984 76.8437 77.2604L76.388 77.708L72.6918 77.344Z" fill="#F6F7F6"/>
<path d="M56.2541 39.9608C55.6879 38.7503 56.2541 37.6476 56.583 36.5207L57.3918 35.4261C57.6237 35.4045 57.7558 35.4773 57.6884 35.7389C56.8472 37.0168 56.4967 38.4699 56.2541 39.9608Z" fill="#FAB5AF"/>
<path d="M57.696 35.7388L57.3994 35.4395C58.5183 34.3018 59.7018 33.2827 61.4219 33.2827C60.0577 33.9028 58.6962 34.5445 57.696 35.7388Z" fill="#E97F79"/>
<path d="M87.7545 73.5049C88.2128 75.4595 87.7383 77.3872 87.6089 79.3256C84.6834 78.6607 81.7074 78.2423 78.712 78.0746C78.7353 78.0108 78.7525 77.9449 78.7632 77.8778C78.7632 77.8482 78.7281 77.8158 78.7093 77.7862C78.6554 76.9774 78.6796 76.1874 79.111 75.4676C79.8838 74.5813 80.8672 73.9036 81.9706 73.497C83.074 73.0904 84.2619 72.968 85.4251 73.1409C86.1045 73.2218 86.7246 73.3862 87.2072 73.8904C87.617 74.3191 87.4417 73.6208 87.6466 73.6747C87.6652 73.6088 87.7027 73.5497 87.7545 73.5049Z" fill="#FDC57D"/>
<path d="M79.1192 80.0616L79.0761 80.3555C78.1945 83.7417 78.2214 87.26 77.5906 90.6813C77.4935 91.1989 77.6283 91.7597 77.1916 92.1911C76.3396 90.8808 77.0514 89.5166 77.0729 88.1821C77.0999 86.5375 77.7604 84.9657 77.72 83.3049C77.9464 82.1618 77.906 80.9702 78.3482 79.8648L79.1192 80.0616Z" fill="white"/>
<path d="M77.1914 92.1911C77.1671 88.5703 78.1485 85.0573 78.3399 81.4581C78.3587 81.0591 78.3722 80.4094 79.0759 80.3555C80.7879 83.2968 81.381 86.3892 80.3835 89.7161C80.1678 90.4386 80.0357 91.1854 79.8658 91.9214C79.359 92.5469 79.3266 93.2883 79.3266 94.0459C79.3266 94.7577 79.2808 95.4586 78.7281 96.0005C78.1619 95.2726 78.5879 94.1349 77.7198 93.531L77.1914 92.1911Z" fill="white"/>
<path d="M79.3481 75.535C78.8925 76.2171 79.2753 77.1311 78.7199 77.7862C78.116 77.5382 77.3018 78.0396 76.8327 77.2605C77.2587 76.2171 76.1318 75.6294 76.094 74.7235C75.9996 73.9767 76.5577 73.823 77.0727 73.7071C77.9866 73.5022 78.6013 73.9767 79.0785 74.7019C79.3967 74.9122 79.6204 75.1441 79.3481 75.535Z" fill="#1A1512"/>
<path d="M79.3482 75.535L79.0786 74.7019C80.3161 74.036 81.505 73.2595 82.9232 73.0007C84.5785 72.7015 86.1584 72.6691 87.6277 73.6747C87.7566 74.0578 87.7373 74.4752 87.5738 74.8448C86.8621 73.5777 85.7028 73.3431 84.4518 73.2757C83.1949 73.2261 81.9586 73.6065 80.947 74.3541C80.4051 74.7262 79.8847 75.1387 79.3482 75.535Z" fill="#FFC502"/>
<path d="M125.787 40.0606C126.027 35.7873 127.262 31.9482 130.484 28.9232C132.225 27.2894 134.28 26.327 136.555 25.7554C137.027 25.6368 137.493 25.4993 137.965 25.3699C139.254 25.1892 139.472 26.0978 139.55 27.0306C139.645 28.1764 139.882 29.2441 140.669 30.1257C141.208 31.4737 142.376 32.4335 142.996 33.7411C143.7 35.569 145.333 36.0516 146.989 36.4047C148.337 36.6932 149.229 35.5959 149.83 34.7521C150.591 33.6737 151.507 32.5386 151.529 31.0639C151.85 30.1958 151.966 29.2306 152.683 28.5458C152.839 27.7154 153.022 26.8877 153.141 26.052C153.241 25.3564 153.516 25.1434 154.219 25.3807C156.916 26.2919 159.539 27.4189 161.83 29.1551C163.817 30.6487 164.969 32.757 165.729 35.0864C166.483 37.3739 166.961 39.7435 167.152 42.1446C167.077 42.3307 166.962 42.4978 166.814 42.6335C166.666 42.7692 166.49 42.8702 166.298 42.9291C164.532 43.5223 162.731 43.9051 160.852 43.7379C159.981 43.3308 160.043 44.0426 159.916 44.5279C159.285 47.205 158.164 49.7528 157.797 52.5001C157.761 52.7198 157.668 52.9262 157.528 53.0986C155.464 54.2745 153.158 54.9617 150.787 55.1071C146.204 55.4306 141.688 55.0343 137.38 53.2522C136.72 52.9826 136.032 52.7481 135.493 52.2439C135.62 49.7636 134.444 47.5987 133.813 45.299C133.684 44.1558 133.417 43.0289 133.487 41.8642C133.53 41.1417 133.217 40.7858 132.454 40.5917C130.698 40.1172 128.866 39.9926 127.062 40.225C126.626 40.2924 126.186 40.3356 125.787 40.0606Z" fill="#0564FF"/>
<path d="M125.787 40.0605C128.091 39.4988 130.504 39.579 132.765 40.2924C133.52 40.5162 133.905 40.899 133.929 41.6835C133.967 42.9291 134.024 44.1747 134.072 45.4202C133.978 45.8058 134.399 46.5337 133.452 46.3423C132.97 45.1426 133.347 43.8566 133.077 42.6272C132.883 41.7456 132.538 41.1147 131.584 40.9934C130.851 40.9017 130.371 41.1174 130.365 41.9828C130.367 46.0146 129.84 50.0292 128.796 53.9235C128.591 54.6623 128.629 55.4144 129.306 55.8701C130.91 56.9485 131.139 58.6874 131.39 60.3482C131.587 61.6531 131.449 63.0065 131.587 64.1226C131.519 62.966 131.525 61.5991 131.406 60.2484C131.193 57.849 131.506 55.5142 132.026 53.1929C132.123 52.7589 132.066 52.0471 132.886 52.1469C133.009 52.3354 133.088 52.549 133.117 52.772C133.146 52.9949 133.126 53.2217 133.056 53.4356C132.104 57.3529 132.425 61.3403 132.395 65.2981C132.377 67.6652 132.126 70.0135 131.948 72.3671C131.875 73.3242 131.597 74.3406 132.487 75.109C133.439 76.457 133.069 78.0018 133.126 79.4792C133.125 80.074 133.08 80.6679 132.991 81.2559C133.11 80.7679 132.991 80.2934 133.282 79.9079C134.261 78.4682 134.512 78.4278 135.66 79.5197C135.748 79.6245 135.807 79.7497 135.833 79.8836C135.935 80.3312 135.143 80.9621 136.008 81.2317C136.766 81.4662 137.148 81.0079 137.251 80.2476C137.272 80.0655 137.363 79.8985 137.504 79.7815C137.645 79.6645 137.826 79.6064 138.009 79.6194C138.191 79.6086 138.371 79.6612 138.518 79.7684C138.666 79.8756 138.771 80.0307 138.817 80.2072C138.998 80.8057 139.224 81.3018 139.971 81.167C139.989 81.152 140.004 81.1333 140.014 81.1121C140.024 81.0909 140.029 81.0677 140.029 81.0443C140.029 81.0208 140.024 80.9977 140.014 80.9765C140.004 80.9553 139.989 80.9365 139.971 80.9216C139.702 80.5792 138.893 80.5334 139.195 79.8729C139.429 79.3579 140.041 79.4738 140.524 79.4738C140.906 79.4684 141.283 79.5656 141.615 79.7553C141.947 79.945 142.222 80.2202 142.411 80.5523C142.938 81.3052 143.205 82.2089 143.173 83.127C143.141 84.0452 142.811 84.928 142.233 85.6424C142.071 85.858 141.84 86.0576 141.823 86.3218C141.71 88.2333 140.672 89.859 140.206 91.6599C139.742 92.4687 138.949 92.9001 138.235 93.4123C136.617 94.5743 135.366 94.2481 134.461 92.4822C134.255 92.1226 134.122 91.7259 134.07 91.3148C133.822 91.8891 134.339 92.8435 133.371 93.2371C133.342 91.4308 133.684 89.6298 133.684 87.81C133.684 86.7612 133.414 86.1924 132.379 86.0549C132.501 85.7853 132.794 85.7448 133.015 85.61C133.414 85.3701 133.859 85.0708 133.412 84.5828C133.341 84.4931 133.248 84.4231 133.143 84.3796C133.037 84.3362 132.922 84.3208 132.809 84.3349C132.695 84.349 132.588 84.3921 132.496 84.4601C132.404 84.5281 132.331 84.6187 132.285 84.723C132.193 84.8767 132.112 85.0358 131.926 85.0951C131.845 83.6797 130.972 82.8439 129.899 82.0513C128.597 81.0942 127.882 79.6248 127.54 78.1258C126.815 74.9634 125.383 72.0058 125.173 68.6897C124.97 65.1682 124.963 61.6382 125.151 58.1159C125.224 56.6951 125.52 55.2823 125.55 53.8615C125.636 49.2621 125.92 44.6654 125.787 40.0605Z" fill="#FEC47C"/>
<path d="M147.846 127.272C147.307 127.401 147.363 127.857 147.323 128.242C146.862 132.694 146.544 137.166 145.913 141.593C145.01 147.932 144.519 154.31 143.775 160.665C143.664 161.617 143.117 161.994 142.227 161.929C141.243 161.857 140.985 161.247 141.084 160.341C141.667 155.095 142.236 149.847 142.794 144.597C143.139 141.307 143.403 138.007 143.764 134.718C143.964 132.907 144.303 131.106 144.573 129.299C144.956 128.221 145.012 127.242 143.745 126.684C143.865 126.41 144.05 126.171 144.285 125.986C144.878 124.638 144.824 123.177 144.975 121.772C145.534 116.256 146.139 110.745 146.789 105.24C147.229 101.503 147.531 97.753 147.973 94.0163C148.124 92.7303 148.668 92.1561 149.647 92.1291C150.744 92.0967 151.418 92.8166 151.418 94.1754C151.418 96.0168 151.014 97.8231 150.833 99.6483C150.197 106.057 149.458 112.454 148.725 118.852C148.455 121.157 148.259 123.47 147.965 125.77C147.965 126.099 148.207 126.282 148.391 126.514C149.051 127.353 148.383 127.275 147.846 127.272Z" fill="#1B1918"/>
<path d="M140.038 91.6383C139.99 90.8295 140.019 90.0611 140.696 89.4303C141.052 89.1013 141.022 88.5406 141.141 88.0661C141.394 87.0524 141.1 85.8607 142.284 85.1166C143.079 84.6178 143.033 81.9892 142.146 80.7625C141.448 79.7973 141.017 79.6167 139.413 80.0022C139.334 80.1721 139.453 80.2422 139.572 80.3042C140.054 80.5738 140.823 80.5738 140.763 81.3449C140.726 81.822 140.133 81.7951 139.898 81.6414C139.429 81.3341 138.208 81.8733 138.58 80.5468C138.706 80.0885 138.423 79.8486 138.011 79.8539C137.525 79.8539 137.472 80.1775 137.577 80.6034C137.747 81.237 137.337 81.5497 136.819 81.6333C136.301 81.7169 135.555 81.9407 135.18 81.4257C134.692 80.7571 135.541 80.3473 135.746 79.8081C136.043 79.1476 136.684 79.0991 137.267 78.9427C138.635 78.8613 140.008 78.8704 141.375 78.9696C141.721 79.0425 142.055 79.1604 142.37 79.3201C143.006 79.7461 143.179 80.5846 143.845 80.9863C144.085 81.2559 144.007 81.6711 144.301 81.911C144.177 84.1482 143.509 86.3213 142.354 88.2413C140.114 91.8783 140.065 95.7012 140.683 99.7291C141.268 103.541 141.405 107.316 139.647 110.993C138.771 112.826 138.768 114.991 138.725 117.038C138.652 120.483 138.647 123.931 138.725 127.374C138.758 128.566 138.302 129.043 137.234 129.013C136.469 128.995 135.644 129.396 134.937 128.779C135.619 127.372 135.361 125.881 135.255 124.425C134.716 117.011 134.401 109.597 135.76 102.234C136.045 100.692 136.237 99.136 136.393 97.5804C136.488 96.459 136.963 95.4038 137.741 94.5905C138.631 93.7096 139.403 92.7173 140.038 91.6383Z" fill="#FEC47D"/>
<path d="M160.709 43.5276C162.914 43.3308 165.152 43.2931 167.155 42.1473C167.939 44.3257 167.815 46.6119 167.964 48.8658C167.271 48.8658 167.397 48.2942 167.314 47.906C167.086 46.8097 166.987 45.6904 167.02 44.571C167.036 43.8161 166.734 43.5196 165.942 43.7272C164.863 43.9968 163.731 43.8458 162.652 44.2664C161.903 44.5575 161.547 44.9512 161.633 45.7438C161.916 48.2754 162.113 50.8231 162.855 53.2927C163.294 54.7378 164.176 55.7191 165.683 56.0345C167.19 56.35 167.937 57.2909 168.298 58.7306C169.417 63.3386 170.184 68.0253 170.59 72.75C170.673 73.672 170.234 74.5994 170.63 75.5134C170.668 75.5984 170.673 75.6946 170.643 75.783C169.781 77.3494 169.527 77.4006 168.144 76.2952C167.802 76.0256 167.497 76.1443 167.166 76.3519C166.767 76.6026 166.4 76.5702 166.182 76.0822C165.642 74.497 165.785 72.7715 165.179 71.2644C164.766 72.5019 165.092 73.9847 164.138 75.1359C163.719 75.3004 163.252 75.3004 162.833 75.1359C160.554 74.5364 158.223 74.1528 155.872 73.9901C155.292 73.9693 154.727 73.8044 154.227 73.5102C154.112 73.4263 154.014 73.3222 153.936 73.2029C153.798 72.8181 153.744 72.4081 153.778 72.0006C153.812 71.5932 153.933 71.1978 154.133 70.8412C155.192 69.3529 156.743 68.6628 158.43 68.199C159.951 67.7945 161.552 67.8029 163.068 68.2233C163.709 68.2988 164.089 68.9863 164.772 68.9539C165.133 67.9321 164.842 66.9939 164.434 66.0692C164.035 64.7212 163.521 63.4028 163.434 61.9793C163.524 61.5845 163.48 61.1713 163.31 60.8038C161.388 55.5466 160.911 50.0359 160.45 44.5225C160.417 44.1477 160.409 43.7973 160.709 43.5276Z" fill="#FEC47D"/>
<path d="M138.48 23.577C138.108 21.6224 138.69 19.8214 139.558 18.1445C141.335 14.6801 146.935 13.9198 149.86 16.5673C152.696 19.1339 153.095 22.264 152.392 25.75C151.828 25.4804 151.734 26.1005 151.405 26.2892C148.868 27.7127 146.175 28.4676 143.247 28.2708C142.713 28.282 142.184 28.1819 141.691 27.9769C141.168 27.6372 140.524 27.5536 140.006 27.1977C139.21 26.1329 138.687 24.89 138.48 23.577Z" fill="#E72C20"/>
<path d="M144.306 106.688C144.506 102.271 144.967 97.871 145.687 93.5094C146.021 91.5089 147.304 89.9452 148.604 88.4705C149.039 88.0316 149.323 87.4647 149.413 86.8529C149.876 83.348 150.34 79.8594 150.895 76.3788C151.052 75.3974 150.715 75.0982 149.852 75.0874C149.922 74.6803 150.302 74.7234 150.561 74.5967C151.267 74.2678 150.831 73.5183 151.146 73.0303C151.311 72.731 151.486 72.448 151.89 72.4722C152.553 72.8119 153.395 72.5504 153.993 73.1031L153.963 73.0896C154.047 73.955 153.726 74.7746 153.694 75.6266C152.923 79.1826 152.729 82.8142 152.257 86.4107C152.119 87.4418 152.302 88.4902 152.78 89.4141C153.326 90.4939 153.738 91.6365 154.007 92.8165C154.152 93.7601 154.071 94.7037 154.098 95.6581C153.999 98.2059 153.443 100.689 153.006 103.188C152.483 106.173 152.173 109.187 151.699 112.177C151.599 112.473 151.429 112.735 151.34 113.042C151.248 113.34 151.176 113.643 151.125 113.951C151.038 114.307 151.071 114.867 150.488 114.759C150.39 114.732 150.297 114.685 150.217 114.622C150.136 114.558 150.069 114.48 150.019 114.39C149.969 114.301 149.937 114.202 149.925 114.101C149.913 113.999 149.921 113.896 149.949 113.797C150.434 111.708 149.806 109.537 150.553 107.442C150.949 106.332 150.653 105.056 150.661 103.854C150.693 100.937 151.324 98.0818 151.615 95.189C151.772 93.6442 151.165 92.3932 150.556 91.1072C150.286 90.5518 149.849 90.6003 149.477 91.0155C148.55 92.067 147.83 93.202 147.668 94.6714C147.032 100.452 146.495 106.24 145.867 112.023C145.641 114.107 145.471 116.199 145.261 118.286C145.201 118.866 145.193 119.451 144.848 119.96C144.579 120.281 144.39 120.844 143.867 120.672C143.403 120.524 143.527 119.99 143.541 119.61C143.692 115.285 144.198 110.999 144.306 106.688Z" fill="#0564FF"/>
<path d="M140.038 91.6384C140.219 92.7438 139.421 93.504 138.785 94.0217C137.021 95.4506 136.798 97.3809 136.547 99.3814C136.156 102.506 135.59 105.615 135.328 108.75C135.072 112.001 135.072 115.267 135.328 118.518C135.383 118.732 135.423 118.95 135.45 119.17C135.301 122.031 135.84 124.864 135.754 127.725C135.735 128.299 135.754 128.833 134.945 128.782C134.154 125.81 133.612 122.777 133.328 119.715C132.988 116.348 132.91 112.942 131.295 109.812C130.408 108.095 130.734 106.208 130.799 104.307C130.931 100.417 132.613 96.955 133.347 93.2533C133.557 92.3609 133.764 91.4685 133.994 90.4899C134.209 91.3604 134.574 92.187 135.072 92.9325C135.706 93.8896 136.566 94.1646 137.571 93.4555C138.41 92.8651 139.219 92.245 140.038 91.6384Z" fill="#FE9C67"/>
<path d="M170.62 75.5107C170.059 74.4026 170.239 73.1571 170.14 72.0059C169.846 68.5873 169.185 65.2361 168.622 61.8661C168.433 60.7364 168.131 59.623 167.875 58.5014C167.651 57.5201 167.131 56.6142 166.125 56.5117C163.637 56.2421 162.674 54.6245 162.2 52.4515C161.7 50.0599 161.373 47.6352 161.224 45.1965C161.173 44.4794 161.44 44.2798 162.159 43.9536C163.58 43.3093 165.144 43.835 166.527 43.0774C167.196 42.7108 167.403 43.4549 167.376 44.0291C167.312 45.4176 167.506 46.7845 167.662 48.1567C167.692 48.4263 167.681 48.6959 167.95 48.8631C168.166 50.3055 168.301 51.764 168.614 53.1768C169.466 57.0402 170.636 60.8362 171.04 64.7967C171.295 67.5078 171.305 70.2365 171.07 72.9495C171.016 73.7852 170.579 74.6183 170.62 75.5107Z" fill="#FE9C67"/>
<path d="M153.634 116.348C154.314 115.461 154.036 114.377 154.233 113.382C154.502 112.072 154.688 110.745 154.926 109.429C155.047 108.764 155.3 108.41 156.107 108.712C156.983 109.069 157.957 109.104 158.857 108.812C159.396 108.629 159.679 108.839 159.752 109.427C160.081 112.047 160.407 114.665 159.789 117.288C159.584 118.162 159.326 119.025 158.711 119.715C157.961 120.575 157.115 121.411 155.877 121.171C154.64 120.931 154.395 119.774 154.12 118.725C153.742 118.946 154.014 119.421 153.742 119.68C153.165 119.124 153.343 118.453 153.473 117.793C153.573 117.317 153.627 116.833 153.634 116.348Z" fill="#282B45"/>
<path d="M167.923 89.9911C167.923 90.4818 167.945 90.9751 167.939 91.4658C167.934 91.9565 167.875 92.4256 167.427 92.617C166.888 92.8516 166.872 92.1938 166.597 91.9646C166.101 91.5575 165.659 91.1396 165.211 92.1398C164.089 94.6471 163.593 97.3567 162.59 99.9017C161.978 101.463 161.337 102.983 161.42 104.755C161.474 105.833 160.342 106.17 159.425 106.407C159.116 106.449 158.804 106.458 158.492 106.434C155.214 106.539 154.262 106.343 154.524 102.455C154.558 102.144 154.552 101.829 154.505 101.519C154.332 100.622 153.925 100.808 153.472 101.328C153.001 100.25 153.793 99.2627 153.653 98.2032C153.623 97.966 153.904 97.7368 154.211 97.7341C154.597 97.7341 154.75 98.0037 154.842 98.3137C155.215 99.4119 155.412 100.562 155.427 101.722C155.375 102.788 155.525 103.855 155.869 104.865C155.958 104.962 156.047 105.062 156.139 105.154C157.382 105.647 158.619 106.016 159.776 104.957C160.404 102.021 161.431 99.2088 162.537 96.4346C163.735 93.5639 163.815 90.3484 162.76 87.4218C162.642 87.0843 162.559 86.7356 162.512 86.3811C162.361 84.0664 162.48 81.742 162.868 79.455C162.992 78.7702 163.035 77.9991 163.879 77.7188C165.969 77.9749 166.475 78.6678 166.575 81.4096C166.524 82.6714 165.33 83.6204 165.61 84.9711C165.548 86.8772 165.853 88.7455 166.052 90.6327C166.484 91.0776 166.891 91.1046 167.279 90.5815C167.468 90.3551 167.505 89.9722 167.923 89.9911Z" fill="white"/>
<path d="M144.301 81.9138C143.64 81.9812 143.999 81.3746 143.799 81.1454C143.26 80.6844 143.044 79.9618 142.451 79.5547L141.642 79.2851C140.098 79.0317 138.55 78.8915 136.997 79.2447C136.598 79.4792 136.078 79.4442 135.746 79.8216C135.671 79.7765 135.586 79.7514 135.498 79.7488C135.307 78.8672 134.352 78.4008 134.266 77.4572C134.789 74.6506 135.943 73.6504 138.76 73.5237C140.815 73.4347 142.829 73.7771 144.845 74.1007C145.287 74.1707 145.716 74.2921 145.962 74.7288C145.41 77.1139 144.856 79.5089 144.301 81.9138Z" fill="#252B44"/>
<path d="M145.962 74.7181C143.484 74.1789 140.985 73.8068 138.442 73.9093C136.172 74.0009 135.272 74.7585 134.695 76.9774C134.627 77.247 134.649 77.5166 134.388 77.681C134.072 78.4602 133.827 79.2636 133.546 80.0535C133.147 80.8408 133.352 81.8976 132.29 82.7765C132.948 80.3326 133.025 77.7685 132.514 75.2896C132.301 74.9176 132.481 74.5671 132.565 74.2112C132.716 73.0951 132.878 72.0032 133.848 71.2186C134.404 70.7684 134.927 70.5338 135.493 71.1C135.932 71.5314 136.439 71.5098 136.989 71.4559C140.224 71.1405 143.411 71.5664 146.587 72.1245C148.073 72.3941 149.652 72.1811 151.038 72.9818C151.189 73.6481 151.109 74.3457 150.812 74.9607L149.86 75.0713L145.962 74.7181Z" fill="#130F0B"/>
<path d="M141.362 136.304C140.23 136.541 139.534 137.021 139.44 138.393C139.37 139.399 137.261 140.207 136.067 139.922C135.018 139.671 134.015 138.245 134.18 137.023C134.379 135.441 134.698 133.874 134.989 132.189C136.051 132.998 137.146 133.122 138.243 132.505C138.723 132.235 138.901 132.505 139 132.885C139.181 133.57 139.305 134.273 139.494 134.958C139.599 135.344 139.345 135.926 139.987 136.058C140.731 136.209 140.82 135.565 141.066 135.117C141.502 135.417 141.284 135.902 141.362 136.304Z" fill="#282C3E"/>
<path d="M165.743 91.0183C165.543 88.9881 165.096 86.9742 165.268 84.9171C166.26 84.3995 166.282 85.3215 166.592 85.8122C166.654 85.9282 166.684 86.063 166.746 86.1789C166.808 86.2948 166.816 86.2355 166.818 86.1007C166.897 84.2355 167.296 82.3977 167.999 80.6682C168.404 79.5898 168.563 78.4278 168.083 77.2766C167.913 76.8722 167.813 76.4085 168.242 76.0472C169.178 77.1256 169.935 76.6565 170.644 75.7776C170.563 77.9641 169.552 80.0238 169.816 82.2642C169.905 83.0137 169.94 83.774 170.016 84.5289C170.07 85.0663 170.013 85.6091 169.849 86.1235C169.684 86.6379 169.415 87.1129 169.059 87.5188C168.61 88.1095 168.243 88.7579 167.967 89.4465C166.471 89.1257 166.468 89.1283 166.045 90.63C166.027 90.7133 165.99 90.7914 165.938 90.8587C165.886 90.9259 165.819 90.9804 165.743 91.0183Z" fill="#FBC688"/>
<path d="M151.011 103.714C151.235 106.949 150.351 110.125 150.294 113.35C150.294 113.778 150.084 114.228 150.612 114.622C150.968 114.083 150.486 113.196 151.297 112.905C151.398 113.079 151.461 113.272 151.482 113.471C151.503 113.671 151.483 113.873 151.421 114.064C150.558 118.084 150.558 122.23 149.607 126.229C149.337 126.582 149.623 126.962 149.558 127.326C148.995 127.486 148.396 127.467 147.843 127.272C148.027 127.118 148.447 127.293 148.445 126.978C148.445 126.53 147.924 126.665 147.682 126.466C148.318 124.913 148.277 123.231 148.463 121.613C148.887 117.898 149.394 114.191 149.758 110.47C149.938 108.607 150.2 106.755 150.391 104.897C150.44 104.439 150.364 103.876 151.011 103.714Z" fill="#0564FF"/>
<path d="M149.558 127.326C148.986 127.194 148.959 126.859 149.229 126.42C149.628 126.199 149.86 125.681 150.421 125.751C150.884 125.988 150.359 126.63 150.865 126.851C152.073 126.851 151.965 125.891 152.073 125.153C152.429 122.726 152.728 120.316 153.065 117.9C153.144 117.345 153.149 116.749 153.645 116.347C154.184 116.76 153.982 117.264 153.831 117.766C153.652 118.392 153.629 119.053 153.764 119.691C153.717 121.92 153.438 124.138 152.931 126.309C152.744 127.159 152.302 127.7 151.37 127.595C150.437 127.49 150.388 128.054 150.291 128.733C150.022 130.542 149.709 132.34 149.407 134.144C149.366 134.397 149.372 134.761 149.019 134.726C148.512 134.675 148.749 134.263 148.781 133.993C149.037 132.408 149.342 130.831 149.563 129.243C149.649 128.617 150.032 127.962 149.558 127.326Z" fill="#1A1514"/>
<path d="M144.306 106.688C144.721 110.872 143.67 114.994 143.796 119.168C143.796 119.594 143.796 120.022 143.796 120.464C144.46 120.464 144.201 119.739 144.638 119.656C145.007 120.052 145.02 120.559 144.961 121.036C144.737 122.834 144.627 124.649 144.257 126.428L143.834 126.716C143.704 126.803 143.549 126.842 143.394 126.829C143.239 126.816 143.093 126.75 142.979 126.644C143.166 120.284 143.729 113.945 144.104 107.593C144.148 107.287 144.215 106.984 144.306 106.688Z" fill="#0564FF"/>
<path d="M142.982 126.638L143.837 126.711C145.031 127.129 145.228 127.83 144.559 129.299C144.559 128.903 144.584 128.507 144.597 128.108C144.611 127.709 144.926 127.148 144.187 127.091C143.61 127.048 143.306 127.401 143.22 127.97C142.95 129.639 142.721 131.31 142.411 132.974C142.206 134.125 142.114 135.325 141.351 136.304C140.583 136.085 141.351 135.457 141.036 135.117C141.219 132.664 141.481 130.224 142.254 127.873C142.416 127.417 142.475 126.892 142.982 126.638Z" fill="#222121"/>
<path d="M155.877 105.358C154.853 104.679 155.174 103.557 155.104 102.641C155.004 101.309 154.982 99.9826 154.578 98.6965C154.494 98.4269 154.635 97.9659 154.179 97.9821C153.804 97.9983 153.761 98.3757 153.731 98.6938C153.645 99.5746 153.555 100.456 153.462 101.339C152.769 105.113 152.629 108.966 151.639 112.689C151.6 112.677 151.564 112.656 151.536 112.626C151.507 112.596 151.487 112.56 151.478 112.52C151.468 112.48 151.469 112.438 151.48 112.399C151.491 112.36 151.513 112.324 151.542 112.295C152.103 108.224 152.674 104.153 153.222 100.08C153.419 98.6184 153.564 97.1517 153.731 95.6851C154.058 95.5557 153.499 94.5581 154.405 94.9949C155.368 97.9686 155.904 101.064 155.996 104.188C156.007 104.574 156.082 104.981 155.877 105.358Z" fill="white"/>
<path d="M151.55 112.295C151.583 112.428 151.612 112.565 151.645 112.689C151.701 114.625 151.135 116.477 150.884 118.372C150.814 118.893 150.593 119.429 151.041 119.893C151.113 119.946 151.173 120.014 151.217 120.093C151.26 120.172 151.286 120.259 151.291 120.348C151.116 122.206 150.917 124.058 150.235 125.813C150.156 126.01 150.015 126.176 149.834 126.285C149.652 126.395 149.44 126.442 149.229 126.42C149.957 121.92 150.817 117.442 151.297 112.905C151.383 112.703 151.477 112.5 151.55 112.295Z" fill="#F5D7CF"/>
<path d="M150.235 125.813C150.235 123.802 150.982 121.896 151.044 119.882C151.106 119.585 150.815 119.106 151.437 119.095C152.06 119.084 151.877 119.54 151.828 119.852C151.559 121.613 151.254 123.357 150.971 125.126C150.879 125.692 150.701 126.255 150.868 126.84C150.259 126.749 150.669 126.026 150.235 125.813Z" fill="#363331"/>
<path d="M165.743 91.0183C165.719 90.4861 165.743 89.9528 165.815 89.425C166.05 88.3735 167.029 89.2443 167.608 88.8103C167.978 88.5407 167.805 89.2336 167.967 89.4385C167.967 89.6218 167.937 89.8078 167.924 89.9777C167.49 91.6007 167.153 91.7597 165.743 91.0183Z" fill="#1F140F"/>
<path d="M138.48 23.577C139.019 24.7812 139.565 25.9854 140.117 27.1897C140.785 28.1575 141.076 29.1766 140.551 30.3117C139.424 29.5379 139.283 28.3355 139.181 27.1249C139.111 26.2973 139.052 25.475 137.962 25.3644C139.135 25.0625 138.192 24.1458 138.48 23.577Z" fill="#CFAAA1"/>
<path d="M151.535 25.9495C151.694 25.3186 151.974 25.2216 152.395 25.7527C152.664 26.6666 152.26 27.6399 152.683 28.5458C152.399 29.4031 152.114 30.2631 151.828 31.1259C151.559 31.6651 151.502 32.3202 151.198 32.8486C150.968 33.253 150.621 33.6574 150.305 32.8729C150.337 32.6977 150.224 32.8999 150.305 32.7435C151.373 30.5867 151.594 28.295 151.535 25.9495Z" fill="#2E363A"/>
<path d="M131.913 85.0951C131.931 84.7042 131.953 84.3106 131.983 83.6743C132.6 84.3942 133.894 83.4047 133.999 84.8687C134.088 86.1385 133.139 85.9794 132.363 86.0522C132.018 85.8284 132.007 85.4429 131.913 85.0951Z" fill="#1D100A"/>
<path d="M132.816 74.4215C132.716 74.7099 132.613 74.9984 132.514 75.2896C132.244 75.4136 131.974 75.88 131.751 75.2168C131.485 74.4989 131.393 73.7286 131.481 72.9683C132.174 67.889 131.829 62.7746 132.036 57.6791C132.115 55.8188 132.516 53.9694 132.77 52.1145C132.658 51.9469 132.59 51.7544 132.571 51.5541C132.551 51.3537 132.582 51.1517 132.659 50.966C133.091 49.4912 132.929 47.8871 133.616 46.4744C133.964 46.2048 133.67 45.6656 134.064 45.4175C134.638 47.0352 135.619 48.5395 135.725 50.3216C135.76 50.8959 135.859 51.4836 135.595 52.039C135.641 52.1891 135.662 52.3458 135.657 52.5027C134.918 56.4497 133.8 60.3212 133.349 64.3275C133.101 66.5383 132.74 68.7328 133.096 70.9894C133.282 72.1056 132.913 73.273 132.816 74.4215Z" fill="#F8F9F7"/>
<path d="M160.709 43.5277C161.165 48.7499 161.658 53.964 163.06 59.0434C163.178 59.4774 163.356 59.8684 163.502 60.2782C163.707 60.8605 164.243 61.4752 163.629 62.1303C162.957 61.9982 162.895 61.3701 162.744 60.9036C161.742 57.8194 159.671 55.4954 157.433 53.2819C157.371 53.1651 157.358 53.0286 157.396 52.9018C157.689 49.6666 159.202 46.7602 159.749 43.5951C159.795 43.3255 159.749 42.8483 160.097 42.8025C160.528 42.7189 160.55 43.2284 160.709 43.5277Z" fill="#FAFBF8"/>
<path d="M157.409 52.8909L157.533 53.1444C157.803 53.9532 157.212 54.1662 156.668 54.3711C154.452 55.208 152.112 55.6691 149.744 55.7353C145.185 55.8782 140.723 55.5007 136.501 53.6C135.978 53.3628 135.199 53.2657 135.469 52.3437C135.517 52.2412 135.566 52.1415 135.617 52.039C142.532 55.2473 149.585 55.9024 156.819 53.1821C157.021 53.0965 157.218 52.9993 157.409 52.8909Z" fill="#043154"/>
<path d="M150.456 33.0509C151.106 33.1938 151.028 32.5791 151.227 32.2771C151.448 31.9047 151.649 31.5204 151.828 31.1259C151.51 33.431 150.211 35.1268 148.456 36.518C147.984 36.89 147.436 36.7876 146.916 36.7687C145.323 36.7471 143.201 35.2374 142.759 33.8462C143.516 33.5523 143.624 34.7062 144.322 34.5472C144.494 34.5996 144.655 34.6848 144.794 34.7979C147.005 36.5449 148.264 36.2969 149.706 33.8516C149.89 33.5335 149.903 33.0266 150.456 33.0509Z" fill="#549DB6"/>
<path d="M144.058 34.5553C143.317 34.8815 143.266 33.9433 142.759 33.8408C142.093 32.6222 140.831 31.7784 140.551 30.3171C140.405 29.2764 140.26 28.2358 140.117 27.1951C140.756 26.8635 141.157 27.4054 141.645 27.6211C141.125 29.449 141.699 31.0073 142.805 32.4524C143.298 33.1021 144.042 33.6144 144.058 34.5553Z" fill="#21313A"/>
<path d="M133.625 46.4744C133.711 48.4102 133.22 50.2489 132.778 52.1145C132.01 53.9424 131.824 55.889 131.743 57.8328C131.643 60.2835 131.719 62.745 131.584 65.2145C131.584 64.1496 131.163 63.1251 131.214 62.0844C131.285 60.6097 130.7 59.294 130.457 57.8975C130.333 57.175 129.853 56.7301 129.254 56.3769C128.319 55.8216 128.025 55.0505 128.357 53.9909C129.497 50.3567 129.737 46.5796 130.082 42.8213C130.097 42.688 130.089 42.5532 130.061 42.4223C129.842 41.6135 129.559 40.775 130.762 40.535C132.061 40.287 133.094 41.0042 133.36 42.0664C133.73 43.5276 133.487 45.0132 133.625 46.4744Z" fill="#FD9C69"/>
<path d="M133.546 80.0535C133.8 79.2447 133.212 78.1663 134.388 77.681C135.089 78.1878 135.544 78.8268 135.498 79.738C134.649 78.6111 134.053 79.0506 133.546 80.0535Z" fill="#E7C098"/>
<path d="M144.261 126.423C143.845 125.428 144.244 124.449 144.323 123.457C144.422 122.184 144.533 120.912 144.641 119.642C145.075 115.69 145.53 111.743 145.943 107.78C146.42 103.245 146.83 98.702 147.334 94.17C147.517 92.5523 148.593 91.3418 149.647 90.1744C150.186 89.5705 150.443 90.0289 150.726 90.4845C152.133 92.7033 152.128 95.0812 151.702 97.575C151.356 99.5971 151.23 101.654 151.006 103.695C150.356 107.292 150.079 110.931 149.658 114.555C149.224 118.27 148.798 121.988 148.412 125.711C148.359 126.25 148.092 126.374 147.676 126.447C147.517 124.115 148.024 121.834 148.264 119.54C149.159 111.031 150.138 102.53 151.1 94.0298C151.208 93.0781 150.796 92.555 149.906 92.4391C149.016 92.3232 148.507 92.7087 148.402 93.6955C147.401 103.042 146.384 112.392 145.352 121.748C145.215 122.993 145.083 124.242 144.94 125.487C144.894 125.94 144.929 126.45 144.261 126.423Z" fill="white"/>
<path d="M136.997 79.2339C138.553 78.4655 140.098 78.8376 141.642 79.2743L136.997 79.2339Z" fill="#E0B78E"/>
<path d="M142.454 79.5547C143.303 79.7462 143.6 80.404 143.802 81.1454C142.939 80.9648 142.705 80.253 142.454 79.5547Z" fill="#E0B78E"/>
<path d="M135.455 52.3436C135.975 53.573 137.299 53.538 138.24 53.8885C142.26 55.3928 146.495 55.4818 150.734 55.3254C152.874 55.2473 154.877 54.5166 156.913 53.9451C157.317 53.8318 157.452 53.5137 157.517 53.1363C159.923 54.9434 161.768 57.3953 162.839 60.208C163.081 60.8496 163.378 61.4778 163.629 62.1114L164.769 66.0934C164.993 67.2392 165.467 68.3769 164.893 69.5524L163.305 68.5063C161.645 67.9475 159.85 67.9343 158.183 68.4686C156.711 69.0213 155.306 69.6818 154.257 70.9139C153.718 68.8191 152.575 68.5603 150.591 69.9245C148.898 68.3311 148.294 66.2174 147.868 64.5324C147.919 66.9453 147.442 69.7492 146.52 72.4911C143.201 71.9681 139.887 71.348 136.507 71.9519C135.967 72.0462 135.45 72.0462 135.199 71.3668C134.948 70.6874 134.573 70.9004 134.218 71.3075C133.549 72.0732 132.821 72.8011 133.037 73.9685C133.061 74.0979 132.883 74.2651 132.799 74.4161C132.883 71.7793 132.349 69.1561 132.665 66.5086C133.222 61.721 134.155 56.9847 135.455 52.3436Z" fill="#242C45"/>
<path d="M168.242 76.0472C168.42 77.4383 168.829 78.789 168.554 80.2395C168.363 81.2532 167.686 82.0432 167.568 83.0973C167.403 84.5397 167.053 85.9605 167.139 87.6132C166.395 87.1306 166.694 86.3892 166.317 85.9794C165.637 84.4507 166.36 82.9328 166.349 81.4096C166.241 81.229 165.996 80.9998 166.042 80.8704C166.729 78.9993 165.306 78.5302 164.119 77.9047C161.763 77.5624 159.566 76.5352 157.185 76.2871C156.128 76.0634 155.028 76.0795 153.985 75.8126C153.874 75.7941 153.768 75.7515 153.675 75.6877C153.581 75.6239 153.503 75.5404 153.446 75.4433C153.381 74.6048 153.368 73.7771 153.961 73.0815C154.966 73.8149 156.169 73.5911 157.285 73.7232C159.601 73.9928 161.852 74.5913 164.136 75.02C164.559 75.0051 164.98 75.0986 165.357 75.2915C165.735 75.4845 166.056 75.7706 166.292 76.1227C166.562 76.3923 166.872 76.4947 167.015 76.0822C167.419 74.931 167.818 75.4945 168.242 76.0472Z" fill="#170C04"/>
<path d="M150.753 69.8841C151.09 68.3797 152.26 68.7005 153.217 68.8677C154.336 69.0645 154.508 69.9299 154.26 70.9247C154.107 71.6419 153.894 72.3509 153.991 73.1004C153.249 72.8821 152.354 73.4024 151.726 72.6313C151.492 71.685 150.653 70.9517 150.753 69.8841Z" fill="#16100B"/>
<path d="M166.306 76.128C165.587 75.7686 164.868 75.401 164.149 75.0253C164.564 73.459 164.553 71.7901 165.252 70.2668C165.767 72.2026 166.37 74.1033 166.306 76.128Z" fill="#FAF2E3"/>
<path d="M158.186 68.4767C158.992 68.1137 159.867 67.9292 160.751 67.9357C161.635 67.9422 162.507 68.1396 163.308 68.5144C161.616 68.2023 159.882 68.1896 158.186 68.4767Z" fill="#F7BF7A"/>
<path d="M164.893 69.5605C165.163 68.3958 164.761 67.2554 164.769 66.1015C165.333 67.2338 165.597 68.3796 164.893 69.5605Z" fill="#F7BF7A"/>
<path d="M144.058 34.5553C143.085 33.2827 141.939 32.1288 141.362 30.5759C141.06 29.7401 141.12 28.9017 141.093 28.0605C141.093 27.6992 141.362 27.6507 141.632 27.6211C144.759 28.2654 147.717 27.7316 150.529 26.3162C150.823 26.1197 151.159 25.9942 151.51 25.9495C152.022 27.8367 152.087 29.6808 151.092 31.4602C150.84 31.9766 150.62 32.5078 150.432 33.0509C150.321 33.2881 150.208 33.5227 150.103 33.7599C148.755 36.7741 146.113 37.1003 144.441 34.8815C144.327 34.7581 144.198 34.6486 144.058 34.5553Z" fill="#FEC47F"/>
<path d="M153.451 75.4486L154.017 75.5241C154.238 75.6751 154.527 75.7667 154.645 76.0094C156.223 79.2446 157.382 82.5419 155.799 86.1249C155.015 87.9016 154.753 89.7996 154.368 91.6706C154.279 92.1074 154.419 92.7194 153.688 92.7706C153.316 92.3878 153.524 91.8135 153.244 91.4037C151.297 88.5648 151.855 85.4859 152.351 82.3963C152.656 80.5091 152.834 78.5976 153.095 76.6996C153.155 76.2736 153.074 75.791 153.451 75.4486Z" fill="white"/>
<path d="M150.752 69.884C151.022 70.8222 152.149 71.4477 151.731 72.6286L151.41 73.0896C151.387 73.1251 151.355 73.154 151.317 73.1735C151.28 73.1929 151.238 73.2023 151.195 73.2007C151.153 73.199 151.112 73.1865 151.076 73.1642C151.04 73.1419 151.01 73.1106 150.989 73.0734L146.536 72.5073C146.716 69.6117 147.614 66.8321 147.792 63.9069C148.587 66.0368 149.377 68.1019 150.752 69.884Z" fill="#F6F9FA"/>
<path d="M153.688 92.7707C154.144 92.0212 154.082 91.1531 154.241 90.3443C154.511 88.9451 154.743 87.5243 155.379 86.2355C156.579 83.8091 156.271 81.3476 155.487 78.9563C155.109 77.797 154.761 76.5703 154.017 75.5458C155.096 75.7102 156.212 75.6482 157.253 76.0392C156.479 76.4813 156.425 77.1499 156.535 77.9587C156.692 79.1045 157.15 80.1722 157.296 81.3126C157.36 81.8275 157.525 82.356 157.296 82.879C157.204 83.0327 156.983 83.1486 156.975 83.2915C156.843 85.6694 155.357 87.6725 155.166 90.0477C155.055 91.4524 154.519 92.8058 154.578 94.2455C154.583 94.3797 154.555 94.513 154.496 94.6335C154.436 94.754 154.348 94.8579 154.238 94.9356L153.74 95.7067C153.724 94.7146 153.707 93.7413 153.688 92.7707Z" fill="#F4A578"/>
<path d="M150.99 73.0734L151.41 73.0896C151.084 73.6692 151.726 74.5643 150.812 74.958C150.644 74.3082 150.938 73.7016 150.99 73.0734Z" fill="#6A0E0B"/>
<path d="M154.238 94.914C153.998 92.4876 154.753 90.1852 155.195 87.8693C155.492 86.3299 156.511 84.936 156.498 83.2483C156.498 82.914 156.878 82.7954 157.209 82.7711C157.835 83.3103 157.848 84.1191 158.018 84.8363C158.199 85.61 158.506 86.1465 159.407 86.1519C160.24 86.1519 160.555 85.6559 160.774 84.9603C161.124 83.8387 161.407 82.666 162.55 81.8329C162.949 83.4748 162.448 85.0331 162.858 86.524C164.448 90.4521 164.02 94.267 162.34 98.0684C161.31 100.394 160.576 102.84 160.154 105.348C158.727 105.784 157.301 106 155.875 105.348C155.336 104.31 155.554 103.156 155.495 102.077C155.363 99.6321 154.419 97.3432 154.238 94.914Z" fill="#FE9C67"/>
<path d="M162.858 86.524C162.251 85.6235 162.691 84.6152 162.588 83.6635C162.558 83.0824 162.558 82.5002 162.588 81.9191C161.752 83.1971 161.24 84.2674 161.041 85.4482C160.841 86.6291 159.984 86.559 159.118 86.5428C158.253 86.5267 157.846 86.1223 157.743 85.2487C157.646 84.4157 157.406 83.5961 157.231 82.7711C157.015 80.9135 156.363 79.1476 156.099 77.2874C155.926 76.058 156.368 75.9663 157.28 76.0175C159.663 76.3006 161.976 76.8263 164.141 77.9047C163.513 77.9991 163.486 78.4763 163.386 78.9832C162.915 81.4673 162.737 83.9983 162.858 86.524Z" fill="#FEC47C"/>
<path d="M166.349 81.4096C166.888 81.7736 166.597 82.3074 166.527 82.7118C166.366 83.7932 166.295 84.8862 166.317 85.9794C165.931 85.6613 166.163 84.7311 165.268 84.9171C164.958 83.5368 166.098 82.6201 166.349 81.4096Z" fill="#E6C69E"/>
<path d="M155.875 105.358C157.301 105.752 158.727 105.388 160.154 105.358C159.027 106.14 157.034 106.143 155.875 105.358Z" fill="#FEE2D4"/>
<g clip-path="url(#clip0)">
<path d="M33.9371 144.599C41.9494 144.599 48.4446 143.354 48.4446 141.818C48.4446 140.282 41.9494 139.036 33.9371 139.036C25.9249 139.036 19.4297 140.282 19.4297 141.818C19.4297 143.354 25.9249 144.599 33.9371 144.599Z" fill="#0564FF"/>
<path d="M33.6937 142.841C34.6262 142.841 35.3821 141.854 35.3821 140.637C35.3821 139.419 34.6262 138.432 33.6937 138.432C32.7613 138.432 32.0054 139.419 32.0054 140.637C32.0054 141.854 32.7613 142.841 33.6937 142.841Z" fill="#3F3D56"/>
<path d="M33.6937 140.147C34.6262 140.147 35.3821 139.16 35.3821 137.942C35.3821 136.724 34.6262 135.737 33.6937 135.737C32.7613 135.737 32.0054 136.724 32.0054 137.942C32.0054 139.16 32.7613 140.147 33.6937 140.147Z" fill="#3F3D56"/>
<path d="M33.6937 137.452C34.6262 137.452 35.3821 136.465 35.3821 135.248C35.3821 134.03 34.6262 133.043 33.6937 133.043C32.7613 133.043 32.0054 134.03 32.0054 135.248C32.0054 136.465 32.7613 137.452 33.6937 137.452Z" fill="#3F3D56"/>
<path d="M33.6937 134.76C34.6262 134.76 35.3821 133.773 35.3821 132.555C35.3821 131.337 34.6262 130.35 33.6937 130.35C32.7613 130.35 32.0054 131.337 32.0054 132.555C32.0054 133.773 32.7613 134.76 33.6937 134.76Z" fill="#3F3D56"/>
<path d="M33.6937 132.065C34.6262 132.065 35.3821 131.078 35.3821 129.86C35.3821 128.643 34.6262 127.656 33.6937 127.656C32.7613 127.656 32.0054 128.643 32.0054 129.86C32.0054 131.078 32.7613 132.065 33.6937 132.065Z" fill="#3F3D56"/>
<path d="M33.6937 129.371C34.6262 129.371 35.3821 128.383 35.3821 127.166C35.3821 125.948 34.6262 124.961 33.6937 124.961C32.7613 124.961 32.0054 125.948 32.0054 127.166C32.0054 128.383 32.7613 129.371 33.6937 129.371Z" fill="#3F3D56"/>
<path d="M33.6937 126.676C34.6262 126.676 35.3821 125.689 35.3821 124.471C35.3821 123.254 34.6262 122.267 33.6937 122.267C32.7613 122.267 32.0054 123.254 32.0054 124.471C32.0054 125.689 32.7613 126.676 33.6937 126.676Z" fill="#3F3D56"/>
<path d="M40.0168 106.034C40.2482 105.742 40.4588 105.434 40.647 105.112L36.2081 104.385L41.0076 104.421C41.4684 103.422 41.7198 102.34 41.7464 101.241C41.773 100.142 41.5742 99.0495 41.1622 98.03L34.7239 101.361L40.6688 97.0146C40.1119 96.0571 39.3633 95.2242 38.4696 94.5676C37.5759 93.9109 36.5562 93.4447 35.474 93.1978C34.3918 92.951 33.2702 92.9288 32.179 93.1326C31.0878 93.3365 30.0503 93.7621 29.1312 94.3828C28.2121 95.0036 27.4309 95.8063 26.8364 96.7409C26.2418 97.6756 25.8466 98.7222 25.6753 99.8157C25.504 100.909 25.5602 102.026 25.8405 103.097C26.1209 104.168 26.6193 105.17 27.3047 106.04C26.9452 106.497 26.6356 106.99 26.3813 107.512L32.1438 110.495L26.0008 108.441C25.5687 109.711 25.4616 111.07 25.6893 112.392C25.917 113.715 26.4722 114.96 27.3047 116.014C26.3659 117.204 25.7818 118.633 25.6193 120.138C25.4567 121.643 25.7224 123.164 26.3857 124.525C27.0491 125.887 28.0834 127.035 29.3704 127.838C30.6575 128.641 32.1453 129.067 33.6637 129.067C35.1822 129.067 36.67 128.641 37.957 127.838C39.2441 127.035 40.2784 125.887 40.9418 124.525C41.6051 123.164 41.8707 121.643 41.7082 120.138C41.5457 118.633 40.9616 117.204 40.0228 116.014C41.1447 114.593 41.7547 112.836 41.7547 111.027C41.7547 109.219 41.1447 107.462 40.0228 106.04L40.0168 106.034Z" fill="#0564FF"/>
<path opacity="0.1" d="M25.5747 111.019C25.5723 112.828 26.1826 114.584 27.3067 116.005C26.3678 117.194 25.7837 118.623 25.6212 120.128C25.4587 121.633 25.7243 123.154 26.3876 124.515C27.051 125.877 28.0853 127.025 29.3724 127.828C30.6594 128.632 32.1472 129.057 33.6657 129.057C35.1841 129.057 36.6719 128.632 37.959 127.828C39.246 127.025 40.2804 125.877 40.9437 124.515C41.6071 123.154 41.8727 121.633 41.7102 120.128C41.5476 118.623 40.9635 117.194 40.0247 116.005C41.1027 114.636 25.5747 110.116 25.5747 111.019Z" fill="#15499F"/>
<g opacity="0.1">
<path opacity="0.1" d="M85.2095 29.9894C86.9471 30.0369 88.6851 29.9045 90.3953 29.5943C89.9237 29.6081 89.4481 29.6081 88.9745 29.5943C85.691 29.5034 82.1617 28.8278 79.0981 29.6417C81.1194 29.6615 83.21 29.9341 85.2095 29.9894Z" fill="black"/>
<path opacity="0.1" d="M78.9911 59.0641C78.0974 59.6449 77.5544 60.6148 76.9381 61.486C75.0439 64.1366 72.2754 66.0392 69.1167 66.8612C69.3485 66.8711 69.5804 66.877 69.8142 66.875C74.0846 66.8336 78.244 64.5717 80.7032 61.0909C81.3195 60.2197 81.8625 59.2498 82.7562 58.669L82.9107 58.5742C81.5117 58.3826 80.1385 58.3154 78.9911 59.0641Z" fill="black"/>
<path opacity="0.1" d="M118.512 28.7745C117.385 27.1427 115.568 26.1036 113.695 25.4379C111.17 24.5411 108.386 24.2349 105.792 24.9085C105.733 24.9223 105.675 24.9401 105.618 24.9559C107.09 25.0378 108.543 25.3332 109.93 25.833C111.803 26.4987 113.62 27.5378 114.747 29.1695C115.875 30.8013 116.164 33.1205 115.058 34.7601C114.008 36.3227 112.31 35.6095 111.198 36.5716C110.18 37.4507 110.092 38.7841 109.345 39.9002C107.944 41.9883 105.994 43.6536 103.567 44.2857C104.401 44.1869 105.281 44.1988 106.113 44.1119C109.113 43.8017 111.481 41.9389 113.11 39.5051C113.857 38.389 113.945 37.0556 114.963 36.1765C116.075 35.2144 117.773 35.9276 118.823 34.365C119.931 32.7175 119.644 30.4062 118.512 28.7745Z" fill="black"/>
<path opacity="0.1" d="M102.35 44.507C100.719 44.6769 98.8983 44.4635 97.5944 45.469C95.9913 46.7155 96.0686 49.0881 95.6643 51.0734C94.9688 54.5443 92.143 57.4067 88.7881 58.4715L89.0239 58.4932C93.762 58.8784 98.502 55.3325 99.4452 50.6803C99.8416 48.6949 99.7722 46.3224 101.375 45.0759C101.744 44.8014 102.161 44.6002 102.606 44.4833C102.517 44.4853 102.436 44.4991 102.35 44.507Z" fill="black"/>
</g>
<g opacity="0.1">
<path opacity="0.1" d="M122.435 66.3298C122.261 67.9173 122.185 69.5138 122.207 71.1104C122.226 70.0674 122.296 68.8762 122.435 67.5151C122.45 67.3492 122.468 67.1773 122.488 67.0054C122.835 63.9632 123 60.9031 122.983 57.8413C122.953 60.5075 122.788 63.1705 122.488 65.8202C122.476 65.992 122.45 66.1639 122.435 66.3298Z" fill="black"/>
<path opacity="0.1" d="M108.129 40.5087C107.997 40.5857 107.931 40.6331 107.931 40.6331C108.124 41.4782 108.251 42.3367 108.312 43.2012C108.352 42.2997 108.29 41.3966 108.129 40.5087Z" fill="black"/>
<path opacity="0.1" d="M81.655 23.1642C81.7521 21.7813 81.8968 19.3021 81.869 17.0975C81.8353 20.0449 81.5718 23.0516 81.5718 23.0516L81.655 23.1642Z" fill="black"/>
<path opacity="0.1" d="M104.766 75.5651C104.766 75.6421 104.766 75.7192 104.752 75.7962C104.158 85.2784 123.379 77.9692 123.379 77.9692C123.155 77.6665 122.985 77.3269 122.878 76.9657C119.983 77.9929 105.434 82.7695 104.766 75.5651Z" fill="black"/>
<path opacity="0.1" d="M150.231 26.1135C150.231 26.1135 145.475 35.5957 143.89 39.1515C142.305 42.7073 127.839 48.0411 125.857 48.2386C125.326 48.3113 124.83 48.549 124.442 48.9182C123.323 49.9059 122.687 51.5969 122.687 51.5969C122.687 51.5969 122.734 51.9189 122.792 52.5313C123.013 52.0236 123.584 50.8581 124.442 50.1034C124.83 49.7343 125.326 49.4965 125.857 49.4239C127.839 49.2263 142.305 43.8926 143.89 40.3368C145.475 36.781 150.231 27.2988 150.231 27.2988C150.231 27.2988 153.582 17.1548 153.213 14.1205C152.908 18.0082 150.231 26.1135 150.231 26.1135Z" fill="black"/>
<path opacity="0.1" d="M104.727 67.6217C104.525 65.7552 104.144 63.9122 103.589 62.1181C103.12 60.4805 102.559 58.6848 101.978 56.2392C101.699 55.0189 101.331 53.8206 100.876 52.6537C100.863 52.6182 100.849 52.5826 100.837 52.549C99.8461 50.0975 98.8552 49.3053 98.2885 49.0485C97.7534 48.8165 97.2434 48.5305 96.7666 48.1951C94.9356 46.8775 91.006 43.9242 87.5065 40.4355C82.7506 35.6944 77.9947 24.4344 77.9947 24.4344C77.819 23.4838 77.7209 22.5205 77.7014 21.5541C77.653 22.9159 77.7513 24.2788 77.9947 25.6196C77.9947 25.6196 82.7506 36.8797 87.5065 41.6208C91.006 45.1095 94.9356 48.0628 96.7666 49.3804C97.2472 49.7165 97.7612 50.0025 98.3004 50.2338C98.8652 50.4906 99.854 51.2828 100.849 53.7343C100.861 53.7679 100.875 53.8034 100.888 53.839C101.34 55.0061 101.707 56.2044 101.984 57.4244C102.565 59.8701 103.126 61.6657 103.595 63.3034C104.15 65.0974 104.531 66.9404 104.733 68.807C104.816 69.6328 104.866 70.5316 104.879 71.543C104.903 70.2341 104.852 68.9249 104.727 67.6217Z" fill="black"/>
</g>
<path d="M100.096 53.1773C100.096 53.1773 113.174 44.8804 153.798 53.7699C194.421 62.6595 218.002 55.5478 218.002 55.5478V64.8325C218.002 64.8325 172.425 69.7711 154.987 64.8325C137.548 59.8938 112.725 57.0452 104.031 64.6922L100.096 53.1773Z" fill="#F86D70"/>
<path opacity="0.1" d="M100.096 53.1773C100.096 53.1773 113.174 44.8804 153.798 53.7699C194.421 62.6595 218.002 55.5478 218.002 55.5478V64.8325C218.002 64.8325 172.425 69.7711 154.987 64.8325C137.548 59.8938 112.725 57.0452 104.031 64.6922L100.096 53.1773Z" fill="black"/>
<path d="M100.492 53.5724C100.492 53.5724 113.174 45.2755 153.797 54.165C194.42 63.0546 217.605 55.9429 217.605 55.9429L217.804 64.4374C217.804 64.4374 172.623 69.376 155.184 64.4374C137.746 59.4987 113.121 56.0575 104.427 63.7045L100.492 53.5724Z" fill="#F86D70"/>
<path d="M95.7239 66.3338C95.7239 66.3338 82.6452 74.6307 42.022 65.7411C1.39878 56.8516 3.3804 63.9632 3.3804 63.9632V54.6786C3.3804 54.6786 23.3948 49.74 40.833 54.6786C58.2713 59.6172 83.095 62.4658 91.7884 54.8189L95.7239 66.3338Z" fill="#F86D70"/>
<path opacity="0.1" d="M95.7239 66.3338C95.7239 66.3338 82.6452 74.6307 42.022 65.7411C1.39878 56.8516 3.3804 63.9632 3.3804 63.9632V54.6786C3.3804 54.6786 23.3948 49.74 40.833 54.6786C58.2713 59.6172 83.095 62.4658 91.7884 54.8189L95.7239 66.3338Z" fill="black"/>
<path d="M95.3276 65.9387C95.3276 65.9387 82.6452 74.2356 42.022 65.346C1.39883 56.4565 3.77678 63.5681 3.77678 63.5681L3.57861 55.0737C3.57861 55.0737 23.1966 50.135 40.6349 55.0737C58.0732 60.0123 82.6988 63.4536 91.3921 55.8066L95.3276 65.9387Z" fill="#F86D70"/>
<g opacity="0.1">
<path opacity="0.1" d="M17.1132 19.1422C17.1132 19.1422 2.29659 12.9313 0.354606 24.1321C0.354606 24.1321 -0.658002 25.8765 0.75093 27.3186C0.75093 27.3186 1.05412 26.5462 2.48683 27.3462C2.99828 27.6266 3.541 27.846 4.10383 28.0001C4.8644 28.2092 5.67255 28.1663 6.40647 27.8776C6.40647 27.8776 11.2793 27.6149 15.3773 21.2598C15.3773 21.2598 17.133 20.1773 17.2222 19.7723L14.2854 19.9699C14.2854 19.9699 14.5093 22.1132 13.2946 23.3993C13.2946 23.3993 14.3746 20.0746 13.8554 19.9797C13.7504 19.96 12.3038 20.1516 12.3038 20.1516C12.3038 20.1516 12.6783 23.8773 10.7185 25.8054C10.7185 25.8054 12.5376 22.0145 11.745 20.2188L9.57905 20.6356C9.57905 20.6356 10.1735 24.5549 8.02942 26.8365C8.02942 26.8365 9.79108 22.8066 9.11139 20.7581L7.03465 21.4534C7.03465 21.4534 7.536 25.2898 5.74263 27.1823C5.74263 27.1823 7.30811 22.3207 6.57095 21.651C6.57095 21.651 4.70426 22.4056 4.30398 22.8363C4.30398 22.8363 4.60122 25.6019 3.45981 26.5896C3.45981 26.5896 4.1613 23.2313 3.81452 23.0931C3.81452 23.0931 1.64464 24.7208 0.984762 26.1254C0.984762 26.1254 1.80912 23.98 3.54105 22.7671C3.54105 22.7671 2.08654 22.5222 0.964946 23.1286C0.964946 23.1286 1.71598 21.7043 4.06618 22.3799C4.06618 22.3799 5.80803 21.1788 6.15679 21.1946C6.15679 21.1946 3.93341 20.2069 2.32632 20.3274C2.32632 20.3274 4.04835 19.3397 6.70174 20.9912L8.77055 20.2445C8.77055 20.2445 5.89918 18.7767 4.45854 18.7826C4.45854 18.7826 6.37279 18.0458 9.30955 20.1002L11.4279 19.6676C11.4279 19.6676 9.04996 18.2157 7.44683 17.8779C7.44683 17.8779 9.37098 17.5756 12.0402 19.5688L13.4908 19.4464C13.4908 19.4464 11.7351 18.4172 11.204 18.1663C10.6729 17.9154 10.6967 17.7514 10.6967 17.7514C11.9607 17.9702 13.1387 18.5352 14.0991 19.3832C14.0991 19.3832 17.0993 19.3259 17.1132 19.1422Z" fill="#6C63FF"/>
</g>
<g opacity="0.1">
<path opacity="0.1" d="M16.5664 8.00848C16.5664 8.00848 11.3072 -4.09513 3.75921 1.4559C3.75921 1.4559 2.16005 1.91816 2.17392 3.56964C2.17392 3.56964 2.79615 3.2832 3.18851 4.57119C3.33521 5.02859 3.53471 5.46744 3.78299 5.87894C4.11138 6.43243 4.61147 6.8644 5.20778 7.10965C5.20778 7.10965 8.25155 9.7212 14.3232 8.2732C14.3232 8.2732 15.9858 8.62878 16.2712 8.43716L14.4144 6.88445C14.4144 6.88445 13.3245 8.28505 11.8621 8.35419C11.8621 8.35419 14.4045 6.99113 14.1488 6.63949C14.0973 6.56838 13.1303 5.86117 13.1303 5.86117C13.1303 5.86117 11.222 8.28702 8.96889 8.32456C8.96889 8.32456 12.2168 7.10373 12.7716 5.58855L11.2478 4.60083C11.2478 4.60083 9.35729 7.26571 6.78317 7.40399C6.78317 7.40399 10.1321 6.02118 10.899 4.40921L9.26812 3.64273C9.26812 3.64273 7.37369 6.21082 5.23156 6.30762C5.23156 6.30762 8.93917 4.30846 8.8817 3.4926C8.8817 3.4926 7.34198 2.8802 6.8545 2.91576C6.8545 2.91576 5.4535 4.7233 4.2031 4.67194C4.2031 4.67194 6.53943 3.0738 6.41062 2.79526C6.41062 2.79526 4.19121 2.53055 2.99629 2.99281C2.99629 2.99281 4.71237 2.18682 6.4344 2.45153C6.4344 2.45153 5.71111 1.47763 4.70246 1.207C4.70246 1.207 5.96277 0.786223 6.9734 2.52265C6.9734 2.52265 8.69345 2.79724 8.89359 3.00268C8.89359 3.00268 8.14057 1.14773 7.11013 0.312113C7.11013 0.312113 8.69543 0.707206 9.32955 3.19035L10.9842 3.92325C10.9842 3.92325 10.1182 1.42034 9.2483 0.608432C9.2483 0.608432 10.8078 1.25638 11.3785 4.1445L12.8826 5.09074C12.8826 5.09074 12.298 2.87823 11.541 1.77593C11.541 1.77593 12.8568 2.68661 13.3047 5.38706L14.236 6.13773C14.236 6.13773 13.7803 4.52971 13.6079 4.07931C13.4355 3.6289 13.5445 3.54593 13.5445 3.54593C14.1693 4.39435 14.5459 5.39889 14.6324 6.44788C14.6324 6.44788 16.4594 8.11121 16.5664 8.00848Z" fill="#6C63FF"/>
</g>
</g>
<defs>
<clipPath id="clip0">
<rect width="218" height="144.599" fill="white"/>
</clipPath>
</defs>
</svg>
