<svg width="40" height="40" viewBox="0 0 40 40" fill="none" xmlns="http://www.w3.org/2000/svg">
<path d="M19.8 0C14.5487 0 9.51251 2.08607 5.79929 5.79929C2.08607 9.51251 0 14.5487 0 19.8C0 25.0513 2.08607 30.0875 5.79929 33.8007C9.51251 37.5139 14.5487 39.6 19.8 39.6C25.0513 39.6 30.0875 37.5139 33.8007 33.8007C37.5139 30.0875 39.6 25.0513 39.6 19.8C39.6 14.5487 37.5139 9.51251 33.8007 5.79929C30.0875 2.08607 25.0513 0 19.8 0V0ZM2.442 21.296H7.964C8.052 23.298 8.3314 25.2868 8.8 27.236H4.048C3.16185 25.3679 2.61791 23.3561 2.442 21.296ZM21.296 9.416V2.618C23.4161 3.42369 25.1582 4.99317 26.18 7.018C26.631 7.7814 27.0292 8.5756 27.368 9.394L21.296 9.416ZM28.38 12.386C28.8904 14.3286 29.194 16.3196 29.282 18.326H21.296V12.386H28.38ZM18.304 2.618V9.416H12.232C12.5714 8.59693 12.9684 7.80294 13.42 7.04C14.4374 5.00688 16.1801 3.42905 18.304 2.618ZM18.304 12.386V18.326H10.34C10.428 16.3196 10.7316 14.3286 11.242 12.386H18.304ZM7.964 18.304H2.442C2.61791 16.2439 3.16185 14.2321 4.048 12.364H8.8C8.3305 14.3124 8.05053 16.3017 7.964 18.304ZM10.34 21.296H18.304V27.236H11.242C10.7317 25.2936 10.4293 23.3024 10.34 21.296ZM18.326 30.096V36.894C16.2059 36.0883 14.4638 34.5188 13.442 32.494C12.9904 31.7311 12.5934 30.9371 12.254 30.118L18.326 30.096ZM21.296 36.894V30.206H27.368C27.0286 31.0251 26.6316 31.8191 26.18 32.582C25.1582 34.6068 23.4161 36.1763 21.296 36.982V36.894ZM21.296 27.126V21.186H29.26C29.1707 23.1924 28.8683 25.1836 28.358 27.126H21.296ZM31.658 21.186H37.18C37.0041 23.2461 36.4601 25.2579 35.574 27.126H30.8C31.262 25.212 31.5414 23.2606 31.636 21.296L31.658 21.186ZM31.658 18.216C31.5573 16.2499 31.27 14.2978 30.8 12.386H35.552C36.4386 14.256 36.982 16.2668 37.158 18.326L31.658 18.216ZM33.858 9.416H29.92C29.2075 7.41466 28.1747 5.5423 26.862 3.872C29.5996 5.10087 31.9776 7.00931 33.77 9.416H33.858ZM12.738 3.872C11.4253 5.5423 10.3925 7.41466 9.68 9.416H5.83C7.62239 7.00931 10.0004 5.10087 12.738 3.872ZM5.808 30.272H9.68C10.3925 32.2733 11.4253 34.1457 12.738 35.816C9.99279 34.5686 7.61408 32.6369 5.83 30.206L5.808 30.272ZM26.84 35.816C28.1527 34.1457 29.1855 32.2733 29.898 30.272H33.77C31.9667 32.6465 29.5896 34.5238 26.862 35.728L26.84 35.816Z" fill="#333333"/>
</svg>
