<svg width="228" height="184" viewBox="0 0 228 184" fill="none" xmlns="http://www.w3.org/2000/svg">
<g clip-path="url(#clip0)">
<path d="M88.6903 182.597L227.536 112.596L170.736 0L26.8584 65.8145L88.6903 182.597Z" fill="#E6EFFF"/>
<path opacity="0.4" d="M186.088 143.076C190.779 143.076 194.583 139.274 194.583 134.583C194.583 129.893 190.779 126.091 186.088 126.091C181.396 126.091 177.593 129.893 177.593 134.583C177.593 139.274 181.396 143.076 186.088 143.076Z" fill="#0564FF"/>
<path opacity="0.4" d="M170.365 144.597C173.657 144.597 176.325 141.93 176.325 138.64C176.325 135.35 173.657 132.683 170.365 132.683C167.074 132.683 164.406 135.35 164.406 138.64C164.406 141.93 167.074 144.597 170.365 144.597Z" fill="#0564FF"/>
<path d="M47.2856 136.451L24.2129 123.134L10.8918 146.2L33.9646 159.517L47.2856 136.451Z" fill="#F2F2F2"/>
<path d="M160.668 86.4259C159.485 86.4259 158.329 86.0753 157.346 85.4183C156.362 84.7613 155.595 83.8275 155.143 82.735C154.69 81.6424 154.572 80.4402 154.802 79.2804C155.033 78.1206 155.603 77.0552 156.439 76.219C157.276 75.3828 158.341 74.8134 159.502 74.5827C160.662 74.352 161.864 74.4704 162.957 74.9229C164.05 75.3754 164.984 76.1418 165.641 77.1251C166.298 78.1083 166.649 79.2643 166.649 80.4469C166.647 82.0321 166.017 83.5518 164.896 84.6727C163.774 85.7936 162.254 86.4242 160.668 86.4259ZM160.668 75.0113C159.593 75.0113 158.542 75.3301 157.648 75.9274C156.754 76.5246 156.057 77.3736 155.645 78.3668C155.234 79.36 155.126 80.4529 155.336 81.5073C155.545 82.5617 156.063 83.5302 156.824 84.2904C157.584 85.0505 158.553 85.5682 159.608 85.778C160.662 85.9877 161.756 85.88 162.749 85.4686C163.743 85.0572 164.592 84.3605 165.189 83.4667C165.787 82.5728 166.106 81.5219 166.106 80.4469C166.104 79.0058 165.531 77.6241 164.511 76.6051C163.492 75.5861 162.11 75.0129 160.668 75.0113Z" fill="#3F3D56"/>
<path d="M58.1772 69.3039C56.9943 69.3039 55.8379 68.9532 54.8544 68.2962C53.8708 67.6392 53.1042 66.7054 52.6516 65.6129C52.1989 64.5204 52.0804 63.3182 52.3112 62.1583C52.542 60.9985 53.1116 59.9331 53.948 59.0969C54.7845 58.2608 55.8502 57.6913 57.0104 57.4606C58.1705 57.2299 59.3731 57.3483 60.4659 57.8008C61.5588 58.2534 62.4929 59.0197 63.1501 60.003C63.8073 60.9862 64.158 62.1422 64.158 63.3248C64.1562 64.91 63.5255 66.4298 62.4043 67.5507C61.2831 68.6716 59.7628 69.3021 58.1772 69.3039ZM58.1772 57.8893C57.1018 57.8893 56.0506 58.208 55.1564 58.8053C54.2623 59.4026 53.5654 60.2515 53.1539 61.2447C52.7424 62.2379 52.6347 63.3308 52.8445 64.3852C53.0543 65.4396 53.5721 66.4081 54.3325 67.1683C55.0929 67.9285 56.0617 68.4462 57.1164 68.6559C58.1711 68.8656 59.2644 68.758 60.2579 68.3466C61.2514 67.9352 62.1006 67.2385 62.698 66.3446C63.2954 65.4507 63.6143 64.3998 63.6143 63.3248C63.6127 61.8837 63.0394 60.5021 62.02 59.4831C61.0007 58.464 59.6187 57.8909 58.1772 57.8893Z" fill="#3F3D56"/>
<path d="M34.5258 164.154C33.3429 164.154 32.1865 163.804 31.203 163.147C30.2194 162.49 29.4529 161.556 29.0002 160.463C28.5475 159.371 28.4291 158.169 28.6598 157.009C28.8906 155.849 29.4602 154.784 30.2967 153.948C31.1331 153.111 32.1988 152.542 33.359 152.311C34.5192 152.08 35.7217 152.199 36.8146 152.651C37.9074 153.104 38.8415 153.87 39.4987 154.854C40.1559 155.837 40.5067 156.993 40.5067 158.175C40.5049 159.761 39.8742 161.28 38.7529 162.401C37.6317 163.522 36.1115 164.153 34.5258 164.154ZM34.5258 152.74C33.4504 152.74 32.3992 153.059 31.5051 153.656C30.6109 154.253 29.914 155.102 29.5025 156.095C29.091 157.089 28.9833 158.181 29.1931 159.236C29.4029 160.29 29.9207 161.259 30.6811 162.019C31.4415 162.779 32.4103 163.297 33.4651 163.506C34.5198 163.716 35.613 163.609 36.6065 163.197C37.6 162.786 38.4492 162.089 39.0466 161.195C39.6441 160.301 39.963 159.25 39.963 158.175C39.9614 156.734 39.388 155.353 38.3687 154.334C37.3494 153.315 35.9673 152.741 34.5258 152.74Z" fill="#3F3D56"/>
<path d="M89.5248 66.901C92.92 63.0899 93.8089 58.3415 91.5104 56.295C89.2119 54.2486 84.5963 55.6791 81.2011 59.4901C77.806 63.3012 76.917 68.0496 79.2156 70.096C81.5141 72.1425 86.1297 70.712 89.5248 66.901Z" fill="#2F2E41"/>
<path d="M102.898 104.505C116.261 104.505 127.094 93.6758 127.094 80.317C127.094 66.9583 116.261 56.1289 102.898 56.1289C89.5358 56.1289 78.7031 66.9583 78.7031 80.317C78.7031 93.6758 89.5358 104.505 102.898 104.505Z" fill="#2F2E41"/>
<path d="M32.1911 69.6569L9.7018 71.4964C8.81674 71.5688 7.98675 71.9552 7.36176 72.5859C6.73676 73.2165 6.35797 74.0498 6.29379 74.9352L5.45407 86.5199C5.41711 87.0298 5.48566 87.5418 5.65543 88.024C5.8252 88.5061 6.09255 88.9482 6.44081 89.3225C6.78907 89.6968 7.21075 89.9953 7.67955 90.1994C8.14835 90.4035 8.6542 90.5089 9.16554 90.5089H19.3015V91.0525H23.3794V90.5089H25.5543V91.0525H29.6321V90.5089H31.8059C32.7598 90.5089 33.6773 90.1427 34.3689 89.4858C35.0605 88.829 35.4734 87.9317 35.5222 86.9793L36.2108 73.5551C36.238 73.0257 36.1516 72.4965 35.9576 72.0032C35.7635 71.5098 35.4662 71.0636 35.0855 70.6944C34.7049 70.3253 34.2497 70.0418 33.7505 69.8628C33.2513 69.6839 32.7196 69.6137 32.1911 69.6569Z" fill="#2F2E41"/>
<path d="M46.4881 106.272L14.6807 91.3242L8.97168 100.293C8.97168 100.293 25.5109 110.848 26.3706 111.707C27.594 112.93 40.7791 121.491 45.9444 120.133C51.1097 118.774 48.663 107.631 46.4881 106.272Z" fill="#9F616A"/>
<path d="M68.2361 174.759L64.1582 184H106.372L103.306 174.216L68.2361 174.759Z" fill="#2F2E41"/>
<path d="M94.0628 99.749C94.0628 99.749 95.6939 108.718 94.0628 109.805C92.4316 110.892 104.937 124.209 104.937 124.209L110.102 119.589L111.734 108.989C111.734 108.989 106.84 102.195 109.015 96.2159C111.19 90.2368 94.0628 99.749 94.0628 99.749Z" fill="#9F616A"/>
<path d="M98.9565 102.467C108.566 102.467 116.355 94.6797 116.355 85.0734C116.355 75.4671 108.566 67.6797 98.9565 67.6797C89.3474 67.6797 81.5576 75.4671 81.5576 85.0734C81.5576 94.6797 89.3474 102.467 98.9565 102.467Z" fill="#9F616A"/>
<path d="M103.578 117.958C103.578 117.958 96.7813 107.63 92.9753 106.815C89.1693 106 85.6351 106.543 83.4603 106.815C81.2854 107.087 73.9452 104.369 69.5955 106.272C65.2458 108.174 69.5955 130.46 69.5955 130.46C69.5955 130.46 64.7021 158.996 66.8769 166.334C69.0518 173.672 67.4206 175.031 66.3332 175.846C65.2458 176.662 91.0723 184 91.0723 184H115.54C115.54 184 115.54 176.118 117.986 174.216C120.433 172.313 120.161 132.09 120.161 132.09L128.317 116.327C128.317 116.327 126.958 110.348 121.249 110.076C115.54 109.805 110.444 106.808 110.444 106.808L106.568 117.958H103.578Z" fill="#0564FF"/>
<path d="M72.0423 107.631L69.5956 106.272C69.5956 106.272 64.974 106.544 64.1584 106.272C63.3428 106 53.0122 102.739 48.9344 104.642C44.8565 106.544 42.1379 104.098 42.1379 104.098C42.1379 104.098 55.4589 115.513 39.1475 119.046C39.1475 119.046 39.4193 120.405 43.4972 121.22C47.5751 122.035 48.3906 122.851 50.0218 124.21C51.6529 125.568 54.9152 126.927 57.0901 127.471C59.265 128.014 66.3333 132.635 67.4207 131.548C68.5081 130.46 70.4111 126.656 70.4111 126.656L72.0423 107.631Z" fill="#0564FF"/>
<path d="M123.151 113.338L128.317 116.327C128.317 116.327 135.113 136.439 134.026 141.331C132.938 146.223 131.851 145.408 133.482 148.669C135.113 151.93 136.744 152.202 135.657 155.191C134.569 158.181 135.113 165.519 133.482 168.509C131.851 171.498 123.967 181.01 117.17 164.975C110.374 148.941 123.151 113.338 123.151 113.338Z" fill="#0564FF"/>
<path d="M132.939 154.92C132.939 154.92 129.133 147.31 128.317 146.767C127.501 146.223 123.695 127.471 123.695 127.471C123.695 127.471 129.676 117.687 124.239 113.338C124.239 113.338 134.298 99.2059 131.036 99.4777C127.773 99.7495 121.249 110.077 121.249 110.077C121.249 110.077 119.754 109.669 120.297 107.495C120.841 105.321 122.88 97.5753 121.249 97.3035C119.618 97.0317 116.355 108.718 116.355 108.718C116.355 108.718 109.695 120.812 111.734 125.025C112.92 127.389 114.283 129.66 115.812 131.819L120.433 165.519C120.433 165.519 129.404 176.39 132.939 154.92Z" fill="#9F616A"/>
<path d="M30.4485 74.7461C32.1 74.7461 33.4389 74.1377 33.4389 73.3872C33.4389 72.6367 32.1 72.0283 30.4485 72.0283C28.7969 72.0283 27.458 72.6367 27.458 73.3872C27.458 74.1377 28.7969 74.7461 30.4485 74.7461Z" fill="#0564FF"/>
<path d="M12.2336 100.293H8.4276C8.4276 100.293 0 97.5751 0 91.3242C0 85.0734 2.44672 72.2999 10.0587 72.5717C17.6708 72.8434 10.6025 89.6936 10.6025 89.6936L15.2105 91.5734L15.2241 97.3033L12.2336 100.293Z" fill="#9F616A"/>
<path d="M96.1014 81.4046C104.66 81.4046 111.597 77.876 111.597 73.5231C111.597 69.1703 104.66 65.6416 96.1014 65.6416C87.5432 65.6416 80.6055 69.1703 80.6055 73.5231C80.6055 77.876 87.5432 81.4046 96.1014 81.4046Z" fill="#2F2E41"/>
<path d="M117.035 86.2965C117.786 86.2965 118.394 84.958 118.394 83.3069C118.394 81.6558 117.786 80.3174 117.035 80.3174C116.284 80.3174 115.676 81.6558 115.676 83.3069C115.676 84.958 116.284 86.2965 117.035 86.2965Z" fill="#9F616A"/>
<path d="M129.093 75.8555C131.861 74.5114 132.298 69.7003 130.068 65.1096C127.838 60.5189 123.786 57.8871 121.017 59.2313C118.248 60.5754 117.812 65.3865 120.042 69.9772C122.272 74.5678 126.324 77.1996 129.093 75.8555Z" fill="#2F2E41"/>
</g>
<defs>
<clipPath id="clip0">
<rect width="227.536" height="184" fill="white"/>
</clipPath>
</defs>
</svg>
