<svg width="232" height="210" viewBox="0 0 232 210" fill="none" xmlns="http://www.w3.org/2000/svg">
<g clip-path="url(#clip0)">
<path d="M145.106 92.1541C145.071 92.1541 145.036 92.1478 145.004 92.1355H145.004C144.931 92.1083 144.873 92.0538 144.841 91.984C144.809 91.9141 144.807 91.8347 144.834 91.763L146.738 86.762C146.765 86.6903 146.82 86.6323 146.89 86.6008C146.96 86.5693 147.041 86.5668 147.113 86.5939C147.185 86.6209 147.243 86.6754 147.275 86.7453C147.307 86.8151 147.309 86.8946 147.282 86.9663L145.379 91.9673C145.358 92.0222 145.32 92.0695 145.272 92.1028C145.223 92.1362 145.165 92.1541 145.106 92.1541Z" fill="white"/>
<path d="M156.537 93.9162C156.46 93.9161 156.386 93.8857 156.331 93.8315C156.277 93.7773 156.246 93.7039 156.246 93.6272V88.2812C156.246 88.2045 156.277 88.131 156.331 88.0768C156.386 88.0226 156.46 87.9922 156.537 87.9922C156.614 87.9922 156.688 88.0226 156.743 88.0768C156.798 88.131 156.828 88.2045 156.828 88.2812V93.6272C156.828 93.7039 156.797 93.7773 156.743 93.8315C156.688 93.8857 156.614 93.9161 156.537 93.9162Z" fill="white"/>
<path d="M146.059 87.5592C145.981 87.5591 145.907 87.5286 145.853 87.4744C145.798 87.4203 145.768 87.3468 145.768 87.2702V73.2548C145.768 73.1782 145.798 73.1046 145.853 73.0505C145.907 72.9963 145.981 72.9658 146.059 72.9658C146.136 72.9658 146.21 72.9963 146.264 73.0505C146.319 73.1046 146.35 73.1782 146.35 73.2548V87.2702C146.35 87.3468 146.319 87.4203 146.264 87.4744C146.21 87.5286 146.136 87.5591 146.059 87.5592Z" fill="white"/>
<path d="M74.4151 0.726562C60.8924 0.726562 49.8926 11.6471 49.8926 25.0724C49.8887 28.5089 50.6217 31.9069 52.0427 35.0406C55.8859 43.509 64.4668 49.4182 74.4151 49.4182C80.9177 49.4147 87.153 46.8485 91.7511 42.2836C96.3492 37.7186 98.9339 31.5282 98.9375 25.0724C98.9375 11.6471 87.9358 0.726562 74.4151 0.726562ZM94.704 34.8594C92.8522 38.6378 89.9682 41.8235 86.3809 44.0532C82.7937 46.283 78.6474 47.4671 74.4151 47.4706C64.8552 47.4706 56.6647 41.536 53.3866 33.1825C52.3706 30.5977 51.8509 27.847 51.8544 25.0724C51.8544 12.7222 61.9753 2.67423 74.4151 2.67423C86.8548 2.67423 96.9757 12.7222 96.9757 25.0724C96.98 28.464 96.2029 31.8117 94.704 34.8594Z" fill="#E6E6E6"/>
<path d="M74.4147 49.4905C69.7696 49.4868 65.2204 48.1788 61.2923 45.7176C57.3641 43.2564 54.2172 39.7424 52.215 35.5812C52.1351 35.4153 52.1004 35.2315 52.1144 35.0481C52.1283 34.8647 52.1905 34.6882 52.2947 34.5361L52.3078 34.517C52.4119 34.3674 52.5537 34.2475 52.7191 34.1696C52.8845 34.0916 53.0677 34.0581 53.2502 34.0726C53.4327 34.0871 53.6082 34.149 53.759 34.2521C53.9098 34.3552 54.0307 34.4959 54.1094 34.66C57.8298 42.3983 65.8001 47.3984 74.4146 47.3984C78.3514 47.3885 82.2171 46.3568 85.6282 44.4059C89.0394 42.4549 91.8775 39.6523 93.861 36.2763C93.9532 36.1177 94.0861 35.9862 94.2461 35.8952C94.4061 35.8041 94.5875 35.7568 94.7719 35.7579C94.9544 35.7574 95.1337 35.8053 95.2913 35.8965C95.449 35.9877 95.5793 36.1191 95.6688 36.2769L95.6802 36.2969C95.771 36.4562 95.8182 36.6363 95.8172 36.8194C95.8163 37.0024 95.7671 37.182 95.6747 37.3403C93.5047 41.0292 90.4013 44.091 86.6721 46.2223C82.943 48.3535 78.7175 49.4801 74.4147 49.4905Z" fill="#0564FF"/>
<path d="M68.8879 27.2988C69.5544 27.2945 70.2018 27.5201 70.7195 27.9369C71.2372 28.3537 71.5931 28.936 71.7265 29.5844C71.8599 30.2327 71.7625 30.907 71.4509 31.492C71.1393 32.077 70.6329 32.5365 70.018 32.792C69.4032 33.0476 68.718 33.0834 68.0796 32.8932C67.4411 32.7031 66.889 32.2989 66.5173 31.7495C66.1456 31.2002 65.9775 30.5398 66.0417 29.8812C66.1059 29.2225 66.3983 28.6063 66.8691 28.1379C67.133 27.8724 67.4473 27.6616 67.7938 27.5176C68.1403 27.3735 68.5122 27.2992 68.8879 27.2988ZM68.8879 26.0815C68.0794 26.0811 67.2889 26.3187 66.6164 26.7643C65.9439 27.2099 65.4197 27.8434 65.1099 28.5848C64.8001 29.3262 64.7187 30.1422 64.876 30.9295C65.0333 31.7168 65.4222 32.4402 65.9936 33.0081C66.565 33.5759 67.2931 33.9628 68.086 34.1199C68.8789 34.2769 69.7009 34.1969 70.448 33.8902C71.1951 33.5834 71.8338 33.0636 72.2833 32.3964C72.7329 31.7293 72.973 30.9447 72.9735 30.1421C72.974 29.0657 72.5439 28.0332 71.7777 27.2717C71.0115 26.5102 69.972 26.0821 68.8878 26.0815H68.8879ZM77.405 20.2777C77.7748 20.2795 78.1302 20.1355 78.393 19.8772C78.6558 19.6189 78.8044 19.2676 78.8063 18.9005C78.8064 18.8958 78.8064 18.8911 78.8063 18.8865C78.8081 18.7066 78.7741 18.5282 78.7064 18.3614C78.6386 18.1946 78.5385 18.0427 78.4116 17.9143C78.2848 17.7859 78.1337 17.6836 77.967 17.6132C77.8003 17.5428 77.6212 17.5057 77.4401 17.504C77.4313 17.5039 77.4226 17.5039 77.4138 17.504C77.0433 17.5005 76.6866 17.6433 76.4222 17.9009C76.1578 18.1585 76.0072 18.5099 76.0037 18.8777C76.0003 19.2455 76.1441 19.5996 76.4036 19.8622C76.6631 20.1247 77.017 20.2741 77.3875 20.2776C77.3933 20.2777 77.3992 20.2777 77.405 20.2777ZM80.3346 27.2988C81.0011 27.2945 81.6485 27.52 82.1662 27.9369C82.6839 28.3537 83.0399 28.936 83.1733 29.5844C83.3067 30.2327 83.2092 30.907 82.8977 31.492C82.5861 32.077 82.0796 32.5365 81.4648 32.792C80.8499 33.0476 80.1648 33.0834 79.5263 32.8932C78.8879 32.7031 78.3357 32.2989 77.964 31.7495C77.5924 31.2002 77.4243 30.5398 77.4884 29.8812C77.5526 29.2225 77.8451 28.6063 78.3159 28.1379C78.5797 27.8724 78.894 27.6616 79.2406 27.5176C79.5871 27.3735 79.9589 27.2992 80.3346 27.2988ZM80.3346 26.0815C79.5265 26.0815 78.7366 26.3194 78.0648 26.7651C77.3929 27.2108 76.8692 27.8443 76.56 28.5855C76.2507 29.3267 76.1698 30.1422 76.3275 30.929C76.4851 31.7159 76.8742 32.4386 77.4456 33.0059C78.017 33.5732 78.745 33.9595 79.5375 34.116C80.3301 34.2725 81.1516 34.1922 81.8981 33.8852C82.6446 33.5782 83.2827 33.0583 83.7317 32.3912C84.1806 31.7242 84.4202 30.94 84.4202 30.1377C84.4202 29.6051 84.3145 29.0776 84.1092 28.5855C83.9039 28.0934 83.603 27.6462 83.2236 27.2696C82.8442 26.8929 82.3938 26.5941 81.8981 26.3903C81.4024 26.1864 80.8711 26.0815 80.3346 26.0815Z" fill="#E6E6E6"/>
<path d="M79.5156 23.0687H77.4137L76.1218 20.4559C76.0176 20.2727 75.872 20.116 75.6964 19.9981C75.5208 19.8802 75.3201 19.8044 75.11 19.7766C74.8999 19.7488 74.6862 19.7697 74.4856 19.8378C74.2851 19.9059 74.1032 20.0193 73.9542 20.169L70.8145 23.1731C70.5575 23.4335 70.4116 23.7823 70.4072 24.1469C70.4072 24.9034 70.959 25.1729 71.2173 25.3251C73.2098 26.4641 73.9104 26.5902 73.9104 27.1597V30.0247C73.9104 30.2092 73.9843 30.3861 74.1156 30.5166C74.247 30.647 74.4253 30.7203 74.6111 30.7203C74.7969 30.7203 74.9751 30.647 75.1065 30.5166C75.2379 30.3861 75.3117 30.2092 75.3117 30.0247V26.112C75.3117 25.5381 73.9805 25.0686 73.1967 24.4599L75.338 22.221C76.1569 23.46 76.5335 24.4599 77.002 24.4599H79.5156C79.7014 24.4602 79.8797 24.3872 80.0113 24.257C80.1429 24.1268 80.217 23.9499 80.2173 23.7655C80.2176 23.581 80.1441 23.4039 80.0129 23.2733C79.8817 23.1426 79.7037 23.069 79.5178 23.0687H79.5156V23.0687Z" fill="#E6E6E6"/>
<path d="M54.69 62.5469C54.0865 62.5469 53.5868 64.2915 53.4899 66.579H41.8785C41.7817 64.2915 41.2819 62.5469 40.6784 62.5469C40.0055 62.5469 39.46 64.7132 39.46 67.3854C39.46 70.0576 40.0055 72.2239 40.6784 72.2239C41.2819 72.2239 41.7817 70.4793 41.8785 68.1918H53.4899C53.5868 70.4793 54.0865 72.2239 54.69 72.2239C55.3629 72.2239 55.9084 70.0576 55.9084 67.3854C55.9084 64.7132 55.3629 62.5469 54.69 62.5469Z" fill="#E6E6E6"/>
<path d="M60.3465 60.2416C58.6255 57.1793 55.8392 54.8448 52.5092 53.6751C49.1793 52.5055 45.5342 52.581 42.2563 53.8875C38.9784 55.1939 36.2926 57.6418 34.7017 60.7727C33.1108 63.9036 32.724 67.5029 33.6137 70.8966C34.5033 74.2903 36.6085 77.2456 39.5349 79.2093C42.4614 81.173 46.0084 82.0104 49.512 81.5646C53.0155 81.1188 56.2352 79.4204 58.5683 76.7875C60.9013 74.1546 62.1877 70.7678 62.1866 67.261C62.1859 64.8038 61.5524 62.3875 60.3465 60.2416ZM47.6615 80.5266C44.141 80.5087 40.7714 79.1054 38.2916 76.6245C35.8118 74.1436 34.4244 70.7875 34.4335 67.2924C34.4426 63.7972 35.8475 60.4483 38.3402 57.9802C40.8329 55.512 44.2098 54.1261 47.7303 54.1263C51.2508 54.1265 54.6275 55.5129 57.1199 57.9814C59.6122 60.4499 61.0167 63.7989 61.0254 67.2941C61.034 70.7892 59.6461 74.1451 57.166 76.6257C54.6859 79.1063 51.3161 80.5092 47.7956 80.5266C47.7509 80.5268 47.7062 80.5268 47.6615 80.5266Z" fill="#E6E6E6"/>
<path d="M47.6686 81.7541C44.901 81.7554 42.1902 80.9739 39.8537 79.5012C39.737 79.4274 39.647 79.3186 39.5965 79.1907L39.5892 79.1719C39.5385 79.0451 39.5302 78.9055 39.5654 78.7737C39.6007 78.6419 39.6777 78.5248 39.7851 78.4397C39.8889 78.3531 40.0181 78.3019 40.1534 78.2936C40.2888 78.2854 40.4233 78.3206 40.537 78.3941C43.0204 79.9635 45.9587 80.6694 48.8902 80.4008C51.8217 80.1323 54.5802 78.9045 56.7325 76.9103C58.8847 74.9162 60.3087 72.2687 60.7808 69.3838C61.2528 66.4989 60.7462 63.5401 59.3404 60.9721C59.2745 60.8544 59.2485 60.7188 59.2661 60.5852C59.2837 60.4517 59.3441 60.3273 59.4383 60.2304C59.5314 60.1298 59.6545 60.0617 59.7896 60.0359C59.9246 60.0101 60.0644 60.0281 60.1884 60.0871L60.2066 60.0956C60.331 60.1534 60.4337 60.249 60.4999 60.3684C61.7031 62.5746 62.3087 65.0533 62.2573 67.5616C62.2058 70.07 61.4991 72.5221 60.2064 74.6778C58.9136 76.8336 57.0791 78.6191 54.8825 79.8595C52.6859 81.0999 50.2025 81.7528 47.6754 81.7541H47.6686Z" fill="#0564FF"/>
<path d="M101.161 52.8428C99.2537 52.8419 97.3644 53.2142 95.6016 53.9384C93.8387 54.6626 92.2368 55.7244 90.8874 57.0633C89.538 58.4022 88.4674 59.9918 87.7369 61.7415C87.0064 63.4912 86.6302 65.3666 86.6299 67.2607C86.6295 69.1547 87.005 71.0303 87.7349 72.7802C88.4648 74.5302 89.5347 76.1202 90.8837 77.4596C92.2326 78.799 93.8341 79.8614 95.5967 80.5862C97.3593 81.311 99.2484 81.684 101.156 81.6838H101.161C101.256 81.6838 101.348 81.6838 101.442 81.6799C105.269 81.6068 108.913 80.0365 111.58 77.3107C114.248 74.5848 115.723 70.9237 115.686 67.1234C115.649 63.3232 114.103 59.691 111.383 57.0168C108.663 54.3426 104.989 52.8425 101.161 52.8428V52.8428ZM104.122 80.1997C102.288 80.613 100.388 80.6376 98.5441 80.2719C96.7005 79.9061 94.9553 79.1583 93.4227 78.0772C91.8901 76.996 90.6045 75.606 89.65 73.9979C88.6955 72.3898 88.0935 70.5999 87.8834 68.745C87.6733 66.8902 87.8598 65.0122 88.4307 63.2338C89.0016 61.4554 89.9441 59.8166 91.1966 58.4245C92.4491 57.0325 93.9833 55.9185 95.6991 55.1553C97.4148 54.3922 99.2735 53.997 101.154 53.9958H101.161C104.448 53.9956 107.619 55.1976 110.069 57.3722C112.519 59.5468 114.076 62.5414 114.442 65.7837C114.808 69.0261 113.958 72.2887 112.054 74.9481C110.151 77.6075 107.327 79.4771 104.122 80.1997Z" fill="#E6E6E6"/>
<path d="M101.161 81.756C97.5589 81.756 94.0836 80.4335 91.4041 78.0428C88.7245 75.6522 87.03 72.3623 86.6465 68.8061C86.2629 65.2498 87.2175 61.6783 89.3265 58.7787C91.4355 55.879 94.5499 53.856 98.0708 53.0987C98.1574 53.0803 98.2469 53.0791 98.3339 53.0953L98.3642 53.101C98.5103 53.1292 98.6421 53.2064 98.7375 53.3199C98.8328 53.4333 98.8858 53.5759 98.8876 53.7236C98.8893 53.8713 98.8396 54.0151 98.747 54.1307C98.6543 54.2463 98.5244 54.3266 98.379 54.3581C95.1695 55.0412 92.3281 56.8792 90.4021 59.5181C88.4761 62.157 87.6018 65.4101 87.9476 68.6507C88.2933 71.8914 89.8347 74.8905 92.2748 77.0702C94.7148 79.25 97.881 80.4562 101.163 80.4566C101.292 80.4554 101.417 80.4549 101.543 80.4512C101.685 80.4454 101.824 80.4891 101.936 80.5748C102.048 80.6604 102.126 80.7825 102.156 80.9197C102.19 81.0521 102.175 81.1921 102.115 81.3148C102.054 81.4374 101.952 81.5349 101.826 81.5898V81.5899C101.74 81.6288 101.654 81.667 101.568 81.7045C101.495 81.7364 101.417 81.7536 101.338 81.7551C101.279 81.756 101.221 81.756 101.161 81.756Z" fill="#0564FF"/>
<path d="M108.327 66.6506C107.94 66.6314 107.557 66.7383 107.237 66.9552C106.917 67.172 106.678 67.4869 106.555 67.8517H105.124L104.08 64.7339C104.041 64.6171 103.966 64.5154 103.866 64.4433C103.766 64.3712 103.645 64.3324 103.521 64.3324H103.51C103.384 64.3343 103.263 64.3766 103.163 64.4529C103.064 64.5293 102.992 64.6356 102.958 64.7559L101.322 70.4255L99.3987 58.9584C99.3764 58.8257 99.3088 58.7046 99.2072 58.6155C99.1056 58.5265 98.9762 58.4748 98.8408 58.4693C98.7054 58.4637 98.5722 58.5045 98.4635 58.585C98.3548 58.6654 98.2774 58.7805 98.2441 58.911L96.2951 67.8517H94.1108C93.9548 67.8517 93.8051 67.9132 93.6948 68.0228C93.5844 68.1323 93.5225 68.2809 93.5225 68.4358C93.5225 68.5907 93.5844 68.7393 93.6948 68.8489C93.8051 68.9584 93.9548 69.02 94.1108 69.02H96.7585C96.8895 69.0201 97.0169 68.9767 97.1202 68.8967C97.2235 68.8166 97.2968 68.7045 97.3284 68.5782L98.7037 61.9265L100.59 73.1672C100.612 73.2982 100.678 73.4178 100.778 73.5062C100.877 73.5946 101.005 73.6463 101.138 73.6528H101.171C101.299 73.6526 101.423 73.6112 101.526 73.5349C101.628 73.4585 101.702 73.3513 101.737 73.2293L103.565 66.8915L104.142 68.6184C104.182 68.7348 104.257 68.8361 104.357 68.9081C104.457 68.9801 104.578 69.0192 104.701 69.02H106.58C106.693 69.3153 106.883 69.5751 107.132 69.7718C107.381 69.9685 107.679 70.0949 107.994 70.1375C108.309 70.1801 108.63 70.1374 108.922 70.0139C109.215 69.8905 109.469 69.6908 109.657 69.436C109.845 69.1812 109.96 68.8807 109.99 68.5664C110.02 68.2521 109.964 67.9355 109.827 67.6502C109.691 67.3649 109.48 67.1214 109.216 66.9454C108.952 66.7695 108.645 66.6676 108.327 66.6506H108.327Z" fill="#E6E6E6"/>
</g>
<g clip-path="url(#clip1)">
<path opacity="0.1" d="M4.4926 106.798C2.74578 112.07 7.88162 116.811 11.9212 120.63C17.4504 125.868 21.8132 132.207 24.7266 139.235C26.4826 143.482 27.704 148.051 27.3764 152.633C26.4484 165.631 14.1706 174.29 4.36068 182.9C2.97096 184.131 1.58123 185.419 0.771505 187.079C-1.82826 192.405 2.59111 198.544 7.45856 201.94C24.7926 214.031 49.8122 210.434 66.6254 197.634C75.3322 191.004 82.8153 181.988 93.3668 179.041C100.113 177.165 107.273 178.054 114.254 178.633C124.72 179.497 135.235 179.621 145.719 179.004C149.399 178.778 153.248 178.424 156.33 176.408C164.134 171.311 162.817 159.225 168.448 151.81C172.497 146.482 179.414 144.427 185.434 141.482C194.701 136.923 202.434 129.77 207.686 120.897C212.519 112.696 215.023 103.372 217.466 94.1793C219.309 87.2725 221.158 80.0391 219.598 73.062C218.037 66.0849 211.878 59.5704 204.736 60.1826C199.252 60.652 194.89 64.9716 189.608 66.518C176.957 70.2322 164.675 57.3323 151.551 58.5772C143.288 59.3595 136.623 65.6065 131.585 72.1822C126.547 78.758 122.283 86.1614 115.63 91.1136C105.281 98.8231 91.1014 99.0952 78.4324 96.5987C65.7633 94.1022 53.6084 89.1885 40.7983 87.5514C33.2515 86.5877 27.4674 91.0705 20.6712 93.5353C14.4345 95.7983 6.8035 99.8254 4.4926 106.798Z" fill="#0564FF"/>
<path opacity="0.1" d="M31.3768 210.001C40.5142 210.001 47.9216 207.757 47.9216 204.99C47.9216 202.222 40.5142 199.979 31.3768 199.979C22.2394 199.979 14.832 202.222 14.832 204.99C14.832 207.757 22.2394 210.001 31.3768 210.001Z" fill="#0564FF"/>
<path opacity="0.1" d="M187.813 143.818C212.217 143.818 232 142.51 232 140.895C232 139.281 212.217 137.973 187.813 137.973C163.409 137.973 143.626 139.281 143.626 140.895C143.626 142.51 163.409 143.818 187.813 143.818Z" fill="#0564FF"/>
<g opacity="0.5">
<path opacity="0.5" d="M161.099 74C161.712 74 162.3 74.2427 162.733 74.6748C163.166 75.1068 163.41 75.6928 163.41 76.3038V140.361H158.788V76.3015C158.789 75.6909 159.032 75.1055 159.466 74.674C159.899 74.2424 160.486 74 161.099 74Z" fill="#0564FF"/>
<path opacity="0.5" d="M211.805 74C212.418 74 213.005 74.2427 213.439 74.6748C213.872 75.1068 214.116 75.6928 214.116 76.3038V140.361H209.482V76.3015C209.483 75.9982 209.543 75.698 209.66 75.418C209.777 75.138 209.948 74.8838 210.164 74.67C210.38 74.4561 210.636 74.2869 210.917 74.1719C211.199 74.0569 211.5 73.9985 211.805 74Z" fill="#0564FF"/>
<path opacity="0.5" d="M225.293 88.3195C226.569 88.3195 227.604 87.288 227.604 86.0157C227.604 84.7433 226.569 83.7119 225.293 83.7119H147.614C146.337 83.7119 145.303 84.7433 145.303 86.0157C145.303 87.288 146.337 88.3195 147.614 88.3195H225.293Z" fill="#0564FF"/>
<path opacity="0.5" d="M157.414 79.1653C157.414 78.1684 156.603 77.3604 155.603 77.3604C154.604 77.3604 153.793 78.1684 153.793 79.1653V92.861C153.793 93.8579 154.604 94.666 155.603 94.666C156.603 94.666 157.414 93.8579 157.414 92.861V79.1653Z" fill="#0564FF"/>
<path opacity="0.5" d="M153.794 80.7844C153.794 79.7876 152.983 78.9795 151.983 78.9795C150.983 78.9795 150.173 79.7876 150.173 80.7844V91.2444C150.173 92.2413 150.983 93.0494 151.983 93.0494C152.983 93.0494 153.794 92.2413 153.794 91.2444V80.7844Z" fill="#0564FF"/>
<path opacity="0.5" d="M215.489 92.8611C215.489 93.8579 216.3 94.666 217.3 94.666C218.3 94.666 219.11 93.8579 219.11 92.8611V79.1653C219.11 78.1685 218.3 77.3604 217.3 77.3604C216.3 77.3604 215.489 78.1685 215.489 79.1653V92.8611Z" fill="#0564FF"/>
<path opacity="0.5" d="M219.11 91.2419C219.11 92.2388 219.921 93.0469 220.921 93.0469C221.921 93.0469 222.731 92.2388 222.731 91.2419V80.7819C222.731 79.7851 221.921 78.977 220.921 78.977C219.921 78.977 219.11 79.7851 219.11 80.7819V91.2419Z" fill="#0564FF"/>
</g>
<g opacity="0.5">
<path opacity="0.5" d="M181.84 100.811H191.288C192.314 100.811 193.297 101.217 194.022 101.94C194.748 102.662 195.155 103.643 195.155 104.665V120.846H177.982V104.665C177.982 103.645 178.389 102.665 179.112 101.943C179.835 101.22 180.816 100.813 181.84 100.811Z" fill="#0564FF"/>
<path opacity="0.5" d="M187.813 119.393H185.3V127.744H187.813V119.393Z" fill="#0564FF"/>
<path opacity="0.5" d="M182.787 128.787H180.273V137.138H182.787V128.787Z" fill="#0564FF"/>
<path opacity="0.5" d="M193.258 128.787H190.745V137.138H193.258V128.787Z" fill="#0564FF"/>
<path opacity="0.5" d="M195.144 127.116H177.972V129.413H195.144V127.116Z" fill="#0564FF"/>
</g>
<path opacity="0.1" d="M107.605 196.43C159.651 196.43 201.842 193.346 201.842 189.541C201.842 185.737 159.651 182.652 107.605 182.652C55.5588 182.652 13.3672 185.737 13.3672 189.541C13.3672 193.346 55.5588 196.43 107.605 196.43Z" fill="#0564FF"/>
<path d="M132.004 165.008C132.004 165.008 138.495 167.931 141.636 167.931C141.636 167.931 144.987 168.766 146.868 169.602C148.749 170.439 156.082 170.854 156.082 170.854C156.082 170.854 164.668 173.985 165.714 175.448C166.761 176.91 169.902 170.233 169.902 170.233L168.225 166.058L136.61 160.004L132.004 165.008Z" fill="#FFB9B9"/>
<path opacity="0.05" d="M132.004 165.008C132.004 165.008 138.495 167.931 141.636 167.931C141.636 167.931 144.987 168.766 146.868 169.602C148.749 170.439 156.082 170.854 156.082 170.854C156.082 170.854 164.668 173.985 165.714 175.448C166.761 176.91 169.902 170.233 169.902 170.233L168.225 166.058L136.61 160.004L132.004 165.008Z" fill="black"/>
<path d="M164.045 174.196C164.045 174.196 168.023 179.412 166.349 182.547C164.675 185.683 165.303 185.679 166.349 185.888C167.395 186.096 173.259 187.35 173.889 182.756C174.519 178.162 175.775 167.933 175.775 167.933L167.177 167.097C167.177 167.097 169.49 174.822 164.045 174.196Z" fill="#737A9D"/>
<path d="M114.622 158.12L132.632 166.472C132.632 166.472 138.286 162.086 137.863 159.791L116.922 154.78L114.622 158.12Z" fill="#4C4C78"/>
<path opacity="0.1" d="M114.622 158.12L132.632 166.472C132.632 166.472 138.286 162.086 137.863 159.791L116.922 154.78L114.622 158.12Z" fill="black"/>
<path d="M190.222 168.976L188.329 173.568L183.94 174.606C182.71 173.583 181.394 172.667 180.007 171.867C177.644 170.507 174.535 169.176 171.591 169.387C171.591 169.387 159.864 167.507 159.236 166.666C159.236 166.666 151.696 164.995 150.022 165.203C149.215 165.303 147.479 164.725 145.901 164.097C144.206 163.416 142.691 162.698 142.691 162.698L148.137 154.138C148.772 154.41 149.425 154.638 150.093 154.818C152.174 155.426 155.92 156.215 161.331 156.215C170.127 156.215 182.272 165.192 182.272 165.192C182.272 165.192 182.393 165.233 182.6 165.294C183.51 165.568 186.103 166.214 187.299 165.192C188.755 163.965 190.222 168.976 190.222 168.976Z" fill="#FFB9B9"/>
<path opacity="0.1" d="M190.222 168.976L188.329 173.568L183.939 174.607C182.709 173.583 181.394 172.667 180.007 171.868C186.394 172.346 182.579 165.317 182.579 165.317H182.593C183.503 165.591 186.096 166.237 187.292 165.215C188.755 163.965 190.222 168.976 190.222 168.976Z" fill="black"/>
<path d="M180.032 172.045C180.032 172.045 185.098 179.126 182.966 183.115C180.835 187.103 181.633 187.101 182.966 187.369C184.299 187.636 191.766 189.23 192.565 183.382C193.179 178.886 192.64 170.256 192.358 166.51C192.34 166.273 192.275 166.043 192.167 165.832C192.058 165.621 191.909 165.433 191.728 165.28C191.546 165.127 191.336 165.011 191.109 164.939C190.882 164.868 190.643 164.842 190.406 164.864L182.998 165.544C182.998 165.544 186.965 172.843 180.032 172.045Z" fill="#737A9D"/>
<path d="M59.7539 178.997L59.9632 189.228L62.2672 190.896H70.2258L71.6905 188.81V178.997L69.3865 176.908H61.8487L59.7539 178.997Z" fill="#0564FF"/>
<path opacity="0.2" d="M61.0094 179.205C61.0094 179.205 62.4765 188.599 61.0094 189.436L59.9632 189.227L59.7539 179.207L61.0094 179.205Z" fill="white"/>
<path d="M78.1813 178.371L79.8576 176.7H87.8184L89.4947 178.371C89.4947 178.371 91.5895 184.426 89.9132 188.391L88.0231 190.271H80.0623L78.1768 188.6L78.1813 178.371Z" fill="#0564FF"/>
<path opacity="0.1" d="M59.7539 178.997L59.9632 189.228L62.2672 190.896H70.2258L71.6905 188.81V178.997L69.3865 176.908H61.8487L59.7539 178.997Z" fill="black"/>
<path opacity="0.1" d="M78.1813 178.371L79.8576 176.7H87.8184L89.4947 178.371C89.4947 178.371 91.5895 184.426 89.9132 188.391L88.0231 190.271H80.0623L78.1768 188.6L78.1813 178.371Z" fill="black"/>
<path opacity="0.2" d="M80.0623 178.788C80.0623 178.788 81.7387 186.097 80.0623 188.6H78.1768V178.371L80.0623 178.788Z" fill="white"/>
<path d="M71.6904 143.715C71.6904 143.715 72.5274 151.857 72.5274 152.901C72.5274 153.944 72.1089 160.837 73.3645 167.515C74.62 174.192 72.5274 182.544 72.5274 182.544H79.4374L82.3692 159.996L80.2744 148.096L79.4374 144.338L71.6904 143.715Z" fill="#FFB9B9"/>
<path opacity="0.05" d="M71.6904 143.715C71.6904 143.715 72.5274 151.857 72.5274 152.901C72.5274 153.944 72.1089 160.837 73.3645 167.515C74.62 174.192 72.5274 182.544 72.5274 182.544H79.4374L82.3692 159.996L80.2744 148.096L79.4374 144.338L71.6904 143.715Z" fill="black"/>
<path d="M70.4344 123.046C70.4344 123.046 61.2204 123.254 68.5489 138.494C68.5489 138.494 70.4344 144.757 70.4344 145.803C70.4344 146.848 79.8577 146.846 80.8972 145.803C81.9366 144.759 79.2209 136.2 79.2209 132.231C79.2209 128.263 76.5074 121.794 70.4344 123.046Z" fill="#CBCDDA"/>
<path opacity="0.05" d="M70.4344 123.046C70.4344 123.046 61.2204 123.254 68.5489 138.494C68.5489 138.494 70.4344 144.757 70.4344 145.803C70.4344 146.848 79.8577 146.846 80.8972 145.803C81.9366 144.759 79.2209 136.2 79.2209 132.231C79.2209 128.263 76.5074 121.794 70.4344 123.046Z" fill="black"/>
<path d="M59.3347 114.064C59.3347 114.064 67.2955 122.624 73.9939 116.361L73.1569 138.492C73.1569 138.492 62.2666 125.341 54.7334 126.384L59.3347 114.064Z" fill="#FFB9B9"/>
<path opacity="0.1" d="M150.084 154.843C149.765 157.29 148.765 162.441 145.892 164.11C144.197 163.43 142.683 162.711 142.683 162.711L148.128 154.151C148.763 154.428 149.416 154.659 150.084 154.843Z" fill="black"/>
<path d="M149.594 153.519C149.594 153.519 148.967 163.75 143.94 164.584L113.58 159.124C112.106 158.857 110.721 158.234 109.545 157.31C108.319 156.349 106.815 155.043 105.926 153.845C105.444 153.192 105.153 152.569 105.2 152.054C105.41 149.757 114.624 144.329 111.483 134.726C111.929 134.373 112.426 134.089 112.956 133.882C115.579 132.796 121.616 131.998 130.329 140.989C130.329 141 146.453 153.945 149.594 153.519Z" fill="#4C4C78"/>
<path d="M67.5029 179.831L67.7122 190.062L70.014 191.733H77.9725L79.4396 189.645V179.831L77.1355 177.745H69.5955L67.5029 179.831Z" fill="#0564FF"/>
<path opacity="0.2" d="M68.7585 180.049C68.7585 180.049 70.2255 189.443 68.7585 190.28L67.7122 190.071L67.5029 180.049H68.7585Z" fill="white"/>
<path d="M90.5391 178.997L92.2154 177.326H100.176L101.852 178.997C101.852 178.997 103.947 185.052 102.271 189.017L100.385 190.897H92.4246L90.5391 189.226V178.997Z" fill="#0564FF"/>
<path opacity="0.2" d="M92.4227 179.414C92.4227 179.414 94.099 186.722 92.4227 189.226H90.5371V178.997L92.4227 179.414Z" fill="white"/>
<path d="M79.3804 182.965H90.7098C91.5968 182.965 92.3156 183.758 92.3156 184.74C92.3156 185.72 91.5968 186.516 90.7098 186.516H79.3804C78.4183 186.516 77.6723 185.588 77.7883 184.534C77.8815 183.638 78.5684 182.965 79.3804 182.965Z" fill="#0564FF"/>
<path opacity="0.1" d="M112.108 150.395C109.868 151.959 107.507 152.984 105.924 153.857C105.442 153.204 105.151 152.58 105.198 152.066C105.408 149.769 114.622 144.34 111.481 134.737C111.927 134.385 112.424 134.101 112.955 133.894C113.447 133.884 113.936 133.817 114.413 133.694C114.413 133.694 116.296 147.472 112.108 150.395Z" fill="black"/>
<path d="M65.0942 130.248C65.0942 130.248 68.2353 133.379 71.2718 135.363C74.074 137.193 69.0723 118.765 69.0723 118.765C69.0723 118.765 72.1747 116.271 73.9966 114.79C75.2134 113.792 76.7637 113.29 78.3364 113.384C82.5283 113.654 90.2071 115.411 96.4028 123.883C105.408 136.2 113.575 133.694 113.575 133.694C113.575 133.694 115.461 147.474 111.271 150.397C107.082 153.32 102.476 154.363 103.311 156.034C104.145 157.705 99.5416 147.891 89.0698 146.222C78.598 144.553 67.0798 137.245 67.2914 133.697C67.2936 133.694 64.2572 131.298 65.0942 130.248Z" fill="#CBCDDA"/>
<path opacity="0.1" d="M62.8949 119.506C62.8939 118.903 62.8406 118.3 62.7357 117.706C59.9927 116.345 60.3816 114.495 60.3816 114.495L55.7734 126.812C57.4589 126.585 59.3126 127.057 61.1731 127.946C63.6228 126.016 62.8949 122.837 62.8949 119.506Z" fill="black"/>
<path d="M53.6808 129.729C59.4643 129.729 64.1527 125.055 64.1527 119.289C64.1527 113.524 59.4643 108.85 53.6808 108.85C47.8974 108.85 43.209 113.524 43.209 119.289C43.209 125.055 47.8974 129.729 53.6808 129.729Z" fill="#FFB9B9"/>
<path opacity="0.1" d="M44.1663 121.643C43.9729 122.262 43.675 122.899 43.1132 123.23C42.4308 123.634 41.4892 123.434 40.8819 122.912C40.2746 122.391 39.9471 121.611 39.7765 120.831C39.5308 119.701 39.5698 118.529 39.8902 117.418C40.1631 116.477 40.634 115.604 40.8318 114.641C41.0434 113.616 40.9365 112.543 41.173 111.523C41.4937 110.14 42.4081 108.981 43.2997 107.872C43.5791 107.449 43.9413 107.086 44.3645 106.806C44.7877 106.525 45.2634 106.333 45.763 106.239L50.146 104.922C50.9769 104.645 51.8309 104.441 52.698 104.314C53.8126 104.201 54.9387 104.299 56.0165 104.605C56.8747 104.82 57.6889 105.182 58.4229 105.675C59.1501 106.213 59.7906 106.86 60.3221 107.591C62.6399 110.611 63.9613 115.552 66.3519 118.525C65.4079 118.815 64.464 117.845 63.5201 118.139C63.3859 118.197 63.2364 118.209 63.0948 118.173C62.9544 118.097 62.8444 117.976 62.7831 117.829C61.9513 116.38 60.6421 115.263 59.078 114.668C57.918 114.23 56.3486 114.232 55.714 115.294C55.2841 116.01 55.4569 116.915 55.5707 117.743C55.6844 118.57 55.6639 119.557 55.0066 120.067C54.6433 120.311 54.2206 120.454 53.7829 120.479C51.7428 120.746 49.6686 120.544 47.7191 119.888C47.0367 119.661 46.343 118.951 45.622 119.178C44.6485 119.484 44.4233 120.82 44.1663 121.643Z" fill="black"/>
<path d="M43.9368 121.414C43.7435 122.033 43.4455 122.67 42.8837 123.001C42.2013 123.405 41.2597 123.205 40.6524 122.684C40.0451 122.162 39.7176 121.382 39.547 120.602C39.3013 119.473 39.3403 118.3 39.6607 117.189C39.9336 116.248 40.4045 115.375 40.6024 114.412C40.8139 113.387 40.707 112.314 40.9435 111.294C41.2642 109.911 42.1786 108.752 43.0702 107.643C43.3496 107.22 43.7118 106.857 44.135 106.577C44.5583 106.296 45.0339 106.104 45.5335 106.011L49.9165 104.693C50.7475 104.417 51.6015 104.214 52.4685 104.088C53.5831 103.974 54.7093 104.073 55.787 104.378C56.6452 104.593 57.4595 104.955 58.1934 105.448C58.9206 105.987 59.5611 106.633 60.0926 107.364C62.4104 110.385 63.7318 115.326 66.1224 118.298C65.1784 118.589 64.2345 117.618 63.2906 117.913C63.1564 117.97 63.0069 117.982 62.8653 117.947C62.7232 117.872 62.6115 117.75 62.5491 117.602C61.7173 116.154 60.4081 115.037 58.8439 114.441C57.6839 114.004 56.1145 114.006 55.4799 115.067C55.05 115.784 55.2229 116.688 55.3366 117.516C55.4504 118.344 55.4299 119.33 54.7725 119.84C54.4093 120.085 53.9866 120.227 53.5489 120.253C51.5088 120.519 49.4345 120.317 47.485 119.661C46.8027 119.434 46.1089 118.725 45.3879 118.951C44.419 119.255 44.1938 120.591 43.9368 121.414Z" fill="#B96B6B"/>
<g opacity="0.1">
<path opacity="0.1" d="M69.7819 118.196L69.0723 118.768C69.0723 118.768 72.0041 129.568 72.1201 133.81C73.6168 133.407 70.7372 121.852 69.7819 118.196Z" fill="black"/>
<path opacity="0.1" d="M111.679 148.726C107.491 151.648 102.883 152.692 103.718 154.363C104.553 156.034 99.9491 146.22 89.4772 144.551C79.6536 142.984 68.9088 136.456 67.7898 132.724C66.2204 131.386 65.0786 130.25 65.0786 130.25C64.2415 131.293 67.278 133.694 67.278 133.694C67.0688 137.243 78.5869 144.551 89.0564 146.22C99.526 147.889 104.134 157.703 103.297 156.032C102.46 154.36 107.066 153.311 111.258 150.395C112.457 149.558 113.157 147.832 113.548 145.794C113.143 147.084 112.543 148.129 111.679 148.726Z" fill="black"/>
</g>
<path d="M90.5393 168.768C89.9116 169.603 89.4931 178.163 89.4931 178.163C89.4931 178.163 91.995 190.48 84.2617 189.228C76.5284 187.976 83.2154 179.208 83.2154 179.208L82.1691 167.099C78.191 156.669 79.028 149.145 79.028 149.145L78.2843 142.327L77.9795 139.542L86.9843 137.454C86.7386 137.781 86.8433 139.817 87.0639 142.182C87.4073 145.887 88.0306 150.397 88.0306 150.397C89.9093 152.483 91.1671 167.932 90.5393 168.768Z" fill="#FFB9B9"/>
<path opacity="0.1" d="M77.7635 118.663C77.7635 118.663 68.5495 118.872 75.878 134.112C75.878 134.112 77.7635 140.375 77.7635 141.42C77.7635 142.466 87.1868 142.463 88.2263 141.42C89.2657 140.377 86.55 131.817 86.55 127.849C86.55 123.881 83.8365 117.41 77.7635 118.663Z" fill="black"/>
<path opacity="0.1" d="M87.0564 142.182C85.1003 142.715 80.3057 142.762 78.2745 142.327L77.9697 139.542L86.9745 137.454C86.7334 137.778 86.8381 139.815 87.0564 142.182Z" fill="black"/>
<path d="M77.3446 118.663C77.3446 118.663 68.1306 118.872 75.459 134.112C75.459 134.112 77.3446 140.375 77.3446 141.42C77.3446 142.466 86.7679 142.463 87.8073 141.42C88.8468 140.377 86.131 131.817 86.131 127.849C86.131 123.881 83.4175 117.41 77.3446 118.663Z" fill="#CBCDDA"/>
<g opacity="0.5">
<path opacity="0.5" d="M17.0676 151.347L10.3987 151.483L9.31152 152.975V158.131L10.6717 159.081H17.0676L18.43 157.589V152.705L17.0676 151.347Z" fill="#0564FF"/>
<path opacity="0.2" d="M16.9335 152.159C16.9335 152.159 10.8083 153.109 10.2646 152.159L10.4011 151.479L16.9335 151.343V152.159Z" fill="white"/>
<path opacity="0.5" d="M17.6138 166.27L18.7033 167.356V172.512L17.6138 173.598C17.6138 173.598 13.6675 174.959 11.0814 173.87L9.85547 172.648V167.492L10.945 166.27H17.6138Z" fill="#0564FF"/>
<path opacity="0.2" d="M17.3403 167.492C17.3403 167.492 12.5774 168.578 10.9443 167.492V166.27H17.6132L17.3403 167.492Z" fill="white"/>
<path opacity="0.5" d="M15.0274 159.043V166.383C15.0115 166.674 14.8808 166.947 14.6639 167.142C14.4469 167.337 14.1614 167.438 13.8696 167.424C13.5779 167.438 13.2923 167.337 13.0754 167.142C12.8585 166.947 12.7278 166.674 12.7119 166.383V159.043C12.7119 158.42 13.3169 157.937 14.0038 158.009C14.2724 158.025 14.5255 158.14 14.7145 158.33C14.9035 158.521 15.0149 158.775 15.0274 159.043Z" fill="#0564FF"/>
<path opacity="0.5" d="M27.7486 151.554L21.0797 151.69L19.9902 153.182V158.338L21.3527 159.288H27.7486L29.1087 157.796V152.912L27.7486 151.554Z" fill="#0564FF"/>
<path opacity="0.2" d="M27.6122 152.37C27.6122 152.37 21.487 153.32 20.9434 152.37L21.0798 151.69L27.6122 151.554V152.37Z" fill="white"/>
<path opacity="0.5" d="M28.2925 166.481L29.382 167.567V172.723L28.2925 173.809C28.2925 173.809 24.3463 175.17 21.7601 174.081L20.5342 172.859V167.701L21.6237 166.479L28.2925 166.481Z" fill="#0564FF"/>
<path opacity="0.2" d="M28.0219 167.701C28.0219 167.701 23.2591 168.787 21.626 167.701V166.479H28.2948L28.0219 167.701Z" fill="white"/>
<path opacity="0.5" d="M25.7012 159.252V166.592C25.6853 166.883 25.5546 167.156 25.3377 167.351C25.1208 167.546 24.8352 167.647 24.5435 167.633C24.2517 167.647 23.9662 167.546 23.7492 167.351C23.5323 167.156 23.4016 166.883 23.3857 166.592V159.252C23.3857 158.629 23.9908 158.146 24.6777 158.218C24.9462 158.234 25.1994 158.349 25.3883 158.539C25.5773 158.73 25.6888 158.984 25.7012 159.252Z" fill="#0564FF"/>
<path opacity="0.5" d="M41.3458 155.48L35.8551 155.592L34.959 156.821V161.065L36.0803 161.845H41.3458L42.4649 160.616V156.596L41.3458 155.48Z" fill="#0564FF"/>
<path opacity="0.2" d="M41.2319 156.15C41.2319 156.15 36.1893 156.933 35.7412 156.15L35.8527 155.593L41.2296 155.481L41.2319 156.15Z" fill="white"/>
<path opacity="0.5" d="M41.794 167.767L42.6902 168.66V172.905L41.794 173.798C41.794 173.798 38.546 174.916 36.4171 174.025L35.4072 173.02V168.771L36.3034 167.767H41.794Z" fill="#0564FF"/>
<path opacity="0.2" d="M41.5682 168.771C41.5682 168.771 37.647 169.665 36.3027 168.771V167.767H41.7934L41.5682 168.771Z" fill="white"/>
<path opacity="0.5" d="M39.6648 161.817V167.86C39.6507 168.098 39.5427 168.322 39.3642 168.481C39.1858 168.641 38.9513 168.724 38.7118 168.712C38.4716 168.724 38.2364 168.64 38.0578 168.48C37.8793 168.319 37.7717 168.095 37.7588 167.855V161.817C37.7667 161.689 37.8013 161.564 37.8605 161.451C37.9196 161.337 38.002 161.237 38.1022 161.157C38.2024 161.077 38.3184 161.018 38.4426 160.986C38.5667 160.953 38.6964 160.946 38.8233 160.967C39.0441 160.98 39.2522 161.074 39.4076 161.231C39.5629 161.388 39.6546 161.597 39.6648 161.817Z" fill="#0564FF"/>
<path opacity="0.5" d="M50.1368 155.651L44.6462 155.765L43.75 156.991V161.236L44.8713 162.019H50.1368L51.2582 160.79V156.769L50.1368 155.651Z" fill="#0564FF"/>
<path opacity="0.2" d="M50.0248 156.322C50.0248 156.322 44.9823 157.105 44.5342 156.322L44.6456 155.764L50.0226 155.653L50.0248 156.322Z" fill="white"/>
<path opacity="0.5" d="M50.5847 167.939L51.4809 168.833V173.077L50.5847 173.971C50.5847 173.971 47.3367 175.089 45.2078 174.197L44.2002 173.193V168.939L45.0964 167.935L50.5847 167.939Z" fill="#0564FF"/>
<path opacity="0.2" d="M50.3622 168.939C50.3622 168.939 46.4409 169.832 45.0967 168.939V167.935H50.5851L50.3622 168.939Z" fill="white"/>
<path opacity="0.5" d="M48.4471 161.989V168.032C48.4341 168.271 48.3266 168.496 48.148 168.656C47.9694 168.817 47.7343 168.901 47.494 168.889C47.2538 168.901 47.0187 168.817 46.8401 168.656C46.6615 168.496 46.554 168.271 46.541 168.032V161.989C46.5489 161.861 46.5836 161.736 46.6427 161.622C46.7019 161.509 46.7842 161.409 46.8844 161.329C46.9847 161.249 47.1006 161.19 47.2248 161.158C47.349 161.125 47.4786 161.118 47.6055 161.138C47.8263 161.152 48.0344 161.246 48.1898 161.403C48.3452 161.56 48.4368 161.768 48.4471 161.989Z" fill="#0564FF"/>
</g>
<g opacity="0.8">
<path opacity="0.8" d="M26.6531 192.066C26.6531 192.066 23.4302 190.978 21.8767 193.81C21.4674 194.578 21.2591 195.436 21.271 196.305C21.2829 197.174 21.5147 198.026 21.9449 198.783C22.9639 200.619 25.0633 203.003 29.0414 202.792C32.4167 202.612 33.5381 200.043 33.8429 197.656C33.9594 196.76 33.8435 195.85 33.5061 195.012C33.1687 194.173 32.6212 193.436 31.9159 192.869C31.2106 192.302 30.3712 191.925 29.478 191.774C28.5849 191.623 27.6678 191.704 26.8146 192.007L26.6531 192.066Z" fill="#0564FF"/>
<path opacity="0.1" d="M22.6295 199.035C22.1993 198.279 21.9675 197.427 21.9556 196.558C21.9437 195.688 22.152 194.83 22.5613 194.063C24.1125 191.23 27.3378 192.319 27.3378 192.319L27.5038 192.26C28.7326 191.817 30.0831 191.846 31.2909 192.344C30.6237 191.947 29.8764 191.703 29.1031 191.629C28.3298 191.555 27.5497 191.654 26.8192 191.917L26.6531 191.976C26.6531 191.976 23.4302 190.888 21.8767 193.72C21.4674 194.488 21.2591 195.346 21.271 196.215C21.2829 197.084 21.5147 197.937 21.9449 198.693C22.6273 199.901 23.7645 201.346 25.5841 202.133C24.3346 201.388 23.313 200.317 22.6295 199.035Z" fill="white"/>
<path opacity="0.2" d="M24.9883 193.427C24.9883 193.427 26.1824 194.363 29.0824 193.427H24.9883Z" fill="black"/>
<path opacity="0.8" d="M24.7334 186.625C24.7334 186.625 26.7805 192.158 26.6121 193.604L28.2339 193.434C28.2339 193.434 25.5045 188.584 26.1868 186.632L24.7334 186.625Z" fill="#0564FF"/>
<path opacity="0.2" d="M24.7334 186.625C24.7334 186.625 26.7805 192.158 26.6121 193.604L28.2339 193.434C28.2339 193.434 25.5045 188.584 26.1868 186.632L24.7334 186.625Z" fill="black"/>
<path opacity="0.8" d="M33.0949 187.078C33.0949 187.078 29.8697 185.434 28.4276 186.792C26.9856 188.151 26.7627 191.622 26.7627 191.622C26.7627 191.622 32.0214 192.346 33.0949 187.078Z" fill="#0564FF"/>
<path opacity="0.1" d="M33.0949 187.078C33.0949 187.078 29.8697 185.434 28.4276 186.792C26.9856 188.151 26.7627 191.622 26.7627 191.622C26.7627 191.622 32.0214 192.346 33.0949 187.078Z" fill="white"/>
<path opacity="0.8" d="M26.7627 191.613C26.7627 191.613 27.6088 187.584 33.0949 187.078" stroke="#0564FF" stroke-miterlimit="10"/>
</g>
<path d="M40.2586 197.076C40.2586 197.076 37.0356 195.988 35.4821 198.82C35.0729 199.587 34.8645 200.446 34.8765 201.315C34.8884 202.184 35.1202 203.036 35.5504 203.792C36.5694 205.629 38.6687 208.012 42.6468 207.801C46.0222 207.622 47.1436 205.053 47.4483 202.665C47.5649 201.77 47.449 200.859 47.1116 200.021C46.7742 199.183 46.2266 198.445 45.5214 197.879C44.8161 197.312 43.9767 196.935 43.0835 196.784C42.1903 196.633 41.2733 196.713 40.4201 197.017L40.2586 197.076Z" fill="#0564FF"/>
<path opacity="0.1" d="M36.2418 204.046C35.8117 203.29 35.5799 202.438 35.5679 201.568C35.556 200.699 35.7643 199.841 36.1736 199.073C37.7248 196.241 40.9501 197.33 40.9501 197.33L41.1161 197.271C42.3449 196.827 43.6954 196.857 44.9032 197.354C44.236 196.958 43.4888 196.714 42.7154 196.64C41.9421 196.566 41.162 196.665 40.4315 196.928L40.2655 196.987C40.2655 196.987 37.0425 195.899 35.489 198.731C35.0797 199.498 34.8714 200.357 34.8833 201.226C34.8952 202.095 35.127 202.947 35.5572 203.703C36.2396 204.912 37.3768 206.356 39.1964 207.143C37.9469 206.398 36.9253 205.327 36.2418 204.046Z" fill="white"/>
<path opacity="0.2" d="M38.6006 198.437C38.6006 198.437 39.7947 199.373 42.6947 198.437H38.6006Z" fill="black"/>
<path d="M38.3438 191.629C38.3438 191.629 40.3908 197.162 40.2225 198.608L41.8442 198.438C41.8442 198.438 39.1148 193.588 39.7972 191.636L38.3438 191.629Z" fill="#0564FF"/>
<path opacity="0.2" d="M38.3438 191.629C38.3438 191.629 40.3908 197.162 40.2225 198.608L41.8442 198.438C41.8442 198.438 39.1148 193.588 39.7972 191.636L38.3438 191.629Z" fill="black"/>
<path d="M46.7072 192.09C46.7072 192.09 43.482 190.446 42.0399 191.804C40.5979 193.162 40.375 196.634 40.375 196.634C40.375 196.634 45.6337 197.355 46.7072 192.09Z" fill="#0564FF"/>
<path opacity="0.1" d="M46.7072 192.09C46.7072 192.09 43.482 190.446 42.0399 191.804C40.5979 193.162 40.375 196.634 40.375 196.634C40.375 196.634 45.6337 197.355 46.7072 192.09Z" fill="white"/>
<path d="M40.375 196.634C40.375 196.634 41.2211 192.604 46.7072 192.099" stroke="#0564FF" stroke-miterlimit="10"/>
<path d="M14.3292 183.942C14.3292 183.942 14.6454 183.591 14.0518 183.45V182.872H14.4089C14.4086 182.173 14.1676 181.495 13.7263 180.952C13.285 180.409 12.67 180.033 11.9842 179.888V179.187H12.0775V178.28H9.78022V179.187H9.84618V179.897C9.16947 180.05 8.56503 180.428 8.13194 180.968C7.69885 181.509 7.46281 182.18 7.4625 182.872H7.78093V183.428C7.78093 183.428 7.02579 183.784 7.78093 184.418C8.53607 185.053 8.41779 185.527 8.41779 185.527C8.41779 185.527 8.09936 186.715 7.46477 186.874V197.928C7.46477 198.58 7.7243 199.204 8.18625 199.665C8.64821 200.125 9.27476 200.384 9.92807 200.384H11.875C12.5264 200.382 13.1503 200.122 13.6102 199.662C14.0701 199.202 14.3286 198.58 14.3292 197.93V186.874C14.3292 186.874 13.217 186.042 13.4194 185.527C13.6834 184.977 13.9875 184.448 14.3292 183.942Z" fill="#0564FF"/>
</g>
<defs>
<clipPath id="clip0">
<rect width="132.571" height="105.11" fill="white" transform="translate(33.1426 0.726562)"/>
</clipPath>
<clipPath id="clip1">
<rect width="232" height="151.51" fill="white" transform="translate(0 58.4902)"/>
</clipPath>
</defs>
</svg>
