<svg width="224" height="183" viewBox="0 0 224 183" fill="none" xmlns="http://www.w3.org/2000/svg">
<g clip-path="url(#clip0)">
<path opacity="0.1" d="M219.081 182.317C220.974 180.421 218.783 175.154 214.187 170.553C209.592 165.951 204.332 163.758 202.439 165.653C200.546 167.548 202.737 172.815 207.333 177.417C211.928 182.018 217.188 184.212 219.081 182.317Z" fill="#0564FF"/>
<path d="M211.593 174.754C213.03 174.754 214.195 173.227 214.195 171.343C214.195 169.459 213.03 167.932 211.593 167.932C210.156 167.932 208.991 169.459 208.991 171.343C208.991 173.227 210.156 174.754 211.593 174.754Z" fill="#3F3D56"/>
<path d="M211.593 170.585C213.03 170.585 214.195 169.058 214.195 167.174C214.195 165.29 213.03 163.763 211.593 163.763C210.156 163.763 208.991 165.29 208.991 167.174C208.991 169.058 210.156 170.585 211.593 170.585Z" fill="#3F3D56"/>
<path d="M211.593 166.416C213.03 166.416 214.195 164.889 214.195 163.005C214.195 161.121 213.03 159.594 211.593 159.594C210.156 159.594 208.991 161.121 208.991 163.005C208.991 164.889 210.156 166.416 211.593 166.416Z" fill="#3F3D56"/>
<path d="M211.593 162.248C213.03 162.248 214.195 160.721 214.195 158.837C214.195 156.953 213.03 155.426 211.593 155.426C210.156 155.426 208.991 156.953 208.991 158.837C208.991 160.721 210.156 162.248 211.593 162.248Z" fill="#3F3D56"/>
<path d="M211.593 158.079C213.03 158.079 214.195 156.552 214.195 154.668C214.195 152.784 213.03 151.257 211.593 151.257C210.156 151.257 208.991 152.784 208.991 154.668C208.991 156.552 210.156 158.079 211.593 158.079Z" fill="#3F3D56"/>
<path d="M211.593 153.911C213.03 153.911 214.195 152.383 214.195 150.499C214.195 148.615 213.03 147.088 211.593 147.088C210.156 147.088 208.991 148.615 208.991 150.499C208.991 152.383 210.156 153.911 211.593 153.911Z" fill="#3F3D56"/>
<path d="M211.593 149.742C213.03 149.742 214.195 148.214 214.195 146.33C214.195 144.446 213.03 142.919 211.593 142.919C210.156 142.919 208.991 144.446 208.991 146.33C208.991 148.214 210.156 149.742 211.593 149.742Z" fill="#3F3D56"/>
<path d="M221.333 117.801C221.689 117.349 222.013 116.871 222.303 116.374L215.465 115.249L222.861 115.303C223.57 113.758 223.957 112.084 223.999 110.383C224.041 108.683 223.736 106.992 223.103 105.414L213.183 110.568L222.327 103.833C221.471 102.348 220.318 101.056 218.941 100.038C217.564 99.0188 215.992 98.295 214.323 97.9113C212.654 97.5276 210.924 97.4923 209.241 97.8076C207.558 98.1228 205.958 98.7819 204.54 99.7437C203.123 100.705 201.918 101.949 201.002 103.398C200.086 104.846 199.478 106.468 199.215 108.162C198.952 109.857 199.041 111.587 199.476 113.245C199.91 114.904 200.681 116.454 201.741 117.801C201.187 118.506 200.71 119.269 200.32 120.076L209.195 124.69L199.738 121.509C199.074 123.476 198.91 125.577 199.261 127.624C199.612 129.67 200.467 131.596 201.748 133.229C200.302 135.07 199.403 137.281 199.152 139.609C198.902 141.938 199.311 144.29 200.333 146.397C201.355 148.503 202.948 150.28 204.931 151.522C206.914 152.765 209.205 153.424 211.544 153.424C213.883 153.424 216.175 152.765 218.157 151.522C220.14 150.28 221.733 148.503 222.755 146.397C223.777 144.29 224.186 141.938 223.936 139.609C223.686 137.281 222.786 135.07 221.34 133.229C223.068 131.029 224.007 128.311 224.007 125.513C224.007 122.714 223.068 119.996 221.34 117.796L221.333 117.801Z" fill="#0564FF"/>
<path opacity="0.1" d="M199.073 125.517C199.069 128.316 200.008 131.035 201.741 133.233C200.294 135.074 199.395 137.285 199.145 139.614C198.895 141.942 199.304 144.294 200.326 146.401C201.348 148.508 202.941 150.284 204.923 151.527C206.906 152.769 209.198 153.428 211.537 153.428C213.876 153.428 216.167 152.769 218.15 151.527C220.132 150.284 221.726 148.508 222.747 146.401C223.769 144.294 224.179 141.942 223.928 139.614C223.678 137.285 222.779 135.074 221.333 133.233C223.003 131.111 199.073 124.116 199.073 125.517Z" fill="black"/>
<path d="M205.371 0V174.815L146.206 166.56L74.2855 181.252L73.706 181.371L16.4814 165.589V13.5967L75.8882 0L140.872 13.5967L143.343 13.0747L205.371 0Z" fill="#444053"/>
<path d="M195.429 9.54688V165.96L142.494 158.574L78.1431 171.72L77.6242 171.824L26.4229 157.705V21.7111L79.5786 9.54688L137.72 21.7111L139.931 21.2449L195.429 9.54688Z" fill="white"/>
<path opacity="0.1" d="M146.206 166.56L74.2852 181.252L75.8879 0L140.872 13.5967L143.343 13.0747L146.206 166.56Z" fill="black"/>
<g opacity="0.3">
<path opacity="0.3" d="M139.024 33.5059L139.054 84.3722H160.149V63.4915H196.278L200.521 58.0431" stroke="#444053" stroke-width="3" stroke-miterlimit="10"/>
<path opacity="0.3" d="M21.5732 49.652H100.014L104.864 47.4668H106.804V96.5122H140.751L142.205 100.883V122.977H168.393V150.292" stroke="#444053" stroke-width="3" stroke-miterlimit="10"/>
<path opacity="0.3" d="M117.165 150.292V96.5117" stroke="#444053" stroke-width="3" stroke-miterlimit="10"/>
<path opacity="0.3" d="M200.521 135.885H117.165" stroke="#444053" stroke-width="3" stroke-miterlimit="10"/>
<path opacity="0.3" d="M179.645 33.5059V150.292" stroke="#444053" stroke-width="3" stroke-miterlimit="10"/>
<path opacity="0.3" d="M21.3311 125.561H200.521" stroke="#444053" stroke-width="3" stroke-miterlimit="10"/>
<path opacity="0.3" d="M43.1396 150.292V33.5059" stroke="#444053" stroke-width="3" stroke-miterlimit="10"/>
<path opacity="0.3" d="M84.792 33.5059V150.292" stroke="#444053" stroke-width="3" stroke-miterlimit="10"/>
<path opacity="0.3" d="M21.5732 63.0059L160.149 63.4915" stroke="#444053" stroke-width="3" stroke-miterlimit="10"/>
<path opacity="0.3" d="M61.9043 33.7168V150.292" stroke="#444053" stroke-width="3" stroke-miterlimit="10"/>
<path opacity="0.3" d="M21.3311 90.0342H84.7921L117.165 125.561" stroke="#444053" stroke-width="3" stroke-miterlimit="10"/>
<path opacity="0.3" d="M124.178 33.5059V96.5122" stroke="#444053" stroke-width="3" stroke-miterlimit="10"/>
<path opacity="0.3" d="M117.165 107.798H200.521" stroke="#444053" stroke-width="3" stroke-miterlimit="10"/>
</g>
<path d="M142.084 107.317H117.594V96.6341L140.75 96.5127L142.205 100.64L142.084 107.317Z" fill="#0564FF"/>
<path d="M129.961 51.959C126.406 51.959 122.996 53.3731 120.483 55.8902C117.969 58.4073 116.557 61.8212 116.557 65.3809C116.557 72.7936 129.961 96.8768 129.961 96.8768C129.961 96.8768 143.365 72.8033 143.365 65.3809C143.365 61.8212 141.953 58.4073 139.439 55.8902C136.925 53.3731 133.516 51.959 129.961 51.959ZM129.961 71.1061C128.794 71.1061 127.654 70.7598 126.685 70.111C125.715 69.4621 124.959 68.5399 124.513 67.4609C124.066 66.382 123.949 65.1947 124.177 64.0493C124.405 62.9038 124.966 61.8517 125.791 61.0259C126.616 60.2001 127.666 59.6377 128.81 59.4098C129.954 59.182 131.14 59.2989 132.217 59.7459C133.295 60.1928 134.216 60.9496 134.864 61.9207C135.512 62.8917 135.858 64.0334 135.858 65.2012C135.857 66.7669 135.236 68.2682 134.13 69.375C133.024 70.4819 131.524 71.1037 129.961 71.1037V71.1061Z" fill="#0564FF"/>
<path opacity="0.1" d="M129.961 51.959C126.406 51.959 122.996 53.3731 120.483 55.8902C117.969 58.4073 116.557 61.8212 116.557 65.3809C116.557 72.7936 129.961 96.8768 129.961 96.8768C129.961 96.8768 143.365 72.8033 143.365 65.3809C143.365 61.8212 141.953 58.4073 139.439 55.8902C136.925 53.3731 133.516 51.959 129.961 51.959ZM129.961 71.1061C128.794 71.1061 127.654 70.7598 126.685 70.111C125.715 69.4621 124.959 68.5399 124.513 67.4609C124.066 66.382 123.949 65.1947 124.177 64.0493C124.405 62.9038 124.966 61.8517 125.791 61.0259C126.616 60.2001 127.666 59.6377 128.81 59.4098C129.954 59.182 131.14 59.2989 132.217 59.7459C133.295 60.1928 134.216 60.9496 134.864 61.9207C135.512 62.8917 135.858 64.0334 135.858 65.2012C135.857 66.7669 135.236 68.2682 134.13 69.375C133.024 70.4819 131.524 71.1037 129.961 71.1037V71.1061Z" fill="black"/>
<path d="M129.961 53.9014C126.406 53.9014 122.996 55.3155 120.483 57.8326C117.969 60.3497 116.557 63.7636 116.557 67.3233C116.557 74.736 129.961 98.8192 129.961 98.8192C129.961 98.8192 143.365 74.7457 143.365 67.3233C143.365 63.7636 141.953 60.3497 139.439 57.8326C136.925 55.3155 133.516 53.9014 129.961 53.9014ZM129.961 73.0485C128.794 73.0485 127.654 72.7022 126.685 72.0534C125.715 71.4045 124.959 70.4823 124.513 69.4033C124.066 68.3244 123.949 67.1371 124.177 65.9916C124.405 64.8462 124.966 63.7941 125.791 62.9683C126.616 62.1424 127.666 61.5801 128.81 61.3522C129.954 61.1244 131.14 61.2413 132.217 61.6882C133.295 62.1352 134.216 62.892 134.864 63.8631C135.512 64.8341 135.858 65.9758 135.858 67.1436C135.857 68.7093 135.236 70.2106 134.13 71.3174C133.024 72.4243 131.524 73.0461 129.961 73.0461V73.0485Z" fill="#0564FF"/>
<path opacity="0.1" d="M125.417 181.146C129.531 179.372 132.275 176.558 131.545 174.861C130.815 173.164 126.888 173.226 122.774 175C118.659 176.775 115.916 179.589 116.646 181.286C117.376 182.983 121.303 182.92 125.417 181.146Z" fill="#0564FF"/>
<path d="M124 179.101C124.991 179.101 125.795 178.049 125.795 176.751C125.795 175.453 124.991 174.4 124 174.4C123.009 174.4 122.206 175.453 122.206 176.751C122.206 178.049 123.009 179.101 124 179.101Z" fill="#3F3D56"/>
<path d="M124 176.226C124.991 176.226 125.795 175.174 125.795 173.876C125.795 172.578 124.991 171.525 124 171.525C123.009 171.525 122.206 172.578 122.206 173.876C122.206 175.174 123.009 176.226 124 176.226Z" fill="#3F3D56"/>
<path d="M124 173.354C124.991 173.354 125.795 172.302 125.795 171.004C125.795 169.706 124.991 168.653 124 168.653C123.009 168.653 122.206 169.706 122.206 171.004C122.206 172.302 123.009 173.354 124 173.354Z" fill="#3F3D56"/>
<path d="M124 170.481C124.991 170.481 125.795 169.429 125.795 168.131C125.795 166.833 124.991 165.78 124 165.78C123.009 165.78 122.206 166.833 122.206 168.131C122.206 169.429 123.009 170.481 124 170.481Z" fill="#3F3D56"/>
<path d="M124 167.607C124.991 167.607 125.795 166.555 125.795 165.257C125.795 163.959 124.991 162.906 124 162.906C123.009 162.906 122.206 163.959 122.206 165.257C122.206 166.555 123.009 167.607 124 167.607Z" fill="#3F3D56"/>
<path d="M124 164.734C124.991 164.734 125.795 163.682 125.795 162.383C125.795 161.085 124.991 160.033 124 160.033C123.009 160.033 122.206 161.085 122.206 162.383C122.206 163.682 123.009 164.734 124 164.734Z" fill="#3F3D56"/>
<path d="M124 161.862C124.991 161.862 125.795 160.809 125.795 159.511C125.795 158.213 124.991 157.161 124 157.161C123.009 157.161 122.206 158.213 122.206 159.511C122.206 160.809 123.009 161.862 124 161.862Z" fill="#3F3D56"/>
<path d="M117.286 139.847C117.042 139.539 116.818 139.214 116.617 138.876L121.331 138.099L116.239 138.138C115.751 137.073 115.484 135.919 115.456 134.747C115.428 133.575 115.638 132.41 116.074 131.322L122.912 134.862L116.608 130.22C117.198 129.197 117.993 128.307 118.942 127.605C119.891 126.904 120.974 126.405 122.124 126.141C123.274 125.877 124.466 125.852 125.626 126.07C126.785 126.287 127.888 126.741 128.865 127.404C129.841 128.067 130.671 128.924 131.303 129.922C131.934 130.92 132.353 132.037 132.534 133.205C132.716 134.372 132.655 135.565 132.355 136.707C132.056 137.85 131.525 138.919 130.795 139.847C131.173 140.334 131.498 140.86 131.765 141.416L125.652 144.599L132.175 142.414C132.633 143.769 132.746 145.218 132.504 146.628C132.262 148.039 131.673 149.366 130.79 150.491C131.787 151.76 132.407 153.284 132.58 154.89C132.752 156.495 132.47 158.116 131.766 159.568C131.062 161.021 129.963 162.245 128.597 163.102C127.23 163.959 125.651 164.413 124.038 164.413C122.426 164.413 120.846 163.959 119.48 163.102C118.113 162.245 117.015 161.021 116.31 159.568C115.606 158.116 115.324 156.495 115.497 154.89C115.669 153.284 116.29 151.76 117.286 150.491C116.096 148.975 115.448 147.102 115.448 145.173C115.448 143.244 116.096 141.371 117.286 139.854V139.847Z" fill="#0564FF"/>
<path opacity="0.1" d="M132.628 145.158C132.631 147.088 131.984 148.962 130.79 150.478C131.787 151.746 132.407 153.271 132.58 154.876C132.752 156.481 132.47 158.102 131.766 159.555C131.062 161.007 129.963 162.231 128.597 163.088C127.23 163.945 125.651 164.399 124.038 164.399C122.426 164.399 120.846 163.945 119.48 163.088C118.113 162.231 117.015 161.007 116.31 159.555C115.606 158.102 115.324 156.481 115.497 154.876C115.669 153.271 116.29 151.746 117.286 150.478C116.135 149.021 132.628 144.201 132.628 145.158Z" fill="black"/>
<path opacity="0.1" d="M20.0065 176.975C21.8994 175.079 19.7086 169.813 15.1131 165.211C10.5177 160.61 5.25784 158.416 3.36492 160.311C1.47201 162.207 3.66285 167.473 8.2583 172.075C12.8538 176.677 18.1136 178.87 20.0065 176.975Z" fill="#0564FF"/>
<path d="M12.5188 169.412C13.9557 169.412 15.1205 167.885 15.1205 166.001C15.1205 164.117 13.9557 162.59 12.5188 162.59C11.0818 162.59 9.91699 164.117 9.91699 166.001C9.91699 167.885 11.0818 169.412 12.5188 169.412Z" fill="#3F3D56"/>
<path d="M12.5188 165.245C13.9557 165.245 15.1205 163.717 15.1205 161.833C15.1205 159.949 13.9557 158.422 12.5188 158.422C11.0818 158.422 9.91699 159.949 9.91699 161.833C9.91699 163.717 11.0818 165.245 12.5188 165.245Z" fill="#3F3D56"/>
<path d="M12.5188 161.076C13.9557 161.076 15.1205 159.548 15.1205 157.664C15.1205 155.78 13.9557 154.253 12.5188 154.253C11.0818 154.253 9.91699 155.78 9.91699 157.664C9.91699 159.548 11.0818 161.076 12.5188 161.076Z" fill="#3F3D56"/>
<path d="M12.5188 156.907C13.9557 156.907 15.1205 155.379 15.1205 153.495C15.1205 151.611 13.9557 150.084 12.5188 150.084C11.0818 150.084 9.91699 151.611 9.91699 153.495C9.91699 155.379 11.0818 156.907 12.5188 156.907Z" fill="#3F3D56"/>
<path d="M12.5188 152.738C13.9557 152.738 15.1205 151.21 15.1205 149.326C15.1205 147.442 13.9557 145.915 12.5188 145.915C11.0818 145.915 9.91699 147.442 9.91699 149.326C9.91699 151.21 11.0818 152.738 12.5188 152.738Z" fill="#3F3D56"/>
<path d="M12.5188 148.569C13.9557 148.569 15.1205 147.041 15.1205 145.157C15.1205 143.273 13.9557 141.746 12.5188 141.746C11.0818 141.746 9.91699 143.273 9.91699 145.157C9.91699 147.041 11.0818 148.569 12.5188 148.569Z" fill="#3F3D56"/>
<path d="M12.5188 144.4C13.9557 144.4 15.1205 142.873 15.1205 140.988C15.1205 139.104 13.9557 137.577 12.5188 137.577C11.0818 137.577 9.91699 139.104 9.91699 140.988C9.91699 142.873 11.0818 144.4 12.5188 144.4Z" fill="#3F3D56"/>
<path d="M22.2597 112.46C22.6157 112.007 22.9398 111.53 23.2296 111.032L16.3918 109.908L23.7873 109.961C24.4968 108.416 24.8842 106.742 24.9259 105.042C24.9676 103.341 24.6627 101.65 24.0298 100.072L14.1101 105.227L23.2539 98.4913C22.3974 97.0067 21.2446 95.7147 19.8675 94.6958C18.4903 93.677 16.9183 92.9532 15.2495 92.5695C13.5807 92.1858 11.8508 92.1505 10.1677 92.4658C8.48469 92.781 6.88454 93.4401 5.46707 94.4019C4.04959 95.3637 2.8452 96.6075 1.92897 98.0559C1.01274 99.5043 0.404331 101.126 0.141677 102.82C-0.120978 104.515 -0.0322433 106.245 0.402342 107.903C0.836927 109.562 1.60805 111.113 2.66762 112.46C2.11333 113.164 1.63692 113.927 1.24671 114.735L10.1214 119.348L0.664761 116.167C0.000757435 118.134 -0.163172 120.236 0.187796 122.282C0.538764 124.328 1.39356 126.255 2.6749 127.887C1.22888 129.728 0.329352 131.939 0.0791595 134.267C-0.171033 136.596 0.238205 138.948 1.26009 141.055C2.28197 143.162 3.87525 144.938 5.85776 146.181C7.84028 147.423 10.132 148.082 12.471 148.082C14.8099 148.082 17.1016 147.423 19.0841 146.181C21.0667 144.938 22.6599 143.162 23.6818 141.055C24.7037 138.948 25.1129 136.596 24.8627 134.267C24.6126 131.939 23.713 129.728 22.267 127.887C23.9948 125.687 24.9341 122.97 24.9341 120.171C24.9341 117.372 23.9948 114.655 22.267 112.455L22.2597 112.46Z" fill="#0564FF"/>
<path opacity="0.1" d="M1.74366e-05 120.176C-0.00466842 122.976 0.935218 125.695 2.66726 127.892C1.22125 129.733 0.321718 131.944 0.0715254 134.273C-0.178667 136.601 0.230571 138.954 1.25245 141.06C2.27433 143.167 3.86762 144.943 5.85013 146.186C7.83265 147.429 10.1244 148.088 12.4633 148.088C14.8023 148.088 17.094 147.429 19.0765 146.186C21.059 144.943 22.6523 143.167 23.6742 141.06C24.6961 138.954 25.1053 136.601 24.8551 134.273C24.6049 131.944 23.7054 129.733 22.2594 127.892C23.93 125.77 1.74366e-05 118.775 1.74366e-05 120.176Z" fill="black"/>
</g>
<defs>
<clipPath id="clip0">
<rect width="224" height="183" fill="white"/>
</clipPath>
</defs>
</svg>
