<svg width="274" height="190" viewBox="0 0 274 190" fill="none" xmlns="http://www.w3.org/2000/svg">
<path d="M81.4959 127.61C80.1696 128.907 79.4105 130.673 79.3836 132.524C79.3566 134.376 80.064 136.163 81.3519 137.498L125.917 183.472C126.565 184.141 127.34 184.674 128.197 185.041C129.054 185.408 129.976 185.602 130.908 185.611C131.841 185.62 132.766 185.444 133.63 185.093C134.493 184.743 135.278 184.224 135.939 183.569L271.928 48.6107C272.671 47.8734 273.239 46.9799 273.591 45.9955C273.943 45.0112 274.07 43.961 273.962 42.9216C273.854 41.8822 273.515 40.88 272.968 39.9882C272.422 39.0964 271.682 38.3376 270.804 37.7673L217.33 3.05201C215.993 2.17481 214.394 1.78152 212.801 1.93783C211.208 2.09414 209.717 2.79059 208.577 3.91084L81.4959 127.61Z" fill="#3F3D56"/>
<path d="M272.862 39.8174C272.592 40.2303 272.279 40.614 271.929 40.962L136.26 178.469C135.599 179.125 134.814 179.644 133.95 179.994C133.086 180.345 132.161 180.521 131.228 180.512C130.296 180.503 129.374 180.309 128.518 179.942C127.661 179.575 126.886 179.041 126.238 178.373L80.7131 130.486C80.4029 130.165 80.1243 129.815 79.8811 129.441C78.1354 132.118 79.0382 135.11 81.3526 137.498L125.918 183.472C126.566 184.141 127.341 184.674 128.198 185.041C129.055 185.408 129.976 185.602 130.909 185.611C131.841 185.62 132.766 185.444 133.63 185.093C134.494 184.743 135.279 184.224 135.94 183.568L271.929 48.6107C273.074 47.4744 273.791 45.9802 273.961 44.379C274.13 42.7778 273.742 41.1671 272.862 39.8174Z" fill="#0564FF"/>
<path d="M260.27 41.481L254.736 37.9642C255.319 38.9995 255.533 40.201 255.343 41.3731C255.153 42.5451 254.571 43.6186 253.691 44.4187C252.811 45.2189 251.686 45.6984 250.497 45.7794C249.309 45.8603 248.128 45.5378 247.147 44.8645L211.336 20.3249C210.522 19.768 209.881 18.9944 209.487 18.0921C209.093 17.1899 208.961 16.1954 209.106 15.222C209.251 14.2486 209.668 13.3354 210.309 12.5866C210.949 11.8378 211.788 11.2834 212.729 10.9867L209.878 9.17485C209.508 8.93974 209.069 8.83813 208.633 8.88696C208.197 8.93578 207.791 9.13209 207.482 9.44316L87.0118 127.446C86.8321 127.628 86.6905 127.843 86.5955 128.079C86.5004 128.316 86.4538 128.569 86.4583 128.824C86.4628 129.079 86.5184 129.33 86.6218 129.563C86.7252 129.797 86.8743 130.007 87.0604 130.182L130.812 172.674C131.175 173.014 131.657 173.201 132.155 173.194C132.653 173.187 133.13 172.987 133.483 172.637L260.593 44.4477C260.796 44.2454 260.952 44.0002 261.047 43.7301C261.143 43.46 261.177 43.1719 261.146 42.8871C261.115 42.6023 261.02 42.3281 260.868 42.0847C260.717 41.8413 260.512 41.635 260.27 41.481Z" fill="white"/>
<path d="M121.229 101.39L158.185 136.121L246.089 49.5566L201.477 20.6143L121.229 101.39Z" fill="#E6E6E6"/>
<path d="M242.673 70.9195C242.916 71.1513 243.24 71.2806 243.577 71.2806C243.914 71.2806 244.238 71.1513 244.481 70.9195L252.169 63.2576C252.408 63.0183 252.542 62.6942 252.542 62.3562C252.542 62.0183 252.408 61.6942 252.169 61.4548C251.925 61.2231 251.601 61.0938 251.264 61.0938C250.927 61.0938 250.603 61.2231 250.36 61.4548L242.673 69.1168C242.433 69.3561 242.299 69.6802 242.299 70.0182C242.299 70.3561 242.433 70.6802 242.673 70.9195Z" fill="#3F3D56"/>
<path d="M229.723 83.8273C229.963 84.0659 230.288 84.1999 230.627 84.1999C230.966 84.1999 231.291 84.0659 231.531 83.8273L239.219 76.1652C239.458 75.926 239.592 75.602 239.592 75.2642C239.592 74.9264 239.457 74.6025 239.217 74.3636C238.978 74.1248 238.653 73.9905 238.314 73.9902C237.975 73.99 237.65 74.1238 237.41 74.3623L229.723 82.0244C229.483 82.2637 229.349 82.5879 229.349 82.9259C229.349 83.2638 229.483 83.588 229.723 83.8273Z" fill="#3F3D56"/>
<path d="M122.082 139.806C126.85 139.806 130.715 135.954 130.715 131.201C130.715 126.449 126.85 122.597 122.082 122.597C117.314 122.597 113.449 126.449 113.449 131.201C113.449 135.954 117.314 139.806 122.082 139.806Z" fill="#0564FF"/>
<path d="M185.071 56.8467H93.8145V74.8052H185.071V56.8467Z" fill="#E6E6E6"/>
<path d="M185.071 28.4697H93.8145V46.4283H185.071V28.4697Z" fill="#E6E6E6"/>
<path d="M185.071 0H93.8145V17.9585H185.071V0Z" fill="#E6E6E6"/>
<path d="M95.7598 16.0197H183.126V1.93945H95.7598V16.0197Z" fill="white"/>
<path d="M95.7598 44.552H183.126V30.4717H95.7598V44.552Z" fill="white"/>
<path d="M95.7598 72.8654H183.126V58.7852H95.7598V72.8654Z" fill="white"/>
<path d="M103.407 14.2265C106.379 14.2265 108.789 11.8249 108.789 8.86228C108.789 5.89969 106.379 3.49805 103.407 3.49805C100.435 3.49805 98.0254 5.89969 98.0254 8.86228C98.0254 11.8249 100.435 14.2265 103.407 14.2265Z" fill="#0564FF"/>
<path d="M169.394 6.76367H116.277V7.92981H169.394V6.76367Z" fill="#0564FF"/>
<path d="M169.394 9.7959H116.277V10.962H169.394V9.7959Z" fill="#0564FF"/>
<path d="M103.407 42.9296C106.379 42.9296 108.789 40.528 108.789 37.5654C108.789 34.6028 106.379 32.2012 103.407 32.2012C100.435 32.2012 98.0254 34.6028 98.0254 37.5654C98.0254 40.528 100.435 42.9296 103.407 42.9296Z" fill="#CCCCCC"/>
<path d="M169.394 35.4668H116.277V36.6329H169.394V35.4668Z" fill="#CCCCCC"/>
<path d="M169.394 38.499H116.277V39.6652H169.394V38.499Z" fill="#CCCCCC"/>
<path d="M103.407 71.3066C106.379 71.3066 108.789 68.9049 108.789 65.9424C108.789 62.9798 106.379 60.5781 103.407 60.5781C100.435 60.5781 98.0254 62.9798 98.0254 65.9424C98.0254 68.9049 100.435 71.3066 103.407 71.3066Z" fill="#CCCCCC"/>
<path d="M169.394 63.8428H116.277V65.0089H169.394V63.8428Z" fill="#CCCCCC"/>
<path d="M169.394 66.875H116.277V68.0411H169.394V66.875Z" fill="#CCCCCC"/>
<path d="M4.09319 188.261L6.44742 188.537C8.30697 189.655 10.4896 190.075 12.9069 189.99C13.2443 189.979 13.5732 189.882 13.861 189.706C14.1489 189.53 14.3856 189.282 14.5478 188.987C14.6885 188.728 14.7674 188.441 14.7783 188.146C14.7892 187.852 14.7318 187.559 14.6106 187.291C14.4894 187.022 14.3077 186.785 14.0796 186.598C13.8515 186.411 13.5831 186.279 13.2954 186.212L11.5065 185.797L7.19008 181.589L4.58605 176.892L0.803489 177.324L0.0160427 183.291C-0.083851 184.484 0.28555 185.67 1.04627 186.598C1.80699 187.525 2.89951 188.122 4.09319 188.261Z" fill="#2F2E41"/>
<path d="M40.7589 185.243L43.0663 185.784C44.786 187.105 46.9063 187.771 49.3176 187.961C49.654 187.989 49.992 187.929 50.298 187.787C50.6041 187.645 50.8676 187.426 51.0624 187.151C51.2319 186.91 51.3431 186.633 51.3876 186.342C51.4321 186.051 51.4085 185.753 51.3188 185.473C51.2291 185.192 51.0757 184.936 50.8704 184.724C50.6651 184.513 50.4136 184.351 50.1354 184.252L48.4057 183.636L44.5984 178.966L42.5483 174.003H38.7409L37.2765 179.841C37.0408 181.016 37.2723 182.236 37.922 183.244C38.5718 184.252 39.589 184.968 40.7589 185.243Z" fill="#2F2E41"/>
<path d="M42.651 174.332L38.3455 174.993L31.556 140.826L19.7985 120.854L5.55703 178.954L0.257886 179.944C0.852095 147.226 -2.04816 106.035 4.56344 101.047L33.3775 104.348L45.963 138.02L42.651 174.332Z" fill="#2F2E41"/>
<path d="M21.7855 50.2102C27.273 50.2102 31.7214 45.7763 31.7214 40.3068C31.7214 34.8372 27.273 30.4033 21.7855 30.4033C16.2981 30.4033 11.8496 34.8372 11.8496 40.3068C11.8496 45.7763 16.2981 50.2102 21.7855 50.2102Z" fill="#FFB8B8"/>
<path d="M7.875 55.4914L19.7981 57.4721L22.7791 46.9083L14.1678 44.2676L7.875 55.4914Z" fill="#FFB8B8"/>
<path d="M2.90723 102.368L34.7021 105.339C32.1531 96.5045 29.8177 87.7012 31.7213 78.9297C34.1386 71.0989 31.8054 66.4421 25.4286 62.7541L21.123 53.1808L9.53118 51.8604C6.46144 56.7798 5.20573 62.6111 5.97965 68.3529C7.63135 80.8388 7.18531 92.4251 2.90723 102.368Z" fill="#0564FF"/>
<path d="M17.8784 29.067C21.2718 28.8334 25.1951 28.7689 25.6864 29.6598C29.2003 29.496 32.2606 30.7177 33.6722 33.5609C33.7928 33.807 33.8577 34.0766 33.8624 34.3505C33.8672 34.6243 33.8116 34.8959 33.6996 35.1461C33.5877 35.3963 33.422 35.6189 33.2144 35.7984C33.0068 35.9779 32.7622 36.1097 32.4979 36.1848C30.7153 36.6971 27.9982 37.3308 26.0158 37.1284C21.8985 41.9531 23.6308 50.7529 27.6272 55.8938L24.0159 56.6316L17.1632 47.1196L19.3255 57.5899L10.9862 58.9494L8.07761 45.6435C7.46608 42.4851 7.61914 39.2269 8.52407 36.1393C8.62075 35.8275 8.73737 35.5221 8.87323 35.2252C9.67649 33.4839 10.9379 31.9919 12.5234 30.9077C14.1089 29.8234 15.9594 29.1874 17.8784 29.067Z" fill="#2F2E41"/>
<path d="M23.4413 112.271L23.2216 119.935C23.1914 120.992 23.5638 122.02 24.264 122.814C24.9642 123.608 25.9401 124.107 26.9951 124.213C27.6709 124.28 28.3529 124.183 28.9826 123.929C29.6123 123.676 30.1708 123.273 30.61 122.757C31.0492 122.241 31.3559 121.626 31.5039 120.965C31.6519 120.304 31.6366 119.618 31.4594 118.964L29.7341 112.601L24.7661 85.5321L25.0973 69.6866L14.499 69.3564L16.4862 87.1826L23.4413 112.271Z" fill="#FFB8B8"/>
<path d="M13.8369 71.0069C17.6767 69.5491 21.9202 69.5491 25.76 71.0069L25.0976 57.8023C25.0976 56.4015 24.5393 55.0581 23.5455 54.0675C22.5517 53.077 21.2039 52.5205 19.7985 52.5205C18.393 52.5205 17.0452 53.077 16.0514 54.0675C15.0576 55.0581 14.4993 56.4015 14.4993 57.8023L13.8369 71.0069Z" fill="#0564FF"/>
</svg>
