<svg width="277" height="205" viewBox="0 0 277 205" fill="none" xmlns="http://www.w3.org/2000/svg">
<g clip-path="url(#clip0)">
<path opacity="0.1" d="M117.687 13.7613C108.599 10.07 98.9951 6.97959 89.1907 7.37291C74.7652 7.93968 60.9486 16.6025 54.1613 29.3231C48.4107 40.099 47.7017 52.7317 45.2249 64.6901C42.1736 79.4261 36.3301 93.4292 30.0856 107.125C26.731 114.471 23.1931 121.995 22.643 130.059C21.8777 141.253 27.2347 152.41 35.6332 159.864C44.0318 167.317 55.1931 171.238 66.3838 172.096C72.3423 172.552 78.5672 172.13 83.8606 169.359C89.4596 166.428 93.5403 161.129 99.1613 158.241C104.372 155.554 110.465 155.188 116.313 155.537C123.973 155.995 131.522 157.598 138.707 160.291C146.88 163.359 154.482 167.801 162.638 170.911C170.795 174.021 179.907 175.758 188.244 173.161C196.068 170.718 202.264 164.806 207.846 158.808C217.008 148.964 225.364 138.401 232.834 127.221C237.868 119.686 242.553 111.737 244.78 102.954C249.034 86.1663 243.178 67.2234 230.186 55.7561C219.428 46.2578 204.98 42.134 190.841 39.6324C177.949 37.3507 163.042 37.209 151.174 31.2628C139.853 25.5829 129.555 18.5837 117.687 13.7613Z" fill="#0564FF"/>
<path d="M213.005 29.3817C209.513 29.5209 209.337 38.5282 209.555 38.9215C209.773 39.3148 208.763 43.38 208.763 43.38C208.763 43.38 207.178 49.5436 207.362 50.6893C207.545 51.8351 206.509 52.5851 206.509 52.5851C204.958 53.1958 203.015 55.1649 202.499 55.7048L202.369 55.844C202.369 55.844 200.868 56.8212 200.604 57.2072C200.34 57.5932 199.626 57.2854 199.626 57.2854C199.626 57.2854 197.597 57.0899 197.333 57.1681C197.152 57.2219 196.868 56.8896 196.707 56.6795C196.631 56.5794 196.582 56.5036 196.582 56.5036L196.521 54.6861C196.444 54.6278 196.362 54.5771 196.276 54.5346C196.318 54.3294 196.369 54.1168 196.433 53.8994C197.345 53.4548 198.115 52.7643 198.655 51.9059C198.714 51.8131 198.768 51.7178 198.819 51.6226C198.954 51.7163 199.117 51.7619 199.281 51.752C199.353 51.754 199.426 51.7475 199.496 51.7325C199.724 51.671 199.937 51.5638 200.122 51.4173C200.627 51.0771 201.029 50.6058 201.286 50.0542C201.331 49.9489 201.368 49.8402 201.396 49.7293C201.359 49.7903 201.32 49.8514 201.281 49.91C201.377 49.6524 201.415 49.3769 201.393 49.1029C201.37 48.829 201.288 48.5633 201.152 48.3245C200.961 48.0167 200.663 47.7675 200.54 47.4255C200.335 46.8368 200.724 46.2285 200.963 45.6519C201.195 45.1274 201.271 44.5472 201.181 43.9809C201.133 43.6972 201.028 43.4261 200.873 43.1838C200.717 42.9416 200.514 42.7333 200.276 42.5713C199.315 41.9484 198.012 42.2904 196.9 41.9899C196.502 41.8611 196.114 41.7052 195.738 41.5233C195.167 41.277 194.571 41.0919 193.961 40.9712C193.357 40.8515 192.626 40.8393 192.249 41.3108C192.144 41.4604 192.051 41.6181 191.971 41.7822C191.849 41.9786 191.69 42.149 191.503 42.2836C191.315 42.4182 191.103 42.5143 190.878 42.5664C190.656 42.6085 190.431 42.6322 190.205 42.6373C190.226 42.5455 190.226 42.4505 190.205 42.3588C189.922 41.4305 190.733 40.7415 191.79 40.3262C192.846 39.9109 196.863 36.7497 197.33 35.9997C197.797 35.2497 201.066 32.8971 201.066 32.8971C201.066 32.8971 205.956 31.5144 207.56 26.477C209.164 21.4396 199.888 29.9949 198.954 30.2514C198.02 30.5079 196.682 31.4729 196.682 31.4729L190.733 34.9102C189.599 35.5496 188.526 36.2904 187.526 37.1235C186.086 38.367 185.174 40.4801 185.174 40.4801C185.174 40.4801 184.604 41.4085 183.773 42.7521C183.314 43.5178 182.695 44.1754 181.958 44.6796L181.985 44.6308C181.919 44.7114 179.873 47.2936 179.692 48.4223C179.511 49.5509 178.677 54.151 178.677 54.151C178.677 54.151 177.944 57.7642 177.44 58.4751C177.44 58.4751 177.032 60.5492 176.79 60.8277C176.548 61.1062 175.567 64.0451 175.733 64.3431C175.733 64.3431 174.8 66.3781 174.963 67.1477L173.279 71.1786C173.279 71.1786 172.364 73.1721 172.425 74.3374C172.455 74.9017 172.479 75.5589 172.496 76.0963C172.496 76.1818 172.496 76.2624 172.496 76.3406C172.496 76.4261 172.496 76.5092 172.496 76.5849C172.406 76.7364 172.174 77.1224 171.932 77.589C171.584 78.2681 171.215 79.1158 171.237 79.6386C171.276 80.5572 171.279 82.7998 170.856 83.6231L170.731 83.5743C170.583 83.8199 170.499 84.0988 170.487 84.3853L170.516 84.4C170.516 84.4708 170.494 84.5441 170.487 84.6223C170.384 85.558 170.533 86.8601 170.298 87.1459C169.973 87.5417 170.134 96.312 170.134 96.312C170.134 96.312 169.606 101.801 170.663 105.28L170.582 108.004C170.582 108.004 170.54 110.572 170.663 110.936C170.785 111.3 170.826 113.899 170.826 113.899L171.435 118.245C171.435 118.245 170.621 124.961 171.313 126.62C171.714 127.535 171.962 128.509 172.046 129.505C172.399 129.698 172.775 129.844 173.166 129.937V130.181L173.007 134.266V134.491C173.007 134.491 172.988 134.598 172.973 134.777C172.973 134.808 172.973 134.843 172.973 134.877C172.972 134.887 172.972 134.896 172.973 134.906C172.973 134.933 172.973 134.962 172.973 134.992C172.972 135.014 172.972 135.036 172.973 135.058C172.974 135.077 172.974 135.097 172.973 135.116V135.165C172.973 135.265 172.973 135.373 172.973 135.485C172.973 135.529 172.973 135.575 172.973 135.622C172.973 135.668 172.973 135.649 172.973 135.661V135.722C172.973 135.749 172.973 135.776 172.973 135.803V135.842C172.973 135.883 172.985 135.922 172.993 135.964C172.991 135.974 172.991 135.983 172.993 135.993C172.993 136.04 173.01 136.084 173.02 136.128C173.02 136.172 173.039 136.216 173.051 136.26C173.052 136.264 173.052 136.269 173.051 136.274C173.051 136.296 173.064 136.321 173.071 136.343C173.07 136.353 173.07 136.364 173.071 136.374C173.071 136.401 173.088 136.428 173.095 136.457V136.477C173.12 136.545 173.144 136.614 173.174 136.682C173.173 136.689 173.173 136.697 173.174 136.704C173.174 136.729 173.196 136.755 173.208 136.78L173.222 136.814L173.254 136.88L173.274 136.917L173.308 136.978L173.33 137.014C173.33 137.034 173.352 137.053 173.364 137.073C173.377 137.093 173.381 137.097 173.389 137.112L173.425 137.168L173.452 137.205L173.491 137.261L173.521 137.298L173.565 137.352L173.594 137.386L173.645 137.444L173.672 137.474L173.755 137.554C173.763 137.564 173.772 137.572 173.782 137.579C173.802 137.599 173.822 137.617 173.844 137.635L173.883 137.667L173.936 137.711L173.983 137.745L174.037 137.784L174.088 137.818L174.142 137.852L174.198 137.884L174.254 137.918L174.313 137.948L174.374 137.977L174.435 138.006L174.496 138.033L174.562 138.06L174.628 138.084L174.697 138.109L174.77 138.131L174.885 138.165L174.98 138.189L175.056 138.204L175.134 138.221H175.218L175.298 138.233H175.384H175.469H175.557H175.648H175.738H176.125H176.237H176.33L176.462 138.221H176.543L176.765 138.197C176.765 138.197 179.535 138.61 179.626 137.515C179.626 137.459 179.626 137.4 179.638 137.339V137.2C179.637 137.183 179.637 137.166 179.638 137.149C179.638 137.095 179.638 137.036 179.638 136.978V136.951C179.638 136.89 179.638 136.829 179.638 136.765V136.633C179.638 136.526 179.638 136.416 179.638 136.306C179.638 136.264 179.638 136.225 179.638 136.184C179.638 136.071 179.638 135.961 179.638 135.852V135.834C179.638 135.808 179.638 135.786 179.638 135.759C179.621 135.216 179.594 134.713 179.577 134.432C179.577 134.283 179.562 134.188 179.562 134.188C179.562 134.188 178.619 132.766 178.773 132.233C178.927 131.701 178.892 129.893 178.892 129.893C178.892 129.893 178.526 129.026 178.279 128.259C178.259 128.2 178.242 128.141 178.225 128.085C178.43 127.851 178.622 127.606 178.802 127.352C179.153 125.469 178.912 123.524 178.112 121.782C178.066 121.75 178.029 121.708 178.003 121.658C177.977 121.608 177.963 121.553 177.963 121.497C177.962 121.487 177.962 121.477 177.963 121.467L178.435 115.699L178.149 112.343C178.149 112.343 177.946 110.049 178.394 109.062L179.286 100.372L180.553 95.3177C180.553 95.3177 180.958 95.1198 181.286 96.0701C181.614 97.0204 182.421 101.322 182.421 101.322L184.377 108.434C184.377 108.434 184.702 110.962 184.985 111.319C185.269 111.676 185.271 113.254 185.271 113.254C185.271 113.254 185.88 114.519 185.8 115.072C185.719 115.624 185.8 117.126 186 117.639C186.2 118.152 186.286 121.792 186.286 121.792C186.052 122.983 186.08 124.21 186.367 125.388C186.856 127.206 186.57 129.497 186.57 129.497C186.621 129.577 186.677 129.653 186.736 129.727C186.716 129.781 186.694 129.834 186.675 129.883C186.548 130.213 186.447 130.445 186.447 130.445C186.447 130.445 186.418 132.253 186.57 132.786C186.721 133.318 185.777 134.74 185.777 134.74C185.777 134.74 185.777 134.828 185.763 134.984C185.746 135.265 185.719 135.766 185.702 136.311C185.702 136.335 185.702 136.36 185.702 136.387V136.406V136.733C185.702 136.775 185.702 136.817 185.702 136.858C185.702 136.968 185.702 137.078 185.702 137.185C185.702 137.205 185.702 137.227 185.702 137.246C185.702 137.266 185.702 137.278 185.702 137.293V137.315C185.702 137.378 185.702 137.442 185.702 137.503V137.53C185.702 137.588 185.702 137.647 185.702 137.703C185.701 137.719 185.701 137.734 185.702 137.75C185.702 137.796 185.702 137.845 185.702 137.891C185.702 137.938 185.702 138.011 185.714 138.067C185.807 139.162 188.577 138.749 188.577 138.749L188.799 138.776H188.878H189.012H189.103H189.218H189.599H189.689H189.78H189.868H189.954H190.037L190.12 138.761L190.2 138.749L190.279 138.732L190.357 138.717L190.452 138.693L190.567 138.659L190.638 138.637L190.707 138.612C190.729 138.605 190.751 138.597 190.773 138.588L190.839 138.561L190.902 138.534L190.963 138.507L191.024 138.475L191.081 138.446L191.139 138.414L191.193 138.38L191.249 138.346L191.298 138.312L191.352 138.273C191.369 138.263 191.384 138.251 191.399 138.238C191.417 138.226 191.435 138.212 191.452 138.197L191.494 138.163L191.555 138.109L191.582 138.082L191.665 138.001L191.689 137.972L191.743 137.916L191.77 137.879C191.787 137.862 191.802 137.844 191.817 137.825L191.844 137.789L191.885 137.733L191.91 137.696L191.949 137.64C191.956 137.626 191.964 137.613 191.973 137.601C191.973 137.581 191.995 137.562 192.007 137.542L192.029 137.505C192.029 137.483 192.051 137.464 192.061 137.444C192.069 137.433 192.075 137.42 192.081 137.408C192.081 137.386 192.103 137.364 192.112 137.342L192.13 137.308C192.13 137.283 192.152 137.259 192.164 137.232V137.21C192.191 137.141 192.218 137.073 192.24 137.005V136.985C192.24 136.958 192.257 136.931 192.266 136.904C192.265 136.893 192.265 136.882 192.266 136.87C192.266 136.848 192.266 136.824 192.286 136.802V136.79C192.287 136.785 192.287 136.78 192.286 136.775C192.286 136.731 192.311 136.687 192.32 136.646C192.32 136.602 192.34 136.558 192.347 136.514V136.482C192.347 136.44 192.362 136.401 192.367 136.362C192.372 136.323 192.367 136.335 192.367 136.321C192.367 136.306 192.367 136.267 192.367 136.24C192.367 136.213 192.367 136.198 192.367 136.179C192.367 136.159 192.367 136.154 192.367 136.14C192.367 136.125 192.367 136.049 192.367 136.003C192.367 135.891 192.367 135.783 192.367 135.683V135.575C192.366 135.554 192.366 135.531 192.367 135.51C192.367 135.48 192.367 135.453 192.367 135.424C192.366 135.414 192.366 135.404 192.367 135.395C192.367 135.361 192.367 135.326 192.367 135.297C192.352 135.119 192.335 135.011 192.335 135.011V134.789L192.181 130.836V130.592C192.408 130.465 192.641 130.321 192.883 130.152C192.883 130.152 192.841 127.9 193.491 126.993C194.142 126.087 193.166 123.712 193.166 123.712L192.76 115.218L192.922 111.309C192.6 110.73 192.431 110.077 192.433 109.414C192.368 108.566 192.148 107.738 191.782 106.971C191.782 106.971 191.377 105.627 191.866 105.231C192.355 104.835 191.337 96.1922 191.337 96.1922C191.337 96.1922 191.582 89.8771 191.117 86.1272V86.0661L191.247 86.0075C191.208 85.707 191.166 85.426 191.12 85.1646L190.983 85.2062C190.925 84.8749 190.844 84.5483 190.738 84.229L190.088 81.2461C190.088 81.2461 190.073 81.0897 190.056 80.8626C190.034 80.5938 190.01 80.2298 190.005 79.9098C190.003 79.7749 190.018 79.6403 190.049 79.5091L190.015 79.4798C190.018 79.4095 190.029 79.3398 190.049 79.2722L189.907 79.1525C189.907 79.1525 189.888 79.0181 189.873 78.8129C189.841 78.3585 189.824 77.567 190.049 77.1199C190.374 76.4676 193.716 73.9978 193.716 73.9978L195.589 70.2527C195.589 70.2527 197.457 67.6241 198.878 67.111C200.298 66.598 204.724 63.6567 204.724 63.6567C204.724 63.6567 206.266 62.0761 206.389 61.7023L206.44 61.6241H206.469V61.5728L210.626 55.3505C212.288 54.0069 212.35 51.1437 212.35 51.1437L212.782 44.6014L212.641 40.7318L212.841 38.5331C212.841 38.5331 216.494 29.2449 213.005 29.3817ZM189.196 46.3115C188.744 47.1018 188.506 47.996 188.506 48.906C188.506 48.9499 188.506 48.9939 188.506 49.0379C188.506 49.0819 188.506 49.1087 188.506 49.1429C188.506 49.9556 188.696 50.757 189.061 51.4833C188.876 51.69 188.739 51.9342 188.658 52.1991C188.452 51.9401 187.851 51.1486 187.817 50.6234C187.775 49.9931 187.166 49.5582 187.166 49.5582C187.166 49.5582 187.054 48.3612 187.205 48.156L187.227 48.1364C187.227 48.1364 187.244 48.1071 187.279 48.0583C187.452 47.7969 188.037 46.9149 188.641 45.9109C188.741 45.9538 188.845 45.9881 188.951 46.0135L189.323 46.1063L189.196 46.3115Z" fill="url(#paint0_linear)"/>
<path d="M201.039 45.6519C201.076 45.5689 201.105 45.4809 201.134 45.393C201.041 45.5874 200.959 45.7873 200.89 45.9915C200.941 45.8767 200.993 45.7643 201.039 45.6519Z" fill="url(#paint1_linear)"/>
<path d="M190.281 51.4613C190.281 51.4613 189.516 55.1062 188.105 55.5777C186.694 56.0492 189.817 60.2194 189.817 60.2194L196.288 59.8652L196.406 58.5142C196.406 58.5142 195.183 55.8098 197.23 52.5191C199.276 49.2284 190.281 51.4613 190.281 51.4613Z" fill="#F6BAC2"/>
<path d="M180.132 137.52C180.044 138.607 177.367 138.197 177.367 138.197C172.927 138.812 173.66 134.464 173.66 134.464V134.242L173.814 130.186L173.858 129.055C173.858 129.055 178.748 126.822 178.623 127.291C178.577 127.467 178.68 127.89 178.821 128.347C179.066 129.106 179.416 129.966 179.416 129.966C179.416 129.966 179.445 131.76 179.298 132.287C179.152 132.815 180.064 134.227 180.064 134.227C180.064 134.227 180.064 134.315 180.078 134.471C180.151 135.486 180.169 136.504 180.132 137.52Z" fill="#B77983"/>
<path d="M188.692 138.695C188.692 138.695 186.015 139.108 185.927 138.018C185.886 137 185.901 135.979 185.973 134.962C185.973 134.816 185.985 134.718 185.985 134.718C185.985 134.718 186.897 133.306 186.751 132.778C186.604 132.251 186.633 130.455 186.633 130.455C186.633 130.455 186.729 130.228 186.853 129.9C187.115 129.214 187.509 128.1 187.428 127.782C187.31 127.311 192.193 129.544 192.193 129.544L192.242 130.809L192.391 134.73V134.953C192.391 134.953 193.134 139.313 188.692 138.695Z" fill="#B77983"/>
<path d="M207.046 27.3418C205.491 32.3377 200.773 33.7106 200.773 33.7106C200.773 33.7106 197.614 36.051 197.164 36.7839C196.714 37.5168 192.831 40.6634 191.809 41.0762C190.787 41.4891 190.007 42.1731 190.281 43.0917C190.526 43.9443 187.851 48.1169 187.447 48.7374L187.399 48.8156L186.555 49.6975L183.692 51.1462L181.359 50.4011L181.064 47.6014L182.301 45.4027C183.016 44.8989 183.614 44.2463 184.054 43.4899C184.858 42.156 185.408 41.2374 185.408 41.2374C185.408 41.2374 186.291 39.1414 187.682 37.9052C188.645 37.0784 189.682 36.3424 190.78 35.7065L196.528 32.2864C196.528 32.2864 197.822 31.3263 198.729 31.0649C199.636 30.8035 208.597 22.3459 207.046 27.3418Z" fill="#F6BAC2"/>
<path opacity="0.05" d="M183.692 49.3457L187.516 48.5811C187.474 48.6239 187.45 48.6803 187.447 48.7398L187.399 48.818L186.555 49.6999L183.692 51.1486L181.359 50.4035L181.064 47.6039L182.301 45.4052C181.13 47.8482 182.271 49.5827 182.271 49.5827L183.692 49.3457Z" fill="black"/>
<path opacity="0.05" d="M206.054 61.9661C206.043 61.9916 206.034 62.0177 206.027 62.0443C205.991 62.1316 205.943 62.2138 205.885 62.2886L204.342 63.041L201.988 63.2853L200.765 60.3269L201.579 57.085L202.029 56.4792L202.154 56.3424C202.2 56.9287 202.438 59.9873 202.423 60.9059C202.403 61.9246 203.156 62.0052 203.156 62.0052L206.054 61.9661Z" fill="black"/>
<path d="M205.936 62.1909C205.926 62.2164 205.917 62.2425 205.91 62.2691C205.792 62.6404 204.303 64.2088 204.303 64.2088C204.303 64.2088 200.027 67.1281 198.655 67.6289C197.284 68.1298 195.477 70.7437 195.477 70.7437L193.672 74.4644C193.672 74.4644 190.438 76.9074 190.125 77.5621C189.907 78.0067 189.924 78.7836 189.956 79.2429C189.956 79.4456 189.985 79.58 189.985 79.58L189.032 80.5743L188.271 81.3658L187.2 82.4798L185.457 82.2355L180.024 81.3731L178.983 80.7868L173.2 77.5328C173.2 77.5328 173.2 77.33 173.186 77.0198C173.186 76.8829 173.186 76.7266 173.171 76.5531C173.154 76.0255 173.13 75.3683 173.103 74.8089C173.044 73.6533 173.927 71.6745 173.927 71.6745L175.553 67.6754C175.396 66.9132 176.298 64.8928 176.298 64.8928C176.142 64.5997 177.083 61.6803 177.318 61.4067C177.553 61.1331 177.946 59.0736 177.946 59.0736C178.435 58.3701 179.142 54.7838 179.142 54.7838C179.142 54.7838 179.946 50.2374 180.12 49.1014C180.293 47.9654 182.271 45.4198 182.335 45.3417C180.924 47.9263 182.159 49.8074 182.159 49.8074L183.572 49.5631L187.399 48.818C187.222 48.9353 187.34 50.2276 187.34 50.2276C187.679 50.4851 187.903 50.8647 187.966 51.2854C188.002 51.8595 188.699 52.7512 188.829 52.91L188.848 52.932C188.898 52.6593 189.006 52.4005 189.165 52.1736C189.324 51.9466 189.53 51.757 189.77 51.6177L190.653 52.7952L190.949 54.2048C190.949 54.2048 190.868 54.4027 190.359 54.7935C189.851 55.1844 190.575 56.2031 190.575 56.2031C190.819 56.616 190.89 58.1429 190.89 58.1429C191.538 57.5761 192.555 57.5761 192.555 57.5761C192.969 57.1607 193.308 56.6762 193.555 56.1445C193.576 56.0575 193.616 55.9763 193.672 55.907C193.729 55.8377 193.801 55.7821 193.882 55.7445C193.963 55.7069 194.052 55.6881 194.141 55.6897C194.231 55.6913 194.319 55.7132 194.399 55.7536C194.694 55.4973 195.016 55.2737 195.359 55.0867C195.831 54.8424 196.379 55.331 196.379 55.331L196.438 57.1364C196.438 57.1364 196.484 57.2096 196.56 57.3098C196.714 57.5248 196.99 57.8546 197.164 57.7984C197.408 57.7202 199.379 57.9157 199.379 57.9157C199.379 57.9157 200.066 58.2088 200.32 57.8375C200.575 57.4662 202.032 56.4865 202.032 56.4865C202.032 56.4865 202.313 60.1241 202.313 61.1404C202.313 62.1567 203.046 62.2397 203.046 62.2397L205.936 62.1909Z" fill="#D39999"/>
<path d="M189.89 60.1608C190.084 60.1608 190.242 60.0033 190.242 59.809C190.242 59.6147 190.084 59.4572 189.89 59.4572C189.696 59.4572 189.538 59.6147 189.538 59.809C189.538 60.0033 189.696 60.1608 189.89 60.1608Z" fill="#4B4442"/>
<path d="M187.32 65.2763C187.515 65.2763 187.672 65.1188 187.672 64.9246C187.672 64.7303 187.515 64.5728 187.32 64.5728C187.126 64.5728 186.968 64.7303 186.968 64.9246C186.968 65.1188 187.126 65.2763 187.32 65.2763Z" fill="#4B4442"/>
<path d="M182.262 76.2282C182.456 76.2282 182.614 76.0707 182.614 75.8764C182.614 75.6821 182.456 75.5246 182.262 75.5246C182.067 75.5246 181.91 75.6821 181.91 75.8764C181.91 76.0707 182.067 76.2282 182.262 76.2282Z" fill="#4B4442"/>
<path d="M184.653 70.7022C184.847 70.7022 185.005 70.5447 185.005 70.3504C185.005 70.1561 184.847 69.9986 184.653 69.9986C184.458 69.9986 184.301 70.1561 184.301 70.3504C184.301 70.5447 184.458 70.7022 184.653 70.7022Z" fill="#4B4442"/>
<path opacity="0.05" d="M178.841 128.347C177.002 130.531 175.017 130.494 173.834 130.186L173.878 129.055C173.878 129.055 178.768 126.822 178.643 127.291C178.597 127.467 178.689 127.89 178.841 128.347Z" fill="black"/>
<path opacity="0.05" d="M192.242 130.819C189.12 132.622 187.289 130.509 186.863 129.91C187.125 129.224 187.518 128.11 187.438 127.792C187.32 127.321 192.203 129.554 192.203 129.554L192.242 130.819Z" fill="black"/>
<path d="M193.496 127.018C192.87 127.919 192.907 130.152 192.907 130.152C188.868 133.052 186.751 129.524 186.751 129.524C186.751 129.524 187.024 127.252 186.555 125.449C186.277 124.279 186.25 123.064 186.477 121.883C186.477 121.883 186.399 118.277 186.2 117.769C186.002 117.26 185.927 115.77 186.005 115.221C186.083 114.671 185.496 113.42 185.496 113.42C185.496 113.42 185.496 111.852 185.22 111.5C184.944 111.148 184.633 108.637 184.633 108.637L182.753 101.584C182.753 101.584 181.968 97.3136 181.655 96.373C181.342 95.4325 180.949 95.6279 180.949 95.6279L179.819 100.682L178.956 109.304C178.523 110.281 178.711 112.558 178.711 112.558L178.985 115.888L178.531 121.609C178.529 121.619 178.529 121.629 178.531 121.638C178.53 121.693 178.543 121.748 178.567 121.797C178.592 121.846 178.628 121.889 178.672 121.922C179.444 123.655 179.673 125.582 179.33 127.448C176.35 131.76 172.741 129.524 172.741 129.524C172.662 128.54 172.424 127.574 172.037 126.666C171.369 125.019 172.154 118.36 172.154 118.36L171.565 114.048C171.565 114.048 171.526 111.461 171.408 111.116C171.291 110.772 171.33 108.217 171.33 108.217L171.408 105.512C170.389 102.063 170.897 96.6173 170.897 96.6173C170.897 96.6173 170.741 87.9179 171.056 87.5246C171.284 87.2412 171.139 85.9513 171.237 85.0205C171.248 84.738 171.326 84.4621 171.467 84.2168L171.506 84.1777C172.017 83.5498 172.017 81.0433 171.976 80.0613C171.956 79.5433 172.31 78.703 172.648 78.0287C172.892 77.5548 173.115 77.1639 173.198 77.0222L173.232 76.966C173.232 76.966 175.467 77.5157 181.389 80.3373C182.449 80.8618 183.587 81.2139 184.758 81.3805C185.341 81.4583 185.931 81.4673 186.516 81.4073C187.408 81.3216 188.271 81.0414 189.044 80.5865C189.452 80.3537 189.821 80.0577 190.137 79.7095C190.056 79.9538 190.105 80.7893 190.137 81.2876C190.152 81.5148 190.169 81.6687 190.169 81.6687L190.822 84.5759C190.928 84.9206 191.01 85.2725 191.066 85.6288C191.112 85.8878 191.152 86.1687 191.188 86.4667C191.645 90.185 191.401 96.4512 191.401 96.4512C191.401 96.4512 192.379 105.033 191.912 105.424C191.445 105.815 191.831 107.149 191.831 107.149C192.186 107.914 192.399 108.737 192.46 109.577C192.456 110.234 192.619 110.881 192.932 111.458L192.773 115.338L193.183 123.754C193.183 123.754 194.125 126.116 193.496 127.018Z" fill="#8499F0"/>
<path opacity="0.05" d="M188.897 112.831C188.897 112.831 191.868 111.121 192.516 111.891C193.164 112.66 188.897 112.831 188.897 112.831Z" fill="black"/>
<path opacity="0.05" d="M190.692 113.772C190.692 113.772 190.203 114.016 191.281 114.329C192.359 114.642 190.692 113.772 190.692 113.772Z" fill="black"/>
<path opacity="0.05" d="M172.729 109.069C172.628 109.099 175.201 110.804 177.523 109.392C177.513 109.392 173.308 108.893 172.729 109.069Z" fill="black"/>
<path opacity="0.05" d="M177.396 112.331C177.396 112.331 176.692 113.713 175.249 113.918C173.807 114.124 177.396 112.331 177.396 112.331Z" fill="black"/>
<path opacity="0.05" d="M186.839 115.331C186.839 115.331 190.223 120.705 189.575 121.973C188.927 123.241 186.839 115.331 186.839 115.331Z" fill="black"/>
<path opacity="0.05" d="M181.132 82.7339L180.78 93.2558C180.78 93.2558 182.868 93.1678 183.225 89.7012C183.582 86.2347 183.844 83.4106 183.844 83.4106L181.132 82.7339Z" fill="black"/>
<path d="M181.015 82.4993L180.663 93.0213C180.663 93.0213 182.751 92.9333 183.108 89.4643C183.465 85.9952 183.731 83.176 183.731 83.176L181.015 82.4993Z" fill="#8499F0"/>
<path opacity="0.05" d="M176.78 82.9708C176.78 82.9708 175.132 87.3853 171.362 85.2477C171.372 84.9651 171.451 84.6892 171.592 84.4439C172.623 84.8764 175.015 85.5091 175.993 82.6459L176.78 82.9708Z" fill="black"/>
<path opacity="0.05" d="M176.663 82.4993C176.663 82.4993 175.015 86.9138 171.244 84.7762C171.255 84.4936 171.334 84.2178 171.474 83.9725C172.506 84.4073 174.897 85.0376 175.875 82.1769L176.663 82.4993Z" fill="black"/>
<path d="M176.663 82.7339C176.663 82.7339 175.015 87.1483 171.244 85.0107C171.255 84.7282 171.334 84.4524 171.474 84.207C172.506 84.6418 174.897 85.2721 175.875 82.4114L176.663 82.7339Z" fill="#8499F0"/>
<path opacity="0.05" d="M191.088 86.7013C186.946 88.6703 185.428 84.0287 185.428 84.0287L186.406 84.058C186.577 87.0262 189.851 86.2273 190.973 85.8633C191.012 86.1321 191.051 86.4032 191.088 86.7013Z" fill="black"/>
<path opacity="0.05" d="M191.323 86.3495C187.183 88.3161 185.663 83.6744 185.663 83.6744L186.641 83.7037C186.812 86.672 190.086 85.8755 191.208 85.5115C191.247 85.7705 191.286 86.0514 191.323 86.3495Z" fill="black"/>
<path d="M191.205 86.4667C187.066 88.4333 185.545 83.7917 185.545 83.7917L186.523 83.821C186.694 86.7917 189.968 85.9928 191.09 85.6288C191.13 85.8878 191.169 86.1687 191.205 86.4667Z" fill="#8499F0"/>
<path opacity="0.1" d="M176.663 82.7339C176.663 82.7339 175.015 87.1483 171.244 85.0107C171.255 84.7282 171.334 84.4524 171.474 84.207C172.506 84.6418 174.897 85.2721 175.875 82.4114L176.663 82.7339Z" fill="white"/>
<path opacity="0.1" d="M191.205 86.4667C187.066 88.4333 185.545 83.7917 185.545 83.7917L186.523 83.821C186.694 86.7917 189.968 85.9928 191.09 85.6288C191.13 85.8878 191.169 86.1687 191.205 86.4667Z" fill="white"/>
<path opacity="0.05" d="M180.161 136.702C180.161 137.002 180.161 137.283 180.132 137.515C180.044 138.602 177.367 138.192 177.367 138.192C174.922 138.531 174.042 137.359 173.751 136.238C173.659 135.873 173.614 135.499 173.616 135.124C173.615 134.9 173.629 134.676 173.66 134.454V134.232C173.92 134.154 174.194 134.141 174.46 134.195C174.725 134.249 174.973 134.369 175.181 134.542C176.269 135.424 177.711 134.747 177.711 134.747C177.711 134.747 178.77 134.835 179.178 135.187C179.408 135.385 179.787 134.909 180.076 134.454C180.093 134.747 180.12 135.277 180.137 135.844C180.156 136.135 180.161 136.428 180.161 136.702Z" fill="black"/>
<path opacity="0.05" d="M175.868 136.638C175.868 136.638 175.134 137.356 173.751 136.247C173.659 135.883 173.614 135.509 173.616 135.133C174.323 135.671 175.633 136.638 175.868 136.638Z" fill="black"/>
<path opacity="0.05" d="M180.161 136.702C180.102 136.748 180.033 136.781 179.96 136.8C179.887 136.818 179.811 136.822 179.737 136.81C179.662 136.798 179.591 136.771 179.527 136.73C179.464 136.69 179.409 136.637 179.367 136.575C179.652 136.358 179.914 136.112 180.149 135.842C180.156 136.135 180.161 136.428 180.161 136.702Z" fill="black"/>
<path opacity="0.05" d="M185.9 137.205C185.9 137.508 185.9 137.789 185.927 138.018C186.015 139.108 188.692 138.695 188.692 138.695C191.137 139.037 192.017 137.865 192.308 136.741C192.452 136.158 192.483 135.552 192.399 134.957V134.735C192.139 134.658 191.864 134.646 191.598 134.7C191.333 134.755 191.084 134.873 190.875 135.045C189.787 135.927 188.347 135.251 188.347 135.251C188.347 135.251 187.289 135.341 186.88 135.693C186.65 135.891 186.271 135.414 185.985 134.96C185.968 135.253 185.939 135.783 185.922 136.35C185.902 136.636 185.897 136.929 185.9 137.205Z" fill="black"/>
<path opacity="0.05" d="M190.193 137.137C190.193 137.137 190.927 137.855 192.308 136.746C192.4 136.382 192.446 136.009 192.445 135.634C191.736 136.169 190.425 137.137 190.193 137.137Z" fill="black"/>
<path opacity="0.05" d="M185.9 137.205C185.959 137.251 186.028 137.284 186.1 137.303C186.173 137.321 186.249 137.325 186.323 137.313C186.398 137.301 186.469 137.274 186.532 137.233C186.595 137.193 186.65 137.14 186.692 137.078C186.406 136.861 186.144 136.616 185.91 136.345C185.902 136.636 185.897 136.929 185.9 137.205Z" fill="black"/>
<path opacity="0.05" d="M182.672 62.1909C182.672 62.1909 178.907 72.576 180.357 73.4775C181.807 74.3789 182.672 62.1909 182.672 62.1909Z" fill="black"/>
<path opacity="0.05" d="M185.418 58.9857C185.418 58.9857 184.709 62.4352 185.064 62.7479C185.418 63.0606 185.418 58.9857 185.418 58.9857Z" fill="black"/>
<path opacity="0.05" d="M193.022 67.0206C193.022 67.0206 188.394 71.33 188.707 71.6843C189.02 72.0385 193.022 67.0206 193.022 67.0206Z" fill="black"/>
<path opacity="0.05" d="M196.56 57.5346C194.807 58.0696 190.709 59.3204 190.663 59.3106L190.89 58.3774C191.538 57.8106 192.555 57.8106 192.555 57.8106C192.969 57.3952 193.308 56.9108 193.555 56.379C193.576 56.292 193.616 56.2108 193.672 56.1415C193.729 56.0722 193.801 56.0167 193.882 55.979C193.963 55.9414 194.052 55.9227 194.141 55.9243C194.231 55.9258 194.319 55.9477 194.399 55.9882C194.695 55.7328 195.017 55.5092 195.359 55.3212C195.831 55.0769 196.379 55.5655 196.379 55.5655L196.438 57.3685C196.438 57.3685 196.484 57.4344 196.56 57.5346Z" fill="black"/>
<path d="M196.56 57.3049C194.807 57.8399 190.709 59.0907 190.663 59.0785L190.89 58.1478C191.538 57.581 192.555 57.581 192.555 57.581C192.969 57.1656 193.308 56.6811 193.555 56.1494C193.576 56.0624 193.616 55.9811 193.672 55.9119C193.729 55.8426 193.801 55.787 193.882 55.7494C193.963 55.7118 194.052 55.693 194.141 55.6946C194.231 55.6962 194.319 55.7181 194.399 55.7585C194.694 55.5022 195.016 55.2786 195.359 55.0916C195.831 54.8473 196.379 55.3359 196.379 55.3359L196.438 57.1412C196.438 57.1412 196.484 57.1999 196.56 57.3049Z" fill="#D39999"/>
<path opacity="0.05" d="M190.457 56.3277C190.702 56.7406 190.77 58.2674 190.77 58.2674L190.088 58.8098L188.792 55.0769L188.734 53.1372L188.709 53.0273L188.729 53.0492C188.778 52.7767 188.885 52.5182 189.045 52.2916C189.204 52.065 189.41 51.8759 189.65 51.7374L190.533 52.9124L190.829 54.322C190.829 54.322 190.748 54.5199 190.24 54.9108C189.731 55.3017 190.457 56.3277 190.457 56.3277Z" fill="black"/>
<path d="M190.577 56.2031C190.822 56.616 190.892 58.1429 190.892 58.1429L190.21 58.6925L188.914 54.9597L188.856 53.0199L188.829 52.91L188.848 52.932C188.898 52.6593 189.006 52.4005 189.165 52.1736C189.324 51.9466 189.53 51.757 189.77 51.6177L190.653 52.7952L190.949 54.2048C190.949 54.2048 190.868 54.4027 190.359 54.7935C189.851 55.1844 190.577 56.2031 190.577 56.2031Z" fill="#D39999"/>
<path opacity="0.05" d="M199.222 49.8172C199.222 50.8632 198.911 51.8855 198.329 52.755C197.747 53.6244 196.92 54.302 195.953 54.7019C194.986 55.1018 193.922 55.2062 192.895 55.0019C191.868 54.7975 190.925 54.2936 190.185 53.5538C189.445 52.814 188.941 51.8716 188.737 50.8457C188.533 49.8198 188.638 48.7565 189.039 47.7902C189.44 46.8239 190.118 45.998 190.988 45.4169C191.859 44.8358 192.882 44.5257 193.929 44.5257C194.626 44.5198 195.317 44.6527 195.962 44.9166C196.607 45.1805 197.193 45.5701 197.686 46.0626C198.179 46.5552 198.568 47.1409 198.832 47.7855C199.096 48.4301 199.229 49.1208 199.222 49.8172Z" fill="black"/>
<path d="M199.223 49.5802C199.223 50.627 198.913 51.6504 198.331 52.5209C197.749 53.3915 196.922 54.0701 195.954 54.4709C194.987 54.8717 193.922 54.9767 192.894 54.7726C191.867 54.5685 190.923 54.0645 190.182 53.3243C189.441 52.5841 188.937 51.6411 188.732 50.6144C188.528 49.5877 188.633 48.5236 189.034 47.5566C189.436 46.5896 190.115 45.7632 190.986 45.1819C191.857 44.6007 192.881 44.2907 193.929 44.2912C194.625 44.2873 195.315 44.4214 195.959 44.6859C196.603 44.9503 197.188 45.3397 197.681 45.8316C198.173 46.3235 198.563 46.9081 198.827 47.5516C199.092 48.1951 199.226 48.8846 199.223 49.5802Z" fill="#F6BAC2"/>
<path opacity="0.05" d="M199.222 49.5802C199.224 50.5498 198.958 51.5009 198.452 52.3286C198.374 52.1893 198.328 52.0281 198.249 51.8864C198.139 51.6885 197.885 51.5224 197.697 51.6421C197.618 51.7064 197.558 51.7908 197.523 51.8864C197.369 52.2113 197.095 52.5362 196.736 52.5289C196.58 52.5122 196.432 52.4486 196.312 52.3466C196.193 52.2446 196.107 52.1089 196.066 51.9572C195.991 51.6519 195.977 51.3346 196.027 51.024C196.081 50.3888 196.09 49.656 195.619 49.2284C195.314 49.0058 194.966 48.8501 194.597 48.7716C194.237 48.6543 193.863 48.4687 193.716 48.1218C193.619 47.8775 193.643 47.6185 193.555 47.3889C193.464 47.2049 193.33 47.0454 193.165 46.9238C192.999 46.8022 192.807 46.7221 192.604 46.6902C192.137 47.0758 191.545 47.2781 190.939 47.2594C190.384 47.2463 189.833 47.1592 189.301 47.0004C189.871 45.9772 190.766 45.1722 191.844 44.7114C192.922 44.2507 194.122 44.1604 195.257 44.4546C196.392 44.7488 197.397 45.411 198.114 46.3372C198.832 47.2635 199.222 48.4015 199.222 49.5729V49.5802Z" fill="black"/>
<path d="M193.555 47.1592C193.643 47.4035 193.619 47.6674 193.716 47.8921C193.861 48.239 194.237 48.4247 194.597 48.542C194.965 48.6202 195.314 48.775 195.619 48.9964C196.09 49.4263 196.081 50.1592 196.027 50.7944C195.977 51.1049 195.991 51.4223 196.066 51.7276C196.108 51.8789 196.194 52.0143 196.313 52.1162C196.433 52.2181 196.58 52.2819 196.736 52.2993C197.095 52.2993 197.369 51.9817 197.523 51.6568C197.558 51.5613 197.618 51.4769 197.697 51.4125C197.885 51.2879 198.139 51.454 198.249 51.6568C198.326 51.8683 198.433 52.0681 198.565 52.2504C198.652 52.3254 198.756 52.378 198.868 52.4036C198.98 52.4291 199.097 52.4269 199.208 52.397C199.429 52.3366 199.635 52.23 199.812 52.0843C200.302 51.7435 200.69 51.2767 200.936 50.7333C201.056 50.4618 201.112 50.1665 201.1 49.87C201.088 49.5736 201.007 49.2839 200.866 49.0232C200.682 48.7154 200.391 48.4687 200.276 48.1291C200.076 47.5452 200.452 46.9443 200.685 46.3726C200.907 45.8498 200.979 45.2753 200.892 44.7138C200.847 44.4342 200.747 44.1664 200.597 43.9261C200.447 43.6857 200.251 43.4776 200.02 43.314C199.09 42.6959 197.834 43.0355 196.758 42.7375C196.373 42.6112 195.998 42.4569 195.636 42.2757C195.087 42.0321 194.513 41.8486 193.924 41.7285C193.34 41.6112 192.633 41.5966 192.264 42.0632C192.163 42.2128 192.073 42.3695 191.995 42.5322C191.88 42.7255 191.727 42.8939 191.546 43.0273C191.364 43.1607 191.158 43.2565 190.939 43.3091C190.623 43.3848 190.293 43.3653 189.961 43.4117C189.799 43.423 189.641 43.4708 189.5 43.5516C189.359 43.6324 189.238 43.7441 189.147 43.8783C188.985 44.1715 189.054 44.5282 189.093 44.8555C189.132 45.1829 189.112 45.5737 188.848 45.7765C188.724 45.8718 188.553 45.9182 188.477 46.0526C188.442 46.1314 188.434 46.2195 188.455 46.3031C188.476 46.3866 188.524 46.461 188.592 46.5143C188.729 46.6182 188.889 46.6885 189.059 46.7195C189.667 46.9092 190.297 47.0168 190.934 47.0395C191.577 47.0604 192.204 46.8299 192.68 46.397C192.638 46.4386 192.369 46.4215 192.32 46.419C192.795 46.4703 193.377 46.6804 193.555 47.1592Z" fill="#7E646B"/>
<g opacity="0.05">
<path opacity="0.05" d="M200.112 51.4906C199.935 51.6361 199.729 51.7434 199.509 51.8058C199.398 51.8345 199.282 51.8359 199.17 51.81C199.058 51.784 198.955 51.7314 198.868 51.6568C198.734 51.4749 198.627 51.275 198.55 51.0631C198.44 50.8652 198.186 50.6991 197.998 50.8188C197.92 50.8842 197.86 50.9683 197.824 51.0631C197.672 51.388 197.396 51.7129 197.037 51.7056C196.881 51.6891 196.733 51.6256 196.614 51.5235C196.495 51.4214 196.409 51.2856 196.369 51.134C196.293 50.8288 196.279 50.5114 196.328 50.2007C196.384 49.5656 196.391 48.8351 195.922 48.4052C195.616 48.1826 195.267 48.0269 194.897 47.9483C194.54 47.831 194.164 47.6454 194.017 47.2985C193.919 47.0542 193.944 46.7952 193.856 46.5656C193.711 46.1772 193.303 45.9646 192.905 45.8669C192.436 46.2499 191.845 46.4526 191.24 46.4386C190.603 46.4138 189.972 46.3054 189.364 46.1161C189.195 46.0848 189.036 46.0155 188.897 45.9133C188.869 45.8869 188.843 45.8574 188.821 45.8254C188.713 45.8716 188.619 45.9448 188.548 46.0379C188.513 46.1167 188.505 46.2048 188.526 46.2884C188.547 46.372 188.595 46.4463 188.663 46.4996C188.8 46.6036 188.96 46.6738 189.13 46.7048C189.738 46.8945 190.368 47.0022 191.005 47.0249C191.61 47.041 192.2 46.8389 192.667 46.4557C193.066 46.5534 193.477 46.7635 193.621 47.1519C193.709 47.3962 193.685 47.66 193.782 47.8848C193.929 48.2317 194.303 48.4174 194.663 48.5346C195.031 48.6128 195.38 48.7677 195.685 48.989C196.156 49.419 196.147 50.1519 196.093 50.7871C196.043 51.0976 196.057 51.415 196.132 51.7203C196.174 51.8716 196.26 52.007 196.379 52.1089C196.499 52.2108 196.646 52.2746 196.802 52.2919C197.161 52.2919 197.435 51.9743 197.589 51.6494C197.624 51.554 197.684 51.4696 197.763 51.4051C197.951 51.2805 198.205 51.4467 198.315 51.6494C198.392 51.8615 198.499 52.0615 198.633 52.2431C198.72 52.3181 198.824 52.3707 198.935 52.3962C199.047 52.4218 199.163 52.4195 199.274 52.3896C199.495 52.3293 199.701 52.2227 199.878 52.0769C200.368 51.7362 200.756 51.2694 201.002 50.726C201.046 50.6214 201.081 50.5136 201.108 50.4035C200.857 50.8326 200.518 51.2033 200.112 51.4906Z" fill="black"/>
<path opacity="0.05" d="M200.601 46.6975C200.653 46.5851 200.702 46.4728 200.748 46.3628C200.795 46.2529 200.812 46.1918 200.839 46.1039C200.749 46.2972 200.669 46.4954 200.601 46.6975Z" fill="black"/>
<path opacity="0.05" d="M189.169 45.1609C189.413 44.9532 189.43 44.5819 189.391 44.2619C189.362 44.0751 189.347 43.8865 189.345 43.6975C189.293 43.7484 189.247 43.8059 189.21 43.8685C189.049 44.1617 189.117 44.5184 189.156 44.8457C189.169 44.9503 189.173 45.0557 189.169 45.1609Z" fill="black"/>
</g>
<path opacity="0.05" d="M190.132 81.5295C189.677 81.5613 189.039 81.5955 188.271 81.6223C187.738 81.6394 187.142 81.6516 186.504 81.6516C185.946 81.6516 185.357 81.6516 184.746 81.6248C182.812 81.5749 180.886 81.3764 178.983 81.0311C176.443 80.5425 174.093 79.6997 172.626 78.273C172.87 77.7991 173.093 77.4057 173.176 77.2665C173.176 77.1297 173.176 76.9709 173.161 76.7999C175.741 78.0214 183.782 81.4147 189.946 79.4872C189.946 79.6899 189.976 79.8243 189.976 79.8243L190.115 79.9416C190.044 80.1956 190.088 81.0311 190.132 81.5295Z" fill="black"/>
<path d="M190.132 81.295C189.677 81.3267 189.039 81.3609 188.271 81.3854C187.738 81.4049 187.142 81.4147 186.504 81.4147C185.946 81.4147 185.357 81.4147 184.746 81.3878C182.812 81.3388 180.886 81.1411 178.983 80.7966C176.443 80.308 174.093 79.4627 172.626 78.036C172.87 77.5621 173.093 77.1712 173.176 77.0295C173.176 76.8927 173.176 76.7364 173.161 76.5629C175.741 77.7844 183.782 81.1801 189.946 79.2624C189.946 79.4652 189.976 79.5995 189.976 79.5995L190.115 79.7168C190.044 79.9611 190.088 80.7966 190.132 81.295Z" fill="#4B4442"/>
<path d="M68.1003 188.217C67.8071 187.864 67.5893 187.455 67.4602 187.015C67.3311 186.576 67.2935 186.114 67.3496 185.659L78.1418 97.4259L79.0367 90.097C79.137 89.2817 79.5306 88.5308 80.1443 87.9842C80.7579 87.4376 81.5496 87.1327 82.3716 87.1263L113.983 86.9162C114.433 86.9135 114.878 86.821 115.292 86.6441C115.706 86.4672 116.08 86.2096 116.393 85.8862C116.706 85.5629 116.951 85.1804 117.114 84.7611C117.277 84.3419 117.355 83.8944 117.342 83.4448L117.33 83.1101C117.315 82.6567 117.391 82.2049 117.554 81.7815C117.717 81.3581 117.963 80.9718 118.279 80.6456C118.594 80.3194 118.972 80.06 119.39 79.8828C119.808 79.7056 120.257 79.6143 120.711 79.6142H153.929C154.825 79.6142 155.684 79.9691 156.318 80.6012C156.951 81.2332 157.309 82.0907 157.311 82.9855C157.31 83.1374 157.301 83.2892 157.281 83.4399C157.218 83.9101 157.255 84.3882 157.389 84.8433C157.524 85.2983 157.752 85.72 158.06 86.0809C158.368 86.4417 158.749 86.7338 159.178 86.9379C159.606 87.142 160.073 87.2537 160.548 87.2656L192.45 88.0791C192.935 88.091 193.412 88.2072 193.848 88.4197C194.284 88.6322 194.669 88.9361 194.977 89.3107C195.285 89.6853 195.509 90.1218 195.633 90.5905C195.757 91.0592 195.779 91.5491 195.697 92.027L179.748 185.104L179.447 186.863C179.373 187.313 179.207 187.742 178.958 188.124L68.1003 188.217Z" fill="#B7B6CC"/>
<g opacity="0.5">
<path opacity="0.5" d="M164.101 60.2067L127.573 113.034L143.738 124.193L180.266 71.3658L164.101 60.2067Z" fill="url(#paint2_linear)"/>
</g>
<path d="M179.742 71.5303L164.373 60.9212L128.335 113.041L143.704 123.65L179.742 71.5303Z" fill="#F9FAFB"/>
<path d="M176.309 70.9115L165.481 63.3906L157.954 74.2101L168.782 81.731L176.309 70.9115Z" fill="#F7B643"/>
<path opacity="0.5" d="M167.863 83.9291L156.998 76.4291L149.492 87.2847L160.356 94.7848L167.863 83.9291Z" fill="#F7B643"/>
<path opacity="0.3" d="M158.798 97.0354L147.933 89.5354L140.427 100.391L151.292 107.891L158.798 97.0354Z" fill="#F7B643"/>
<g opacity="0.5">
<path opacity="0.5" d="M142.161 57.0617L124.203 118.463L143.062 123.97L161.02 62.5684L142.161 57.0617Z" fill="url(#paint3_linear)"/>
</g>
<path d="M160.589 62.8922L142.66 57.6569L124.943 118.233L142.873 123.468L160.589 62.8922Z" fill="#F9FAFB"/>
<path d="M157.689 63.1066L145.014 59.4055L141.31 72.0703L153.985 75.7714L157.689 63.1066Z" fill="#F97878"/>
<path opacity="0.5" d="M153.216 78.3964L140.541 74.6954L136.837 87.3602L149.512 91.0612L153.216 78.3964Z" fill="#F97878"/>
<path opacity="0.3" d="M148.745 93.6839L136.069 89.9829L132.365 102.648L145.041 106.349L148.745 93.6839Z" fill="#F97878"/>
<g opacity="0.5">
<path opacity="0.5" d="M129.37 58.129L124.236 121.892L143.821 123.467L148.955 59.7034L129.37 58.129Z" fill="url(#paint4_linear)"/>
</g>
<path d="M148.579 60.109L129.959 58.6121L124.894 121.518L143.513 123.015L148.579 60.109Z" fill="#F9FAFB"/>
<path d="M145.772 60.9074L132.609 59.8492L131.55 73.0012L144.713 74.0594L145.772 60.9074Z" fill="#73B53B"/>
<path opacity="0.5" d="M144.492 76.7822L131.329 75.724L130.27 88.876L143.433 89.9342L144.492 76.7822Z" fill="#73B53B"/>
<path opacity="0.3" d="M143.214 92.662L130.051 91.6038L128.992 104.756L142.155 105.814L143.214 92.662Z" fill="#73B53B"/>
<g opacity="0.5">
<path opacity="0.5" d="M140.546 59.8472L120.918 60.7412L123.834 124.644L143.461 123.75L140.546 59.8472Z" fill="url(#paint5_linear)"/>
</g>
<path d="M140.243 60.2914L121.582 61.1414L124.459 124.185L143.119 123.335L140.243 60.2914Z" fill="white"/>
<path d="M137.556 61.4319L124.364 62.0327L124.966 75.2136L138.157 74.6127L137.556 61.4319Z" fill="#0564FF"/>
<path opacity="0.5" d="M138.813 76.7811L125.607 77.4408L126.267 90.6353L139.473 89.9756L138.813 76.7811Z" fill="#0564FF"/>
<path opacity="0.3" d="M139.007 93.2577L125.815 93.8586L126.417 107.039L139.609 106.439L139.007 93.2577Z" fill="#0564FF"/>
<path d="M129.506 144.309L112.91 150.724L88.6528 160.093C87.7359 158.383 86.3863 156.072 84.7164 153.314C78.9706 143.801 69.4645 129.004 61 116C51.4645 101.342 43.2567 88.9732 43.2567 88.9732L49.198 87.2632L97.731 73.1843L129.506 144.309Z" fill="#E6ECF8"/>
<path opacity="0.1" d="M129.506 144.309L112.91 150.724C103.638 152.654 94.1771 153.523 84.7091 153.314C78.9633 143.801 69.4572 129.004 60.9927 116L49.2005 87.2534L97.7311 73.1843L129.506 144.309Z" fill="black"/>
<path d="M141.853 140.317C141.853 140.317 116.071 155.557 77.577 152.11L46.89 77.3544L61.5966 74.8284L112.438 66.1045L141.288 138.864L141.853 140.317Z" fill="#0564FF"/>
<path opacity="0.1" d="M141.279 138.874C135.208 139.172 128.183 139.142 121.117 138.299C113.469 137.4 105.777 135.549 99.1834 132.153C93.6699 129.317 88.956 126.231 84.8459 122.53C74.154 112.922 67.5379 99.1776 61.5966 74.8382L112.438 66.1143L141.279 138.874Z" fill="black"/>
<path d="M160.193 134.694C160.193 134.694 141.188 138.412 121.844 136.123C114.196 135.224 106.504 133.372 99.9095 129.976C94.3961 127.14 89.6846 124.054 85.5721 120.353C72.3398 108.458 65.352 90.2289 58.1467 53.4157C58.1467 53.4157 89.7408 61.0353 120.983 44.3449C120.973 44.3571 131.504 110.019 160.193 134.694Z" fill="#F9FAFB"/>
<path opacity="0.1" d="M121.844 136.123C114.196 135.224 106.504 133.372 99.9096 129.976C94.3961 127.14 89.6846 124.054 85.5721 120.353C96.8386 119.44 98.4572 113.286 98.4572 113.286C106.809 126.529 121.844 136.123 121.844 136.123Z" fill="black"/>
<path opacity="0.3" d="M74.489 66.9303C74.489 66.9303 100.181 65.4791 107.355 59.9458L108.443 63.4392C108.443 63.4392 91.467 70.9221 74.489 71.0125V66.9303Z" fill="#0564FF"/>
<path opacity="0.3" d="M74.489 84.1777C74.489 84.1777 99.3643 82.8169 118.159 73.7462L118.795 75.1973C118.795 75.1973 103.88 83.8967 74.489 86.1736V84.1777Z" fill="#0564FF"/>
<path opacity="0.3" d="M76.4915 90.8983C76.4915 90.8983 101.367 89.5376 120.159 80.4668L120.795 81.9179C120.795 81.9179 105.88 90.6149 76.4915 92.8942V90.8983Z" fill="#0564FF"/>
<path opacity="0.3" d="M78.4915 97.6287C78.4915 97.6287 103.367 96.268 122.161 87.1972L122.795 88.6483C122.795 88.6483 107.88 97.3478 78.4915 99.6246V97.6287Z" fill="#0564FF"/>
<path opacity="0.3" d="M80.4939 104.359C80.4939 104.359 105.369 102.998 124.161 93.9276L124.797 95.3787C124.797 95.3787 109.883 104.078 80.4939 106.355V104.359Z" fill="#0564FF"/>
<path opacity="0.3" d="M82.4939 111.092C82.4939 111.092 107.369 109.731 126.164 100.66L126.797 102.112C126.797 102.112 111.883 110.809 82.4939 113.088V111.092Z" fill="#0564FF"/>
<path d="M257.401 194.659C257.401 194.659 247.064 194.036 248.281 201.274C248.281 201.274 248.037 202.552 249.201 203.134C249.201 203.134 249.218 202.596 250.259 202.779C250.631 202.842 251.008 202.86 251.384 202.833C251.891 202.799 252.373 202.6 252.756 202.266C252.756 202.266 255.663 201.067 256.792 196.323C256.792 196.323 257.628 195.287 257.594 195.02L255.851 195.753C255.851 195.753 256.447 197.011 255.978 198.055C255.978 198.055 255.922 195.8 255.587 195.856C255.518 195.856 254.68 196.291 254.68 196.291C254.68 196.291 255.704 198.489 254.924 200.073C254.924 200.073 255.218 197.373 254.352 196.45L253.13 197.165C253.13 197.165 254.328 199.428 253.516 201.274C253.516 201.274 253.724 198.443 252.87 197.339L251.758 198.206C251.758 198.206 252.885 200.437 252.198 201.968C252.198 201.968 252.108 198.67 251.516 198.421C251.516 198.421 250.538 199.279 250.396 199.643C250.396 199.643 251.166 201.26 250.687 202.115C250.687 202.115 250.394 199.916 250.154 199.916C250.154 199.916 249.176 201.382 249.083 202.359C249.083 202.359 249.125 200.874 249.919 199.767C249.36 199.874 248.843 200.141 248.433 200.537C248.433 200.537 248.584 199.506 250.159 199.418C250.159 199.418 250.961 198.314 251.174 198.245C251.174 198.245 249.609 198.116 248.66 198.536C248.66 198.536 249.496 197.559 251.462 198.006L252.56 197.112C252.56 197.112 250.499 196.828 249.626 197.141C249.626 197.141 250.631 196.281 252.856 196.897L254.051 196.183C254.051 196.183 252.296 195.805 251.249 195.939C251.249 195.939 252.352 195.343 254.403 195.988L255.257 195.604C255.257 195.604 253.971 195.36 253.594 195.311C253.218 195.262 253.196 195.169 253.196 195.169C254.011 195.032 254.848 195.125 255.614 195.438C255.614 195.438 257.43 194.774 257.401 194.659Z" fill="#0564FF"/>
<path opacity="0.1" d="M250.281 205C254.321 205 257.597 204.447 257.597 203.764C257.597 203.081 254.321 202.528 250.281 202.528C246.241 202.528 242.966 203.081 242.966 203.764C242.966 204.447 246.241 205 250.281 205Z" fill="#0564FF"/>
<path opacity="0.1" d="M198.961 201.406C212.734 201.406 223.9 200.396 223.9 199.149C223.9 197.902 212.734 196.892 198.961 196.892C185.188 196.892 174.022 197.902 174.022 199.149C174.022 200.396 185.188 201.406 198.961 201.406Z" fill="#0564FF"/>
<path d="M262.215 170.764C262.215 170.764 256.389 170.412 257.081 174.495C257.045 174.701 257.076 174.914 257.168 175.102C257.261 175.29 257.411 175.445 257.597 175.543C257.597 175.543 257.609 175.24 258.196 175.342C258.405 175.377 258.617 175.387 258.829 175.372C259.114 175.353 259.386 175.242 259.601 175.054C259.601 175.054 261.24 174.377 261.878 171.702C261.878 171.702 262.35 171.118 262.33 170.969L261.352 171.387C261.352 171.387 261.687 172.098 261.423 172.687C261.423 172.687 261.391 171.414 261.203 171.443C261.164 171.443 260.692 171.688 260.692 171.688C260.692 171.688 261.269 172.909 260.834 173.82C260.834 173.82 261 172.298 260.511 171.776L259.819 172.181C259.819 172.181 260.494 173.456 260.037 174.497C260.037 174.497 260.154 172.899 259.672 172.279L259.046 172.767C259.046 172.767 259.68 174.025 259.291 174.888C259.291 174.888 259.24 173.029 258.907 172.89C258.67 173.091 258.457 173.32 258.274 173.571C258.274 173.571 258.709 174.485 258.44 174.966C258.44 174.966 258.274 173.727 258.139 173.723C258.139 173.723 257.592 174.541 257.535 175.103C257.562 174.581 257.725 174.076 258.007 173.637C257.691 173.697 257.399 173.848 257.169 174.072C257.169 174.072 257.254 173.49 258.147 173.442C258.147 173.442 258.599 172.819 258.719 172.78C258.719 172.78 257.836 172.706 257.301 172.943C257.301 172.943 257.773 172.396 258.88 172.645L259.501 172.14C259.501 172.14 258.337 171.981 257.846 172.157C257.846 172.157 258.413 171.668 259.667 172.025L260.342 171.622C259.823 171.508 259.291 171.463 258.76 171.487C258.76 171.487 259.384 171.15 260.538 171.514L261.027 171.299C261.027 171.299 260.293 171.155 260.088 171.133C259.883 171.111 259.863 171.052 259.863 171.052C260.323 170.976 260.795 171.028 261.227 171.204C261.227 171.204 262.235 170.828 262.215 170.764Z" fill="#0564FF"/>
<path opacity="0.1" d="M258.205 176.593C260.483 176.593 262.33 176.281 262.33 175.897C262.33 175.512 260.483 175.201 258.205 175.201C255.927 175.201 254.081 175.512 254.081 175.897C254.081 176.281 255.927 176.593 258.205 176.593Z" fill="#0564FF"/>
<path d="M227.819 174.306C227.819 174.306 220.782 173.881 221.614 178.809C221.571 179.059 221.608 179.316 221.72 179.543C221.832 179.77 222.013 179.956 222.237 180.074C222.237 180.074 222.237 179.708 222.971 179.83C223.223 179.873 223.48 179.885 223.736 179.867C224.081 179.844 224.409 179.708 224.67 179.481C224.67 179.481 226.648 178.665 227.418 175.435C227.418 175.435 227.988 174.732 227.963 174.548L226.763 175.056C226.763 175.056 227.169 175.911 226.848 176.622C226.848 176.622 226.809 175.088 226.582 175.122C226.535 175.122 225.966 175.42 225.966 175.42C225.966 175.42 226.663 176.911 226.137 177.995C226.137 177.995 226.337 176.158 225.748 175.528L224.912 176.017C224.912 176.017 225.726 177.558 225.174 178.814C225.174 178.814 225.315 176.886 224.736 176.126L223.978 176.718C223.978 176.718 224.746 178.235 224.276 179.278C224.276 179.278 224.218 177.033 223.814 176.864C223.814 176.864 223.152 177.448 223.051 177.688C223.051 177.688 223.575 178.789 223.249 179.371C223.249 179.371 223.049 177.876 222.885 177.868C222.885 177.868 222.227 178.86 222.152 179.537C222.185 178.909 222.381 178.301 222.721 177.773C222.341 177.846 221.989 178.028 221.712 178.298C221.712 178.298 221.814 177.597 222.885 177.536C222.885 177.536 223.43 176.784 223.577 176.74C223.577 176.74 222.511 176.649 221.866 176.935C221.866 176.935 222.433 176.275 223.77 176.576L224.518 175.965C224.518 175.965 223.117 175.775 222.521 175.985C222.521 175.985 223.205 175.401 224.721 175.828L225.535 175.34C225.535 175.34 224.34 175.083 223.626 175.176C223.626 175.176 224.379 174.771 225.773 175.21L226.355 174.949C226.355 174.949 225.479 174.778 225.223 174.751C224.966 174.724 224.954 174.653 224.954 174.653C225.508 174.559 226.078 174.622 226.599 174.834C226.599 174.834 227.841 174.382 227.819 174.306Z" fill="#0564FF"/>
<path opacity="0.1" d="M222.973 181.345C225.724 181.345 227.954 180.968 227.954 180.504C227.954 180.04 225.724 179.664 222.973 179.664C220.222 179.664 217.993 180.04 217.993 180.504C217.993 180.968 220.222 181.345 222.973 181.345Z" fill="#0564FF"/>
<path opacity="0.1" d="M13.3619 201.316C17.402 201.316 20.6773 200.763 20.6773 200.08C20.6773 199.397 17.402 198.844 13.3619 198.844C9.32167 198.844 6.04645 199.397 6.04645 200.08C6.04645 200.763 9.32167 201.316 13.3619 201.316Z" fill="#0564FF"/>
<path d="M8.44989 194.336C8.44989 194.336 12.621 194.209 13.8802 193.315C15.1394 192.421 20.2983 191.361 20.6113 192.785C20.9242 194.209 26.8827 199.923 22.1712 199.963C17.4597 200.002 11.225 199.23 9.96823 198.465C8.7115 197.7 8.44989 194.336 8.44989 194.336Z" fill="#A8A8A8"/>
<path opacity="0.2" d="M22.2543 199.462C17.5428 199.501 11.3081 198.729 10.0514 197.964C9.09782 197.383 8.7164 195.294 8.58437 194.332H8.44501C8.44501 194.332 8.70907 197.695 9.96334 198.46C11.2176 199.225 17.4719 199.999 22.1712 199.975C23.5306 199.963 24 199.486 23.9756 198.753C23.7849 199.183 23.2665 199.454 22.2543 199.462Z" fill="black"/>
<path d="M205.985 -0.000116903L193.083 39.6512L264.099 62.7204L277.001 23.0691L205.985 -0.000116903Z" fill="url(#paint6_linear)"/>
<path d="M206.386 0.433388L193.662 39.5388L263.697 62.2893L276.421 23.1838L206.386 0.433388Z" fill="#F6F7F9"/>
<g opacity="0.2">
<path opacity="0.2" d="M213.922 29.7384C218.156 29.7384 221.589 26.3083 221.589 22.0772C221.589 17.846 218.156 14.416 213.922 14.416C209.687 14.416 206.254 17.846 206.254 22.0772C206.254 26.3083 209.687 29.7384 213.922 29.7384Z" fill="#0564FF"/>
</g>
<g opacity="0.2">
<path opacity="0.2" d="M232.916 18.7023L232.267 20.698L264.036 31.018L264.685 29.0223L232.916 18.7023Z" fill="#0564FF"/>
</g>
<g opacity="0.2">
<path opacity="0.2" d="M231.26 23.7904L230.611 25.7861L246.794 31.0432L247.444 29.0475L231.26 23.7904Z" fill="#0564FF"/>
</g>
<g opacity="0.2">
<path opacity="0.2" d="M229.602 28.8818L228.953 30.8775L255.127 39.3802L255.777 37.3845L229.602 28.8818Z" fill="#0564FF"/>
</g>
<g opacity="0.2">
<path opacity="0.2" d="M227.947 33.9712L227.297 35.9669L259.066 46.2869L259.716 44.2913L227.947 33.9712Z" fill="#0564FF"/>
</g>
<g opacity="0.5">
<path opacity="0.5" d="M248.534 48.7842L247.278 52.6432L256.07 55.4991L257.325 51.6401L248.534 48.7842Z" fill="#0564FF"/>
</g>
<path d="M228.599 117.986C228.595 117.904 228.587 117.823 228.575 117.742C228.575 117.656 228.548 117.571 228.533 117.497C228.501 117.331 228.467 117.168 228.428 117.009C228.408 116.933 228.389 116.855 228.367 116.782C228.135 115.915 227.718 115.109 227.144 114.419C227.113 114.38 227.078 114.344 227.046 114.307C227.015 114.27 226.914 114.165 226.848 114.099C226.782 114.033 226.721 113.975 226.658 113.918C226.594 113.862 226.535 113.811 226.477 113.762C226.359 113.667 226.249 113.586 226.154 113.518C226.059 113.449 226.015 113.425 225.956 113.391C225.816 113.307 225.659 113.256 225.496 113.242L224.482 113.142L223.095 113.005L218.139 111.082L217.944 111.151C217.799 110.751 217.676 110.343 217.577 109.929C217.727 109.864 217.861 109.767 217.968 109.643C218.085 109.552 218.178 109.434 218.237 109.299C218.362 109.011 218.122 108.397 218.171 108.046C218.249 107.481 218.543 106.936 218.782 106.426C219.291 105.329 219.663 104.139 219.602 102.935C219.54 101.73 218.99 100.509 217.973 99.8371C217.447 99.4878 216.829 99.3021 216.281 98.9845C215.856 98.7402 215.482 98.4129 215.076 98.1344C214.078 97.4695 212.924 97.0749 211.727 96.9892C210.531 96.9036 209.332 97.1298 208.249 97.6458C207.22 98.1515 206.342 98.9088 205.372 99.5171C204.401 100.125 203.257 100.592 202.12 100.411C202.104 100.457 202.093 100.505 202.086 100.553L201.99 100.541C201.795 101.073 202.274 101.601 202.724 101.965C203.562 102.656 204.513 103.345 205.606 103.37C206.029 103.37 206.477 103.289 206.861 103.463C206.948 103.501 207.03 103.55 207.105 103.609C206.862 104.583 206.893 105.606 207.195 106.563C207.497 107.521 208.058 108.376 208.817 109.035L206.286 108.126C206.286 108.126 206.181 108.18 206.017 108.283L202.506 105.947C202.506 105.947 195.467 103.397 193.511 107.369C191.555 111.341 201.988 109.291 201.988 109.291L204.22 110.513C204.145 110.974 204.231 111.447 204.465 111.852L210.55 115.609C209.328 115.988 207.301 116.586 206.941 116.586C206.421 116.586 204.985 117.099 204.073 119.149C203.161 121.199 199.9 131.198 197.032 132.864C194.164 134.53 186.602 145.682 186.602 145.682L186.636 145.77C186.501 145.807 186.369 145.843 186.24 145.887C184.652 146.438 183.277 147.474 182.311 148.848C182.182 149.026 182.103 149.234 182.081 149.452C182.058 149.671 182.093 149.891 182.182 150.091C182.271 150.291 182.411 150.465 182.588 150.594C182.765 150.724 182.973 150.805 183.191 150.829C186.176 151.208 187.807 149.833 188.592 148.794C188.643 148.728 188.69 148.662 188.734 148.597C188.966 148.696 189.226 148.708 189.467 148.631L193.117 145.682C193.117 145.682 190.262 148.491 191.936 151.057L191.809 151.235C188.986 155.262 186.915 159.766 185.697 164.53C185.697 164.53 184.132 165.683 184.002 170.298C183.873 174.912 182.306 182.346 182.306 182.346C182.306 182.346 181.264 191.192 181.914 193.882C181.914 193.882 181.99 193.989 182.13 194.153C182.081 194.212 182.027 194.275 181.968 194.339C181.399 194.954 180.372 195.805 179.176 195.56C177.352 195.174 177.352 198.38 179.958 198.636C181.638 198.8 184.939 199.55 187.078 200.063C187.311 200.121 187.555 200.123 187.789 200.068C188.023 200.013 188.24 199.902 188.422 199.746C188.605 199.589 188.746 199.391 188.836 199.168C188.925 198.945 188.96 198.704 188.936 198.465C188.809 197.317 188.577 195.927 188.154 194.937C188.127 194.876 188.1 194.815 188.073 194.759C188.149 194.686 188.227 194.612 188.303 194.534C188.303 194.534 188.303 188.893 189.218 187.357C189.218 187.357 191.694 175.692 191.562 172.743C191.462 170.437 197.99 161.454 200.831 157.66L200.807 157.516C201.54 156.539 201.995 155.952 201.995 155.952L204.193 169.926C204.193 169.926 205.237 173.002 206.54 174.668C206.54 174.668 212.147 185.307 212.8 188.639C213.289 191.168 214.311 192.661 214.775 193.237L214.606 193.398C214.012 193.943 213.139 194.488 212.147 194.28C210.323 193.894 210.323 197.099 212.929 197.356C214.609 197.522 217.91 198.272 220.046 198.785C220.28 198.844 220.524 198.846 220.758 198.79C220.992 198.735 221.21 198.624 221.392 198.467C221.575 198.31 221.717 198.112 221.806 197.889C221.896 197.666 221.93 197.424 221.907 197.185C221.758 195.851 221.467 194.192 220.905 193.213C220.859 193.129 220.809 193.047 220.756 192.968C220.954 192.889 221.132 192.764 221.274 192.604C221.274 192.604 217.883 184.528 217.883 182.344C217.883 182.344 216.45 174.013 211.626 170.938C211.626 170.938 212.081 160.516 213.455 154.716C213.489 154.574 213.523 154.433 213.557 154.296C214.838 154.096 216.108 153.832 217.362 153.504L217.491 149.659L218.144 152.735L225.445 148.25C225.445 148.25 225.381 147.441 225.259 146.202C225.196 145.582 225.12 144.854 225.029 144.065C224.956 143.435 224.873 142.765 224.785 142.081C224.76 141.91 224.738 141.737 224.714 141.566C224.619 140.874 224.513 140.176 224.401 139.492C224.357 139.234 224.313 138.98 224.269 138.729C224.208 138.395 224.147 138.067 224.083 137.752C224.051 137.593 224.017 137.435 223.985 137.281C223.954 137.127 223.917 136.973 223.883 136.824C223.848 136.675 223.814 136.531 223.78 136.387C223.76 136.316 223.743 136.245 223.726 136.176C223.69 136.037 223.653 135.9 223.616 135.768C223.463 135.22 223.375 134.656 223.352 134.088C223.352 133.863 223.352 133.636 223.352 133.411C223.352 133.186 223.386 132.961 223.418 132.737C223.433 132.627 223.452 132.514 223.474 132.404C223.557 131.958 223.681 131.519 223.844 131.095C223.924 130.882 224.017 130.672 224.117 130.465C224.362 129.976 224.606 129.456 224.866 128.901C224.998 128.625 225.13 128.342 225.262 128.054C225.394 127.765 225.528 127.472 225.663 127.174C226.932 124.348 228.183 121.199 228.518 119.129C228.553 118.912 228.579 118.707 228.592 118.514C228.606 118.338 228.608 118.162 228.599 117.986Z" fill="url(#paint7_linear)"/>
<path d="M206.822 110.318L202.521 107.413C202.521 107.413 195.692 104.884 193.795 108.803C191.897 112.721 202.015 110.699 202.015 110.699L206.315 113.098L206.822 110.318Z" fill="#AE6E79"/>
<path d="M182.406 99.8443L160.162 134.418L214.029 169.018L236.273 134.445L182.406 99.8443Z" fill="#F9FAFB"/>
<path d="M174.385 122.192L168.144 132.007L170.455 133.474L176.696 123.659L174.385 122.192Z" fill="#B7B6CC"/>
<path d="M189.239 112.439L175.532 133.995L177.651 135.34L191.358 113.784L189.239 112.439Z" fill="#B7B6CC"/>
<path d="M193.766 115.31L180.059 136.867L182.179 138.212L195.886 116.656L193.766 115.31Z" fill="#B7B6CC"/>
<path d="M198.292 118.187L184.585 139.743L186.705 141.088L200.412 119.532L198.292 118.187Z" fill="#B7B6CC"/>
<path d="M203.072 122.457L189.269 143.91L191.379 145.265L205.181 123.812L203.072 122.457Z" fill="#B7B6CC"/>
<path d="M207.346 123.933L193.639 145.489L195.758 146.835L209.465 125.279L207.346 123.933Z" fill="white"/>
<path d="M211.873 126.805L198.166 148.361L200.286 149.706L213.993 128.15L211.873 126.805Z" fill="white"/>
<path d="M220.723 130.534L217.174 136.116L222.76 139.662L226.31 134.081L220.723 130.534Z" fill="#B7B6CC"/>
<path d="M219.543 198.91C217.467 198.404 214.267 197.666 212.638 197.502C210.108 197.258 210.108 194.082 211.88 194.468C212.839 194.676 213.69 194.136 214.264 193.601C214.439 193.433 214.602 193.255 214.753 193.066C214.962 192.812 215.251 192.636 215.572 192.565C216.521 192.36 218.506 192.047 219.707 192.7C219.987 192.874 220.214 193.123 220.362 193.418C220.907 194.395 221.191 196.02 221.34 197.327C221.365 197.56 221.334 197.796 221.249 198.014C221.164 198.233 221.027 198.428 220.851 198.583C220.675 198.738 220.465 198.849 220.237 198.905C220.009 198.962 219.771 198.964 219.543 198.91Z" fill="#BEBED0"/>
<path d="M187.545 200.173C185.472 199.667 182.271 198.929 180.643 198.766C178.112 198.521 178.112 195.345 179.883 195.734C181.042 195.978 182.039 195.145 182.589 194.539C182.658 194.466 182.719 194.395 182.77 194.329C182.98 194.08 183.268 193.908 183.587 193.84C184.535 193.633 186.521 193.32 187.724 193.975C188.081 194.165 188.364 194.586 188.592 195.13C189 196.108 189.225 197.476 189.35 198.607C189.372 198.839 189.339 199.074 189.252 199.291C189.165 199.508 189.028 199.701 188.851 199.854C188.675 200.008 188.464 200.117 188.237 200.172C188.01 200.227 187.773 200.228 187.545 200.173Z" fill="#BEBED0"/>
<path opacity="0.1" d="M188.592 195.121C185.572 198.231 182.983 195.062 182.589 194.539C182.658 194.466 182.719 194.395 182.77 194.329C182.98 194.08 183.268 193.908 183.587 193.84C184.535 193.633 186.521 193.32 187.724 193.975C188.081 194.156 188.377 194.576 188.592 195.121Z" fill="black"/>
<path opacity="0.1" d="M220.374 193.418C219.066 194.31 214.663 194.09 214.663 194.09C214.517 193.937 214.384 193.774 214.264 193.601C214.438 193.434 214.602 193.255 214.753 193.066C214.962 192.812 215.251 192.636 215.572 192.565C216.521 192.36 218.506 192.047 219.707 192.7C219.992 192.872 220.223 193.121 220.374 193.418Z" fill="black"/>
<path d="M220.606 192.827C219.719 193.965 214.663 193.711 214.663 193.711C214.663 193.711 213.144 192.194 212.511 188.911C211.878 185.627 206.44 175.137 206.44 175.137C205.176 173.493 204.164 170.461 204.164 170.461L202.015 156.688C202.015 156.688 191.645 170.334 191.773 173.241C191.9 176.148 189.494 187.655 189.494 187.655C188.609 189.172 188.609 194.739 188.609 194.739C185.323 198.16 182.54 194.107 182.54 194.107C181.907 191.454 182.919 182.735 182.919 182.735C182.919 182.735 184.438 175.406 184.562 170.857C184.687 166.308 186.208 165.172 186.208 165.172C187.389 160.483 189.4 156.044 192.147 152.063C192.91 150.971 193.416 150.387 193.416 150.387L213.902 152.789C213.509 153.657 213.214 154.567 213.022 155.5C211.689 161.217 211.247 171.49 211.247 171.49C215.927 174.521 217.318 182.727 217.318 182.727C217.318 184.865 220.606 192.827 220.606 192.827Z" fill="#5C5C8E"/>
<g opacity="0.05">
<path opacity="0.05" d="M200.887 158.371L200.623 156.688C200.623 156.688 190.254 170.334 190.381 173.241C190.509 176.148 188.105 187.655 188.105 187.655C187.218 189.172 187.218 194.739 187.218 194.739C186.688 195.337 186.003 195.775 185.24 196.007C186.235 196.269 187.44 196.076 188.736 194.739C188.736 194.739 188.736 189.179 189.621 187.655C189.621 187.655 192.024 176.156 191.897 173.241C191.799 170.967 198.13 162.109 200.887 158.371Z" fill="black"/>
<path opacity="0.05" d="M217.443 182.718C217.443 182.718 216.051 174.504 211.374 171.48C211.374 171.48 211.817 161.207 213.147 155.491C213.34 154.557 213.636 153.647 214.029 152.779L193.543 150.382C193.543 150.382 193.494 150.436 193.406 150.544L212.511 152.784C212.118 153.652 211.823 154.562 211.631 155.496C210.298 161.212 209.856 171.485 209.856 171.485C214.535 174.517 215.927 182.722 215.927 182.722C215.927 184.87 219.215 192.832 219.215 192.832C218.692 193.501 216.721 193.689 215.188 193.731C216.411 193.762 219.998 193.775 220.731 192.832C220.731 192.827 217.443 184.865 217.443 182.718Z" fill="black"/>
</g>
<path d="M189.621 148.601C189.468 148.975 189.267 149.326 189.022 149.647C188.262 150.671 186.68 152.024 183.785 151.653C183.572 151.625 183.369 151.543 183.197 151.415C183.025 151.286 182.889 151.115 182.803 150.918C182.717 150.721 182.683 150.505 182.705 150.291C182.727 150.078 182.804 149.873 182.929 149.698C183.858 148.344 185.193 147.318 186.741 146.767C187.265 146.594 187.807 146.484 188.357 146.439L189.621 148.601Z" fill="#AE6E79"/>
<path d="M216.33 113.261L206.188 109.555C206.188 109.555 203.279 111.072 204.418 113.22L214.293 119.413L216.33 113.261Z" fill="#42383C"/>
<path opacity="0.1" d="M216.369 113.303L206.225 109.597C206.225 109.597 203.315 111.111 204.455 113.261L214.318 119.452L216.369 113.303Z" fill="black"/>
<path d="M216.685 107.154C216.685 107.154 216.557 113.093 219.215 115.116C221.873 117.138 211.499 118.274 211.499 118.274C211.499 118.274 213.144 112.208 211.499 109.05C209.853 105.891 216.685 107.154 216.685 107.154Z" fill="#AE6E79"/>
<path opacity="0.1" d="M213.902 152.772C213.509 153.64 213.214 154.55 213.022 155.483C200.797 157.35 192.276 152.266 192.276 152.266C192.23 152.193 192.186 152.119 192.147 152.046C192.91 150.954 193.416 150.37 193.416 150.37L213.902 152.772Z" fill="black"/>
<path opacity="0.1" d="M189.621 148.601C189.468 148.975 189.266 149.326 189.022 149.647C187.851 149.452 186.914 147.204 186.741 146.779C187.265 146.606 187.807 146.496 188.357 146.452L189.621 148.601Z" fill="black"/>
<path d="M217.697 112.462L213.144 114.104L211.247 116.633C211.247 116.633 207.335 117.896 206.822 117.896C206.308 117.896 204.924 118.401 204.039 120.422C203.154 122.442 199.993 132.304 197.21 133.944C194.428 135.583 187.093 146.579 187.093 146.579C187.093 146.579 188.357 149.999 189.875 149.486L193.416 146.579C193.416 146.579 190.633 149.359 192.276 151.887C192.276 151.887 202.648 158.078 216.939 154.286L217.064 150.497L217.697 153.529L224.787 149.107C224.787 149.107 224.154 140.95 223.012 136.799C222.539 135.054 222.713 133.197 223.501 131.569C225.337 127.746 228.171 121.36 227.826 119.032C227.418 116.288 225.87 115.096 225.274 114.737C225.139 114.654 224.986 114.604 224.829 114.588L222.513 114.358L217.697 112.462Z" fill="#42383C"/>
<path opacity="0.05" d="M209.919 125.161C209.919 125.161 207.389 136.912 204.606 138.808C201.824 140.703 194.364 146.769 194.11 147.781" fill="black"/>
<path d="M208.78 124.782C208.78 124.782 206.252 136.533 203.469 138.429C200.687 140.325 193.225 146.391 192.973 147.399" fill="#42383C"/>
<path opacity="0.1" d="M211.183 116.569C211.183 116.569 219.91 113.662 222.43 114.419L211.183 116.569Z" fill="black"/>
<g opacity="0.05">
<path opacity="0.05" d="M223.489 131.571C225.325 127.748 228.159 121.362 227.814 119.034C227.406 116.291 225.858 115.098 225.262 114.739C225.126 114.657 224.974 114.606 224.817 114.59L223.839 114.493C223.942 114.516 224.041 114.557 224.132 114.612C224.724 114.974 226.276 116.164 226.682 118.909C227.027 121.235 224.193 127.624 222.359 131.447C221.571 133.074 221.398 134.93 221.87 136.675C223.015 140.828 223.648 148.983 223.648 148.983L217.55 152.791L217.704 153.524L224.795 149.102C224.795 149.102 224.161 140.945 223.02 136.795C222.542 135.054 222.709 133.199 223.489 131.571Z" fill="black"/>
<path opacity="0.05" d="M221.364 114.231L222.46 114.341L217.697 112.462L217.269 112.616L221.364 114.231Z" fill="black"/>
</g>
<path opacity="0.05" d="M208.78 137.039C208.78 137.039 212.692 134.891 213.966 135.397C215.24 135.903 219.91 135.27 219.91 135.27" fill="black"/>
<path opacity="0.05" d="M216.249 108.734C216.105 107.467 216.692 107.66 216.692 107.66C216.692 107.66 209.863 106.397 211.506 109.555C211.92 110.426 212.156 111.37 212.2 112.333H212.266C214.164 112.335 215.271 110.215 216.249 108.734Z" fill="black"/>
<path d="M212.259 111.83C215.262 111.83 217.697 109.397 217.697 106.397C217.697 103.396 215.262 100.963 212.259 100.963C209.256 100.963 206.822 103.396 206.822 106.397C206.822 109.397 209.256 111.83 212.259 111.83Z" fill="#AE6E79"/>
<path opacity="0.1" d="M218.205 108.004C218.694 106.922 219.059 105.749 219 104.562C218.941 103.375 218.408 102.17 217.421 101.506C216.912 101.164 216.311 100.98 215.78 100.668C215.367 100.423 215.002 100.103 214.609 99.8298C213.646 99.1739 212.526 98.7833 211.364 98.6976C210.201 98.6118 209.037 98.8338 207.988 99.3412C206.99 99.8298 206.139 100.59 205.198 101.188C204.257 101.787 203.147 102.246 202.044 102.07C201.853 102.595 202.32 103.113 202.748 103.475C203.562 104.156 204.484 104.835 205.545 104.857C205.956 104.857 206.389 104.779 206.768 104.95C207.019 105.089 207.232 105.287 207.389 105.527C207.899 106.205 208.332 106.939 208.68 107.713C208.786 108.046 208.986 108.342 209.257 108.563C209.746 108.876 210.379 108.615 210.968 108.593C211.868 108.556 212.68 109.123 213.345 109.729C214.01 110.335 214.645 111.028 215.487 111.348C216.115 111.593 217.372 111.578 217.687 110.828C217.807 110.545 217.575 109.939 217.623 109.592C217.741 109.038 217.937 108.503 218.205 108.004Z" fill="black"/>
<path d="M218.318 107.875C218.807 106.792 219.174 105.62 219.112 104.435C219.051 103.25 218.523 102.041 217.535 101.379C217.024 101.034 216.423 100.851 215.895 100.538C215.482 100.294 215.117 99.9764 214.724 99.7003C213.761 99.0444 212.641 98.6539 211.479 98.5681C210.316 98.4823 209.152 98.7043 208.103 99.2118C207.105 99.7003 206.254 100.458 205.313 101.056C204.372 101.655 203.262 102.116 202.159 101.938C201.968 102.466 202.433 102.984 202.863 103.343C203.677 104.024 204.599 104.704 205.66 104.728C206.071 104.728 206.504 104.647 206.883 104.821C207.135 104.958 207.348 105.156 207.504 105.397C208.014 106.074 208.446 106.807 208.792 107.581C208.899 107.915 209.101 108.21 209.372 108.432C209.861 108.744 210.494 108.483 211.083 108.461C211.983 108.427 212.795 108.993 213.457 109.599C214.12 110.205 214.758 110.897 215.601 111.217C216.23 111.461 217.487 111.446 217.802 110.696C217.924 110.413 217.692 109.807 217.741 109.46C217.857 108.907 218.051 108.373 218.318 107.875Z" fill="#42383C"/>
<path opacity="0.1" d="M178.954 188.109C178.498 188.483 177.925 188.685 177.335 188.681L68.1003 188.217C67.8071 187.864 67.5893 187.455 67.4602 187.015C67.3311 186.576 67.2935 186.114 67.3496 185.659L78.1418 97.4259L84.9095 97.3526C85.4755 97.3469 86.0274 97.529 86.4786 97.8703C86.9299 98.2116 87.2552 98.6928 87.4034 99.2386L88.6675 103.9C88.8171 104.451 89.1475 104.937 89.6058 105.279C90.0641 105.621 90.6238 105.799 91.1956 105.786L118.205 105.138C118.873 105.122 119.508 104.846 119.974 104.369C120.441 103.891 120.702 103.25 120.702 102.583V99.4951C120.702 98.8225 120.967 98.1769 121.44 97.6985C121.914 97.2201 122.557 96.9475 123.23 96.9398L160.658 96.5367C161.256 96.5311 161.838 96.7357 162.302 97.1147C162.765 97.4937 163.08 98.0232 163.193 98.6108L179.746 185.092L179.853 185.649C179.941 186.102 179.904 186.571 179.745 187.004C179.587 187.437 179.313 187.819 178.954 188.109Z" fill="black"/>
<path d="M159.435 97.7606L122.007 98.1637C121.334 98.1708 120.691 98.4428 120.217 98.9207C119.743 99.3987 119.477 100.044 119.477 100.717V103.807C119.476 104.473 119.215 105.113 118.749 105.59C118.284 106.067 117.65 106.343 116.983 106.36L89.9755 107.007C89.4033 107.022 88.8427 106.844 88.3839 106.502C87.925 106.16 87.5943 105.673 87.445 105.121L86.176 100.463C86.0281 99.9162 85.7026 99.4344 85.2507 99.093C84.7988 98.7516 84.2462 98.5699 83.6797 98.5766L47.6039 98.965C47.2343 98.9686 46.8698 99.0523 46.5357 99.2104C46.2016 99.3684 45.9058 99.597 45.6687 99.8803C45.4317 100.164 45.2589 100.495 45.1625 100.852C45.066 101.208 45.0481 101.581 45.11 101.945L59.6235 187.293C59.7242 187.887 60.0313 188.425 60.4907 188.815C60.9501 189.204 61.5322 189.419 62.1345 189.421L176.105 189.91C176.482 189.911 176.855 189.829 177.197 189.669C177.538 189.51 177.841 189.277 178.082 188.987C178.322 188.697 178.496 188.357 178.59 187.992C178.684 187.627 178.697 187.246 178.626 186.876L161.971 99.8347C161.858 99.2469 161.543 98.7172 161.079 98.3381C160.616 97.959 160.034 97.7546 159.435 97.7606Z" fill="#E6E8EE"/>
<path d="M212.147 39.3148L211.951 41.4891L212.093 45.3343L211.68 51.8204C211.68 51.8204 211.621 54.6616 210.015 55.993L205.914 62.2837L205.89 62.2959L204.347 63.0484L201.993 63.2927L200.77 60.3342L201.579 57.0851L202.029 56.4792L202.154 56.3424C202.643 55.8049 204.531 53.853 206.029 53.2447C206.029 53.2447 207.029 52.5118 206.853 51.3636C206.677 50.2154 208.203 44.1128 208.203 44.1128C208.203 44.1128 209.181 40.077 208.968 39.6837C208.755 39.2904 208.929 30.3564 212.303 30.2196C215.677 30.0828 212.147 39.3148 212.147 39.3148Z" fill="#F6BAC2"/>
<path opacity="0.1" d="M37.0244 171.768C39.2133 171.768 40.9877 171.524 40.9877 171.223C40.9877 170.923 39.2133 170.679 37.0244 170.679C34.8355 170.679 33.0611 170.923 33.0611 171.223C33.0611 171.524 34.8355 171.768 37.0244 171.768Z" fill="#0564FF"/>
<path opacity="0.1" d="M21.8435 173.305C24.0324 173.305 25.8068 173.061 25.8068 172.76C25.8068 172.459 24.0324 172.215 21.8435 172.215C19.6546 172.215 17.8802 172.459 17.8802 172.76C17.8802 173.061 19.6546 173.305 21.8435 173.305Z" fill="#0564FF"/>
<path opacity="0.1" d="M3.96332 171.223C6.15221 171.223 7.92665 170.979 7.92665 170.679C7.92665 170.378 6.15221 170.134 3.96332 170.134C1.77444 170.134 0 170.378 0 170.679C0 170.979 1.77444 171.223 3.96332 171.223Z" fill="#0564FF"/>
<path opacity="0.1" d="M27.9193 177.526C29.4749 177.526 30.7359 177.353 30.7359 177.14C30.7359 176.927 29.4749 176.754 27.9193 176.754C26.3637 176.754 25.1027 176.927 25.1027 177.14C25.1027 177.353 26.3637 177.526 27.9193 177.526Z" fill="#0564FF"/>
<path opacity="0.1" d="M12.1638 177.14C13.7194 177.14 14.9804 176.967 14.9804 176.754C14.9804 176.541 13.7194 176.368 12.1638 176.368C10.6082 176.368 9.34717 176.541 9.34717 176.754C9.34717 176.967 10.6082 177.14 12.1638 177.14Z" fill="#0564FF"/>
<path d="M21.758 172.64C21.758 172.64 27.3154 154.435 20.8875 147.143C16.0782 141.688 10.6186 142.34 8.1736 143.014C7.5414 143.183 6.9534 143.487 6.45021 143.905C5.94703 144.323 5.54066 144.845 5.25918 145.435C4.40343 147.277 4.55747 150.268 10.5917 153.759C20.6919 159.602 21.3203 167.618 21.3203 167.618L21.758 172.64Z" fill="#0564FF"/>
<path d="M9.04645 145.597C9.04645 145.597 25.4279 150.727 21.7604 172.64" stroke="#565987" stroke-miterlimit="10"/>
<path d="M18.6161 147.431C18.6161 147.431 16.3594 148.951 17.0782 151.235" stroke="#565987" stroke-miterlimit="10"/>
<path d="M10.6895 148.785C10.6895 148.785 12.0685 147.382 13.7482 148.157" stroke="#565987" stroke-miterlimit="10"/>
<path d="M17.1663 155.835C17.1663 155.835 19.5892 154.614 20.2152 156.145" stroke="#565987" stroke-miterlimit="10"/>
<path d="M23.1589 158.393C23.1589 158.393 21.3398 158.249 21.308 159.126" stroke="#565987" stroke-miterlimit="10"/>
<path d="M21.9829 172.784C21.9829 172.784 15.4719 159.553 13.6846 159.837C12.8362 159.976 12.445 160.814 12.2665 161.649C12.0471 162.733 12.171 163.859 12.6211 164.869C13.5453 166.995 16.0269 171.013 21.9829 172.784Z" fill="#0564FF"/>
<path d="M13.7335 162.353C13.7335 162.353 20.5648 172.252 21.8851 172.687" stroke="#565987" stroke-miterlimit="10"/>
<path d="M13.1051 163.899H14.6992" stroke="#565987" stroke-miterlimit="10"/>
<path d="M15.0146 167.52L17.5159 167.627" stroke="#565987" stroke-miterlimit="10"/>
<path d="M16.5379 164.622L16.2665 165.925" stroke="#565987" stroke-miterlimit="10"/>
<path d="M19.1956 168.583L19.1467 169.765" stroke="#565987" stroke-miterlimit="10"/>
<path d="M21.7897 172.784C21.7897 172.784 28.2983 159.553 30.0856 159.837C30.9364 159.976 31.3276 160.814 31.5037 161.649C31.7231 162.733 31.5992 163.859 31.1491 164.869C30.2249 166.995 27.7408 171.013 21.7897 172.784Z" fill="#0564FF"/>
<path d="M30.0391 162.353C30.0391 162.353 23.1931 172.252 21.8851 172.687" stroke="#565987" stroke-miterlimit="10"/>
<path d="M30.6675 163.899H29.0734" stroke="#565987" stroke-miterlimit="10"/>
<path d="M28.7579 167.52L26.2567 167.627" stroke="#565987" stroke-miterlimit="10"/>
<path d="M27.2347 164.622L27.5061 165.925" stroke="#565987" stroke-miterlimit="10"/>
<path d="M24.577 168.583L24.6259 169.765" stroke="#565987" stroke-miterlimit="10"/>
<path d="M10.6113 175.875C10.4341 175.73 10.3053 175.535 10.2421 175.315C10.2118 175.205 10.2212 175.088 10.2686 174.984C10.3159 174.88 10.3982 174.796 10.5012 174.746C10.7457 174.656 10.9902 174.819 11.1858 174.99C11.3814 175.161 11.6039 175.342 11.8484 175.301C11.7187 175.183 11.6216 175.034 11.5668 174.868C11.5119 174.702 11.5011 174.524 11.5355 174.353C11.5455 174.282 11.5751 174.215 11.621 174.16C11.7531 174.018 11.9927 174.079 12.1516 174.192C12.6406 174.543 12.7946 175.225 12.7971 175.841C12.8216 175.615 12.8216 175.387 12.7971 175.161C12.7906 175.048 12.8122 174.934 12.8599 174.831C12.9077 174.727 12.9801 174.637 13.0709 174.568C13.1899 174.503 13.3241 174.471 13.4597 174.475C13.572 174.459 13.6865 174.467 13.7956 174.498C13.9047 174.529 14.006 174.583 14.0929 174.656C14.1761 174.769 14.2189 174.907 14.2145 175.047C14.2101 175.188 14.1587 175.322 14.0685 175.43C13.8811 175.64 13.6596 175.817 13.4132 175.953C13.2262 176.065 13.0667 176.218 12.9462 176.4C12.9314 176.425 12.9199 176.451 12.912 176.478H11.489C11.1705 176.318 10.8752 176.115 10.6113 175.875Z" fill="#0564FF"/>
<path d="M35.4157 170.544C35.2381 170.401 35.1092 170.206 35.0465 169.987C35.0161 169.877 35.0251 169.76 35.072 169.656C35.1189 169.552 35.2007 169.468 35.3032 169.418C35.5477 169.328 35.7922 169.491 35.9878 169.662C36.1834 169.833 36.4035 170.019 36.6553 169.982C36.5255 169.865 36.4282 169.717 36.373 169.551C36.3177 169.385 36.3063 169.208 36.3399 169.037C36.3507 168.966 36.3812 168.899 36.4279 168.844C36.5599 168.702 36.7995 168.763 36.9585 168.873C37.4597 169.227 37.6015 169.909 37.6039 170.525C37.6284 170.298 37.6284 170.07 37.6039 169.843C37.593 169.731 37.6096 169.617 37.6522 169.513C37.6947 169.408 37.7621 169.315 37.8484 169.242C37.968 169.179 38.102 169.148 38.2372 169.152C38.3494 169.136 38.4636 169.144 38.5726 169.174C38.6816 169.205 38.783 169.258 38.8704 169.33C38.9539 169.444 38.9967 169.582 38.9918 169.723C38.9869 169.864 38.9347 169.999 38.8436 170.107C38.6576 170.317 38.4368 170.494 38.1907 170.63C38.0037 170.741 37.8441 170.893 37.7237 171.074C37.7094 171.1 37.6979 171.127 37.6895 171.155H36.2983C35.9774 170.993 35.6804 170.787 35.4157 170.544Z" fill="#0564FF"/>
<path d="M27.1492 175.875C26.9721 175.73 26.8427 175.535 26.7775 175.315C26.7473 175.205 26.7567 175.088 26.804 174.984C26.8514 174.88 26.9337 174.796 27.0367 174.746C27.2812 174.656 27.5257 174.819 27.7213 174.99C27.9169 175.161 28.1345 175.347 28.3888 175.313C28.2592 175.195 28.1621 175.046 28.1068 174.88C28.0516 174.714 28.0401 174.537 28.0734 174.365C28.0842 174.294 28.1147 174.227 28.1614 174.172C28.2934 174.03 28.533 174.091 28.6919 174.204C29.1932 174.556 29.3325 175.237 29.3374 175.853C29.3619 175.627 29.3619 175.399 29.3374 175.174C29.328 175.06 29.3464 174.946 29.3911 174.841C29.4359 174.737 29.5056 174.644 29.5941 174.573C29.713 174.507 29.8473 174.475 29.9829 174.48C30.0952 174.464 30.2097 174.472 30.3188 174.503C30.4279 174.534 30.5292 174.588 30.6162 174.661C30.6994 174.774 30.7421 174.912 30.7372 175.053C30.7323 175.193 30.6802 175.328 30.5893 175.435C30.4028 175.645 30.1821 175.822 29.9364 175.958C29.7494 176.07 29.5899 176.223 29.4695 176.405C29.4547 176.429 29.4432 176.456 29.4352 176.483H28.0171C27.702 176.32 27.4101 176.115 27.1492 175.875Z" fill="#0564FF"/>
<path d="M3.70415 165.101C3.70415 165.101 3.17359 165.795 3.94865 166.843C4.72371 167.891 5.36429 168.776 5.10513 169.428C5.10513 169.428 3.93398 167.473 2.98043 167.456C2.02689 167.439 2.65525 166.262 3.70415 165.101Z" fill="#0564FF"/>
<path opacity="0.1" d="M3.70415 165.101C3.65835 165.168 3.62215 165.242 3.59657 165.319C2.66747 166.411 2.17114 167.429 3.066 167.456C3.8973 167.481 4.8973 168.966 5.13446 169.342C5.12697 169.371 5.11799 169.4 5.10757 169.428C5.10757 169.428 3.93642 167.473 2.98287 167.456C2.02933 167.439 2.65525 166.262 3.70415 165.101Z" fill="black"/>
<path d="M2.71881 165.986C2.71881 166.23 2.74571 166.428 2.77994 166.428C2.81417 166.428 2.84106 166.23 2.84106 165.986C2.84106 165.741 2.80683 165.856 2.7726 165.856C2.73837 165.856 2.71881 165.741 2.71881 165.986Z" fill="#FFD037"/>
<path d="M2.37898 166.279C2.59414 166.396 2.77996 166.464 2.79708 166.435C2.81419 166.406 2.65282 166.289 2.43766 166.171C2.2225 166.054 2.30808 166.14 2.29096 166.171C2.27385 166.203 2.16382 166.162 2.37898 166.279Z" fill="#FFD037"/>
<path d="M6.50859 165.101C6.50859 165.101 7.0416 165.795 6.26409 166.843C5.48659 167.891 4.84844 168.776 5.10761 169.428C5.10761 169.428 6.27876 167.473 7.23231 167.456C8.18585 167.439 7.55749 166.262 6.50859 165.101Z" fill="#0564FF"/>
<path opacity="0.1" d="M6.50856 165.101C6.55466 165.169 6.59166 165.242 6.61859 165.319C7.54768 166.411 8.04402 167.429 7.14915 167.456C6.31786 167.481 5.31786 168.966 5.07825 169.342C5.08544 169.372 5.09526 169.4 5.10759 169.428C5.10759 169.428 6.27874 167.473 7.23228 167.456C8.18583 167.439 7.55746 166.262 6.50856 165.101Z" fill="black"/>
<path d="M7.49633 165.986C7.49633 166.23 7.46944 166.428 7.43521 166.428C7.40098 166.428 7.37408 166.23 7.37408 165.986C7.37408 165.741 7.40831 165.856 7.44254 165.856C7.47677 165.856 7.49633 165.741 7.49633 165.986Z" fill="#FFD037"/>
<path d="M7.83621 166.279C7.62105 166.396 7.43278 166.464 7.41811 166.435C7.40344 166.406 7.56237 166.289 7.77753 166.171C7.99269 166.054 7.90711 166.14 7.92178 166.171C7.93645 166.203 8.04892 166.162 7.83621 166.279Z" fill="#FFD037"/>
<path d="M7.32763 169.337C7.32763 169.337 5.84352 169.291 5.39609 168.973C4.94866 168.656 3.11247 168.275 3 168.785C2.88753 169.296 0.770173 171.326 2.44499 171.338C4.11981 171.35 6.33986 171.077 6.78729 170.806C7.23472 170.534 7.32763 169.337 7.32763 169.337Z" fill="#A8A8A8"/>
<path opacity="0.2" d="M2.41562 171.16C4.09288 171.174 6.31048 170.901 6.75792 170.627C7.09777 170.422 7.23224 169.679 7.2787 169.335H7.3276C7.3276 169.335 7.23469 170.532 6.78726 170.801C6.33982 171.069 4.12222 171.348 2.44496 171.333C1.95596 171.333 1.79459 171.157 1.80437 170.903C1.87039 171.062 2.06843 171.148 2.41562 171.16Z" fill="black"/>
<path opacity="0.1" d="M8.29827 36.2391C11.219 36.2391 13.5868 33.8733 13.5868 30.955C13.5868 28.0366 11.219 25.6708 8.29827 25.6708C5.37751 25.6708 3.00977 28.0366 3.00977 30.955C3.00977 33.8733 5.37751 36.2391 8.29827 36.2391Z" fill="#0564FF"/>
<path opacity="0.1" d="M262.599 78.466C265.52 78.466 267.888 76.1002 267.888 73.1818C267.888 70.2635 265.52 67.8977 262.599 67.8977C259.678 67.8977 257.311 70.2635 257.311 73.1818C257.311 76.1002 259.678 78.466 262.599 78.466Z" fill="#0564FF"/>
<path opacity="0.1" d="M167.533 19.4583C170.454 19.4583 172.822 17.0925 172.822 14.1741C172.822 11.2558 170.454 8.88998 167.533 8.88998C164.612 8.88998 162.245 11.2558 162.245 14.1741C162.245 17.0925 164.612 19.4583 167.533 19.4583Z" fill="#0564FF"/>
<path opacity="0.1" d="M18.8753 68.9628C23.7702 68.9628 27.7384 64.9979 27.7384 60.107C27.7384 55.2161 23.7702 51.2512 18.8753 51.2512C13.9803 51.2512 10.0122 55.2161 10.0122 60.107C10.0122 64.9979 13.9803 68.9628 18.8753 68.9628Z" fill="#0564FF"/>
<path d="M105.183 143.803L104.87 143.491C104.837 143.459 104.81 143.422 104.792 143.38C104.774 143.338 104.764 143.292 104.764 143.246C104.764 143.201 104.774 143.155 104.792 143.113C104.81 143.071 104.837 143.033 104.87 143.002L107.616 140.256C107.647 140.223 107.685 140.196 107.727 140.178C107.769 140.16 107.815 140.15 107.861 140.15C107.906 140.15 107.952 140.16 107.994 140.178C108.036 140.196 108.074 140.223 108.105 140.256L110.851 143C110.884 143.031 110.91 143.069 110.928 143.111C110.945 143.153 110.955 143.198 110.955 143.244C110.955 143.29 110.945 143.335 110.928 143.377C110.91 143.419 110.884 143.457 110.851 143.488L110.538 143.801C110.506 143.834 110.468 143.86 110.426 143.878C110.384 143.896 110.339 143.905 110.293 143.905C110.248 143.905 110.203 143.896 110.161 143.878C110.119 143.86 110.081 143.834 110.049 143.801L108.425 142.091V146.149C108.426 146.193 108.417 146.237 108.4 146.278C108.384 146.32 108.359 146.357 108.327 146.389C108.296 146.42 108.259 146.445 108.218 146.462C108.177 146.479 108.133 146.488 108.088 146.488H107.636C107.546 146.488 107.459 146.452 107.395 146.389C107.332 146.325 107.296 146.239 107.296 146.149V142.096L105.672 143.806C105.641 143.839 105.602 143.864 105.56 143.882C105.518 143.9 105.473 143.909 105.427 143.908C105.382 143.908 105.337 143.899 105.295 143.881C105.253 143.863 105.215 143.836 105.183 143.803Z" fill="#F6F7F9"/>
<path d="M107.856 137.762C108.958 137.762 110.035 138.088 110.951 138.7C111.868 139.312 112.582 140.182 113.004 141.199C113.425 142.216 113.536 143.336 113.321 144.416C113.106 145.496 112.575 146.488 111.796 147.266C111.017 148.045 110.024 148.575 108.943 148.79C107.862 149.005 106.742 148.895 105.723 148.473C104.705 148.052 103.835 147.338 103.223 146.423C102.61 145.507 102.284 144.431 102.284 143.329C102.285 141.853 102.872 140.438 103.917 139.394C104.962 138.35 106.378 137.763 107.856 137.762ZM107.856 137.029C106.609 137.029 105.389 137.399 104.353 138.091C103.316 138.783 102.507 139.767 102.03 140.918C101.553 142.07 101.428 143.336 101.671 144.559C101.915 145.781 102.515 146.903 103.397 147.785C104.279 148.666 105.402 149.266 106.626 149.509C107.849 149.752 109.117 149.627 110.269 149.15C111.421 148.673 112.406 147.866 113.099 146.83C113.792 145.794 114.161 144.576 114.161 143.329C114.161 141.659 113.497 140.056 112.314 138.874C111.132 137.693 109.528 137.029 107.856 137.029Z" fill="#F6F7F9"/>
</g>
<defs>
<linearGradient id="paint0_linear" x1="192.271" y1="138.812" x2="192.271" y2="24.8915" gradientUnits="userSpaceOnUse">
<stop stop-color="#808080" stop-opacity="0.25"/>
<stop offset="0.54" stop-color="#808080" stop-opacity="0.12"/>
<stop offset="1" stop-color="#808080" stop-opacity="0.1"/>
</linearGradient>
<linearGradient id="paint1_linear" x1="410.096" y1="176.285" x2="410.096" y2="174.818" gradientUnits="userSpaceOnUse">
<stop stop-color="#808080" stop-opacity="0.25"/>
<stop offset="0.54" stop-color="#808080" stop-opacity="0.12"/>
<stop offset="1" stop-color="#808080" stop-opacity="0.1"/>
</linearGradient>
<linearGradient id="paint2_linear" x1="18013.6" y1="28075.2" x2="20945.7" y2="23827.7" gradientUnits="userSpaceOnUse">
<stop stop-color="#808080" stop-opacity="0.25"/>
<stop offset="0.54" stop-color="#808080" stop-opacity="0.12"/>
<stop offset="1" stop-color="#808080" stop-opacity="0.1"/>
</linearGradient>
<linearGradient id="paint3_linear" x1="25442.8" y1="22262.4" x2="26883.7" y2="17327.6" gradientUnits="userSpaceOnUse">
<stop stop-color="#808080" stop-opacity="0.25"/>
<stop offset="0.54" stop-color="#808080" stop-opacity="0.12"/>
<stop offset="1" stop-color="#808080" stop-opacity="0.1"/>
</linearGradient>
<linearGradient id="paint4_linear" x1="28156.1" y1="16452.1" x2="28568.1" y2="11328" gradientUnits="userSpaceOnUse">
<stop stop-color="#808080" stop-opacity="0.25"/>
<stop offset="0.54" stop-color="#808080" stop-opacity="0.12"/>
<stop offset="1" stop-color="#808080" stop-opacity="0.1"/>
</linearGradient>
<linearGradient id="paint5_linear" x1="11107.2" y1="46021.8" x2="10345.1" y2="29288.8" gradientUnits="userSpaceOnUse">
<stop stop-color="#808080" stop-opacity="0.25"/>
<stop offset="0.54" stop-color="#808080" stop-opacity="0.12"/>
<stop offset="1" stop-color="#808080" stop-opacity="0.1"/>
</linearGradient>
<linearGradient id="paint6_linear" x1="34382.9" y1="30346.7" x2="38317.5" y2="18234.5" gradientUnits="userSpaceOnUse">
<stop stop-color="#808080" stop-opacity="0.25"/>
<stop offset="0.54" stop-color="#808080" stop-opacity="0.12"/>
<stop offset="1" stop-color="#808080" stop-opacity="0.1"/>
</linearGradient>
<linearGradient id="paint7_linear" x1="44032.9" y1="87714.7" x2="44032.9" y2="44179.7" gradientUnits="userSpaceOnUse">
<stop stop-color="#808080" stop-opacity="0.25"/>
<stop offset="0.54" stop-color="#808080" stop-opacity="0.12"/>
<stop offset="1" stop-color="#808080" stop-opacity="0.1"/>
</linearGradient>
<clipPath id="clip0">
<rect width="277" height="205" fill="white"/>
</clipPath>
</defs>
</svg>
