
<?xml version="1.0" encoding="utf-8"?>
<!-- Generator: Adobe Illustrator 23.0.1, SVG Export Plug-In . SVG Version: 6.00 Build 0)  -->
<svg version="1.1" id="Camada_1" xmlns="http://www.w3.org/2000/svg" xmlns:xlink="http://www.w3.org/1999/xlink" x="0px" y="0px"
	 viewBox="0 0 1739 239" style="enable-background:new 0 0 1739 239;" xml:space="preserve">
<style type="text/css">
	.st0{fill:#FAFAFF;}
</style>
<g>
	<path class="st0" d="M237.64,134.3c-11.29,15.85-27.19,27.65-47.71,35.4l40.02,69.78h-83.8l-33.86-60.2H92.44l-11.97,60.2H-0.25
		L47.63,0.05h107.4c31.47,0,55.92,6.9,73.37,20.69c17.44,13.8,26.17,33.12,26.17,57.98C254.57,99.92,248.92,118.45,237.64,134.3z
		 M142.72,62.3H115.7l-11.29,56.09h33.18c11.17,0,19.84-2.79,26-8.38c6.16-5.58,9.23-13.39,9.23-23.43
		C172.82,70.4,162.78,62.3,142.72,62.3z"/>
	<path class="st0" d="M302.45,0.05h80.72l-47.89,239.43h-80.72L302.45,0.05z"/>
	<path class="st0" d="M422.16,0.05h108.08c25.08,0,46.8,4.1,65.16,12.31c18.35,8.21,32.43,19.96,42.24,35.23
		c9.8,15.28,14.71,33.3,14.71,54.04c0,27.59-6.39,51.82-19.15,72.68c-12.77,20.86-30.5,36.94-53.19,48.23
		c-22.69,11.29-48.52,16.93-77.47,16.93H374.28L422.16,0.05z M505.28,176.54c20.75,0,36.88-6.55,48.4-19.67
		c11.51-13.11,17.27-29.93,17.27-50.45c0-13.91-4.28-24.63-12.83-32.15c-8.55-7.53-20.92-11.29-37.11-11.29h-30.78l-22.57,113.56
		H505.28z"/>
	<path class="st0" d="M771.72,60.93l-5.47,28.05h101.24l-11.63,58.15H754.28l-6.16,31.47h120.06l-12.31,60.88H656.8L704.68,0.05
		H899.3l-12.31,60.88H771.72z"/>
	<path class="st0" d="M1124.87,134.3c-11.29,15.85-27.19,27.65-47.71,35.4l40.02,69.78h-83.8l-33.86-60.2h-19.84l-11.97,60.2h-80.72
		L934.87,0.05h107.4c31.47,0,55.92,6.9,73.37,20.69c17.44,13.8,26.17,33.12,26.17,57.98C1141.8,99.92,1136.16,118.45,1124.87,134.3z
		 M1029.96,62.3h-27.02l-11.29,56.09h33.18c11.17,0,19.84-2.79,26-8.38c6.16-5.58,9.24-13.39,9.24-23.43
		C1060.06,70.4,1050.02,62.3,1029.96,62.3z"/>
	<path class="st0" d="M1189.69,0.05h80.72l-47.89,239.43h-80.72L1189.69,0.05z"/>
	<path class="st0" d="M1505.39,49.64l-132.71,127.24h112.87l-12.66,62.59h-219.93l9.92-49.6l132.71-127.24h-103.98l12.66-62.59
		h211.04L1505.39,49.64z"/>
	<path class="st0" d="M1611.42,60.93l-5.47,28.05h101.24l-11.63,58.15h-101.58l-6.16,31.47h120.06l-12.31,60.88h-199.07
		l47.89-239.43H1739l-12.31,60.88H1611.42z"/>
</g>
</svg>
