<svg width="13" height="20" viewBox="0 0 13 20" fill="none" xmlns="http://www.w3.org/2000/svg">
<path fill-rule="evenodd" clip-rule="evenodd" d="M2.79142 5.44216C3.0769 5.13634 3.4275 4.78979 3.81838 4.42232C4.89279 3.41226 6.19126 2.31892 7.05853 1.62171L5.67723 0C4.78298 0.718901 3.43918 1.84969 2.31169 2.90965C1.75048 3.43725 1.22255 3.96622 0.827699 4.42843C0.631693 4.65787 0.448286 4.89417 0.308208 5.1219C0.195338 5.3054 0 5.65275 0 6.05879C0 6.61308 0.336043 6.98728 0.646953 7.18399C0.922994 7.35864 1.23151 7.43661 1.46661 7.47835C1.95342 7.56476 2.55219 7.56482 3.12401 7.53454C4.11953 7.48181 5.26354 7.32238 6.14092 7.17039L9.66385 9.39167L4.07209 11.8471C3.73863 11.9935 3.50379 12.2936 3.44774 12.6449C3.39169 12.9963 3.522 13.3513 3.79419 13.589L6.03224 15.5429L0.609198 18.1074L1.55747 20L8.42738 16.7513C8.7515 16.598 8.97591 16.2981 9.02605 15.9513C9.07618 15.6045 8.94547 15.2562 8.67735 15.0221L6.4769 13.1011L12.3629 10.5165C12.7238 10.358 12.967 10.0207 12.9969 9.63689C13.0268 9.25313 12.8387 8.8841 12.5064 8.67458L6.95765 5.17596C6.72213 5.02745 6.43645 4.97359 6.16084 5.02572C5.30566 5.18748 4.03818 5.37805 3.00607 5.43272C2.93179 5.43665 2.86022 5.43979 2.79142 5.44216ZM2.12924 6.27316C2.12924 6.27316 2.13055 6.26898 2.13503 6.25996C2.13179 6.26855 2.12924 6.27316 2.12924 6.27316Z" fill="#FAFAFF"/>
</svg>
